<svg xmlns="http://www.w3.org/2000/svg" viewBox="0 0 80 84.1902"><defs><style>.cls-1{fill:#f2f2f2;}.cls-2{fill:#37cbc4;}.cls-3{fill:#44dcd4;}.cls-4{fill:#323131;}.cls-5{fill:#0069a3;}.cls-6{fill:#ffcc35;}</style></defs><g id="Layer_2" data-name="Layer 2"><g id="Layer_1-2" data-name="Layer 1"><rect class="cls-1" width="80" height="80" rx="39.99996"/><polygon class="cls-2" points="26.083 35.036 26.09 47.023 19.347 47.023 12.604 47.023 12.601 35.076 10 32.424 10 36.849 10 40.031 10 44.953 10 47.839 10 49.627 10.952 49.627 14.674 49.627 19.347 49.627 24.021 49.627 28.695 49.627 28.695 46.986 28.695 44.953 28.695 40.031 28.695 36.849 28.695 32.424 26.083 35.036"/><polygon class="cls-3" points="22.255 30.353 19.347 33.261 16.44 30.353 15.123 31.89 17.978 34.745 19.347 36.115 20.514 34.948 23.572 31.89 22.255 30.353"/><path class="cls-4" d="M65.5807,39.91591a.98152.98152,0,0,1-.32171-.77048,1.051,1.051,0,0,1,.4724-.91929,2.48183,2.48183,0,0,1,1.403-.325H68.04v1.41011a1.62365,1.62365,0,0,1-.66136.64955,1.91233,1.91233,0,0,1-.9363.2414A1.24742,1.24742,0,0,1,65.5807,39.91591ZM70,41.412v-.11762a3.82269,3.82269,0,0,1-.28344-1.60994V36.312a2.35227,2.35227,0,0,0-.80308-1.85511,3.14825,3.14825,0,0,0-2.09367-.66136,3.89886,3.89886,0,0,0-1.56554.30422,2.71115,2.71115,0,0,0-1.10919.83993A1.86513,1.86513,0,0,0,63.7374,36.09h1.67938a.88884.88884,0,0,1,.36611-.72939,1.47272,1.47272,0,0,1,.9396-.28627,1.28853,1.28853,0,0,1,.98874.34863,1.31153,1.31153,0,0,1,.325.92968v.49082H67.00641a4.301,4.301,0,0,0-2.5401.63916,2.126,2.126,0,0,0-.88764,1.83433,2.06111,2.06111,0,0,0,.71144,1.58963,2.82656,2.82656,0,0,0,3.8014-.19322,2.61484,2.61484,0,0,0,.19321.69774ZM56.0642,33.93486V41.412h1.67938V36.09089a1.61762,1.61762,0,0,1,1.51168-.91929,1.29433,1.29433,0,0,1,1.00527.342,1.53568,1.53568,0,0,1,.30706,1.05439v4.844h1.67985V36.4707q-.0411-2.67331-2.37712-2.67426a2.68853,2.68853,0,0,0-2.17682,1.00244l-.04724-.864Zm-7.72941,0V41.412h1.67938V36.09089a1.61762,1.61762,0,0,1,1.51168-.91929,1.29273,1.29273,0,0,1,1.0048.342,1.54052,1.54052,0,0,1,.30753,1.05439v4.844h1.67938V36.4707q-.0411-2.67331-2.37711-2.67426a2.68936,2.68936,0,0,0-2.17682,1.00244l-.04724-.864Zm-3.19957-1.3095a.934.934,0,0,0,.70151.25179.95038.95038,0,0,0,.70482-.25179.8626.8626,0,0,0,.249-.63254.8824.8824,0,0,0-.249-.64246.93789.93789,0,0,0-.70482-.25557.92669.92669,0,0,0-.70151.25557.8914.8914,0,0,0-.24517.64246A.87056.87056,0,0,0,45.13522,32.62536Zm1.53814,1.3095H44.994V41.412h1.67939Zm-13.96273,0V41.412H34.39V35.99405a1.47844,1.47844,0,0,1,1.43043-.82292A1.198,1.198,0,0,1,37.16773,36.491v4.921h1.67938l-.00662-5.1279a1.62366,1.62366,0,0,1,.50736-.80308,1.39909,1.39909,0,0,1,.9363-.30753,1.363,1.363,0,0,1,1.02983.33068,1.48837,1.48837,0,0,1,.31084,1.04353v4.86572H43.3042v-4.913a3.013,3.013,0,0,0-.61837-2.01809,2.33027,2.33027,0,0,0-1.84236-.684A2.65254,2.65254,0,0,0,38.549,34.94579a2.06471,2.06471,0,0,0-2.05163-1.14935,2.68708,2.68708,0,0,0-2.156.91929l-.04724-.78087Z"/><path class="cls-2" d="M68.61256,47.66658a.77524.77524,0,0,1-.463.11574.7908.7908,0,0,1-.505-.14739.54324.54324,0,0,1-.20644-.42091H66.688a.99539.99539,0,0,0,.18376.57491,1.23864,1.23864,0,0,0,.51492.419,1.7733,1.7733,0,0,0,.75206.15211,1.63668,1.63668,0,0,0,1.00622-.28721.89428.89428,0,0,0,.38453-.75112.85027.85027,0,0,0-.12566-.47,1.0152,1.0152,0,0,0-.38406-.33068,2.85016,2.85016,0,0,0-.71285-.2362,2.07773,2.07773,0,0,1-.60278-.19841.31369.31369,0,0,1-.14976-.27635.37131.37131,0,0,1,.16062-.31462.685.685,0,0,1,.4143-.11716.63446.63446,0,0,1,.43839.14739.47807.47807,0,0,1,.16486.37036H69.504a.967.967,0,0,0-.37792-.79079,1.53247,1.53247,0,0,0-.99534-.30517,1.48126,1.48126,0,0,0-.95284.29855.91345.91345,0,0,0-.37414.74309.87659.87659,0,0,0,.57727.80922,2.89769,2.89769,0,0,0,.65758.21022,1.824,1.824,0,0,1,.56358.189.3491.3491,0,0,1,.17006.31415A.35854.35854,0,0,1,68.61256,47.66658Zm-3.33373-2.05116a.93458.93458,0,0,1,.20644.58578v.05716H64.01516a1.1485,1.1485,0,0,1,.24943-.61885.71683.71683,0,0,1,1.01424-.02409Zm.36327,2.575a1.3869,1.3869,0,0,0,.5513-.47807l-.41572-.39634a1.04635,1.04635,0,0,1-.86355.428.85029.85029,0,0,1-.62734-.24753,1.02724,1.02724,0,0,1-.28344-.67317h2.24484v-.31084a1.8935,1.8935,0,0,0-.38264-1.267A1.35093,1.35093,0,0,0,64.779,44.7977a1.47478,1.47478,0,0,0-.80024.22533,1.51161,1.51161,0,0,0-.557.63065,2.05977,2.05977,0,0,0-.1984.91882V46.667a1.66763,1.66763,0,0,0,.45539,1.22824,1.61026,1.61026,0,0,0,1.189.462,1.72752,1.72752,0,0,0,.77425-.16676ZM61.81,44.25963a.42765.42765,0,0,0,.32217.11574.43458.43458,0,0,0,.32407-.11574.39821.39821,0,0,0,.11432-.29052.40678.40678,0,0,0-.11432-.29525.4313.4313,0,0,0-.32407-.11716.42191.42191,0,0,0-.32217.11716.40956.40956,0,0,0-.11291.29525.40107.40107,0,0,0,.11291.29052Zm.7086.60184h-.7719v3.43529h.7719Zm-3.663.86969a.68264.68264,0,0,1,.59192-.30187.73063.73063,0,0,1,.68593.39115v1.51168a.743.743,0,0,1-.6916.40012.67976.67976,0,0,1-.58625-.29714,1.38246,1.38246,0,0,1-.21116-.81441,1.54263,1.54263,0,0,1,.20928-.88953Zm-.59852,2.14753a1.20368,1.20368,0,0,0,.98542.47948,1.1356,1.1356,0,0,0,.88906-.3713v.23195a.7967.7967,0,0,1-.222.61081.85385.85385,0,0,1-.60656.20833,1.10422,1.10422,0,0,1-.8763-.4228l-.36517.4639a1.31083,1.31083,0,0,0,.548.411,1.82573,1.82573,0,0,0,.73788.15731,1.59649,1.59649,0,0,0,1.13376-.3902,1.3943,1.3943,0,0,0,.42091-1.06668v-3.329H60.2062l-.03448.34627a1.13049,1.13049,0,0,0-.924-.41,1.208,1.208,0,0,0-.99866.47807,2.01468,2.01468,0,0,0-.37792,1.27784A2.07943,2.07943,0,0,0,58.25708,47.87869ZM55.15672,45.7151a.75442.75442,0,0,1,1.20792.00472,1.36535,1.36535,0,0,1,.22392.82528,1.52606,1.52606,0,0,1-.21778.89237.70434.70434,0,0,1-.6075.3047.7119.7119,0,0,1-.60987-.29951,1.38079,1.38079,0,0,1-.21919-.83047,1.49625,1.49625,0,0,1,.2225-.89521Zm-.992.86827a1.85529,1.85529,0,0,0,.43649,1.29107,1.48909,1.48909,0,0,0,1.164.48373,1.59854,1.59854,0,0,0,.83945-.21872,1.4465,1.4465,0,0,0,.55885-.61931,2.04733,2.04733,0,0,0,.1951-.908l-.00283-.1814a1.76153,1.76153,0,0,0-.46862-1.18714,1.49837,1.49837,0,0,0-1.12856-.44784,1.584,1.584,0,0,0-.83332.21967,1.46449,1.46449,0,0,0-.56216.62215,2.03138,2.03138,0,0,0-.19982.90937Zm-.69491-3.16508H52.696v4.87847h.77191Zm-3.67385,2.29728a.75586.75586,0,0,1,1.20793.00472,1.36327,1.36327,0,0,1,.22439.82529,1.52612,1.52612,0,0,1-.21778.89236.76437.76437,0,0,1-1.21738.0052,1.38092,1.38092,0,0,1-.21919-.83048A1.49149,1.49149,0,0,1,49.794,45.717Zm-.992.86827a1.85655,1.85655,0,0,0,.436,1.29107,1.48823,1.48823,0,0,0,1.164.48374,1.60054,1.60054,0,0,0,.83662-.21731,1.44657,1.44657,0,0,0,.55885-.61931,2.04747,2.04747,0,0,0,.197-.908l-.00284-.1814a1.76267,1.76267,0,0,0-.46814-1.18714,1.498,1.498,0,0,0-1.129-.44784,1.58208,1.58208,0,0,0-.83142.21778,1.45784,1.45784,0,0,0-.56216.62215,2.03138,2.03138,0,0,0-.19982.90937ZM45.3204,44.86005v3.4353h.77143V45.85209a.74956.74956,0,0,1,.69585-.42516.5948.5948,0,0,1,.46153.15731.70872.70872,0,0,1,.14172.48468V48.2944h.77143v-2.268q-.01842-1.22825-1.09219-1.22824a1.23532,1.23532,0,0,0-1.00007.46059l-.0222-.39682Zm-2.83818-1.44176H41.707v4.87847h.77191V45.84028a.74366.74366,0,0,1,.69206-.41335.6285.6285,0,0,1,.45256.14834.677.677,0,0,1,.15353.5031v2.216H44.549V46.05192q-.0156-1.25423-1.1144-1.25423a1.208,1.208,0,0,0-.95566.43839Zm-3.33514,4.04988a1.40648,1.40648,0,0,1-.20172-.83378v-.1233a1.3829,1.3829,0,0,1,.20644-.82434.67771.67771,0,0,1,.57727-.27115.649.649,0,0,1,.48138.189.70859.70859,0,0,1,.20171.4861h.72656a1.27853,1.27853,0,0,0-.40438-.93866,1.40871,1.40871,0,0,0-.99818-.35714,1.45015,1.45015,0,0,0-1.14321.4724,1.82337,1.82337,0,0,0-.419,1.25612v.07983a1.85181,1.85181,0,0,0,.42186,1.2887,1.46408,1.46408,0,0,0,1.1432.46674,1.5041,1.5041,0,0,0,.69207-.162,1.30942,1.30942,0,0,0,.50783-.43933,1.12865,1.12865,0,0,0,.19983-.59853h-.72986a.57586.57586,0,0,1-.20313.41571.69771.69771,0,0,1-.48.16818.67393.67393,0,0,1-.582-.27305Zm-2.396-1.85417a.94207.94207,0,0,1,.20644.58578v.05716H35.48409a1.15064,1.15064,0,0,1,.249-.61884.71564.71564,0,0,1,1.01471-.02268Zm.36327,2.57506a1.387,1.387,0,0,0,.55129-.47807l-.41571-.39635a1.04635,1.04635,0,0,1-.864.428.85029.85029,0,0,1-.62687-.24754,1.0272,1.0272,0,0,1-.28344-.67317h2.24484v-.31084a1.89341,1.89341,0,0,0-.38264-1.267,1.35092,1.35092,0,0,0-1.08652-.44784,1.47434,1.47434,0,0,0-.79977.22533,1.51168,1.51168,0,0,0-.557.63066,2.05961,2.05961,0,0,0-.19841.91882v.09448a1.66761,1.66761,0,0,0,.4554,1.22824,1.61025,1.61025,0,0,0,1.189.462,1.72751,1.72751,0,0,0,.77048-.16534Zm-4.2516-4.16374v.83473h-.56688v.57161h.56688V47.378q0,.9807.88906.9807a1.87938,1.87938,0,0,0,.50783-.07322v-.5957a1.18493,1.18493,0,0,1-.26974.03212.36072.36072,0,0,1-.27777-.08739.42176.42176,0,0,1-.078-.28344V45.43307h.60657v-.5716h-.61082v-.83473Z"/><path class="cls-5" d="M28,69.1902H52v15H28Z"/><path class="cls-6" d="M28,75.1902h7.5v-6h3v6H52v3H38.5v6h-3v-6H28Z"/></g></g></svg>