<svg id="Layer_1" data-name="Layer 1" xmlns="http://www.w3.org/2000/svg" viewBox="0 0 80 84.19"><defs><style>.cls-1{fill:#f2f2f2;}.cls-2{fill:#fbd314;}.cls-10,.cls-11,.cls-2,.cls-3,.cls-4,.cls-5,.cls-6,.cls-7,.cls-8,.cls-9{fill-rule:evenodd;}.cls-3{fill:#cc1324;}.cls-4{fill:#046b3b;}.cls-5{fill:#050404;}.cls-6{fill:#a3b841;}.cls-7{fill:#33b37c;}.cls-8{fill:#f5f9f7;}.cls-9{fill:#207b56;}.cls-10{fill:#90d8bc;}.cls-11{fill:#64c49e;}</style></defs><rect class="cls-1" width="80" height="80" rx="40"/><g id="svgg"><path id="path0" class="cls-2" d="M27.24,77.17V79.5H31.7c4.42,0,4.52,0,4.52,0s.06-.2.07-.24l.07-.2c0-.18.15-.51.21-.69.19-.59.21-.65.16-.65l-.13-.09-.15-.11-.06,0-.24-.17,0,0,0,0a.56.56,0,0,0-.12-.09c-.12-.09-.25-.19-.53-.38s-.22-.17-.11-.17h.92c1,0,.91,0,.93-.09s0-.09.05-.16.06-.18.08-.26a2.83,2.83,0,0,1,.09-.27c0-.07.07-.24.12-.39l.13-.41a.4.4,0,0,0,0-.15s-.68,0-5.21,0H27.24v2.33m10.57-2.32h0s.17.52.18.54a.12.12,0,0,1,0,.07l0,.08a.21.21,0,0,1,0,.06,1.07,1.07,0,0,0,0,.16l.16.47a2.15,2.15,0,0,0,.13.34h1.81c.07,0,0,.09-.32.3l-.11.08-.19.14-.13.09-.05,0-.47.35-.1.06c-.08.06-.08,0,0,.3a2,2,0,0,1,.08.26l.07.2.18.53.15.46a.16.16,0,0,0,.05.08s.92,0,4.48,0h4.46V74.84H37.81m-.16,3.65-.11.07,0,0,0,0s-.05,0-.05,0l-.14.1-.15.11L37,79l-.11.08-.09.07-.08.06-.21.16c-.16.11-.19.14-.17.15s2.88,0,2.89,0,0,0,0,0l-.33-.23a1.29,1.29,0,0,0-.19-.13s0,0,0,0h0l-.1-.07-.24-.17L38,78.56c-.2-.15-.19-.14-.3-.06" transform="translate(0 0)"/><path id="path1" class="cls-3" d="M27.24,72.49v2.34H37.75s1.21,0,5.27,0h5.26V70.15h-21v2.34" transform="translate(0 0)"/><path id="path2" class="cls-4" d="M35.73,76.62h0m3.05,0h0m1.21.14,0,0,0,0,0,0s0,0,0,0M35.82,77l0,0,0,0,0,0,0,0m1.1,2c-.06,0-.08.06,0,0L37,79l0,0m-.53.38s0,0,0,0l.09-.07-.06,0m-.11.09h-.06s-.55,0-4.49,0H27.24v4.68h21V79.51H43.8c-2.59,0-4.49,0-4.49,0l0,0s0,0,0,0a10.9,10.9,0,0,1-1.51,0H36.24l0,0,0,0s0,0,0,0" transform="translate(0 0)"/><path id="path3" class="cls-5" d="M37.71,74.83a.77.77,0,0,0,0,.12l-.07.23c-.07.2-.15.46-.18.57l-.09.27c-.07.21-.13.41-.16.51s0,.09-1,.09h-.9a3.81,3.81,0,0,0,.36.27c.31.21,1.15.82,1.15.84l-.06.19-.12.38c0,.12-.08.26-.11.33s0,.19-.08.27-.08.24-.12.36-.07.27.06.15,0,0,.06,0l.27-.2L37,79l.6-.44c.2-.15.17-.14.35,0l.24.17,1,.7c.13.09.18.12.18.1L39.12,79c-.09-.29-.19-.58-.21-.65a3.38,3.38,0,0,1-.12-.35,1.21,1.21,0,0,1-.08-.25l.22-.18.83-.6.32-.24.08-.06H38.35a9,9,0,0,1-.31-.86c0-.08-.09-.28-.1-.31s-.06-.16-.11-.32-.11-.33-.12-.29" transform="translate(0 0)"/><path id="path4" class="cls-6" d="M32.44,74.84c4.57,0,5.22,0,5.22,0s0,.08,0,.14-.07.22-.05.2a2.47,2.47,0,0,0,.11-.36s-2.36,0-5.23,0h0m5.31,0s0,.16.06.15l0-.07,0-.07,4.87,0h5.25c.22,0-2,0-4.87,0-4.77,0-5.27,0-5.27,0m.07.2a2.93,2.93,0,0,0,.11.33,2.17,2.17,0,0,0-.12-.36,0,0,0,0,0,0,0m-.27.2s0,0,0,0a0,0,0,0,0,0,0,.11.11,0,0,0,0,0s0,0,0,0m0,.14s0,.07,0,.08,0,0,0-.07l0-.08s0,0,0,.07m.43,0a.39.39,0,0,0,0,.06l0,0v0s0-.1,0-.06m-.5.2a.9.9,0,0,0,0,.12.39.39,0,0,0,0-.11c0-.07,0-.13,0-.13l0,.12m.55,0c0,.07,0,.1,0,0s0-.06,0-.06,0,0,0,0m0,.12a.73.73,0,0,0,.07.2.94.94,0,0,0-.07-.22s0,0,0,0m-.67.17-.07.23c0,.14-.06.19,0,.19l0,0s0-.14.08-.26a1.62,1.62,0,0,0,.06-.21.41.41,0,0,0,0,.09m.75.08,0,.08,0,0v0a.26.26,0,0,0,0-.08l0,0v0m0,.15a.21.21,0,0,0,0,.06l0,0v0s0-.1,0-.06m0,.12,0,.06,0,0v0c0-.05,0-.09,0-.06m-1,.18c0,.06,0,.11,0,.11a.4.4,0,0,0,0-.09,1,1,0,0,0,0-.11l0,.09m1.06-.06a1.25,1.25,0,0,0,.06.18.7.7,0,0,0-.06-.19h0m-1.1.2c0,.08,0,.08-.92.07h-.92c-.11,0-.09,0,.11.17l.29.21c.12.08.16.11.12.07l-.46-.33-.11-.09s.42,0,.94,0h.94v0a.11.11,0,0,0,0,0h0m1.17,0a.1.1,0,0,0,0,0v0h.92c.51,0,.92,0,.92,0s0,0,0,0l-.74.54-.54.4c-.18.12-.17.11-.13.21a.72.72,0,0,0,0,.08s0,0,0-.07,0-.11,0-.16l.1-.06.47-.35.05,0,.13-.09.19-.14.11-.08c.3-.21.39-.29.32-.3H38.36l0,0s0,0,0,0m-2.46.53a1.12,1.12,0,0,0,.22.16L36,77.15l-.11-.08h0m.29.22a0,0,0,0,0,0,0l.09,0c.09.07.15.1.11.07a1.06,1.06,0,0,0-.21-.14m.24.17v0a0,0,0,0,1,0,0l.16.11c.16.11.16.11.16.14a1.8,1.8,0,0,1-.07.24c-.07.22-.1.3-.08.28a5.36,5.36,0,0,0,.16-.52s0,0-.31-.26c0,0-.07,0-.07,0m2.4.49a.11.11,0,0,0,0,.06s0,0,0-.06l0,0v0m0,.11a2,2,0,0,0,.07.21.88.88,0,0,0-.07-.23s0,0,0,0m-2.29.39c0,.09-.07.23-.09.3a2.14,2.14,0,0,0-.1.32s0,0,0-.12.07-.24.12-.38.08-.27.08-.27a.72.72,0,0,0-.06.15m2.37-.13,0,.07s0,0,0-.07l0,0v0m-1.27.17-.1.09s0,0,0,0,.17-.14.38,0l.33.24.24.17s.1.07.1.06-.72-.53-.84-.6,0,0-.14,0m1.32,0a.11.11,0,0,0,0,.06s0,0,0-.06l0,0v0m0,.11c0,.1.2.59.2.58a5.57,5.57,0,0,0-.19-.58s0,0,0,0m-1.53.07s0,0,0,0,.08-.06.07-.07l0,0m-.19.13c-.13.1-.18.13-.13.11l.13-.09.12-.09s0,0,0,0-.06,0-.13.08m-.23.17C37,79,36.93,79,37,79a.73.73,0,0,0,.14-.11s0,0-.07,0m-.21.15-.28.21-.27.2,0,0h1.53a7.57,7.57,0,0,0,1.5,0s0,0,0,0-2.85,0-2.9,0,0,0,.17-.15l.21-.16.16-.12s0,0,0,0,0,0-.05,0m1.81,0s0,0,0,0a1.29,1.29,0,0,1,.19.13c.25.18.33.24.33.22L39,79.26l-.21-.15-.1-.06m-2.32.09c0,.07,0,.08,0,0s0-.06,0-.07a.32.32,0,0,0,0,.06m2.89.07a.08.08,0,0,0,0,0s0,0,0,0a.06.06,0,0,0,0,0s0,0,0,0m-2.92,0s0,.1,0,.1a.2.2,0,0,0,0-.11,0,0,0,0,0,0,0m3,.08a.94.94,0,0,1,0,.09l0,0v0a.94.94,0,0,0,0-.09l0,0v0m-3,.09c0,.08,0,.09,0,0a.32.32,0,0,0,0-.07l0,.05m3.06,0c0,.07-.31.07,4.5.06h0c-4.41,0-4.47,0-4.49,0s0,0,0,0m-7.59,0h0c3,0,4.49,0,4.49,0s0,0,0,0h-4.5" transform="translate(0 0)"/></g><g id="svgg-2" data-name="svgg"><path id="path0-2" data-name="path0" class="cls-7" d="M72.14,34a2,2,0,0,1-.61.08c-.11,0-.17,0-.19.06a.44.44,0,0,1-.29.09s-.09,0-.15.07a.34.34,0,0,1-.18.07s-.09,0-.1,0a.45.45,0,0,1-.21.12.22.22,0,0,0-.1.07.22.22,0,0,1-.12.07s0,0,0,0-.07.07-.14.13a2.74,2.74,0,0,0-.57.55s0,0,0,0a.1.1,0,0,0-.07.07,1.94,1.94,0,0,1-.16.24.89.89,0,0,0-.16.25.44.44,0,0,1-.08.15.15.15,0,0,0-.06.11.33.33,0,0,1-.12.21s0,.05,0,.07a.08.08,0,0,1,0,.08s0,.05,0,.05,0,0,0,.11a.67.67,0,0,0-.08.31.49.49,0,0,1,0,.23.28.28,0,0,0,0,.15c0,.07,0,.12,0,.12a1.22,1.22,0,0,0,0,.42,1.18,1.18,0,0,0,0,.41s0,0,0,.09a.35.35,0,0,0,0,.16.63.63,0,0,1,0,.23c0,.09,0,.17,0,.17s0,0,0,0a.24.24,0,0,0,.05.14.53.53,0,0,1,0,.2c0,.05,0,.09,0,.09s0,0,0,0,0,0,0,0a.49.49,0,0,1,.1.24.24.24,0,0,0,.07.11A.21.21,0,0,1,69,40a.28.28,0,0,0,.08.13l.07.12s.56.61.69.73.05,0,0,.06,0,0,0,0a.19.19,0,0,1,.13.07s.09.08.12.08a.18.18,0,0,1,.1.07.2.2,0,0,0,.09.06.39.39,0,0,1,.17.1c.06,0,.13.08.15.07s.25.07.25.11,0,0,0,0a0,0,0,0,1,0,0,.06.06,0,0,0,.06,0,.58.58,0,0,1,.32.09s.07,0,.65.08a4.92,4.92,0,0,0,1.32-.08.78.78,0,0,1,.37-.1c.06,0,.1,0,.11,0a.29.29,0,0,1,.24-.09s.08,0,.13-.06l.15-.1.19-.1a.55.55,0,0,1,.16-.09l.08-.06a.14.14,0,0,1,.09-.07c.11,0,.24-.19.16-.22a.07.07,0,0,1,0-.06.76.76,0,0,0-.09-.15c0-.06-.09-.13-.08-.15s0,0,0,0a.18.18,0,0,1-.1-.09c0-.09-.06-.09-.17,0a.41.41,0,0,1-.13.08.12.12,0,0,0-.07.06.21.21,0,0,1-.11.07s-.07,0-.07.06,0,0,0,0,0,0,0,0,0,0-.08,0l-.2.1a.37.37,0,0,1-.19.07.47.47,0,0,0-.19.06.71.71,0,0,1-.28.08,9.94,9.94,0,0,1-1.09,0,.56.56,0,0,0-.21,0c-.2,0-.31,0-.34-.1a.63.63,0,0,0-.25,0,.27.27,0,0,1-.12-.06.48.48,0,0,0-.16-.08.19.19,0,0,1-.11-.06.46.46,0,0,0-.12-.09l-.16-.1c-.17-.16-.25-.23-.28-.23a0,0,0,0,1,0,0,.65.65,0,0,0-.14-.16,1.51,1.51,0,0,1-.14-.17s0,0,0,0,0,0,0,0a.08.08,0,0,0,0-.06s0-.06-.06-.11,0-.09-.07-.1a.26.26,0,0,1-.07-.11c0-.11.19-.27.33-.23s.07,0,.07,0,.24-.16.29-.14,0,0,0,0,0,0,0,0a.07.07,0,0,0,.08,0c.06-.07.19-.11.21-.06s0,0,.1,0a.43.43,0,0,1,.3-.12s0,0,0,0,0,0,0,0a.1.1,0,0,0,.08,0,.8.8,0,0,1,.33-.09s0,0,0,0,.19-.13.25-.11.07,0,.1,0a.41.41,0,0,1,.22-.09.48.48,0,0,0,.2-.08.12.12,0,0,1,.11,0s.06,0,.06,0,0,0,0,0a.15.15,0,0,0,.1,0,.53.53,0,0,1,.29-.12.25.25,0,0,0,.12,0,.53.53,0,0,1,.35-.11,0,0,0,0,0,0,0s0,0,.14-.06A1.07,1.07,0,0,0,74,37.6a.89.89,0,0,1,.24-.09c.06,0,.12,0,.12,0s.19-.09.28-.09.08,0,.08,0,.21-.12.25-.1a.09.09,0,0,0,.08,0s0,0,0,0,0,0,.06-.05a.28.28,0,0,1,.19-.07l.15,0a.36.36,0,0,1,.25-.11.06.06,0,0,0,.06,0,.4.4,0,0,1,.13-.09c.11,0,.14-.17,0-.23a.57.57,0,0,1-.09-.27.11.11,0,0,0,0-.09s-.06-.07-.08-.14a.76.76,0,0,0-.11-.22.38.38,0,0,1-.07-.15.13.13,0,0,0-.07-.08s-.06,0-.06-.08,0,0,0,0a1.8,1.8,0,0,1-.28-.4,0,0,0,0,0,0,0,1.14,1.14,0,0,1-.23-.2,1.46,1.46,0,0,0-.29-.24l-.13-.1a.29.29,0,0,0-.12-.09s-.09-.06-.09-.09a0,0,0,0,0,0,0,.32.32,0,0,1-.23-.11l-.1,0c-.2,0-.29-.06-.29-.1s0,0-.07-.05a2.28,2.28,0,0,1-.73-.09,2.41,2.41,0,0,0-.62,0M15.2,34l-.33,0q-.3,0-.33.06a.69.69,0,0,1-.38.09s-.08,0-.09,0a.38.38,0,0,1-.24.1s-.07,0-.07,0-.08.06-.17.1a.52.52,0,0,0-.17.09s-.13.08-.16.07,0,0,0,0a.16.16,0,0,1-.08.08.6.6,0,0,0-.17.12l-.21.17a.61.61,0,0,0-.16.16,1.83,1.83,0,0,1-.4.47s0,0,0,0a.26.26,0,0,1-.06.16,1.82,1.82,0,0,0-.1.19.37.37,0,0,1-.07.14.4.4,0,0,0-.08.2.38.38,0,0,1-.07.18.6.6,0,0,0-.06.22c0,.35-.05.47-.1.5a3.34,3.34,0,0,0,0,1.26s.07.14.1.51a.3.3,0,0,0,.06.17.35.35,0,0,1,.07.2.38.38,0,0,0,.09.24.23.23,0,0,1,.07.14.19.19,0,0,0,.07.12.32.32,0,0,1,.08.14s0,.09.06.09,0,0,.06.06a.23.23,0,0,0,0,.1l.16.2A3.33,3.33,0,0,0,13,41l.14.11a.2.2,0,0,0,.09.06.41.41,0,0,1,.13.08,1,1,0,0,0,.2.13.32.32,0,0,1,.14.1s0,0,.06,0,.27.07.27.11,0,0,.08,0a.91.91,0,0,1,.41.11,6,6,0,0,0,1.9,0,1.09,1.09,0,0,1,.38-.1.23.23,0,0,0,.14-.07.26.26,0,0,1,.15-.07,1.64,1.64,0,0,0,.48-.27.36.36,0,0,1,.13,0s0,0,0,0a2,2,0,0,1,.35-.28,3.41,3.41,0,0,0,.47-.5l.12-.16v.72l0,.72h.95V34.19h-.83l0,.79c-.05.81-.06.85-.12.7a1.58,1.58,0,0,0-.28-.39.17.17,0,0,1-.07-.09,2.45,2.45,0,0,0-.43-.41.79.79,0,0,1-.15-.13s0,0,0,0a.1.1,0,0,1-.08-.05l-.14-.08a1,1,0,0,1-.17-.11.22.22,0,0,0-.12-.07.4.4,0,0,1-.16-.07c-.05,0-.11-.07-.12-.06a.44.44,0,0,1-.26-.1c0-.05-.14-.06-.91-.09H15.2m11.61,0a1.12,1.12,0,0,1-.3,0c-.2,0-.3,0-.32.06s-.13.08-.32.1a.18.18,0,0,0-.13.05.32.32,0,0,1-.24.09s0,0-.05,0a.61.61,0,0,1-.15.1l-.17.09-.23.16a1.27,1.27,0,0,0-.21.17.1.1,0,0,1-.07,0,.2.2,0,0,0-.09.06s-.06.06-.09,0a.06.06,0,0,0-.07,0s0,0,0,0,0,.05-.13.22-.27.3-.31.38,0,0,0-.38a2.41,2.41,0,0,0,0-.47,1,1,0,0,1,0-.34v-.32H23V45.3h.89V42.73a19.44,19.44,0,0,1,0-2.56.09.09,0,0,1,0,.08s0,.07.06.07a.07.07,0,0,1,.06,0,.41.41,0,0,0,.09.12l.22.24.19.17s0,0,.07.06a.11.11,0,0,0,.08.06.22.22,0,0,1,.1.08l.1.08a.33.33,0,0,1,.13.07.42.42,0,0,0,.13.08.33.33,0,0,1,.13.07,1,1,0,0,0,.24.11.35.35,0,0,1,.15.09.11.11,0,0,0,.09,0,.77.77,0,0,1,.36.1s.05,0,.51.07l.37,0s.43,0,.92-.06c.07,0,.14,0,.15,0a.92.92,0,0,1,.39-.1s.08,0,.08,0,.18-.13.22-.12a.29.29,0,0,0,.17-.07.55.55,0,0,1,.16-.09.26.26,0,0,0,.12-.08s.1-.07.13-.06.07,0,.09-.06.05-.08.07-.08a4.6,4.6,0,0,0,.82-.83,1,1,0,0,1,.14-.23,1,1,0,0,0,.14-.24.33.33,0,0,1,.07-.15,1,1,0,0,0,.07-.12v0s0,0,0-.09.07-.24.1-.24,0,0,0-.06a3,3,0,0,1,.11-.72,2.26,2.26,0,0,0,0-.82,2.28,2.28,0,0,1-.1-.6c0-.09,0-.2,0-.2s-.11-.19-.09-.27,0-.09-.06-.14a.23.23,0,0,1-.09-.22s0-.07-.07-.11-.08-.09-.08-.12a.08.08,0,0,0,0-.07.08.08,0,0,1,0-.07s0,0,0,0,0,0,0-.06a.16.16,0,0,0-.08-.11s-.07-.06-.07-.08a.3.3,0,0,0-.07-.1s-.16-.17-.28-.28-.32-.33-.37-.33,0,0,0,0a.06.06,0,0,0-.06,0s-.07,0-.08,0l-.14-.09a.87.87,0,0,1-.19-.13.2.2,0,0,0-.09-.06.22.22,0,0,1-.2-.08.26.26,0,0,0-.15-.06c-.15,0-.29-.06-.29-.1s0,0,0,0h-.06s-.07,0-.84-.06h-.54m10.7,0-.25,0c-.33,0-.33,0-.36.07a.5.5,0,0,1-.32.08.19.19,0,0,0-.09,0,.41.41,0,0,1-.23.11.17.17,0,0,0-.11.07.47.47,0,0,1-.14.08.37.37,0,0,0-.14.07.14.14,0,0,1-.1.06.34.34,0,0,0-.14.09l-.12.1a.22.22,0,0,0-.1.07s-.06.08-.07.07a4.72,4.72,0,0,0-.5.5s0,0-.06.07a.44.44,0,0,0-.11.16l-.06.12v-.44a2.33,2.33,0,0,0,0-.48,1.09,1.09,0,0,1,0-.36v-.33H34.1c-.39,0-.44,0-.42,0s0,2.53,0,5.56V45.3h.92V42.72c0-1.66,0-2.56,0-2.56s0,0,0,.05a.56.56,0,0,0,.13.17l.12.15a5.47,5.47,0,0,0,.59.55l.09.07s0,0,0,0a.31.31,0,0,1,.15.09c.06,0,.1.08.11.07l.23.1.24.11a.08.08,0,0,1,.06,0,.1.1,0,0,0,.1,0,.77.77,0,0,1,.35.1.49.49,0,0,0,.22,0l.45,0a5,5,0,0,0,1.32-.1.78.78,0,0,1,.23-.07h.18s0,0,0,0,.19-.12.24-.11a1.62,1.62,0,0,0,.41-.24.41.41,0,0,1,.14-.08.34.34,0,0,0,.12-.09.18.18,0,0,1,.1-.06A.1.1,0,0,0,40.4,41s.05-.06.08-.05,0,0,0,0a.64.64,0,0,1,.16-.18,1.1,1.1,0,0,0,.15-.17s0,0,.06-.07.06,0,.06-.07a.29.29,0,0,1,.08-.11s.08-.09.08-.12.12-.16.15-.14,0,0,0,0a.5.5,0,0,1,.14-.3s0,0,0-.07a.21.21,0,0,1,.06-.15.22.22,0,0,0,.08-.18c0-.11.07-.3.11-.3s0,0,0,0a.06.06,0,0,1,0-.06.18.18,0,0,0,0-.14.32.32,0,0,1,0-.14.25.25,0,0,0,0-.14c0-.06,0-.12,0-.13a2.68,2.68,0,0,0,0-.8s0-.09,0-.44a.21.21,0,0,0,0-.13s0,0,0,0,0-.1-.08-.26a.29.29,0,0,1,0-.14.21.21,0,0,0,0-.15c-.1-.14-.12-.2-.08-.24s0,0,0,0a.21.21,0,0,1-.12-.23s0-.06,0-.06-.06,0-.09-.08L41,35.54s-.06-.11-.05-.13,0,0,0,0a.11.11,0,0,1-.09-.07,1.14,1.14,0,0,0-.24-.27,1.8,1.8,0,0,1-.2-.22s0,0,0,0l-.11-.08s-.1-.07-.11-.06-.06,0-.1-.06-.09-.07-.09-.06,0,0,0,0,0-.05-.11-.07a.31.31,0,0,1-.12-.08.09.09,0,0,0-.09,0,.22.22,0,0,1-.15-.06c0-.06-.13-.08-.31-.09a.27.27,0,0,1-.12-.06c-.07-.07-.1-.08-1-.11h-.54m10.81,0-.63,0s-.07,0-.07,0-.1.07-.31.1a.46.46,0,0,0-.16.07.2.2,0,0,1-.15.06s-.09,0-.09,0a.34.34,0,0,1-.13.09,3.91,3.91,0,0,0-1.2,1s0,.06,0,.06-.05,0-.08.12a.83.83,0,0,1-.09.15.15.15,0,0,0,0,.09,0,0,0,0,1,0,0,6.38,6.38,0,0,1,0-1.21,2.83,2.83,0,0,0,0-.42v-.1h-.38c-.29,0-.39,0-.41,0s0,7.42,0,7.44a4.35,4.35,0,0,0,.89,0s0-1,0-2.28a15.88,15.88,0,0,1,0-2.37,2.67,2.67,0,0,1,.09-.26.69.69,0,0,1,.1-.21.24.24,0,0,0,.06-.13.24.24,0,0,1,.07-.11.56.56,0,0,0,.1-.15.12.12,0,0,1,.09-.08s0,0,0-.06a.06.06,0,0,1,.05-.08.25.25,0,0,0,.11-.1.17.17,0,0,1,.09-.07s.05,0,.06-.07a.13.13,0,0,1,.08-.08s.06,0,.06-.05,0-.06.08-.07a.34.34,0,0,0,.15-.09.23.23,0,0,1,.14-.07.1.1,0,0,0,.08,0,.33.33,0,0,1,.23-.12s.06,0,.06,0,0,0,0,0l.11,0a1.09,1.09,0,0,1,.25,0,.92.92,0,0,0,.24-.06.94.94,0,0,1,.35-.07l.27,0v-.21a.77.77,0,0,1,0-.25c.07-.09,0-.41,0-.41h-.09m2.58,3c0,1.91,0,2.87,0,2.87s0,.05,0,.1a.29.29,0,0,0,0,.11.5.5,0,0,1,0,.19.43.43,0,0,0,.07.24.65.65,0,0,1,.08.17.35.35,0,0,0,.08.13.18.18,0,0,1,.06.1,2.26,2.26,0,0,0,.54.53,0,0,0,0,1,0,0s0,0,0,0a.05.05,0,0,1,.05.05s0,0,0,0,0,0,0,0a.22.22,0,0,0,.12.07.18.18,0,0,1,.13.1s0,0,.06,0a1.26,1.26,0,0,1,.49.08,1.93,1.93,0,0,0,.43,0,2,2,0,0,0,.43,0,2.27,2.27,0,0,1,.56-.1.13.13,0,0,0,.1,0,.52.52,0,0,1,.31-.11s.07,0,.07,0,.16-.13.23-.13a.24.24,0,0,0,.13-.07l.11-.08a.42.42,0,0,0,.13-.07.28.28,0,0,1,.13-.06s0,0,0,0a.72.72,0,0,1,.25-.24s.09-.08.28-.31l.14-.16a.22.22,0,0,0,.07-.12.26.26,0,0,1,0-.1c0-.06.05,0,.05.34a1.62,1.62,0,0,0,0,.43,1.28,1.28,0,0,1,0,.34v.3h.83V34.19h-.93v2.25c0,1.25,0,2.3-.05,2.34a.94.94,0,0,1-.06.15.41.41,0,0,0,0,.19.36.36,0,0,1-.09.21q-.09.09-.06.15c0,.05,0,.08-.06.13a.22.22,0,0,0-.07.12.33.33,0,0,1-.1.16.34.34,0,0,0-.09.14s0,0-.11,0,0,0,0,0,0,.17-.08.16,0,0,0,0,0,.06-.06.07a.17.17,0,0,0-.1.08s0,.06,0,.06l-.11.08a.47.47,0,0,1-.16.1.33.33,0,0,0-.13.07.22.22,0,0,1-.1.06.29.29,0,0,0-.18.07.52.52,0,0,1-.22.07c-.08,0-.14,0-.14,0s0,0,0,0a0,0,0,0,0-.06,0l-.1,0-.12,0a2.26,2.26,0,0,1-.73-.06.08.08,0,0,0-.08,0s0,0,0,0,0,0-.09,0a.33.33,0,0,1-.26-.11,0,0,0,0,0-.06,0s-.09,0-.14-.07l-.15-.14s-.06-.07,0-.09,0,0,0,0-.07,0-.19-.2a.53.53,0,0,1-.1-.21.6.6,0,0,0-.07-.18c-.06-.11-.06-.16-.08-2.92V34.19h-1V37m8.55-2.83s0,0,0,.07,0,0,0,0,.1.12.11.19a.31.31,0,0,0,.07.14.26.26,0,0,1,.07.15.29.29,0,0,0,.08.17.45.45,0,0,1,.07.15.46.46,0,0,0,.08.16c0,.06.08.12.07.15s0,.06,0,.08a.54.54,0,0,1,.09.12,3,3,0,0,0,.17.37,2,2,0,0,1,.15.34.33.33,0,0,0,.07.13.28.28,0,0,1,.08.15.36.36,0,0,0,.06.13.75.75,0,0,1,.09.2.3.3,0,0,0,.06.13s.05.07.08.15.06.16.08.16a.24.24,0,0,1,.06.11.85.85,0,0,0,.1.19.27.27,0,0,1,.05.14s0,.08,0,.08a.52.52,0,0,1,.07.15,1.34,1.34,0,0,0,.11.21.61.61,0,0,1,.07.17.32.32,0,0,0,.08.14.45.45,0,0,1,.08.17c0,.06,0,.11.05.11s.13.21.1.25a0,0,0,0,0,0,0,.48.48,0,0,1,.13.21,1,1,0,0,0,.13.22s0,.15,0,.18,0,0,0,0,.16.14.14.23,0,.08,0,.08.09,0,.13.13a.75.75,0,0,0,.09.2.43.43,0,0,1,.06.12.4.4,0,0,0,.07.16.49.49,0,0,1,.08.17.27.27,0,0,0,.06.12.38.38,0,0,1,.09.18.24.24,0,0,0,.06.12.3.3,0,0,1,.06.13,1.23,1.23,0,0,0,.1.2.8.8,0,0,1,.08.16c0,.05,0,.09,0,.09s0,0,0,.06.23,0,.27-.17a.36.36,0,0,1,.08-.15.16.16,0,0,0,.06-.1.8.8,0,0,1,.08-.2,1,1,0,0,0,.08-.18.28.28,0,0,1,.07-.13c0-.05.08-.1.08-.13a.42.42,0,0,1,.13-.23s0,0,0-.08a.28.28,0,0,1,.07-.17,1.11,1.11,0,0,0,.09-.19.53.53,0,0,1,.07-.15.38.38,0,0,0,.08-.17c0-.07,0-.14.08-.15s0,0,0,0,0,0,0,0a.11.11,0,0,0,0-.08.19.19,0,0,1,.07-.12.23.23,0,0,0,.07-.14c0-.09,0-.2.08-.2s0,0,0-.09a.89.89,0,0,1,.08-.17.75.75,0,0,0,.09-.2.34.34,0,0,1,.08-.16.84.84,0,0,0,.07-.16.43.43,0,0,1,.08-.14.36.36,0,0,0,.06-.15.27.27,0,0,1,.08-.16.15.15,0,0,0,.06-.11.28.28,0,0,1,.06-.14.82.82,0,0,0,.1-.21.34.34,0,0,1,.09-.16.07.07,0,0,0,0-.08.19.19,0,0,1,.07-.15.38.38,0,0,0,.07-.15,2.25,2.25,0,0,1,.23-.51.82.82,0,0,0,.09-.17,3.71,3.71,0,0,1,.26-.53.32.32,0,0,0,0-.14.24.24,0,0,1,.08-.14s.06-.05,0-.06a.4.4,0,0,1,.1-.25s0-.05,0-.1a.49.49,0,0,1,.08-.18.25.25,0,0,0,.06-.14.18.18,0,0,1,.06-.13.46.46,0,0,0,.11-.28,2,2,0,0,0-.49,0h-.48l0,.1-.07.12a1.09,1.09,0,0,0-.08.19.41.41,0,0,1-.08.17.3.3,0,0,0-.06.14.78.78,0,0,1-.08.18.34.34,0,0,0-.06.12v.09a.13.13,0,0,1,0,.07.22.22,0,0,0-.06.13,1.23,1.23,0,0,1-.08.22,1.44,1.44,0,0,0-.12.26c0,.06-.05.12-.07.12s0,0,0,.1a.67.67,0,0,1-.07.18.27.27,0,0,0-.06.16.21.21,0,0,1-.07.14.5.5,0,0,0-.08.14.66.66,0,0,1-.13.28s0,0,0,.06a.7.7,0,0,1-.09.23,1,1,0,0,0-.08.19.19.19,0,0,1-.06.12.48.48,0,0,0-.07.15,1.34,1.34,0,0,1-.09.26c-.13.28-.15.32-.18.32s0,0,0,0a0,0,0,0,1,0,.05,0,0,0,0,0,0,0s0,.12-.1.19a.42.42,0,0,0-.06.15.3.3,0,0,1-.08.17s0,.07,0,.07a.84.84,0,0,1-.11.28.28.28,0,0,0,0,.14.5.5,0,0,1-.09.18.36.36,0,0,0-.06.15.34.34,0,0,1-.08.17.19.19,0,0,0,0,.1c0,.18-.07.18-.15,0l-.15-.29a.67.67,0,0,1-.07-.22.09.09,0,0,0,0-.09.33.33,0,0,1-.08-.15.83.83,0,0,0-.09-.21.45.45,0,0,1-.08-.17c0-.06,0-.11,0-.11s-.09-.14-.09-.21a.18.18,0,0,0-.06-.1.34.34,0,0,1-.08-.17c0-.06,0-.13-.07-.15a.73.73,0,0,1-.07-.17c0-.06,0-.12-.06-.12s-.05-.06-.07-.13a.84.84,0,0,0-.07-.18.52.52,0,0,1-.09-.21c0-.08-.06-.15-.08-.15s-.1-.18-.08-.21,0-.07-.06-.12l-.08-.1a.51.51,0,0,0,0-.1s0-.08,0-.08a.06.06,0,0,1,0-.06,0,0,0,0,0,0,0,0,0,0,0,1,0,0,.76.76,0,0,0-.07-.19,1,1,0,0,1-.1-.24.23.23,0,0,0-.07-.15.36.36,0,0,1-.08-.15.42.42,0,0,0-.08-.18.33.33,0,0,1-.06-.12.53.53,0,0,0-.07-.18.34.34,0,0,1-.08-.18.16.16,0,0,0-.05-.1.54.54,0,0,1-.08-.17.46.46,0,0,0-.08-.16.47.47,0,0,1-.07-.17.51.51,0,0,0-.08-.18.32.32,0,0,1-.06-.13l0-.09H60c-.42,0-.54,0-.57,0m-43.53.55a.38.38,0,0,1,.17.05s.06,0,.11,0,.08,0,.08,0a.55.55,0,0,0,.2,0,.61.61,0,0,1,.24,0,.34.34,0,0,0,.16.08.45.45,0,0,1,.16.09.18.18,0,0,0,.1,0,.34.34,0,0,1,.14.08l.14.09a.07.07,0,0,1,0,.06s0,0,.09.07a1,1,0,0,1,.33.27c.32.34.32.34.32.39a.08.08,0,0,0,.05.07s.15.2.12.23,0,0,0,.06a.5.5,0,0,1,.1.18c0,.07,0,.13.06.13a6.39,6.39,0,0,1,0,2.19,1.77,1.77,0,0,0-.08.25.34.34,0,0,1-.08.16.22.22,0,0,0-.06.13c0,.07-.08.17-.12.15s0,0,0,0-.73.88-.84.84-.05,0-.06.06a.18.18,0,0,1-.13.09.26.26,0,0,0-.14.07.42.42,0,0,1-.19.07c-.08,0-.15,0-.16.06a1.9,1.9,0,0,1-.53.11c-.14,0-.24,0-.24.05a1.37,1.37,0,0,1-.57,0s-.07,0-.12,0l-.14,0-.22,0a.61.61,0,0,1-.25-.08.54.54,0,0,0-.19-.07c-.07,0-.13,0-.14,0l-.15-.08c-.12-.05-.14-.08-.13-.14s0,0,0,0a.2.2,0,0,1-.15-.07l-.19-.15a1.16,1.16,0,0,1-.32-.32s0,0-.07-.06a.14.14,0,0,1-.06-.08s0-.05,0-.05,0,0,0,0a.13.13,0,0,0-.06-.09.13.13,0,0,1-.06-.12s0-.07,0-.07-.1-.1-.13-.24,0-.1,0-.1-.13-.22-.1-.23,0-.1-.05-.17a4.06,4.06,0,0,1,0-1.67.63.63,0,0,0,.07-.21.6.6,0,0,1,.12-.33s0,0,0,0A.53.53,0,0,1,13,36.2s0,0,0-.06a.15.15,0,0,1,0-.09.25.25,0,0,0,.1-.12c.09-.15.29-.35.34-.33s0,0,0,0,.21-.25.29-.25a.14.14,0,0,0,.08-.06.2.2,0,0,1,.14-.08.14.14,0,0,0,.1-.05s.22-.13.24-.11,0,0,.09,0a.47.47,0,0,1,.26-.08c.1,0,.18,0,.18,0s0,0,.09,0,.09,0,.11,0,.05,0,.18,0,.18,0,.19,0,.07,0,.15,0l.28,0m56.83,0s0,0,.08,0a.32.32,0,0,1,.13,0l.08,0,0,0a.26.26,0,0,0,.15,0,.25.25,0,0,1,.19.06.46.46,0,0,0,.16.07.53.53,0,0,1,.15.08s.06.06.08.06a1.45,1.45,0,0,1,.36.28s0,0,.06,0,.07,0,.07.07a.08.08,0,0,0,.07.07s0,0,0,0a.42.42,0,0,0,.09.14.38.38,0,0,1,.09.16s0,.06.05.06.06.05.08.1,0,.09.06.09.09.18.07.22,0,0,0,0,0,0-.06,0a.34.34,0,0,1-.16.07.37.37,0,0,0-.16,0,.54.54,0,0,1-.27.11s-.06,0-.06,0,0,0,0,0,0,0,0,0-.17.09-.27.09a.14.14,0,0,0-.11,0s-.2.12-.24.09-.07,0-.13.07a.28.28,0,0,1-.19.06.1.1,0,0,0-.1,0,.56.56,0,0,1-.34.15s-.09,0-.14.06a.16.16,0,0,1-.17.07c-.06,0-.09,0-.09,0s0,0,0,0,0,0-.09,0a.44.44,0,0,1-.17.07.21.21,0,0,0-.15.06,1,1,0,0,1-.39.15l0,0s-.19.1-.26.09a.13.13,0,0,0-.12.06.19.19,0,0,1-.17.07.21.21,0,0,0-.17.06.34.34,0,0,1-.2.08.41.41,0,0,0-.17.06.58.58,0,0,1-.21.1.78.78,0,0,0-.2.09l-.11.05-.15,0h-.06l-.06.05s0,0-.06,0a4.08,4.08,0,0,1,0-1.48,1.61,1.61,0,0,0,.09-.39l.06-.07a.23.23,0,0,0,.07-.14.25.25,0,0,1,0-.12.83.83,0,0,0,.09-.15.4.4,0,0,1,.09-.13A.09.09,0,0,0,70,36s0-.07.08-.1.07-.06.07-.08a1,1,0,0,1,.35-.34.09.09,0,0,0,.07-.06.14.14,0,0,1,.11-.08s.09,0,.09-.06,0-.06.11-.08a.24.24,0,0,0,.11-.06s.18-.13.22-.11.07,0,.11,0a.56.56,0,0,1,.28-.09.47.47,0,0,0,.26-.07.13.13,0,0,1,.12,0,.11.11,0,0,0,.1,0,1.7,1.7,0,0,1,.71,0m-45.44,0a1.35,1.35,0,0,0,.38.07c.25,0,.35.05.37.08a.26.26,0,0,0,.14.07c.13,0,.28.07.28.1s0,.05.1.06.11.06.11.08a0,0,0,0,0,0,.05.38.38,0,0,1,.16.09.33.33,0,0,0,.13.09s0,0,0,.06,0,.06.05.05.1,0,.23.22l.15.17a.19.19,0,0,1,.05.1.14.14,0,0,0,.06.08.32.32,0,0,1,.08.12.55.55,0,0,0,.08.15.46.46,0,0,1,.07.16s0,.09.05.09,0,0,0,0,0,.06,0,.11a1,1,0,0,1,0,.24.29.29,0,0,0,.07.23,2.93,2.93,0,0,1,0,1.25s-.06.11-.08.27-.07.32-.12.29,0,0,0,.1a.21.21,0,0,1-.05.15l-.05,0s-.12.24-.15.24,0,0-.05.09a2.6,2.6,0,0,1-.82.8.09.09,0,0,0,0,0,.35.35,0,0,1-.2.12.16.16,0,0,0-.1.06.36.36,0,0,1-.19.07c-.06,0-.12,0-.13,0a.56.56,0,0,1-.33.1c-.06,0-.1,0-.1,0s-.05,0-.1,0-.09,0-.09,0a3.44,3.44,0,0,1-.91,0,.47.47,0,0,0-.21-.05c-.27,0-.3,0-.38-.11a.32.32,0,0,0-.15-.06c-.08,0-.25-.09-.25-.13s0,0-.07,0a1.48,1.48,0,0,1-.5-.36.35.35,0,0,0-.12-.08s-.05,0-.05-.07,0,0-.06-.06a.1.1,0,0,1-.07-.05.33.33,0,0,0-.09-.13.33.33,0,0,1-.09-.13s0-.05,0-.05-.06-.06-.09-.13-.08-.15-.11-.19a.18.18,0,0,1-.05-.11.38.38,0,0,0-.07-.17.39.39,0,0,1-.08-.25c0-.07,0-.13,0-.13s0,0,0-.06,0-.06,0-.06,0-.05,0-.1a.37.37,0,0,0,0-.14s0-.18,0-.46a1.51,1.51,0,0,1,.1-.71.79.79,0,0,0,0-.23.27.27,0,0,1,.06-.2s.05-.07,0-.08,0,0,0,0,0,0,0-.1a.26.26,0,0,1,.06-.16.35.35,0,0,0,.08-.13.21.21,0,0,1,.08-.12.2.2,0,0,0,.06-.09.14.14,0,0,1,.06-.08.12.12,0,0,0,.06-.07,2.39,2.39,0,0,1,.44-.46.32.32,0,0,0,.12-.09.26.26,0,0,1,.22-.09s0,0,0,0,.11-.12.19-.12.05,0,.05,0,.1-.09.23-.1A.26.26,0,0,0,26,35s.12-.06.35-.08a.85.85,0,0,0,.36-.07,1,1,0,0,1,.6,0M38,34.8a.64.64,0,0,0,.3.06c.29,0,.44.07.41.12s0,0,0,0,.06,0,.06,0L39,35c.11,0,.18,0,.18.11s0,0,0,0,.24.06.24.11a0,0,0,0,0,0,0,.2.2,0,0,1,.11.06.2.2,0,0,0,.09.06s.06,0,.09.08a.21.21,0,0,0,.08.07.51.51,0,0,1,.2.21s0,.05.06.07a.11.11,0,0,1,.06.09s0,.06.05.06.07.05.1.1a.77.77,0,0,0,.1.18.27.27,0,0,1,.06.12.2.2,0,0,0,.06.11.18.18,0,0,1,.06.14.53.53,0,0,0,.07.2,1.74,1.74,0,0,1,.09.39.94.94,0,0,0,.06.27,2.81,2.81,0,0,1,0,.82.89.89,0,0,0-.06.27c0,.27-.06.35-.1.35a.28.28,0,0,0,0,.14c0,.16-.07.23-.13.23s0,0,0,.05-.06.23-.1.23,0,0,0,0a.29.29,0,0,1-.08.11s-.08.08-.08.1a2.29,2.29,0,0,1-.45.48.33.33,0,0,0-.13.09.33.33,0,0,1-.13.09.2.2,0,0,0-.09.06.25.25,0,0,1-.14.08l-.12.07a.39.39,0,0,1-.18.07c-.08,0-.16,0-.17.06a.88.88,0,0,1-.41.11c-.11,0-.2,0-.2.05a2.76,2.76,0,0,1-.45,0c-.31,0-.45,0-.45,0s0,0-.07,0-.08,0-.08,0a.57.57,0,0,0-.21,0c-.13,0-.22,0-.24-.06a.33.33,0,0,0-.17-.08.43.43,0,0,1-.18-.09.18.18,0,0,0-.14-.06.09.09,0,0,1-.09,0,.26.26,0,0,0-.11-.08.21.21,0,0,1-.11-.09s0-.06-.06-.06a1.09,1.09,0,0,1-.38-.36s0-.06-.08-.09-.07-.07-.06-.1,0-.06,0,0-.07,0-.18-.21A.35.35,0,0,1,35,39.4s0,0,0,0a0,0,0,0,1,0-.06s0,0,0,0-.16-.18-.12-.26,0-.07,0-.09a2.84,2.84,0,0,1-.13-1.4c0-.24.06-.47.11-.49s0-.05,0-.1a.56.56,0,0,1,.06-.25.68.68,0,0,0,.08-.19.33.33,0,0,1,.08-.11.24.24,0,0,0,.07-.13.3.3,0,0,1,.08-.12.21.21,0,0,0,.06-.09,5.44,5.44,0,0,1,.64-.64,2.25,2.25,0,0,1,.33-.19.58.58,0,0,0,.12-.08.57.57,0,0,1,.28-.11.24.24,0,0,0,.12,0,.34.34,0,0,1,.24-.07l.22,0,.13,0a.17.17,0,0,0,.14,0,1,1,0,0,1,.6,0M5.39,38.14v2.33H9V36.8H8.15v-1H5.38v2.34m2.93-.5.12.26s0,.07-.24.18l-.54.26L7,38.62l-.45.22a.4.4,0,0,1-.13.06S6,38,6,37.94a2.48,2.48,0,0,1,.46-.24.57.57,0,0,1,.13.21,1.51,1.51,0,0,0,.11.21s0,0,.9-.41c.71-.34.62-.33.74-.07" transform="translate(0 0)"/><path id="path1-2" data-name="path1" class="cls-8" d="M8.2,36.31v.46H9l.08,0L9,36.69a.29.29,0,0,1-.08-.11,0,0,0,0,0,0,0s0,0,0,0l-.1-.13-.3-.31-.19-.21v.45m-.13,1.22-.58.28c-.9.43-.8.41-.94.14a1,1,0,0,0-.12-.21A2.08,2.08,0,0,0,6,38s.39.84.42.88.07,0,.14-.05L7,38.61l.68-.32L8.25,38c.19-.08.18-.06.06-.32s-.11-.22-.24-.16" transform="translate(0 0)"/><path id="path2-2" data-name="path2" class="cls-9" d="M56.81,32.53s0,0,0,.06.13,0,.1-.08-.07,0-.11,0m-41.75,1.4-.23,0a.08.08,0,0,0-.07,0s0,0,.2,0a7.05,7.05,0,0,1,1.3,0c.16,0,.26,0,.11-.06a4.15,4.15,0,0,0-1.31,0m11.65,0c-.3,0-.36.07-.31.11a1,1,0,0,0,.27,0,5.72,5.72,0,0,1,1.17,0c.21,0,.31,0,.26,0a3.87,3.87,0,0,0-1.39-.07m10.66,0c-.15,0-.23,0-.24.08s0,0,.17,0a9.16,9.16,0,0,1,1.29,0c.16,0,.26,0,.13-.06a5.07,5.07,0,0,0-1.35,0m34.42,0-.18,0c-.13,0-.1.1,0,.08L72,34c.11,0,.19,0,.19,0a2.41,2.41,0,0,1,.62,0s.09,0,.19,0l.31,0c.12,0,.16,0,0-.07l-.18,0a7.5,7.5,0,0,0-1.34,0M48,34a.15.15,0,0,1-.08,0s0,0-.06,0,0,0,.18,0c.36,0,.47-.06.47-.09A1.43,1.43,0,0,0,48,34m-33.62.13-.13,0s-.06,0,0,.05a.62.62,0,0,0,.36-.08c0-.05-.08-.05-.19,0m2.28,0s.05,0,.09.06l.12,0c.1,0,.05,0-.05-.09s-.18-.07-.16,0m9.35,0c-.08,0-.11.06-.08.07a.44.44,0,0,0,.29-.09c0-.06-.08-.05-.21,0m2.32,0a.31.31,0,0,0,.29.09c.05,0,.05,0,0,0s-.07,0-.08,0-.22-.08-.2,0m8.46,0c-.1,0-.19.09-.17.11a.54.54,0,0,0,.32-.09s0-.05-.15,0m2.26,0a.35.35,0,0,0,.25.1s-.05-.09-.16-.12-.1,0-.09,0m8.34,0c-.13.07-.14.08-.06.07s.32-.06.32-.1-.09-.05-.26,0m23.82,0s-.05,0-.05,0,0,0,0,0,0,0,0,0,.27,0,.29-.08,0-.05-.16,0m2.38,0s0,0,.08.06l.14,0c.1,0,.06,0,0-.09s-.17-.07-.17,0M23,34.1s0,11.2,0,11.2,0-1.89,0-5.56V34.19h.82v.32a1,1,0,0,0,0,.34,1.89,1.89,0,0,0,0-.71,3.39,3.39,0,0,0-.9,0m10.73,0c-.06.06,0,.07.41.07h.43v.34a1,1,0,0,0,0,.35s0-.11,0-.37v-.4h-.44a2.36,2.36,0,0,0-.45,0m-14.94.15a1.07,1.07,0,0,0-.05.38c0,.72-.06,1.08-.14.83a1.74,1.74,0,0,0-.38-.47s-.06-.05-.06-.07,0,0,0,0a.3.3,0,0,1-.1-.07,2.85,2.85,0,0,0-.61-.43.86.86,0,0,1-.21-.12,1,1,0,0,0-.24-.09l.08.08a.4.4,0,0,0,.16.07.22.22,0,0,1,.12.07,1,1,0,0,0,.17.11l.14.08a.1.1,0,0,0,.08.05s0,0,0,0a.79.79,0,0,0,.15.13,2.45,2.45,0,0,1,.43.41.17.17,0,0,0,.07.09,1.58,1.58,0,0,1,.28.39c.06.15.07.11.12-.7l0-.79h.83v7.46h-.48c-.42,0-.49,0-.48.05a2.25,2.25,0,0,0,1,0s0-1,0-3.8V34.16h-.88l0,.11m25.63-.09c-.05.05,0,7.56,0,7.58a4.71,4.71,0,0,0,.92,0c.16-.06,0-.09-.36-.08-.22,0-.44,0-.47,0l-.08,0v-3.7c0-2,0-3.71,0-3.73s.12,0,.41,0h.38l0,.1,0,.11v-.11c0-.08,0-.12,0-.13a4.93,4.93,0,0,0-.86,0m6.54,0s0,.69,0,2.83v2.8l0-2.81V34.19h.93V37a17.34,17.34,0,0,0,.07,2.91c.08.14.09.12,0-.15s0-.8,0-2.9a14.36,14.36,0,0,0-.05-2.7,3.71,3.71,0,0,0-.95,0m5.38,0s0,1,0,2.26,0,2.29,0,2.35,0,.14.06,0,0-1.1.05-2.35V34.19h.47a1.44,1.44,0,0,0,.45,0,4,4,0,0,0-1,0m3.12,0s0,0,0,0a2.52,2.52,0,0,1,.56-.05h0c-.5,0-.56,0-.56,0m6.62,0a.08.08,0,0,0,0,.06s0,0,0,0a.3.3,0,0,0-.06.13.9.9,0,0,1-.08.19.76.76,0,0,0-.06.16c0,.15.06,0,.13-.17a.78.78,0,0,1,.07-.18l.07-.12,0-.1h.48a2,2,0,0,1,.49,0,.46.46,0,0,1-.11.28c-.06.06-.08.2,0,.17a1.63,1.63,0,0,0,.22-.46,3.92,3.92,0,0,0-1.1,0m-5.48.06c0,.06.07.2.1.2s0-.06,0-.16-.07-.11-.07,0m-46.7,0c-.08.06-.08.06,0,.06s.23-.06.23-.1-.1,0-.2,0m11.73,0c-.05,0-.09.06-.08.08s.21,0,.22-.09,0-.05-.14,0m3.13,0s0,0,.06.06a.21.21,0,0,0,.14,0,.22.22,0,0,1,.1.06.87.87,0,0,0,.19.13l.14.09s0,0,.08,0a.06.06,0,0,1,.06,0s0,0,0,0,.17.11.37.33.24.24.28.28a.3.3,0,0,1,.07.1s0,0,.07.08a.16.16,0,0,1,.08.11s0,.06,0,.06,0,0,0,0a.08.08,0,0,0,0,.07.08.08,0,0,1,0,.07s0,.08.08.13.08,0,0-.13l-.06-.11a3.25,3.25,0,0,0-.33-.47,4.53,4.53,0,0,0-.49-.49l-.18-.15-.11-.07-.06,0a2.14,2.14,0,0,0-.44-.24l-.06,0c-.06,0-.14-.06-.14,0m7.6,0c-.08,0-.12.09-.06.09s.21-.06.21-.09-.06,0-.15,0m3.13,0s.1.1.17.09.05,0,0,0a.35.35,0,0,1-.09-.06c0-.05-.09-.05-.09,0m7.62,0a.28.28,0,0,0-.09.06c-.06.06.08.06.16,0s0-.1-.07-.06m23.69,0c-.11.09,0,.09.12,0s.08-.06,0-.06a.28.28,0,0,0-.14.06m3.2,0s.1.09.18.11.08,0,0-.07-.14-.08-.14,0M33.68,39.76c0,3.05,0,4.3,0,2.78s0-4,0-5.55,0-.28,0,2.77m25.76-5.43s0,.06.05.06,0,0,0,0,.06.1.09.07a.38.38,0,0,0,0-.12c-.05-.11-.14-.15-.12-.05m-45.91.09c-.25.12-.41.27-.19.18l.08-.06a.52.52,0,0,1,.17-.09c.09,0,.17-.08.17-.1s0,0-.23.07m11.8,0a1.84,1.84,0,0,0-.45.28s0,0,0,0a.79.79,0,0,0-.28.23s.09,0,.12,0a1.27,1.27,0,0,1,.21-.17l.23-.16.17-.09a.61.61,0,0,0,.15-.1c0-.06,0-.06-.12,0m10.63,0a1.36,1.36,0,0,0-.2.12s0,0,0,0a3.53,3.53,0,0,0-.87.79,1,1,0,0,0,.25-.21,1.32,1.32,0,0,1,.24-.22s0,0,.07-.07a.22.22,0,0,1,.1-.07s.06,0,.1-.08a.5.5,0,0,1,.17-.11s.1-.05.11-.08a.08.08,0,0,1,.07,0,.33.33,0,0,0,.21-.11c0-.06,0,0-.21.05m3.75-.05s.07.06.12.08.11,0,.11.07,0,0,0,0,0,0,.07,0a.14.14,0,0,0,.09.07l.09,0c.09.06,0,0-.08-.11-.27-.18-.44-.26-.42-.19m7,.05a1.28,1.28,0,0,0-.24.15.21.21,0,0,1-.09.06s-.08,0-.19.15a.3.3,0,0,1-.1.07,3.4,3.4,0,0,0-.59.66.2.2,0,0,1-.06.09c-.06,0-.09-.18-.1-.77,0-.39,0-.45-.06-.09a6.86,6.86,0,0,0,0,1.18,0,0,0,0,0,0,0,.15.15,0,0,1,0-.09.83.83,0,0,0,.09-.15c0-.07.06-.12.08-.12s0,0,0-.06a3.91,3.91,0,0,1,1.2-1,.34.34,0,0,0,.13-.09s0,0-.23.07m23.76,0a4.22,4.22,0,0,0-1.09.91,1.76,1.76,0,0,0-.31.45s.21-.19.26-.31.07-.1.1-.1a0,0,0,0,0,0,0,2.74,2.74,0,0,1,.57-.55c.07-.06.14-.11.14-.13s0,0,0,0a.22.22,0,0,0,.12-.07.22.22,0,0,1,.1-.07.37.37,0,0,0,.21-.12c0-.06,0-.06-.18.05m3.79,0,.09.07a.29.29,0,0,1,.12.09l.13.1a1.67,1.67,0,0,1,.21.16l.14.13c.09,0-.1-.2-.38-.4l-.2-.15s-.11,0-.11,0m-25.79,0a1.62,1.62,0,0,0,0,.24v.2l-.26,0c-.32,0-.49.1-.27.11S48,35,48,35s.1,0,.23,0,.22,0,.23,0,0-.54,0-.48m12.26.12c0,.13.07.21.11.21s0,0,0,0a.6.6,0,0,0,.12.29s0-.07-.05-.23-.09-.2-.11-.25-.12-.2-.1-.07m-1.12,0a.1.1,0,0,0,0,.07.27.27,0,0,1,.06.12,5.52,5.52,0,0,0,.36.73s0,0,0,0a2.9,2.9,0,0,0,.13.32c.08.15.15.32.17.37s.1.14.1.06a2.62,2.62,0,0,0-.15-.33,3,3,0,0,1-.17-.37.54.54,0,0,0-.09-.12s0-.06,0-.08,0-.09-.07-.15a.46.46,0,0,1-.08-.16.45.45,0,0,0-.07-.15.29.29,0,0,1-.08-.17.25.25,0,0,0-.06-.14c-.07-.08-.09-.09-.09,0m-46.43.08a.07.07,0,0,1-.05,0,3.55,3.55,0,0,0-.82.82.05.05,0,0,1,0,.05.08.08,0,0,0,0,.06.41.41,0,0,1-.06.11.79.79,0,0,0-.08.16c0,.11.06,0,.11-.1a.54.54,0,0,1,.09-.15l.21-.27a1.41,1.41,0,0,1,.41-.42s.06,0,.06,0,.05-.07.13-.12.17-.12.17-.17-.06,0-.08,0m27.13.07s0,0,.06.05,0,0,0,0a1.8,1.8,0,0,0,.2.22,1.14,1.14,0,0,1,.24.27c0,.06.12.1.12.05a1.63,1.63,0,0,0-.33-.37l-.17-.15c-.12-.13-.17-.17-.17-.11m26.54,0a.44.44,0,0,0-.07.17c0,.06,0,.1,0,.1a.62.62,0,0,0-.12.23s0,0,0,0,0,0,0-.05,0,0,0,0a.24.24,0,0,0,.06-.11,1.16,1.16,0,0,1,.08-.16s.09-.22.07-.22l-.06.07m-51.33,0s-.08,0-.19,0-.18,0-.18,0,.31,0,.34,0,.08,0,.15,0,.15,0,.16,0,.33,0,.31,0-.07,0-.16-.05l-.28,0c-.08,0-.13,0-.15,0m56.55,0s-.05,0-.09,0-.14,0-.14,0,0,0,.1,0,.11,0,.11,0a2.3,2.3,0,0,1,.74,0,.21.21,0,0,0,.13,0c.12,0,.13,0,.07-.05a.19.19,0,0,0-.13,0s-.07,0-.08,0a1.7,1.7,0,0,0-.71,0m-45.31,0c-.11,0,0,.07.29.07s.32,0,.29-.05a1.38,1.38,0,0,0-.58,0m10.73,0c-.11,0,0,.07.28.07s.4,0,.27-.08a2,2,0,0,0-.55,0m28.24.11a.54.54,0,0,0-.06.11.77.77,0,0,1-.07.17c-.09.14-.11.23,0,.21a.21.21,0,0,0,.09-.2.3.3,0,0,1,.06-.11s.11-.22.08-.22l0,0m-51.13,0a.28.28,0,0,0-.11.08c-.05.06,0,0,.2,0l.14-.06s0,0-.06,0a.4.4,0,0,0-.17,0m1.9,0a.24.24,0,0,1,.11.06s0,0,.07,0a2.56,2.56,0,0,1,.68.33c.1.07.14.09.14.05a.07.07,0,0,0,0-.06l-.14-.09a.34.34,0,0,0-.14-.08.18.18,0,0,1-.1,0,.45.45,0,0,0-.16-.09.49.49,0,0,1-.16-.07.47.47,0,0,0-.2-.06c-.16,0-.16,0-.05,0m7.43.4a1.79,1.79,0,0,0,0,.4,1.79,1.79,0,0,0,0-.45l0-.4v.45m2.16-.4S26,35,26,35s.1,0,.13,0,.08,0,.15-.06l.13,0h-.14a.53.53,0,0,0-.2,0m1.71,0,.17.06.13.05.08,0L28.08,35s-.1-.07-.24-.08-.17,0-.07,0m9,0c-.09,0-.12.09,0,.09l.08,0s.08,0,.15-.06l.13,0H37a.5.5,0,0,0-.19,0m1.74,0a.23.23,0,0,1,.13,0s0,0,0,0,.05,0,.05,0-.11-.09-.24-.09h-.11l.13,0m32.78,0c-.11.09-.08.11.08,0l.18-.08s0,0-.06,0a.34.34,0,0,0-.2.06m2,0s.08,0,.08.06,0,0,0,0a1.68,1.68,0,0,1,.62.38.16.16,0,0,0,.09,0,.93.93,0,0,1,.15.15l.16.19.12.14c0,.07.07.08.07,0a.38.38,0,0,0-.09-.16.42.42,0,0,1-.09-.14l-.06,0a.07.07,0,0,1-.06-.07s0,0-.07-.06-.06,0-.06,0a1.45,1.45,0,0,0-.36-.28s0,0-.08-.06a.53.53,0,0,0-.15-.08.46.46,0,0,1-.16-.07.2.2,0,0,0-.15-.06h-.1l.09,0m-38.66.43v.43l.06-.09a.26.26,0,0,0,.06-.12l.07-.08s.06-.07,0-.08-.07,0-.12.08l-.09.11v-.34c0-.33,0-.33,0,.09m-10.21-.28a2.4,2.4,0,0,0-.37.42s0,0,0,0,0,0,0,0,.05,0,.08,0a1.65,1.65,0,0,1,.21-.24.74.74,0,0,0,.16-.2s0,0,0,0a.07.07,0,0,0,.06,0c0-.08,0-.06-.13,0M38.8,35s.3.18.33.15S39.07,35,39,35a.33.33,0,0,1-.13,0s0,0,0,0M75,35a.19.19,0,0,0,.08.07.1.1,0,0,1,.07.05,2.55,2.55,0,0,0,.28.39s0,0,0,0,0,.06.06.08a.13.13,0,0,1,.07.08.38.38,0,0,0,.07.15.76.76,0,0,1,.11.22c0,.07.05.13.08.14a.11.11,0,0,1,0,.09.57.57,0,0,0,.09.27c.09.06.06.18-.06.23l-.12.08s0,0,.07,0a.28.28,0,0,1,.12,0c.11,0,.11-.19,0-.46a1.53,1.53,0,0,1-.09-.24s0-.08,0-.08a.45.45,0,0,1-.08-.14.39.39,0,0,0-.07-.14s0,0-.06-.1a1.22,1.22,0,0,0-.06-.12.77.77,0,0,1-.14-.17.61.61,0,0,0-.14-.16s0,0,0,0A.59.59,0,0,0,75,35s0,0,0,0m-60.73,0c-.05,0-.1.05-.1.07a.14.14,0,0,1-.1.05.23.23,0,0,0-.14.07s0,.06,0,0,.06,0,.06,0,.07,0,.15-.08a.42.42,0,0,0,.16-.08s0,0,0,0,.05,0,.05,0,0,0-.15,0m11.51,0-.13.07s-.07,0-.11.06a.47.47,0,0,0-.14.08.32.32,0,0,1-.12.08c-.08,0-.18.13-.16.16s.08,0,.16-.09a1.82,1.82,0,0,1,.38-.22c.29-.14.35-.21.12-.14m2.41,0a.83.83,0,0,0,.2.11.83.83,0,0,1,.2.11l.06,0c.11,0,.07-.07-.05-.11s-.1,0-.1-.06a.49.49,0,0,0-.24-.1s-.07,0-.07,0m8.25,0-.11.07a.58.58,0,0,1-.12.08,2.25,2.25,0,0,0-.33.19,5.44,5.44,0,0,0-.64.64.21.21,0,0,1-.06.09c-.07.07-.1.17-.06.17l.18-.22a3.15,3.15,0,0,1,.82-.77s.09,0,.09-.06,0,0,0,0a1.36,1.36,0,0,0,.4-.2s-.1,0-.2,0m11,0a.64.64,0,0,0-.15.05,0,0,0,0,1-.06,0s0,0,0,0,0,0-.06,0a.36.36,0,0,0-.23.11s0,0,.06,0,.08,0,.08,0,.08,0,.19-.08a1,1,0,0,0,.22-.08l.09,0s.05,0,0,0a.27.27,0,0,0-.15,0m23.64,0a.14.14,0,0,0-.08.07.24.24,0,0,1-.11.06c-.06,0-.11,0-.11.07s0,0,0,0a1.8,1.8,0,0,0,.44-.24s-.06,0-.16,0m-10,.13a.36.36,0,0,0,.08.17.53.53,0,0,1,.07.18.33.33,0,0,0,.06.12.42.42,0,0,1,.08.18.36.36,0,0,0,.08.15.23.23,0,0,1,.07.15,1,1,0,0,0,.1.24.76.76,0,0,1,.07.19,0,0,0,0,0,0,0,0,0,0,0,1,0,0,.06.06,0,0,0,0,.06s0,0,0,.08a.51.51,0,0,1,0,.1s.16.19.16.17a1,1,0,0,0-.07-.16c-.07-.13-.19-.4-.27-.58s-.1-.23-.2-.43l-.17-.38a.13.13,0,0,0,0-.07.55.55,0,0,1-.07-.18c0-.13-.1-.17-.1-.07m-21.82,0,.15.1a3.25,3.25,0,0,1,.78.69l0,.07V36a.11.11,0,0,0-.06-.1s-.06,0-.06-.07a.48.48,0,0,0-.19-.21.17.17,0,0,1-.09-.07s-.07-.08-.09-.08a.2.2,0,0,1-.09-.06.2.2,0,0,0-.11-.06,0,0,0,0,1,0,0s0-.05-.09-.08-.16-.06-.16,0m-25.51.23a.38.38,0,0,0-.12.14s0,0,.11,0a.47.47,0,0,1,.13-.1s0,0,.05,0-.05-.05-.17,0m15.08,0s0,0,.05,0a.44.44,0,0,1,.15.11l.14.1s0-.12,0-.12a.33.33,0,0,1-.13-.09c-.12-.1-.19-.12-.16,0m17.94,0a.15.15,0,0,0-.07.07s.09,0,.16-.07,0-.07-.09,0m23.88,0s0,.06,0,.07a.16.16,0,0,0,.1-.06c.08-.08,0-.09-.08,0m-4.07.06a.35.35,0,0,0,0,.12.15.15,0,0,1,0,.08,3.23,3.23,0,0,0-.26.53.82.82,0,0,1-.09.17,2.25,2.25,0,0,0-.23.51.3.3,0,0,1-.07.14c-.08.1-.1.18,0,.18s0,0,0,0,.22-.46.59-1.25c.12-.25.22-.46.22-.48s-.06,0-.09.05M41,35.43a.3.3,0,0,0,.07.11l.13.18c0,.06.06.08.07.06A.88.88,0,0,0,41,35.4a0,0,0,0,0,0,0m-23.41,0,.27.28a2.24,2.24,0,0,1,.45.56c.06.1.14.16.14.1a.52.52,0,0,0-.16-.22s0,0,0-.05,0-.06-.32-.4-.35-.33-.35-.27m47.91,0a0,0,0,0,1,0,0s0,0,0,.09a2,2,0,0,1-.09.24c-.08.16-.09.23,0,.23a.3.3,0,0,0,.06-.12,2.41,2.41,0,0,1,.11-.25c.09-.19.12-.28.08-.28s0,0,0,0m-40.62.2a1.14,1.14,0,0,0-.23.26.12.12,0,0,1-.06.07.14.14,0,0,0-.06.08.2.2,0,0,1-.06.09.21.21,0,0,0-.08.12.35.35,0,0,1-.08.13.25.25,0,0,0-.06.15v.1l.05-.08.09-.17a2.91,2.91,0,0,1,.53-.71c.11-.11.2-.21.19-.23s-.11.07-.23.19m21.63-.2a.08.08,0,0,0,0,.06s0,0-.06.05a.13.13,0,0,0-.08.08s0,.07-.06.07a.17.17,0,0,0-.09.07.25.25,0,0,1-.11.1c-.05,0-.09.1,0,.1l.21-.18a1.58,1.58,0,0,1,.27-.24c.13-.08.14-.16,0-.11m23.79.14c-.08.09-.15.17-.14.18s0,.05-.07.08S70,36,70,36s.06.05.1,0a1.8,1.8,0,0,1,.23-.26,1.35,1.35,0,0,0,.19-.22s-.1,0-.23.15m-56.92.09a2.22,2.22,0,0,0-.17.22.25.25,0,0,1-.1.12.15.15,0,0,0,0,.09s0,.06,0,.06a.53.53,0,0,0-.13.26s0,0,0,0a.6.6,0,0,0-.12.33.87.87,0,0,1-.06.21,1,1,0,0,0-.07.58s0,0,.05-.17a1.8,1.8,0,0,1,0-.32s.06-.2.09-.33a2.45,2.45,0,0,1,.33-.67l0-.08a1.13,1.13,0,0,1,.19-.24,1.65,1.65,0,0,0,.18-.22c0-.05-.07,0-.18.11m15.79-.08s0,.07.08.1a.13.13,0,0,1,.07.08,1.16,1.16,0,0,0,.15.2,2.21,2.21,0,0,1,.46.84c0,.07,0,.12,0,.12s0,0,0,.07,0,0,0,0a.58.58,0,0,0,0-.19.37.37,0,0,1,0-.11s0,0,0,0,0,0-.05-.09a.46.46,0,0,0-.07-.16.55.55,0,0,1-.08-.15.32.32,0,0,0-.08-.12.14.14,0,0,1-.06-.08.19.19,0,0,0-.05-.1,1.93,1.93,0,0,1-.24-.29c-.06-.09-.14-.13-.14-.07m-20.86.25c.19.22.39.42.45.48a.3.3,0,0,1,.07.09A1.21,1.21,0,0,0,9,36.7c.18.16,0-.09-.39-.5l-.31-.34a.13.13,0,0,0-.09-.06s0,0,0,.08M5.37,38.14c0,1.28,0,2.35,0,2.37s.21.05,1.85.05H9.05v-.09H5.4V38.14m35.89-2.25c0,.09.06.19.12.19s0-.14-.08-.22,0,0,0,0M68.91,36a3.69,3.69,0,0,0-.27.6.11.11,0,0,1,0,.07.13.13,0,0,0,0,.11c0,.07,0,.06.06,0s0-.1,0-.1,0,0,0-.05a.08.08,0,0,0,0-.08s0,0,0-.07a.33.33,0,0,0,.12-.23s0-.06,0-.06.13-.18.11-.24,0,0-.09.08M12,36a.87.87,0,0,0-.1.24s.12-.12.14-.18S12,36,12,36m28.2,0a.26.26,0,0,0,.06.08.69.69,0,0,1,.1.17.35.35,0,0,0,.08.15.13.13,0,0,1,0,.07c0,.06.07.2.1.2s0-.14,0-.2a.2.2,0,0,1-.06-.11.27.27,0,0,0-.06-.12.77.77,0,0,1-.1-.18c0-.09-.12-.13-.12-.06m34.45,0a.11.11,0,0,0,0,.06.64.64,0,0,1,.13.26s0,0-.08,0-.24.12-.11.09a.49.49,0,0,0,.16-.06s.06,0,.06,0,0,0,0,0,0-.23-.06-.23,0,0-.06-.09-.1-.13-.1,0m-28.78.07a.56.56,0,0,1-.1.15.24.24,0,0,0-.07.11.45.45,0,0,1-.07.15.37.37,0,0,0-.08.15.93.93,0,0,1-.06.19c-.06.12-.12.58-.07.53a1.13,1.13,0,0,0,.07-.29,2.44,2.44,0,0,1,.22-.63l.07-.12a1.1,1.1,0,0,1,.12-.17c.09-.13.1-.15,0-.15s-.05,0-.07.08m24,0a.25.25,0,0,0,0,.11.28.28,0,0,1-.06.1c-.08.09-.09.22,0,.16a.15.15,0,0,0,0-.08.36.36,0,0,1,.08-.15.5.5,0,0,0,.07-.17s0,0-.07,0m-39.18,0s.06.22.1.22a0,0,0,0,0,0,0s-.11-.22-.13-.19m34.45.07a.29.29,0,0,0,0,.1,5.84,5.84,0,0,1-.25.55,1.14,1.14,0,0,0-.07.19s0,.08,0,.08,0,0-.06.1a2.41,2.41,0,0,1-.11.25.77.77,0,0,0-.08.19s0,0,0,0a.43.43,0,0,0-.08.15,1.16,1.16,0,0,1-.1.22l-.14.33a1.24,1.24,0,0,1-.12.27c-.05.07-.07.19,0,.14s.15-.21.13-.24a0,0,0,0,1,0,0,0,0,0,0,0,0-.05s0,0,0,0,0,0,.18-.32a1.34,1.34,0,0,0,.09-.26.48.48,0,0,1,.07-.15.22.22,0,0,0,.06-.13.48.48,0,0,1,.06-.14,1.85,1.85,0,0,0,.11-.24,1.64,1.64,0,0,1,.1-.22.58.58,0,0,0,.05-.14.44.44,0,0,1,.08-.15.21.21,0,0,0,.07-.15.22.22,0,0,1,0-.13.43.43,0,0,0,.1-.27.11.11,0,0,0-.06.06m-23.73,0s0,.1.1.22a.21.21,0,0,1,0,.15.29.29,0,0,0,0,.14,1.26,1.26,0,0,0,.07.16c0,.05,0,.05,0,0s-.22-.74-.28-.68m-29.6.23a.79.79,0,0,0,0,.17c0,.09.08,0,.1-.13s0-.17-.06,0m23.18,0-.09.21-.08.17s0,.2,0,.2,0,0,0-.06a.27.27,0,0,1,0-.13l.08-.2a.44.44,0,0,1,.08-.17.15.15,0,0,0,0-.06c0-.05,0,0-.1,0m25.6.25a1.89,1.89,0,0,0,.17.3s0-.16-.07-.24a.3.3,0,0,1-.06-.13c0-.06-.11-.22-.15-.22s0,.13.11.29m-29.75-.19c0,.07.05.27.09.27s0,0,0-.19-.06-.11-.08-.08m-12.43,0a.76.76,0,0,0,.07.19,1,1,0,0,1,.08.19.18.18,0,0,0,.05.11c0,.06,0,.06,0-.06a.34.34,0,0,0-.07-.16.36.36,0,0,1-.06-.15c0-.11-.1-.21-.1-.12m56,.07a.25.25,0,0,0-.09,0l-.22.08c-.11,0-.19.06-.19.08s0,0-.05,0,0,0,0,0,0,0,.15,0,.1-.05.1-.06,0,0,0,0,0,0,0,0,0,0,.06,0a.54.54,0,0,0,.27-.11s0,0-.07,0m-4.81.15c0,.15,0,.2,0,.07s.06-.18,0-.18,0,0-.07.11m-57.87.06a2,2,0,0,0-.08.49c0,.1.08,0,.11-.22s0-.33,0-.27m12.39,0a.38.38,0,0,0,0,.16v.1l0-.11c0-.06,0-.12.06-.12s0,0,0,0-.05-.06-.09,0m16.53.06a1,1,0,0,0,.1.34s0-.08,0-.22-.1-.19-.1-.12m32.86,0s-.09.06-.07.07.25-.06.25-.1-.06,0-.18,0M31,37c0,.06,0,.2,0,.29a.68.68,0,0,0,.06.21s0-.35,0-.44A.36.36,0,0,1,31,37s0-.06,0-.06,0,0,0,.11M75.56,37c-.09,0-.13.1-.07.1s.25-.12.22-.13a.33.33,0,0,0-.15,0m-7.06.13a.3.3,0,0,1,0,.17s0,.26,0,.26,0-.05,0-.12a.37.37,0,0,1,0-.14s.08-.28,0-.31,0,0,0,.14M60.77,37a3.34,3.34,0,0,0,.22.47c.11.24.23.47.24.51l.06.12s.13.25.25.5.28.53.28.44-.09-.23-.12-.23,0-.05-.05-.11a.45.45,0,0,0-.08-.17.32.32,0,0,1-.08-.14.61.61,0,0,0-.07-.17,1.34,1.34,0,0,1-.11-.21.52.52,0,0,0-.07-.15s0,0,0-.08a.27.27,0,0,0-.05-.14.85.85,0,0,1-.1-.19.24.24,0,0,0-.06-.11.33.33,0,0,1-.07-.14c-.05-.15-.15-.27-.15-.2m12.5,0s-.07,0-.08,0l-.09,0-.08,0h.08a.34.34,0,0,0,.17-.07s.08-.08.07-.08l-.07,0M34.75,37a.89.89,0,0,0-.1.4s0,.24,0,.42a1.49,1.49,0,0,0,0,.45c0,.09,0,0,0-.32a3.42,3.42,0,0,1,.11-.92c0-.06,0-.06,0,0m7,.06a.19.19,0,0,0,0,.13.57.57,0,0,1,0,.19c0,.06,0,.12,0,.13a1.33,1.33,0,0,1,0,.41,1.29,1.29,0,0,1,0,.4s0,.07,0,.13a.39.39,0,0,1,0,.16.11.11,0,0,0,0,.11s0,0,.05-.13a2.19,2.19,0,0,1,0-.25,3,3,0,0,0,0-.85s0-.18-.05-.28,0-.17,0-.15m27.72.08a2,2,0,0,0,0,.31c0,.12,0,.16,0,.08s0-.14,0-.15a.6.6,0,0,0,0-.34s0,0,0,.1m5.8-.08c-.07,0-.16.09-.13.12a.46.46,0,0,0,.24-.12l0,0-.09,0m-13.35,0c0,.05.07.19.1.19a.49.49,0,0,1,.07.16c.05.18.16.32.12.16a1.18,1.18,0,0,0-.09-.23,1.34,1.34,0,0,1-.08-.19,0,0,0,0,0,0,0,0,0,0,0,1,0,0s0,0,0,0a0,0,0,0,0,0,0m11,0s0,0-.12,0l-.29.1-.2.08s0,0,0,0,.14,0,.23,0,.1-.07.13-.06a.59.59,0,0,0,.33-.14,0,0,0,0,0,0,0,0,0,0,0,0,0,0m-7.28.09a.24.24,0,0,0-.06.11.37.37,0,0,1,0,.09s0,.05,0,.05,0-.05.07-.12a.53.53,0,0,1,.07-.15c0-.06,0,0-.07,0m9.16,0c-.09,0-.13.11-.06.11s.24-.12.22-.14,0,0-.16,0M24,37.27a3.36,3.36,0,0,0-.05,1.12.37.37,0,0,1,0,.14s0,.1,0,.1,0-.05,0-.11,0-.11,0-.12a3.39,3.39,0,0,1,0-.9.22.22,0,0,0,0-.15c0-.07,0-.1,0-.08m6.05.65c0,.63,0,.84.09.45a2.79,2.79,0,0,0-.06-1.07,2.06,2.06,0,0,0,0,.62m44.38-.51c-.1,0-.11.08,0,.08s.06,0,.06,0a.18.18,0,0,1,.11-.05c.11,0,.12,0,0,0a.58.58,0,0,0-.18,0M72,37.5c-.06,0-.1,0-.1.06s.19,0,.24-.06,0,0-.14,0m-31.2.44c0,.27,0,.41,0,.39a1.33,1.33,0,0,0,0-.41,1.1,1.1,0,0,0,0-.4,1.22,1.22,0,0,0,0,.42m24.7-.36a.33.33,0,0,0-.06.14.14.14,0,0,1-.06.11.27.27,0,0,0-.08.16.36.36,0,0,1-.06.15.43.43,0,0,0-.08.14.84.84,0,0,1-.07.16.34.34,0,0,0-.08.16.75.75,0,0,1-.09.2.89.89,0,0,0-.08.17c0,.05,0,.09,0,.09s-.09.14-.06.18.15-.18.15-.27,0,0,0,0A.3.3,0,0,0,65,38.8c0-.08,0-.14.07-.14a.49.49,0,0,0,.07-.16.43.43,0,0,1,.08-.15,0,0,0,0,0,0,0s.08-.19.17-.39.21-.51.1-.35m8.54,0c-.05,0-.08,0-.08.06s.12,0,.16,0l.08-.06s0,0,0,0a.33.33,0,0,0-.15,0m-2.46.1a.84.84,0,0,1-.25.09c-.16,0-.27.12-.18.12s.26-.05.26-.09l0,0a.94.94,0,0,0,.36-.13s-.1,0-.23,0m2.08,0a.07.07,0,0,0-.07.06c0,.05.15,0,.18,0s0,0,.06,0-.07,0-.17,0m-62.08.22c0,.13,0,.18,0,.12V37.8c0-.06,0,0,0,.12m50.64-.16a.45.45,0,0,0,.09.22s0,.05.06.12.08.21.11.18a.58.58,0,0,0-.07-.22,1,1,0,0,1-.1-.22.12.12,0,0,0-.05-.06s0,0,0,0m11.11.08c-.11,0-.2.11-.14.11s.28-.07.28-.11,0-.05-.14,0m-2.45.1-.1.05.09,0A.18.18,0,0,0,71,38c.08-.08,0-.08-.14,0m2,.05c-.11,0-.19.13-.1.1l.14,0A.11.11,0,0,0,73,38l.06,0s0,0,0,0a.41.41,0,0,0-.16,0m-3.48.3c0,.24,0,.33.11.24s0-.05,0,0a0,0,0,0,0,0,0s0,0-.06,0-.08,0-.08,0a.14.14,0,0,0,0-.09.48.48,0,0,1,0-.15c0-.07,0,0,0,.11m1.06-.2c-.13.06-.11.09,0,.06s.22-.11.12-.11l-.16.05m-57.88,0a1,1,0,0,0,.08.6.24.24,0,0,1,.06.09s0,0,0-.06a1.46,1.46,0,0,0,0-.17,1,1,0,0,1,0-.27c0-.12,0-.2-.05-.19m60,0a0,0,0,0,0,0,0s0,0,0,0a0,0,0,0,0,0,0,0,0,0,0,0,0,0m-.16,0s0,0,0,.05.14,0,.14-.05-.06,0-.12,0m-41.36.11s0,.08,0,.08a1.26,1.26,0,0,0-.06.32,2.45,2.45,0,0,1-.06.35s0,0,0,0a2.39,2.39,0,0,0,.14-.86s0,0,0,.07m39,0a.68.68,0,0,1-.22.08q-.24.06-.21.12s.2,0,.23,0a.84.84,0,0,1,.19-.09c.1,0,.18-.06.18-.08s-.1,0-.17,0m2,0c-.06,0-.1.1,0,.1a.5.5,0,0,0,.24-.09s-.1,0-.19,0m-9.64.07a.37.37,0,0,0,.1.26.08.08,0,0,1,0,.08c0,.08.06.21.1.21s0,0-.08-.28-.17-.34-.17-.27m6,.12a.33.33,0,0,0,0,.14.34.34,0,0,1,0,.17c0,.11,0,.15.06.13s0-.08,0-.18,0-.2,0-.26-.07-.15-.07,0m3.35-.06c-.14.06-.22.13-.11.11a.8.8,0,0,0,.32-.11s-.13,0-.21,0m-37.11,0a1,1,0,0,0,.08.45s.07,0,0,0a1,1,0,0,1-.06-.24c0-.13,0-.19-.06-.16M11.6,38.6c0,.21.12.58.13.42a1.07,1.07,0,0,0-.08-.47s-.05,0-.05.05m59.82,0c-.08,0-.17.1-.1.1s.24-.07.24-.1,0,0-.14,0m-30.75.16,0,.16c0,.13,0,.1.07,0a.79.79,0,0,0,0-.17c0-.09-.06-.06-.07,0m-22.07,0a1.69,1.69,0,0,0-.07.36s.11-.22.1-.31,0-.08,0-.05M71,38.74c-.06,0-.1,0-.09.06s.27,0,.27-.09-.06,0-.18,0m-41.07.13a.67.67,0,0,0-.05.19c0,.1.08,0,.11-.11s0-.22-.06-.08m40.74,0a.36.36,0,0,0-.1.07.07.07,0,0,1-.08,0s0,0,0,0,0,0,0,0a.22.22,0,0,0-.14,0c-.06,0-.09,0-.07.06a1.2,1.2,0,0,0,.59-.23s0-.05-.11,0m-46.6.08a.43.43,0,0,0,.08.21.38.38,0,0,1,.07.17.18.18,0,0,0,.05.11s.07.12.11.19.07.13.09.13,0,0,0,.05a.33.33,0,0,0,.09.13.33.33,0,0,1,.09.13.1.1,0,0,0,.07.05s.06,0,.06.06,0,.05.05.07a.35.35,0,0,1,.12.08,1.7,1.7,0,0,0,.49.36c.08,0,.05-.06-.09-.12s-.15-.06-.48-.39-.43-.46-.43-.53,0,0,0,0a2.24,2.24,0,0,1-.25-.49.52.52,0,0,0-.06-.14l-.06-.12v.09m39.87,0a.45.45,0,0,0-.06.12,2,2,0,0,1-.09.23,5.31,5.31,0,0,0-.21.5.76.76,0,0,1-.07.13c-.05.06-.09.21-.05.21s.09-.11.11-.23a.33.33,0,0,1,.07-.13.54.54,0,0,0,.08-.17.28.28,0,0,1,0-.14.84.84,0,0,0,.11-.28s0,0,0-.07.12-.21.08-.21l-.06,0m-51.22,0a.41.41,0,0,0,.11.23s0,0,0-.15-.06-.12-.1-.08m50,.07a.61.61,0,0,0,.12.27s0,0,0-.07-.14-.26-.14-.2M34.79,39q0,.1.15.3c.06.07.06.06,0-.1a1.32,1.32,0,0,1-.08-.19c0-.08,0-.08-.06,0m5.73.11c-.07.14-.08.2,0,.2s.08-.08.11-.22,0-.14-.08,0m1.1-.08c-.07.18-.08.23-.06.29s.13-.19.13-.31,0,0-.07,0m14.52.06a.5.5,0,0,0,0,.16l0,.11.06-.08a.25.25,0,0,0,.06-.16c0-.1,0-.11,0,0m5.68,0a2.4,2.4,0,0,0,.27.53s0-.17,0-.17a1,1,0,0,1-.13-.22c-.09-.2-.18-.3-.12-.14m6.77,0a2.9,2.9,0,0,0,.39.88.69.69,0,0,1,.12.21,0,0,0,0,0,0,0c.05,0,0-.07,0-.18A.28.28,0,0,1,69,40a.21.21,0,0,0-.08-.11.24.24,0,0,1-.07-.11.49.49,0,0,0-.1-.24s0,0,0,0,0,0,0,0,0,0,0-.09-.08-.28-.11-.28,0,0,0,.08m-50.13,0a.17.17,0,0,0,0,.07,1.9,1.9,0,0,1-.25.47.1.1,0,0,0-.05.07,2.32,2.32,0,0,1-.53.55,0,0,0,0,0,0,0s0,0-.08.06-.13.12-.08.12a3.42,3.42,0,0,0,.74-.69,1.57,1.57,0,0,1,.15-.19.33.33,0,0,0,.06-.14.25.25,0,0,1,.06-.13.4.4,0,0,0,.08-.16c0-.11,0-.12,0-.06m12.41,0s0,.12,0,.15a.17.17,0,0,1,0,.1s0,0,0,0a.9.9,0,0,0,.16-.34c0-.06-.06,0-.09.05m38.93,0c-.15.07-.17.23,0,.28s0,.05.07.1,0,.1.06.11a.08.08,0,0,1,0,.06s0,0,0,0,0,0,0,0a1.51,1.51,0,0,0,.14.17.65.65,0,0,1,.14.16,0,0,0,0,0,0,0s.11.07.28.23l.16.1a.46.46,0,0,1,.12.09.22.22,0,0,0,.12.06.31.31,0,0,1,.14.07s.23.11.23.08-.09-.09-.23-.14l-.18-.1a.1.1,0,0,0-.07,0,.15.15,0,0,1-.08,0l-.17-.12a2.91,2.91,0,0,1-.35-.32c-.12-.13-.24-.27-.28-.3a.28.28,0,0,1-.06-.1.23.23,0,0,0-.05-.1c-.09-.12-.14-.28-.08-.28s0,0,0,0a.18.18,0,0,1,.11-.05c.08,0,.1,0,.07,0s0,0-.22.05m-56.95,0c0,.13.08.23.13.23s0-.05,0-.15-.12-.19-.09-.08m17,0a1,1,0,0,0-.09.18c0,.07-.06.13-.08.13s0,0-.05.07,0,.1.09,0,.07-.13.06-.14a0,0,0,0,1,0,0s.1-.14.08-.19,0,0,0,0m-18,.14c0,.18.12.29.1.12s0-.14,0-.16,0,0,0-.05-.05,0,0,.09m51.12,0a.47.47,0,0,0,0,.14c.06.14.12.15.07,0s-.12-.21-.12-.15m1.71.11a.24.24,0,0,0,0,.1.14.14,0,0,1,0,.09s0,0,0,0,.18-.24.16-.26,0,0-.07,0M35,39.41a1.29,1.29,0,0,0,.22.36s.06.06.06.08a.17.17,0,0,0,.07.09s.08.06.08.08a1.27,1.27,0,0,0,.37.36c.05,0,0-.06,0-.09a2.72,2.72,0,0,1-.43-.45l-.12-.16,0,0A.56.56,0,0,0,35,39.4h0m5.38.09a.37.37,0,0,1-.1.16c-.07.06-.08.14,0,.11s.06-.05.07-.09,0-.07,0-.07a.48.48,0,0,0,.12-.2c0-.06-.09,0-.12.09m1.12,0a.18.18,0,0,0,0,.13s0,.06,0,.06a.58.58,0,0,0-.1.17,1.87,1.87,0,0,1-.14.21.14.14,0,0,0-.06.09s0,.08-.08.12a.29.29,0,0,0-.08.11s0,.05-.06.07-.06.05-.06.07a.82.82,0,0,1-.16.18c-.09.08-.14.15-.12.15a1.61,1.61,0,0,0,.4-.38s0-.05.06-.07a.13.13,0,0,0,.07-.08,1,1,0,0,1,.06-.13l.1-.14.13-.22a1.29,1.29,0,0,0,.12-.25.15.15,0,0,1,0-.1.09.09,0,0,0,0,0c0-.05-.06,0-.11.06m14.51,0c-.07.14-.06.17,0,.07a.12.12,0,0,0,0-.13s0,0-.07.06M13,39.54a.15.15,0,0,0,.06.11.13.13,0,0,1,.06.09s0,0,0,0,0,0,0,.05a.14.14,0,0,0,.06.08s.07,0,.07.06a1.16,1.16,0,0,0,.32.32l.18.14a.48.48,0,0,0,.15.1s0,0,0,.05a.35.35,0,0,0,.13.08l.17.09c.05.06.1.06.1,0s0-.06-.1-.09c-.25-.12-.36-.19-.36-.21s0,0,0,0a2.73,2.73,0,0,1-.73-.72c-.13-.18-.18-.23-.18-.18m17.7.06a.42.42,0,0,0-.06.15,1,1,0,0,1-.14.24,1,1,0,0,0-.14.23,4.6,4.6,0,0,1-.82.83s-.12.12-.09.15a4.46,4.46,0,0,0,.57-.48,5.26,5.26,0,0,0,.52-.67c.23-.41.33-.68.16-.45m32.33,0a.71.71,0,0,0,.07.21l.15.29c.07.16.1.17.13.1s0-.15,0-.11-.06,0-.23-.4c-.07-.16-.1-.19-.1-.09m-51.14,0a.27.27,0,0,0,.06.12c.08.09.09,0,0-.11s-.08-.06-.08,0m52.53,0a.38.38,0,0,0,0,.14.23.23,0,0,1-.07.13.32.32,0,0,0-.06.13.58.58,0,0,1-.1.19.32.32,0,0,0-.06.19c0,.07.23-.33.29-.53a.37.37,0,0,1,.08-.15c.06-.08.07-.16,0-.16s0,0,0,.06m-35,0a2.89,2.89,0,0,1-1,.87c-.24.12-.33.19-.3.22s.16,0,.2-.09a.12.12,0,0,1,.08-.05.35.35,0,0,0,.21-.12.09.09,0,0,1,0,0,2.88,2.88,0,0,0,.83-.8,0,0,0,0,0,0,0,0,0,0,0,0-.05,0m26.36.06a.74.74,0,0,1-.11.16c-.08.07-.09.15,0,.12a.07.07,0,0,0,0,0,.34.34,0,0,1,.09-.14c.1-.11.12-.19.07-.19s0,0-.07.1m6.32.05.09.16a.18.18,0,0,1,.05.07c0,.05.61,1.32.65,1.34a1.33,1.33,0,0,1,.06.14c.14.42.37.63.46.39a4.3,4.3,0,0,1,.21-.43s.07-.15.13-.27.1-.24.12-.27,0-.06,0-.07-.13.11-.13.17a1,1,0,0,1-.08.18.8.8,0,0,0-.08.2.16.16,0,0,1-.06.1.36.36,0,0,0-.08.15c0,.21-.22.33-.27.17s0-.06,0-.06,0,0,0-.09a.8.8,0,0,0-.08-.16,1.23,1.23,0,0,1-.1-.2.3.3,0,0,0-.06-.13.24.24,0,0,1-.06-.12.38.38,0,0,0-.09-.18.27.27,0,0,1-.06-.12.49.49,0,0,0-.08-.17.4.4,0,0,1-.07-.16.43.43,0,0,0-.06-.12.75.75,0,0,1-.09-.2.22.22,0,0,0-.09-.14.11.11,0,0,1,0-.09c0-.08-.08-.21-.13-.21s0,.05,0,.12m-22.08,0a2.46,2.46,0,0,1-.45.47.2.2,0,0,1-.09.06.2.2,0,0,0-.09.06.2.2,0,0,1-.09.06.14.14,0,0,0-.09,0l-.18.1c-.2.1-.24.13-.14.13a.22.22,0,0,0,.14-.06.64.64,0,0,1,.14-.08.25.25,0,0,0,.14-.08.2.2,0,0,1,.09-.06.33.33,0,0,0,.13-.09.33.33,0,0,1,.13-.09,2.29,2.29,0,0,0,.45-.48c0-.06,0,0-.09,0m10.82,0a3.36,3.36,0,0,0,.24.79,1.76,1.76,0,0,1,.12.23c0,.1.1.12.1,0a.2.2,0,0,0-.06-.12.35.35,0,0,1-.08-.13.65.65,0,0,0-.08-.17.43.43,0,0,1-.07-.24.5.5,0,0,0,0-.19.24.24,0,0,1,0-.1.17.17,0,0,0,0-.12s0,0,0,0M12.06,40a1.32,1.32,0,0,0,.2.33.15.15,0,0,1,.05.08,3.86,3.86,0,0,0,1,.93s0,0,0,0,0,.05.11.08l.14.07,0,0s-.05-.06-.11-.09a1,1,0,0,1-.22-.14.41.41,0,0,0-.13-.08.2.2,0,0,1-.09-.06L13,41a3.33,3.33,0,0,1-.46-.46l-.16-.2a.23.23,0,0,1,0-.1s0-.06-.07-.06a0,0,0,0,1,0,0,.3.3,0,0,0-.11-.21s0,0,0,.05M52,40.07s0,.07.15.31a.9.9,0,0,0,.16.19l.2.18c.09.09.15.11.15.06a0,0,0,0,0,0,0l-.15-.12-.15-.13s-.11-.13-.21-.34S52,40,52,40.07m3.55.06a.29.29,0,0,1-.1.13c-.1.09-.1.14,0,.1a.07.07,0,0,0,.05-.06s0,0,0,0,.09-.15,0-.15a0,0,0,0,0,0,0M23.9,42.73c0,1.69,0,2.57,0,2.57s0-.86,0-2.49c0-1.37,0-2.52,0-2.56s0-.07,0-.08a19.44,19.44,0,0,0,0,2.56m10.72,0c0,1.61,0,2.57,0,2.57s.06-4.95,0-5.08-.07.27-.07,2.51m39.87-2.5-.15.13a.12.12,0,0,1-.08,0l-.07,0a.38.38,0,0,1-.14.09l-.15.08-.22.11c-.15.07-.16.08-.08.08a.37.37,0,0,0,.2-.07l.2-.1s.08,0,.08,0,0,0,0,0,0,0,0,0,0,0,.07-.06a.21.21,0,0,0,.11-.07.12.12,0,0,1,.07-.06.41.41,0,0,0,.13-.08c.11-.09.14-.09.17,0a.18.18,0,0,0,.1.09s0,0,0,0,0,.08.07.15a1.17,1.17,0,0,1,.11.16s0,.06,0,.06,0,.07,0,.11-.07.11,0,.07.13-.15.06-.2l0,0a2.54,2.54,0,0,0-.42-.58l-.15.07m-18.17,0a.22.22,0,0,0,0,.1.24.24,0,0,1-.07.11l-.14.16c-.19.23-.26.31-.28.31a.72.72,0,0,0-.25.24s0,0,0,0a.28.28,0,0,0-.13.06.42.42,0,0,1-.13.07l-.1.06c-.12.11,0,.11.11,0l.16-.1a.21.21,0,0,0,.11-.08.3.3,0,0,1,.11-.07,3.46,3.46,0,0,0,.49-.52s0,0,0-.06a.67.67,0,0,0,.2-.34s0,0,0,0m-37.78.12a3.41,3.41,0,0,1-.47.5,2,2,0,0,0-.35.28s0,0,0,0a.36.36,0,0,0-.13,0,1.64,1.64,0,0,1-.48.27.26.26,0,0,0-.15.07.23.23,0,0,1-.14.07,1.09,1.09,0,0,0-.38.1,4.94,4.94,0,0,1-1.48.07c-.24,0-.31,0-.23,0a6.12,6.12,0,0,0,1.95-.09l.17-.06.15-.06.17-.08a1.07,1.07,0,0,0,.35-.2s.06,0,.1,0c.26-.07,1.19-1,1.09-1a.49.49,0,0,0-.12.13m50.66,0c0,.06,0,.09.23.31a3.85,3.85,0,0,0,.41.38.43.43,0,0,1,.12.09,1,1,0,0,0,.21.15l.24.14c.19.12.26.13.14,0a.38.38,0,0,0-.16-.09.18.18,0,0,1-.1-.06.18.18,0,0,0-.1-.07.19.19,0,0,1-.11-.08s-.08-.07-.1-.07a.17.17,0,0,1-.09-.06c-.25-.24-.6-.59-.64-.65s0-.07,0,0M24,40.38a4.33,4.33,0,0,0,.65.64s0-.06-.05-.1a1.65,1.65,0,0,1-.21-.2l-.22-.23a.41.41,0,0,1-.09-.12.08.08,0,0,0-.07,0s0,0,0,.06m10.69,0a2.26,2.26,0,0,0,.49.53s0,0,0,0a2.38,2.38,0,0,0,.53.4.07.07,0,0,1,.06,0s0,0,0,0-.14-.17-.21-.17,0,0,0,0l-.09-.07a5.47,5.47,0,0,1-.59-.55.67.67,0,0,0-.2-.21,0,0,0,0,0,0,0m20.51.11a1.62,1.62,0,0,1-.37.24s-.16.1-.16.13.16,0,.2-.08a.2.2,0,0,1,.11-.06.47.47,0,0,0,.16-.1l.11-.08s.07-.09,0-.11,0,0-.1.06m-19.38,0a.17.17,0,0,0,.1.08.26.26,0,0,1,.11.08.1.1,0,0,0,.1,0c.1,0,.05-.08-.1-.13s-.11-.05-.12-.08a.08.08,0,0,0-.06,0s0,0,0,0m-18.61.13a.67.67,0,0,1-.18.1l-.19.09c-.06.07.1,0,.18,0a.48.48,0,0,1,.16-.08c.1,0,.19-.14.11-.14a.12.12,0,0,0-.08,0M64,40.7a.23.23,0,0,0,0,.14s0,0,.07-.08a.83.83,0,0,1,.07-.14c0-.08-.06,0-.1.08m-38.46,0s.17.13.25.13,0,0,0,0-.05,0-.05,0,0,0,0,0l-.11,0s0,0,0,0m10.72,0s.13.11.25.13l.1,0-.1-.06c-.14-.09-.25-.13-.25-.09m18.26.16s-.1,0-.1.06,0,0,0,0,0,0,0,0a.41.41,0,0,0,.29-.1c0-.05,0-.05-.12,0m-39.85,0A.58.58,0,0,0,15,41s0,0-.06,0-.09,0-.09,0-.07,0-.14,0-.11,0-.06,0m1.87,0s-.07,0-.07,0,0,0-.08,0-.08,0-.06,0a.85.85,0,0,0,.39-.08s-.06,0-.18,0m9.39,0s.15.1.26.1.08,0,0,0l-.08,0s-.22-.07-.22,0m1.93,0a.49.49,0,0,1-.13.06s0,0,0,0,.32-.06.32-.09-.1,0-.2,0m8.77,0s0,.05.2.08L37,41l-.12-.07c-.13-.06-.23-.08-.23,0m2,0-.07,0s0,0-.06,0-.06,0,0,0,.3,0,.3-.08,0,0-.15,0m14.13,0s.14.1.21.1,0,0,0,0-.21-.1-.21-.06m18.78,0s.09.08.26.09.12,0,.08,0l-.1,0s-.24-.07-.24,0m1.76,0s-.07,0-.07,0,0,0-.08,0-.08,0-.07,0a.62.62,0,0,0,.36-.07c.06,0,0-.05-.14,0M40.4,41a.1.1,0,0,1-.07.06l-.12.08a.41.41,0,0,1-.13.08l-.08,0a.8.8,0,0,1-.2.14c-.16.09-.23.16-.17.16l.07,0a.3.3,0,0,1,.14-.08s.1-.06.1-.07,0,0,0,0a1.43,1.43,0,0,0,.41-.26l.07,0s0,0,0,0-.05-.06-.09,0M15.13,41h.11c.06,0,.12,0,.13,0a1.27,1.27,0,0,0,.55,0,.28.28,0,0,1,.16,0,2,2,0,0,0-.42,0,4.78,4.78,0,0,0-.53,0m11.3,0a.15.15,0,0,1,.09.05,3.44,3.44,0,0,0,.91,0A1.22,1.22,0,0,0,27,41h-.58m1,0,.08,0s.08,0,.08,0,0,0-.08,0h-.08m9.62,0s0,0,.08,0,.07,0,.07,0,.14,0,.45,0a1.39,1.39,0,0,0,.45,0,1.18,1.18,0,0,0-.41,0l-.52,0c-.07,0-.12,0-.12,0m1.11,0a.21.21,0,0,0,.11,0s0,0,0,0h-.06m14.87,0s0,0,0,0a.08.08,0,0,1,.08,0,2.26,2.26,0,0,0,.73.06l.12,0,.1,0a0,0,0,0,1,.06,0s0,0,0,0-.31,0-.35,0a1.34,1.34,0,0,1-.49,0s-.33-.08-.33,0m19,0h.32c.49,0,.53,0,.09,0a1.17,1.17,0,0,0-.41,0m-47.32.06a.81.81,0,0,0,.33.24l.07,0a3.94,3.94,0,0,0,.77.37s.06,0,.07,0,.23.07.22,0a.74.74,0,0,0-.37-.11.11.11,0,0,1-.09,0,.35.35,0,0,0-.15-.09,1,1,0,0,1-.24-.11.33.33,0,0,0-.13-.07.42.42,0,0,1-.13-.08.33.33,0,0,0-.13-.07l-.1-.08c-.06-.08-.12-.1-.12-.05m26.64,0a2,2,0,0,0,.55.52,0,0,0,0,1,0,0l0,0a0,0,0,0,0,0,0s0,0-.05,0,0,0,0,0a0,0,0,0,0,0,0,1.42,1.42,0,0,1-.28-.22c-.13-.13-.23-.22-.23-.2m5,.3c0,.42,0,.4.48.4s.44,0,.44-.1h-.84v-.31c0-.42-.07-.41-.07,0m18.42-.27-.08.06-.16.08-.24.14c-.06,0-.12.07-.12.09s0,0,.16-.05l.26-.14c.2-.1.3-.17.31-.21s-.08,0-.13,0m-45.52.15c-.06,0-.06.06,0,.06s.17-.06.17-.09-.07,0-.15,0m-.3.18a.25.25,0,0,1-.16.07s-.22.08-.22.12,0,0,0,0,.05,0,.05,0,0,0,.09,0a2,2,0,0,0,.42-.2c.07-.07-.1,0-.22.06m6.93-.06a.06.06,0,0,0,.06,0s.07,0,.07,0,.06,0,.14.08l.18.08.15.06.16.06a2.93,2.93,0,0,0,.83.12h.27l-.23,0-.42,0a.49.49,0,0,1-.22,0,.77.77,0,0,0-.35-.1.1.1,0,0,1-.1,0,.08.08,0,0,0-.06,0l-.25-.11c-.24-.12-.23-.12-.23-.08m-22.19.15s0,0,.1.05.09,0,.09,0a.3.3,0,0,0,.14.06.69.69,0,0,1,.18.06.32.32,0,0,0,.17,0h.09s-.06,0-.06,0a.75.75,0,0,0-.35-.09s-.08,0-.08,0a.58.58,0,0,0-.25-.13l0,0m25.69,0s-.09.06-.09.08,0,0,0,0l.12-.05c.05,0,.1,0,.1-.07s0,0-.16,0m15.46,0c-.1,0-.12.11,0,.11a0,0,0,0,0,0,0s0,0,0,0a.16.16,0,0,0,.1,0c.09-.06,0-.06-.14,0m15.84,0s0,0,.08,0,.06,0,.06,0,0,0,.05,0,0-.06-.07-.11-.14-.06-.12,0m3.24,0c-.07,0-.14.12-.09.12s.25-.11.23-.13,0,0-.14,0m-21.9.09a.51.51,0,0,0,.26.18c.06,0,0-.09-.1-.12a.43.43,0,0,1-.14-.07s0,0,0,0m18.93,0s0,0,.08.06l.12,0c.07.05.27.07.23,0a.55.55,0,0,0-.33-.1s0,0-.06,0,0,0,0,0m-42.71,0c-.17,0-.22.13-.05.1a.32.32,0,0,0,.15-.05.35.35,0,0,1,.12,0l.09,0h-.09l-.22,0m10.72,0c-.19.06-.26.13-.11.11s.29-.08.29-.12-.05,0-.18,0m15.52,0c-.09,0-.16.11-.09.11a.76.76,0,0,0,.19-.07c.17-.08.1-.11-.1,0m19,0c-.19.06-.23.13-.07.1a.38.38,0,0,0,.17-.05l.13,0,.09,0h-.11a.78.78,0,0,0-.21,0m-47.25.11a6.1,6.1,0,0,0,1.81,0s0,0-.09,0-.89.07-.91.06l-.37,0-.41,0c-.05,0-.06,0,0,0m45.25,0a6.94,6.94,0,0,0,1.67,0l.13,0h-.16l-.43,0a7.58,7.58,0,0,1-1.15,0c-.07,0-.09,0-.06,0m-33.41,0a1.31,1.31,0,0,0-.29,0,5.17,5.17,0,0,0,.8,0l.16,0h-.2l-.47,0m14.34,0a.32.32,0,0,0,.14,0,.21.21,0,0,1,.11,0s.2,0,.2,0a1.78,1.78,0,0,0-.46-.1s0,0,0,0m1.5,0a.47.47,0,0,0-.19.06s.2,0,.23,0a.27.27,0,0,1,.13,0,.54.54,0,0,0,.19,0c.11,0-.12,0-.36,0" transform="translate(0 0)"/><path id="path3-2" data-name="path3" class="cls-10" d="M8.16,36.3a1.74,1.74,0,0,0,0,.48,3.93,3.93,0,0,0,0-.47v-.46l.1.1.09.11L8.31,36c-.14-.19-.15-.16-.15.35m.44,0a.33.33,0,0,0,.12.12s0,0,0,0l-.12-.11s0,0,0,0m.27.31.09.09q.09,0,0,0a.38.38,0,0,0-.09-.09s0,0,0,0m-.8.91c-.05,0-.05,0,0,0l.13,0s.06,0,.05,0-.07,0-.16,0m.19.06a.49.49,0,0,0,0,.1s0,.07,0,0a.37.37,0,0,0,0-.11s0-.06,0,0m-.74.2c-.06,0-.1.06-.09.06a.52.52,0,0,0,.21-.11s0,0-.12.05m-1.26,0-.09.06a.52.52,0,0,0,.21-.11s0,0-.12,0M7,38c-.07,0-.12.07-.1.07L7,38c.07,0,.12-.08.1-.08L7,38m-.87.12c0,.06.06.1.07.1a.51.51,0,0,0-.1-.21s0,.05,0,.11m.54,0a.1.1,0,0,0,.08.06s0,0,0,0a.28.28,0,0,1-.09-.06s0,0,0,0m1.29.07c-.1,0-.16.09-.14.09l.2-.09.14-.09-.2.09m-1,.44c-.12.07-.11.09,0,0s.14-.08.1-.07l-.11,0m-.59.09c0,.06.06.11.06.1s-.08-.2-.1-.2a.55.55,0,0,0,0,.1" transform="translate(0 0)"/><path id="path4-2" data-name="path4" class="cls-11" d="M8.14,36.3v.5h.44c.33,0,.44,0,.45,0s0,0,0,0a1.45,1.45,0,0,1-.44,0H8.16v-.49a2.16,2.16,0,0,0,0-.49,2.69,2.69,0,0,0,0,.5M8,37.54s-.07,0,0,0l.11,0s.06,0,0,0a.29.29,0,0,0-.1,0m-.59.27s-.06,0,0,0a.29.29,0,0,0,.1,0s.07,0,0,0l-.11,0m.86.23-.08.06a.82.82,0,0,0,.21-.1s0,0-.13,0m-1.87.66c0,.13.12.22.2.16s.06,0,0,0l-.08,0-.06-.1c0-.06-.05-.09-.05-.07" transform="translate(0 0)"/></g></svg>