<svg id="Layer_1" data-name="Layer 1" xmlns="http://www.w3.org/2000/svg" viewBox="0 0 80 84.19"><defs><style>.cls-1{fill:#f2f2f2;}.cls-2{fill:#fcfcfc;}.cls-10,.cls-2,.cls-3,.cls-4,.cls-5,.cls-6,.cls-7,.cls-8,.cls-9{fill-rule:evenodd;}.cls-3{fill:#cc1424;}.cls-4{fill:#c4c4c4;}.cls-5{fill:#dc5464;}.cls-6{fill:#fc6444;}.cls-7{fill:#fadec1;}.cls-8{fill:#fc9679;}.cls-9{fill:#fcac8c;}.cls-10{fill:#fca492;}</style></defs><rect class="cls-1" width="80" height="80" rx="40"/><g id="svgg"><path id="path0" class="cls-2" d="M26.35,79.61v4.54h27.3V75.07H26.35v4.54" transform="translate(0 0)"/><path id="path1" class="cls-3" d="M26.32,70.47V75H53.69v-9.1H26.32v4.55" transform="translate(0 0)"/><path id="path2" class="cls-4" d="M26.34,75.06s0,9.07,0,9.11,27.3,0,27.33,0,0-1.22,0-4.56V75.06H26.34m27.31,4.55v4.54H26.35V75.07h27.3v4.54" transform="translate(0 0)"/><path id="path3" class="cls-5" d="M26.32,75s4.56,0,13.68,0,13.68,0,13.68,0-27.34,0-27.36,0" transform="translate(0 0)"/><path id="path4" class="cls-5" d="M26.32,65.92" transform="translate(0 0)"/></g><g id="svgg-2" data-name="svgg"><path id="path0-2" data-name="path0" class="cls-6" d="M5.33,37.57v12H75.77v-24H5.33v12m55.2-8s0,1.23,0,5.23V40l.06,0c.09,0,.18-.11.52-.43l.75-.68a2.61,2.61,0,0,0,.25-.23l.4-.37.38-.35.33-.29.4-.36a1.08,1.08,0,0,1,.22-.19s0,0,0-.06a.14.14,0,0,1,.08-.07s.06,0,.06-.06,0,0,0,0a.32.32,0,0,0,.12-.09l.34-.31L65,36l.3-.27.21-.19c.1-.09.5-.47.81-.74l.23-.21.08-.07a3.87,3.87,0,0,0,.43-.4.56.56,0,0,1,.19-.13.05.05,0,0,0,0,0,4.29,4.29,0,0,1,1.15,0c.16.06.11.16-.24.49l-.43.41-.36.34-.54.5-.44.41-1,.94c-.09.09-.26.25-.38.35l-.42.39-.35.33c-.15.14-.18.2-.1.28l.19.24.46.59.15.19a1.07,1.07,0,0,0,.16.18s0,0,0,.07a1.17,1.17,0,0,0,.12.15.47.47,0,0,1,.13.18s0,0,0,0a.23.23,0,0,1,.08.1.5.5,0,0,0,.11.13.1.1,0,0,1,0,.07l.12.15a.92.92,0,0,1,.13.18s0,0,.05,0,0,0,.06.07a1.46,1.46,0,0,0,.15.2l.49.6a.69.69,0,0,0,.11.13.3.3,0,0,1,.07.09.14.14,0,0,0,.06.09c.06.07.56.69.67.84l.25.31a.92.92,0,0,1,.14.19l.28.34.13.17.1.13a1.78,1.78,0,0,1,.22.29.7.7,0,0,0,.12.14c.3.31.21.38-.47.38s-.62,0-.91-.36l-.46-.57-.12-.14a1.1,1.1,0,0,0-.14-.18.41.41,0,0,1-.08-.13s0,0,0,0a4.48,4.48,0,0,1-.51-.62L66,42.42l-.19-.23a3,3,0,0,0-.2-.25.34.34,0,0,1-.07-.11s0,0,0,0a.92.92,0,0,1-.14-.16l-.29-.38-.25-.32-.14-.17-.06-.08a.18.18,0,0,0,0-.07,2.94,2.94,0,0,1-.37-.49,0,0,0,0,0,0,0,.09.09,0,0,1-.07-.06s0-.06,0-.06a6.29,6.29,0,0,1-.5-.63,1.14,1.14,0,0,0-.25-.23c-.06,0-.15,0-.4.28l-.76.7c-.05,0-.46.4-.51.46s-.07.07-.09.07a1.8,1.8,0,0,0-.22.2l-.47.45-.27.26V43c0,1.49,0,1.53-.06,1.59a1.81,1.81,0,0,1-1,0l-.08-.06v-7.5c0-5.78,0-7.5,0-7.52a1.45,1.45,0,0,1,.53,0c.34,0,.5,0,.52,0m-20.74.18a.49.49,0,0,0,.19.05.64.64,0,0,1,.38.28.34.34,0,0,0,.1.13,1.28,1.28,0,0,1,0,.8,1,1,0,0,1-.31.32l-.08,0a1.15,1.15,0,0,1-.78.07.92.92,0,0,1-.43-.44.93.93,0,0,1-.07-.15,1,1,0,0,1,.5-1,1,1,0,0,0,.19-.06c.16-.05.18-.05.3,0m-20.46.6a1.11,1.11,0,0,1,.3.06,1.36,1.36,0,0,0,.33.06,3,3,0,0,1,.41.08l.16,0,.17.05a4.36,4.36,0,0,0,.54.22.37.37,0,0,1,.14.06.57.57,0,0,0,.13.08,3.73,3.73,0,0,1,.79.56,3.62,3.62,0,0,1,.58.74.52.52,0,0,0,.07.11,2.15,2.15,0,0,1,.19.49.62.62,0,0,0,.07.19,8.8,8.8,0,0,1,0,1.92.52.52,0,0,0-.07.2.52.52,0,0,1-.07.2.56.56,0,0,0-.07.16.8.8,0,0,1-.08.16,3.19,3.19,0,0,1-.76.91l-.25.21a.16.16,0,0,1-.1.06,0,0,0,0,0,0,0l-.13.09a.44.44,0,0,0-.15.09.25.25,0,0,1-.1,0c-.15,0-.1.2.06.2a.54.54,0,0,1,.19,0,.69.69,0,0,0,.21.08.39.39,0,0,1,.16.07.41.41,0,0,0,.15.07.34.34,0,0,1,.14.08.27.27,0,0,0,.12.06.08.08,0,0,1,.07,0l.18.13a3.45,3.45,0,0,1,.6.55s0,0,.06.07a.14.14,0,0,1,.06.08,1.34,1.34,0,0,0,.13.22,1.32,1.32,0,0,1,.15.28.16.16,0,0,0,.06.09.23.23,0,0,1,.06.14.41.41,0,0,0,.06.16.88.88,0,0,1,.09.3,1.29,1.29,0,0,0,.08.37,2.63,2.63,0,0,1,0,.67,2.53,2.53,0,0,1,0,.66,1.29,1.29,0,0,0-.08.37.81.81,0,0,1-.09.3.18.18,0,0,0-.05.12.28.28,0,0,1,0,.12,1.18,1.18,0,0,0-.11.18,1.6,1.6,0,0,1-.11.19l-.12.19a5.1,5.1,0,0,1-.65.66,1.45,1.45,0,0,0-.28.21l-.12.06-.12.07a.53.53,0,0,1-.15.07.53.53,0,0,0-.15.07.26.26,0,0,1-.14.07.34.34,0,0,0-.16.06.47.47,0,0,1-.19.06l-.25.07a.81.81,0,0,1-.26.07,1.26,1.26,0,0,0-.26.06,2.3,2.3,0,0,1-.61.07,4.39,4.39,0,0,0-.59.06,35.28,35.28,0,0,1-3.53,0H12.51l-.08-.07c-.07-.07-.07-.09-.07-.47v-.4l.08-.06c.08-.06.14-.06,3.63-.07a26.1,26.1,0,0,0,4.39-.12l.29-.06a1,1,0,0,0,.2-.06.62.62,0,0,1,.16-.07l.23-.09.16-.06a1.26,1.26,0,0,0,.23-.13.83.83,0,0,1,.23-.14,0,0,0,0,0,.05,0s0,0,0,0a2,2,0,0,0,.36-.36.45.45,0,0,1,.07-.1.29.29,0,0,0,.08-.11.12.12,0,0,1,.05-.09.34.34,0,0,0,.08-.16.49.49,0,0,1,.06-.16.66.66,0,0,0,.08-.26,1.09,1.09,0,0,1,.07-.32,2.81,2.81,0,0,0,0-1,2.3,2.3,0,0,1-.06-.28.76.76,0,0,0-.07-.24.62.62,0,0,1-.07-.19.24.24,0,0,0-.08-.14.12.12,0,0,1-.05-.08,2.05,2.05,0,0,0-.77-.75,0,0,0,0,1,0,0l-.11-.07-.18-.09A1.41,1.41,0,0,0,21,38.2a.52.52,0,0,1-.21-.07.37.37,0,0,0-.24-.06,2.29,2.29,0,0,1-.4-.06c-.23-.07-.25-.07-3.94-.08l-3.7,0-.05-.07c-.05-.07-.06-.13-.06-.45,0-.59-.37-.52,3-.53a30.8,30.8,0,0,0,4.43-.12,1,1,0,0,1,.23-.07l.18-.05.19-.08.26-.1a.75.75,0,0,0,.2-.11.25.25,0,0,1,.11,0,2.9,2.9,0,0,0,.63-.58s0,0,.06-.06a.11.11,0,0,0,.06-.08.18.18,0,0,1,0-.09.31.31,0,0,0,.09-.14l.09-.17A.35.35,0,0,0,22,35a.45.45,0,0,1,.06-.21,3.71,3.71,0,0,0,0-1.33.37.37,0,0,1-.06-.21A.27.27,0,0,0,22,33a.55.55,0,0,1-.08-.15.27.27,0,0,0-.07-.13s-.06-.06-.06-.08A2,2,0,0,0,21,32c-.06,0-.1-.05-.1-.07a.17.17,0,0,0-.1-.05.24.24,0,0,1-.11-.06s0,0-.11-.05a.48.48,0,0,1-.18-.07.52.52,0,0,0-.21-.07l-.26-.08a2.72,2.72,0,0,0-.5-.08l-.49-.07c-.07,0-1.39,0-3.22,0a28,28,0,0,1-3.22-.05l-.1,0v-.86l.1,0c.11-.05,6.37-.06,6.87,0m31.94,3.56a4.55,4.55,0,0,1,.5.07l.32.08a.89.89,0,0,1,.26.08.48.48,0,0,0,.15,0c.07,0,.21.06.21.09l.12,0c.07,0,.13,0,.14.05a.36.36,0,0,0,.14.09l.18.09.37.24.17.13a3.28,3.28,0,0,1,.43.39,2.5,2.5,0,0,1,.45.57,1.57,1.57,0,0,1-.4.37.12.12,0,0,0-.08.05,1.26,1.26,0,0,1-.28.18,2.8,2.8,0,0,1-.36-.33,3.2,3.2,0,0,0-.67-.58c-.05,0-.09,0-.09-.06s0,0-.1-.06a.22.22,0,0,1-.13-.07.32.32,0,0,0-.13-.06l-.2-.07a2.73,2.73,0,0,0-.61-.2L51.38,35a6.78,6.78,0,0,0-1.56,0,.69.69,0,0,1-.26.06,1.24,1.24,0,0,0-.27.07.67.67,0,0,1-.17.06l-.19.08a.54.54,0,0,1-.19.07.32.32,0,0,0-.13.06l-.13.08a.42.42,0,0,0-.15.08,4.81,4.81,0,0,1-.46.33,5.08,5.08,0,0,0-.66.7,1.15,1.15,0,0,1-.14.2.3.3,0,0,0-.06.11A.3.3,0,0,1,47,37a.41.41,0,0,0-.07.15.48.48,0,0,1-.08.16.3.3,0,0,0-.06.13.47.47,0,0,1-.05.16,1,1,0,0,0-.08.23.56.56,0,0,1-.06.17,1.19,1.19,0,0,0-.06.32,1.83,1.83,0,0,1-.07.39,3,3,0,0,0,0,1.26,2,2,0,0,1,.07.41,1.19,1.19,0,0,0,.06.31.43.43,0,0,1,.06.19.71.71,0,0,0,.06.19.54.54,0,0,1,.08.17.27.27,0,0,0,.07.16,1.34,1.34,0,0,1,.06.12.51.51,0,0,0,.07.15.22.22,0,0,1,.06.1,2.57,2.57,0,0,0,.34.51,4.52,4.52,0,0,0,.54.54.12.12,0,0,1,.06,0l.12.09.21.13a2.46,2.46,0,0,0,.54.29.06.06,0,0,1,.06,0s.07,0,.14,0a1,1,0,0,1,.24.08,1,1,0,0,0,.29.08l.31.06a5.17,5.17,0,0,0,1.57,0,1.55,1.55,0,0,1,.31-.07.75.75,0,0,0,.25-.07.71.71,0,0,1,.22-.07.6.6,0,0,0,.18-.06.5.5,0,0,1,.15-.08c.06,0,.11,0,.11-.06s.05,0,.1-.05a2.61,2.61,0,0,0,.79-.66c.36-.35.44-.41.48-.34a.23.23,0,0,0,.09.06.91.91,0,0,1,.19.13.77.77,0,0,0,.18.12c.18.08.27.26.17.36a.19.19,0,0,0,0,.08,5.06,5.06,0,0,1-.71.76,6,6,0,0,1-.54.36.34.34,0,0,0-.11.07.2.2,0,0,1-.12.06.22.22,0,0,0-.13.06.36.36,0,0,1-.13.06.51.51,0,0,0-.17,0,.6.6,0,0,1-.21.08.94.94,0,0,0-.22.07.58.58,0,0,1-.26.06,1.22,1.22,0,0,0-.3.06,6.72,6.72,0,0,1-2.24,0,.52.52,0,0,0-.23,0,.81.81,0,0,1-.27,0,.73.73,0,0,0-.26-.09.81.81,0,0,1-.2-.08.33.33,0,0,0-.13,0,.2.2,0,0,1-.11-.06.33.33,0,0,0-.13-.07.32.32,0,0,1-.13-.06.35.35,0,0,0-.15-.09.22.22,0,0,1-.11-.07s0,0-.07-.05-.15-.08-.4-.27a.86.86,0,0,0-.17-.13,4.28,4.28,0,0,1-.67-.69.26.26,0,0,0-.09-.12.12.12,0,0,1-.07-.09s0,0,0,0-.07-.07-.12-.15-.13-.21-.17-.26a.43.43,0,0,1-.07-.17.1.1,0,0,0-.06-.09.2.2,0,0,1-.07-.12.42.42,0,0,0-.08-.18.39.39,0,0,1-.06-.14.51.51,0,0,0,0-.17.65.65,0,0,1-.08-.22.76.76,0,0,0-.06-.18,1.79,1.79,0,0,1-.07-.32,2.53,2.53,0,0,0-.07-.39,7,7,0,0,1,0-1.83,2.79,2.79,0,0,0,.07-.4,1.22,1.22,0,0,1,.05-.22.57.57,0,0,0,.06-.17,1.42,1.42,0,0,1,.09-.27.54.54,0,0,0,0-.16.27.27,0,0,1,.06-.12.49.49,0,0,0,.08-.18c0-.07,0-.13.07-.14a.13.13,0,0,0,.06-.1.14.14,0,0,1,0-.11l.09-.13c.13-.25.19-.34.21-.34s0,0,0-.07,0-.08,0-.08.05,0,.07-.08a5.27,5.27,0,0,1,.75-.75l.22-.17a.19.19,0,0,1,.1,0,0,0,0,0,0,0,0,2.52,2.52,0,0,1,.62-.36.24.24,0,0,0,.12-.05.38.38,0,0,1,.17-.08.51.51,0,0,0,.17-.07.65.65,0,0,1,.21-.07,1,1,0,0,0,.22-.06.51.51,0,0,1,.22-.06,1,1,0,0,0,.25-.07,3,3,0,0,1,.62-.07,10.58,10.58,0,0,1,1.16,0m-16.87,0a3.67,3.67,0,0,1,0,.48c0,.5,0,.55-.21.51A.8.8,0,0,0,34,35a3.79,3.79,0,0,1-.5.06,2.3,2.3,0,0,0-.41.07.52.52,0,0,1-.2.06,1.15,1.15,0,0,0-.26.09l-.19.09-.19.1-.23.13s-.08.05-.08.07,0,0,0,0a2.19,2.19,0,0,0-.51.48l-.17.2a.74.74,0,0,0-.1.16s0,.1-.07.1,0,0-.05.09a.51.51,0,0,1-.07.15.2.2,0,0,0-.06.11.39.39,0,0,1-.06.14.5.5,0,0,0-.06.17.71.71,0,0,1-.07.21.68.68,0,0,0-.07.32,1,1,0,0,1-.06.31c-.06.12-.06.2-.06,3.25,0,3.39,0,3.29-.16,3.33a2.69,2.69,0,0,1-.95-.06c-.06-.09-.06-10.54,0-10.63s.06-.07.49-.07c.63,0,.56-.11.58,1s0,1,.08.89a2.11,2.11,0,0,1,.28-.44,2.65,2.65,0,0,1,.46-.46.08.08,0,0,0,.05-.06s0,0,0,0l.07-.05a1.85,1.85,0,0,1,.37-.25l.06,0a1.35,1.35,0,0,1,.47-.22s.06,0,.06,0,.14-.09.22-.09a.58.58,0,0,0,.17-.06A.92.92,0,0,1,33,34l.3-.07a2.89,2.89,0,0,1,1.1,0m5.79.07c.05.07.05.19.05,5.29v5.21l-.07.08a2.47,2.47,0,0,1-1,0c-.09-.06-.09-.2-.09-5.35s0-5.28.09-5.34a2.38,2.38,0,0,1,1,.06" transform="translate(0 0)"/><path id="path1-2" data-name="path1" class="cls-7" d="M59.61,29.62s0,14.85,0,14.89a2.66,2.66,0,0,0,.76,0l.09,0V42.93a11.19,11.19,0,0,1,.05-1.59l.19-.16.4-.37.29-.26.2-.17.35-.32c.21-.2.5-.47.74-.67l.24-.22c.22-.21.28-.25.34-.25s.22.15.31.29a.42.42,0,0,0,.1.12.12.12,0,0,1,.05.08s0,0,0,0a1,1,0,0,1,.15.17,1.93,1.93,0,0,0,.18.22.16.16,0,0,1,.05.09s0,0,.06.08a.09.09,0,0,1,.06.08s0,0,0,0a1,1,0,0,1,.15.17l.17.22a.75.75,0,0,1,.11.13l.12.14a.3.3,0,0,1,.07.09l.15.19a.71.71,0,0,1,.14.2s0,0,0,0a.52.52,0,0,1,.12.13l.18.22a.33.33,0,0,1,.08.13s0,.05.06.07a.09.09,0,0,1,.06.08s0,0,0,0a5.78,5.78,0,0,1,.44.53l.11.13a.17.17,0,0,1,.07.09.15.15,0,0,0,0,.08.92.92,0,0,1,.13.14l.15.2a.4.4,0,0,1,.08.12s0,0,0,0a1.64,1.64,0,0,1,.21.24c.2.26.24.31.34.42a.17.17,0,0,1,.07.09.81.81,0,0,0,.15.19.71.71,0,0,1,.14.2c0,.06.21.09.64.09s.56,0,.37-.23l-.11-.13L68.51,44l-.13-.16L68,43.43c-.15-.19-.31-.39-.34-.44l-.12-.15-.11-.13-.21-.27L67,42.17a.4.4,0,0,0-.1-.12l-.15-.19-.2-.26L66.1,41,66,40.85l-.42-.54-.11-.13s-.14-.16-.23-.29-.2-.27-.26-.33-.13-.15-.17-.21a1.41,1.41,0,0,0-.14-.18l-.07-.09a.6.6,0,0,0-.12-.16,1.87,1.87,0,0,1-.29-.37.1.1,0,0,0-.05-.07c-.14-.1-.11-.24.08-.44l.2-.18s0,0,0,0,0-.06.05-.06l.3-.28c.31-.3.85-.8,1-1s.38-.34.64-.6a2,2,0,0,1,.31-.27.07.07,0,0,0,0-.06s0-.05,0-.05a.82.82,0,0,0,.17-.14c.46-.44,1-.94,1-1a1.17,1.17,0,0,0,.27-.28,2.16,2.16,0,0,0-.53,0h-.52l-.1.08c-.1.08-.25.22-.48.44l-.14.13-.22.2-.38.34-.24.21-.07.07-.27.24L65,36.2l-.32.29-.32.28-.28.26a.57.57,0,0,1-.16.13s0,0-.05.06,0,.06,0,.06a.57.57,0,0,0-.16.13l-.14.13-.15.13-.68.62-.63.57c-.29.28-1,.91-1.13,1l-.12.11a.21.21,0,0,1-.08.07s-.05,0-.09.06-.13,0-.15,0,0-2.41,0-5.28V29.6h-.42a3,3,0,0,0-.45,0m-20.21.24a1.38,1.38,0,0,0-.41.36A1.13,1.13,0,0,0,39,31a.68.68,0,0,0,.93.28.72.72,0,0,0,.29-1.22.86.86,0,0,0-.83-.21m-26.89.64a1.23,1.23,0,0,0,0,.73l3.41,0a32.39,32.39,0,0,1,3.49,0,1.67,1.67,0,0,0,.35.07.82.82,0,0,1,.26.06l.23.07c.1,0,.18,0,.19.08s.06,0,.13.05l.13.05.14.09a1.45,1.45,0,0,1,.46.29,2.67,2.67,0,0,1,.38.37,2.24,2.24,0,0,1,.37.66.74.74,0,0,0,.07.21,6.12,6.12,0,0,1,0,1.6.68.68,0,0,0-.07.2.38.38,0,0,1-.07.17.51.51,0,0,0-.07.15.34.34,0,0,1-.06.12l-.09.13a2.93,2.93,0,0,1-1,.8l-.14.06a1.7,1.7,0,0,1-.52.21.41.41,0,0,0-.19.06,1.23,1.23,0,0,1-.46.07A3.7,3.7,0,0,0,19,37c-.18,0-.62,0-3.31,0l-3.12,0,0,.07c-.06.17,0,.64.07.68s.78,0,3.4,0c3.42,0,4.25,0,4.48.14a.57.57,0,0,0,.21,0,1,1,0,0,1,.26.07.84.84,0,0,0,.24.07.51.51,0,0,1,.21.08.59.59,0,0,0,.16.07.32.32,0,0,1,.13.06.06.06,0,0,0,.06,0,2.64,2.64,0,0,1,.88.81.26.26,0,0,0,.07.12.33.33,0,0,1,.07.13.62.62,0,0,0,.06.14,3.82,3.82,0,0,1,.14,1.95c0,.07-.05.17-.06.22a3.26,3.26,0,0,1-.26.54,2.16,2.16,0,0,1-.39.48.79.79,0,0,0-.13.12L22,43l-.2.14a.88.88,0,0,1-.19.1l-.16.08-.18.07-.2.07a.41.41,0,0,1-.19.06.37.37,0,0,0-.16.05,1.39,1.39,0,0,1-.34.07l-.44.07c-.14,0-1.25,0-3.79,0h-3.6l0,.07a1.77,1.77,0,0,0,0,.69c.09.08,7.63,0,7.79-.06l.31-.06a2.18,2.18,0,0,0,.38-.07,1.12,1.12,0,0,1,.29-.07.69.69,0,0,0,.22-.07.76.76,0,0,1,.21-.08.38.38,0,0,0,.15-.06A.24.24,0,0,1,22,44l.15-.06a1.81,1.81,0,0,1,.3-.18,3.72,3.72,0,0,0,1.15-1.21,1,1,0,0,1,.11-.22,2.71,2.71,0,0,0,.2-.7,1.09,1.09,0,0,1,.06-.28,3.15,3.15,0,0,0,0-1,3.22,3.22,0,0,1-.07-.36,1,1,0,0,0-.07-.32,1.44,1.44,0,0,1-.06-.17,3.69,3.69,0,0,0-.35-.69.27.27,0,0,1-.06-.09,3.44,3.44,0,0,0-.6-.66.31.31,0,0,1-.12-.07.55.55,0,0,0-.13-.08l-.06,0a1.81,1.81,0,0,0-.44-.22l-.09-.06a.31.31,0,0,0-.16-.06.32.32,0,0,1-.18-.06.76.76,0,0,0-.24-.07.74.74,0,0,1-.3-.09.29.29,0,0,1,.21-.22A.74.74,0,0,0,21.4,37a.2.2,0,0,1,.11-.06.18.18,0,0,0,.11-.05.32.32,0,0,1,.12-.08.5.5,0,0,0,.14-.08,1.28,1.28,0,0,1,.2-.18l.23-.22.16-.17a.21.21,0,0,0,.07-.09.1.1,0,0,1,.05-.07.38.38,0,0,0,.09-.14s.05-.09.06-.09,0,0,.06-.08a.77.77,0,0,1,.07-.16,2.42,2.42,0,0,0,.2-.51.8.8,0,0,1,.05-.2,5.47,5.47,0,0,0,0-1.56.68.68,0,0,1-.06-.2,1.42,1.42,0,0,0-.09-.3,1,1,0,0,1-.07-.21s0-.05,0-.05a.35.35,0,0,1-.08-.13.27.27,0,0,0-.07-.13s0,0,0-.06a.46.46,0,0,0-.1-.14l-.17-.2a3,3,0,0,0-.83-.69c-.05,0-.09-.05-.09-.06s-.05,0-.1-.06a.45.45,0,0,1-.14-.07.23.23,0,0,0-.14-.06.56.56,0,0,1-.17-.06l-.19-.07-.27-.09a.77.77,0,0,0-.24-.06l-.22,0c-.41-.15-.86-.17-4.28-.17H12.55l0,.08M33.71,34l-.2.05a1.3,1.3,0,0,1-.3,0,1.23,1.23,0,0,0-.31.08.58.58,0,0,1-.21.07.3.3,0,0,0-.18.06.45.45,0,0,1-.18.07.57.57,0,0,0-.17.07,2.15,2.15,0,0,1-.31.18.33.33,0,0,0-.13.09l-.07,0a3.7,3.7,0,0,0-.75.69l-.13.18a1.27,1.27,0,0,0-.22.34.19.19,0,0,1-.09.12l-.09.07c-.08.11-.1,0-.11-1v-1h-.4a1.29,1.29,0,0,0-.43,0c-.08.07-.06,10.37,0,10.41a3.61,3.61,0,0,0,.81,0l.07,0V41.75a24.57,24.57,0,0,1,.1-3.84,1.05,1.05,0,0,0,.06-.29,1.1,1.1,0,0,1,.08-.27,1.18,1.18,0,0,0,.07-.2.37.37,0,0,1,.08-.19.24.24,0,0,0,.05-.12,1.43,1.43,0,0,1,.13-.26c.08-.12.14-.23.14-.23l.06-.08a1,1,0,0,0,.13-.16,3.6,3.6,0,0,1,.49-.48,1.71,1.71,0,0,0,.23-.19l.15-.09.28-.15a1.15,1.15,0,0,1,.26-.1.58.58,0,0,0,.17-.06,1.37,1.37,0,0,1,.38-.08,1.43,1.43,0,0,0,.32-.07,2.17,2.17,0,0,1,.44,0l.37,0V34h-.24l-.38,0m16.36,0a1.43,1.43,0,0,0-.28.05,1,1,0,0,1-.28.06,1.17,1.17,0,0,0-.33.07.81.81,0,0,1-.27.07.47.47,0,0,0-.2.06.27.27,0,0,1-.12.06,2.25,2.25,0,0,0-.44.19L48,34.6l-.13.06-.12.07-.15.1-.12.06a.2.2,0,0,0-.09.06.15.15,0,0,1-.07.06,3,3,0,0,0-.54.49,2.3,2.3,0,0,0-.59.74s-.07.11-.09.11a.07.07,0,0,0,0,.07.3.3,0,0,1-.06.13.55.55,0,0,0-.1.17,1.37,1.37,0,0,1-.08.14,1,1,0,0,0,0,.13.34.34,0,0,1-.06.12.38.38,0,0,0-.07.18,1.5,1.5,0,0,1-.07.2.59.59,0,0,0-.06.24,1.31,1.31,0,0,1-.07.27,7.51,7.51,0,0,0,0,2.59,1.2,1.2,0,0,1,.07.26.55.55,0,0,0,.06.24,1.5,1.5,0,0,1,.07.2.51.51,0,0,0,.08.21.32.32,0,0,1,.06.15.15.15,0,0,0,0,.08.36.36,0,0,1,.08.13,1.14,1.14,0,0,0,.1.19.33.33,0,0,1,.06.12.07.07,0,0,0,0,.07l.06.06a.46.46,0,0,0,.09.14.3.3,0,0,1,.07.14s0,.05.06.06.06,0,.06.06,0,0,.4.44a4.52,4.52,0,0,0,.4.37l.21.15.15.11.16.1L48,44l.1.06a.24.24,0,0,0,.11.06.29.29,0,0,1,.14.07s.07,0,.14.06a.76.76,0,0,1,.21.08,1,1,0,0,0,.23.07.94.94,0,0,1,.23.06.91.91,0,0,0,.25.06,3.51,3.51,0,0,1,.44.08,5.48,5.48,0,0,0,1.57,0,1.18,1.18,0,0,1,.31-.05.71.71,0,0,0,.26,0l.3-.08a1.37,1.37,0,0,0,.26-.08.68.68,0,0,1,.2-.07.23.23,0,0,0,.14-.06.34.34,0,0,1,.17-.07.24.24,0,0,0,.12-.06s0,0,.08-.06a1.53,1.53,0,0,0,.33-.23.11.11,0,0,1,.07,0,.17.17,0,0,0,.07-.06l.2-.16a4.87,4.87,0,0,0,.61-.69c0-.08,0-.13-.25-.3l-.17-.12c-.12-.11-.18-.1-.34.08a3.45,3.45,0,0,1-.71.65s-.09.05-.09.07,0,0-.06,0a.71.71,0,0,0-.17.09.38.38,0,0,1-.15.07.3.3,0,0,0-.11.06.27.27,0,0,1-.14.06.71.71,0,0,0-.21.08.67.67,0,0,1-.22.07.53.53,0,0,0-.17,0,5.13,5.13,0,0,1-1.29.12,3.68,3.68,0,0,1-1.33-.24l-.23-.07a.22.22,0,0,1-.12-.06.51.51,0,0,0-.17-.07.36.36,0,0,1-.15-.08.15.15,0,0,0-.08,0A1.55,1.55,0,0,1,48,43l-.19-.16a3,3,0,0,1-.5-.47.43.43,0,0,0-.09-.12,3.42,3.42,0,0,1-.43-.64l0-.09a.67.67,0,0,1-.06-.12l-.08-.17a.92.92,0,0,1-.08-.25.33.33,0,0,0,0-.14s-.09-.17-.09-.32a.87.87,0,0,0-.07-.3,6.51,6.51,0,0,1,0-1.87.87.87,0,0,0,.07-.3c0-.14,0-.32.09-.32a.33.33,0,0,0,0-.14.76.76,0,0,1,.07-.24.29.29,0,0,0,.06-.15.27.27,0,0,1,.06-.12.91.91,0,0,0,.09-.17s.05-.09.06-.09,0,0,0-.08a.29.29,0,0,1,.07-.12s.06-.06.06-.08a.28.28,0,0,1,.08-.13l.21-.24a2.75,2.75,0,0,1,.21-.23l.15-.15a.22.22,0,0,1,.1-.06.07.07,0,0,0,.06,0,.19.19,0,0,1,.08-.07,2.18,2.18,0,0,0,.31-.22l.12-.06a.45.45,0,0,0,.12-.06,1.48,1.48,0,0,1,.46-.21.49.49,0,0,0,.16-.06,1,1,0,0,1,.22-.07.86.86,0,0,0,.27-.08,7.56,7.56,0,0,1,2,0,.89.89,0,0,0,.29.08.6.6,0,0,1,.22.06.54.54,0,0,0,.18.06.68.68,0,0,1,.16.06.3.3,0,0,0,.14.07.43.43,0,0,1,.14.08.12.12,0,0,0,.08.05,1.57,1.57,0,0,1,.36.22l.26.22a3,3,0,0,1,.3.28c.19.26.28.29.43.15l.24-.2c.17-.14.18-.15.15-.22a4.13,4.13,0,0,0-.91-.91.08.08,0,0,1,0-.05l-.13-.09a1.51,1.51,0,0,1-.37-.21.16.16,0,0,0-.09-.05l-.13,0a.64.64,0,0,0-.19-.08s-.1,0-.1-.06a.33.33,0,0,0-.19-.06.92.92,0,0,1-.24-.06.9.9,0,0,0-.32-.07,1.3,1.3,0,0,1-.34-.08,5.84,5.84,0,0,0-1.4,0m-10.82.11s0,1.08,0,5.22v5.2h.87V39.32c0-3.8,0-5.18,0-5.21a2.69,2.69,0,0,0-.81,0" transform="translate(0 0)"/><path id="path2-2" data-name="path2" class="cls-8" d="M5.27,37.57c0,8,0,12,0,12s0-4,0-12,0-12,0-12,0,4,0,12m54.21-8s0,1.74,0,7.52v7.5l.08.06a1.81,1.81,0,0,0,1,0c.05-.06.06-.1.06-1.59V41.51l.27-.26.47-.45a1.8,1.8,0,0,1,.22-.2s0,0,.09-.07.46-.43.51-.46l.76-.7c.25-.24.34-.3.4-.28a1.14,1.14,0,0,1,.25.23A6.29,6.29,0,0,0,64,40s0,0,0,.06a.09.09,0,0,0,.07.06,0,0,0,0,1,0,0,2.94,2.94,0,0,0,.37.49.18.18,0,0,1,0,.07l.06.08.14.17.25.32.29.38a.92.92,0,0,0,.14.16s0,0,0,0a.34.34,0,0,0,.07.11,3,3,0,0,1,.2.25l.19.23.19.24a4.48,4.48,0,0,0,.51.62s0,0,0,0a.41.41,0,0,0,.08.13,1.1,1.1,0,0,1,.14.18l.12.14.46.57c.29.37.26.36.91.36s.77-.07.47-.38a.7.7,0,0,1-.12-.14,1.78,1.78,0,0,0-.22-.29l-.1-.13-.13-.17L68,43.24a.92.92,0,0,0-.14-.19l-.25-.31c-.11-.15-.61-.77-.67-.84a.14.14,0,0,1-.06-.09.3.3,0,0,0-.07-.09.69.69,0,0,1-.11-.13l-.49-.6a1.46,1.46,0,0,1-.15-.2s0-.07-.06-.07,0,0-.05,0a.92.92,0,0,0-.13-.18l-.12-.15a.1.1,0,0,0,0-.07.5.5,0,0,1-.11-.13.23.23,0,0,0-.08-.1s0,0,0,0a.47.47,0,0,0-.13-.18,1.17,1.17,0,0,1-.12-.15s0,0,0-.07a1.07,1.07,0,0,1-.16-.18l-.15-.19-.46-.59-.19-.24c-.08-.08,0-.14.1-.28l.35-.33.42-.39c.12-.1.29-.26.38-.35l1-.94.44-.41.54-.5.36-.34.43-.41c.35-.33.4-.43.24-.49a4.29,4.29,0,0,0-1.15,0,.05.05,0,0,1,0,0,.56.56,0,0,0-.19.13,3.87,3.87,0,0,1-.43.4l-.08.07-.23.21c-.31.27-.71.65-.81.74l-.21.19L65,36l-.46.42-.34.31a.32.32,0,0,1-.12.09s0,0,0,0,0,0-.06.06a.14.14,0,0,0-.08.07s0,.06,0,.06a1.08,1.08,0,0,0-.22.19l-.4.36-.33.29-.38.35-.4.37a2.61,2.61,0,0,1-.25.23l-.75.68c-.34.32-.43.4-.52.43l-.06,0V34.78c0-4,0-5.21,0-5.23s-.18,0-.52,0a1.45,1.45,0,0,0-.53,0m1,0s0,.65.06,5.27c0,2.89,0,5.25,0,5.25s.19-.11.46-.36l.41-.37.57-.51s.15-.14.3-.28l.4-.37c.07-.06.17-.16.24-.21.4-.36.71-.64,1.1-1l.7-.63.84-.78.43-.38.61-.56c.67-.63.64-.62,1.27-.62s.67,0,.43.26-.73.69-1.12,1l-.66.62-.83.78c-.16.15-.33.3-.36.34l-.24.22a6.23,6.23,0,0,0-1,1,1.53,1.53,0,0,0,.25.39c.15.18.29.37.33.42l.12.15.34.42c.16.21.41.53.56.71s.29.36.32.41a2.09,2.09,0,0,0,.14.17l.13.16.36.46c.67.84.79,1,.84,1.07l.12.14a1,1,0,0,1,.15.18c.13.17.33.43.41.52s.15.18.23.3l.35.44c.32.39.3.4-.39.4h-.5l-.13-.13c-.06-.07-.18-.2-.25-.3L67.31,44l-.16-.2-.33-.41-.39-.5c-.11-.15-.36-.46-.54-.68s-.37-.45-.4-.5l-.33-.41-.27-.36-.13-.16-.18-.21a.85.85,0,0,0-.11-.14l-.17-.22a2,2,0,0,0-.15-.19,3,3,0,0,1-.26-.32l-.4-.5a.3.3,0,0,1-.07-.09s0-.05-.09-.08-.1-.05-.31.15l-.47.43-.84.76s-.18.16-.29.27l-.71.65-.17.16V43c0,1.57,0,1.63-.13,1.66a2,2,0,0,1-.83,0l-.07-.07V29.6l.06,0a4,4,0,0,1,.91,0m-21,.16a1,1,0,0,1-.19.06,1,1,0,0,0-.5,1,.93.93,0,0,0,.07.15.92.92,0,0,0,.43.44,1.15,1.15,0,0,0,.78-.07l.08,0a1,1,0,0,0,.31-.32,1.28,1.28,0,0,0,0-.8.34.34,0,0,1-.1-.13.64.64,0,0,0-.38-.28.49.49,0,0,1-.19-.05c-.12-.05-.14-.05-.3,0m.57.14a.7.7,0,0,1,.18.14l.15.18a.83.83,0,1,1-.33-.32m-27.6.48-.1,0v.86l.1,0a28,28,0,0,0,3.22.05c1.83,0,3.15,0,3.22,0l.49.07a2.72,2.72,0,0,1,.5.08l.26.08a.52.52,0,0,1,.21.07.48.48,0,0,0,.18.07c.06,0,.11,0,.11.05a.24.24,0,0,0,.11.06.17.17,0,0,1,.1.05s0,0,.1.07a2,2,0,0,1,.78.72s0,0,.06.08a.27.27,0,0,1,.07.13A.55.55,0,0,0,22,33a.27.27,0,0,1,.06.19.37.37,0,0,0,.06.21,3.71,3.71,0,0,1,0,1.33A.45.45,0,0,0,22,35a.35.35,0,0,1-.05.18l-.09.17a.31.31,0,0,1-.09.14.18.18,0,0,0,0,.09.11.11,0,0,1-.06.08s-.06,0-.06.06a2.9,2.9,0,0,1-.63.58.25.25,0,0,0-.11,0,.75.75,0,0,1-.2.11l-.26.1-.19.08-.18.05a1,1,0,0,0-.23.07,30.8,30.8,0,0,1-4.43.12c-3.4,0-3-.06-3,.53,0,.32,0,.38.06.45l.05.07,3.7,0c3.69,0,3.71,0,3.94.08a2.29,2.29,0,0,0,.4.06.37.37,0,0,1,.24.06.52.52,0,0,0,.21.07,1.41,1.41,0,0,1,.49.18l.18.09.11.07a0,0,0,0,0,0,0,2.05,2.05,0,0,1,.77.75.12.12,0,0,0,.05.08.24.24,0,0,1,.08.14.62.62,0,0,0,.07.19.76.76,0,0,1,.07.24,2.3,2.3,0,0,0,.06.28,2.81,2.81,0,0,1,0,1,1.09,1.09,0,0,0-.07.32.66.66,0,0,1-.08.26.49.49,0,0,0-.06.16.34.34,0,0,1-.08.16.12.12,0,0,0-.05.09.29.29,0,0,1-.08.11.45.45,0,0,0-.07.1,2,2,0,0,1-.36.36s0,0,0,0a0,0,0,0,1-.05,0,.83.83,0,0,0-.23.14,1.26,1.26,0,0,1-.23.13l-.16.06-.23.09a.62.62,0,0,0-.16.07,1,1,0,0,1-.2.06l-.29.06a26.1,26.1,0,0,1-4.39.12c-3.49,0-3.55,0-3.63.07l-.08.06v.4c0,.38,0,.4.07.47l.08.07H16a35.28,35.28,0,0,0,3.53,0,4.39,4.39,0,0,1,.59-.06,2.3,2.3,0,0,0,.61-.07,1.26,1.26,0,0,1,.26-.06.81.81,0,0,0,.26-.07l.25-.07a.47.47,0,0,0,.19-.06.34.34,0,0,1,.16-.06.26.26,0,0,0,.14-.07A.53.53,0,0,1,22.1,44a.53.53,0,0,0,.15-.07l.12-.07.12-.06a1.45,1.45,0,0,1,.28-.21,5.1,5.1,0,0,0,.65-.66l.12-.19a1.6,1.6,0,0,0,.11-.19,1.18,1.18,0,0,1,.11-.18.28.28,0,0,0,0-.12.18.18,0,0,1,.05-.12.81.81,0,0,0,.09-.3A1.29,1.29,0,0,1,24,41.5a2.53,2.53,0,0,0,0-.66,2.63,2.63,0,0,0,0-.67,1.29,1.29,0,0,1-.08-.37.88.88,0,0,0-.09-.3.41.41,0,0,1-.06-.16.23.23,0,0,0-.06-.14.16.16,0,0,1-.06-.09,1.32,1.32,0,0,0-.15-.28,1.34,1.34,0,0,1-.13-.22.14.14,0,0,0-.06-.08s-.06-.05-.06-.07a3.45,3.45,0,0,0-.6-.55l-.18-.13a.08.08,0,0,0-.07,0,.27.27,0,0,1-.12-.06.34.34,0,0,0-.14-.08.41.41,0,0,1-.15-.07.39.39,0,0,0-.16-.07.69.69,0,0,1-.21-.08.54.54,0,0,0-.19,0c-.16,0-.21-.16-.06-.2a.25.25,0,0,0,.1,0,.44.44,0,0,1,.15-.09l.13-.09a0,0,0,0,1,0,0,.16.16,0,0,0,.1-.06l.25-.21a3.19,3.19,0,0,0,.76-.91.8.8,0,0,0,.08-.16.56.56,0,0,1,.07-.16.52.52,0,0,0,.07-.2.52.52,0,0,1,.07-.2,8.8,8.8,0,0,0,0-1.92.62.62,0,0,1-.07-.19,2.15,2.15,0,0,0-.19-.49.52.52,0,0,1-.07-.11,3.62,3.62,0,0,0-.58-.74,3.73,3.73,0,0,0-.79-.56.57.57,0,0,1-.13-.08.37.37,0,0,0-.14-.06,4.36,4.36,0,0,1-.54-.22l-.17-.05-.16,0a3,3,0,0,0-.41-.08,1.36,1.36,0,0,1-.33-.06c-.11-.09-7-.13-7.17,0m7.09.08a.86.86,0,0,0,.24.05,5,5,0,0,1,1.2.33.6.6,0,0,0,.16.05.69.69,0,0,1,.21.1.21.21,0,0,0,.09.05,3.7,3.7,0,0,1,1.22,1.05,2.81,2.81,0,0,1,.43.85.77.77,0,0,0,.06.21,6,6,0,0,1,0,1.64c0,.08-.06.23-.09.33a1.86,1.86,0,0,1-.08.25.42.42,0,0,0-.06.14,3.67,3.67,0,0,1-.38.62,4.52,4.52,0,0,1-.79.75l-.26.14a1.8,1.8,0,0,1-.26.14c-.15,0-.19.2-.05.21a.73.73,0,0,1,.22.06l.32.1c.09,0,.17,0,.17.07a.05.05,0,0,0,0,0,3.33,3.33,0,0,1,1.41,1.13.15.15,0,0,0,0,.08.53.53,0,0,1,.09.11,2.07,2.07,0,0,1,.25.53.62.62,0,0,0,.06.14,1.09,1.09,0,0,1,.07.32,2,2,0,0,0,.08.37,2.7,2.7,0,0,1,0,1.06,2.71,2.71,0,0,0-.08.41,1.76,1.76,0,0,1-.25.69,3.19,3.19,0,0,1-1.12,1.28,1.3,1.3,0,0,1-.23.14l-.09.06L22,44a.3.3,0,0,0-.14.08.18.18,0,0,1-.1,0,.54.54,0,0,0-.18.06,6.36,6.36,0,0,1-1.4.32,39.14,39.14,0,0,1-4.4.11H12.54l-.06-.08a1.19,1.19,0,0,1,0-.79c.06-.06.17-.06,3.55-.07,4.29,0,4.22,0,5.09-.33A2.56,2.56,0,0,0,22.7,42l.09-.19a1.52,1.52,0,0,0,.06-.2l.06-.26a3.81,3.81,0,0,0,0-1.26l-.06-.26a1.58,1.58,0,0,0-.09-.25l-.09-.2a2.62,2.62,0,0,0-.62-.75,3.68,3.68,0,0,0-.61-.35l-.14-.07a.57.57,0,0,0-.22-.07.76.76,0,0,1-.21-.06,4.51,4.51,0,0,0-.92-.2c-.1,0-1.67,0-3.79-.05H12.54l-.06-.07a1.3,1.3,0,0,1,0-.78,13.78,13.78,0,0,1,2.9-.06c2.3,0,2.93,0,3.26,0l.83-.07a2.17,2.17,0,0,0,.44-.06.6.6,0,0,1,.18-.06,4.25,4.25,0,0,0,1.05-.46l.23-.2a1.85,1.85,0,0,0,.55-.7.22.22,0,0,1,.07-.11s0,0,0-.11a2.55,2.55,0,0,1,.08-.28,3.89,3.89,0,0,0,0-1.52.63.63,0,0,1-.06-.2A2.39,2.39,0,0,0,21.2,32a2.55,2.55,0,0,0-.34-.21l-.14-.09a.28.28,0,0,0-.12,0,1,1,0,0,1-.2-.08.68.68,0,0,0-.2-.07.37.37,0,0,1-.15-.05l-.34-.07-.47-.08a34.52,34.52,0,0,0-3.48-.06c-2.38,0-3.28,0-3.31,0a1.67,1.67,0,0,1,0-.83c.1-.07,6.85-.05,7.06,0m30.56,3.46a3,3,0,0,0-.62.07,1,1,0,0,1-.25.07.51.51,0,0,0-.22.06,1,1,0,0,1-.22.06.65.65,0,0,0-.21.07.51.51,0,0,1-.17.07.38.38,0,0,0-.17.08.24.24,0,0,1-.12.05,2.52,2.52,0,0,0-.62.36,0,0,0,0,1,0,0,.19.19,0,0,0-.1,0l-.22.17a5.27,5.27,0,0,0-.75.75s0,.08-.07.08,0,0,0,.08,0,.07,0,.07-.08.09-.21.34l-.09.13a.14.14,0,0,0,0,.11.13.13,0,0,1-.06.1s-.06.07-.07.14a.49.49,0,0,1-.08.18.27.27,0,0,0-.06.12.54.54,0,0,1,0,.16,1.42,1.42,0,0,0-.09.27.57.57,0,0,1-.06.17,1.22,1.22,0,0,0-.05.22,2.79,2.79,0,0,1-.07.4,7,7,0,0,0,0,1.83,2.53,2.53,0,0,1,.07.39,1.79,1.79,0,0,0,.07.32.76.76,0,0,1,.06.18.65.65,0,0,0,.08.22.51.51,0,0,1,0,.17.39.39,0,0,0,.06.14.42.42,0,0,1,.08.18.2.2,0,0,0,.07.12.1.1,0,0,1,.06.09.43.43,0,0,0,.07.17c0,.05.11.17.17.26s.1.15.12.15,0,0,0,0a.12.12,0,0,0,.07.09.26.26,0,0,1,.09.12,4.28,4.28,0,0,0,.67.69.86.86,0,0,1,.17.13c.25.19.34.26.4.27s.07,0,.07.05a.22.22,0,0,0,.11.07.35.35,0,0,1,.15.09.32.32,0,0,0,.13.06.33.33,0,0,1,.13.07.2.2,0,0,0,.11.06.33.33,0,0,1,.13,0,.81.81,0,0,0,.2.08.73.73,0,0,1,.26.09.81.81,0,0,0,.27,0,.52.52,0,0,1,.23,0,6.72,6.72,0,0,0,2.24,0,1.22,1.22,0,0,1,.3-.06.58.58,0,0,0,.26-.06.94.94,0,0,1,.22-.07.6.6,0,0,0,.21-.08.51.51,0,0,1,.17,0,.36.36,0,0,0,.13-.06.22.22,0,0,1,.13-.06.2.2,0,0,0,.12-.06.34.34,0,0,1,.11-.07,6,6,0,0,0,.54-.36,5.06,5.06,0,0,0,.71-.76.19.19,0,0,1,0-.08c.1-.1,0-.28-.17-.36a.77.77,0,0,1-.18-.12.91.91,0,0,0-.19-.13.23.23,0,0,1-.09-.06c0-.07-.12,0-.48.34a2.61,2.61,0,0,1-.79.66s-.1,0-.1.05,0,0-.11.06a.5.5,0,0,0-.15.08.6.6,0,0,1-.18.06.71.71,0,0,0-.22.07.75.75,0,0,1-.25.07,1.55,1.55,0,0,0-.31.07,5.17,5.17,0,0,1-1.57,0l-.31-.06a1,1,0,0,1-.29-.08,1,1,0,0,0-.24-.08c-.07,0-.13,0-.14,0a.06.06,0,0,0-.06,0,2.46,2.46,0,0,1-.54-.29l-.21-.13L48,42.83a.12.12,0,0,0-.06,0,4.52,4.52,0,0,1-.54-.54,2.57,2.57,0,0,1-.34-.51.22.22,0,0,0-.06-.1.51.51,0,0,1-.07-.15,1.34,1.34,0,0,0-.06-.12.27.27,0,0,1-.07-.16.54.54,0,0,0-.08-.17.71.71,0,0,1-.06-.19.43.43,0,0,0-.06-.19,1.19,1.19,0,0,1-.06-.31,2,2,0,0,0-.07-.41,3,3,0,0,1,0-1.26,1.83,1.83,0,0,0,.07-.39,1.19,1.19,0,0,1,.06-.32.56.56,0,0,0,.06-.17,1,1,0,0,1,.08-.23.47.47,0,0,0,.05-.16.3.3,0,0,1,.06-.13.48.48,0,0,0,.08-.16A.41.41,0,0,1,47,37a.3.3,0,0,0,.06-.11.3.3,0,0,1,.06-.11,1.15,1.15,0,0,0,.14-.2,5.08,5.08,0,0,1,.66-.7,4.81,4.81,0,0,0,.46-.33.42.42,0,0,1,.15-.08l.13-.08a.32.32,0,0,1,.13-.06.54.54,0,0,0,.19-.07l.19-.08a.67.67,0,0,0,.17-.06,1.24,1.24,0,0,1,.27-.07.69.69,0,0,0,.26-.06,6.78,6.78,0,0,1,1.56,0l.28.07a2.73,2.73,0,0,1,.61.2l.2.07a.32.32,0,0,1,.13.06.22.22,0,0,0,.13.07c.06,0,.1,0,.1.06s0,0,.09.06a3.2,3.2,0,0,1,.67.58,2.8,2.8,0,0,0,.36.33,1.26,1.26,0,0,0,.28-.18.12.12,0,0,1,.08-.05,1.57,1.57,0,0,0,.4-.37,2.5,2.5,0,0,0-.45-.57,3.28,3.28,0,0,0-.43-.39l-.17-.13-.37-.24-.18-.09a.36.36,0,0,1-.14-.09s-.07,0-.14-.05l-.12,0s-.14-.09-.21-.09a.48.48,0,0,1-.15,0,.89.89,0,0,0-.26-.08L51.77,34a5.46,5.46,0,0,0-1-.09l-.65,0M33.3,34,33,34a.92.92,0,0,0-.25.08.58.58,0,0,1-.17.06c-.08,0-.22.06-.22.09s0,0-.06,0a1.35,1.35,0,0,0-.47.22l-.06,0a1.85,1.85,0,0,0-.37.25l-.07.05s0,0,0,0a.08.08,0,0,1-.05.06,2.65,2.65,0,0,0-.46.46,2.11,2.11,0,0,0-.28.44c-.07.12-.06.19-.08-.89s0-1-.58-1c-.43,0-.45,0-.49.07s-.07,10.54,0,10.63a2.69,2.69,0,0,0,.95.06c.16,0,.16.06.16-3.33,0-3.05,0-3.13.06-3.25a1,1,0,0,0,.06-.31.68.68,0,0,1,.07-.32.71.71,0,0,0,.07-.21.5.5,0,0,1,.06-.17.39.39,0,0,0,.06-.14.2.2,0,0,1,.06-.11.51.51,0,0,0,.07-.15s0-.09.05-.09,0-.05.07-.1a.74.74,0,0,1,.1-.16l.17-.2a2.19,2.19,0,0,1,.51-.48s0,0,0,0,0,0,.08-.07l.23-.13.19-.1.19-.09a1.15,1.15,0,0,1,.26-.09.52.52,0,0,0,.2-.06,2.3,2.3,0,0,1,.41-.07A3.79,3.79,0,0,0,34,35a.8.8,0,0,1,.26,0c.19,0,.21,0,.21-.51a3.67,3.67,0,0,0,0-.48,2.89,2.89,0,0,0-1.1,0m1.05,0a2.76,2.76,0,0,1,0,.79l0,.11-.3,0a2.5,2.5,0,0,0-.41,0l-.4.07a2.49,2.49,0,0,0-1,.33,1.59,1.59,0,0,0-.44.29l-.18.14a3.58,3.58,0,0,0-.76,1,3.91,3.91,0,0,0-.21.51.76.76,0,0,1-.06.16.66.66,0,0,0-.07.29,1.75,1.75,0,0,1-.09.35,26.52,26.52,0,0,0-.06,3.31c0,2.57,0,3.21-.05,3.24a2.64,2.64,0,0,1-.93,0c-.06,0-.08-10.44,0-10.53s.11,0,.44,0h.4l.07.08c.06.08.06.1.06,1,0,.49,0,.91,0,.94s.1.05.15-.08,0-.11.07-.11,0,0,0-.06a4,4,0,0,1,.73-.83,3.84,3.84,0,0,1,.89-.55l.18-.08a.64.64,0,0,1,.19-.07l.2-.06A4.67,4.67,0,0,1,33.6,34a2.52,2.52,0,0,1,.75,0m4.84,0c-.09.06-.09.19-.09,5.34s0,5.29.09,5.35a2.47,2.47,0,0,0,1,0l.07-.08V39.3c0-5.1,0-5.22-.05-5.29a2.38,2.38,0,0,0-1-.06m12.42,0,.31.07a.6.6,0,0,1,.25.06l.23.07a.57.57,0,0,1,.25.09.27.27,0,0,0,.12.06,2.09,2.09,0,0,1,.54.27l.19.11a.41.41,0,0,1,.11.06l.15.13a3.93,3.93,0,0,1,.84.87c.07.1,0,.2-.53.53-.12.08-.16.07-.3-.08a6.41,6.41,0,0,0-.59-.57l-.08-.06a.53.53,0,0,0-.12-.1l-.25-.14-.23-.11-.13-.06a.51.51,0,0,0-.15-.06.7.7,0,0,1-.17-.06,1.46,1.46,0,0,0-.27-.08,1.23,1.23,0,0,1-.29-.07,5.9,5.9,0,0,0-1.78,0,1.28,1.28,0,0,1-.28.07,1.2,1.2,0,0,0-.27.08.7.7,0,0,1-.17.06.37.37,0,0,0-.15.06l-.31.15a3.76,3.76,0,0,0-1.13.88,4,4,0,0,0-.8,1.42.7.7,0,0,1-.06.17,1.08,1.08,0,0,0-.08.3,2.18,2.18,0,0,1-.08.4,6.4,6.4,0,0,0,0,1.58,1.42,1.42,0,0,1,.07.34,1.42,1.42,0,0,0,.07.33.61.61,0,0,1,.08.21,4.14,4.14,0,0,0,2,2.33l.21.1a.66.66,0,0,0,.22.08.58.58,0,0,1,.17.06,5.44,5.44,0,0,0,2.38.15l.24-.06a1.11,1.11,0,0,0,.29-.09.54.54,0,0,1,.16-.06,1.42,1.42,0,0,0,.4-.18l.17-.08a.61.61,0,0,0,.16-.11s0,0,.06,0a4.44,4.44,0,0,0,.72-.68c.12-.19.18-.19.47,0s.49.37.4.41l-.15.18a4.26,4.26,0,0,1-1.16,1,.2.2,0,0,0-.09.06.3.3,0,0,1-.15.07.32.32,0,0,0-.13.06.32.32,0,0,1-.13.06l-.2.07a3.89,3.89,0,0,1-.76.21l-.41.09a12.2,12.2,0,0,1-1.71,0l-.39-.09a4.76,4.76,0,0,1-1-.32l-.12-.06-.11-.06L48,44a7.5,7.5,0,0,1-.72-.48l-.07-.06a5,5,0,0,1-.62-.61.69.69,0,0,0-.13-.15l-.15-.21-.13-.19a5.86,5.86,0,0,1-.31-.57,2.12,2.12,0,0,0-.11-.21.54.54,0,0,1-.06-.16.46.46,0,0,0-.06-.18,1.44,1.44,0,0,1-.08-.25c0-.07,0-.22-.07-.32a6.35,6.35,0,0,1,0-2.71,2.45,2.45,0,0,0,.06-.28.41.41,0,0,1,.05-.16,1.84,1.84,0,0,0,.09-.25.71.71,0,0,1,.08-.19.57.57,0,0,0,.07-.17c0-.07,0-.12.06-.12a.33.33,0,0,0,.07-.11c0-.06.06-.14.08-.17l.11-.17a3.44,3.44,0,0,1,.25-.39l.12-.15a5.72,5.72,0,0,1,1-.9.2.2,0,0,0,.11-.06,5.09,5.09,0,0,1,.89-.46.39.39,0,0,0,.14-.06.62.62,0,0,1,.25-.09l.26-.07a5.11,5.11,0,0,1,.77-.17,10.5,10.5,0,0,1,1.72,0m-11.49.07.06,0V44.48l-.08.06a1.72,1.72,0,0,1-.9,0c-.06,0-.07-10.36,0-10.47a1.86,1.86,0,0,1,.94,0" transform="translate(0 0)"/><path id="path3-2" data-name="path3" class="cls-9" d="M59.56,29.6c-.05,0-.05.41-.05,7.45v7.41l.06.07a1.73,1.73,0,0,0,.9,0s0-.73,0-1.59V41.42l.08-.06.67-.61.37-.34.48-.44.37-.33.33-.3.13-.12.15-.12c.15-.14.34-.13.35,0a1,1,0,0,0,.12.16c.13.15.15.17.41.5l.21.26.13.16a5.23,5.23,0,0,0,.32.42c.15.18.33.41.41.52l.25.31.46.57.11.15c.07.07.14.17.38.47l.21.27.11.13a.13.13,0,0,1,.05.07.22.22,0,0,0,.07.1,1.94,1.94,0,0,1,.23.27l.15.19a.33.33,0,0,1,.08.11.64.64,0,0,0,.11.13,1.09,1.09,0,0,1,.17.22c0,.06.12.15.18.22a.53.53,0,0,1,.1.14,2.2,2.2,0,0,0,1.13.09c.11,0,.09-.18-.06-.31a.58.58,0,0,1-.1-.12l-.46-.58a1.49,1.49,0,0,1-.15-.19l-.45-.56-.14-.18a3.89,3.89,0,0,0-.26-.32l-.29-.38-.27-.33-.14-.17L66.15,41l-.28-.34a4.19,4.19,0,0,0-.26-.33l-.11-.14L65,39.56l-.15-.19L64.59,39l-.31-.39a1.58,1.58,0,0,0-.12-.15c-.12-.14-.09-.22.19-.48l.36-.35.43-.4c.18-.16.38-.34.44-.41l.28-.26.62-.58.58-.55.31-.29.47-.44c.77-.7.77-.66,0-.66s-.62,0-.81.18-.4.38-.69.63l-.25.23-.29.26-.34.32L65.1,36l-.45.41-.25.22-.23.21-.88.81-.17.14s-.14.13-.29.27l-.32.29-.34.31-.48.45-.32.28-.22.2a2.1,2.1,0,0,1-.6.47s0-1.8,0-5.27l0-5.24h-.44a1.8,1.8,0,0,0-.49,0m.92,5.21c0,2.87,0,5.25,0,5.28s.09.11.15,0,.07-.06.09-.06a.21.21,0,0,0,.08-.07l.12-.11c.15-.12.84-.75,1.13-1l.63-.57.68-.62.15-.13.14-.13a.57.57,0,0,1,.16-.13s0,0,0-.06,0-.06.05-.06a.57.57,0,0,0,.16-.13l.28-.26.32-.28L65,36.2l.41-.39.27-.24.07-.07.24-.21.38-.34.22-.2.14-.13c.23-.22.38-.36.48-.44l.1-.08h.52a2.16,2.16,0,0,1,.53,0,1.17,1.17,0,0,1-.27.28s-.57.52-1,1a.82.82,0,0,1-.17.14s0,0,0,.05a.07.07,0,0,1,0,.06,2,2,0,0,0-.31.27c-.26.26-.41.4-.64.6s-.74.68-1,1l-.3.28s0,0-.05.06,0,0,0,0l-.2.18c-.19.2-.22.34-.08.44a.1.1,0,0,1,.05.07,1.87,1.87,0,0,0,.29.37.6.6,0,0,1,.12.16l.07.09a1.41,1.41,0,0,1,.14.18c0,.06.12.15.17.21s.17.21.26.33.2.25.23.29l.11.13.42.54.11.14.49.61.2.26.15.19a.4.4,0,0,1,.1.12l.22.27.21.27.11.13.12.15s.19.25.34.44l.34.43.13.16.13.16.11.13c.19.21.15.23-.37.23s-.64,0-.64-.09a.71.71,0,0,0-.14-.2.81.81,0,0,1-.15-.19.17.17,0,0,0-.07-.09c-.1-.11-.14-.16-.34-.42a1.64,1.64,0,0,0-.21-.24s0,0,0,0a.4.4,0,0,0-.08-.12l-.15-.2a.92.92,0,0,0-.13-.14.15.15,0,0,1,0-.08.17.17,0,0,0-.07-.09l-.11-.13a5.78,5.78,0,0,0-.44-.53s0,0,0,0a.09.09,0,0,0-.06-.08s-.06,0-.06-.07a.33.33,0,0,0-.08-.13l-.18-.22a.52.52,0,0,0-.12-.13s0,0,0,0a.71.71,0,0,0-.14-.2l-.15-.19a.3.3,0,0,0-.07-.09l-.12-.14a.75.75,0,0,0-.11-.13l-.17-.22a1,1,0,0,0-.15-.17s0,0,0,0a.09.09,0,0,0-.06-.08s-.06-.06-.06-.08a.16.16,0,0,0-.05-.09,1.93,1.93,0,0,1-.18-.22,1,1,0,0,0-.15-.17s0,0,0,0a.12.12,0,0,0-.05-.08.42.42,0,0,1-.1-.12c-.09-.14-.25-.29-.31-.29s-.12,0-.34.25l-.24.22c-.24.2-.53.47-.74.67l-.35.32-.2.17-.29.26-.4.37-.19.16a11.19,11.19,0,0,0-.05,1.59V44.5l-.09,0a2.66,2.66,0,0,1-.76,0s-.05-14.85,0-14.89a3,3,0,0,1,.45,0h.42v5.21m-21.07-5a.86.86,0,0,0-.55,1,.83.83,0,1,0,1.53-.6L40.24,30a.89.89,0,0,0-.83-.2m.55.07a.75.75,0,0,1,0,1.41A.68.68,0,0,1,39,31a1.13,1.13,0,0,1,0-.79,1.38,1.38,0,0,1,.41-.36,1.45,1.45,0,0,1,.56,0m-27.47.53a1.67,1.67,0,0,0,0,.83s.93,0,3.31,0a34.52,34.52,0,0,1,3.48.06l.47.08.34.07a.37.37,0,0,0,.15.05.68.68,0,0,1,.2.07,1,1,0,0,0,.2.08.28.28,0,0,1,.12,0l.14.09a2.55,2.55,0,0,1,.34.21,2.39,2.39,0,0,1,.84,1.1.63.63,0,0,0,.06.2,3.89,3.89,0,0,1,0,1.52,2.55,2.55,0,0,0-.08.28c0,.06,0,.11,0,.11a.22.22,0,0,0-.07.11,1.85,1.85,0,0,1-.55.7l-.23.2a4.25,4.25,0,0,1-1.05.46.6.6,0,0,0-.18.06,2.17,2.17,0,0,1-.44.06l-.83.07c-.33,0-1,0-3.26,0a13.78,13.78,0,0,0-2.9.06,1.3,1.3,0,0,0,0,.78l.06.07h3.62c2.12,0,3.69,0,3.79.05a4.51,4.51,0,0,1,.92.2.76.76,0,0,0,.21.06.57.57,0,0,1,.22.07l.14.07a3.68,3.68,0,0,1,.61.35,2.62,2.62,0,0,1,.62.75l.09.2a1.58,1.58,0,0,1,.09.25l.06.26a3.81,3.81,0,0,1,0,1.26l-.06.26a1.52,1.52,0,0,1-.06.2L22.7,42a2.56,2.56,0,0,1-1.58,1.32c-.87.31-.8.31-5.09.33-3.38,0-3.49,0-3.55.07a1.19,1.19,0,0,0,0,.79l.06.08h3.27a39.14,39.14,0,0,0,4.4-.11,6.36,6.36,0,0,0,1.4-.32.54.54,0,0,1,.18-.06.18.18,0,0,0,.1,0A.3.3,0,0,1,22,44l.19-.09.09-.06a1.3,1.3,0,0,0,.23-.14,3.19,3.19,0,0,0,1.12-1.28,1.76,1.76,0,0,0,.25-.69,2.71,2.71,0,0,1,.08-.41,2.7,2.7,0,0,0,0-1.06,2,2,0,0,1-.08-.37,1.09,1.09,0,0,0-.07-.32.62.62,0,0,1-.06-.14,2.07,2.07,0,0,0-.25-.53.53.53,0,0,0-.09-.11.15.15,0,0,1,0-.08A3.33,3.33,0,0,0,22,37.6a.05.05,0,0,1,0,0s-.08,0-.17-.07l-.32-.1a.73.73,0,0,0-.22-.06c-.14,0-.1-.16.05-.21a1.8,1.8,0,0,0,.26-.14l.26-.14a4.52,4.52,0,0,0,.79-.75,3.67,3.67,0,0,0,.38-.62.42.42,0,0,1,.06-.14,1.86,1.86,0,0,0,.08-.25c0-.1.07-.25.09-.33a6,6,0,0,0,0-1.64.77.77,0,0,1-.06-.21,2.81,2.81,0,0,0-.43-.85A3.7,3.7,0,0,0,21.45,31a.21.21,0,0,1-.09-.05.69.69,0,0,0-.21-.1.6.6,0,0,1-.16-.05,5,5,0,0,0-1.2-.33.86.86,0,0,1-.24-.05c-.21-.07-7-.09-7.06,0m7,.07a4.21,4.21,0,0,1,.59.11l.22,0a.77.77,0,0,1,.24.06l.27.09.19.07a.56.56,0,0,0,.17.06.23.23,0,0,1,.14.06.45.45,0,0,0,.14.07c.05,0,.1.05.1.06s0,0,.09.06a3,3,0,0,1,.83.69l.17.2a.46.46,0,0,1,.1.14s0,.06,0,.06a.27.27,0,0,1,.07.13.35.35,0,0,0,.08.13s0,0,0,.05a1,1,0,0,0,.07.21,1.42,1.42,0,0,1,.09.3.68.68,0,0,0,.06.2,5.47,5.47,0,0,1,0,1.56.8.8,0,0,0-.05.2,2.42,2.42,0,0,1-.2.51.77.77,0,0,0-.07.16s0,.08-.06.08,0,0-.06.09a.38.38,0,0,1-.09.14.1.1,0,0,0-.05.07.21.21,0,0,1-.07.09l-.16.17-.23.22a1.28,1.28,0,0,0-.2.18.5.5,0,0,1-.14.08.32.32,0,0,0-.12.08.18.18,0,0,1-.11.05.2.2,0,0,0-.11.06.74.74,0,0,1-.18.09.29.29,0,0,0-.21.22.74.74,0,0,0,.3.09.76.76,0,0,1,.24.07.32.32,0,0,0,.18.06.31.31,0,0,1,.16.06l.09.06a1.81,1.81,0,0,1,.44.22l.06,0a.55.55,0,0,1,.13.08.31.31,0,0,0,.12.07,3.44,3.44,0,0,1,.6.66.27.27,0,0,0,.06.09,3.69,3.69,0,0,1,.35.69,1.44,1.44,0,0,0,.06.17,1,1,0,0,1,.07.32,3.22,3.22,0,0,0,.07.36,3.15,3.15,0,0,1,0,1,1.09,1.09,0,0,0-.06.28,2.71,2.71,0,0,1-.2.7,1,1,0,0,0-.11.22,3.72,3.72,0,0,1-1.15,1.21,1.81,1.81,0,0,0-.3.18L22,44a.24.24,0,0,0-.11.06.38.38,0,0,1-.15.06.76.76,0,0,0-.21.08.69.69,0,0,1-.22.07,1.12,1.12,0,0,0-.29.07,2.18,2.18,0,0,1-.38.07l-.31.06c-.16.09-7.7.14-7.79.06a1.77,1.77,0,0,1,0-.69l0-.07h3.6c2.54,0,3.65,0,3.79,0l.44-.07a1.39,1.39,0,0,0,.34-.07.37.37,0,0,1,.16-.05.41.41,0,0,0,.19-.06l.2-.07.18-.07.16-.08a.88.88,0,0,0,.19-.1L22,43l.12-.09a.79.79,0,0,1,.13-.12,2.16,2.16,0,0,0,.39-.48,3.26,3.26,0,0,0,.26-.54s0-.15.06-.22a3.82,3.82,0,0,0-.14-1.95.62.62,0,0,1-.06-.14.33.33,0,0,0-.07-.13.26.26,0,0,1-.07-.12,2.64,2.64,0,0,0-.88-.81.06.06,0,0,1-.06,0,.32.32,0,0,0-.13-.06.59.59,0,0,1-.16-.07.51.51,0,0,0-.21-.08.84.84,0,0,1-.24-.07,1,1,0,0,0-.26-.07.57.57,0,0,1-.21,0c-.23-.12-1.06-.14-4.48-.14-2.62,0-3.35,0-3.4,0s-.13-.51-.07-.68l0-.07,3.12,0c2.69,0,3.13,0,3.31,0a3.7,3.7,0,0,1,.56-.07,1.23,1.23,0,0,0,.46-.07.41.41,0,0,1,.19-.06,1.7,1.7,0,0,0,.52-.21l.14-.06a2.93,2.93,0,0,0,1-.8l.09-.13a.34.34,0,0,0,.06-.12.51.51,0,0,1,.07-.15.38.38,0,0,0,.07-.17.68.68,0,0,1,.07-.2,6.12,6.12,0,0,0,0-1.6.74.74,0,0,1-.07-.21,2.26,2.26,0,0,0-.75-1,1.45,1.45,0,0,0-.46-.29l-.14-.09-.13-.05c-.07,0-.12,0-.13-.05s-.09-.06-.19-.08l-.23-.07a.82.82,0,0,0-.26-.06,1.67,1.67,0,0,1-.35-.07,32.39,32.39,0,0,0-3.49,0l-3.41,0a1.23,1.23,0,0,1,0-.73l0-.08h3.21a35.18,35.18,0,0,1,3.69.06M33.6,34a4.67,4.67,0,0,0-.77.18l-.2.06a.64.64,0,0,0-.19.07l-.18.08a3.84,3.84,0,0,0-.89.55,4,4,0,0,0-.73.83s0,.06,0,.06-.05,0-.07.11-.12.16-.15.08,0-.45,0-.94c0-.87,0-.89-.06-1L30.23,34h-.4c-.33,0-.42,0-.44,0s0,10.49,0,10.53a2.64,2.64,0,0,0,.93,0s0-.67.05-3.24A26.52,26.52,0,0,1,30.45,38a1.75,1.75,0,0,0,.09-.35.66.66,0,0,1,.07-.29.76.76,0,0,0,.06-.16,3.91,3.91,0,0,1,.21-.51,3.58,3.58,0,0,1,.76-1l.18-.14a1.59,1.59,0,0,1,.44-.29,2.49,2.49,0,0,1,1-.33l.4-.07a2.5,2.5,0,0,1,.41,0l.3,0,0-.11a2.76,2.76,0,0,0,0-.79,2.52,2.52,0,0,0-.75,0m16.29,0a6.14,6.14,0,0,0-.75.16,1.1,1.1,0,0,1-.27.08,1.11,1.11,0,0,0-.26.09.39.39,0,0,1-.14.06,5.34,5.34,0,0,0-.82.42.68.68,0,0,1-.19.1l-.07,0-.22.19a4.8,4.8,0,0,0-.68.66l-.12.15a3.44,3.44,0,0,0-.25.39l-.11.17s0,.11-.08.17a.33.33,0,0,1-.07.11s0,0-.06.12a.57.57,0,0,1-.07.17.71.71,0,0,0-.08.19,1.84,1.84,0,0,1-.09.25.41.41,0,0,0-.05.17,2.07,2.07,0,0,1-.06.28,6.33,6.33,0,0,0,0,2.74c0,.12.06.26.07.31a.65.65,0,0,0,.08.22.5.5,0,0,1,0,.15,1.09,1.09,0,0,0,.09.24,1.47,1.47,0,0,1,.09.21.05.05,0,0,0,0,0,1.31,1.31,0,0,1,.14.24,1.08,1.08,0,0,0,.14.23s0,0,0,.06a5.52,5.52,0,0,0,1,1.13s.05,0,.05,0A4.74,4.74,0,0,0,48,44l.15.08.11.06.12.06a5.53,5.53,0,0,0,1,.31l.35.07a9.49,9.49,0,0,0,1.77,0l.32-.06a6.72,6.72,0,0,0,.86-.23l.22-.08A.32.32,0,0,0,53,44.2a.32.32,0,0,1,.13-.06.31.31,0,0,0,.14-.06.41.41,0,0,1,.12-.08,4.18,4.18,0,0,0,1.25-1.16l.07-.1-.08-.08a3,3,0,0,0-.63-.41.17.17,0,0,0-.12.08,8.94,8.94,0,0,1-.78.74l-.11.07a.55.55,0,0,1-.13.08.23.23,0,0,0-.1.05.5.5,0,0,1-.14.08.55.55,0,0,0-.15.08.27.27,0,0,1-.14,0,.37.37,0,0,0-.17.05,3.55,3.55,0,0,1-.71.19,5.21,5.21,0,0,1-2.22-.18.56.56,0,0,0-.2-.06.21.21,0,0,1-.12,0,.43.43,0,0,0-.14-.08.84.84,0,0,1-.19-.09l-.09-.05a4,4,0,0,1-.85-.63c-.1-.1-.41-.48-.52-.63a5.4,5.4,0,0,1-.47-1,.61.61,0,0,0-.08-.21.9.9,0,0,1-.06-.26,3.06,3.06,0,0,0-.07-.4,5.05,5.05,0,0,1,0-1.6,3.28,3.28,0,0,0,.08-.41,1,1,0,0,1,.08-.3.58.58,0,0,0,.06-.17,4.26,4.26,0,0,1,.45-1,.31.31,0,0,0,.07-.12.08.08,0,0,1,0-.07.83.83,0,0,0,.12-.13,3.92,3.92,0,0,1,1.25-1l.31-.15a.37.37,0,0,1,.15-.06.7.7,0,0,0,.17-.06.92.92,0,0,1,.25-.08,1.53,1.53,0,0,0,.29-.07,5.38,5.38,0,0,1,1.79,0,2,2,0,0,0,.29.08,1,1,0,0,1,.27.07.62.62,0,0,0,.18.06.33.33,0,0,1,.14.06l.13.06.23.11.25.14a.53.53,0,0,1,.12.1l.08.06a4.54,4.54,0,0,1,.62.62s0,0,.05,0,0,0,0,0,.09,0,.18,0c.61-.4.63-.44.43-.67l-.15-.17A4.16,4.16,0,0,0,53.8,35l-.18-.15a.42.42,0,0,0-.12-.08l-.18-.1a2.2,2.2,0,0,0-.55-.28.33.33,0,0,1-.12-.06.57.57,0,0,0-.25-.09l-.23-.07a.6.6,0,0,0-.25-.06,1.29,1.29,0,0,1-.31-.07,10.43,10.43,0,0,0-1.72,0m-15.57.44v.43l-.37,0a2.17,2.17,0,0,0-.44,0,1.43,1.43,0,0,1-.32.07,1.37,1.37,0,0,0-.38.08.58.58,0,0,1-.17.06,1.15,1.15,0,0,0-.26.1l-.28.15-.15.09a1.71,1.71,0,0,1-.23.19,3.6,3.6,0,0,0-.49.48,1,1,0,0,1-.13.16l-.06.08s-.06.11-.14.23a1.43,1.43,0,0,0-.13.26.24.24,0,0,1-.05.12.37.37,0,0,0-.08.19,1.18,1.18,0,0,1-.07.2,1.1,1.1,0,0,0-.08.27,1.05,1.05,0,0,1-.06.29,24.57,24.57,0,0,0-.1,3.84V44.5l-.07,0a3.61,3.61,0,0,1-.81,0c-.08,0-.1-10.34,0-10.41a1.29,1.29,0,0,1,.43,0h.4v1c0,1,0,1.16.11,1l.09-.07a.19.19,0,0,0,.09-.12,1.27,1.27,0,0,1,.22-.34l.13-.18a3.7,3.7,0,0,1,.75-.69l.07,0a.33.33,0,0,1,.13-.09,2.15,2.15,0,0,0,.31-.18.57.57,0,0,1,.17-.07.45.45,0,0,0,.18-.07.3.3,0,0,1,.18-.06.58.58,0,0,0,.21-.07,1.23,1.23,0,0,1,.31-.08,1.3,1.3,0,0,0,.3,0,1.87,1.87,0,0,1,.58-.07h.24v.44M51.47,34a1.3,1.3,0,0,0,.34.08.9.9,0,0,1,.32.07.92.92,0,0,0,.24.06.33.33,0,0,1,.19.06s0,.05.1.06a.64.64,0,0,1,.19.08l.13,0a.16.16,0,0,1,.09.05,1.51,1.51,0,0,0,.37.21l.13.09a.08.08,0,0,0,0,.05,4.13,4.13,0,0,1,.91.91c0,.07,0,.08-.15.22l-.24.2c-.15.14-.24.11-.43-.15a3,3,0,0,0-.3-.28l-.26-.22a1.57,1.57,0,0,0-.36-.22.12.12,0,0,1-.08-.05.43.43,0,0,0-.14-.08.3.3,0,0,1-.14-.07.68.68,0,0,0-.16-.06.54.54,0,0,1-.18-.06.6.6,0,0,0-.22-.06.89.89,0,0,1-.29-.08,7.56,7.56,0,0,0-2,0,.86.86,0,0,1-.27.08,1,1,0,0,0-.22.07.49.49,0,0,1-.16.06,1.48,1.48,0,0,0-.46.21.45.45,0,0,1-.12.06l-.12.06a2.18,2.18,0,0,1-.31.22.19.19,0,0,0-.08.07.07.07,0,0,1-.06,0,.22.22,0,0,0-.1.06l-.15.15a2.75,2.75,0,0,0-.21.23l-.21.24a.28.28,0,0,0-.08.13s0,0-.06.08a.29.29,0,0,0-.07.12s0,.08,0,.08,0,0-.06.09a.91.91,0,0,1-.09.17.27.27,0,0,0-.06.12.29.29,0,0,1-.06.15.76.76,0,0,0-.07.24.33.33,0,0,1,0,.14s-.09.18-.09.32a.87.87,0,0,1-.07.3,6.51,6.51,0,0,0,0,1.87.87.87,0,0,1,.07.3c0,.15,0,.32.09.32a.33.33,0,0,1,0,.14.92.92,0,0,0,.08.25l.08.17a.67.67,0,0,0,.06.12l0,.09a3.42,3.42,0,0,0,.43.64.43.43,0,0,1,.09.12,3,3,0,0,0,.5.47L48,43a1.55,1.55,0,0,0,.36.23.15.15,0,0,1,.08,0,.36.36,0,0,0,.15.08.51.51,0,0,1,.17.07.22.22,0,0,0,.12.06l.23.07a3.68,3.68,0,0,0,1.33.24,5.13,5.13,0,0,0,1.29-.12.53.53,0,0,1,.17,0,.67.67,0,0,0,.22-.07.71.71,0,0,1,.21-.08.27.27,0,0,0,.14-.06.3.3,0,0,1,.11-.06.38.38,0,0,0,.15-.07.71.71,0,0,1,.17-.09s.06,0,.06,0,0,0,.09-.07a3.45,3.45,0,0,0,.71-.65c.16-.18.22-.19.34-.08l.17.12c.25.17.29.22.25.3a4.87,4.87,0,0,1-.61.69l-.2.16a.17.17,0,0,1-.07.06.11.11,0,0,0-.07,0,1.53,1.53,0,0,1-.33.23s-.08,0-.08.06a.24.24,0,0,1-.12.06.34.34,0,0,0-.17.07.23.23,0,0,1-.14.06.68.68,0,0,0-.2.07,1.37,1.37,0,0,1-.26.08l-.3.08a.71.71,0,0,1-.26,0,1.18,1.18,0,0,0-.31.05,5.48,5.48,0,0,1-1.57,0,3.51,3.51,0,0,0-.44-.08.91.91,0,0,1-.25-.06.94.94,0,0,0-.23-.06,1,1,0,0,1-.23-.07.76.76,0,0,0-.21-.08c-.07,0-.13,0-.14-.06a.29.29,0,0,0-.14-.07A.24.24,0,0,1,48.1,44L48,44l-.2-.11-.16-.1-.15-.11-.21-.15a4.52,4.52,0,0,1-.4-.37c-.4-.4-.4-.41-.4-.44s0-.05-.06-.06-.06,0-.06-.06a.3.3,0,0,0-.07-.14.46.46,0,0,1-.09-.14l-.06-.06a.07.07,0,0,1,0-.07.33.33,0,0,0-.06-.12,1.14,1.14,0,0,1-.1-.19.36.36,0,0,0-.08-.13.15.15,0,0,1,0-.08.32.32,0,0,0-.06-.15.51.51,0,0,1-.08-.21,1.5,1.5,0,0,0-.07-.2.55.55,0,0,1-.06-.24,1.2,1.2,0,0,0-.07-.26,7.51,7.51,0,0,1,0-2.59,1.31,1.31,0,0,0,.07-.27.59.59,0,0,1,.06-.24,1.5,1.5,0,0,0,.07-.2.38.38,0,0,1,.07-.18.34.34,0,0,0,.06-.12,1,1,0,0,1,0-.13,1.37,1.37,0,0,0,.08-.14.55.55,0,0,1,.1-.17.3.3,0,0,0,.06-.13.07.07,0,0,1,0-.07s.06-.06.09-.11a2.3,2.3,0,0,1,.59-.74,3,3,0,0,1,.54-.49.15.15,0,0,0,.07-.06.2.2,0,0,1,.09-.06l.12-.06.15-.1.12-.07L48,34.6l.11-.06a2.25,2.25,0,0,1,.44-.19.27.27,0,0,0,.12-.06.47.47,0,0,1,.2-.06.81.81,0,0,0,.27-.07,1.17,1.17,0,0,1,.33-.07,1,1,0,0,0,.28-.06,5.26,5.26,0,0,1,1.68,0m-12.29,0c0,.11,0,10.43,0,10.47a1.72,1.72,0,0,0,.9,0l.08-.06V34.1l-.06,0a1.86,1.86,0,0,0-.94,0m.88,0s0,1.41,0,5.21V44.5h-.87v-5.2c0-4.14,0-5.21,0-5.22a2.69,2.69,0,0,1,.81,0" transform="translate(0 0)"/><path id="path4-2" data-name="path4" class="cls-10" d="M5.18,37.57c0,10.65,0,12,.05,12s0-1.35,0-12,0-12,0-12-.05,1.35-.05,12m54.64-8a3.09,3.09,0,0,0,.43,0c.12,0,0,0-.21,0s-.33,0-.22,0m.7,5.3c0,2.84,0,4,0,2.59V32.28c0-1.42,0-.25,0,2.58M67.6,34h.53c.15,0,0,0-.26,0s-.41,0-.27,0m.1.81-.15.16.16-.15.15-.15s0,0-.16.14m-3.18,1.71-.09.09.1-.08c.09-.08.11-.11.09-.11a.84.84,0,0,0-.1.1m-2.29,3.32-.09.1.1-.09c.08-.08.1-.1.08-.1l-.09.09m-2.72.23c0,.06,0,.08,0,0v-.1s0,0,0,.05m1,2.88c0,.84,0,1.18,0,.76V42.23c0-.42,0-.08,0,.75m8.39,1.51c0,.06,0,.08-.08.1s-.09,0,0,0,.23-.13.13-.19,0,0,0,.05m-9.35.06.08.08H60c-.34,0-.39,0-.45-.08l-.08-.06.07.08m8.3.06a2.23,2.23,0,0,0,.44,0h0a1.72,1.72,0,0,0-.42,0" transform="translate(0 0)"/></g></svg>