<svg id="Layer_1" data-name="Layer 1" xmlns="http://www.w3.org/2000/svg" viewBox="0 0 80 84.16"><defs><style>.cls-1{fill:#f2f2f2;}.cls-2{fill:#cb0404;}.cls-2,.cls-3,.cls-4,.cls-5,.cls-6,.cls-7{fill-rule:evenodd;}.cls-3{fill:#fbfbfb;}.cls-4{fill:#131339;}.cls-5{fill:#39fcb1;}.cls-6{fill:#a2a9af;}.cls-7{fill:#7c7c7c;}</style></defs><rect class="cls-1" width="80" height="80" rx="40"/><path id="path0" class="cls-2" d="M28.76,72.52v3.16H35V69.36H28.76v3.16m8.44,0v3.16H51V69.36H37.2v3.16M28.76,81v3.15h6.29v-6.3H28.76V81m8.44,0v3.15H51v-6.3H37.2V81" transform="translate(0 0)"/><path id="path0-2" data-name="path0" class="cls-3" d="M6.58,34.43a3.06,3.06,0,0,1,.34.39c.16.22.6.72,1.08,1.24.18.18.42.47.56.64l.43.51a2.32,2.32,0,0,1-.07,3.08A2.83,2.83,0,0,1,6.63,41H5.79v2.64l-.14.16c-.31.35-.55.25-1.13-.47S3.79,42.48,3.33,42l-.71-.76a2.52,2.52,0,0,1,1-4.11L4,37a5.12,5.12,0,0,1,.95-.08l.82,0V34.55l.16-.16c.22-.22.44-.21.68,0M20.35,36.9a2.25,2.25,0,0,1,1.32.89,2.28,2.28,0,0,1,.29.57,4,4,0,0,1,0,1.29l-.16.34a2.23,2.23,0,0,1-3.54.53,2.17,2.17,0,0,1,2.08-3.62m15.1,0a1.64,1.64,0,0,1,.33.13.22.22,0,0,0,.14,0s.09,0,.09.05,0,0,.08,0,.61.52.73.76c.22.5.19.57-.3.67s-.6.11-.66,0a.82.82,0,0,0-.4-.53c-1.09-.73-2.29.88-1.35,1.8a1.13,1.13,0,0,0,1.37.12.85.85,0,0,0,.37-.51c.07-.16.24-.18.63-.09l.36.08c.27.05.06.66-.39,1.11a2.26,2.26,0,0,1-3.14,0,1.81,1.81,0,0,1-.54-.86c0-.06,0-.13-.05-.14a1.61,1.61,0,0,1,0-.54,1.53,1.53,0,0,1,0-.53.17.17,0,0,0,.05-.13,2.34,2.34,0,0,1,.85-1.12.55.55,0,0,0,.16-.1,2.48,2.48,0,0,1,1.67-.22m17.69,0c.7.2,1.37.75,1.32,1.09,0,.17-.32.2-.39,0a1.83,1.83,0,0,0-2.68-.35,1.6,1.6,0,0,0-.42.58.13.13,0,0,1-.06.1A2.75,2.75,0,0,0,51,39.77c.23.43.78.91,1.07.91,0,0,.12,0,.13,0a1.71,1.71,0,0,0,.82,0s.07,0,.12,0a1.69,1.69,0,0,0,1-.81,6.41,6.41,0,0,0,.17-.62s-.44,0-1,0l-1,0,0-.16,0-.17h2.39v.26a1.85,1.85,0,0,1-.15.72.34.34,0,0,0-.05.14,2.33,2.33,0,0,1-.46.64l-.16.13c-1.39,1.32-3.89-.34-3.41-2.27.11-.46.73-1.29,1-1.29a.1.1,0,0,0,.1,0c.07-.22,1.17-.36,1.65-.22m-12,0c.05,0,.1.08.1.11a1.67,1.67,0,0,0,.14.37l.24.5.23.51.22.51.18.4c.05.11.14.32.21.46l.22.51c.07.14.16.35.22.48a.79.79,0,0,1,.08.29c-.06.15-.47,0-.47-.14a5.46,5.46,0,0,0-.3-.71L42.17,40H41c-1,0-1.14,0-1.18.08l-.11.25c-.31.74-.33.76-.55.76s-.19-.12,0-.47c.06-.15.16-.35.21-.46s.15-.36.24-.54l.19-.43c0-.11.19-.44.38-.86l.2-.46c.05-.11.15-.34.23-.5a1.94,1.94,0,0,0,.15-.37c0-.13.24-.2.41-.11m4.86.06a.79.79,0,0,0,.23.09,1.62,1.62,0,0,1,.53.6.16.16,0,0,0,.06.13,1.49,1.49,0,0,1,0,.73l-.11.23a1.16,1.16,0,0,1-.55.52,2.82,2.82,0,0,1-1.25.17l-.86,0,0,.81,0,.81H43.7l0-2c0-1.1,0-2.05,0-2.12l0-.12,1.07,0c.9,0,1.11,0,1.25.11M48,36.93a31.77,31.77,0,0,1,0,4.14.24.24,0,0,1-.17.06c-.22,0-.22,0-.22-2.13s0-2.13.22-2.13a.29.29,0,0,1,.17.06m9.11,0s.08.05.08.08a3.58,3.58,0,0,0,.18.42c.09.21.25.56.35.77s.18.39.18.4a3.18,3.18,0,0,0,.13.31l.46,1c0,.09.16.34.25.54.28.59.28.68,0,.66s-.21,0-.41-.47l-.21-.47L58.07,40H55.81l-.17.36-.25.53c-.07.14-.12.18-.25.19s-.18,0-.17-.19a2.87,2.87,0,0,1,.29-.68c.1-.23.2-.46.23-.51s.1-.23.16-.38l.49-1.09.23-.51c.4-.92.44-1,.71-.86m5.29.16c0,.21,0,.22-.9.23h-.69l0,1.91,0,1.9h-.14c-.23,0-.24,0-.24-2V37.28h-.73c-.84,0-.89,0-.89-.2s0-.2,1.88-.19h1.75v.16m3.69,0v.17l-1.28,0H63.5V38.8h1.17c1.24,0,1.33,0,1.25.26s-.17.09-1.23.09H63.5v1.62h2.59l0,.16v.17H63.12l0-2.06c0-1.13,0-2.08,0-2.11a5.23,5.23,0,0,1,1.49,0h1.46v.18m.83-.07a.47.47,0,0,1,.11.21,2.16,2.16,0,0,0,.15.53.41.41,0,0,1,0,.19.41.41,0,0,0,0,.19s.13.36.23.7.21.64.23.69a.51.51,0,0,1,.05.22.27.27,0,0,0,0,.15s.06.1.08.2.12.28.16.08,0-.17.08-.18a.25.25,0,0,0,0-.15.19.19,0,0,1,0-.15.22.22,0,0,0,.05-.16.46.46,0,0,1,0-.21,2.46,2.46,0,0,0,.19-.58.4.4,0,0,1,.07-.17.19.19,0,0,0,.05-.15.19.19,0,0,1,0-.15.22.22,0,0,0,0-.16.46.46,0,0,1,0-.21s.11-.29.19-.53c.21-.65.46-.69.64-.11a3,3,0,0,0,.14.39.59.59,0,0,1,0,.2.26.26,0,0,0,0,.17,3.9,3.9,0,0,1,.18.5l.18.56c0,.06.07.2.1.33s.08.26.09.3l.14.41c.07.19.12.28.12.21a.65.65,0,0,1,0-.2,1.79,1.79,0,0,0,.1-.26c.13-.46.43-1.41.47-1.49a.41.41,0,0,0,0-.19.65.65,0,0,1,0-.19,5.28,5.28,0,0,0,.19-.54,3.26,3.26,0,0,1,.19-.52c.06-.09.32-.08.36,0a6,6,0,0,1-.33,1.15.45.45,0,0,0-.05.19.38.38,0,0,1,0,.19c0,.05-.08.23-.13.4a2.52,2.52,0,0,1-.13.35.41.41,0,0,0,0,.19.31.31,0,0,1,0,.17s-.06.08-.06.15a.19.19,0,0,1,0,.15.27.27,0,0,0,0,.16.65.65,0,0,1,0,.21,2.79,2.79,0,0,0-.13.37c-.14.45-.18.5-.36.5s-.33-.22-.33-.43a.53.53,0,0,0,0-.16s-.13-.37-.24-.7-.21-.65-.23-.7a.33.33,0,0,1,0-.16.59.59,0,0,0,0-.17,5.28,5.28,0,0,1-.19-.54c-.14-.48-.27-.71-.27-.49a.46.46,0,0,1,0,.2c0,.05-.13.36-.23.69s-.21.66-.23.71-.15.45-.28.87c-.28.86-.29.88-.48.88s-.25-.08-.25-.21a.61.61,0,0,0,0-.18,6.85,6.85,0,0,1-.23-.7c-.11-.33-.21-.65-.24-.69a.65.65,0,0,1,0-.19.46.46,0,0,0-.05-.2A1.68,1.68,0,0,1,67,38.6c0-.16-.1-.33-.12-.38s-.07-.21-.11-.33a2.82,2.82,0,0,0-.1-.33c-.23-.61-.07-1,.25-.55m7.48.2c.09.17.21.43.28.58s.18.41.25.58.29.63.36.81.13.28.23.51l.23.51.19.44c.21.45.21.5,0,.48s-.22,0-.42-.52l-.18-.42L75.21,40h-1.1c-1.17,0-1.28,0-1.28.26,0,0,0,.09,0,.09s0,0,0,.07c0,.23-.31.69-.46.69s-.27,0,.13-.9a2.55,2.55,0,0,0,.17-.4l.15-.34L73,39c0-.11.16-.34.23-.51l.24-.53a5.34,5.34,0,0,1,.23-.5,1.69,1.69,0,0,0,.14-.33c0-.35.4-.28.58.1m1.76-.27a.77.77,0,0,1,.16.19c.12.23,1,1.49,1,1.51a.08.08,0,0,1,0,.07,1,1,0,0,0,.3.39,2.27,2.27,0,0,0,.36-.49,4.14,4.14,0,0,1,.36-.51.08.08,0,0,0,0-.07,2,2,0,0,1,.23-.37,2.27,2.27,0,0,0,.23-.36c0-.12.34-.43.47-.43s.22.13-.16.69a5.24,5.24,0,0,0-.36.57s0,.09-.1.14a.27.27,0,0,0-.1.15.56.56,0,0,1-.13.19.77.77,0,0,0-.13.16,1.75,1.75,0,0,1-.19.32,1.56,1.56,0,0,0-.38,1.29c0,.72,0,.73-.13.74s-.26,0-.26-.83v-.73l-.49-.75-.56-.87a.56.56,0,0,0-.11-.15,3.09,3.09,0,0,1-.49-.84c0-.09.28-.1.39,0m-61.54.61.63.74.58.69a.5.5,0,0,1,.13.19s0,0,.08,0,.08-.18.09-1.13V37h.48c.67,0,.61-.22.61,2.05s0,2.14-.51,2.14-.41,0-.76-.38c-.17-.21-.71-.82-1-1.09-.07-.08-.17-.19-.22-.26l-.29-.33-.2-.21v2.25h-.51c-.37,0-.51,0-.54,0a40.13,40.13,0,0,1,0-4.11,1.94,1.94,0,0,1,.45,0h.4l.53.63m10.79-.48a1.43,1.43,0,0,1,.73.77,2,2,0,0,1,0,.95L26,39a1.72,1.72,0,0,1-.72.59c-.12,0-.11.08,0,.23l.37.41c.13.16.33.38.44.5.32.35.28.38-.4.38h-.58l-.22-.21c-.18-.19-.51-.56-.94-1.07-.26-.29-.31-.21-.31.51s0,.77-.58.77a1.19,1.19,0,0,1-.52-.06,24.26,24.26,0,0,1,0-4.09,9.91,9.91,0,0,1,2.76.09M29,37a2.15,2.15,0,0,1,1.44,1,1.71,1.71,0,0,1,.21.66,2,2,0,0,1-.53,1.8,2.61,2.61,0,0,1-1,.57,7.64,7.64,0,0,1-1.29.07H26.71v-2c0-1.12,0-2.06,0-2.09A8.41,8.41,0,0,1,29,37m3.24,0a10.16,10.16,0,0,1,0,2.09v2H31.17v-2c0-2.35-.07-2.13.54-2.13a1.68,1.68,0,0,1,.5,0m11.91.29a10.13,10.13,0,0,0,0,1.74A5.08,5.08,0,0,0,46,38.93a.86.86,0,0,0-.1-1.61,8.89,8.89,0,0,0-1.75-.06m12.81.4a.22.22,0,0,0-.07.1s-.27.62-.61,1.33-.35.57.71.57,1,0,.79-.43c-.15-.31-.51-1.09-.7-1.5,0-.11-.07-.12-.12-.07m-16,.15a1,1,0,0,0-.11.22,9.92,9.92,0,0,1-.46,1,1.36,1.36,0,0,0-.1.26.11.11,0,0,1,0,.09.33.33,0,0,0-.08.15l0,.14h.94a3.71,3.71,0,0,0,.94,0,13.86,13.86,0,0,0-.59-1.29,2.15,2.15,0,0,1-.17-.41.68.68,0,0,0-.1-.17l-.09-.12-.11.19m33,.09-.24.52c-.07.14-.21.46-.33.71a2.41,2.41,0,0,0-.2.49,6.25,6.25,0,0,0,.94,0c1,0,1,0,.81-.33l-.22-.48-.29-.61a2.19,2.19,0,0,1-.15-.39.06.06,0,0,0,0-.06s0,0,0-.08-.1-.07-.22.19m-54.42,0a1.16,1.16,0,1,0,.68,0,1.06,1.06,0,0,0-.68,0m4.19.52,0,.45h.35c.8,0,1.23-.26,1-.67-.11-.17-.32-.23-.87-.23h-.47v.44M27.78,38a13.93,13.93,0,0,0,0,2.14c.07.13.92,0,1.17-.12a1.1,1.1,0,0,0-.27-2,2.44,2.44,0,0,0-.92,0" transform="translate(0 0)"/><path id="path1" class="cls-4" d="M19.1,37.1a2.06,2.06,0,1,0,.73,0,1.5,1.5,0,0,0-.73,0m15.15,0A2.05,2.05,0,0,0,33,40.55c1,1.1,3.15.72,3.51-.63.07-.24,0-.28-.31-.34a2.64,2.64,0,0,1-.38-.08c-.09,0-.13,0-.27.25a1.12,1.12,0,0,1-2-.07c-.69-1.36,1.29-2.52,2-1.19.15.26.16.27.31.23l.41-.11c.14,0,.26-.09.27-.13a2,2,0,0,0-.66-1,.7.7,0,0,1-.18-.09,2.51,2.51,0,0,0-1.42-.28m17.56,0a2,2,0,0,0-1.66,2,2,2,0,0,0,4.06.24l0-.34H53.12C52,39,52,39,52,39.13s0,.1,1,.1h1v.21a1.78,1.78,0,0,1-.9,1.33l-.28.14a4,4,0,0,1-1.14,0,1.92,1.92,0,0,0-.28-.13,1.9,1.9,0,0,1-1-1.65,1.88,1.88,0,0,1,3.39-1.08c.13.18.25.21.3.09s-.3-.5-.58-.71a2.4,2.4,0,0,0-1.67-.33m-11.26.06a.19.19,0,0,0-.07.12,1.66,1.66,0,0,1-.14.35c-.08.17-.19.4-.23.51l-.24.52-.15.34s-.15.35-.45,1c-.05.12-.15.32-.21.46l-.18.4c-.1.2-.09.28,0,.28s.14-.07.23-.27l.25-.56.13-.28h1.17c1,0,1.18,0,1.22.09a7.61,7.61,0,0,1,.35.81c0,.07.15.2.23.2s.1-.11,0-.24-.2-.41-.36-.79l-.2-.46c-.07-.14-.16-.36-.22-.48l-.23-.51c-.07-.15-.15-.35-.19-.43l-.47-1a.2.2,0,0,0-.3,0m2.88,2c0,2,0,2,.1,2s.1,0,.1-.78c0-.95-.1-.87,1.06-.9,1.38,0,1.75-.28,1.75-1.21s-.45-1.16-2-1.16h-1v2m3.92-2a26.73,26.73,0,0,0,.11,4,18.62,18.62,0,0,0,0-4,.11.11,0,0,0-.12,0m9.09,0a.28.28,0,0,0-.08.15,1.1,1.1,0,0,1-.1.23,3.66,3.66,0,0,0-.18.39c0,.13-.15.37-.23.53l-.22.48c0,.1-.13.31-.2.46l-.24.53c-.14.33-.35.77-.44,1s-.09.24,0,.23.15-.1.25-.32.19-.41.26-.54l.11-.23h2.36l.2.46c.27.6.27.61.4.63s.13,0,0-.41c-.31-.68-.43-.94-.52-1.16l-.4-.88-.25-.56c-.07-.14-.17-.38-.24-.52a2.54,2.54,0,0,1-.12-.32.21.21,0,0,0-.37-.11m2.08-.06c-.14.14,0,.17.75.17s.78,0,.81.08,0,.91,0,1.93v1.84h.25V39.24l0-1.91.8,0c.73,0,.8,0,.78-.1a21.86,21.86,0,0,0-3.45-.08m4.31,0s0,.93,0,2v2l1.44,0c1.31,0,1.43,0,1.45-.1S65.6,41,64.4,41H63.11l0-.11a9.39,9.39,0,0,1,0-1.5c0-.11,0-.11,1.2-.12s1.18,0,1.18-.09-.17-.08-1.14-.09c-1.39,0-1.27.06-1.27-.86s-.14-.88,1.37-.88c1.18,0,1.27,0,1.26-.09a14.93,14.93,0,0,0-2.85-.08m3.44,0a2.14,2.14,0,0,0,.18.73l.23.71c.1.34.23.74.27.89s.18.55.28.89c.34,1.09.43,1.09.76.05.1-.34.21-.65.23-.71l.27-.84.32-1c.08-.26.27-.29.27,0,0,.07.35,1.2.41,1.31a.37.37,0,0,1,.05.16.37.37,0,0,0,0,.17c0,.05.13.36.23.7s.2.65.23.71l.07.19c.09.29.29.08.47-.5.1-.31.19-.6.22-.66a2,2,0,0,0,.08-.28c.1-.31.33-1.08.37-1.19a5.17,5.17,0,0,0,.36-1.31c-.06-.06-.2,0-.23.08s-.1.34-.21.67-.24.77-.3,1-.16.52-.22.73-.13.43-.16.48l-.11.33c-.11.34-.16.31-.32-.18-.33-1.05-.43-1.35-.65-2-.13-.4-.24-.75-.24-.79s-.17-.31-.28-.27-.15.18-.29.65-.21.67-.24.72-.24.73-.53,1.68c-.18.56-.26.62-.35.23,0-.14-.24-.82-.51-1.65-.09-.28-.22-.68-.28-.89-.22-.73-.32-.89-.43-.71m7.26.11-.44,1c-.19.44-.32.72-.46,1a9.5,9.5,0,0,0-.4.92s-.28.63-.36.79-.06.19.07.19.14,0,.2-.21.17-.36.26-.55l.16-.33h2.33l.13.29c.08.16.19.4.24.53s.23.35.31.26,0-.08-.25-.68c-.08-.19-.15-.35-.15-.37s-.09-.21-.2-.44l-.39-.86c-.1-.24-.26-.6-.36-.81s-.21-.47-.26-.58c-.13-.33-.31-.38-.43-.12m2-.07a.15.15,0,0,0,0,.12,8.33,8.33,0,0,1,.57.83c.29.44.63,1,.76,1.14l.23.33,0,.76c0,.74,0,.76.14.78s.12,0,.12-.73v-.75l.22-.31c.12-.17.45-.67.74-1.12s.54-.82.56-.84a1.08,1.08,0,0,0,.15-.28s0,0-.12,0-.19.1-.49.57c-.21.31-.39.58-.41.59s0,0,0,.07a5.32,5.32,0,0,1-.73,1,11.85,11.85,0,0,1-.79-1.11c-.73-1.1-1-1.34-1-1.05m-71.47,0a1.66,1.66,0,0,1-.31,0,.42.42,0,0,0-.25,0s-.07.05-.13.05a.86.86,0,0,0-.3.13,1.21,1.21,0,0,1-.24.13s-.07,0-.11.1-.1.1-.13.1-.1.06-.15.13a2.75,2.75,0,0,1-.22.26.38.38,0,0,0-.11.19s0,.08-.05.08-.06.05-.08.12-.05.13-.08.13,0,.07,0,.15a.32.32,0,0,1-.05.18,3.13,3.13,0,0,0,0,1.22.16.16,0,0,1,.05.11,2.07,2.07,0,0,0,.52.89l.24.26,0-.28a1.8,1.8,0,0,1,1.92-2l.73-.05.17,0v-2H4.77a4.05,4.05,0,0,0-.72.05m8.85,1.95v2l.47,0h.47V40a6.74,6.74,0,0,1,.06-1.13s.06,0,.59.64l.33.38.8.9.33.37.38,0h.39v-4h-1v1.17c0,1.38,0,1.34-.48.73l-.61-.71-.57-.67-.44-.52H12.9v2m9.41-1.89c0,.06,0,1,0,2l0,1.88h.91v-.67l0-.67h.17c.16,0,.22.05.77.68l.6.68h.54a4,4,0,0,0,.55,0s-.44-.54-.87-1c-.3-.32-.3-.39,0-.5A1.27,1.27,0,0,0,25,37.29c-.22-.11-.32-.12-1.47-.13l-1.23,0,0,.12m4.08,1.89v2h1A3.64,3.64,0,0,0,28.84,41a1.7,1.7,0,0,0,.8-.48,2,2,0,0,0,0-2.83c-.5-.45-1-.57-2.27-.57h-1v2m4.51,0v2l.44,0h.45v-4H30.9v2m14.67-1.77a.94.94,0,0,1,.12,1.74,4.53,4.53,0,0,1-2,.09,5.47,5.47,0,0,1,0-1.85,6.27,6.27,0,0,1,1.88,0M41,38l.47,1a3.79,3.79,0,0,1,.28.68l0,.12h-1c-1.13,0-1.13,0-1-.35l.62-1.33c.3-.66.3-.66.55-.12m15.91,0,.46,1c.35.73.35.74.26.78a15,15,0,0,1-2,0,1.42,1.42,0,0,1,.13-.37c.09-.17.21-.44.29-.6a7,7,0,0,1,.62-1.21,1.51,1.51,0,0,1,.26.44M74,38l.36.77.32.69c.1.21.13.31.08.34a13.72,13.72,0,0,1-2,0,8.88,8.88,0,0,1,.61-1.4,1.33,1.33,0,0,0,.12-.28,1.64,1.64,0,0,1,.31-.5A1.16,1.16,0,0,1,74,38M20,38a1.29,1.29,0,0,1,.68,1.45,1.21,1.21,0,0,1-2.36,0A1.23,1.23,0,0,1,20,38m4.43.06a.5.5,0,0,1,.24.83c-.16.17-.26.19-.89.17h-.53l0-.48c0-.35,0-.49.06-.52a3.64,3.64,0,0,1,1.14,0m4.15.13a1,1,0,0,1,.6,1c0,.78-.47,1.19-1.36,1.19h-.46l0-1.14c0-.63,0-1.17,0-1.21s.87-.06,1.22.12" transform="translate(0 0)"/><path id="path2" class="cls-5" d="M5.53,34.55l-.13.15v1.77c0,1,0,2.43,0,3.23l0,1.45h.69a6.68,6.68,0,0,0,.94,0L7.51,41a.62.62,0,0,0,.2-.07s.07-.05.12-.05.1,0,.1,0,.07-.06.15-.1a2.27,2.27,0,0,0,1-2.7s-.09-.18-.16-.32a2.41,2.41,0,0,0-.35-.5c-.13-.15-.33-.38-.43-.52s-.33-.4-.51-.59-.46-.5-1.3-1.48c-.26-.3-.54-.34-.77-.1" transform="translate(0 0)"/><path id="path3" class="cls-6" d="M5.79,34.4H6s0,0-.11,0-.15,0-.09,0M18.93,37a1.14,1.14,0,0,0-.33.13s0,0,.06,0a2.17,2.17,0,0,1,1.2-.12l.47.12c.07,0,.08,0,.05,0A2.13,2.13,0,0,0,18.93,37M34,37l-.2.07.2,0a3.76,3.76,0,0,1,1.06,0l.21,0L35.06,37a1.93,1.93,0,0,0-1,0m17.7,0-.21.07.21,0a3.76,3.76,0,0,1,1.06,0l.2,0L52.75,37a1.9,1.9,0,0,0-1,0m-11.2,0a.18.18,0,0,0-.09.14c0,.07,0,.06.08,0a.21.21,0,0,1,.35,0s.08,0,.08,0-.27-.19-.42-.1m2.83.06c0,.06,0,1,0,2.12l0,2h.35l0-.81,0-.81.88,0a6.31,6.31,0,0,0,.89,0,11,11,0,0,0-1.78.06,2.56,2.56,0,0,0-.07.82l0,.77H43.4V37.07h1.12a4.12,4.12,0,0,0,.91,0,5.91,5.91,0,0,0-2.08.07m3.94,0a31.77,31.77,0,0,0,0,4.14.29.29,0,0,0,.17.06c.22,0,.22,0,.22-2.13s0-2.13-.22-2.13a.24.24,0,0,0-.17.06m9.13,0a2.89,2.89,0,0,0-.31.67s.09-.12.17-.3c.15-.35.25-.43.43-.33s.1,0,.1,0-.31-.15-.39,0m2,0c-.1,0-.08.31,0,.34a6,6,0,0,0,.81,0H60v1.87c0,1,0,1.89,0,1.93s.32,0,.35-.05,0-.06,0,0a.2.2,0,0,1-.17.05l-.12,0V37.35h-.8c-.78,0-.8,0-.82-.13s0-.17,1.87-.15H62l0,.15c0,.15,0,.15,0,0V37H60.26c-1,0-1.78,0-1.81,0m4.33,0a.15.15,0,0,0,0,.09s0,0,0,0a5.07,5.07,0,0,1,1.45,0h1.42l0,.14v.14H64.41l-1.29,0V39l1.2,0c1.11,0,1.19,0,1.2.13a.15.15,0,0,1,0,.14s0,0,0,0a.17.17,0,0,0,0-.27c0-.06-.27-.08-1.22-.08H63.15V37.4h2.56V37H64.26c-.79,0-1.46,0-1.48,0m3.4,0a.36.36,0,0,0,0,.32c0,.06,0,0,0-.1,0-.42.27-.2.44.33.08.26.08.16,0-.19s-.34-.5-.48-.36m2.61,0a.1.1,0,0,0-.06.07s0,0,.1,0,.29,0,.4.32c0,.17.1.28.1.24a1.66,1.66,0,0,0-.21-.6.33.33,0,0,0-.33,0m2.58,0a.22.22,0,0,0-.06.1s0,0,.08,0c.21-.21.35-.06.24.27,0,.12-.06.23,0,.24s.18-.49.15-.57-.28-.1-.37,0m2.16,0a.29.29,0,0,0-.09.14s0,0,.08-.07a.21.21,0,0,1,.35,0s.08.06.08,0-.29-.22-.42-.07m1.86,0a2.75,2.75,0,0,0,.5.84,1.05,1.05,0,0,0-.19-.34c-.33-.49-.2-.8.15-.36.07.09.13.14.13.11,0-.21-.52-.43-.59-.25m3.28.12a.81.81,0,0,0-.15.24s0,0,.07,0c.19-.25.28-.33.38-.33s.16.09,0,.38a1.35,1.35,0,0,0-.16.28,1.63,1.63,0,0,0,.37-.64c-.06-.15-.31-.09-.49.12M4,37.08a2.65,2.65,0,0,0-1.18.41,2.59,2.59,0,0,0-1.17,2.64,2.81,2.81,0,0,0,.62,1.23c.11.13.43.47.71.76.46.49.67.73,1.19,1.37S5,44.3,5.3,44l.15-.16,0-2.29c0-1.27,0-1.88,0-1.36,0,1,0,1-.38,1.09a1.38,1.38,0,0,0-1.21,1.35v.3l-.16-.19c-.09-.11-.43-.45-.75-.77-1.15-1.14-1.47-2-1.12-3a2.63,2.63,0,0,1,2.86-1.78,3.85,3.85,0,0,0,.75,0,8.51,8.51,0,0,0-1.4,0m9.29,0h.42l.21.27.29.33s.23.26.42.5a3.81,3.81,0,0,0,.39.42s0-.1-.25-.33l-.6-.7-.46-.54h-.84l.42,0m2.48,0a10.38,10.38,0,0,0,0,1.14,4.83,4.83,0,0,1-.05,1.11s0,0,0,.05.13,0,.13-1.12V37.09l.49,0h.5l0,2,0,2v-2a10.45,10.45,0,0,0-.05-2,2.7,2.7,0,0,0-1,0m7.75,0c.67,0,1.28,0,1.35.07s.12,0,0,0a4.85,4.85,0,0,0-1.34-.07H22.31l1.21,0m2.83,0a.13.13,0,0,0,0,.11s0,0,0-.06.11-.08,1-.09l1,0h-1c-.87,0-1,0-1,.07m4.51,0a10.16,10.16,0,0,0-.05,2.09v2h1.07v-2c0-2.35.07-2.13-.54-2.13a2.14,2.14,0,0,0-.5,0m16.72,0a13.41,13.41,0,0,1,0,2c0,2.1,0,2.13-.26,2a25.63,25.63,0,0,1,0-4.11c.11,0,.18,0,.24,0m-34.77,2c0,1.12,0,2.06,0,2.09s.18.07.55.06l.5,0V40.11l0-1.13.2.21.21.22-.17-.21c-.27-.33-.27-.32-.3.88l0,1.1h-1l0-2,0-2.06v2m9.4-2c-.06.07,0,4,0,4.07a1.38,1.38,0,0,0,.52.06c.6,0,.59,0,.57-.79v0c0,.77,0,.77-.54.76s-.54.21-.53-2.09c0-1.11,0-2,0-2l0,0m6.33,0,.18,0c.05,0,0,0,0,0l-.17,0c-.05,0,0,0,0,0m3.3,2v2h-1l0-2c0-2.35-.07-2.11.51-2.09h.47v2m21.42-1.93s.07.06.14.1A2.21,2.21,0,0,1,54,38c0,.09.08.13.08.1a1.53,1.53,0,0,0-.42-.58c-.16-.15-.44-.32-.44-.27m3.56,0a3.15,3.15,0,0,0,.34.71,1.92,1.92,0,0,0-.17-.4,1.17,1.17,0,0,0-.17-.31m-38.63.14a3.13,3.13,0,0,0-.62.69c-.15.28-.1.28.07,0a2.48,2.48,0,0,1,.42-.48c.16-.14.26-.26.24-.26a.3.3,0,0,0-.11.06m7.12,0a1.15,1.15,0,0,1,.22.22c.1.11.1.11,0,0a.76.76,0,0,0-.22-.22c-.15-.1-.15-.1-.05,0m4.05.08a2.15,2.15,0,0,1,.7.75c0,.09.08.13.08.1a2.17,2.17,0,0,0-1-1s.08.08.22.18m3.68.06c-.13.13-.16.17-.06.09l.3-.25c.07,0,.1-.08.07-.08a1.31,1.31,0,0,0-.31.24m2.9,0a1.6,1.6,0,0,1,.24.21c0,.07.25.33.25.27a2.67,2.67,0,0,0-.67-.67s.05.08.18.19m10.26,0a2.75,2.75,0,0,1,.19.28c0,.09.08.12.08.07a.83.83,0,0,0-.19-.28c-.11-.11-.14-.14-.08-.07m4.59,0c-.11.11-.14.14-.07.09s.19-.15.26-.19.1-.09.07-.09a1,1,0,0,0-.26.19M45.3,37.4c.2.07.3.07.2,0a.54.54,0,0,0-.2,0h-.13l.13,0m6.39,0c-.07.05-.07.05,0,.05a.3.3,0,0,0,.15-.05c.07,0,.07,0,0,0a.44.44,0,0,0-.15,0m1,0a.33.33,0,0,0,.16.05c.06,0,.06,0,0-.05a.49.49,0,0,0-.16,0c-.06,0-.06,0,0,0m7.76,0a1.87,1.87,0,0,0,.52,0c1,0,1,0,.25,0a4.55,4.55,0,0,0-.77,0M21,37.64c.25.27.36.35.22.18a2.15,2.15,0,0,0-.37-.37c-.06,0,0,0,.15.19m55-.1.49.74a2.54,2.54,0,0,0,.42.57s0-.05,0-.07-.25-.34-.49-.71A5.84,5.84,0,0,0,76,37.4s0,.07.07.14m-30.3,0c.11.07.19.15.19.18a.06.06,0,0,0,.06.05c.08,0-.31-.36-.38-.36s0,.06.13.13M53,37.47a3.32,3.32,0,0,0,.53.33.8.8,0,0,0-.23-.18c-.23-.16-.3-.19-.3-.15m13.29.07a.18.18,0,0,0,0,.14q.09.06,0-.15c0-.1,0-.1,0,0m2.28.13a1.13,1.13,0,0,0,0,.24s0,0,.08-.14a.7.7,0,0,0,0-.24s0,0-.08.14m4.66.12c-.06.13-.12.29-.15.33a.37.37,0,0,0-.05.16s0,0,.07-.09l.18-.38a.78.78,0,0,0,.08-.25s-.07.09-.13.23m-2.07,0a1.12,1.12,0,0,0-.06.23s0,0,.08-.14a.82.82,0,0,0,.06-.24s0,0-.08.15m-30.53.08c-.06.11-.1.2-.08.2a.6.6,0,0,0,.11-.16l.08-.16.1.12.1.13-.08-.17c-.11-.21-.11-.21-.23,0m33.06-.1c0,.06-.05.12,0,.14s0,0,.06-.06.12-.11.12,0,0,.08,0,.08,0,0,0-.13-.1-.15-.19,0m.51-.08a1.74,1.74,0,0,0,.24.51,1.33,1.33,0,0,0-.12-.31c-.07-.14-.12-.23-.12-.2m4,.21a.81.81,0,0,0-.14.25,1.52,1.52,0,0,0,.18-.23c.21-.32.17-.33,0,0M40.08,38a.93.93,0,0,0-.09.28s.07-.09.14-.23a.93.93,0,0,0,.09-.28s-.07.09-.14.23m1.07-.23c0,.07.24.57.25.51a1.58,1.58,0,0,0-.13-.31c-.07-.14-.12-.23-.12-.2m9.8.09a1.82,1.82,0,0,0-.22.29c-.1.16-.1.17,0,0l.24-.27c.07-.08.12-.15.11-.16s-.07,0-.12.09m17.93-.09a.22.22,0,0,0,.07.12,1.87,1.87,0,0,1,.13.3c0,.12.08.21.09.2a1.42,1.42,0,0,0-.22-.6s-.07,0-.07,0m-18.46.14a2.71,2.71,0,0,0-.3.64c0,.05,0,0,.05,0a2.58,2.58,0,0,1,.29-.57s.07-.1.06-.12-.06,0-.1.09m15.93-.07a1.86,1.86,0,0,0,.15.54l.06.18c0,.07,0,.07,0,0a2.27,2.27,0,0,0-.12-.43c-.07-.2-.12-.33-.12-.29M32.63,38c0,.07-.05.12,0,.12A.44.44,0,0,0,32.7,38c0-.07.06-.13,0-.13s-.07.06-.11.13m13.44-.08a.74.74,0,0,0,0,.18c0,.06,0,.07,0,0a.49.49,0,0,0,0-.18c0-.06,0-.07,0,0M53.6,38a.66.66,0,0,1,.13.22.15.15,0,0,0,.1.08q.08,0,0,0a.1.1,0,0,1-.06-.09.37.37,0,0,0-.14-.18l-.14-.13.11.13m2.81,0c-.08.18-.06.22,0,0s.07-.15.05-.16,0,0-.08.11m10.34-.1c0,.14.09.25.1.14a.21.21,0,0,0,0-.15s0,0,0,0m-20.26.4a.78.78,0,0,0,0,.35,1.55,1.55,0,0,0,0-.7.78.78,0,0,0,0,.35m-25-.11c.06.13.11.22.12.21a.82.82,0,0,0-.19-.4s0,.07.07.19m4.32-.09c0,.18.07.22.07.09a.34.34,0,0,0,0-.17s-.05,0,0,.08M34.39,38h.3c.08,0,0,0-.16,0s-.23,0-.14,0m22.37,0a1.54,1.54,0,0,0,.24.48,1,1,0,0,0-.11-.27c-.07-.13-.13-.23-.13-.21m-38,.2a1,1,0,0,0-.38.94v0a1.12,1.12,0,0,1,.39-.93c.24-.23.23-.25,0,0m1.48,0a2.2,2.2,0,0,1,.29.32c0,.06,0,0,0,0a1.34,1.34,0,0,0-.41-.43c-.06,0,0,0,.12.16m3,.27a1.52,1.52,0,0,0,0,.48,1.38,1.38,0,0,0,0-.45v-.46h.48c.53,0,.72,0,.86.22s.08.08.07,0c-.05-.22-.33-.31-.91-.31h-.55v.48m4.11-.44a.7.7,0,0,0,.32,0,1.22,1.22,0,0,1,1.35.72c.1.24.11.13,0-.13a1.56,1.56,0,0,0-.71-.59,2.66,2.66,0,0,0-1,0m6.5.08a1.23,1.23,0,0,0-.41.51s.06,0,.14-.16a1.17,1.17,0,0,1,.36-.34c.13-.07.2-.13.16-.13a.91.91,0,0,0-.25.12m1.16,0c.26.17.3.19.3.16a1.62,1.62,0,0,0-.42-.28s0,.05.12.12M40.89,38a8.14,8.14,0,0,0,.45.93s-.1-.25-.22-.51a1.72,1.72,0,0,0-.23-.42m15,.1c-.09.19-.07.23,0,.06A.41.41,0,0,0,56,38s-.05,0-.08.11m12.5-.1a.2.2,0,0,0,0,.14c0,.1,0,.1.05,0s0-.19,0-.13m2.58.11s0,.08,0,.14,0,.09.05,0,0-.18,0-.12m5.05,0s.24.38.51.8l.49.74v.73a2.35,2.35,0,0,0,.06.79.28.28,0,0,0,.33,0s0-.05,0,0a.27.27,0,0,1-.18,0l-.13,0V39.67L76.63,39c-.42-.65-.65-1-.59-.82m-43.57.12a.36.36,0,0,0,0,.2c0,.06,0,.06,0,0a.26.26,0,0,1,.06-.16s0-.08,0-.09-.05,0-.09.07m36.17.27a1.41,1.41,0,0,0-.1.38s.08-.14.14-.34a1.78,1.78,0,0,0,.09-.38,1.27,1.27,0,0,0-.13.34m4.66,0a1.81,1.81,0,0,0-.15.37,1.46,1.46,0,0,0,.18-.34,2,2,0,0,0,.15-.38,1.7,1.7,0,0,0-.18.35m-16-.29a2.81,2.81,0,0,0,.17.4c.1.2.18.34.18.31a3.27,3.27,0,0,0-.17-.41c-.1-.19-.17-.33-.18-.3m16.73,0a3,3,0,0,0,.25.48,2.1,2.1,0,0,0-.23-.5l0,0m3.74.37a1.55,1.55,0,0,0-.21.37,4.32,4.32,0,0,0,.47-.73,1.73,1.73,0,0,0-.26.36m.5-.11c-.2.3-.25.43-.08.22a.68.68,0,0,0,.1-.17.55.55,0,0,1,.11-.16c.06-.06.1-.13.08-.14s-.11.09-.21.25M36.56,38.4c0,.16-.07.23-.39.29-.12,0-.12,0,0,0,.31,0,.49-.15.39-.37s0-.07,0,.06m9.53.1a.31.31,0,0,0,0,.16s0,0,.06-.11a.3.3,0,0,0,0-.16s0,0-.06.11m9.64,0c-.08.15-.11.29-.06.23a1.34,1.34,0,0,0,.16-.39s-.06.07-.1.16m13.81-.13a3.71,3.71,0,0,0,.25.69,3.39,3.39,0,0,0-.23-.72s0,0,0,0m1.73.17c-.11.34-.2.62-.24.73s0,.09,0,.05a1.55,1.55,0,0,0,.14-.35,4.19,4.19,0,0,1,.13-.41.25.25,0,0,0,0-.18s0,0-.08.16m-41.1,0c0,.2.07.21.07.06a.23.23,0,0,0,0-.17s0,0,0,.11m-8.57,0c0,.19.07.23.07.1a.34.34,0,0,0-.05-.17c0-.06,0,0,0,.07m52.91-.11a4.41,4.41,0,0,0,.35.72,1.52,1.52,0,0,0-.12-.32,1.58,1.58,0,0,1-.13-.31.12.12,0,0,0,0-.08h0m-39.05.08a.32.32,0,0,0,.51.21c.05,0,0,0-.15,0s-.23,0-.29-.12-.06-.1-.07-.06m4.29.14a.61.61,0,0,0-.06.21s.06-.06.11-.17.07-.2.05-.21-.06.06-.1.17M57,38.54a1.14,1.14,0,0,0,.18.33s0-.07,0-.16-.13-.23-.13-.17m-24.66.06a4.09,4.09,0,0,0,0,1,1.72,1.72,0,0,0,0-.53c0-.3,0-.55,0-.55l0,0m7.84.1c-.09.18-.07.22,0,0a.34.34,0,0,0,.06-.16s-.05,0-.08.11m10.26,0a2.6,2.6,0,0,0,0,.84c0,.07,0-.13,0-.44,0-.62,0-.62,0-.4m-33.16.16a2.34,2.34,0,0,0,.12,1c.05.08.06.08,0,0a3,3,0,0,1-.09-1,1,1,0,0,0,0-.27.94.94,0,0,0-.06.27m38.71,0c-.06.14-.16.35-.21.45a.6.6,0,0,0-.07.19,4.83,4.83,0,0,0,.42-.89.86.86,0,0,0-.14.25m-31.36-.12a.54.54,0,0,1-.27.14c-.11,0-.16,0-.12.05a.55.55,0,0,0,.45-.19q.12-.2-.06,0m1.15-.07s0,.1,0,.16,0,.08,0,0a.19.19,0,0,0,0-.15c0-.05,0-.07,0,0m24.26,0a1.93,1.93,0,0,0,0,.76s0-.14,0-.39c0-.49,0-.49,0-.37m-29.43.33c0,.32,0,.35,0,.21a.7.7,0,0,0,0-.38c-.05-.2-.05-.19-.05.17m12.79-.26a.24.24,0,0,0,0,.14s0,0,.06-.09a.2.2,0,0,0,0-.13s0,0-.06.08m8.2-.07c0,.07.24.57.24.5a1.16,1.16,0,0,0-.12-.3c-.07-.14-.12-.23-.12-.2m4.81,0a.85.85,0,0,1-.18.29c-.1.11-.15.2-.11.18s.35-.42.32-.49,0,0,0,0M15.33,39a3.24,3.24,0,0,0,.24.25s-.05-.11-.22-.3a.47.47,0,0,1-.12-.17,0,0,0,0,0-.05,0s0,.12.15.26m51.73-.21a2.27,2.27,0,0,0,.12.43c.06.2.12.32.12.28a2.5,2.5,0,0,0-.12-.43c-.06-.19-.12-.32-.12-.28m5.58.21a.81.81,0,0,0-.1.28s.08-.1.14-.24c.14-.34.11-.37,0,0m-26.81-.11a1.76,1.76,0,0,1-.2.13c-.08,0-.12.08-.07.08a.74.74,0,0,0,.25-.13c.09-.07.15-.13.12-.13a.16.16,0,0,0-.1.05m-15.58.23c0,.22,0,.24.05.12a.36.36,0,0,0,0-.25c0-.1-.05-.08-.05.13m47.5.09c-.12.17-.18.29-.14.25a2.24,2.24,0,0,0,.37-.57,2.48,2.48,0,0,0-.23.32m-52.16-.06c-.07.11-.14.2-.17.2a0,0,0,0,0,0,.06c0,.09.35-.31.35-.4s0-.08-.14.14m14-.1a.4.4,0,0,0-.06.16s0,0,.08-.08.08-.23,0-.08m28.5,0a.52.52,0,0,0-.06.22.25.25,0,0,1-.06.15.17.17,0,0,0,0,.14c0,.06,0,0,.09-.13s.09-.28.12-.34.05-.13,0-.14,0,0-.08.1m-12.73.28a2,2,0,0,0-.15.39,1.7,1.7,0,0,0,.18-.35,2,2,0,0,0,.15-.38,1.3,1.3,0,0,0-.18.34m2.27-.32a1.59,1.59,0,0,0,.2.36,1.28,1.28,0,0,0-.17-.39,0,0,0,0,0,0,0m-13.89.08a4.83,4.83,0,0,0,1.64,0,3.56,3.56,0,0,0-.73,0c-.66,0-.83,0-.87-.05s0,0,0,0m33.44,0c.07.11.1.13.16.08s.09-.11,0-.07-.1,0-.16-.06l-.1-.09.09.14m-22.89.11a2.19,2.19,0,0,1,0,.28c0,.11,0,.12,0,0a.57.57,0,0,0,0-.28c0-.16,0-.17,0,0m3-.11a1.52,1.52,0,0,0,.23.44s-.08-.24-.17-.38-.06-.08-.06-.06m12.48,0c0,.13.09.25.09.14a.19.19,0,0,0,0-.15s0,0,0,0m4.66,0a.82.82,0,0,0,.09.24.94.94,0,0,1,.12.26c0,.1,0,.09,0,0a1,1,0,0,0-.12-.33c-.06-.13-.12-.2-.12-.17M52,39.29a5.63,5.63,0,0,0,.9,0c1.15,0,1.1,0,.87.63,0,.09,0,.09,0,0a1.42,1.42,0,0,0,.17-.63c0-.05-.24-.07-1-.08a5.81,5.81,0,0,0-1,0m14.82,0a.21.21,0,0,0,0,.15c.06,0,.06,0,0-.16s0-.09,0,0m-33.41,0a.3.3,0,0,0,0,.15c0,.07,0,.07,0,0a.42.42,0,0,0,0-.15c0-.07,0-.07,0,0m29.73.76c0,.46,0,.65,0,.42s0-.61,0-.84,0,0,0,.42m-34-.63a.48.48,0,0,0,0,.16s0,0,.06-.12a.27.27,0,0,0,0-.15s0,0-.06.11m40.39-.09a3.48,3.48,0,0,0,.23.71,2.5,2.5,0,0,0-.1-.4c-.07-.21-.13-.35-.13-.31m1.07.17a.76.76,0,0,0,0,.25s0,0,.07-.13a.7.7,0,0,0,.06-.24s0,0-.08.12m1.79.12a1.76,1.76,0,0,0-.12.32,1.52,1.52,0,0,0,.23-.43c.12-.28,0-.19-.11.11m-36.83-.13a.41.41,0,0,0-.05.16s0,0,.08-.08.09-.14.36-.11.25,0,.19,0-.53-.06-.58.05m6-.09a1,1,0,0,0,.07.2c0,.09.08.14.08.09s-.15-.36-.15-.29m-19.92.1a1.16,1.16,0,0,1,0,.18q0,.11,0,0a.23.23,0,0,0,0-.17c0-.07,0-.09,0,0m3.43.08c-.29.15-.3.2-.06.42s.16.13.12.08S25,40,25,39.93s-.12-.19,0-.2a.58.58,0,0,0,.24-.12c.18-.15.17-.15-.14,0m45.9-.1a1.31,1.31,0,0,1,0,.15q0,.11,0,0a.16.16,0,0,0,0-.15s0-.07,0,0m-56.49.09c.11.13.44.5.73.8s0,0-.22-.28a7,7,0,0,0-.53-.58s0,0,0,.06m21.91,0c.17,0,.17,0,.17.23s0,.18,0,.1c.11-.26,0-.38-.25-.37-.11,0-.1,0,.05,0m30.52,0a2.78,2.78,0,0,0,.24.71,1.86,1.86,0,0,0-.11-.4c-.07-.21-.12-.34-.13-.31m-36.7.07a1.16,1.16,0,0,1,0,.18q0,.1,0,0a.23.23,0,0,0,0-.17c0-.07,0-.08,0,0m25.43,0c0,.06,0,.11,0,.13s.09,0,.07-.13,0-.09-.06,0m12.55.3c-.15.49-.14.56,0,.1a1.76,1.76,0,0,0,.11-.42s-.07.12-.13.32m-34.69-.29c0,.09.31.43.47.51s.12,0,.06,0a3,3,0,0,1-.47-.48c0-.05-.06-.07-.06,0m33.82,0c0,.13.09.24.1.13a.18.18,0,0,0,0-.14s0,0,0,0m-38.46.24a2.76,2.76,0,0,1-.31.27c-.05,0-.07.06,0,.06a2.11,2.11,0,0,0,.58-.52s-.12.07-.23.19m21.27-.17a1.13,1.13,0,0,0,.11.3c.12.25.29.5.29.41a.1.1,0,0,0-.05-.08,3.14,3.14,0,0,1-.31-.64c0-.06,0-.06,0,0m7.81,0a.53.53,0,0,0,.07.18c0,.07.08.1.08.07a.74.74,0,0,0-.08-.17c0-.07-.07-.11-.07-.08m-37.55.13c-.05,0-.08.11-.07.12s.07,0,.11-.1.09-.16,0,0m12.05,0c0,.1.19.52.23.48a.37.37,0,0,0-.08-.2,1.75,1.75,0,0,1-.12-.27c0-.09,0-.09,0,0m42.64,0a2.36,2.36,0,0,0,.25.48,2.1,2.1,0,0,0-.23-.5l0,0m-39.69.11a.73.73,0,0,1-.22.21c-.11.07-.19.15-.18.16s.37-.23.43-.34,0-.1,0-.1,0,0-.06.07m6.79.18a.87.87,0,0,0,.12.24,1.41,1.41,0,0,0-.2-.49s0,.11.08.25m-18.56-.11a3.11,3.11,0,0,0,.29.31c.19.2.18.18,0-.09s-.42-.45-.24-.22m46.82,0a.55.55,0,0,0,0,.17s0,0,0-.06,0-.24,0-.11m-40.38.12a2.28,2.28,0,0,1-.63.72c-.11.07-.18.13-.17.14s.93-.79.88-1c0,0,0,0-.08.1m-10,0c-.11.07-.18.12-.15.12a1,1,0,0,0,.38-.23s0,0-.23.11m19.05.11a2.12,2.12,0,0,0-.11.29s.06-.07.13-.22A1.09,1.09,0,0,0,39.2,40a.64.64,0,0,0-.13.22m11.61-.14a2,2,0,0,0,.62.61s0,0,0-.07a3.17,3.17,0,0,1-.53-.52c-.1-.13-.1-.13,0,0m3.33.12a2.23,2.23,0,0,1-.3.42c-.14.15-.17.2-.09.14a1.7,1.7,0,0,0,.49-.69s0,0-.1.13m18.07.06c-.15.31-.13.36,0,.06a.79.79,0,0,0,.1-.27s-.07.08-.13.21m-50.73,0a1.64,1.64,0,0,1-.15.22,1.93,1.93,0,0,0-.16.19l-.1.12.12-.1a1.85,1.85,0,0,0,.4-.56s-.06,0-.11.13m18.17-.06c-.06.07-.06.08,0,0a10.59,10.59,0,0,1,2.32,0s.06,0,.06,0a5.93,5.93,0,0,0-2.38,0m15.87,0c-.08.15-.06.19,0,.06s.1-.11,1.19-.11h1.12l0,.13c.06.14.12.17.07,0s-.09-.22-1.26-.22-1.14,0-1.19.1m15.37,0a.58.58,0,0,1,0,.18c0,.07,0,.08,0,0a.21.21,0,0,0,0-.18c0-.06,0-.08,0,0m1.78,0c-.1.1-.07.17,0,.07s.23-.08,1.22-.07a7.85,7.85,0,0,0,1.09,0,13.09,13.09,0,0,0-2.34,0m-45.14.1c0,.1.6.13.86,0,.08,0-.06,0-.32,0s-.46,0-.49,0-.05-.06-.05,0m7,.06a.62.62,0,0,0,.33,0c.15-.05.13-.06-.17-.06s-.31,0-.16.06m18.93.17c-.13.13-.18.21-.13.18a1.44,1.44,0,0,0,.37-.33c.13-.17,0-.07-.24.15m14.19-.2c0,.11.1.27.16.24a.19.19,0,0,0,0-.12c0-.07,0-.07,0,0s0,0-.09,0,0-.09-.06-.06m-59,.18-.15.16.17-.15c.15-.14.18-.18.15-.18a1.2,1.2,0,0,0-.17.17m46.35,0c0,.1-.12.27-.16.36a.36.36,0,0,0-.06.19s.08-.1.14-.27a2.27,2.27,0,0,1,.17-.35s0-.08,0-.1-.07.06-.11.17m-37.12,0a1.16,1.16,0,0,0,.36.37c.06,0,0,0,0-.07a3.07,3.07,0,0,1-.26-.25c-.06-.07-.09-.09-.06-.05m7.86.28a1.58,1.58,0,0,1,.31.43,2.27,2.27,0,0,1-1.23,0L24.54,41l.14.13c.14.13.17.14.72.14.71,0,.72,0,.28-.51a3.43,3.43,0,0,1-.31-.37,0,0,0,0,0-.05,0s.09.17.28.38m7.23-.2c.12.16.45.45.48.42a1.43,1.43,0,0,0-.27-.27c-.16-.14-.25-.2-.21-.15m25.05,0a.34.34,0,0,0,.07.17c.1.13.1.08,0-.11s-.07-.11-.07-.06m12.76,0a2.27,2.27,0,0,1-.06.25c0,.08,0,.06,0,0a.59.59,0,0,0,.06-.25s0,0,0,0m-46.4.12a.69.69,0,0,0,.19.18s0-.08-.1-.17a.66.66,0,0,0-.19-.18s0,.07.1.17m11.81,0-.15.19.17-.17c.1-.09.16-.17.15-.18s-.09.06-.17.16m6-.17a1,1,0,0,0,.1.27,1.36,1.36,0,0,1,.1.26c0,.09.16.21.3.21s.22-.1.15-.21,0,0,0,0,0,.12-.13.11-.16,0-.35-.45c-.06-.15-.12-.26-.12-.23m16.27,0a2.9,2.9,0,0,0,.13.32c.17.36.06.53-.19.3s-.13,0,0,.08c.26.26.45,0,.29-.37-.1-.24-.2-.4-.2-.33m-19.09.36c-.17.36-.4.48-.44.23s0-.1,0,0,.17.2.32.1a2.3,2.3,0,0,0,.32-.65,1,1,0,0,0-.17.29m11.46-.22c.1.12.38.34.38.3l-.24-.22c-.13-.1-.2-.14-.14-.08m21.64,0c-.09.2-.08.28,0,.1a.49.49,0,0,0,.07-.19s-.05,0-.08.09m2.83,0a.61.61,0,0,0,.41.53c.21,0,.26-.08.14-.25s0,0,0,0c.08.3-.28.19-.42-.12-.06-.14-.1-.22-.11-.2m-54.41.16c-.25.18-.26.21,0,.07a.61.61,0,0,0,.21-.16s0-.06-.2.09M15.66,41a2.88,2.88,0,0,0,.23.24,2,2,0,0,0,.88,0,.93.93,0,0,0-.38,0H16L15.75,41c-.2-.18-.21-.18-.09,0m36-.1c.14.06.19.06.16,0a.19.19,0,0,0-.15-.05c-.1,0-.1,0,0,.05m1,0q-.06.09.15,0c.1,0,.1,0,0-.05a.18.18,0,0,0-.14.05m17.32,0a.58.58,0,0,0,.08.24.27.27,0,0,0,.52-.08s0,0-.08.07-.3.19-.43-.08S70,40.8,70,40.84m-51.73,0c0,.22,1.34.51,1.7.37.06,0-.06,0-.28,0A2.09,2.09,0,0,1,18.45,41c-.13-.07-.23-.11-.23-.09m33.89,0a1,1,0,0,0,.25,0c.07,0,0,0-.14,0s-.19,0-.11,0m13.58.1v.17H64.24a7.15,7.15,0,0,1-1.46-.06s0,0,0,0a5.27,5.27,0,0,0,1.47.07c1.57,0,1.54,0,1.49-.25,0-.09,0-.07,0,0m-30.2,0a1,1,0,0,1-.3.1c-.09,0-.09,0,0,0a1.2,1.2,0,0,0,.54-.21s0,0-.23.08m17.65,0a2.19,2.19,0,0,1-1.78,0c-.07,0-.09,0,0,0a2.21,2.21,0,0,0,.92.22A2.07,2.07,0,0,0,53.31,41s0,0-.17.06m14.22,0c0,.11.1.2.25.2s.26-.08.26-.17,0,0-.08,0a.23.23,0,0,1-.39-.08c0-.06,0-.06,0,0m-47.16.07c-.11,0-.14.07-.07.07a.55.55,0,0,0,.22-.07c.16-.09.09-.09-.15,0m8.61-.05a.87.87,0,0,1-.28.07c-.2,0-.21,0-.06.05s.61-.14.45-.14l-.11,0m4.8,0a2.39,2.39,0,0,0,1.37.17c.06,0-.07,0-.28,0a2.54,2.54,0,0,1-1-.16c-.07,0-.08,0,0,0m21.38,0c0,.09-.25.14-.34.06s-.07,0,0,0,.29.11.38,0,0-.09,0-.11,0,0,0,0m16.74,0c0,.12.27.17.36.08s0-.05-.09,0-.16,0-.22-.06-.07-.09,0,0M7,41.14h.18s0,0-.09,0-.14,0-.09,0m19.37,0c0,.07.17.08,1,.08h0a2.76,2.76,0,0,1-1-.08s0,0,0,0" transform="translate(0 0)"/><path id="path4" class="cls-7" d="M19.11,37c-.09,0,.08,0,.38,0s.47,0,.38,0a2,2,0,0,0-.38,0,2.17,2.17,0,0,0-.38,0m15,0c-.07,0,.11,0,.4,0s.48,0,.41,0a2.15,2.15,0,0,0-.41,0,2,2,0,0,0-.4,0m17.69,0c-.07,0,.12,0,.41,0s.47,0,.4,0a2,2,0,0,0-.4,0,2.07,2.07,0,0,0-.41,0m-11.31.09c-.06.08-.06.08,0,0s.26,0,.32.14a1.43,1.43,0,0,0,.23.45.5.5,0,0,0-.08-.22,2.19,2.19,0,0,1-.1-.26c0-.18-.29-.27-.41-.13m2.87,0s0,1,0,2.07v2h.25l0-.77c0-.94-.06-.87.92-.89l.79,0h-.82c-1,0-.93-.08-.93.89,0,.74,0,.77-.1.77s-.1,0-.1-2v-2h.92l.93,0h-.93c-.71,0-.93,0-1,0m3.94,0a25.63,25.63,0,0,0,0,4.11c.24.09.25.06.26-2s0-2.19-.28-2.07m9.09.05c-.11.11-.1.15,0,0s.18-.1.28,0,.08,0,.08,0-.26-.2-.38-.08m2.06,0c-.26.17,0,.24.76.24H60l-.78,0c-.7,0-.77,0-.76-.1s.15-.09,1.75-.09c.95,0,1.72,0,1.71,0s-3.37-.05-3.46,0m4.28,0s0,1,0,2v2l0-2,0-2h1.43c.78,0,1.41,0,1.4,0a15.39,15.39,0,0,0-2.88,0m3.46-.05a.18.18,0,0,0,0,.11c0,.06,0,.06.07,0a.14.14,0,0,1,.16-.07s.07,0,0,0-.19-.07-.24,0m2.58,0a.14.14,0,0,0-.07.13c0,.06,0,.06,0,0s.22-.17.32,0,.09.09.09.06a.22.22,0,0,0-.37-.14m2.62,0a1.19,1.19,0,0,0-.2.58s0-.06.09-.21c.08-.32.16-.41.3-.32s.09,0,.07,0-.16-.1-.26,0m2.13,0a1.81,1.81,0,0,0-.15.29,2,2,0,0,1-.13.3.09.09,0,0,0,0,.09s.06,0,.1-.14c.28-.6.25-.56.42-.53s.13,0,.08,0a.22.22,0,0,0-.29,0m1.92,0q0,.12,0,0c.06-.24.22-.09.7.64.26.41.49.74.5.74A10.85,10.85,0,0,0,76,37.43c-.26-.39-.53-.53-.51-.27M79,37.08c.12,0,.15.09.06.14a.12.12,0,0,0,0,.1s0,0,.08-.06.06-.21-.1-.21-.11,0,0,0M4.5,37.14h.58c.16,0,0,0-.29,0s-.45,0-.29,0m8.36,2v2h.46a1.84,1.84,0,0,0,.49,0,1.19,1.19,0,0,0-.44,0H12.9v-4h.79l.5.6a5.53,5.53,0,0,0,.55.61,5.14,5.14,0,0,0-.57-.7l-.25-.3-.22-.26h-.85v2m3.41-2h.48v4h-.39l-.38,0-.21-.24c-.12-.13-.21-.21-.21-.19a.89.89,0,0,0,.22.26l.22.22h.4l.4,0V37.12h-1l.48,0m6,0s0,.93,0,2c0,2.28-.06,2.06.55,2.06s.51,0,.51-.75c0-.44,0-.62.07-.64s0,0,0,0-.08.07-.1.67v.67h-.91l0-1.88c0-1,0-1.93,0-2l0-.12,1.24,0a8.21,8.21,0,0,0,1.16,0c-.12,0-2.42,0-2.47,0m4.28,0c.39,0,2.07,0,2,0a11.12,11.12,0,0,0-1.13,0,6.37,6.37,0,0,0-.86,0m4.33,0s0,1,0,2l0,2h1V37.12h-.47c-.35,0-.48,0-.5,0m2.87,0c-.1.06,0,.06.18,0l.1,0h-.1a.35.35,0,0,0-.18,0m1.45,0q.2.09.15,0a.18.18,0,0,0-.14,0c-.11,0-.11,0,0,0m10.49,0a1.47,1.47,0,0,1,.67.54c0,.06.06.08.06.05,0-.19-.64-.69-.89-.68-.05,0,0,0,.16.09m1.88,1.94c0,2,0,2-.1,2s-.11,0-.12-2c0-2.07,0-2.1.13-2.07s.09.15.09,2m5.32-2q.21.09.15,0s-.08,0-.14,0-.11,0,0,0M3.67,37.2c-.11,0-.1,0,.08,0a1.08,1.08,0,0,0,.3,0c.14-.06-.2-.06-.38,0M31.8,39.14v2h-.45l-.44,0v-4h.91v2M18.44,37.27a1.06,1.06,0,0,0-.18.13c-.05.05.3-.12.37-.18s-.08,0-.19.05m2.14.08a3,3,0,0,1,.78.74s.05.07.05,0a2.52,2.52,0,0,0-1-.92s.06.07.2.15m4.47-.05a1.83,1.83,0,0,1,.43.34c.2.23.21.17,0-.07a1.35,1.35,0,0,0-.57-.37s0,0,.13.1m3.82,0a1.76,1.76,0,0,1,.3.14.11.11,0,0,0,.09,0s-.41-.24-.53-.24,0,0,.14.08m4.55,0c-.2.13-.24.18-.06.09s.31-.19.25-.19l-.19.1m2-.06a1,1,0,0,1,.22.12.31.31,0,0,0,.17.08s-.32-.24-.4-.24,0,0,0,0m17.8,0a2.36,2.36,0,0,1,.51.41c.18.19.28.27.22.18a2,2,0,0,0-.84-.68s0,0,.11.09m20.64-.08a4.16,4.16,0,0,0,.34.73,1.71,1.71,0,0,0-.16-.39,1.36,1.36,0,0,0-.18-.34m4.46.52a4.16,4.16,0,0,0-.32.53,8.06,8.06,0,0,0,.7-1.06s-.18.24-.38.53m-75-.43c-.1,0-.1,0,0,.05s.13,0,.14-.05,0-.06-.15,0m23,1.88c0,1.07,0,1.51,0,1s0-1.41,0-1.95,0-.1,0,1m14-1.67a.75.75,0,0,0-.1.28.66.66,0,0,0,.14-.24c.06-.14.11-.26.09-.28a.75.75,0,0,0-.13.24m3.35-.15a6.92,6.92,0,0,0,0,1.82s0-.24,0-.88v-.95h.84c.93,0,1.16.06,1.42.37.07.08.12.12.12.1s-.34-.36-.54-.44a6.27,6.27,0,0,0-1.88,0m7.92,0c-.12.06-.12.07,0,0l.38-.07.25,0H52a1.12,1.12,0,0,0-.38.07m.92,0,.38.07c.08,0,.06,0,0,0a.92.92,0,0,0-.38-.07h-.21l.26,0m7.85,0s0,.9,0,1.92l0,1.85V37.35h.8l.8,0h-.8c-.6,0-.81,0-.83,0m2.75,0a4.43,4.43,0,0,0,.82,0c1.6,0,1.76,0,.48,0-.7,0-1.29,0-1.3,0m12.7.42a3.8,3.8,0,0,0,.32.45,5.85,5.85,0,0,0-.59-.91,2.06,2.06,0,0,0,.27.46M3,37.46c-.22.1-.45.3-.41.34s.07,0,.12-.07a.81.81,0,0,1,.28-.2l.22-.14s0,0-.21.07m47.69.19a1.47,1.47,0,0,0-.31.38s.06,0,.12-.09a2,2,0,0,1,.47-.48s.08-.07.06-.09-.17.11-.34.28m9.4,1.63v1.9h.13c.11,0,.11,0,0,0l-.11,0,0-1.89v0m9.11-1.83a.47.47,0,0,0,0,.16c0,.06,0,.06,0,0a.33.33,0,0,0,0-.16c0-.06,0-.06,0,0m9.36.49c-.44.68-.4.68.07,0a2.93,2.93,0,0,0,.31-.53,4.47,4.47,0,0,0-.38.54m-60.63-.26a1.93,1.93,0,0,0-.2.23,1.21,1.21,0,0,0,.25-.23,1.31,1.31,0,0,0,.2-.23l-.25.23m15,0a1.84,1.84,0,0,0-.4.56s.08-.08.18-.22a2.2,2.2,0,0,1,.31-.37c.08-.06.13-.12.11-.13s-.1.06-.2.16m20.09-.17c.08.08.42.29.36.21a.91.91,0,0,0-.23-.16c-.09,0-.14-.07-.13-.05m10,.69c0,.41,0,.57,0,.37s0-.53,0-.73,0,0,0,.36m3.53-.61a.33.33,0,0,0,.05.16c0,.06,0,.06,0,0a.33.33,0,0,0,0-.16c-.05-.06-.05-.06-.05,0m-36.94.21.22.2s-.06-.09-.17-.2l-.22-.21s.06.1.17.21m41.77.15a1.65,1.65,0,0,0-.11.42,1,1,0,0,0,.12-.32,1.89,1.89,0,0,0,.11-.42,1.4,1.4,0,0,0-.12.32m-30.78-.24a5.12,5.12,0,0,0-.41.88,2.36,2.36,0,0,0,.22-.41c.23-.53.25-.54.37-.3s.14.19,0-.06-.12-.21-.2-.11m15.81.14c-.06.11-.1.22-.08.24s0,0,0,0a.83.83,0,0,1,.1-.22l.11-.18.09.18c.06.1.1.16.1.14a.74.74,0,0,0-.19-.34s-.1.09-.16.2m12.35,0a.94.94,0,0,0-.07.29s.06-.09.09-.22.07-.23.16-.12.09.09.09,0c0-.26-.19-.25-.27,0m4.83-.14c0,.1,0,.1,0,0s.12-.11.19.07.07.14.09.13-.14-.33-.19-.33-.07,0-.11.11m-5.09,0a.2.2,0,0,0,0,.13s0,0,.06-.08a.24.24,0,0,0,0-.14s0,0-.06.09m.74,0a1.47,1.47,0,0,0,.07.26c0,.11.07.16.08.12a1,1,0,0,0-.08-.26c0-.09-.07-.15-.07-.12m-33,.18c.15.23.15.23.15.17a.84.84,0,0,0-.13-.2l-.13-.15.11.18m14.51,0a1.37,1.37,0,0,0-.31.58s0,0,.07-.11A4.53,4.53,0,0,1,50.8,38c.21-.29.2-.32,0,0m2.73-.15a.46.46,0,0,0,.13.16c.1.09.12.1.07,0s-.2-.24-.2-.19m3.5,0a3.27,3.27,0,0,0,.17.41c.09.19.17.33.17.3a1.92,1.92,0,0,0-.17-.4,1.17,1.17,0,0,0-.17-.31m14.12.08c0,.06,0,.12,0,.13s0,0,.06-.08a.2.2,0,0,0,0-.13s0,0-.06.08m-68.87.19c-.22.27-.45.67-.38.67s.06-.06.08-.13.05-.12.08-.12.05,0,.05-.08a.45.45,0,0,1,.11-.2c.19-.19.3-.34.28-.36s-.11.08-.22.22M19,37.94a1.55,1.55,0,0,0-.56.49s.07,0,.15-.13a1.18,1.18,0,0,1,1.93.24c.05.11.1.18.1.14,0-.54-1-1-1.62-.74m27.4.35c0,.23,0,.39,0,.34a1.94,1.94,0,0,0,0-.68c0-.05,0,.1,0,.34M73.5,38a.32.32,0,0,0,0,.16s0,0,.08-.08.07-.23,0-.08m-47.79.1a2.09,2.09,0,0,1,0,.79c0,.13,0,.13,0,0a1,1,0,0,0,0-.73c-.07-.2-.07-.2,0,0m8.46-.1c-.06,0,0,0,.23,0a1.87,1.87,0,0,0,.35,0,1.51,1.51,0,0,0-.58,0m12,.08c0,.2.07.22.07.06a.25.25,0,0,0-.05-.17s0,0,0,.11m9.79.16a.78.78,0,0,0-.11.31s0,0,.07-.1L56,38.1c.13-.3,0-.22-.09.1M23.59,38h.53c.15,0,0,0-.27,0s-.41,0-.26,0m3.78,0s0,.58,0,1.21l0,1.14h.35a1.67,1.67,0,0,0,.58-.06c.13,0,.18-.06.11,0s-.33,0-.57.06l-.45,0V38l.39,0,.4,0h-.4c-.28,0-.4,0-.42.05m7.55,0a.91.91,0,0,1,.54.48.74.74,0,0,0,.17.26s0-.08-.1-.23-.47-.56-.64-.56-.09,0,0,0m-11.65.5V39h.55a2.35,2.35,0,0,0,.7,0c.13,0,.33-.28.28-.33s-.05,0-.08.1-.3.23-.9.23H23.3l0-.48,0-.48v.5m1.28-.4a.61.61,0,0,1,.21.22c0,.08,0,.09,0,0s-.27-.35-.37-.35,0,.05.11.1m5.41,0c0,.09.09.17.11.17s0-.09-.09-.21l-.1-.12.08.16m3.94-.08c-.06,0-.11.08-.11.1s.06,0,.13,0,.18-.15,0-.06m40.1.08c0,.09.08.18.11.19s0,0,0-.11-.15-.27-.09-.08m-56.47.08a1.09,1.09,0,0,0-.16.48s0,0,.08-.17.11-.28.13-.32,0-.07,0-.09,0,0-.07.1m11-.11c.46.42.52.47.41.31a1,1,0,0,0-.28-.25l-.13-.06m27.64.2a.93.93,0,0,0-.11.27s.06-.06.13-.19c.15-.31.14-.37,0-.08m10.6-.16a1.68,1.68,0,0,0,.12.43c.06.2.12.32.12.28a3,3,0,0,0-.24-.71m-33.21.19a1.28,1.28,0,0,0-.19,1.19c.05.1.07.12.05,0a1.38,1.38,0,0,1,.21-1.25c0-.06.07-.12,0-.12a.67.67,0,0,0-.12.14m40.76-.12a3.81,3.81,0,0,0,.33.73,2.21,2.21,0,0,0-.15-.4,2.07,2.07,0,0,0-.18-.33m-34.48.29c-.14.35-.11.38,0,0a.88.88,0,0,0,.1-.28s-.08.09-.14.23m1.47-.23a3.27,3.27,0,0,0,.17.41c.1.19.17.33.17.3a1.6,1.6,0,0,0-.17-.41c-.09-.19-.17-.33-.17-.3m34.88.05a.63.63,0,0,0,.13.2l.08.1,0-.1-.13-.2-.08-.1,0,.1m-30.06.08a.93.93,0,0,1-.66.72c-.21.08-.21.09-.06.06.37-.05.8-.51.75-.79,0-.12,0-.12,0,0m23-.08a3.27,3.27,0,0,0,.25.66,1.24,1.24,0,0,0-.1-.34c-.11-.32-.15-.4-.15-.32m3.66.34a1.65,1.65,0,0,0-.14.38,1.7,1.7,0,0,0,.18-.35,1.65,1.65,0,0,0,.14-.38,1.7,1.7,0,0,0-.18.35m5-.18a.45.45,0,0,0-.1.17.9.9,0,0,0,.23-.33s-.07.06-.13.16m-7,.23c-.16.5-.14.57,0,.1a1.65,1.65,0,0,0,.11-.42s-.07.12-.13.32m-56-.17.13.16.28.33c.32.39.36.43.42.43s-.06-.11-.19-.24l-.49-.52c-.13-.16-.2-.23-.15-.16m6.62-.07a.35.35,0,0,0,.05.18c.07.1.07,0,0-.18l0-.1v.1m15,0s-.1.09-.19.11-.14,0-.11.06.37-.09.37-.17,0-.09-.07,0M57,38.44a.53.53,0,0,0,.07.18c0,.07.07.1.07.08a.53.53,0,0,0-.07-.18c0-.07-.07-.11-.07-.08m9.58,0a4.13,4.13,0,0,0,.12.43c.07.19.13.32.13.28a3.53,3.53,0,0,0-.12-.43c-.07-.2-.13-.32-.13-.28m-25.45,0a9.09,9.09,0,0,0,.54,1.12,3.92,3.92,0,0,0-.27-.61,3.22,3.22,0,0,0-.27-.51m-8.75.18c0,.09,0,.17,0,.18s0,0,.06-.13a.38.38,0,0,0,0-.18s0,0-.06.13m17.69.22a2.68,2.68,0,0,0,0,.57c0,.21,0,.17,0-.32,0-.65,0-.7-.06-.25m18.17-.22a2.27,2.27,0,0,0-.06.25c0,.08,0,.06,0,0a.53.53,0,0,0,.07-.26s0,0,0,.05m-39.15,0a2.34,2.34,0,0,1,0,.46,2.23,2.23,0,0,1,0,.45c0,.1,0,.09,0,0a1.29,1.29,0,0,0,.07-.43,1.2,1.2,0,0,0-.07-.43c-.06-.12-.06-.13,0,0M40,39a1.58,1.58,0,0,0-.13.35s.06-.06.11-.17l.15-.36c0-.09.07-.16.05-.16A2.28,2.28,0,0,0,40,39M50.4,38.7a3.15,3.15,0,0,0,0,.87s0-.17,0-.45c0-.54,0-.54-.05-.42m22.54.48a3.22,3.22,0,0,0-.23.61,12.6,12.6,0,0,0,2,0s0-.07,0-.12-.05-.06-.05,0-.08.09-1,.09a7.51,7.51,0,0,1-1,0L73,39.2a4.4,4.4,0,0,0,.24-.56,3.66,3.66,0,0,0-.29.54m-37.15-.46c-.13.06,0,.06.18,0s.11,0,0,0a.78.78,0,0,0-.21,0m38.46,0a1.43,1.43,0,0,0,.18.35s0,0,0-.09-.17-.31-.17-.26m-44,.47c0,.25,0,.36,0,.24a3.38,3.38,0,0,0,0-.45c0-.14,0,0,0,.21m40.93-.33c0,.06,0,.12,0,.14s0,0,.06-.09a.2.2,0,0,0,0-.13s0,0-.06.08m-52.83.12a1,1,0,0,0,0,.34c0,.15,0,.12,0-.17s0-.43-.06-.17m2.38,0a1.35,1.35,0,0,1-.43,1.1c-.12.1-.12.11,0,.06a1.27,1.27,0,0,0,.48-1.17l-.06-.17,0,.18m.95.2c0,.21,0,.29,0,.19a2.41,2.41,0,0,0,0-.38c0-.11,0,0,0,.19M55.55,39a.92.92,0,0,0-.09.27.75.75,0,0,0,.13-.24,1.16,1.16,0,0,0,.1-.27s-.07.09-.14.24m21.49,0c.24.34.24.34.46,0s.11-.19-.15.15c-.08.1-.09.09-.27-.18a1.52,1.52,0,0,0-.22-.29,1.89,1.89,0,0,0,.18.31m-8.66.11a1.55,1.55,0,0,0-.09.38,1.48,1.48,0,0,0,.13-.34,1.78,1.78,0,0,0,.09-.38,1.1,1.1,0,0,0-.13.34m1.26-.32a.37.37,0,0,0,0,.16c0,.06,0,.06,0,0a.3.3,0,0,0,0-.16c0-.06,0-.06,0,0m-55.78.06s0,0,.05,0a1.09,1.09,0,0,1,.3.29,4.44,4.44,0,0,0,.42.47c.14.13-.05-.11-.56-.7-.13-.14-.21-.18-.21-.08m25.74.23a1.23,1.23,0,0,0-.11.31s0,0,.08-.1l.12-.31c.13-.3.06-.22-.09.1M63.14,39a11,11,0,0,0,1.18,0c1,0,1.14,0,1.14.09s-.18.08-1.19.1l-1.2,0h1.17c1.19,0,1.32,0,1.28-.17S65.43,39,64.3,39a8.69,8.69,0,0,0-1.16,0m-45.82.14c0,.09,0,.13,0,.09a.54.54,0,0,0,0-.18s0,0,0,.09m28.85,0a1.69,1.69,0,0,1-.64.36c-.1,0-.09,0,0,0a1.32,1.32,0,0,0,.66-.36.54.54,0,0,0,.11-.15s-.08.06-.14.12m5.79,0c-.08.21,0,.23,1,.23.72,0,1,0,1,.06s0,0,0,0-.08-.09-1-.09-1,0-1-.1S52,39,53.1,39h0c-1,0-1.11,0-1.14.06m5.36.06a.43.43,0,0,0,.11.2s0,0,0-.12-.15-.26-.09-.08m-31.74,0a.85.85,0,0,1-.14.19c-.05,0-.06.08,0,.06s.29-.34.24-.34-.05,0-.08.09m28.64.11a2.35,2.35,0,0,1,0,.4c-.12.46-.12.44,0,.34a2.29,2.29,0,0,0,.14-.92s-.05,0-.05.18m16.8,0a1.35,1.35,0,0,0-.06.24s0,0,.08-.14a.82.82,0,0,0,.06-.24s0,.05-.08.14m3.7-.14a2.15,2.15,0,0,0,.17.41c.09.19.17.33.17.3a3.27,3.27,0,0,0-.17-.41c-.09-.19-.17-.33-.17-.3m-19,.26c-.16.31-.14.35,0,0a.85.85,0,0,0,.11-.26s-.07.08-.13.21m-54.07.08a3,3,0,0,0,0,.52c0,.2,0,.13,0-.26,0-.56,0-.7-.05-.26m2.91-.21c-1.39.08-2.16.87-2,2.07l0,.28-.25-.26a3.41,3.41,0,0,1-.36-.5c-.06-.13-.13-.22-.14-.2s.39.68,1,1.27c.37.36.74.74.83.85l.16.19v-.3A1.38,1.38,0,0,1,5,41.23c.39-.06.38,0,.38-1.12,0-.76,0-1-.07-1l-.73,0m72.3.2a.8.8,0,0,0,.18.23,1.83,1.83,0,0,0-.32-.48,1.17,1.17,0,0,0,.14.25m-32.8-.11h.66c.17,0,0,0-.35,0s-.5,0-.31,0m13.58,0a.53.53,0,0,0,.07.18c0,.07.07.1.07.08a.53.53,0,0,0-.07-.18c0-.07-.07-.1-.07-.08m19.87.2-.15.23v.74c0,.74,0,.74-.12.73s-.11,0-.14-.76l0-.73,0,.75v.74l.13,0c.21.06.23,0,.23-.75s0-.73.15-1,.16-.32,0,0M41.8,39.29a1.57,1.57,0,0,0,.18.39s0-.08,0-.18-.13-.27-.13-.21m-9.42.17a.79.79,0,0,0,0,.2c.06.13.06,0,0-.18s0-.11,0,0m25.12,0a1.29,1.29,0,0,1,.06.21l0,.12h-1c-.93,0-1,0-1-.09s0-.08,0,0,0,.17,1,.17c1.13,0,1.13,0,1-.28-.06-.11-.09-.16-.07-.1m5.57.63c0,.4,0,.57,0,.37s0-.54,0-.74,0,0,0,.37m-38-.53c-.11.07-.18.12-.15.12a1,1,0,0,0,.26-.12c.11-.07.18-.12.15-.12a1,1,0,0,0-.26.12m-7.73,0c0,.32.64,1.31.86,1.31,0,0-.07-.11-.22-.25a2,2,0,0,1-.56-.92c0-.12-.07-.18-.08-.14m1,0c0,.19.59.8.69.71s0-.06-.09-.09a1,1,0,0,1-.48-.46c-.07-.13-.12-.19-.12-.16m17.13.16c0,.12-.09.21-.07.21a.84.84,0,0,0,.13-.21c0-.11.09-.2.07-.2a.91.91,0,0,0-.13.2m.39-.15a.4.4,0,0,0,.22,0h.13l-.13,0-.22,0h-.11l.11,0m18,.08a.3.3,0,0,0,0,.16s0,0,.06-.11a.31.31,0,0,0,0-.16s0,0-.06.11m-32.35,0c0,.08,0,.15,0,.16s0,0,.05-.11,0-.15,0-.16,0,0-.05.11m17.78.11a.82.82,0,0,0-.09.26s.06-.09.12-.22a.71.71,0,0,0,.1-.26.64.64,0,0,0-.13.22m31.56-.16a.51.51,0,0,0,0,.17s0,0,0-.07,0-.24,0-.1m-34.48,0c.13.06.14.07.07.3s0,.16,0,.13.08-.45,0-.46-.13,0,0,0m3.28,0a.12.12,0,0,0,0,.13,8.46,8.46,0,0,0,2,0s0,0,0,0a5.38,5.38,0,0,1-2,0c0-.11,0-.13-.06,0m15.5.19c-.06.15-.16.35-.21.46a.56.56,0,0,0-.07.23s.06-.07.11-.18.13-.32.2-.47a1.09,1.09,0,0,0,.11-.29.86.86,0,0,0-.14.25m2.64-.25a2.05,2.05,0,0,0,.13.31c.14.31.22.39.09.09l-.13-.3c0-.1-.09-.16-.09-.1m9.12,0a.49.49,0,0,0,0,.16c0,.06,0,.06,0,0a.33.33,0,0,0,0-.16c0-.06,0-.06,0,0m-42.18.14a1,1,0,0,0,.24.35c.43.47.87,1,.87,1a3.66,3.66,0,0,1-.54,0h0a1.85,1.85,0,0,0,.58,0A4,4,0,0,0,25,40.08c-.15-.15-.22-.26-.2-.32s0-.08,0-.08,0,0,0,.09m25.71-.05a1.14,1.14,0,0,0,.22.47s0-.08-.07-.19-.1-.22-.12-.27,0,0,0,0m17.34.36c-.15.46-.19.52-.25.36-.13-.34-.16-.39-.13-.22s.13.39.2.41a3,3,0,0,0,.32-.92,2,2,0,0,0-.14.37m1.82-.37s.08.29.17.59a1.9,1.9,0,0,0,.18.45,6.24,6.24,0,0,0-.35-1M42,39.76a.53.53,0,0,0,.07.18c0,.07.07.1.07.07a.59.59,0,0,0-.07-.17c0-.07-.07-.11-.07-.08m27.94,0a.92.92,0,0,0,.07.26c.09.22.1.13,0-.14,0-.11-.07-.16-.07-.12M23.67,40c.09.09.29.32.46.52.35.4.63.7.56.59s-1.11-1.27-1.14-1.27,0,.07.12.16M28.8,40c-.22.2-.23.22-.09.14s.43-.38.36-.37L28.8,40m43.49-.11c-.09.19-.07.23,0,.06s.07-.15,0-.16,0,0-.07.1m-18.57.16a1.66,1.66,0,0,1-.67.67c-.12.06-.19.11-.15.11.25,0,1.09-.86,1-1s-.07.09-.14.21m16.79-.2s0,.1,0,.15,0,.08,0,0a.19.19,0,0,0,0-.15c0-.06,0-.07,0,0m-55.58.21.38.41c.1.12.18.2.17.17a4,4,0,0,0-.68-.77s0,.08.13.19m6.47,0a.52.52,0,0,0-.06.17.75.75,0,0,0,.17-.33s-.06.06-.11.16m13.81,0c-.1.08-.13.13-.07.1s.32-.27.27-.26l-.2.16m-5.25,0-.08.17.1-.13c.1-.12.14-.2.09-.2s-.07.07-.11.16m9.41.22c-.2.44-.19.49,0,.07l.17-.32,1.06,0c1.26,0,1.25,0,1.34.22s.08.17.09.16a.58.58,0,0,0-.07-.22l-.09-.2H39.52l-.15.33m16-.27a3.38,3.38,0,0,0-.3.68,1.46,1.46,0,0,0,.18-.34l.16-.35h1.13a4.62,4.62,0,0,1,1.2.06c.06.05.06.05,0,0a9.67,9.67,0,0,0-2.41,0m17.13,0c-.06.07-.06.08,0,0a8.22,8.22,0,0,1,2.38,0c.06.08.06.08,0,0s0-.1,0-.11a12,12,0,0,0-2.38.07m2.64-.08a1,1,0,0,0,.18.38s0-.11-.08-.22-.1-.18-.1-.16m-33,.05a4.17,4.17,0,0,0,.28.6.39.39,0,0,0,0-.17c-.09-.21-.23-.48-.23-.43m11.74.21a2.09,2.09,0,0,1-.59.61c-.12.08-.12.08,0,0a2,2,0,0,0,.63-.67c.13-.24.06-.19-.09.06m-20-.11a1.25,1.25,0,0,0,.85.14c.13,0,.22-.07.21-.08a.81.81,0,0,0-.24,0,.77.77,0,0,1-.55,0c-.17-.06-.3-.09-.27-.06m2.36.12c-.07.1-.1.18-.08.18s.24-.31.21-.33-.07.06-.13.15m35.84,0c-.14.29-.21.47-.18.47a2.58,2.58,0,0,0,.26-.59s0,0-.08.12m-1.78.11c0,.11-.09.19-.11.18s0,0,0,0a.06.06,0,0,0,0,.06c.06,0,.21-.35.19-.42s0,0-.09.16m-68.6-.11c0,.13.09.24.09.13a.21.21,0,0,0,0-.14s-.05,0-.05,0m17.56,0a1.41,1.41,0,0,0,.41,0c.16,0,.12,0-.2,0s-.37,0-.21,0m13.37,0a1.17,1.17,0,0,0,.26.29c.29.28.3.29-.2-.26,0,0-.06-.06-.06,0m25.15,0a2,2,0,0,0,.15.37,2.6,2.6,0,0,1,.15.38c0,.16.35.26.39.1s0-.06,0,0a.17.17,0,0,1-.27-.05s-.12-.24-.22-.45a2.46,2.46,0,0,0-.18-.35m.3,0a1.24,1.24,0,0,0,.18.4.47.47,0,0,0-.05-.19c-.08-.18-.13-.26-.13-.21m9,0a2.76,2.76,0,0,0,.25.69,2.28,2.28,0,0,0-.11-.39c-.11-.3-.15-.38-.14-.3m.86,0a.56.56,0,0,1,0,.15q0,.1,0,0a.14.14,0,0,0,0-.15c0-.05,0-.07,0,0m2.08,0a.3.3,0,0,0,.05.15c0,.07,0,.07,0,0a.44.44,0,0,0,0-.15c-.05-.06-.05-.06-.05,0m-40.39.21a2.6,2.6,0,0,1-.29.24c-.08,0-.14.1-.14.12s.32-.17.47-.35.15-.22,0,0m21,.17c.23.21.54.41.58.36s-.06-.05-.15-.09a2.59,2.59,0,0,1-.39-.29,1.73,1.73,0,0,0-.25-.2s.08.1.21.22M21,40.63a1.17,1.17,0,0,1-.21.16c-.05,0-.07.06-.06.08a.63.63,0,0,0,.23-.14c.11-.1.19-.18.17-.2s-.07,0-.13.1m49.55.13a1.1,1.1,0,0,0-.06.28.62.62,0,0,0,.1-.24.94.94,0,0,0,.07-.29.72.72,0,0,0-.11.25m4.54-.23s.19.41.2.36a1.28,1.28,0,0,0-.18-.39s0,0,0,0m-39,.12a1.66,1.66,0,0,1-.35.26c-.14.08-.23.14-.2.14a2,2,0,0,0,.6-.39c.06-.06.09-.11.07-.11l-.12.1m2.83.14c-.14.32-.14.42,0,.42s.24-.09.23-.18,0,0,0,0c-.17.28-.3,0-.14-.27a.83.83,0,0,0,.08-.23.64.64,0,0,0-.13.22m29,0c-.09.31-.2.4-.35.31s-.1,0-.1,0,.18.12.3.08.31-.55.25-.61a.62.62,0,0,0-.1.24m-16.7-.16a.82.82,0,0,0,.4.19s-.08-.06-.2-.12-.21-.09-.2-.07m7.18.07a.53.53,0,0,0,.07.18c0,.07.07.11.07.08a.53.53,0,0,0-.07-.18c0-.07-.07-.1-.07-.08m17.13,0a.68.68,0,0,0,.07.2c.13.23,0,.33-.19.11,0-.06-.08-.08-.08,0s.3.29.38.17a.68.68,0,0,0-.07-.27c-.06-.12-.11-.19-.11-.16m-33,.08a.15.15,0,0,0,0,.12c.08,0,.06.22,0,.22a.26.26,0,0,1-.15-.07c-.05,0-.08-.06-.08,0s.12.17.24.17.15-.12,0-.34-.08-.11-.08-.06M71.83,41c-.08.17,0,.27.12.23s.08,0,0,0-.15-.1-.05-.19a.13.13,0,0,0,0-.12s0,0-.08.11M51.67,40.9s.1.05.18.05.18,0-.05-.07-.15,0-.13,0m.91,0-.15,0h.16a.27.27,0,0,0,.19-.05s0,0-.2,0M55,41c-.08.15-.24.21-.3.11s0-.05,0,0,.31.13.4-.07,0-.21-.05,0M18.53,41a.94.94,0,0,0,.3.12s0-.06-.19-.12c-.35-.16-.41-.16-.11,0m2-.09a1.47,1.47,0,0,1-.25.12c-.12,0-.19.09-.15.09a1.93,1.93,0,0,0,.52-.23s-.08,0-.12,0m43.18,0c.35,0,.94,0,1.32,0s.08,0-.65,0-1,0-.67,0m-10.79.14c-.08,0-.12.07-.07.07a.53.53,0,0,0,.2-.07c.16-.09.07-.09-.13,0m-24.34,0c-.06,0-.07,0,0,0a.49.49,0,0,0,.18,0c.06,0,.07,0,0,0l-.18,0m35.62,0-1.44,0h1.46a7.23,7.23,0,0,0,1.46,0s0,0,0,0l-1.46,0m5.92,0a.21.21,0,0,0,.14,0,.22.22,0,0,0,.15,0s0,0-.15,0-.15,0-.14,0m-51,0a2.54,2.54,0,0,0,.87,0c.07,0-.12,0-.42,0a1.37,1.37,0,0,0-.45,0m7.78,0c.27,0,.71,0,1,0s0,0-.5,0-.77,0-.49,0m7.24,0a2.72,2.72,0,0,0,.9,0c.06,0-.14,0-.46,0s-.51,0-.44,0m17.69,0a2.16,2.16,0,0,0,.43,0,2.08,2.08,0,0,0,.43,0c.07,0-.12,0-.43,0s-.5,0-.43,0" transform="translate(0 0)"/></svg>