<svg id="Layer_1" data-name="Layer 1" xmlns="http://www.w3.org/2000/svg" viewBox="0 0 80 84.08"><defs><style>.cls-1{fill:#f2f2f2;}.cls-2{fill:#053ba1;}.cls-2,.cls-3,.cls-4,.cls-5,.cls-6,.cls-7{fill-rule:evenodd;}.cls-3{fill:#fbfbfb;}.cls-4{fill:#f1cc21;}.cls-5{fill:#90a7dd;}.cls-6{fill:#87650c;}.cls-7{fill:#692f32;}</style></defs><rect class="cls-1" width="80" height="80" rx="40"/><g id="svgg"><path id="path0" class="cls-2" d="M35.94,70v1.73H50.86V70H43.4c-5.95,0-7.45,0-7.46,0m-6.62.42s0,0,0,0a.05.05,0,0,0,0,0s0,0,0,0m4.39,0s0,0,0,0a.05.05,0,0,0,0,0s0,0,0,0l0,0m-5.12,1,0,0s0,0,0,0,0,0,0,0m2.41.66c-.15.06-.18.08-.16.09s0,0,0,0,.06,0,.21,0,.22,0,.12-.06a.23.23,0,0,0-.2,0m.84,0c-.1.05-.13.08,0,.05a.71.71,0,0,1,.41,0,.07.07,0,0,0,.06,0s-.25-.14-.31-.14l-.12,0m-.82.2a.27.27,0,0,0,0,.17s.11,0,.1,0,0,0,0,0a0,0,0,0,0,0,0,.25.25,0,0,1,0-.07l0,0-.05,0c-.1,0-.18,0-.19,0m.84,0s0,.16.05.16,0,0,0,0,0,0,0,0,.08,0,.09-.1,0-.09,0-.09,0,0-.09,0a.18.18,0,0,0-.11,0m2.76.36,0,0s0,0,0,0,0,0,0,0,0,0,0,0m-3.33.21s0,0,.06,0,.1,0,0,0-.06,0-.08,0m.41,0s0,0,0,0,.05,0,0,0,0,0-.07,0m-.21.05,0,0s0,0,0,0h-.09m-.21.19-.08,0c-.07,0,0,.07.09.12s.45.06.46,0l0,0a.18.18,0,0,0,.1-.09s0,0,0,0l-.06,0a1.45,1.45,0,0,0-.51,0m.53,0s0,0,0,0l-.06,0a.86.86,0,0,1-.51,0,1.34,1.34,0,0,1,.58,0m4.14.39a6.31,6.31,0,0,0,0,.88v.86H50.86V73.54H36a.21.21,0,0,0-.08,0m-6.62,1.3,0,0s.07,0,.06-.05,0,0,0,0m4.38,0s0,0,0,0,0,0,0,0,0,0,0,0m-2.19.92s0,0,0,0,0,0,0,0,0-.06,0,0m-4.39,2.16v.88H50.86V77.05H27.13v.88m0,3.51v.88H50.86V80.57H27.13v.87" transform="translate(0 0)"/><path id="path1" class="cls-3" d="M27.13,72.64V77H50.86V75.29H35.92V73.52H50.86V71.78H35.93v-.88a4.65,4.65,0,0,1,0-.88H50.86V68.25H27.13v4.39m4.42-3.17s0,.11,0,.18,0,.19.05.27,0,.2,0,.27a2.38,2.38,0,0,1,.05.26c0,.07,0,.19.05.26s0,.16,0,.2,0,.08.13-.06a1.54,1.54,0,0,0,.27-.56c.08-.33.17-.45.37-.55s.24-.09.13,0a.56.56,0,0,0-.15.54,2.18,2.18,0,0,1,0,.51,1,1,0,0,0,0,.12l0,.09a.34.34,0,0,0,0,.08l0,.07s0,.1,0,.1l.15-.1.29-.21a2.11,2.11,0,0,0,.27-.18,4.72,4.72,0,0,1,.65-.43,5.28,5.28,0,0,1-.35.52.43.43,0,0,1-.06.09s-.08.13-.12.18-.13.18-.19.28l-.14.2s0,0,.09,0a1.6,1.6,0,0,0,.68-.24c.2-.12.22-.13.36-.13a.59.59,0,0,1,.36.08c.08,0,.08.06,0,.06a.52.52,0,0,0-.48.23,2,2,0,0,1-.24.28,1.94,1.94,0,0,1-.45.3c-.15.08-.15.08,0,.1l.14,0,.21,0,.51.09.19,0,.13,0,.17,0,.14,0s0,0-.23.07l-.26.05-.26,0-.26,0-.44.08c-.1,0-.1,0,0,.1a1.85,1.85,0,0,0,.56.29c.39.1.48.16.59.41s.08.2,0,.09a.62.62,0,0,0-.21-.13,1,1,0,0,0-.46,0,1.56,1.56,0,0,1-.59-.06l-.09,0-.06,0s0,0-.06,0h0l.1.15.1.15.08.11c0,.05.06.1.07.1l.07.1.13.19.08.12.08.11a.19.19,0,0,1,0,.08s0,0,0,0,0,0,.08.1.06.1.07.1,0,.05,0,.05a1.26,1.26,0,0,1-.23-.15l0,0-.12-.09-.44-.3-.22-.16-.19-.12,0,0v.11a1,1,0,0,0,.06.31.08.08,0,0,1,0,0,2.26,2.26,0,0,0,.17.35l.09.18a.7.7,0,0,1,0,.45c-.08.2-.09.2-.11,0s-.06-.28-.28-.45a1.71,1.71,0,0,1-.54-.67l-.06-.12,0,.11,0,.25c0,.07,0,.18-.05.25a2.38,2.38,0,0,1-.05.26c0,.14,0,.27-.09.53s-.07.31-.1.09,0-.17-.09-.47c0-.13,0-.25-.1-.54,0-.07,0-.17,0-.21a.59.59,0,0,0,0-.13s0-.05,0-.05a2.66,2.66,0,0,0-.24.37l-.07.15a.15.15,0,0,0,0,.08.22.22,0,0,1,0,.08.81.81,0,0,1,0,.09.81.81,0,0,0,0,.09c-.11.22-.16.29-.34.37s-.22.08-.13,0A.52.52,0,0,0,30.5,75a1.73,1.73,0,0,1,.05-.76c.06-.15.08-.23.07-.23s0,0,0,0a.15.15,0,0,1-.06,0c-.07.06-.31.22-.38.27-1,.68-1,.68-.85.5s.12-.17.18-.27l.14-.19.16-.24.14-.2c0-.06.11-.15.14-.21l.07-.1H30a1.1,1.1,0,0,0-.31.06.05.05,0,0,1,0,0,2.18,2.18,0,0,0-.39.19l-.1,0-.06,0a.92.92,0,0,1-.37,0l0,0a.45.45,0,0,1-.17-.08s0,0,0,0a.63.63,0,0,0,.61-.3,1.84,1.84,0,0,1,.72-.56L30,73l-.12,0-1-.19-.27,0c-.23,0-.24,0-.24-.06a2.43,2.43,0,0,1,.38-.09l.23,0,.16,0,.43-.07.22,0,.14,0-.07-.06a1.49,1.49,0,0,0-.59-.3c-.31-.09-.38-.12-.47-.23s-.2-.35-.15-.35,0,0,0,0a.53.53,0,0,0,.52.2,2,2,0,0,1,.82,0c.27.09.25.08.22,0a1.68,1.68,0,0,1-.14-.2l-.55-.8-.15-.2c-.12-.18-.11-.2,0-.09l.45.31.31.21.28.19.17.12v-.05a1.83,1.83,0,0,0-.17-.6.84.84,0,0,1-.15-.83c.06-.14.07-.13.09,0s.05.29.29.48l.2.16a1.58,1.58,0,0,1,.2.27s0,0,0,0,0,0,0,0,0,0,0,0,0,0,0,0,0,0,0,0l0,0,0,.08s0,0,.07-.18a1.86,1.86,0,0,1,0-.27l0-.26c0-.08,0-.2,0-.26s0-.18.05-.26c.06-.36.08-.44.1-.33M27.13,79.69v.86H50.86V78.82H27.13v.87m0,3.52v.87H50.86V82.34H27.13v.87" transform="translate(0 0)"/><path id="path2" class="cls-4" d="M31.49,69.76l-.09.52a2.16,2.16,0,0,0,0,.27l-.09.5c0,.07,0,.17,0,.23s0,.14,0,.17,0,.08,0,.12v.07l.07,0a.84.84,0,0,1,.18,0h.12v-1c0-.53,0-1,0-1l0,.12m.06.87v.94h.11a.65.65,0,0,1,.17,0c.08,0,.08,0,0-.35L31.79,71l0-.26c0-.08,0-.19-.05-.26a.49.49,0,0,0,0-.13l0-.14a1.13,1.13,0,0,0,0-.14.49.49,0,0,1,0-.13c0-.28-.05-.22-.05.69m.94-.78c-.13.09-.16.16-.25.48a1.84,1.84,0,0,1-.35.65c-.05,0-.06.07-.05.1s.07.39.09.47v.06l0,0s.11-.21.19-.38a.45.45,0,0,0,0-.08s0,0,0,0a.31.31,0,0,0,0-.07.34.34,0,0,1,0-.08,5.6,5.6,0,0,0,.11-.61.93.93,0,0,1,.16-.46c0-.07,0-.07,0,0m.08,0a.8.8,0,0,0-.17.47,4.08,4.08,0,0,1-.15.71,4.47,4.47,0,0,1-.19.46c0,.05-.05.09,0,.1a1.21,1.21,0,0,0,.25-.17l0,0a1.67,1.67,0,0,0,.21-1,.7.7,0,0,1,0-.43c0-.11.06-.12,0-.07m-2.28,0c0,.07.06.29.22.51a3.35,3.35,0,0,1,.54,1s0,.1,0,.12l0,.06s0,0,.06-.2c0,0,0-.12,0-.15s0-.07-.07-.23a1.82,1.82,0,0,0-.6-.72.49.49,0,0,1-.21-.3s0-.07,0-.06m-.07.16a.76.76,0,0,0,.16.44,2.3,2.3,0,0,1,.15.33,1,1,0,0,0,0,.13.78.78,0,0,1,0,.19v.15l.11.07.35.25c.17.15-.22-.71-.49-1.06a1.4,1.4,0,0,1-.3-.53c0-.11-.05-.09-.05,0m-.1,1.16c.35.36.65.65.66.65l0,0a.86.86,0,0,1,.22-.15c.07,0,0,0-.25-.23l-.22-.15-.22-.15-.14-.1-.41-.28-.12-.08c-.23-.18-.18-.11.44.51m3.41-.62-.17.12-.22.15L33,71l0,0-.6.41-.37.26.12.1.15.1s1.16-1.11,1.3-1.28c0,0,0,0,0,0m-4.07,0a.28.28,0,0,0,0,.08l.54.78.44.63c.07.11.06.11.11,0a.84.84,0,0,1,.14-.19s0-.09-.63-.69l-.64-.63m3.49.64-.64.65.07.09a.94.94,0,0,1,.1.14l0,.06,0,0,.12-.17.15-.22.19-.26.55-.8c.1-.14,0-.06-.61.56m1,.11-.15.08a2.34,2.34,0,0,1-.52.23,1,1,0,0,1-.3,0c-.1,0-.1,0-.14.06l-.17.24-.13.19h.06l.09,0,.11,0,.12,0a3.09,3.09,0,0,0,.69-.39c.31-.23.42-.3.54-.31s.07,0,.07,0a.61.61,0,0,0-.27,0m.2.06a1.19,1.19,0,0,0-.43.24,3.05,3.05,0,0,1-.79.46l-.09,0-.08,0-.08,0-.06,0s0,0,.23.06l.15,0a2.57,2.57,0,0,0,.48-.24,1.46,1.46,0,0,0,.38-.37c.15-.2.27-.29.38-.29s0,0,0,0,0,0-.12,0m-5.43.19a.73.73,0,0,0,.44.16l.5.09c.06,0,.11,0,.11,0l.09,0,.07,0h0l.08,0a1.58,1.58,0,0,1,.29.14c.14.06.14,0,0-.14l-.13-.18s0,0-.06,0a1.63,1.63,0,0,0-.91-.14.64.64,0,0,1-.5-.06c-.06,0-.08,0,0,0m2.61,0a1.05,1.05,0,0,0-.71,1.56,1,1,0,0,0,.76.5,1.28,1.28,0,0,0,.46,0l.13-.06a1,1,0,0,0-.11-1.93,1.59,1.59,0,0,0-.53,0m-2.63,0a.46.46,0,0,0,.23.2l.06,0,.11,0,.09,0,.07,0,.11,0a.11.11,0,0,0,.06,0l.08,0,.08,0a1.51,1.51,0,0,1,.27.2c.05,0,.11,0,.46,0l.12,0c.06,0,0,0-.16-.13a3.18,3.18,0,0,0-1.12-.31l-.16,0-.05,0a.48.48,0,0,1-.21-.1l-.07,0,0,0m3.41.44c.1,0,.19.1.19.13s-.05,0-.13,0a.5.5,0,0,0-.43,0c-.08.05-.14.06-.11,0a1.06,1.06,0,0,1,.27-.18.45.45,0,0,1,.21,0m-.89,0a.55.55,0,0,1,.19.16s-.05,0-.08,0a.47.47,0,0,0-.49,0c-.09,0-.13,0-.09,0a.88.88,0,0,1,.24-.12.37.37,0,0,1,.23,0m.06.19c.05,0,.09.1.06.12l0,0c0,.08-.25.1-.36,0a.4.4,0,0,0-.13-.07s0-.07.12-.12a.4.4,0,0,1,.34,0m.82,0c.11.06.17.13.1.13s0,0,0,0l-.07,0c-.16.1-.39,0-.39-.12s.27-.14.4-.08m-1.7,0-.48.08-.15,0-.12,0-.5.09-.26,0c-.4.08-.45.07.59.07h1v-.13a.51.51,0,0,1,0-.15.17.17,0,0,1,0,0s0,0-.1,0m2.14,0s0,0,0,.08a.65.65,0,0,1,0,.17v.11h1c1,0,1,0,.59-.07l-.26,0-.26,0-.25,0-.5-.09a.57.57,0,0,1-.16,0c-.11,0-.18,0-.18,0m-.48.11c0,.06,0,.07,0,0a.06.06,0,0,0,0-.06s0,0,0,0M31,72.4s0,0,0,0,0,0,0,0,0-.05,0-.05,0,0,0,.05m.28,0s0,0,0,0l.06,0s0,0,0,0,0,0-.05,0m.52,0s0,0,0,0l.06,0s0,0,0,0,0,0-.06,0m-3.12.3.07,0,.12,0,.13,0,.14,0,.52.09.26,0,.25,0c.4.07.39.07.36,0a1.57,1.57,0,0,1,0-.16v-.1H28.64m4,.09a.65.65,0,0,1,0,.17c0,.09,0,.09.35,0l.26,0,.26,0,.27-.05.7-.13a7,7,0,0,0-.87,0h-.93v.1m-1.21,0v0c-.05,0,0,.08,0,.07s0,0,0,0,.12.06.15,0a0,0,0,0,1,.06,0c.05,0,.07,0,0-.07s0,0,0,0,.05,0,.08.07l.08.08c.12,0,.12.1,0,.06a.33.33,0,0,0-.24,0c-.08,0-.08,0-.14,0a.31.31,0,0,0-.23,0c-.12,0-.13,0,0-.06s.07,0,.08-.07.1-.12.1-.07m1.69.23a.43.43,0,0,1-.15,0l-.26.05-.12,0,.07,0,.35.17.12,0a3.9,3.9,0,0,0,.75.16.9.9,0,0,1,.48.16s.06,0,0,0a.73.73,0,0,0-.44-.24l-.08,0,0,0a1.66,1.66,0,0,1-.61-.35s-.07,0-.09,0m-3.23.09-.24.14-.08,0a2.13,2.13,0,0,0-.38.38.53.53,0,0,1-.32.24c-.09,0-.1,0,0,0a1,1,0,0,0,.52-.24c.07-.06.27-.19.43-.3a3.46,3.46,0,0,1,.6-.26l.15,0-.1,0-.21,0-.12,0a.57.57,0,0,0-.2.07m2,0c.13,0,.17,0,.14,0s0,0,.06,0,.06.12,0,.08-.14,0-.18,0a.63.63,0,0,1-.69,0c-.14-.07-.17-.08-.18,0l0,0s0-.07,0-.11.07,0,0,0,0,0,.13,0l.12,0a1.44,1.44,0,0,1,.54,0m-1.49,0-.1,0h0a3.27,3.27,0,0,0-.87.49,1.35,1.35,0,0,1-.41.24l-.11,0s0,0,0,0a.84.84,0,0,0,.56-.19l.09,0,.06,0a1.3,1.3,0,0,1,.41-.11c.16,0,.19,0,.26-.12l.16-.24c.11-.15.1-.16-.05-.11m-.05.32-.3.43-.15.21c-.34.49-.42.62-.39.6s1.27-1.28,1.27-1.29l0,0a.68.68,0,0,1-.09-.14.49.49,0,0,0-.08-.11l-.23.33m2.16-.26a.94.94,0,0,1-.1.14l-.06.08.64.65.65.64s0,0-.05-.1-.33-.47-.44-.64-.14-.19-.14-.2l-.07-.1-.18-.25-.16-.24c0-.06-.05-.06-.09,0m.12,0a.59.59,0,0,0,.09.13l.11.17a.08.08,0,0,0,.05,0l.06,0,.08,0h0l.07,0,.08,0a1.94,1.94,0,0,0,.67.05.66.66,0,0,1,.49.06s.06,0,0,0-.22-.14-.77-.23l-.14,0h-.06a2.77,2.77,0,0,1-.68-.26c-.1,0-.12,0-.1,0m-1.28,0a.8.8,0,0,0,.38,0c.11,0,0,0-.16,0a.88.88,0,0,0-.22,0m.3.23s0,0-.08,0-.08,0-.08,0,0,0,.08,0,.08,0,.08,0m-1.47.67c-.61.61-.72.72-.57.61l.21-.15.3-.2c.07-.06.21-.15.31-.22l.35-.24L31,73.7c.09,0,.09-.07,0-.12a.29.29,0,0,1-.1-.07c-.11-.09,0-.15-.74.56m2.07-.58-.15.1-.06,0a11.8,11.8,0,0,0,1,.69l.2.14a.36.36,0,0,0,.1.06l.18.13c.06,0,.11.08.12.07l-.64-.65-.64-.64-.08.06m-1.05.22,0,.18a1.31,1.31,0,0,1,0,.22.76.76,0,0,1,0,.16s0,.14,0,.22,0,.21.1.54c0,.14.07.36.09.52s0,0,0-.85v-1l-.15,0-.16,0s-.06,0-.05,0m.69,0-.17,0-.13,0v.94a7.45,7.45,0,0,0,0,.87c0-.06,0-.2.08-.46s.06-.33.1-.51,0-.2,0-.27.06-.33.09-.48,0-.17,0-.14m.13,0a3.1,3.1,0,0,0,.54,1.09c.22.31.25.36.27.47a.51.51,0,0,1,0,.09s0-.12,0-.19a.32.32,0,0,1,0-.08s-.06-.12-.18-.33a1.48,1.48,0,0,1-.19-.65V74l-.09-.06-.1-.07L32,73.69s0,0,0,0m-1,0a2.12,2.12,0,0,1-.2.15.33.33,0,0,0-.12.1.19.19,0,0,1,0,.07,1.56,1.56,0,0,0-.13.85c0,.29,0,.37,0,.49s-.05.1,0,.08a.82.82,0,0,0,.19-.47,4.3,4.3,0,0,1,.16-.75.66.66,0,0,0,0-.11s.06-.15.1-.23c.11-.23.11-.23,0-.18m.07,0c0,.08-.08.15-.12.25a.61.61,0,0,1-.05.11l0,0a.21.21,0,0,1,0,.06s0,.07,0,.1a.31.31,0,0,0,0,.08,4.07,4.07,0,0,0-.12.59.88.88,0,0,1-.18.48s0,0,0,0a.54.54,0,0,0,.18-.17,1.1,1.1,0,0,0,.12-.33,1.43,1.43,0,0,1,.34-.65c.07-.07.07-.07,0-.34,0-.08,0-.17,0-.21s0-.1-.07,0m.84.1c0,.08,0,.18-.05.2a.28.28,0,0,0,0,.13l.09.18a1.61,1.61,0,0,0,.52.63.59.59,0,0,1,.28.38c0,.06,0,.07,0,0a.82.82,0,0,0-.17-.43l-.06-.09-.12-.17a3.06,3.06,0,0,1-.49-1s0,0,0,.13" transform="translate(0 0)"/><path id="path3" class="cls-5" d="M31.51,69.46c0,.06,0,.07,0,0s0-.06,0-.06,0,0,0,0m0,.12a.87.87,0,0,0,0,.1s0,0,0-.05a.62.62,0,0,0,0-.1s0,0,0,0m-.07,0s0,0,0,.08,0,.05,0,0a.22.22,0,0,0,0-.08v0m-1.2.14s0,0,0,0,0,0,0,.12l0,.14s0,0,0-.06,0-.11,0-.15,0-.09,0-.06m2.45,0s0,0-.05.09a.48.48,0,0,0-.08.11s0,0,0,0l.09-.11c.07-.07.08-.08,0-.08h0m-.13,0a.14.14,0,0,0-.06,0l.09,0s.08,0,.06,0l-.09,0m-1,.11a.19.19,0,0,0,0,.1s0-.1,0-.15,0,0,0,0m.87,0s0,0,0,0l0,0s0,0,0,0m-1,0s0,0,0,.07v0l0,0a.2.2,0,0,0,0-.07s0,0,0,0m-1.24.09a.23.23,0,0,0,0,.07s0,0,0,0,0-.07,0-.07a.12.12,0,0,0,0,0m5.74.09a5,5,0,0,0,0,.89v.87h0V70.9A7.25,7.25,0,0,1,36,70s0,0,0,0m-4.55.11a.26.26,0,0,0,0,.07s0-.1,0-.12,0,0,0,.05m1.15,0v0a.09.09,0,0,0,0-.07v0m-.88,0a.24.24,0,0,0,0,.08s0,0,0,0,0-.11,0,0m-1.25,0,.05,0,.05,0,0-.06s-.06-.05-.06,0m-.22.06s0,0,0,.06,0,0,0-.06v0m.36.07.08.05-.05,0s0,0,0,0m1.15.12a.89.89,0,0,1,0,.11s0-.11,0-.15,0,0,0,0m.85,0a.57.57,0,0,1,0,.14.2.2,0,0,0,0,.08.42.42,0,0,0,0-.22s0,0,0,0m-1.89,0,.09.09.06,0a.7.7,0,0,0-.15-.13m-1.41.06a.45.45,0,0,0,.1.17s0,0-.05-.09,0-.07.09,0,.1.07.1.06a2,2,0,0,0-.22-.15s0,0,0,0m4.51,0s0,0,0,0,0,0,0,0,0,0,0,0,0,0,0,0,0,0,0,0m-.13.09c-.07,0-.08.06-.06.06l.07,0c.06,0,.06-.06,0,0m-1.49,0v0s0,0,0,0,0,0,0,0,0,0,0,0m-.85.16s0,.07,0,.08,0-.1,0-.13,0,0,0,0m2.1,0c-.09.06-.13.1-.08.07a.92.92,0,0,0,.17-.13s0,0-.09.06m-1.63,0s0,.06,0,.07,0,0,0,0,0-.09,0,0m-2.33,0,0,0s0,0,0,0l0-.05s0,0,0,0m3.13.06a.41.41,0,0,1,0,.12v0a.47.47,0,0,0,0-.23.28.28,0,0,0,0,.08m-2.13,0,0,.07s0,0,0,0a.11.11,0,0,0,0-.06s0,0,0,0m3.17,0c-.05.07-.06.1,0,.06s.07-.1.06-.1l0,0m-3.74.09s0,0,.07.06l.07,0-.07-.05-.07,0m-.31.06.05.07s0,0-.05-.08l0,0,0,0m2.25,0a.54.54,0,0,0,0,.08s0-.09,0-.12,0,0,0,0m-.56,0s0,.07,0,.07l0,0v-.08l0,.06m-.71.06s0,.06,0,.07,0-.08,0-.11,0,0,0,0m-.41,0,.09.07.05,0-.05,0a.28.28,0,0,0-.09-.07l-.05,0,.05,0m2.4,0a.19.19,0,0,1,0,.07h0a.17.17,0,0,0,0-.11s0,0,0,0M31.18,71s.05,0,.05,0h0s0,0,0,0,0,0,0,0m1.61,0c-.09.07-.09.08,0,0s.09-.06.07-.06l-.07,0m-.32.07v0s0,0,0,0l0,0s0,0,0,0m-2.63.13s.05.07.06.07l0-.07-.06-.07s0,0,0,.07m2.59,0s0,.06,0,.06,0,0,0,0,0,0,0,0m1.52.07s0,0,0,0l.05,0s0,0,0,0h0m.26,0c.06,0,.09,0,.06,0h-.06m-1.1.07s0,.06,0,0a.4.4,0,0,0,.07-.12.3.3,0,0,0,0,.07m1.21,0,0,0h0s-.09,0-.09,0m-5.76.08s0,0,0,0l.11.07.1.07,0,0-.1-.09c-.05,0-.08-.06-.08,0m5.91,0s0,0-.12,0l-.14,0s0,0,0,0l.16,0c.1,0,.14,0,.09,0s0,0,0,0M33,71.56a.57.57,0,0,0-.06.09,1,1,0,0,0,.13-.17s0,0-.07.08m-4.37,0s0,0,0,.06,0,0,0,0,0-.08,0,0m.65,0s.07,0,.19,0,.21,0,.19,0h-.38m4.71,0,0,.06s0,0,.06-.06l0,0s0,0,0,0m-4.13,0,0,0s0,0,0,0h-.06s0,0,0,0m.31.06s0,0,0,0,0,0,0,0,.06,0,0,0,0,0,0,0m-1.41.06.08.08h0c-.1-.1-.16-.14-.11-.09m5.12,0s0,.07,0,0l0,0s0,0,0,0m-.09.11c-.05,0-.07.08-.06.08s0,0,.06-.06.06-.08,0,0m-4.78,0,.07,0s0,0,0,0l-.08,0s0,0,0,0m.17,0,.08,0s0,0,0,0l-.07,0s0,0,0,0m4.48,0,0,0,0,0c.05,0,.06-.06.05-.06s0,0-.05.06m-3.84.29.05,0-.08,0c-.05,0-.06,0,0,0h.09l.05,0-.06,0-.06,0,0,0m3.43.06.1,0s.06,0,0,0l-.11,0h0m-3.74,0-.05,0h.05l.08,0H29.5m4,0,.08,0h0l0,0h-.08m.26,0h.08s0,0,0,0-.12,0-.07,0M29,72.51h0m5,0h0m-5.28,0s0,0,0,0h.08c.05,0,0,0-.08,0m5.54,0h.14l-.09,0c-.05,0-.07,0-.05,0m-5.81,0s0,0,0,0h.06s0,0,0,0h-.1m6.08,0,.07,0h0l0,0h-.07m-6.2,0s0,0,0,0,0,0,.06,0,0,0,0,0m6.36,0s0,0,0,0a0,0,0,0,0,0,0s0,0,0,0l-.06,0h0m-6.28.05s.13,0,.11,0h-.07c-.05,0-.06,0,0,0m6.15,0-.08,0s.12,0,.16,0,0,0-.08,0m-5.88,0s.18,0,.15,0l-.11,0s-.06,0,0,0m5.62,0-.09,0s.15,0,.17,0,0,0-.08,0m-5.36,0,.1,0h.05c-.05,0-.18,0-.15,0m5.09,0c-.11,0-.12,0,0,0s.17,0,.11,0l-.1,0m-4.84,0,.1,0c.05,0,.07,0,.06,0s-.19,0-.16,0m4.61,0c-.06,0-.06,0,0,0h.07s0,0-.06,0m-4.35,0a.36.36,0,0,0,.16,0l-.1,0c-.05,0-.08,0-.06,0m4,0s0,0,0,0h.09s-.12,0-.14,0m-3.73,0c.05,0,.18,0,.15,0l-.1,0c-.05,0-.07,0-.05,0m3.49,0s0,0,0,0h.06s-.11,0-.11,0M29.9,73l0,0S30,73,30,73l-.07,0m-.46.27s0,0,0,0,.08,0,.06,0l-.06,0m-.14.14-.09.09.1-.08c.08-.08.09-.1.08-.1l-.09.09m4.82,0,0,0s0,0,0,0-.06,0-.05,0m.1,0,.08.07.06.06,0-.06s-.06-.06-.08-.06h0m-5,.07c-.05,0-.07.08-.06.08s0,0,.05,0,.05-.08,0,0m3.67,0a.09.09,0,0,0,0,0s0,0,0,0,0,0,0,0,0,0,0,0,0,0,0,0m3.06.87v.88h0v-.86a6,6,0,0,1,0-.87s0,0,0,0,0,0,0,.89m3.82-.88c2,0,5.38,0,7.42,0H39.74m-6.75,0s0,0,0,0,0,0,0,0-.07,0-.07,0m-2.93,0a.06.06,0,0,0,.06,0s0,0,0,0h0m-.22,0c-.07,0-.08,0,0,0s.14,0,.09,0h-.08m4.17,0h0m-4.32,0c-.05,0-.06,0,0,0s0,0,0,0h0m3.65,0,.17,0h.07a.85.85,0,0,0-.24,0m.43,0h.09s0,0,0,0h-.1m.39,0s.08,0,.09,0,0,0,0,0h-.05m.25.16s.08.07.08.06l0,0c-.1-.08-.12-.09,0,0m.05,0s0,0,0,0,0-.09,0-.09,0,0,0,0m-5.74,0h.1s0,0-.1,0m-.16,0s.05,0,0,0,0,0,0,0,0,0,0,0,0,0,0,0m.07,0,.05,0h0l0,0s-.07,0-.05,0m4.53.06s0,.06.05.06-.05-.09-.08-.11l0,0m-4.4,0,.14,0-.08,0s-.07,0-.06,0m.31,0L29,74s.12,0,.13,0h0l-.07,0m3.42.08a.06.06,0,0,0,0,.06s0,0,0,0,0-.06,0,0l0,0s-.08-.06-.09,0m-1.91.09a.1.1,0,0,0,0,0s0,0,0,0a0,0,0,0,0,0,0,0,0,0,0,0,0,0m-.37.13c-.06,0-.08.07-.05,0s.12-.08.11-.09l-.06,0m.32,0a.13.13,0,0,0,0,0s0,0,0,0,0-.08,0,0m2,0a.45.45,0,0,0,0,.08s0,0,0,0a.34.34,0,0,0,0-.08s0,0,0,0m-.7,0s0,.05,0,.08,0,0,0,0,0-.11,0-.05m1.06,0,.12.07-.07-.05-.05,0M30,74.41c-.06,0-.08.07,0,0s.11-.08.1-.08l-.06,0m-.49.12s-.05.07,0,.07a.3.3,0,0,0,.05-.07s.05-.07,0-.07a.3.3,0,0,0,0,.07m3.05,0s0,0,0,0,0,0,0,0a.08.08,0,0,0,0-.05s0,0,0,0m-2.76,0c-.07,0-.08.07-.05,0s.12-.08.1-.08l-.05,0m.67.15a1.21,1.21,0,0,0,0,.23s0,0,0-.15,0-.31,0-.08m1.3-.11a.17.17,0,0,0,0,.07s0,0,0,0,0-.11,0,0m-.77,0s0,.05,0,0,0-.07,0-.07,0,0,0,0m2.31,0,.07.05s0,0,0,0l-.07,0s0,0,0,0m-2,0a.45.45,0,0,0,0,.08v0s0-.07,0-.08l0,0v0m.82.08,0,.06s0,0,0,0-.07-.07,0,0m-1.15,0s0,.06,0,0,0-.07,0-.07l0,0m1.73.07,0,.07a.44.44,0,0,0-.08-.15s0,0,0,.08m1,0s0,.07.05.07a.3.3,0,0,0-.08-.12s0,0,0,0m-2.83,0a.18.18,0,0,0,0,0s0-.08,0-.09,0,0,0,0m1.35.06.09.09-.08-.09-.09-.09s0,0,.08.09m-.53,0a.58.58,0,0,0,0,.1s0,0,0,0a.65.65,0,0,0,0-.18.22.22,0,0,0,0,.06m-.39,0s0,0,0,.08,0,0,0,0a.19.19,0,0,0,0-.08s0,0,0,0m2.4,0c.05,0,.08,0,.08,0s0,0,0,0a.1.1,0,0,1-.07,0s0,0,0,0m-4.47,0s0,0,0,0h0s0,0,0,0,0,0,0,0m1.6,0s0,.09,0,.08,0,0,0,0,0-.07,0,0m2,.19c0,.1,0,.11,0,0a.17.17,0,0,0,0-.09s0,0,0,.06m-1.18,0c0,.09,0,.14,0,.12s0-.16,0-.16a.1.1,0,0,0,0,0m-.29,0a.31.31,0,0,0,0,.09v0a.25.25,0,0,0,0-.09v0m1.22,0,.07.07a.51.51,0,0,0-.09-.12s0,0,0,0m-1.84.1s0,.07,0,0a.17.17,0,0,0,0,0s0,0,0,0m2.1.06,0,.09s0,0,0,0,0-.16,0-.16a.22.22,0,0,0,0,.06m-1.24,0c0,.09,0,.16,0,.14a.4.4,0,0,0,0-.17s0,0,0,0m1.1.09a1.05,1.05,0,0,0,0,.12s0,0,0-.1,0-.11,0-.12,0,0,0,.1m-1.29-.07a.25.25,0,0,0,0,.08s0,0,0,0a.22.22,0,0,0,0-.08s0,0,0,0m-1.08.14,0,0,.05,0c.05,0,.06-.06,0-.06l0,0m0,.07c-.05,0-.05,0,0,0l.07,0s0,0-.06,0m1.21,0c0,.12,0,.15,0,.13a.4.4,0,0,0,0-.17l0,0m-.1,0a.37.37,0,0,0,0,.09v0s0-.07,0-.09l0,0v0m0,.16a.09.09,0,0,0,0,.06s0,0,0,0,0,0,0,0l0,0s0,0,0,0m1.56,1.25H44.93c3.27,0,.6,0-5.93,0s-9.21,0-5.94,0m0,1.77h0m0,1.74h0m0,1.77c3.26,0,8.6,0,11.87,0H33.06" transform="translate(0 0)"/><path id="path4" class="cls-6" d="M31.53,69.47s0,.49,0,1.06v1H31.4a.84.84,0,0,0-.18,0l-.07,0v-.07s0-.09,0-.12,0-.11,0-.17,0-.16,0-.23l.09-.5a2.16,2.16,0,0,1,0-.27,2,2,0,0,1,.05-.26c0-.07,0-.17,0-.21a.69.69,0,0,0,0-.13c0-.07,0,0,0,.11s-.06.35-.08.46,0,.16-.05.23,0,.19,0,.25l0,.22c0,.15,0,.15-.13,0a1.49,1.49,0,0,0-.18-.3,1.77,1.77,0,0,0-.42-.41.43.43,0,0,1-.17-.22.58.58,0,0,1,0-.17l0-.13,0,.08a.67.67,0,0,0,.08.74,1.38,1.38,0,0,1,.21.62c0,.18.05.18-.36-.1-1-.72-1-.69-.86-.51s.17.24.33.48.16.23.22.32c.32.45.33.47.27.45l-.07,0-.08,0a1.27,1.27,0,0,0-.57-.08c-.64,0-.59,0-.77-.12l-.05,0s0,.06,0,0,0,0,.05.13a.6.6,0,0,0,.41.3,3.06,3.06,0,0,1,.35.11l.06,0a2.06,2.06,0,0,1,.32.2l.09.08h-.05l-.13,0-.14,0-.21,0-.27,0-.45.08c-.09,0-.14,0-.07,0l.12,0,.21,0,.26,0,.5-.09.14,0,.13,0,.15,0,.2,0,.2,0s0,0,0,.08a.51.51,0,0,0,0,.15v.13h-2.1s0,0,.33.08l.55.1.25,0,.13,0,.13,0,.18,0h0l-.11.06a1.7,1.7,0,0,0-.69.53c-.18.24-.27.3-.5.31s-.11,0,0,.07a.59.59,0,0,0,.62-.07,1.54,1.54,0,0,1,.65-.24l.15,0c.05,0,0,.09-.23.41l-.07.09-.09.14c-.1.13-.29.41-.31.44l0,0s0,.05-.07.1-.07.13,0,.08,0,0,0,0,0,0,0,0,0,0,0,0,0,0,.11,0l.25-.18.21-.14.21-.15.49-.33a.63.63,0,0,1,0,.12,2.06,2.06,0,0,0-.1,1,.46.46,0,0,1-.14.44c-.08.09-.08.1,0,.09s0,0,0,0,0,0,0,0c.18,0,.37-.22.45-.52a.49.49,0,0,1,0-.14.19.19,0,0,0,0-.07,1.79,1.79,0,0,1,.31-.51s.05,0,.07.14l0,.14a1.31,1.31,0,0,0,0,.22c0,.08,0,.19,0,.26l.05.26c0,.08,0,.19.05.25s0,.13,0,.15,0,0,0,0,0,0,0,0,0,0,0,0l.08-.47c0-.07,0-.19.05-.25a2.38,2.38,0,0,1,.05-.26l0-.27c0-.07,0-.16,0-.19v0l0,.06a1.7,1.7,0,0,0,.59.76.54.54,0,0,1,.28.48q0,.16.06,0a.62.62,0,0,0,0-.63,3.35,3.35,0,0,1-.22-.47,1.31,1.31,0,0,1,0-.4l.62.42.11.08.28.19c.22.16.23.16.2.12s0,0,0,0,0,0-.42-.66l-.18-.26-.17-.24c-.09-.12-.1-.15,0-.11l.06,0,.07,0a2.05,2.05,0,0,0,1,.07.56.56,0,0,1,.44.17s.07,0,0,0,0,0,0,0,0,0,0,0,0-.07-.06-.19a.69.69,0,0,0-.42-.26,1.64,1.64,0,0,1-.65-.3c-.14-.11-.14-.13,0-.15l.52-.09.27,0,.26,0,.19,0s.06,0,.06,0a0,0,0,0,1,0,0h0l-.1,0-.16,0-.22,0-.27,0-.16,0-.13,0-.4-.07c-.1,0-.1,0,.06-.1a1.68,1.68,0,0,0,.67-.56.62.62,0,0,1,.54-.27c.07,0-.09-.07-.22-.1a.52.52,0,0,0-.44.08,1.75,1.75,0,0,1-.8.28c-.12,0-.13,0,.28-.55l.13-.18.14-.2c.29-.42.29-.42.13-.31l-.11.08-.07,0-.23.16-.34.23-.49.34s0-.06.05-.21,0-.15.06-.25a2.15,2.15,0,0,0,0-.37c0-.5,0-.52.14-.69s.08-.12,0-.08,0,0,0,0,0,0,0,0,0,0,0,0-.37.2-.42.39l0,.13a.62.62,0,0,1,0,.1.34.34,0,0,0,0,.08c0,.15-.3.57-.35.54s0-.06,0-.12a.31.31,0,0,0,0-.13s0-.07,0-.14,0-.19-.09-.53l-.09-.5c0-.07,0-.11,0-.09m.07.47a.49.49,0,0,0,0,.13,1.13,1.13,0,0,1,0,.14l0,.14a.49.49,0,0,1,0,.13c0,.07,0,.18.05.26l0,.26c.13.7.13.64,0,.61a.65.65,0,0,0-.17,0h-.11v-.94c0-.91,0-1,.05-.69m.92-.08a.93.93,0,0,0-.16.46,5.6,5.6,0,0,1-.11.61.34.34,0,0,0,0,.08.31.31,0,0,1,0,.07s0,0,0,0a.45.45,0,0,1,0,.08c-.08.17-.16.33-.19.38l0,0v-.06c0-.08-.08-.41-.09-.47s0,0,.05-.1a1.84,1.84,0,0,0,.35-.65c.09-.32.12-.39.25-.48s.08-.06,0,0m0,.06a.7.7,0,0,0,0,.43,1.67,1.67,0,0,1-.21,1l0,0a1.21,1.21,0,0,1-.25.17s0,0,0-.1a4.47,4.47,0,0,0,.19-.46,4.08,4.08,0,0,0,.15-.71.8.8,0,0,1,.17-.47s0,0,0,.07m-2.18.18a1.06,1.06,0,0,0,.15.15,1.82,1.82,0,0,1,.6.72c.08.16.09.19.07.23s0,.1,0,.15c0,.2,0,.24-.06.2l0-.06s0-.07,0-.12a3.35,3.35,0,0,0-.54-1c-.16-.22-.26-.44-.22-.51s0,0,0,.06a.47.47,0,0,0,.06.15M30.27,70a1.4,1.4,0,0,0,.3.53c.27.35.66,1.21.49,1.06l-.35-.25-.11-.07v-.15a.78.78,0,0,0,0-.19,1,1,0,0,1,0-.13,2.3,2.3,0,0,0-.15-.33.76.76,0,0,1-.16-.44c0-.12,0-.14.05,0m-.91.45s0,0,0,0,0,0,0,0a.05.05,0,0,1,0,0m4.38,0a.05.05,0,0,1,0,0s0,0,0,0l0,0s0,0,0,0m-4.06.25.12.08.41.28.14.1.22.15.22.15c.28.2.32.23.25.23a.86.86,0,0,0-.22.15l0,0s-.31-.29-.66-.65c-.62-.62-.67-.69-.44-.51m3.89-.13c-.14.17-1.29,1.29-1.3,1.28l-.15-.1-.12-.1.37-.26L33,71l0,0,.13-.09.22-.15.17-.12s.06,0,0,0M30.74,71.9a0,0,0,0,1,0,0,.84.84,0,0,0-.14.19c-.05.09,0,.09-.11,0L30,71.47l-.54-.78a.28.28,0,0,1,0-.08l.64.63c.35.35.64.65.64.66m2.82-1.21-.55.8-.19.26-.15.22-.12.17,0,0,0-.06a.94.94,0,0,0-.1-.14l-.07-.09.64-.65c.63-.62.71-.7.61-.56m.67.67s0,0-.07,0-.23.08-.54.31a3.09,3.09,0,0,1-.69.39l-.12,0-.11,0-.09,0h-.06l.13-.19.17-.24c0-.06,0-.06.14-.06a1,1,0,0,0,.3,0,2.34,2.34,0,0,0,.52-.23l.15-.08a.61.61,0,0,1,.27,0m.05.06s0,0,0,0-.23.09-.38.29a1.46,1.46,0,0,1-.38.37,2.57,2.57,0,0,1-.48.24l-.15,0c-.23,0-.26,0-.23-.06l.06,0,.08,0,.08,0,.09,0a3.05,3.05,0,0,0,.79-.46,1.19,1.19,0,0,1,.43-.24c.1,0,.11,0,.12,0m-5.53.17a.64.64,0,0,0,.5.06,1.63,1.63,0,0,1,.91.14s.05,0,.06,0l.13.18c.14.19.14.2,0,.14a1.58,1.58,0,0,0-.29-.14L30,72h0l-.07,0-.09,0s-.05,0-.11,0l-.5-.09a.73.73,0,0,1-.44-.16c-.06,0,0-.07,0,0m3.12.07A1,1,0,0,1,32,73.59l-.13.06-.17,0a1,1,0,0,1-.76-.18A1,1,0,0,1,30.76,72a1,1,0,0,1,.58-.33,1.59,1.59,0,0,1,.53,0m-3,.08.08,0,.05,0,.16,0a3.18,3.18,0,0,1,1.12.31c.2.1.22.12.16.13l-.12,0c-.35.07-.41.08-.46,0a1.51,1.51,0,0,0-.27-.2l-.08,0-.08,0a.11.11,0,0,1-.06,0l-.11,0-.07,0-.09,0-.11,0-.06,0a.46.46,0,0,1-.23-.2l0,0,.07,0,.13.08m3,.32a1.06,1.06,0,0,0-.27.18c0,.06,0,.05.11,0a.5.5,0,0,1,.43,0c.08,0,.13,0,.13,0s-.3-.19-.4-.17m-.91,0a.88.88,0,0,0-.24.12s0,.07.09,0a.47.47,0,0,1,.49,0s.08,0,.08,0a.55.55,0,0,0-.19-.16.37.37,0,0,0-.23,0m.2,0c.1,0,.09.06-.12.06s-.2,0-.21,0,0,0,0,0,0,0,.16-.09a.23.23,0,0,1,.2,0m.87,0c.12,0,.22.1.2.11a.07.07,0,0,1-.06,0,.71.71,0,0,0-.41,0c-.09,0-.06,0,0-.05s.12-.06.23,0M31,72.29c-.1,0-.15.11-.12.12a.4.4,0,0,1,.13.07c.11.07.33,0,.36,0l0,0s0-.09-.06-.12a.4.4,0,0,0-.34,0m.81,0c-.06,0-.06.06,0,.13a.28.28,0,0,0,.37,0l.07,0s0,0,0,0,0,0,0-.06a.38.38,0,0,0-.44,0m-.55,0,.05,0,0,0a.25.25,0,0,0,0,.07,0,0,0,0,1,0,0s0,0,0,0,0,0,0,0-.08,0-.09-.08,0-.19.19-.14m.86,0a0,0,0,0,1,0,0s0,0,0,.09,0,.1-.09.1,0,0,0,0,0,0,0,0-.08-.08-.08-.12.19-.08.24,0m.66,0a.57.57,0,0,0,.16,0l.5.09.25,0,.26,0,.26,0c.41.08.45.07-.59.07h-1v-.11a.65.65,0,0,0,0-.17s0-.07,0-.08.07,0,.18,0m-.63.12s0,0,0,0,0,0,0,0a.06.06,0,0,1,0,.06m-1.1,0s0,0,0,0,0,0,0,0,0-.05,0-.05,0,0,0,.05m.3,0-.06,0s0,0,0,0,0,0,.05,0,0,0,0,0m.55,0,0,0-.06,0s0,0,0,0,.09,0,.09.06m-1.39.34a1.57,1.57,0,0,0,0,.16c0,.09,0,.09-.36,0l-.25,0-.26,0-.52-.09-.14,0-.13,0-.12,0-.07,0h1.81v.1m3.95-.09-.7.13-.27.05-.26,0-.26,0c-.38.07-.38.07-.35,0a.65.65,0,0,0,0-.17v-.1h.93a7,7,0,0,1,.87,0m-3.09,0a.11.11,0,0,0,0,.06s0,0-.08.07-.1.11,0,.06a.31.31,0,0,1,.23,0c.06,0,.06,0,.14,0a.33.33,0,0,1,.24,0c.12,0,.12,0,0-.06l-.08-.08c0-.06-.06-.09-.08-.07s0,0,0,0,0,.08,0,.07a0,0,0,0,0-.06,0s-.15,0-.15,0,0,0,0,0-.08,0,0-.07v0s0,0-.07,0m.11.13h-.08c-.08,0-.08,0-.06,0s.11,0,.14,0m.34,0s0,0,0,0-.06,0,0,0,0,0,.07,0m-.19.05s0,0,0,0l0,0h.09m1.59.08a1.66,1.66,0,0,0,.61.35l0,0,.08,0a.73.73,0,0,1,.44.24c0,.07,0,.08,0,0a.9.9,0,0,0-.48-.16,3.9,3.9,0,0,1-.75-.16l-.12,0-.35-.17-.07,0,.12,0,.26-.05a.43.43,0,0,0,.15,0s.06,0,.09,0m-3,0,.21,0,.1,0-.15,0a3.46,3.46,0,0,0-.6.26c-.16.11-.36.24-.43.3a1,1,0,0,1-.52.24c-.05,0,0,0,0,0a.53.53,0,0,0,.32-.24,2.13,2.13,0,0,1,.38-.38l.08,0a1.65,1.65,0,0,1,.44-.21l.12,0m1.14,0-.12,0c-.11,0-.16,0-.13,0s0,0,0,0-.07.11,0,.11l0,0s0,0,.18,0a.63.63,0,0,0,.69,0s.15-.06.18,0,0,0,0-.08S32,73,32,73.08s0,0-.14,0a1.44,1.44,0,0,0-.54,0m.48,0,.06,0s0,0,0,0a.18.18,0,0,1-.1.09l0,0c0,.05-.36,0-.46,0s-.16-.12-.09-.12l.08,0a1.45,1.45,0,0,1,.51,0m-1.38.14-.16.24c-.07.1-.1.12-.26.12a1.3,1.3,0,0,0-.41.11l-.06,0-.09,0a.84.84,0,0,1-.56.19c-.08,0-.08,0,0,0l.11,0a1.35,1.35,0,0,0,.41-.24,3.27,3.27,0,0,1,.87-.49h0a1,1,0,0,1,.21-.06s0,0-.06.13m.21,0a.68.68,0,0,0,.09.14l0,0s-1.22,1.25-1.27,1.29.05-.11.39-.6l.15-.21.53-.76a.49.49,0,0,1,.08.11m1.94-.06.16.24.18.25.07.1s.07.1.14.2.31.46.44.64.06.09.05.1L33,74.05l-.64-.65.06-.08a.94.94,0,0,0,.1-.14c0-.08.05-.08.09,0m-1.31,0s0,0,0,.07a1.68,1.68,0,0,0,.45,0l.06,0s.05,0,0,0a3.49,3.49,0,0,0-.56,0m1.44,0a2.77,2.77,0,0,0,.68.26h.06l.14,0c.55.09.66.12.77.23s0,0,0,0a.66.66,0,0,0-.49-.06,1.94,1.94,0,0,1-.67-.05l-.08,0-.07,0h0l-.08,0-.06,0a.08.08,0,0,1-.05,0l-.11-.17c-.1-.14-.11-.14-.09-.14l.1,0m-.95,0s-.24,0-.37,0-.05,0,.16,0a.82.82,0,0,1,.21,0m-.29.23s0,0,.08,0,.08,0,.08,0,0,0-.08,0-.08,0-.08,0m-.57.11a.29.29,0,0,0,.1.07c.1,0,.1.07,0,.12l-.25.17-.35.24c-.1.07-.24.16-.31.22l-.3.2-.21.15c-.15.11,0,0,.57-.61s.63-.65.74-.56m2.69,1.21s-.06,0-.12-.07l-.18-.13a.36.36,0,0,1-.1-.06l-.2-.14a11.8,11.8,0,0,1-1-.69l.06,0,.15-.1.08-.06.64.64.64.65m-2.36-1,.16,0,.15,0v1c0,.84,0,1,0,.85s-.06-.38-.09-.52c-.06-.33-.08-.42-.1-.54s0-.17,0-.22a.76.76,0,0,0,0-.16,1.31,1.31,0,0,0,0-.22l0-.18s0-.06.05,0m.69,0a.65.65,0,0,1,0,.11c0,.15-.06.35-.09.48s0,.19,0,.27-.07.36-.1.51-.07.4-.08.46a7.45,7.45,0,0,1,0-.87v-.94l.13,0,.17,0s0,0,0,0m.24.07.12.09.1.07.09.06v.11a1.48,1.48,0,0,0,.19.65q.18.31.18.33a.32.32,0,0,0,0,.08c0,.07,0,.22,0,.19a.51.51,0,0,0,0-.09c0-.11,0-.16-.27-.47A3.1,3.1,0,0,1,32,73.71s0,0,.16.07m-1.09-.06L31,73.9c0,.08-.08.19-.1.23a.66.66,0,0,1,0,.11,4.3,4.3,0,0,0-.16.75.82.82,0,0,1-.19.47s0,0,0-.08.07-.2,0-.49a1.56,1.56,0,0,1,.13-.85.19.19,0,0,0,0-.07.33.33,0,0,1,.12-.1,2.12,2.12,0,0,0,.2-.15s.06,0,.05,0m.09.06s0,.13,0,.21c.05.27.05.27,0,.34a1.43,1.43,0,0,0-.34.65,1.1,1.1,0,0,1-.12.33.54.54,0,0,1-.18.17s0,0,0,0a.88.88,0,0,0,.18-.48,4.07,4.07,0,0,1,.12-.59.31.31,0,0,1,0-.08s0-.08,0-.1a.21.21,0,0,0,0-.06l0,0A.61.61,0,0,0,31,74c.07-.17.15-.31.17-.3l0,.08m.84.06a2.72,2.72,0,0,0,.45.88l.12.17.06.09a.82.82,0,0,1,.17.43s0,0,0,0a.59.59,0,0,0-.28-.38,1.61,1.61,0,0,1-.52-.63l-.09-.18a.28.28,0,0,1,0-.13s0-.12.05-.2,0-.15,0-.13,0,.07,0,.12m1.76,1s0,0,0,0,0,0,0,0,0,0,0,0" transform="translate(0 0)"/></g><path id="path0-2" data-name="path0" class="cls-7" d="M7.5,30.07c0,.07-.1.12-.22.12s-.21,0,0,.14.14.15.08.15-.17.17-.24.39c-.13.39-.23.48-.31.26,0-.07-.08-.05-.12.08s-.1.28-.15.38-.18.48-.3.82a6.34,6.34,0,0,1-.27.73,5.43,5.43,0,0,0-.29.77,5,5,0,0,1-.3.77,1.34,1.34,0,0,0-.13.39c-.18.82-.25.79-1.54-.56-1.54-1.62-1.57-1.62-1.86.25-.09.54-.22,1.36-.29,1.81s-.18,1.06-.23,1.35-.2,1.18-.34,2c-.29,1.7-.4,1.47,1.14,2.44,1.18.74,4.52,3,4.61,3.13a3,3,0,0,0,1,.58c.13,0,1.93-1.39,4.9-3.8l1.09-.88-.06-.68a4.42,4.42,0,0,0-.14-.82,4.27,4.27,0,0,1-.14-.8,1.93,1.93,0,0,0-.16-.71s-.08-.18-.08-.34,0-.28-.09-.28-.1-.08-.13-.18-.12-.16-.37-.13-.71-.34-.6-.63c0-.07,0-.12-.12-.12s-.14.06-.12.16a.48.48,0,0,1-.14.34c-.21.21-.27.22-.27,0a.15.15,0,0,0-.15-.15C11,37.05,11,37,11,37s0-.1-.13-.1a.83.83,0,0,1-.43-.23c-.18-.17-.28-.2-.35-.13s-.11.08-.11,0a.38.38,0,0,1,.14-.24c.1-.1.11-.14,0-.22a5.2,5.2,0,0,1-.48-1c-.19-.5-.41-1.05-.49-1.22A1.76,1.76,0,0,1,9,33.39a.68.68,0,0,0-.1-.28c0-.09-.18-.38-.29-.65l-.31-.72A8.42,8.42,0,0,1,8,30.82c-.08-.25-.1-.26-.1-.07,0,.39-.18.22-.28-.29-.05-.28-.1-.46-.11-.39m11.11,7.75v4.93h1.54l0-1.9,0-1.91,1.41-.06a6.53,6.53,0,0,0,1.91-.24,3,3,0,0,0,.22-5.48c-.41-.19-.62-.21-2.79-.24l-2.34,0v4.94m41.82-3.9a2,2,0,0,0-.07.68c0,1-.25,1.33-1,1.41l-.33,0,0,.64,0,.64.61,0,.6,0,0,2.13c.05,2.29.07,2.35.62,2.87a2,2,0,0,0,1.49.46c.76,0,.84-.07.87-.76l0-.59h-.53c-.9,0-.92-.06-.92-2.29V37.34h1.4l-.05-.65,0-.64H61.86l0-1.07-.05-1.06-.63,0a2.51,2.51,0,0,0-.7,0m-37.58.48a1.61,1.61,0,0,1,.07,2.91,6.08,6.08,0,0,1-2.62.13,10.93,10.93,0,0,1-.08-3.13,8.51,8.51,0,0,1,2.63.09M33.76,36c-3.77,1.24-2.89,7,1.08,7,4.59,0,4.73-6.9.15-7.15a3.23,3.23,0,0,0-1.23.15m8.93,0a2.89,2.89,0,0,0-.83.49c-.39.38-.44.38-.44,0,0-.2-.05-.34-.13-.34H40l0,3.34,0,3.34h1.46v-2c0-2.92.28-3.58,1.51-3.6s1.38.38,1.38,3.26v2.34h1.54l0-2.31c0-2.76.19-3.15,1.35-3.25s1.48.32,1.48,3.2v2.36h1.51l0-2.58c0-2.38,0-2.62-.24-3a2.47,2.47,0,0,0-4-.51l-.34.36-.31-.36A2.32,2.32,0,0,0,42.69,36M54,36c-3.62,1.39-2.82,7,1,7a3.2,3.2,0,0,0,3-1.65c.2-.38.2-.39,0-.45l-.62-.2-.45-.14-.29.42a1.94,1.94,0,0,1-3.32-.53c-.21-.7-.28-.68,2.43-.68s2.6.09,2.44-1.07A3.15,3.15,0,0,0,54,36m12.55,0c-3,1.09-3,5.77.07,6.83,1.54.53,3.59-.27,4.07-1.59l.11-.31-.6-.18c-.59-.19-.83-.15-.83.13a.68.68,0,0,1-.22.31,2,2,0,0,1-3.3-1c-.08-.37,0-.37,2.67-.37h2.42L70.86,39a3.2,3.2,0,0,0-4.33-3m7.84,0A3.67,3.67,0,0,0,73,42a3.45,3.45,0,0,0,5.89-2.6A3.36,3.36,0,0,0,74.37,36m-44.94.1a1.89,1.89,0,0,0-.83.53c-.41.47-.52.44-.52-.11V36h-1.4l0,3.36,0,3.35h1.54V41c0-2.84.52-3.67,2.18-3.49.17,0,.19,0,.22-.7,0-1-.11-1-1.14-.69m26.35,1.16a1.54,1.54,0,0,1,.88,1.12l.05.34H53.19l.07-.32a1.79,1.79,0,0,1,2.52-1.14m12.7,0a1.68,1.68,0,0,1,.87,1.21v.22H67.61c-1.91,0-1.86,0-1.61-.6a1.79,1.79,0,0,1,2.48-.83m-32.95,0c1.82.76,1.68,3.85-.19,4.3s-3.13-1.72-2.14-3.44a1.92,1.92,0,0,1,2.33-.86m40.49,0c1.87.64,1.83,3.74-.06,4.29a2,2,0,0,1-2.51-1.9A2.08,2.08,0,0,1,76,37.26" transform="translate(0 0)"/></svg>