<svg xmlns="http://www.w3.org/2000/svg" viewBox="0 0 80 87.50001"><defs><style>.cls-1{fill:#f2f2f2;}.cls-2{fill:#b88946;}.cls-3{fill:#0c626e;}.cls-3,.cls-4,.cls-5{fill-rule:evenodd;}.cls-5,.cls-7{fill:#fff;}.cls-6{fill:#0f489e;}</style></defs><g id="Layer_2" data-name="Layer 2"><g id="Layer_1-2" data-name="Layer 1"><rect class="cls-1" width="80" height="80" rx="39.99996"/><path class="cls-2" d="M39.89179,47.16864c-6.13583,0-12.36667-2.30243-15.874-5.86544A10.00437,10.00437,0,0,1,20.912,34.073a9.67946,9.67946,0,0,1,3.06108-7.0525c3.52683-3.56885,9.848-5.87495,16.10405-5.87495,8.98453,0,18.448,4.86776,18.73271,13.01346l.00066.01767-.001.01767c-.31739,5.68308-4.90526,10.22544-12.27232,12.1508l-.00467.001A27.532,27.532,0,0,1,39.89179,47.16864Zm.18537-25.24294c-6.058,0-12.16147,2.21509-15.54911,5.64323a8.93324,8.93324,0,0,0-2.836,6.50557,9.12881,9.12881,0,0,0,2.88171,6.68159c3.36814,3.42165,9.38078,5.6324,15.31807,5.6324a26.75465,26.75465,0,0,0,6.45039-.79881c7.01366-1.83368,11.38148-6.10216,11.68754-11.421C57.74767,26.50507,48.68462,21.9257,40.07716,21.9257Z"/><path class="cls-3" d="M57.52464,58.7913V55.20321h2.47l.03107.81151H59.9332a.8222.8222,0,0,0-.2161-.46806,1.07689,1.07689,0,0,0-.52507-.12461h-.98835a.14649.14649,0,0,0-.15431.156v1.06072c0,.06214,0,.09321.03107.12461,0,.03141.06179.03141.12324.03141h.71011a1.72424,1.72424,0,0,0,.49434-.06281.48841.48841,0,0,0,.185-.43665h.12359V57.5435h-.12359c0-.312-.12324-.46806-.33969-.53088H58.23475c-.12358,0-.18538.03141-.18538.09321v1.12354a.48582.48582,0,0,0,.0618.24922.18585.18585,0,0,0,.18538.09388h.83369a1.37471,1.37471,0,0,0,.67938-.156,1.67166,1.67166,0,0,0,.43222-.56159l.09251.06213-.27755.87364H57.52464Zm0-7.05123v-.18743h.679l-.64831-1.49771-.03072.03072v-.49878l.154-.28063h.12358l1.38949,3.08863a.89473.89473,0,0,0,.18538.312.54781.54781,0,0,0,.33969.09388v.12461H58.2344v-.12461c.24718,0,.40149-.06281.40149-.21883,0-.03141-.03107-.06214-.03107-.0932v-.06282l-.30863-.68621h-.77155Zm7.25675-2.2778c-.30862,0-.494.0932-.494.24922v3.21392H64.1638L61.786,50.05494v2.2778c0,.18743.03107.34345.09251.37417a.62958.62958,0,0,0,.40149.09389v.12461H61.04513V52.8008c.27756,0,.43221-.06282.49366-.24991V49.83644a.65978.65978,0,0,0-.49366-.37417v-.09389h.89514l2.06922,2.52771v-1.935a.59107.59107,0,0,0-.09252-.40558,1.46421,1.46421,0,0,0-.40148-.09321v-.09388h1.26624v.09389ZM70,52.92541H68.36334V52.8008h.24717c.09252-.03141.15431-.06282.15431-.12461,0-.06282-.03107-.09389-.09252-.156l-.06179-.06282-1.11159-1.15426-.09252-.06282-.09252-.03141v1.15495a.39083.39083,0,0,0,.12324.34276.53118.53118,0,0,0,.37076.09389v.12461H66.233v-.12461a.63105.63105,0,0,0,.40148-.09389c.09252-.06213.12359-.18674.12359-.37417V49.99212a.59178.59178,0,0,0-.09252-.40559.71261.71261,0,0,0-.43255-.12461V49.368h1.6056v.09388a.46583.46583,0,0,0-.52473.49879v1.12354a.22424.22424,0,0,0,.18538-.12461l.86441-.87432c.0618-.03073.09252-.0932.15432-.12461a.10712.10712,0,0,1,.03106-.06213.37553.37553,0,0,0,.12325-.24991.1592.1592,0,0,0-.12325-.156c-.09251,0-.15431-.03072-.21644-.03072V49.368h1.35876v.09389a1.21351,1.21351,0,0,0-.86476.46737l-.95728.96752,1.5438,1.5916a1.70519,1.70519,0,0,0,.27789.21816.51511.51511,0,0,0,.30863.09388v.12495ZM57.52464,49.58688v.49878l-.64866,1.467h.64866v.18743h-.74118l-.24717.5616a1.28206,1.28206,0,0,0-.09252.28063.1602.1602,0,0,0,.06179.12461c.03107.06282.0618.09388.09252.09388h.27756v.12461H55.70225v-.12461a.43952.43952,0,0,0,.37042-.18743,1.75249,1.75249,0,0,0,.15431-.24922l1.29766-2.77726Zm0,5.61633v3.5881H56.9685V58.6667a.70041.70041,0,0,0,.40148-.09321c.09252-.06281.12359-.18742.12359-.37485V55.79622c0-.18743-.03107-.312-.12359-.37417a.62888.62888,0,0,0-.40148-.09389v-.12495Zm-4.66282,3.24533V57.38782a1.37943,1.37943,0,0,0,.30863.71761,1.13165,1.13165,0,0,0,1.01873.5302,1.68709,1.68709,0,0,0,1.26624-.68621l.09252.0932a1.7529,1.7529,0,0,1-1.51342.8115,1.68412,1.68412,0,0,1-1.1727-.40558Zm0-1.87223v-.99824a1.84084,1.84084,0,0,1,1.20411-.43733,2.43018,2.43018,0,0,1,.89549.18742c.06179,0,.09252.03141.12324.03141l.09252-.03141c.03107-.0314.06179-.0314.06179-.06213.03107,0,.03107-.03141.03107-.09388h.09252l.12324,1.15495h-.12324a1.28762,1.28762,0,0,0-1.20411-.99894,1.18673,1.18673,0,0,0-.98834.53088,1.49634,1.49634,0,0,0-.30829.71727Zm0-3.6509v-.21884c.52473-.0932.803-.34276.803-.74869a.70174.70174,0,0,0-.33969-.6548,1.27508,1.27508,0,0,0-.46294-.12529v-.21815a.57644.57644,0,0,0,.24717-.06282c.24683-.0932.40149-.24922.40149-.46806l.03072-.18674-.03072-.1567c0-.21815-.15466-.37417-.40149-.46738-.06213-.03141-.15465-.03141-.24717-.06281V49.3677a2.0564,2.0564,0,0,1,.803.156.75017.75017,0,0,1,.43255.68689.68836.68836,0,0,1-.21645.53019,1.08692,1.08692,0,0,1-.494.28063,1.62393,1.62393,0,0,1,.61759.28131.73989.73989,0,0,1,.24717.59267.84385.84385,0,0,1-.52473.84223,2.98693,2.98693,0,0,1-.86544.18777Zm0-3.55737v.18743h-.40148a.45173.45173,0,0,0-.21645.03141.29884.29884,0,0,0-.06179.21815v1.06073a.11378.11378,0,0,0,.12324.12529H52.46a1.60685,1.60685,0,0,0,.40148-.03141v.21815a1.058,1.058,0,0,0-.309-.03072h-.30828c-.03107.03072-.0618.06213-.0618.0932V52.457c0,.18743.09252.24922.30863.24922h.37075v.21884H51.10157v-.12461a.63116.63116,0,0,0,.40149-.09388c.09252-.06214.12358-.18675.12358-.37418V49.96071c0-.18674-.03106-.312-.12358-.37417-.06179-.09389-.21611-.12461-.40149-.12461V49.368h1.76025Zm0,6.21v.99825a2.66577,2.66577,0,0,0,0,.8115v1.06073a.42591.42591,0,0,1-.12358-.09389,1.79727,1.79727,0,0,1-.52507-1.31028,1.8688,1.8688,0,0,1,.52507-1.3417c.03038-.06248.09252-.09389.12358-.12461ZM40.50936,58.7913v-.46737a1.52872,1.52872,0,0,0,.46328.34276v.12461Zm0-7.05123v-.18743h.64832l-.64832-1.49771v-.46806l.12359-.28063h.12325l1.38948,3.08863a.90526.90526,0,0,0,.18538.312.54783.54783,0,0,0,.3397.09388v.12461H41.1884v-.12461c.24718,0,.40149-.06281.40149-.21883a.11377.11377,0,0,0-.03107-.0932v-.06282l-.30862-.68621h-.74084Zm6.70131.24922-.309.93612H43.99914V52.8008c.30862,0,.46293-.06282.494-.21884a1.11467,1.11467,0,0,0,.03072-.18743V49.96071a.65015.65015,0,0,0-.09252-.40559.73784.73784,0,0,0-.43221-.0932V49.368h1.6056v.09388a.88318.88318,0,0,0-.27756.06214c-.12358.03141-.21645.09388-.21645.18743a.78526.78526,0,0,0-.03072.24922v2.4031a.3836.3836,0,0,0,.09252.28063.44066.44066,0,0,0,.2779.06213H46.068a1.15293,1.15293,0,0,0,1.05014-.71762h.09252Zm-1.38983,5.92838-.27756.87363h-3.088v-.12461a.7012.7012,0,0,0,.40149-.0932.53241.53241,0,0,0,.12324-.37485V55.79622a.5307.5307,0,0,0-.12324-.37417.692.692,0,0,0-.40149-.09389v-.12495h2.99509l.06179.81151H45.389a.66552.66552,0,0,0-.21645-.46806.94383.94383,0,0,0-.494-.12461H43.65979c-.09252,0-.12359.06213-.12359.156V56.7634c.03107.03141.06213.03141.12359.03141H44.401a1.47892,1.47892,0,0,0,.46294-.06281.44374.44374,0,0,0,.21644-.43665h.09252V57.5435h-.09252a.46791.46791,0,0,0-.37075-.53088H43.69085c-.09252,0-.15465.03141-.15465.09321v1.12354a.53573.53573,0,0,0,.03107.24922c.03107.06282.09252.09388.2161.09388h.8337a1.24768,1.24768,0,0,0,.64831-.156,1.35573,1.35573,0,0,0,.43255-.56159l.12291.06281Zm4.81746,0-.2779.87363H47.27246v-.12461a.70116.70116,0,0,0,.40148-.0932c.09252-.06281.12325-.18743.12325-.37485V55.79622c0-.18743-.03073-.312-.12325-.37417a.62953.62953,0,0,0-.40148-.09389v-.12495h3.02615l.03072.81151h-.12324a.6667.6667,0,0,0-.21611-.46806.94522.94522,0,0,0-.49434-.12461H48.47691c-.09252,0-.12325.06213-.12325.156v1.06072c0,.06214,0,.09321.03073.12461,0,.03141.03107.03141.09252.03141h.74117a1.905,1.905,0,0,0,.494-.06281.48774.48774,0,0,0,.18538-.43665h.12325V57.5435h-.12325a.46791.46791,0,0,0-.37075-.53088H48.508c-.09252,0-.15431.03141-.15431.09321v1.12354a.54116.54116,0,0,0,.03073.24922.23906.23906,0,0,0,.21644.09388h.83336a1.465,1.465,0,0,0,.67938-.156,1.63158,1.63158,0,0,0,.40148-.56159l.12325.06281ZM40.50936,49.58688v.49878l-.67938,1.467h.67938v.18743h-.7719l-.24717.5616a1.30385,1.30385,0,0,0-.09252.28063.16023.16023,0,0,0,.06179.12461c.03107.06282.0618.09388.09252.09388H39.83v.12461h-.74083v-.37485l.09252-.18675,1.32769-2.77692Zm0,8.737v.46738H40.17c-.24717-.312-.55613-.6548-.89582-1.09145-.03073-.03141-.09252-.12529-.185-.24991v-.53019a.77131.77131,0,0,0,.67938-.78009.71684.71684,0,0,0-.24717-.53088.91723.91723,0,0,0-.43221-.18674v-.21884h.03072a1.61078,1.61078,0,0,1,.803.21884.72093.72093,0,0,1,.40148.68621.76623.76623,0,0,1-.24717.62408.91484.91484,0,0,1-.61759.312c.09252.12461.24718.312.43256.5616a8.6571,8.6571,0,0,0,.61724.718Zm-1.42021-5.773v.37486h-.40148v-.12461a.427.427,0,0,0,.33969-.18743l.06179-.06282Zm0,2.65232v.21884H38.6566c-.15432,0-.24717.0932-.24717.28063v1.15426l.06179.06282c.03072.03141.06179.06213.09252.06213a2.68017,2.68017,0,0,0,.52507-.06213V57.45c-.06179-.0932-.15465-.18743-.21611-.28063h-.309c-.09252,0-.15431.03141-.15431.12461v.87432a.49641.49641,0,0,0,.15431.40558.57706.57706,0,0,0,.40148.09321v.12461H37.3289V58.667a.81818.81818,0,0,0,.43255-.09321.701.701,0,0,0,.12359-.40558v-2.4031a.40318.40318,0,0,0-.15431-.34276.62893.62893,0,0,0-.40149-.09389v-.12529Zm-8.92448-2.21567V52.8008a1.0831,1.0831,0,0,0,.92621-.53088,1.95077,1.95077,0,0,0,.30862-1.09213,2.15944,2.15944,0,0,0-.27789-1.12286,1.0304,1.0304,0,0,0-.95728-.56194v-.21815A1.78164,1.78164,0,0,1,31.492,49.805a1.82,1.82,0,0,1,.52507,1.34238A1.86966,1.86966,0,0,1,31.492,52.4891a1.76033,1.76033,0,0,1-1.32735.49844Zm7.195-3.52527c-.30863,0-.46294.0932-.494.24922v3.21392H36.742L34.3642,50.05494v2.2778c0,.18743.03073.34345.12359.37417a.57215.57215,0,0,0,.40148.09389v.12461h-1.2659V52.8008c.2779,0,.46294-.06282.494-.24991V49.83644a.66086.66086,0,0,0-.494-.37417v-.09389h.89549l2.09994,2.52771v-1.935c0-.21816-.03107-.34276-.12359-.40558a1.18735,1.18735,0,0,0-.40149-.09321v-.09388h1.26591v.09389Zm-1.57487,7.48856c-.21611,0-.37042.06213-.40148.21815v1.24849a2.54412,2.54412,0,0,1-1.45129.43665,2.056,2.056,0,0,1-1.35842-.46806,1.75389,1.75389,0,0,1-.58686-1.34169,1.86835,1.86835,0,0,1,.58686-1.37276,1.95584,1.95584,0,0,1,1.35843-.53088,1.38637,1.38637,0,0,1,.55579.1253,2.77836,2.77836,0,0,0,.46294.0932c.09252,0,.15465-.06282.18538-.18743h.09252l.06179,1.09213H35.1979a2.60206,2.60206,0,0,0-.43255-.65548,1.02457,1.02457,0,0,0-.74118-.24922,1.26733,1.26733,0,0,0-1.04979.49946,1.93194,1.93194,0,0,0-.37042,1.18567,1.75634,1.75634,0,0,0,.37042,1.12355,1.2686,1.2686,0,0,0,1.04979.49878,1.0959,1.0959,0,0,0,.803-.28063V57.26252c0-.03073-.03107-.06214-.03107-.0932,0-.09321-.06179-.156-.185-.18743a2.09171,2.09171,0,0,1-.309-.03073v-.09388h1.48235v.09355Zm-5.62009-7.676V49.493a.98867.98867,0,0,0-.92656.53087,2.16356,2.16356,0,0,0-.27789,1.12355,1.97,1.97,0,0,0,.27789,1.09144,1.05042,1.05042,0,0,0,.92656.562v.18674a1.73682,1.73682,0,0,1-1.297-.49878,1.92512,1.92512,0,0,1-.52507-1.3417,1.87154,1.87154,0,0,1,.52507-1.34237,1.762,1.762,0,0,1,1.297-.52985Zm-8.73911,9.57928v-.18743a1.088,1.088,0,0,0,.92656-.56159,2.03388,2.03388,0,0,0,.30862-1.06073,2.08877,2.08877,0,0,0-.30862-1.15495,1.018,1.018,0,0,0-.92656-.5616v-.18743a1.78085,1.78085,0,0,1,1.328.53088,1.79934,1.79934,0,0,1,.494,1.34169,1.77449,1.77449,0,0,1-.494,1.311,1.71512,1.71512,0,0,1-1.328.53019Zm0-5.92871V52.8008a.27252.27252,0,0,0,.21611-.18743.98759.98759,0,0,0,.03072-.34345V49.61828c-.03072-.03141-.06179-.03141-.12358-.03141h-.12359V49.368H23.587v.9047h-.12358a.86784.86784,0,0,0-.15431-.49878.62356.62356,0,0,0-.46328-.18743h-.43221c-.09252,0-.15465,0-.15465.03141,0,.03073-.03073.06214-.03073.12461v2.496c0,.2499.03073.40592.12359.46806.06179.06281.185.09388.43221.09388v.12461H21.42556Zm5.24968,0H25.0693V52.8008c.18538,0,.3397,0,.40149-.06282a.56385.56385,0,0,0,.12358-.40558V49.96071a.70029.70029,0,0,0-.12358-.40559.69179.69179,0,0,0-.40149-.0932V49.368h1.60594v.09388q-.37075,0-.46328.18675a.79523.79523,0,0,0-.06179.312v2.3717c0,.18742.03107.312.12359.37417a.629.629,0,0,0,.40148.09388v.125Zm1.20445,3.12H27.7561a.665.665,0,0,0-.2161-.46737.90865.90865,0,0,0-.5558-.156h-.74083a.18569.18569,0,0,0-.18538.0932.17148.17148,0,0,0-.09252.156v.96752a.16431.16431,0,0,0,.185.18674h.46328a1.48743,1.48743,0,0,0,.46327-.06213.48852.48852,0,0,0,.18538-.43665h.12325v1.24747h-.12325a.76933.76933,0,0,0-.12358-.40558c-.0618-.0932-.21611-.12461-.43221-.12461h-.58687a.1465.1465,0,0,0-.15431.156v.99825a.42887.42887,0,0,0,.15431.37485.63392.63392,0,0,0,.40149.0932V58.791H24.88461v-.12461a.579.579,0,0,0,.40148-.0932c.09252-.06282.12359-.18743.12359-.37485V55.79588c0-.18743-.03107-.312-.12359-.37417a.62888.62888,0,0,0-.40148-.09389v-.12461h2.93363l.06145.84223ZM21.42556,49.368v.21884h-.06179a1.11982,1.11982,0,0,0-.61759.0932.76977.76977,0,0,0-.2779.59267H20.345l.03073-.90471Zm0,3.43276v.12461h-.27789V52.8008h.27789Zm0,2.33994v.18743a1.09828,1.09828,0,0,0-.95728.5616,2.32629,2.32629,0,0,0-.24717,1.12354,2.12442,2.12442,0,0,0,.2779,1.09213,1.01785,1.01785,0,0,0,.92621.5616v.18742a1.64893,1.64893,0,0,1-1.297-.53019,1.98025,1.98025,0,0,1-.03072-2.65266,1.83012,1.83012,0,0,1,1.328-.53087Zm-4.53922-3.40067v-.18743h.67938l-.64832-1.49771-.03072.03072v-.49878l.12358-.28063h.12359l1.42056,3.08863a.89966.89966,0,0,0,.18538.312.4551.4551,0,0,0,.30862.09388v.12461H17.56606v-.12461c.2779,0,.40148-.06281.40148-.21883v-.0932a.09833.09833,0,0,1-.03072-.06282l-.30863-.68621h-.74185Zm-3.14974-2.2778c-.309,0-.46328.0932-.494.24922v3.21392H13.119l-2.37784-2.87048v2.27781c0,.18743.03073.34344.12359.37417a.57215.57215,0,0,0,.40148.09389v.12461H10V52.8008c.2779,0,.46328-.06282.494-.24991V49.83644A.66086.66086,0,0,0,10,49.46227v-.09389h.89549l2.09994,2.52771v-1.935c0-.21816-.03073-.34276-.12359-.40558a1.18734,1.18734,0,0,0-.40148-.09321v-.09388h1.2659v.09389Zm3.14974.12461v.49878l-.67938,1.467h.67938v.18743h-.74118l-.2779.5616c-.03072.156-.06179.24922-.06179.28063,0,.06282,0,.09388.03107.12461a.16465.16465,0,0,0,.12324.09388H16.207v.12461H15.0643v-.12461a.43967.43967,0,0,0,.37075-.18743,1.90426,1.90426,0,0,0,.12325-.24922l1.328-2.77726Z"/><path class="cls-3" d="M24.0813,29.08661l2.13066.65515,10.1286.03106.03106-.65514,3.5205-1.34169,3.4587,1.31062c.15431.156.06179.46806.06179.65515l9.75818.03106,2.50108-.68655A17.48066,17.48066,0,0,0,54.0352,27.183c-6.5777-5.6474-17.60178-6.08439-25.07464-2.21533a17.48689,17.48689,0,0,0-4.87926,4.119Z"/><path class="cls-3" d="M24.51351,39.63308l2.00708.03107h13.433l3.18046.0314c.61793,0,.09252.03107,1.45163,0H55.27005a10.3861,10.3861,0,0,1-1.297,1.40383c-6.54665,5.617-17.57073,6.08508-25.04359,2.18427a13.754,13.754,0,0,1-4.416-3.65057Z"/><polygon class="cls-4" points="39.923 32.176 40.417 32.176 40.417 33.767 39.923 33.767 39.923 32.176"/><path d="M40.42472,33.77444h-.50959V32.168h.50959Zm-.49426-.01534h.47893V32.18331h-.47893Z"/><polygon class="cls-4" points="39.336 32.176 39.83 32.176 39.83 33.767 39.336 33.767 39.336 32.176"/><path d="M39.83761,33.77444h-.50926V32.168h.50926Zm-.49392-.01534h.47859V32.18331h-.47859Z"/><polygon class="cls-4" points="39.367 32.051 40.479 32.051 40.479 31.739 39.367 31.739 39.367 32.051"/><path d="M40.4864,32.05828H39.35935v-.32739H40.4864ZM39.37469,32.043h1.09637v-.29673H39.37469Z"/><path class="cls-4" d="M38.96556,38.82192V36.201a.85364.85364,0,0,1,.89583-.874.89228.89228,0,0,1,.92621.874v2.62091Z"/><path d="M40.79513,38.82956H38.95795V36.20107a.85729.85729,0,0,1,.90283-.88167.89589.89589,0,0,1,.93435.88067Zm-1.82185-.01533h1.80651V36.20107a.88173.88173,0,0,0-.919-.86633.84336.84336,0,0,0-.8875.867Z"/><polygon class="cls-4" points="41.034 36.825 41.374 36.825 41.374 37.23 41.034 37.23 41.034 36.825"/><path d="M41.3819,37.23793h-.35506V36.817h.35506Zm-.33973-.01534h.3244v-.39024h-.3244Z"/><polygon class="cls-4" points="38.41 37.23 38.749 37.23 38.749 36.825 38.41 36.825 38.41 37.23"/><path d="M38.75707,37.23793h-.3549V36.817h.3549Zm-.33956-.01534h.32423v-.39024h-.32423Z"/><rect x="37.45249" y="34.19619" width="5.03329" height="0.01534"/><polygon class="cls-5" points="38.996 36.263 40.664 36.263 40.664 36.17 38.996 36.17 38.996 36.263"/><path d="M40.67177,36.27075H38.98862v-.10886h1.68315ZM39.004,36.25541h1.65248v-.07818H39.004Z"/><polygon class="cls-5" points="39.892 37.511 40.664 37.511 40.664 37.449 39.892 37.449 39.892 37.511"/><rect x="39.83761" y="37.39429" width="0.88117" height="0.17153"/><polygon class="cls-5" points="39.892 38.385 40.664 38.385 40.664 38.322 39.892 38.322 39.892 38.385"/><path d="M40.67177,38.39265h-.78732V38.3148h.78732Zm-.772-.01534h.75664v-.04717h-.75664Z"/><polygon class="cls-5" points="38.996 37.511 39.799 37.511 39.799 37.449 38.996 37.449 38.996 37.511"/><rect x="38.94178" y="37.39429" width="0.91201" height="0.17153"/><polygon class="cls-5" points="38.996 38.385 39.799 38.385 39.799 38.322 38.996 38.322 38.996 38.385"/><path d="M39.80694,38.39265h-.81832V38.3148h.81832Zm-.803-.01534h.78765v-.04717H39.004Z"/><polygon class="cls-5" points="40.479 36.95 40.664 36.95 40.664 36.638 40.479 36.638 40.479 36.95"/><path d="M40.67177,36.95738h-.20071V36.63h.20071ZM40.4864,36.942h.17v-.29672h-.17Z"/><polygon class="cls-5" points="39.614 36.95 39.799 36.95 39.799 36.638 39.614 36.638 39.614 36.95"/><path d="M39.80694,36.95738h-.20071V36.63h.20071Zm-.18537-.01534h.17v-.29672h-.17Z"/><polygon class="cls-5" points="40.293 36.95 40.448 36.95 40.448 36.638 40.293 36.638 40.293 36.95"/><path d="M40.45573,36.95738h-.17V36.63h.17ZM40.301,36.942h.13936v-.29672H40.301Z"/><polygon class="cls-5" points="39.336 36.95 39.491 36.95 39.491 36.638 39.336 36.638 39.336 36.95"/><path d="M39.49838,36.95738h-.17V36.63h.17Zm-.15469-.01534H39.483v-.29672h-.13935Z"/><polygon class="cls-5" points="39.985 36.95 40.17 36.95 40.17 36.638 39.985 36.638 39.985 36.95"/><path d="M40.17768,36.95738H39.977V36.63h.20071Zm-.18537-.01534h.17v-.29672h-.17Z"/><polygon class="cls-5" points="39.12 36.95 39.305 36.95 39.305 36.638 39.12 36.638 39.12 36.95"/><path d="M39.31285,36.95738h-.20071V36.63h.20071Zm-.18537-.01534h.17v-.29672h-.17Z"/><polygon class="cls-5" points="40.479 37.262 40.664 37.262 40.664 36.981 40.479 36.981 40.479 37.262"/><path d="M40.67177,37.26944h-.20071v-.29639h.20071Zm-.18537-.01534h.17v-.26572h-.17Z"/><polygon class="cls-5" points="39.614 37.262 39.799 37.262 39.799 36.981 39.614 36.981 39.614 37.262"/><path d="M39.80694,37.26944h-.20071v-.29639h.20071Zm-.18537-.01534h.17v-.26572h-.17Z"/><polygon class="cls-5" points="40.293 37.262 40.448 37.262 40.448 36.981 40.293 36.981 40.293 37.262"/><path d="M40.45573,37.26944h-.17v-.29639h.17Zm-.1547-.01534h.13936v-.26572H40.301Z"/><polygon class="cls-5" points="39.336 37.262 39.491 37.262 39.491 36.981 39.336 36.981 39.336 37.262"/><path d="M39.49838,37.26944h-.17v-.29639h.17Zm-.15469-.01534H39.483v-.26572h-.13935Z"/><polygon class="cls-5" points="39.985 37.262 40.17 37.262 40.17 36.981 39.985 36.981 39.985 37.262"/><path d="M40.17768,37.26944H39.977v-.29639h.20071Zm-.18537-.01534h.17v-.26572h-.17Z"/><polygon class="cls-5" points="39.12 37.262 39.305 37.262 39.305 36.981 39.12 36.981 39.12 37.262"/><path d="M39.31285,37.26944h-.20071v-.29639h.20071Zm-.18537-.01534h.17v-.26572h-.17Z"/><polygon class="cls-5" points="40.54 38.635 40.695 38.635 40.695 38.478 40.54 38.478 40.54 38.635"/><path d="M40.70244,38.64253h-.1697v-.1717h.1697Zm-.15436-.01534h.139v-.141h-.139Z"/><polygon class="cls-5" points="39.614 38.635 39.799 38.635 39.799 38.478 39.614 38.478 39.614 38.635"/><path d="M39.80694,38.64253h-.20071v-.1717h.20071Zm-.18537-.01534h.17v-.141h-.17Z"/><polygon class="cls-5" points="40.232 38.635 40.417 38.635 40.417 38.478 40.232 38.478 40.232 38.635"/><path d="M40.42472,38.64253H40.224v-.1717h.2007Zm-.18537-.01534h.17v-.141h-.17Z"/><polygon class="cls-5" points="39.336 38.635 39.491 38.635 39.491 38.478 39.336 38.478 39.336 38.635"/><path d="M39.49838,38.64253h-.17v-.1717h.17Zm-.15469-.01534H39.483v-.141h-.13935Z"/><polygon class="cls-5" points="39.985 38.635 40.17 38.635 40.17 38.478 39.985 38.478 39.985 38.635"/><path d="M40.17768,38.64253H39.977v-.1717h.20071Zm-.18537-.01534h.17v-.141h-.17Z"/><polygon class="cls-5" points="39.089 38.635 39.243 38.635 39.243 38.478 39.089 38.478 39.089 38.635"/><path d="M39.25117,38.64253h-.1697v-.1717h.1697Zm-.15437-.01534h.139v-.141h-.139Z"/><polygon class="cls-4" points="42.579 29.929 39.892 29.055 37.267 29.929 42.579 29.929"/><path d="M42.57846,29.93688H37.26713l-.0025-.015,2.62749-.87483.00234.00083,2.68634.874Zm-5.26383-.01533h5.21516l-2.63767-.85817Z"/><path d="M37.3268,29.93772l-.00333-.00351-.25555-.25821.01167-.004,2.53481-.85383.24655-.49743.007.01317.255.48343-.06018-.01517,2.62266.87383-.009.00883-.25071.25289-.00434-.00151-2.56031-.84182Zm2.53432-.85967.00233.00084,2.55832.84116.235-.23738-2.79536-.93135-.0005.00017-.24438.09235-.007-.00767-2.51331.8465.23488.23738Zm.00016-.72363-.22621.45692.22638-.07635.00317.00116.22871.05785ZM42.70982,29.628l-.01033-.004-.257-.09719.00667-.00833.247-.31206.01367.00483Zm-.242-.10819.22671.08585v-.37223Zm-5.33185.10819v-.41675l.01367-.00483.25355.32039-.00983.00367Zm.01534-.39457v.37223l.22688-.08585Z"/><polygon class="cls-5" points="41.621 29.96 39.861 29.367 38.163 29.96 41.621 29.96"/><path d="M41.62128,29.96789H38.16263l-.0025-.015,1.701-.59377.0025.00083,1.76.59294ZM38.208,29.95255h3.3663l-1.71315-.57711Z"/><path d="M26.06151,30.81238l-.00634-.00217-1.75783-.62328-1.095.3794.13219-.30022.00317-.00117.898-.31256.0025.00084,1.92286.658-.004.00783Zm-1.76417-.64179.0025.00084,1.754.62195.08551-.1732-1.90369-.65146-.88983.30973-.11519.26188Zm29.45524.64162-.003-.006-.096-.195.00833-.00284,1.91637-.656.82615.30906V30.2336h.01234l.00266.004.15437.28088-.009.011-.98619-.31156Zm-.07768-.192.08568.17336,1.818-.59178.00233.00067.97019.30656-.13136-.23888v.01367l-.01034-.004-.83115-.31106Z"/><polygon class="cls-4" points="56.629 30.678 56.537 30.491 55.579 30.179 53.849 30.803 56.691 30.803 56.629 30.678"/><path d="M56.70314,30.81055H53.8496l-.00267-.01484,1.732-.62512.00234.00084.96084.31306.00167.003Zm-2.80954-.01534h2.78486l-.05667-.114-.09035-.184-.95252-.31022Z"/><polygon class="cls-4" points="23.093 30.803 23.217 30.553 24.297 30.179 26.088 30.803 23.093 30.803"/><path d="M26.08834,30.81055h-3.0074l.0055-.011.12453-.25238.003-.00116,1.08337-.37541.0025.00084,1.791.62411Zm-2.98273-.01534h2.93723l-1.7455-.60828L23.222,30.5595Z"/><polygon class="cls-5" points="56.691 30.74 56.629 30.709 55.641 30.335 54.375 30.771 56.691 30.771 56.691 30.74"/><path d="M56.69847,30.779H54.37469l-.00266-.015,1.2689-.43742.00267.001.98785.37407.067.034ZM54.4207,30.7637h2.26243V30.745l-.05768-.02933-.98452-.37274Z"/><polygon class="cls-5" points="23.093 30.771 23.124 30.74 24.267 30.335 25.502 30.771 23.093 30.771 23.093 30.771"/><path d="M25.5019,30.779H23.07477l.04668-.046,1.14522-.40641.0025.00084,1.23523.43658Zm-2.39012-.01534h2.34528L24.26667,30.343l-1.13855.40407Z"/><path d="M53.71857,30.533v-.41674l.01367-.00484.25371.3204-.01.00367Zm.01534-.39457v.37224l.22671-.08585Zm-27.576.39457-.01034-.004-.25671-.09718.0065-.00834.24688-.31206.01367.00484Zm-.242-.10818.22671.08585v-.37224Zm-1.924-.36441-.00983-.01033.2222-.44925.00717.012.24722.40558-.00834.0115-.24471-.06185Zm.21371-.42758-.20054.40525.1992-.08635.00251.00066.229.058Zm31.14206.40208.00866-.01617.22271-.41825.00667.01267.225.42175-.01733-.00517-.21438-.06184Zm.23137-.083.002.00067.199.05735-.201-.37674-.2007.37674Z"/><polygon class="cls-5" points="55.085 31.957 56.135 31.957 56.135 31.832 55.085 31.832 55.085 31.957"/><path d="M56.1427,31.96477H55.07749v-.14H56.1427Zm-1.04987-.01534h1.03453v-.10936H55.09283Z"/><polygon class="cls-5" points="52.306 31.957 53.355 31.957 53.355 31.832 52.306 31.832 52.306 31.957"/><path d="M53.36317,31.96477H52.298v-.14h1.0652Zm-1.04987-.01534h1.03453v-.10936H52.3133Z"/><polygon class="cls-5" points="50.484 31.957 51.534 31.957 51.534 31.832 50.484 31.832 50.484 31.957"/><path d="M51.54149,31.96477H50.476v-.14h1.06553Zm-1.0502-.01534h1.03487v-.10936H50.49129Z"/><polygon class="cls-5" points="48.662 31.957 49.712 31.957 49.712 31.832 48.662 31.832 48.662 31.957"/><path d="M49.71948,31.96477h-1.0652v-.14h1.0652Zm-1.04986-.01534h1.03452v-.10936H48.66962Z"/><polygon class="cls-5" points="46.84 31.957 47.89 31.957 47.89 31.832 46.84 31.832 46.84 31.957"/><path d="M47.89747,31.96477h-1.0652v-.14h1.0652Zm-1.04987-.01534h1.03453v-.10936H46.8476Z"/><polygon class="cls-5" points="44.926 31.957 45.975 31.957 45.975 31.832 44.926 31.832 44.926 31.957"/><path d="M45.98311,31.96477h-1.0652v-.14h1.0652Zm-1.04987-.01534h1.03453v-.10936H44.93324Z"/><polygon class="cls-5" points="43.104 31.957 44.153 31.957 44.153 31.832 43.104 31.832 43.104 31.957"/><path d="M44.1611,31.96477H43.09589v-.14H44.1611Zm-1.04987-.01534h1.03453v-.10936H43.11123Z"/><polygon class="cls-5" points="23.742 31.832 24.792 31.832 24.792 31.957 23.742 31.957 23.742 31.832"/><path d="M24.79943,31.96477H23.7339v-.14h1.06553Zm-1.05019-.01534H24.7841v-.10936H23.74924Z"/><polygon class="cls-5" points="26.521 31.832 27.571 31.832 27.571 31.957 26.521 31.957 26.521 31.832"/><path d="M27.57846,31.96477h-1.0652v-.14h1.0652Zm-1.04987-.01534h1.03453v-.10936H26.52859Z"/><polygon class="cls-5" points="28.343 31.832 29.393 31.832 29.393 31.957 28.343 31.957 28.343 31.832"/><path d="M29.40047,31.96477h-1.0652v-.14h1.0652Zm-1.04986-.01534h1.03452v-.10936H28.35061Z"/><polygon class="cls-5" points="30.196 31.832 31.215 31.832 31.215 31.957 30.196 31.957 30.196 31.832"/><path d="M31.22248,31.96477H30.18812v-.14h1.03436Zm-1.019-.01534h1.00369v-.10936H30.20346Z"/><polygon class="cls-5" points="32.049 31.832 33.098 31.832 33.098 31.957 32.049 31.957 32.049 31.832"/><path d="M33.106,31.96477H32.0408v-.14H33.106Zm-1.04987-.01534h1.03453v-.10936H32.05614Z"/><polygon class="cls-5" points="33.963 31.832 34.982 31.832 34.982 31.957 33.963 31.957 33.963 31.832"/><path d="M34.98986,31.96477H33.95533v-.14h1.03453Zm-1.01919-.01534h1.00386v-.10936H33.97067Z"/><polygon class="cls-5" points="35.785 31.832 36.804 31.832 36.804 31.957 35.785 31.957 35.785 31.832"/><path d="M36.81154,31.96477H35.777v-.14h1.03453Zm-1.01919-.01534H36.7962v-.10936H35.79235Z"/><path d="M57.40093,34.18035H42.45511V34.165H54.336V31.08343h.01534V34.165h2.51681V31.23946h.01533V34.165h.51743Zm-31.86069-.00767H25.5249V31.08343h.01534Zm-2.53181,0h-.01534V31.08343h.01534Z"/><rect x="42.4241" y="37.30077" width="14.2977" height="0.10902"/><rect x="22.35214" y="34.16501" width="15.10036" height="0.01534"/><rect x="23.03143" y="37.30077" width="14.39006" height="0.10902"/><path d="M57.40093,34.55459H42.4241v-.01534H57.40093Zm-.58677-3.46349H42.45511v-.01534H56.81416Z"/><rect x="42.4241" y="37.67535" width="14.11267" height="0.10902"/><path d="M37.42149,34.55459H22.38281v-.01534H37.42149Zm.031-3.46349H22.96975v-.01534H37.45249Z"/><rect x="23.24764" y="37.67535" width="14.17385" height="0.10902"/><path d="M53.82692,39.69556h-.01533V38.57968H42.4241v-.01533H53.81159v-7.793h.01533v4.26731h.8565V35.054h-.8565v.3589h.8565v.01533h-.8565v.42158h.8565v.01534h-.8565v.39024h.8565v.01534h-.8565V36.63h.8565v.01534h-.8565v1.919h.8565v.01533h-.8565Zm3.1726-3.05024h-.43241V36.63h.43241Zm.12336-.37457h-.55577v-.01534h.55577Zm.09269-.40558h-.64813v-.01534h.64813Zm.09268-.43692h-.74114v-.01533h.74114Zm.06168-.37423h-.80282v-.01534h.80282Z"/><path d="M56.84516,37.16025h-.27772v-.109h.27772Zm-2.16174,0h-.86416v-.109h.86416Z"/><path d="M55.23919,39.70323H42.47811v-.00767l-.00233-.71H42.4241v-.01533h.05134l-.00266-.79615H42.4241v-.01534h.04868l-.02534-7.39507H53.66456V30.779H42.46277l.02534,7.37973H54.68342v.01534H42.48811l.003.79615H54.68342v.01533H42.49111l.00234.7023H55.23919Zm-29.20452-.00767h-.01534V38.57968h-.82649v-.01533h.82649v-1.919h-.82649V36.63h.82649v-.35923h-.82649v-.01534h.82649v-.39024h-.82649v-.01534h.82649v-.42158h-.82649v-.01533h.82649V35.054h-.82649v-.01534h.82649V30.77137h.01534v4.26731h.023V35.054h-.023v.3589h.023v.01533h-.023v.42158h.023v.01534h-.023v.39024h.023v.01534h-.023V36.63h.023v.01534h-.023v1.919H37.45249v.01533H26.03467Zm-2.66351-3.05024h-.58677V36.63h.58677Zm0-.37457H22.6607v-.01534h.71046Zm0-.40558h-.83365v-.01534h.83365Zm0-.43692h-.89583v-.01533h.89583Zm0-.37423H22.414v-.01534h.95718Z"/><path d="M26.05767,37.16025h-.86483v-.109h.86483Zm-2.68651,0h-.40141v-.109h.40141Z"/><polygon points="37.46 39.672 24.483 39.672 24.483 39.657 37.445 39.657 37.445 38.986 25.193 38.986 25.193 38.97 37.445 38.97 37.445 38.174 25.193 38.174 25.193 38.159 37.445 38.159 37.445 30.748 26.088 30.748 26.088 30.733 37.46 30.733 37.46 39.672"/><polygon class="cls-4" points="55.209 33.829 55.579 33.829 55.579 32.425 55.209 32.425 55.209 33.829"/><path d="M55.58659,33.837h-.38574v-1.4191h.38574Zm-.3704-.01533h.35506V32.43319h-.35506Z"/><polygon class="cls-4" points="52.429 33.829 52.8 33.829 52.8 32.425 52.429 32.425 52.429 33.829"/><path d="M52.8074,33.837h-.38574v-1.4191h.38574Zm-.37041-.01533h.35507V32.43319H52.437Z"/><polygon class="cls-4" points="52.429 37.012 52.8 37.012 52.8 35.546 52.429 35.546 52.429 37.012"/><path d="M52.8074,37.01989h-.38574V35.53777h.38574Zm-.37041-.01534h.35507V35.55311H52.437Z"/><polygon class="cls-4" points="50.607 37.012 50.978 37.012 50.978 35.546 50.607 35.546 50.607 37.012"/><path d="M50.98539,37.01989h-.38574V35.53777h.38574Zm-.37041-.01534h.35507V35.55311H50.615Z"/><polygon class="cls-4" points="48.785 37.012 49.156 37.012 49.156 35.546 48.785 35.546 48.785 37.012"/><path d="M49.16371,37.01989h-.38607V35.53777h.38607Zm-.37074-.01534h.3554V35.55311H48.793Z"/><polygon class="cls-4" points="46.933 37.012 47.272 37.012 47.272 35.546 46.933 35.546 46.933 37.012"/><path d="M47.28,37.01989H46.925V35.53777H47.28Zm-.33973-.01534h.32439V35.55311h-.32439Z"/><polygon class="cls-4" points="45.018 37.012 45.358 37.012 45.358 35.546 45.018 35.546 45.018 37.012"/><path d="M45.36532,37.01989h-.35506V35.53777h.35506Zm-.33973-.01534H45.35V35.55311h-.3244Z"/><polygon class="cls-4" points="43.196 37.012 43.536 37.012 43.536 35.546 43.196 35.546 43.196 37.012"/><path d="M43.54331,37.01989h-.35506V35.53777h.35506Zm-.33973-.01534h.3244V35.55311h-.3244Z"/><polygon class="cls-4" points="50.607 33.829 50.978 33.829 50.978 32.425 50.607 32.425 50.607 33.829"/><path d="M50.98539,33.837h-.38574v-1.4191h.38574Zm-.37041-.01533h.35507V32.43319H50.615Z"/><polygon class="cls-4" points="48.785 33.829 49.156 33.829 49.156 32.425 48.785 32.425 48.785 33.829"/><path d="M49.16371,33.837h-.38607v-1.4191h.38607Zm-.37074-.01533h.3554V32.43319H48.793Z"/><polygon class="cls-4" points="46.933 33.829 47.272 33.829 47.272 32.425 46.933 32.425 46.933 33.829"/><path d="M47.28,33.837H46.925v-1.4191H47.28Zm-.33973-.01533h.32439V32.43319h-.32439Z"/><polygon class="cls-4" points="45.018 33.829 45.358 33.829 45.358 32.425 45.018 32.425 45.018 33.829"/><path d="M45.36532,33.837h-.35506v-1.4191h.35506Zm-.33973-.01533H45.35V32.43319h-.3244Z"/><polygon class="cls-4" points="43.196 33.829 43.536 33.829 43.536 32.425 43.196 32.425 43.196 33.829"/><path d="M43.54331,33.837h-.35506v-1.4191h.35506Zm-.33973-.01533h.3244V32.43319h-.3244Z"/><polygon class="cls-4" points="55.672 33.829 56.042 33.829 56.042 32.425 55.672 32.425 55.672 33.829"/><path d="M56.04968,33.837h-.38574v-1.4191h.38574Zm-.37041-.01533h.35507V32.43319h-.35507Z"/><polygon class="cls-4" points="52.893 33.829 53.263 33.829 53.263 32.425 52.893 32.425 52.893 33.829"/><path d="M53.27082,33.837h-.38607v-1.4191h.38607Zm-.37074-.01533h.3554V32.43319h-.3554Z"/><polygon class="cls-4" points="52.893 37.012 53.263 37.012 53.263 35.546 52.893 35.546 52.893 37.012"/><path d="M53.27082,37.01989h-.38607V35.53777h.38607Zm-.37074-.01534h.3554V35.55311h-.3554Z"/><polygon class="cls-4" points="51.071 37.012 51.41 37.012 51.41 35.546 51.071 35.546 51.071 37.012"/><path d="M51.4178,37.01989h-.35507V35.53777h.35507Zm-.33973-.01534h.3244V35.55311h-.3244Z"/><polygon class="cls-4" points="49.249 37.012 49.588 37.012 49.588 35.546 49.249 35.546 49.249 37.012"/><path d="M49.59579,37.01989h-.35473V35.53777h.35473Zm-.3394-.01534h.32406V35.55311h-.32406Z"/><polygon class="cls-4" points="47.427 37.012 47.766 37.012 47.766 35.546 47.427 35.546 47.427 37.012"/><path d="M47.77411,37.01989h-.35506V35.53777h.35506Zm-.33973-.01534h.3244V35.55311h-.3244Z"/><polygon class="cls-4" points="45.512 37.012 45.852 37.012 45.852 35.546 45.512 35.546 45.512 37.012"/><path d="M45.85942,37.01989h-.35474V35.53777h.35474Zm-.3394-.01534h.32406V35.55311H45.52Z"/><polygon class="cls-4" points="43.691 37.012 44.03 37.012 44.03 35.546 43.691 35.546 43.691 37.012"/><path d="M44.03741,37.01989H43.683V35.53777h.3544Zm-.33907-.01534h.32373V35.55311h-.32373Z"/><polygon class="cls-4" points="51.071 33.829 51.41 33.829 51.41 32.425 51.071 32.425 51.071 33.829"/><path d="M51.4178,33.837h-.35507v-1.4191h.35507Zm-.33973-.01533h.3244V32.43319h-.3244Z"/><polygon class="cls-4" points="49.249 33.829 49.588 33.829 49.588 32.425 49.249 32.425 49.249 33.829"/><path d="M49.59579,33.837h-.35473v-1.4191h.35473Zm-.3394-.01533h.32406V32.43319h-.32406Z"/><polygon class="cls-4" points="47.427 33.829 47.766 33.829 47.766 32.425 47.427 32.425 47.427 33.829"/><path d="M47.77411,33.837h-.35506v-1.4191h.35506Zm-.33973-.01533h.3244V32.43319h-.3244Z"/><polygon class="cls-4" points="45.512 33.829 45.852 33.829 45.852 32.425 45.512 32.425 45.512 33.829"/><path d="M45.85942,33.837h-.35474v-1.4191h.35474Zm-.3394-.01533h.32406V32.43319H45.52Z"/><polygon class="cls-4" points="43.691 33.829 44.03 33.829 44.03 32.425 43.691 32.425 43.691 33.829"/><path d="M44.03741,33.837H43.683v-1.4191h.3544Zm-.33907-.01533h.32373V32.43319h-.32373Z"/><polygon class="cls-4" points="52.398 35.109 53.232 35.109 53.232 35.421 52.398 35.421 52.398 35.109"/><path d="M53.23981,35.42825h-.84916v-.32739h.84916Zm-.83382-.01533h.81849v-.29673H52.406Z"/><polygon class="cls-4" points="52.398 31.988 53.232 31.988 53.232 32.269 52.398 32.269 52.398 31.988"/><path d="M53.23981,32.27682h-.84916v-.29605h.84916Zm-.83382-.01533h.81849V31.9961H52.406Z"/><polygon class="cls-4" points="55.178 31.988 56.011 31.988 56.011 32.269 55.178 32.269 55.178 31.988"/><path d="M56.019,32.27682h-.84916v-.29605H56.019Zm-.83383-.01533h.81849V31.9961h-.81849Z"/><polygon class="cls-4" points="50.577 35.109 51.41 35.109 51.41 35.421 50.577 35.421 50.577 35.109"/><path d="M51.4178,35.42825H50.569v-.32739h.84883Zm-.83349-.01533h.81816v-.29673h-.81816Z"/><polygon class="cls-4" points="50.577 31.988 51.41 31.988 51.41 32.269 50.577 32.269 50.577 31.988"/><path d="M51.4178,32.27682H50.569v-.29605h.84883Zm-.83349-.01533h.81816V31.9961h-.81816Z"/><polygon class="cls-4" points="48.755 35.109 49.588 35.109 49.588 35.421 48.755 35.421 48.755 35.109"/><path d="M49.59579,35.42825H48.7473v-.32739h.84849Zm-.83316-.01533h.81782v-.29673h-.81782Z"/><polygon class="cls-4" points="48.755 31.988 49.588 31.988 49.588 32.269 48.755 32.269 48.755 31.988"/><path d="M49.59579,32.27682H48.7473v-.29605h.84849Zm-.83316-.01533h.81782V31.9961h-.81782Z"/><polygon class="cls-4" points="46.933 35.109 47.766 35.109 47.766 35.421 46.933 35.421 46.933 35.109"/><path d="M47.77411,35.42825H46.925v-.32739h.84916Zm-.83382-.01533h.81849v-.29673h-.81849Z"/><polygon class="cls-4" points="46.933 31.988 47.766 31.988 47.766 32.269 46.933 32.269 46.933 31.988"/><path d="M47.77411,32.27682H46.925v-.29605h.84916Zm-.83382-.01533h.81849V31.9961h-.81849Z"/><polygon class="cls-4" points="45.018 35.109 45.852 35.109 45.852 35.421 45.018 35.421 45.018 35.109"/><path d="M45.85942,35.42825h-.84916v-.32739h.84916Zm-.83383-.01533h.81849v-.29673h-.81849Z"/><polygon class="cls-4" points="45.018 31.988 45.852 31.988 45.852 32.269 45.018 32.269 45.018 31.988"/><path d="M45.85942,32.27682h-.84916v-.29605h.84916Zm-.83383-.01533h.81849V31.9961h-.81849Z"/><polygon class="cls-4" points="43.196 35.109 44.03 35.109 44.03 35.421 43.196 35.421 43.196 35.109"/><path d="M44.03741,35.42825h-.84916v-.32739h.84916Zm-.83383-.01533h.81849v-.29673h-.81849Z"/><polygon class="cls-4" points="43.196 31.988 44.03 31.988 44.03 32.269 43.196 32.269 43.196 31.988"/><path d="M44.03741,32.27682h-.84916v-.29605h.84916Zm-.83383-.01533h.81849V31.9961h-.81849Z"/><polygon class="cls-4" points="55.703 35.452 56.413 35.452 56.413 34.953 55.703 34.953 55.703 35.452"/><path d="M56.42042,35.45959h-.72548v-.51476h.72548Zm-.71014-.01533h.6948v-.48409h-.6948Z"/><polygon class="cls-4" points="54.807 35.452 55.548 35.452 55.548 34.953 54.807 34.953 54.807 35.452"/><path d="M55.55592,35.45959h-.75648v-.51476h.75648Zm-.74114-.01533h.7258v-.48409h-.7258Z"/><polygon class="cls-4" points="55.703 37.075 56.413 37.075 56.413 35.546 55.703 35.546 55.703 37.075"/><path d="M56.42042,37.08223h-.72548V35.53777h.72548Zm-.71014-.01533h.6948V35.55311h-.6948Z"/><polygon class="cls-4" points="54.807 37.075 55.548 37.075 55.548 35.546 54.807 35.546 54.807 37.075"/><path d="M55.55592,37.08223h-.75648V35.53777h.75648Zm-.74114-.01533h.7258V35.55311h-.7258Z"/><polygon class="cls-4" points="56.413 37.854 55.703 37.854 55.703 39.009 55.733 39.009 56.413 37.854"/><path d="M55.73762,39.0166h-.04268V37.84671h.73114l-.00667.0115Zm-.02734-.01534H55.729l.67046-1.13921h-.68913Z"/><polygon class="cls-4" points="54.807 39.009 55.548 39.009 55.548 37.854 54.807 37.854 54.807 39.009"/><path d="M55.55592,39.0166h-.75648V37.84671h.75648Zm-.74114-.01534h.7258V37.86205h-.7258Z"/><polygon class="cls-4" points="52.429 39.009 53.263 39.009 53.263 37.979 52.429 37.979 52.429 39.009"/><path d="M53.27082,39.0166h-.84916V37.97173h.84916Zm-.83383-.01534h.81849V37.98707H52.437Z"/><polygon class="cls-4" points="50.607 39.009 51.441 39.009 51.441 37.979 50.607 37.979 50.607 39.009"/><path d="M51.44881,39.0166h-.84916V37.97173h.84916Zm-.83383-.01534h.81849V37.98707H50.615Z"/><polygon class="cls-4" points="48.785 39.009 49.619 39.009 49.619 37.979 48.785 37.979 48.785 39.009"/><path d="M49.6268,39.0166h-.84916V37.97173h.84916Zm-.83383-.01534h.81849V37.98707H48.793Z"/><polygon class="cls-4" points="46.902 39.009 47.766 39.009 47.766 37.979 46.902 37.979 46.902 39.009"/><path d="M47.77411,39.0166h-.88016V37.97173h.88016Zm-.86483-.01534h.8495V37.98707h-.8495Z"/><polygon class="cls-4" points="45.018 39.009 45.852 39.009 45.852 37.979 45.018 37.979 45.018 39.009"/><path d="M45.85942,39.0166h-.84916V37.97173h.84916Zm-.83383-.01534h.81849V37.98707h-.81849Z"/><polygon class="cls-4" points="43.196 39.696 44.03 39.696 44.03 37.979 43.196 37.979 43.196 39.696"/><path d="M44.03741,39.70323h-.84916v-1.7315h.84916Zm-.83383-.01534h.81849V37.98707h-.81849Z"/><polygon class="cls-4" points="24.359 32.425 24.699 32.425 24.699 33.829 24.359 33.829 24.359 32.425"/><path d="M24.70658,33.837h-.35506v-1.4191h.35506Zm-.33973-.01533h.3244V32.43319h-.3244Z"/><polygon class="cls-4" points="27.139 32.425 27.478 32.425 27.478 33.829 27.139 33.829 27.139 32.425"/><path d="M27.48594,33.837h-.35507v-1.4191h.35507Zm-.33973-.01533h.3244V32.43319h-.3244Z"/><polygon class="cls-4" points="27.139 35.546 27.478 35.546 27.478 37.012 27.139 37.012 27.139 35.546"/><path d="M27.48594,37.01989h-.35507V35.53777h.35507Zm-.33973-.01534h.3244V35.55311h-.3244Z"/><polygon class="cls-4" points="28.961 35.546 29.3 35.546 29.3 37.012 28.961 37.012 28.961 35.546"/><path d="M29.308,37.01989h-.35506V35.53777H29.308Zm-.33973-.01534h.3244V35.55311h-.3244Z"/><polygon class="cls-4" points="30.782 35.546 31.122 35.546 31.122 37.012 30.782 37.012 30.782 35.546"/><path d="M31.12963,37.01989h-.35507V35.53777h.35507Zm-.33973-.01534h.3244V35.55311h-.3244Z"/><polygon class="cls-4" points="32.635 35.546 33.006 35.546 33.006 37.012 32.635 37.012 32.635 35.546"/><path d="M33.01349,37.01989h-.38608V35.53777h.38608Zm-.37074-.01534h.3554V35.55311h-.3554Z"/><polygon class="cls-4" points="34.519 35.546 34.859 35.546 34.859 37.012 34.519 37.012 34.519 35.546"/><path d="M34.86617,37.01989h-.3549V35.53777h.3549Zm-.33956-.01534h.32423V35.55311h-.32423Z"/><polygon class="cls-4" points="36.341 35.546 36.68 35.546 36.68 37.012 36.341 37.012 36.341 35.546"/><path d="M36.68785,37.01989h-.3549V35.53777h.3549Zm-.33956-.01534h.32422V35.55311h-.32422Z"/><polygon class="cls-4" points="28.961 32.425 29.3 32.425 29.3 33.829 28.961 33.829 28.961 32.425"/><path d="M29.308,33.837h-.35506v-1.4191H29.308Zm-.33973-.01533h.3244V32.43319h-.3244Z"/><polygon class="cls-4" points="30.782 32.425 31.122 32.425 31.122 33.829 30.782 33.829 30.782 32.425"/><path d="M31.12963,33.837h-.35507v-1.4191h.35507Zm-.33973-.01533h.3244V32.43319h-.3244Z"/><polygon class="cls-4" points="32.635 32.425 33.006 32.425 33.006 33.829 32.635 33.829 32.635 32.425"/><path d="M33.01349,33.837h-.38608v-1.4191h.38608Zm-.37074-.01533h.3554V32.43319h-.3554Z"/><polygon class="cls-4" points="34.519 32.425 34.859 32.425 34.859 33.829 34.519 33.829 34.519 32.425"/><path d="M34.86617,33.837h-.3549v-1.4191h.3549Zm-.33956-.01533h.32423V32.43319h-.32423Z"/><polygon class="cls-4" points="36.341 32.425 36.68 32.425 36.68 33.829 36.341 33.829 36.341 32.425"/><path d="M36.68785,33.837h-.3549v-1.4191h.3549Zm-.33956-.01533h.32422V32.43319h-.32422Z"/><polygon class="cls-4" points="23.865 32.425 24.205 32.425 24.205 33.829 23.865 33.829 23.865 32.425"/><path d="M24.21249,33.837h-.3549v-1.4191h.3549Zm-.33956-.01533h.32422V32.43319h-.32422Z"/><polygon class="cls-4" points="26.645 32.425 26.984 32.425 26.984 33.829 26.645 33.829 26.645 32.425"/><path d="M26.99185,33.837h-.35507v-1.4191h.35507Zm-.33973-.01533h.32439V32.43319h-.32439Z"/><polygon class="cls-4" points="26.645 35.546 26.984 35.546 26.984 37.012 26.645 37.012 26.645 35.546"/><path d="M26.99185,37.01989h-.35507V35.53777h.35507Zm-.33973-.01534h.32439V35.55311h-.32439Z"/><polygon class="cls-4" points="28.466 35.546 28.806 35.546 28.806 37.012 28.466 37.012 28.466 35.546"/><path d="M28.81353,37.01989h-.3549V35.53777h.3549Zm-.33957-.01534h.32423V35.55311H28.474Z"/><polygon class="cls-4" points="30.288 35.546 30.628 35.546 30.628 37.012 30.288 37.012 30.288 35.546"/><path d="M30.63554,37.01989h-.3549V35.53777h.3549Zm-.33957-.01534h.32423V35.55311H30.296Z"/><polygon class="cls-4" points="32.141 35.546 32.511 35.546 32.511 37.012 32.141 37.012 32.141 35.546"/><path d="M32.51906,37.01989h-.38574V35.53777h.38574Zm-.3704-.01534h.35506V35.55311h-.35506Z"/><polygon class="cls-4" points="34.056 35.546 34.426 35.546 34.426 37.012 34.056 37.012 34.056 35.546"/><path d="M34.43392,37.01989h-.38607V35.53777h.38607Zm-.37073-.01534h.3554V35.55311h-.3554Z"/><polygon class="cls-4" points="35.878 35.546 36.248 35.546 36.248 37.012 35.878 37.012 35.878 35.546"/><path d="M36.25577,37.01989H35.87V35.53777h.38574Zm-.37041-.01534h.35507V35.55311h-.35507Z"/><polygon class="cls-4" points="28.466 32.425 28.806 32.425 28.806 33.829 28.466 33.829 28.466 32.425"/><path d="M28.81353,33.837h-.3549v-1.4191h.3549Zm-.33957-.01533h.32423V32.43319H28.474Z"/><polygon class="cls-4" points="30.288 32.425 30.628 32.425 30.628 33.829 30.288 33.829 30.288 32.425"/><path d="M30.63554,33.837h-.3549v-1.4191h.3549Zm-.33957-.01533h.32423V32.43319H30.296Z"/><polygon class="cls-4" points="32.141 32.425 32.511 32.425 32.511 33.829 32.141 33.829 32.141 32.425"/><path d="M32.51906,33.837h-.38574v-1.4191h.38574Zm-.3704-.01533h.35506V32.43319h-.35506Z"/><polygon class="cls-4" points="34.056 32.425 34.426 32.425 34.426 33.829 34.056 33.829 34.056 32.425"/><path d="M34.43392,33.837h-.38607v-1.4191h.38607Zm-.37073-.01533h.3554V32.43319h-.3554Z"/><polygon class="cls-4" points="35.878 32.425 36.248 32.425 36.248 33.829 35.878 33.829 35.878 32.425"/><path d="M36.25577,33.837H35.87v-1.4191h.38574Zm-.37041-.01533h.35507V32.43319h-.35507Z"/><polygon class="cls-4" points="26.645 35.421 27.478 35.421 27.478 35.109 26.645 35.109 26.645 35.421"/><path d="M27.48594,35.42825h-.84916v-.32739h.84916Zm-.83382-.01533h.81849v-.29673h-.81849Z"/><polygon class="cls-4" points="26.645 32.269 27.478 32.269 27.478 31.988 26.645 31.988 26.645 32.269"/><path d="M27.48594,32.27682h-.84916v-.29605h.84916Zm-.83382-.01533h.81849V31.9961h-.81849Z"/><polygon class="cls-4" points="23.865 32.269 24.699 32.269 24.699 31.988 23.865 31.988 23.865 32.269"/><path d="M24.70658,32.27682h-.849v-.29605h.849Zm-.83365-.01533h.81832V31.9961h-.81832Z"/><polygon class="cls-4" points="28.466 35.421 29.3 35.421 29.3 35.109 28.466 35.109 28.466 35.421"/><path d="M29.308,35.42825h-.84932v-.32739H29.308Zm-.834-.01533h.81866v-.29673H28.474Z"/><polygon class="cls-4" points="28.466 32.269 29.3 32.269 29.3 31.988 28.466 31.988 28.466 32.269"/><path d="M29.308,32.27682h-.84932v-.29605H29.308Zm-.834-.01533h.81866V31.9961H28.474Z"/><polygon class="cls-4" points="30.288 35.421 31.122 35.421 31.122 35.109 30.288 35.109 30.288 35.421"/><path d="M31.12963,35.42825h-.849v-.32739h.849Zm-.83366-.01533h.81833v-.29673H30.296Z"/><polygon class="cls-4" points="30.288 32.269 31.122 32.269 31.122 31.988 30.288 31.988 30.288 32.269"/><path d="M31.12963,32.27682h-.849v-.29605h.849Zm-.83366-.01533h.81833V31.9961H30.296Z"/><polygon class="cls-4" points="32.141 35.421 32.975 35.421 32.975 35.109 32.141 35.109 32.141 35.421"/><path d="M32.98232,35.42825h-.849v-.32739h.849Zm-.83366-.01533H32.967v-.29673h-.81832Z"/><polygon class="cls-4" points="32.141 32.269 32.975 32.269 32.975 31.988 32.141 31.988 32.141 32.269"/><path d="M32.98232,32.27682h-.849v-.29605h.849Zm-.83366-.01533H32.967V31.9961h-.81832Z"/><polygon class="cls-4" points="34.056 35.421 34.889 35.421 34.889 35.109 34.056 35.109 34.056 35.421"/><path d="M34.897,35.42825h-.84916v-.32739H34.897Zm-.83382-.01533h.81848v-.29673h-.81848Z"/><polygon class="cls-4" points="34.056 32.269 34.889 32.269 34.889 31.988 34.056 31.988 34.056 32.269"/><path d="M34.897,32.27682h-.84916v-.29605H34.897Zm-.83382-.01533h.81848V31.9961h-.81848Z"/><polygon class="cls-4" points="35.878 35.421 36.711 35.421 36.711 35.109 35.878 35.109 35.878 35.421"/><path d="M36.719,35.42825H35.87v-.32739h.849Zm-.83366-.01533h.81833v-.29673h-.81833Z"/><polygon class="cls-4" points="35.878 32.269 36.711 32.269 36.711 31.988 35.878 31.988 35.878 32.269"/><path d="M36.719,32.27682H35.87v-.29605h.849Zm-.83366-.01533h.81833V31.9961h-.81833Z"/><polygon class="cls-4" points="23.494 34.953 24.236 34.953 24.236 35.452 23.494 35.452 23.494 34.953"/><path d="M24.24333,35.45959h-.75664v-.51476h.75664Zm-.74131-.01533h.726v-.48409h-.726Z"/><polygon class="cls-4" points="24.328 34.953 25.07 34.953 25.07 35.452 24.328 35.452 24.328 34.953"/><path d="M25.07732,35.45959h-.75648v-.51476h.75648Zm-.74114-.01533h.7258v-.48409h-.7258Z"/><polygon class="cls-4" points="23.494 35.546 24.236 35.546 24.236 37.075 23.494 37.075 23.494 35.546"/><path d="M24.24333,37.08223h-.75664V35.53777h.75664ZM23.502,37.0669h.726V35.55311h-.726Z"/><polygon class="cls-4" points="24.328 35.546 25.07 35.546 25.07 37.075 24.328 37.075 24.328 35.546"/><path d="M25.07732,37.08223h-.75648V35.53777h.75648Zm-.74114-.01533h.7258V35.55311h-.7258Z"/><polygon class="cls-4" points="23.494 37.854 24.236 37.854 24.236 39.009 23.989 39.009 23.494 38.26 23.494 37.854"/><path d="M24.24333,39.0166h-.25872l-.00233-.0035-.49559-.75081v-.41558h.75664Zm-.25038-.01534h.235V37.86205h-.726v.39557Z"/><polygon class="cls-4" points="24.328 37.854 25.07 37.854 25.07 39.009 24.328 39.009 24.328 37.854"/><path d="M25.07732,39.0166h-.75648V37.84671h.75648Zm-.74114-.01534h.7258V37.86205h-.7258Z"/><polygon class="cls-4" points="26.645 37.979 27.478 37.979 27.478 39.009 26.645 39.009 26.645 37.979"/><path d="M27.48594,39.0166h-.84916V37.97173h.84916Zm-.83382-.01534h.81849V37.98707h-.81849Z"/><polygon class="cls-4" points="28.466 37.979 29.331 37.979 29.331 39.009 28.466 39.009 28.466 37.979"/><path d="M29.33863,39.0166h-.88V37.97173h.88Zm-.86467-.01534h.84933V37.98707H28.474Z"/><polygon class="cls-4" points="30.319 37.979 31.153 37.979 31.153 39.009 30.319 39.009 30.319 37.979"/><path d="M31.16064,39.0166h-.849V37.97173h.849Zm-.83366-.01534h.81832V37.98707H30.327Z"/><polygon class="cls-4" points="32.141 37.979 32.975 37.979 32.975 39.009 32.141 39.009 32.141 37.979"/><path d="M32.98232,39.0166h-.849V37.97173h.849Zm-.83366-.01534H32.967V37.98707h-.81832Z"/><polygon class="cls-4" points="34.025 37.979 34.889 37.979 34.889 39.009 34.025 39.009 34.025 37.979"/><path d="M34.897,39.0166h-.87983V37.97173H34.897Zm-.8645-.01534h.84916V37.98707h-.84916Z"/><polygon class="cls-4" points="35.878 37.979 36.711 37.979 36.711 39.696 35.878 39.696 35.878 37.979"/><path d="M36.719,39.70323H35.87v-1.7315h.849Zm-.83366-.01534h.81833V37.98707h-.81833Z"/><rect x="37.42149" y="34.53925" width="5.03362" height="0.01534"/><polygon class="cls-5" points="37.823 34.173 41.992 34.173 41.992 33.549 37.823 33.549 37.823 34.173"/><path d="M41.99935,34.18035H37.81523v-.63929h4.18412ZM37.83057,34.165H41.984V33.5564H37.83057Z"/><polygon class="cls-4" points="41.683 30.647 42.023 30.647 42.023 34.079 41.683 34.079 41.683 30.647"/><path d="M42.03036,34.0865h-.35507V30.63918h.35507Zm-.33973-.01534H42.015V30.65452h-.32439Z"/><polygon class="cls-4" points="37.823 30.647 38.194 30.647 38.194 34.079 37.823 34.079 37.823 30.647"/><path d="M38.2013,34.0865h-.38607V30.63918h.38607Zm-.37073-.01534h.3554V30.65452h-.3554Z"/><path d="M41.629,39.0166h-.57111V37.84671H41.629Zm-.55577-.01534h.54043V37.86205h-.54043Zm-2.25426.01534h-.57111V37.84671h.57111Zm-.55577-.01534h.54043V37.86205h-.54043ZM41.66,37.64384h-.60212V36.25541H41.66Zm-.58678-.01534h.57144V36.27075h-.57144Zm-2.28493.01534h-.54044V36.25541h.54044Zm-.5251-.01534h.50976V36.27075h-.50976Zm3.3658-1.45127h-.60211v-.00767a1.06284,1.06284,0,0,0-.55111-1.00319,1.34837,1.34837,0,0,0-.55294-.14369h-.00766v-.10886H41.629Zm-.58678-.01534h.57144V34.92916H39.93046v.07835a1.36933,1.36933,0,0,1,.55161.145A1.05364,1.05364,0,0,1,41.04217,36.16189Zm-2.25392.01534h-.57111V34.91382h1.68265v.10886h-.00767a1.34736,1.34736,0,0,0-.55277.14369,1.0413,1.0413,0,0,0-.5511,1.00319Zm-.55578-.01534h.54044a1.07433,1.07433,0,0,1,.55994-1.00936,1.3693,1.3693,0,0,1,.5516-.145v-.07835h-1.652Zm2.59366-2.637H38.98862V31.74622h-.12319v-.031h-.03117v-.3274h2.10756v.00767h.00734v.35073h-.123ZM39.004,33.50956H40.8108V31.73089h.123v-.32773h-.01534v.31206H38.88076v.01567H39.004Zm-.12319-1.80968h2.02239v-.29672H38.88076Zm-.03117,0h.01584v-.29672h-.01584Z"/><path class="cls-5" d="M38.348,31.27088h-.15432v-.18743c-.12324.156-.2779,0-.2779-.12461.03073-.156.09252-.18709.2779-.18709h.309c.18538,0,.2161.03107.24717.18709,0,.12461-.12359.28063-.24717.12461v.18743Z"/><path d="M38.51036,31.27847H38.186v-.1742a.13415.13415,0,0,1-.1482.045.21283.21283,0,0,1-.12969-.19037c.03234-.1657.103-.19487.28555-.19487h.30906c.18387,0,.22188.02884.25455.19337a.21083.21083,0,0,1-.11369.19353.12121.12121,0,0,1-.13319-.04667Zm-.30906-.01534H38.495v-.1797l.01367-.00483c.04184.05251.08619.07351.12969.05768a.19661.19661,0,0,0,.10369-.17737c-.0295-.14753-.05334-.17954-.23938-.17954h-.30906c-.1887,0-.24171.03551-.27038.181a.19941.19941,0,0,0,.11952.17436.12384.12384,0,0,0,.14486-.05617l.01367.00483Z"/><path class="cls-5" d="M41.52878,31.27088h.15431v-.18743c.15431.156.27756,0,.27756-.12461-.03073-.156-.09252-.18709-.27756-.18709h-.30862c-.18538,0-.21645.03107-.24717.18709,0,.12461.12324.28063.24717.12461v.18743Z"/><path d="M41.69063,31.27847H41.3669v-.1742a.12055.12055,0,0,1-.13369.04651.21023.21023,0,0,1-.11369-.19187c.03234-.166.07068-.19487.255-.19487H41.683c.18237,0,.25305.02917.28539.19337a.20967.20967,0,0,1-.11069.18987.15111.15111,0,0,1-.167-.04584Zm-.30839-.01534h.293v-.1797l.013-.00533a.15028.15028,0,0,0,.16336.055.19311.19311,0,0,0,.10135-.1742c-.02834-.144-.08135-.17954-.27-.17954h-.30839c-.1867,0-.21037.032-.23971.181a.19615.19615,0,0,0,.10368.17587c.044.016.088-.005.13-.05768l.01367.00483Z"/><path d="M42.45511,39.67189H37.39065v-.01534h5.06446Zm0-.34323H37.39065v-.01534h.48642v-4.7664h.01534v4.7664H41.984v-4.7664h.01533v4.7664h.45576Zm-1.66765-.37441H38.96561v-.01533h1.82185Zm1.67531-8.18254h-.01533v-.24222H37.46016v.21088h-.01533v-.58528h-.02334v-.01534h.02334v-.17953h.01533v.17953h4.98728v-.21054h.01533Zm-5.00261-.25755h4.98728v-.35907H37.46016Z"/><polygon class="cls-5" points="38.472 31.146 38.163 31.146 38.132 33.549 38.502 33.549 38.472 31.146"/><path d="M38.51019,33.5564H38.124l.00017-.00784.03084-2.41028h.32423v.0075Zm-.37057-.01534h.3549l-.03067-2.38745H38.1703Z"/><polygon class="cls-5" points="41.374 31.146 41.683 31.146 41.714 33.549 41.313 33.549 41.374 31.146"/><path d="M41.722,33.5564h-.41741l.00033-.00784.06168-2.41028h.32406v.0075Zm-.40141-.01534h.38607l-.03134-2.38745H41.3819Z"/><polygon class="cls-4" points="40.788 34.11 41.251 34.11 41.251 33.673 40.788 33.673 40.788 34.11"/><path d="M41.25821,34.118h-.47842v-.45242h.47842Zm-.46308-.01534h.44775v-.42175h-.44775Z"/><polygon class="cls-4" points="40.015 34.11 40.54 34.11 40.54 33.673 40.015 33.673 40.015 34.11"/><path d="M40.54808,34.118h-.54044v-.45242h.54044Zm-.5251-.01534h.50976v-.42175H40.023Z"/><polygon class="cls-4" points="39.243 34.11 39.799 34.11 39.799 33.673 39.243 33.673 39.243 34.11"/><path d="M39.80694,34.118h-.57111v-.45242h.57111Zm-.55577-.01534h.54043v-.42175h-.54043Z"/><polygon class="cls-4" points="38.595 34.11 39.027 34.11 39.027 33.673 38.595 33.673 38.595 34.11"/><path d="M39.035,34.118h-.44775v-.45242H39.035Zm-.43242-.01534h.41708v-.42175h-.41708Z"/><polygon class="cls-4" points="37.885 34.11 38.348 34.11 38.348 33.673 37.885 33.673 37.885 34.11"/><path d="M38.35566,34.118h-.47859v-.45242h.47859Zm-.46325-.01534h.44792v-.42175h-.44792Z"/><polygon class="cls-4" points="41.529 33.673 41.992 33.673 41.992 34.11 41.529 34.11 41.529 33.673"/><path d="M41.99935,34.118h-.47809v-.45242h.47809Zm-.46275-.01534H41.984v-.42175H41.5366Z"/><rect class="cls-6" x="28.74998" y="72.50001" width="22.5" height="15"/><path class="cls-7" d="M51.25,85.83335H28.75V84.16668h22.5Zm0-3.33337H28.75V80.83332H32.0833V77.5H28.75V75.83335H32.0833V72.5H33.75v3.33334h3.33332V77.5H51.25v1.66668H37.08331V77.5H33.75v3.33331h17.5Zm0-6.66665H37.08331V74.16667H51.25Z"/></g></g></svg>