<svg xmlns="http://www.w3.org/2000/svg" viewBox="0 0 80 87.49994"><defs><style>.cls-1{fill:#f2f2f2;}.cls-2{fill:#0069a3;}.cls-3{fill:#ffcc35;}.cls-4{fill:#ec4417;}</style></defs><g id="Layer_2" data-name="Layer 2"><g id="Layer_1-2" data-name="Layer 1"><rect class="cls-1" width="80" height="80" rx="39.99996"/><path class="cls-2" d="M28,72.49994H52v15H28Z"/><path class="cls-3" d="M28,78.49994h7.5v-6h3v6H52v3H38.5v6h-3v-6H28Z"/><path class="cls-4" d="M10.23008,38.53951c0,1.23041.84028,1.69057,2.09069,1.99067,1.1904.28009,1.44048.64021,1.44048,1.11037,0,.51017-.47015.87029-1.13037.87029a2.89932,2.89932,0,0,1-1.99067-.83028c-.02.03-.6202.76026-.64021.78026a3.81473,3.81473,0,0,0,2.61087,1.01034,1.98649,1.98649,0,0,0,2.23074-1.95065c0-1.02034-.6202-1.63054-2.01067-1.97066-1.26042-.3101-1.5105-.64021-1.5105-1.12037,0-.41014.36012-.83028,1.05035-.83028a2.8,2.8,0,0,1,1.71057.66022l.57019-.83028a3.4117,3.4117,0,0,0-2.26075-.79026,1.97147,1.97147,0,0,0-2.16072,1.90063Zm7.99266-.19006c-.01.02-1.07036,3.37112-1.07036,3.37112l-.96032-3.36112H15.1117c.01.04,1.52051,4.8016,1.53051,4.83161h.94032c.01-.03,1.08036-3.34111,1.08036-3.34111s1.07035,3.32111,1.07035,3.34111h.95032c.01-.03,1.53051-4.78159,1.54051-4.83161H21.17372l-.98032,3.36112L19.113,38.34945Z"/><path class="cls-4" d="M22.80427,40.9003v.02a2.40082,2.40082,0,0,0,2.4208,2.55085,3.0035,3.0035,0,0,0,1.77059-.51017l-.28009-.86029a2.39515,2.39515,0,0,1-1.46049.44015,1.32627,1.32627,0,0,1-1.38046-1.23041v-.02h3.48116l.02-.2901c0-1.32044-.70023-2.65088-2.25075-2.65088a2.37621,2.37621,0,0,0-2.32077,2.55085Zm1.04034-.35012A1.32586,1.32586,0,0,1,25.095,39.22974a1.28809,1.28809,0,0,1,1.22041,1.32044v.02H23.84461Zm7.91264-3.9113v2.34078l-.03-.02a2.05216,2.05216,0,0,0-1.40047-.49016,2.24426,2.24426,0,0,0-2.1107,2.50083v.02a2.29341,2.29341,0,0,0,2.23074,2.50083,16.55563,16.55563,0,0,0,2.33078-.22007V36.64888C32.77759,36.63888,31.75725,36.63888,31.75725,36.63888Zm-2.51083,4.34145v-.02a1.41814,1.41814,0,0,1,1.34044-1.57052,1.21921,1.21921,0,0,1,1.2004.69023v2.38079h-.02a6.69094,6.69094,0,0,1-1.1804.08A1.42067,1.42067,0,0,1,29.24642,40.98033Zm5.24174-4.34145v6.62221a16.55712,16.55712,0,0,0,2.33078.22007,2.292,2.292,0,0,0,2.22074-2.50083v-.02a2.24425,2.24425,0,0,0-2.1107-2.50083,2.05216,2.05216,0,0,0-1.40047.49016l-.03.02V36.62888H34.48816Zm1.01034,5.83194h-.01V40.08a1.2134,1.2134,0,0,1,1.1904-.69023,1.41814,1.41814,0,0,1,1.34045,1.57052v.02a1.43576,1.43576,0,0,1-1.34045,1.57053,7.71573,7.71573,0,0,1-1.18039-.08Zm4.82161-3.72124c.01.03.27009.85029.29009.8803a3.29469,3.29469,0,0,1,1.35045-.31011c.76026,0,1.1904.39013,1.1904,1.09036v.12l-.02-.01a4.13182,4.13182,0,0,0-1.31044-.21007c-1.19039,0-1.91063.6002-1.91063,1.62054v.02a1.53838,1.53838,0,0,0,1.67055,1.52051,17.44945,17.44945,0,0,0,2.60087-.23008V40.42014a1.85674,1.85674,0,0,0-2.07069-2.09069A4.204,4.204,0,0,0,40.32011,38.74958Zm.6202,3.151v-.02c0-.50017.41014-.79027,1.11037-.79027a3.13943,3.13943,0,0,1,1.09037.20007h.01v1.27042h-.01a6.68169,6.68169,0,0,1-1.26042.09C41.32044,42.65088,40.94031,42.35078,40.94031,41.90063Z"/><path class="cls-4" d="M45.31177,38.55952v4.63154h1.06035V39.33978h.01a6.53424,6.53424,0,0,1,1.08036-.07c.65021,0,1.05035.46016,1.05035,1.23041v2.7009h1.06035v-3.021a1.63432,1.63432,0,0,0-1.69056-1.82061A17.12,17.12,0,0,0,45.31177,38.55952Zm5.4118-2.21074v6.84228h1.09037V41.7906l.71023-.74025,1.4905,2.14071h1.26042l-2.01067-2.901s1.88063-1.92065,1.94065-1.98066H53.88462l-2.07069,2.21073V36.35879l-1.09036-.01Z"/><path class="cls-4" d="M63.50783,33.49783A6.50218,6.50218,0,1,0,70,40,6.49344,6.49344,0,0,0,63.50783,33.49783Zm0,12.41414a5.927,5.927,0,1,1,.01,0Z"/><path class="cls-4" d="M64.49817,36.14872h.14005c.04,0,.09.05.12.05a.34039.34039,0,0,0,.1-.01l.05-.05a.16591.16591,0,0,1,.16-.06.57882.57882,0,0,1,.14005.05.11936.11936,0,0,1,.05.09c0,.05-.04.05-.05.1s.01.12.05.12.06-.01.09-.01a.17288.17288,0,0,1,.1-.01.31532.31532,0,0,1,.09.17006c.01.05.04.17006.09.17006s.07-.07.07-.14005a.66057.66057,0,0,0-.01-.14c-.01-.09-.01-.09-.05-.14005a1.06071,1.06071,0,0,0-.1-.12.19626.19626,0,0,1-.09-.09c-.04-.05-.05-.12-.09-.17006a.27591.27591,0,0,0-.14-.12.66062.66062,0,0,0-.14005-.01c-.04,0-.07.04-.1.05-.04.01-.06.05-.09.06a.28382.28382,0,0,1-.1.09c-.05,0-.06-.04-.1-.07l-.09-.09c-.01,0-.09-.01-.1-.01-.04,0-.07.04-.09.07a.17187.17187,0,0,0,0,.17006C64.40813,36.11871,64.44815,36.13871,64.49817,36.14872Zm.22007.65021c.01-.01.05-.04.05-.07a.277.277,0,0,0-.01-.09.30376.30376,0,0,0-.12-.21007h-.09c-.06.01-.17006.05-.14005.14.01.05.06.05.1.09a.40557.40557,0,0,1,.05.09c.01.04.04.07.06.07C64.65822,36.849,64.68823,36.81894,64.71824,36.79893Zm-.95032,1.58053c.01.04.04.09.07.09.07.01.1-.05.12-.09a.941.941,0,0,0,.12-.22007c.01-.04.05-.07.07-.1.01-.04.05-.17005-.01-.18006a.09282.09282,0,0,0-.1.07c-.01.01-.06.07-.1.07s-.07-.05-.09-.07c-.04-.04-.07-.07-.07-.09-.01-.05-.04-.17006-.1-.16-.04,0-.09.1-.09.12a.12842.12842,0,0,0,.04.1.40522.40522,0,0,0,.05.09c.03.03.06.07.09.1.01.04-.01.09,0,.14005A.09362.09362,0,0,0,63.76792,38.37946Zm.42014-1.5105h-.09c-.04-.01-.07-.07-.1-.1-.04-.01-.06-.04-.1-.05a.18453.18453,0,0,0-.16-.05.1166.1166,0,0,0-.1.1c0,.04.05.05.09.05a.28.28,0,0,1,.22007.14005c.01.01.01.04.04.05l.05.05c.05.04.12.01.14.09a.27677.27677,0,0,0,.01.09c.01.04.05.07.06.12a.277.277,0,0,0,.01.09.06665.06665,0,0,0,.07.05c.07,0,.05-.22008.05-.2801a.49057.49057,0,0,0-.1-.26008c-.03-.05-.06-.09-.09-.09ZM63.998,35.56852c.04.01.1.04.14005.01a.2152.2152,0,0,0,.09-.12c0-.04-.05-.07-.09-.09a.75663.75663,0,0,0-.15005-.01c-.04,0-.09.01-.09.05s.01.09.04.1c0,.03.05.06.06.06Zm.66022,2.3808a.06752.06752,0,0,0,.06-.04l.05-.05c.01-.04.01-.14005.04-.17006a.35937.35937,0,0,0,.07-.1.21792.21792,0,0,1,.09-.07.42387.42387,0,0,1,.07-.05c.01-.01.05-.04.05-.06,0-.05-.05-.05-.07-.1-.01-.05.01-.07,0-.12s-.16-.07-.17006,0a.42976.42976,0,0,0,0,.16005c0,.04-.01.09-.01.1-.04.09-.14005.12-.17006.18006v.07a.14836.14836,0,0,0-.01.07.26652.26652,0,0,0,0,.18007Zm.70023-1.24042a.36925.36925,0,0,0-.23008-.07c-.04,0-.06.05-.05.12,0,.01.04.04.05.05a.42371.42371,0,0,0,.07.05c.05.06.06.17006.12.21007.01.01.1.06.14005.04.04-.03,0-.05-.01-.09a.149.149,0,0,1-.04-.09c0-.01.01-.05.01-.07a.47161.47161,0,0,0-.06-.15005Zm-.18006,2.03068.05-.05.05-.05c.01-.01.01-.05.04-.06.01-.04.04-.05.04-.09a.06838.06838,0,0,0-.07-.07.03673.03673,0,0,0-.03.01.27309.27309,0,0,0-.12.09c-.01.01-.05.05-.05.07a.73715.73715,0,0,0-.04.14c-.01.01.07.02.13.01Zm-2.46082-.92031a.21771.21771,0,0,0,.07.09.10687.10687,0,0,0,.15005-.06.10959.10959,0,0,0,0-.08.20042.20042,0,0,0-.1-.12c-.05-.04-.09-.12-.16006-.1-.06.01-.04.1-.01.17006C62.68756,37.77926,62.71757,37.78926,62.71757,37.81927Zm-.28009-1.30043a.22207.22207,0,0,0,.09.01c.03,0,.05-.04.09-.06a.10156.10156,0,0,0,.05-.1c0-.05-.04-.05-.07-.05s-.05.04-.1.05-.09.04-.09.06c-.02.05.01.06.03.09Zm1.63054-.24008c.05,0,.12,0,.12-.04s-.04-.06-.06-.09a1.04583,1.04583,0,0,0-.17006-.04.07471.07471,0,0,0-.05.1h0c-.01.1.08.07.16005.07ZM62.16739,37.6092c.05,0,.14005-.01.14005-.05a.10858.10858,0,0,0-.04-.09.90315.90315,0,0,1-.1-.09.27677.27677,0,0,0-.16-.05c-.04,0-.06.03-.07.07,0,.01.04.05.05.06l.05.05c.07.05.08.1.13.1Zm1.08036-.96032c.01-.01.07-.05.07-.09,0-.07-.12-.07-.17005-.05a.10863.10863,0,0,0-.09.04c-.04.01-.05.1-.05.14a.277.277,0,0,0-.01.09c0,.04-.01.05-.01.09,0,.01.01.09.01.1.01.05.05.1.09.1s.05-.04.07-.05c.04-.05.01-.14.04-.21007,0-.01.01-.03.01-.04v-.07c-.03-.04.01-.04.04-.05ZM61.87729,37.9093a.73711.73711,0,0,0-.14005-.04.15946.15946,0,0,0-.12.04.07308.07308,0,0,0-.04.1c0,.04.06.1.1.12a.33721.33721,0,0,0,.17006.05.10862.10862,0,0,1,.09.04c.05.01.17006.05.17006-.01,0-.04-.04-.09-.05-.14a.34786.34786,0,0,0-.18006-.16006Zm.98033-1.67055c.04,0,.07-.05.09-.09.03-.04.05-.09.09-.09a.48528.48528,0,0,1,.17006,0c.05-.01.07-.14.14005-.14a.12054.12054,0,0,1,.05.05c.01.01.01.05.05.05a.86294.86294,0,0,0,.28009-.04.13192.13192,0,0,0,.1-.09c.04-.05.04-.16-.01-.17006s-.1.05-.16005.07a.22734.22734,0,0,1-.18006-.05c-.04-.04-.05-.07-.09-.07a.13064.13064,0,0,0-.12.07c-.04.04-.07.09-.1.09-.04,0-.04-.04-.05-.05l-.05-.05v-.11a.06221.06221,0,0,0-.06-.04.29771.29771,0,0,0-.17006.14c.01,0,.01.04.01.06,0,.03.05.05.05.09a.06646.06646,0,0,1-.04.05l-.04.04a.11078.11078,0,0,0-.07.09c0,.01.01.07.01.09.02.04.06.1.1.1ZM67.18906,40.09c.01.04.05.09.09.09a.07492.07492,0,0,0,.05-.01c.05-.04.04-.05,0-.1-.01-.01-.01-.05-.04-.05a.13437.13437,0,0,0-.14005-.07c-.04.03-.01.07,0,.1.02,0,.02.01.04.04Zm.70023-.45015c.09,0,.16.01.16-.05,0-.04-.04-.05-.05-.09-.04-.04-.05-.07-.09-.07s-.05.01-.07.05a.277.277,0,0,0,.01.09.57555.57555,0,0,0,.04.07Zm-.42013-.13a.23831.23831,0,0,1,.05.18006c-.01.04-.05.09,0,.12.04,0,.05-.04.06-.05a.41933.41933,0,0,0,.09-.14005.34194.34194,0,0,0-.14-.3101c-.06-.07-.17006-.1-.18006-.21007,0-.04,0-.07-.04-.09h-.01c-.03.03-.06.07-.09.1-.01.04-.05.09-.05.12005s.04.05.05.07c.05.06.20006.11.26009.21007Zm-1.62054-1.1904a.32882.32882,0,0,0-.04.17006.07608.07608,0,0,0,.09.05.55046.55046,0,0,0,.09-.07c.01-.01.01-.04.04-.07a.16132.16132,0,0,0,.04-.07c.01-.01.04-.1.01-.12,0-.05-.06-.07-.1-.07A.30949.30949,0,0,0,65.84862,38.31944Zm-.2801,5.73191c-.01-.05-.09-.07-.17005-.04a.15451.15451,0,0,0-.09.16005.12047.12047,0,0,0,.16.06.0098.0098,0,0,0,.01-.01C65.56852,44.17139,65.60853,44.07136,65.56852,44.05135Zm0,.2801c-.09.04-.12.12-.09.17005a.18321.18321,0,0,0,.21007.04c.06-.04.12-.1.1-.16006a.21609.21609,0,0,0-.22007-.05ZM66.929,42.81094c-.07.05-.1.18006.04.33011a.29837.29837,0,0,0,.38013.09l.01-.01c.06-.05.09-.17006-.05-.32011a.31075.31075,0,0,0-.38012-.09Zm-7.82261-2.63088a.442.442,0,0,0-.16.06.29962.29962,0,0,0-.1.04.15.15,0,0,0,0,.18005c.04.05.1.04.16,0l.05-.05c.01-.01.04-.01.05-.04s.09-.07.09-.1C59.1964,40.23008,59.12637,40.18006,59.10637,40.18006Zm6.66222-2.68089a.21325.21325,0,0,0,.15-.07.31732.31732,0,0,1,.05-.06c.01-.01.05-.04.05-.07a.0975.0975,0,0,0-.04-.09c-.01-.01-.05,0-.09,0-.09,0-.09.01-.12005.09-.01.04-.04.07-.04.09s0,.11.04.11Zm.44014,1.74058c.04-.01.04-.07.07-.09a.14332.14332,0,0,1,.1-.04h.06c.04-.01.05-.07.06-.1.01-.04.05-.09.05-.12s-.05-.05-.1-.04a.277.277,0,0,1-.09.01c-.04.01-.07.01-.09.04l-.06.07a.657.657,0,0,0-.12.17006c-.01.04-.04.06-.05.1a.1716.1716,0,0,0,.17006,0Zm-.66021-1.42048c-.01,0-.05.04-.06.04-.04-.01,0-.16006-.01-.21007,0-.01-.05-.05-.07-.04-.04.04-.05.1-.09.16006a.29417.29417,0,0,1-.1.12l-.05.05c-.01.01-.05.04-.05.05,0,.04.01.06.01.1a.33355.33355,0,0,0,0,.1c.05.06.12-.01.16006-.05s.05-.09.1-.09.1.04.17006.04c.04,0,.07-.04.1-.05.04-.01.06-.05.09-.06a.13381.13381,0,0,1,.05-.01.568.568,0,0,1,.22007-.07c.05,0,.14005-.01.14005-.06,0-.01-.04-.05-.05-.07a.33314.33314,0,0,0-.14005-.01,1.47778,1.47778,0,0,0-.21007.01.56435.56435,0,0,1-.12.04C65.59853,37.78926,65.55852,37.78926,65.54852,37.81927Zm1.53051.8803c-.01-.04-.04-.1-.1-.1s-.06.07-.09.1c-.03.04-.09.07-.09.1,0,.01.04.04.05.05a.65468.65468,0,0,0,.18006.04c.01,0,.06-.01.06-.05s-.01-.06-.01-.09C67.089,38.74958,67.079,38.73958,67.079,38.69957Zm-.71024-.97033h.05c.04,0,.05.01.09.01a.239.239,0,0,1,.14.05c.05.04.09.05.1.1.01.01.01.05.04.09a.35543.35543,0,0,0,.04.09c.04.09.05.18006.09.26009a.15912.15912,0,0,0,.09.09c.01.01.09.04.1.01.04-.01.04-.09.01-.12-.01-.05-.05-.09-.05-.14005s.04-.09.04-.14005-.05-.07-.09-.1c-.01-.01-.01-.04-.04-.05s-.01-.04-.04-.05l-.09-.09c-.01-.01-.04-.01-.05-.04a.293.293,0,0,0-.16-.07,1.60645,1.60645,0,0,0-.3101,0C66.24875,37.65922,66.31877,37.72924,66.36879,37.72924Zm0,.65022c-.01.01-.05.05-.05.06,0,.04.05.01.09.01h.09c.04,0,.05.01.09.01s.04-.09.04-.14005v-.07a.57861.57861,0,0,0-.07-.21007c-.04-.05-.06-.1-.1-.05,0,.09.04.14.01.22008a.24653.24653,0,0,1-.1.17005ZM62.27742,36.869a.14836.14836,0,0,0-.01.07c-.01.12.05.27009.14005.28009s.09-.09.06-.14a.27733.27733,0,0,1-.05-.12c0-.05.07-.04.07-.1,0-.07-.1-.1-.16-.09-.03-.01-.03.03-.05.1Zm3.14105,3.63121c-.05.01-.16.1-.14.16005a.10248.10248,0,0,0,.1.06c.09,0,.12-.05.16-.1.01-.04.04-.05.04-.09a.15258.15258,0,0,0-.16006-.03Zm-.13-.39013c-.01-.06-.05-.09-.09-.14s-.05-.07-.1-.07-.06.04-.09.07a.277.277,0,0,0-.01.09c0,.05.07.07.1.1.04.04.07.09.12.09s.07-.04.09-.06c-.01-.03-.01-.06-.02-.08Zm.22007-.9003a.40522.40522,0,0,0-.09-.05.11937.11937,0,0,0-.09-.05.74175.74175,0,0,0-.21007-.01.66067.66067,0,0,0-.14005.01c-.06.01-.1.01-.14005.07a.90225.90225,0,0,1-.09.1.40546.40546,0,0,1-.09.05.17946.17946,0,0,0-.05.07c-.01.01-.01.05-.04.06-.01.04-.05.05-.09.07-.04.01-.06.05-.09.07-.04.05-.05.09-.09.12s-.1.09-.1.12.01.04.05.04c.01,0,.05-.01.07-.01a.73805.73805,0,0,1,.14005-.04c.01,0,.18006-.01.21007-.01a.15761.15761,0,0,0,.07-.07.24367.24367,0,0,0,0-.12.74684.74684,0,0,1,.07-.12.56338.56338,0,0,1,.12-.04.277.277,0,0,0,.09.01c.04,0,.05-.06.07-.1.01-.04.04-.09.09-.09.01,0,.05.01.05.04.04.05.04.14005.09.17006a.24391.24391,0,0,0,.12,0,.33617.33617,0,0,0,.16-.1.077.077,0,0,0,.01-.1c0-.07-.06-.07-.1-.09ZM64.038,41.41047a1.16236,1.16236,0,0,0-.04-.18006v-.59019c.01-.07.09-.16006.05-.21007s-.1-.01-.16005-.01a1.60282,1.60282,0,0,1-.49017-.05h-.09c-.07,0-.14005,0-.14005.05s.14005.09.18006.1a3.01722,3.01722,0,0,1,.39013.12c.01.01.05.04.05.07s.04.58019.05.65022a.86533.86533,0,0,0,.06.23007,1.04935,1.04935,0,0,0,.14.28009c.04.04.09.1.12.06.04-.01.01-.05,0-.09C64.15805,41.8106,64.038,41.45048,64.038,41.41047Zm-.52017-.05v-.16c0-.05.01-.22007.01-.26009s-.01-.09-.07-.09a.28375.28375,0,0,0-.07.17006.075.075,0,0,1-.01.05c0,.01-.01.1-.01.12,0,.07.01.3101.01.36012a.32561.32561,0,0,0,.04.14005c.01.05.09.1.12.09.01,0,.01,0,.01-.01h0c.01-.04,0-.05-.01-.09a1.17424,1.17424,0,0,0-.02-.32011Zm-.25008-1.91063c.01-.04.01-.09.04-.12,0-.01.04-.21008.04-.22008a.94375.94375,0,0,1,.1-.23007c.01-.04.05-.07.06-.12a.41237.41237,0,0,0-.01-.12.17938.17938,0,0,0-.05-.07.7577.7577,0,0,1-.09-.18006v-.15005a.1954.1954,0,0,0-.01-.07c0-.04,0-.05-.04-.07h-.04a.219.219,0,0,0-.1.09c-.05.07-.06.17006-.16005.18006a.24391.24391,0,0,1-.12,0c-.04.01-.05.1-.04.14s.05.04.09.05a.29985.29985,0,0,1,.1.04.40522.40522,0,0,1,.05.09.16734.16734,0,0,1-.01.12.56425.56425,0,0,0-.04.12c.01.04.05.07.05.1,0,.04-.09.12-.12.12l-.12-.01c-.07-.01-.21007-.18006-.23008-.21007a.23086.23086,0,0,1-.05-.07.74475.74475,0,0,1-.12-.09c-.04-.04-.09-.09-.14005-.09s-.06.05-.09.05c-.07.04-.18006.01-.18006.1,0,.05.09.07.12.09a.98328.98328,0,0,1,.16.05,2.70238,2.70238,0,0,0,.22008.18006.86544.86544,0,0,0,.17006.07c.04.01.05.04.09.05.05.04.22007.16.23007.17006.06.05.09.1.15005.12.06,0,.07-.04.09-.11Zm1.11036-.5902c.03-.06.07-.11.1-.17006.01-.04.04-.06.04-.09v-.05c0-.04.04-.14005,0-.17006a.06009.06009,0,0,0-.04-.01.61178.61178,0,0,1-.12.05.1446.1446,0,0,0-.1.07.3306.3306,0,0,0,0,.14.19223.19223,0,0,1-.04.12.36969.36969,0,0,1-.14005.07.17849.17849,0,0,0-.12.09v.13a.1174.1174,0,0,1-.09.1c-.01.01-.1.04-.12.09,0,.01-.01.17006-.01.23008s.01.18006.07.18006a1.43229,1.43229,0,0,0,.28009-.32011c.01-.01.01-.04.04-.05a.11672.11672,0,0,0,.06-.06,1.04692,1.04692,0,0,0,.04-.17006c.01-.04.09-.07.12-.1-.01-.03.02-.07.03-.08Zm1.51051.08a.36981.36981,0,0,0,.07-.14005c-.01-.01-.01-.01-.05-.01a.12842.12842,0,0,0-.1.04c-.09.01-.12.05-.21007.09-.04.01-.09.04-.09.07s.09.04.12.05.07.05.1.05a.26318.26318,0,0,0,.16005-.15005Zm2.32077,1.62054c-.04,0-.06.01-.1.01a.10507.10507,0,0,0-.09.05c0,.04.05.12.09.12a.27707.27707,0,0,0,.09-.01c.04,0,.05-.01.07-.05a.24367.24367,0,0,0,0-.12Zm-.74024-.13c-.07,0-.12.07-.17006.09a.149.149,0,0,1-.09.04.31673.31673,0,0,1-.16-.04c-.01,0-.05-.01-.07-.01-.04,0-.05-.01-.09-.01-.01,0-.03.01-.04.01-.04.01-.1.05-.09.1s.06.01.12.01a.277.277,0,0,0,.09.01,1.42652,1.42652,0,0,0,.2701.09.1284.1284,0,0,0,.14005-.05.25245.25245,0,0,1,.15-.1c.05-.01.09-.01.09-.05.06-.04-.07-.09-.15-.09ZM66.06869,40.07a.07307.07307,0,0,0-.06-.07h-.01a.16126.16126,0,0,0-.07.04.9014.9014,0,0,0-.1.09c-.04.04-.07.07-.05.1.01.1.17006,0,.21007-.01.02-.05.08-.1.08-.15005Zm-4.30143-3.41113c.01.04.04.05.05.09a.3128.3128,0,0,0,.05.1.07136.07136,0,0,0,.11-.01l.01-.01c.01-.06-.09-.16005-.09-.21007s.05-.04.07-.09-.04-.12-.01-.17006c0-.04.05-.05.1-.07a.94135.94135,0,0,0,.22007-.12c.04-.01.09-.05.09-.09,0-.01-.01-.1-.01-.12s-.04-.04-.05-.04c-.04,0-.06.05-.09.06-.06.07-.12.18005-.26009.17005-.04,0-.05-.01-.09-.01s-.06.06-.09.1c-.01.01-.01.05-.04.07a.14836.14836,0,0,0-.01.07.28433.28433,0,0,0,.04.12A.17706.17706,0,0,0,61.76726,36.65889Zm4.56152,3.78126c-.06.01-.14.05-.21007.07h-.12a.10578.10578,0,0,0-.07.06c0,.04.04.04.07.04h.1a.12682.12682,0,0,0,.06.01.19535.19535,0,0,1,.07.01c.05.01.07.1.16.09a.24775.24775,0,0,0,.07-.09.19535.19535,0,0,1,.01-.07.277.277,0,0,0,.01-.09.50715.50715,0,0,0-.15-.03Zm.47015-.40014a.77064.77064,0,0,0-.14005-.21007.13886.13886,0,0,0-.1-.05.48671.48671,0,0,0-.12-.01.04726.04726,0,0,0-.05.05.06645.06645,0,0,0,.04.05l.04.04a.23624.23624,0,0,0,.09.06.44183.44183,0,0,1,.06.16c.01.04.07.1.1.1.04,0,.09-.09.09-.1a.13379.13379,0,0,0-.01-.09Zm-6.9023,3.35112c-.1.1-.27009.12-.44015-.07a1.22415,1.22415,0,0,1-.14005-.36013l.17006-.01a.80424.80424,0,0,0,.09.26009c.06.09.14.1.17006.05s.01-.12-.04-.22007c-.07-.16-.09-.27009,0-.38013a.29725.29725,0,0,1,.41013.03l.02.02a.95836.95836,0,0,1,.12.32011l-.17006.01a.5789.5789,0,0,0-.07-.21007c-.05-.09-.14-.09-.17006-.05s0,.12.05.23007C59.98666,43.18106,59.99667,43.3011,59.89663,43.39113Zm.1.49017.59019-.69023.14.12-.58019.69023C60.13671,44.00133,59.99667,43.8813,59.99667,43.8813Zm1.25041.83027-.21007-.1s0-.65022.01-.75025c-.05.1-.12005.22007-.18006.36012l-.14005.23007-.17006-.09.47016-.80026.22007.12s0,.6102-.01.71024c.05-.1.1-.22008.17006-.34012l.14005-.23007.17006.09-.47017.80026Zm1.28043-.25008a.33843.33843,0,0,0-.27009-.16006.25647.25647,0,0,0-.27009.24008v.02a.282.282,0,0,0,.24008.32011h.04a.23117.23117,0,0,0,.17006-.05l.09.16006a.39537.39537,0,0,1-.28009.07.46583.46583,0,1,1,.05-.93031h.02a.52179.52179,0,0,1,.36011.23008Zm1.04035.23007v.16006h-.44015v.22007l.53017.01v.16005l-.70023-.03.04-.88029.66021.01v.16006h-.49016v.21007C63.16772,44.70157,63.56786,44.69156,63.56786,44.69156Zm1.25041.34012-.21006-.69023-.14005.09-.05-.14005.18006-.12.16-.05.26008.86029Zm.91031-.34012a.31667.31667,0,0,1-.42015-.09.23.23,0,0,1,.05-.26008.2246.2246,0,0,1-.21007-.12c-.07-.14005.01-.2701.18006-.34012a.26367.26367,0,0,1,.37013.08l.01.01a.19822.19822,0,0,1-.04.22008.20989.20989,0,0,1,.23008.14c.1.13.02.27009-.17005.36012Zm.65021-.38012-.09-.12.04-.16006c.05-.26008.12-.42014.05-.49016a.13636.13636,0,0,0-.18006-.02h0a.31046.31046,0,0,0-.09.18006h-.16a.3287.3287,0,0,1,.14005-.32011.29365.29365,0,0,1,.40013-.01l.02.02a.56158.56158,0,0,1,.04.49016l-.01.1.2801-.22007.1.14-.54019.41015Zm1.04035-.94032a.42959.42959,0,0,1-.6002-.09.40874.40874,0,0,1-.04-.5702l.02-.02a.42548.42548,0,0,1,.5902.07l.02.02a.37079.37079,0,0,1,.01.59019Zm1.2204-2.56085a.33065.33065,0,0,0-.14005,0,.19635.19635,0,0,0-.09.09c-.01.04-.05.06-.09.09a1.6953,1.6953,0,0,1-.22008.04h-.09c-.07-.04-.07-.14-.17006-.14-.04,0-.07.04-.1.05-.04.01-.09,0-.1.05.01.04.01.04.05.07.01.01.05.04.05.06s-.09.04-.12.05c-.05,0-.21007.01-.22008.01a.3191.3191,0,0,1-.21006-.04c-.05-.04-.09-.1-.16-.16a.34092.34092,0,0,0-.22008-.07.35957.35957,0,0,0-.18006.07c-.05.04-.07.1-.12.14a.16566.16566,0,0,1-.12.05.277.277,0,0,1-.09-.01.29411.29411,0,0,1-.1-.12.1549.1549,0,0,0-.12-.1.11743.11743,0,0,0-.1.09c-.04.04-.05.09-.1.09a.12046.12046,0,0,1-.1-.07.17888.17888,0,0,0-.09-.1.97083.97083,0,0,0-.17006-.01,2.83608,2.83608,0,0,0-.28009.07c-.01,0-.1-.01-.12-.04-.04-.01-.05-.05-.09-.09-.01-.04-.05-.06-.07-.1-.04-.06-.05-.15005-.09-.23008-.01-.04-.04-.05-.07-.09a.68135.68135,0,0,0-.21007-.1c-.04-.01-.06-.05-.12-.05s-.1.07-.12.14005a.82857.82857,0,0,0-.04.3101.74571.74571,0,0,0,.04.26009,2.33488,2.33488,0,0,0,.04.26009,2.462,2.462,0,0,0,.20007.64021.76706.76706,0,0,0,.3101.16006c.06.04.39013.18005.44015.22007.01.01.06.04.05.07s-.15,0-.18,0a1.91248,1.91248,0,0,0-.75025-.09.12489.12489,0,0,0-.12.05.10861.10861,0,0,0,.04.09.36318.36318,0,0,1,.07.17006c0,.04.01.09-.01.1-.03.01-.05-.01-.1-.04a1.82144,1.82144,0,0,0-.83027-.26009,1.88015,1.88015,0,0,0-.83028.26009c-.04.01-.07.05-.1.04-.04-.01-.01-.05,0-.09a.67009.67009,0,0,1,.07-.18006.35532.35532,0,0,0,.04-.09c-.01-.05-.14005-.05-.17006-.05-.16005-.01-.28009,0-.44015,0-.04,0-.3101.04-.34012.04-.05,0-.1.04-.12,0-.01-.01.04-.05.05-.07a.59663.59663,0,0,1,.15005-.09c.04-.01.17006-.07.22007-.09a.57839.57839,0,0,1,.14005-.05.81648.81648,0,0,0,.26009-.14005c.03-.04.06-.09.09-.14.01-.05.04-.1.05-.16006.01-.05.04-.1.05-.16005a1.04587,1.04587,0,0,1,.04-.17006c.01-.12.04-.23007.05-.36012a1.04583,1.04583,0,0,1,.04-.17006.73924.73924,0,0,0,0-.21007c0-.04-.01-.05-.04-.09s-.01-.07-.04-.09a.12045.12045,0,0,0-.1-.07.61127.61127,0,0,0-.12.05c-.04.01-.06.05-.12.05a.27683.27683,0,0,0-.09.01.54532.54532,0,0,0-.22007.05.21673.21673,0,0,0-.09.22008c0,.04.04.07.07.09.03.03.09.04.09.06,0,.03-.12.09-.16005.1a.749.749,0,0,1-.16.04,1.62123,1.62123,0,0,1-.22007-.01c-.09-.01-.21007-.04-.2701.01a.26681.26681,0,0,0-.07.14005.15982.15982,0,0,1-.12.14005c-.05,0-.12-.04-.17006-.04a.22969.22969,0,0,0-.14.04c-.05.01-.09.05-.14005.05s-.12-.07-.17006-.1c-.02-.02-.05-.04-.06-.06a.11938.11938,0,0,0-.09-.05c-.05,0-.1.05-.14005.09-.04.01-.1.07-.16.07-.05,0-.07-.04-.1-.04-.04,0-.09.04-.14.04-.09,0-.1-.12-.17006-.14005-.04-.01-.09.01-.1,0-.07-.04,0-.18006.01-.23007.01-.01.04-.05.01-.06,0-.05-.1-.07-.16-.09-.01,0-.05-.01-.07-.01-.04,0-.07.04-.1.05a1.452,1.452,0,0,0-.18006.1.25787.25787,0,0,1-.22007.07c-.04,0-.14005-.09-.17006-.09-.07.01-.07.1-.14.12a.33664.33664,0,0,1-.22008-.04c-.1-.07.04-.12.04-.22008,0-.07-.05-.12-.05-.17006s.09-.1.12-.16c.01-.01.04-.14005.05-.16006.01-.04.05-.04.09-.05s.09,0,.14-.01.14005-.06.12-.1c0-.05-.09-.06-.12-.06-.05-.01-.12-.04-.12-.09a.61178.61178,0,0,1,.05-.12.29943.29943,0,0,1,.04-.1c.01-.04.05-.06.09-.09a.61127.61127,0,0,1,.12-.05c.05,0,.06.05.1.09s.06.12.16.09a.11937.11937,0,0,0,.05-.09.42976.42976,0,0,1,0-.16005c.04-.04.12-.05.18006-.09.01,0,.05-.01.07-.01.04.01.05.09.06.14005s.04.14.07.14.05-.04.07-.07a.52662.52662,0,0,1,.12-.14005.08771.08771,0,0,0,.06-.07.56417.56417,0,0,0,.04-.12c-.01-.06-.1-.09-.17006-.1a.2994.2994,0,0,1-.1-.04c-.07-.01-.12-.01-.14-.09a.24391.24391,0,0,1,0-.12c.01-.09.01-.17006.09-.18006a.17052.17052,0,0,1,.1,0c.04,0,.06-.01.06-.05s-.01-.09-.01-.12-.05-.07-.07-.1a.24391.24391,0,0,1,0-.12c-.01-.06-.1-.12-.07-.23008a.13878.13878,0,0,1,.12-.07.48718.48718,0,0,0,.12-.01c.05-.04.05-.1.05-.17006s-.04-.16006,0-.22008c.01-.04.07-.05.12-.06a2.289,2.289,0,0,0,.23007-.16.34046.34046,0,0,0,.1-.01c.04-.01.07-.04.1-.04.04,0,.06.1.09.16006.03.05.04.14.09.16.05.01.16-.05.16-.09s-.01-.09-.01-.14v-.06c0-.01-.01-.05-.01-.07a.25994.25994,0,0,1,.09-.16c.04-.01.05-.04.09-.05.01-.01.05-.04.06-.05a.6074.6074,0,0,0,.07-.1.24579.24579,0,0,1,.15-.05c.05.01.05.07.09.1a.17513.17513,0,0,0,.15005.1c.05,0,.07-.07.09-.12a1.10045,1.10045,0,0,0,.04-.31011.61233.61233,0,0,0-.05-.12.39236.39236,0,0,1-.04-.18006c.01-.04.05-.05.06-.09.04-.01.05-.05.09-.09s.05-.21008.12-.22008c.09-.04.17006.04.23008,0,.04-.01.05-.07.07-.12a.41974.41974,0,0,1,.09-.14005.4054.4054,0,0,1,.09-.05.29965.29965,0,0,0,.1-.04c.01,0,.01-.01.04-.01.04-.04.04-.09.06-.09a.33065.33065,0,0,1,.14005,0h.07a.19535.19535,0,0,0,.07-.01c.05-.01.07-.05.12-.09a.33658.33658,0,0,1,.22008-.04c.01,0,.05.01.06.01a.17055.17055,0,0,0,.1,0c.06-.01.1-.1.16-.12a.20527.20527,0,0,1,.17006.05c.04.01.05.07.1.07s.09-.07.1-.1c.04-.05.05-.12.12-.12h.09a.22971.22971,0,0,1,.14005.04c.01,0,.05.01.06.01.05,0,.09-.05.12-.05s.05,0,.06.01a.50041.50041,0,0,1,.18006.27009c.01.04.06.07.09.1a.60755.60755,0,0,1,.07.1c.01.01.05.05.07.05h.06a.14825.14825,0,0,0,.07.01h.09c.05.01.09.05.14005.05a.21349.21349,0,0,0,.12-.07c.04-.04.04-.1.09-.12a.277.277,0,0,1,.09.01c.12.06.22008.12.33011.18006.04.04.09.07.1.1a.54357.54357,0,0,1,0,.18006.39972.39972,0,0,0,.07.18006.54521.54521,0,0,1,.05.22008c.01.05.07.09.1.14a.42371.42371,0,0,1,.05.07c.03.03.06.07.09.1a1.04688,1.04688,0,0,0,.04.17006c.01.05.1.06.17006.09s.1.04.1.07a.27677.27677,0,0,1-.01.09c-.01.06-.04.1-.05.17006,0,.04-.01.06-.01.09.01.07.16005.01.18006,0,.03-.01.07-.04.09-.04a.092.092,0,0,1,.1-.01c.05.01.1.09.15005.12a.46238.46238,0,0,1,.07.07,2.14869,2.14869,0,0,0,.26008.14.3842.3842,0,0,1,.18006.09c.05.04.12.07.14005.14005a.37629.37629,0,0,1,.01.21007.41974.41974,0,0,1-.09.14c-.04.04-.1.06-.1.12s.12.12.17006.14.07.04.1.05a.21787.21787,0,0,1,.09.07.57809.57809,0,0,1-.05.14c-.01.05-.05.09-.05.14005a.22463.22463,0,0,0,.01.1c.05.04.14005-.01.17006-.04a.17942.17942,0,0,1,.07-.05.14894.14894,0,0,1,.09-.04c.05,0,.07.09.07.14a.33339.33339,0,0,0,.09.21007.239.239,0,0,0,.14005.05.20316.20316,0,0,1,.12.12.24638.24638,0,0,1,.01.12v.14005c-.01.04-.05.06-.06.09s-.05.01-.09.04a.772.772,0,0,1-.26009.07.33721.33721,0,0,0-.17.05.11883.11883,0,0,0-.1.12c0,.06.14005.05.18006.06s.05.12.12.14h.12c.03,0,.05-.04.06-.05a.1389.1389,0,0,1,.1-.05.28434.28434,0,0,1,.12005.04.34036.34036,0,0,0,.1.01c.05.01.09.1.14005.14005.09.07.16.09.17006.18006a1.71812,1.71812,0,0,1,.04.18006.63618.63618,0,0,1-.2201.11ZM59.78659,39.91c.04,0,.04-.05.05-.09s.01-.09.04-.1c.01-.05.09-.09.1-.12a.50751.50751,0,0,0,.09-.16006v-.12a.26667.26667,0,0,0-.07-.14c-.05,0-.04.05-.04.1a.505.505,0,0,1-.09.23007l-.1.1c-.05.05-.1.09-.09.18006.02.06.08.14005.11.12Zm.94032.3101c0,.01-.01.05-.01.07,0,.06,0,.17006.05.17006a.10507.10507,0,0,0,.09-.05v-.06c0-.01.01-.04.01-.05a.30847.30847,0,0,0-.01-.1v-.06a.06221.06221,0,0,0-.06-.04c-.07.02-.06.06-.07.12Zm-.3101-1.35045c-.04-.04-.06-.05-.09-.04s-.05.01-.05.05a.18552.18552,0,0,0,.07.12.24007.24007,0,0,0,.12.07c.05-.01.05-.09.04-.14-.04-.02-.07-.05-.09-.06Zm2.66088,2.59087c-.04.01-.12.23007-.14.28009s-.04.09-.01.12a.05168.05168,0,0,0,.07.03c.01,0,.01-.01.02-.01.04-.01.05-.05.09-.1a.60711.60711,0,0,0,.05-.18006c-.03-.08-.03-.16-.08-.14Zm-2.42081-3.45115a.10864.10864,0,0,0,.09-.04c.06-.04.1-.05.16-.09a.62521.62521,0,0,1,.22007-.1c.05,0,.16.01.16-.04s-.05-.1-.06-.12a.24021.24021,0,0,1-.07-.12c0-.04.04-.04.07-.05a.17978.17978,0,0,0,.09-.04c.01,0,.23007-.04.23007-.04.07-.01.07-.12.12-.14s.12,0,.14005-.05a.277.277,0,0,0-.01-.09.34592.34592,0,0,0-.12-.07c-.04,0-.26008.22007-.28009.22007s-.05-.04-.09-.05a.21766.21766,0,0,0-.23008.05c-.01.01-.06.06-.06.09s.01.09.01.12.04.06.01.12c0,.04-.17005.14005-.21006.14005h-.15006a.21993.21993,0,0,0-.09.21007c0,.08.04.09.07.09Zm-.66021.74024c.12-.01.14-.14.21006-.18006a.46743.46743,0,0,1,.1-.05c.1-.01.17.05.27009.04a.30814.30814,0,0,0,.12-.05c.04-.01.07-.07.1-.1a.27026.27026,0,0,1,.17006-.1.48667.48667,0,0,0,.12-.01.35508.35508,0,0,0,.09-.04c.1-.04.05-.1-.04-.12a.73638.73638,0,0,0-.14005-.04l-.15005.01a.2941.2941,0,0,0-.12.1.34466.34466,0,0,1-.23008.1h-.14005c-.01,0-.05.01-.06.01-.05.01-.09.01-.12.05a1.059,1.059,0,0,1-.12.1c-.05.05-.09.06-.09.15005-.01.11-.01.12.03.13Zm.04-.80026a.42316.42316,0,0,0,.07.05c.04.01.16005.04.17006-.01s-.01-.07-.05-.1c-.01-.04-.05-.07-.06-.09-.04-.01-.06-.04-.1-.04s-.06.04-.09.06c-.03.05,0,.1.06.13ZM60.53684,39.9a.12154.12154,0,0,0,.01-.16006c-.02-.03-.05-.06-.07-.09a.23617.23617,0,0,1-.06-.09c-.01-.04-.04-.09-.09-.07a.19626.19626,0,0,0-.09.09.17931.17931,0,0,1-.05.07c0,.04.01.09.01.1a.8814.8814,0,0,0,.06.1.25988.25988,0,0,0,.16.09.12868.12868,0,0,0,.12-.04Zm.85029-.73025a.20679.20679,0,0,0,.1-.14.10886.10886,0,0,0-.05-.07c-.01-.01-.04-.05-.06-.05h-.05c-.05,0-.09.01-.09.05v.09c-.01.05-.09.09-.12.1h-.1a.17025.17025,0,0,0-.07.01.12689.12689,0,0,0-.06.01c-.04.01-.09.05-.09.09,0,.01.04.05.04.05a.81349.81349,0,0,0,.22008-.01.30818.30818,0,0,0,.1-.01c.01,0,.05,0,.06-.01a.33707.33707,0,0,1,.17006-.11ZM60.857,40.70023a.34039.34039,0,0,0-.1-.01c-.04,0-.09-.01-.1-.01-.05,0-.15005.01-.15005.07a.1174.1174,0,0,0,.09.1.57816.57816,0,0,0,.14.05H60.917c.05,0,.14005-.07.12-.12a.66558.66558,0,0,0-.18006-.08Zm1.77059-.97032a1.30231,1.30231,0,0,0-.23007-.18006.87821.87821,0,0,0-.23008-.07c-.04-.01-.1-.04-.14-.01s-.01.09-.04.12a.0779.0779,0,0,1-.09.06c-.04,0-.07-.04-.12-.01s-.09.12-.16005.14005c-.09.01-.1-.07-.18006-.09h-.22007a.10506.10506,0,0,0-.05.09c0,.04.07.05.1.05a.94327.94327,0,0,1,.23008.1.28382.28382,0,0,0,.1.09.811.811,0,0,0,.22008,0c.04-.01.05-.04.09-.07a.56773.56773,0,0,1,.18006-.12c.04-.01.06-.04.1-.04s.1.01.15005.01l.16.01a.61172.61172,0,0,0,.12.05c.04,0,.09.01.12-.04.04-.03-.06-.05-.11-.09ZM60.1067,40.1c-.04,0-.12.09-.12.12s.04.05.05.06a.17939.17939,0,0,1,.05.07c.04.04.12.16005.17006.07a.48714.48714,0,0,0,.01-.12.22965.22965,0,0,0-.04-.14.10206.10206,0,0,0-.12-.06Zm1.41047.24008c0-.04-.04-.04-.05-.04a.10025.10025,0,0,0-.1.1c0,.01.01.05.01.06,0,.07-.06.09-.06.14005s.04.05.06.06h.1c.04-.01.05-.07.05-.1,0-.04-.04-.12-.01-.16006-.02-.02-.02-.04-.02-.08C61.50717,40.34011,61.51717,40.34011,61.51717,40.34011Zm-1.53051.31011a.07492.07492,0,0,1-.05-.01c-.05-.04-.05-.09-.06-.16005a.74559.74559,0,0,0-.07-.12c-.01-.04-.05-.05-.09-.09a.46748.46748,0,0,0-.1-.05c-.04,0-.07.05-.07.1s.05.06.09.06a.14456.14456,0,0,1,.1.07c.04.07.01.21007.04.26009s.07.05.14005.06a.34039.34039,0,0,0,.1.01c.07,0,.12-.01.1-.09A1.03884,1.03884,0,0,0,59.98666,40.65022Z"/></g></g></svg>