<svg id="Layer_1" data-name="Layer 1" xmlns="http://www.w3.org/2000/svg" xmlns:xlink="http://www.w3.org/1999/xlink" viewBox="0 0 80 84.2"><defs><style>.cls-1{fill:#f2f2f2;}.cls-2{fill:#0e182c;}.cls-3{fill:url(#linear-gradient);}.cls-4{fill:#fff;}.cls-5{fill:#fafafa;}.cls-5,.cls-6,.cls-7,.cls-8,.cls-9{fill-rule:evenodd;}.cls-6{fill:#d3142c;}.cls-7{fill:#97827c;}.cls-8{fill:#cb5464;}.cls-9{fill:#3e3b3a;}</style><linearGradient id="linear-gradient" x1="-815.19" y1="70.45" x2="-814.49" y2="69.75" gradientTransform="matrix(21.1, 0, 0, -21.1, 17202.08, 1516.73)" gradientUnits="userSpaceOnUse"><stop offset="0" stop-color="#2fb5eb"/><stop offset="1" stop-color="#1d57ba"/></linearGradient></defs><path class="cls-1" d="M40,0h0A40,40,0,0,1,80,40h0A40,40,0,0,1,40,80h0A40,40,0,0,1,0,40H0A40,40,0,0,1,40,0Z" transform="translate(0 0)"/><path id="Fill-1" class="cls-2" d="M30.79,36.56h3.84c.2,0,.3-.1.48-.2a1,1,0,0,0,.4-1.19,1,1,0,0,0-1-.79H30.88c-.1,0-.1,0-.1.1v2.08m0,4.13h3.75a1.21,1.21,0,0,0,.59-.1,1.15,1.15,0,0,0,.58-1.87,1.56,1.56,0,0,0-1.27-.59H30.79c-.1,0-.2,0-.2.2v2.16c.2.1.2.2.2.2M36.6,37c.2.1.3.2.49.2a2.4,2.4,0,0,1,1.27,2.26,3,3,0,0,1-2.46,2.87,4.79,4.79,0,0,1-1.19.1H28.6V32.62h5.83a4.27,4.27,0,0,1,1.87.4,2.4,2.4,0,0,1,1.28,1.47,1.84,1.84,0,0,1-.49,2.08c0,.17-.3.27-.49.47" transform="translate(0 0)"/><path id="Fill-3" class="cls-2" d="M51.87,36.56h3.84A1.07,1.07,0,0,0,56.49,35a1,1,0,0,0-.88-.49H52.06c-.1,0-.1,0-.1.1v2h-.09Zm.1,4.13h3.75a1.05,1.05,0,0,0,.79-.2,1.22,1.22,0,0,0,.3-2,1.48,1.48,0,0,0-1.09-.4H51.88v2.56H52ZM49.7,42.47V32.62h5.91a4,4,0,0,1,1.87.4,2.3,2.3,0,0,1,1.38,1.87,1.81,1.81,0,0,1-.59,1.68c-.2.2-.4.3-.59.49.1,0,.2.1.3.1a2.68,2.68,0,0,1,1.28,1.27,3,3,0,0,1-1.09,3.45,3.4,3.4,0,0,1-1.68.59H49.7Z" transform="translate(0 0)"/><path id="Fill-5" class="cls-2" d="M64.08,39.1h-.49c-.2,0-.3.1-.49.1a1,1,0,0,0-.58,1.28,1.06,1.06,0,0,0,1,.59,2.89,2.89,0,0,0,2.17-.69c.1,0,.1-.1.1-.2v-.4c0-.2-.1-.2-.2-.3a3.54,3.54,0,0,0-1.49-.38m-3.15-3.43c.4-.1.79-.3,1.19-.4A6.81,6.81,0,0,1,65,35a4.5,4.5,0,0,1,1.67.4,1.91,1.91,0,0,1,1.19,1.77v3.55a4.84,4.84,0,0,0,.2,1.68v.1H66.17c-.1,0-.1,0-.2-.1s-.1-.49-.2-.69c-.2.1-.3.3-.4.4a2.61,2.61,0,0,1-2.08.59,3.46,3.46,0,0,1-1.77-.49,2.3,2.3,0,0,1-.59-3.35,3.15,3.15,0,0,1,1.37-.89,4.07,4.07,0,0,1,2.67,0,4.53,4.53,0,0,1,.68.3.1.1,0,0,1,.1.1v-.78a1.08,1.08,0,0,0-1-1.09,5.35,5.35,0,0,0-2.17.2c-.4.1-.68.3-1.08.4a4.53,4.53,0,0,0-.59-1.4" transform="translate(0 0)"/><path id="Fill-7" class="cls-2" d="M76.79,35.17l-.59,1.19c-1,2-1.87,4-2.86,6-.49,1.08-1,2.16-1.58,3.25l-.1.1H69.59c0-.1.1-.1.1-.2L71.46,42v-.2c-.78-1.78-1.57-3.45-2.36-5.23a13.9,13.9,0,0,1-.59-1.27v-.1h2.08c.1,0,.1,0,.2.1.49,1.09.89,2.16,1.37,3.35a3.43,3.43,0,0,0,.4.88l.1.1.1-.1c.59-1.37,1.19-2.76,1.78-4,.2-.3.2-.3.49-.3h1.76" transform="translate(0 0)"/><path id="Fill-9" class="cls-2" d="M43.3,36.56V35h1.27V32.91h2V35h1.67c.1,0,.1,0,.1.1v1.38H46.65c-.1,0-.2,0-.2.2V40.3a.62.62,0,0,0,.68.69,2.71,2.71,0,0,0,.89-.1c.2,0,.2,0,.2.1,0,.4.1.79.1,1.19,0,.1,0,.2-.1.2s-.4.1-.59.2a3.64,3.64,0,0,1-1.47,0,1.85,1.85,0,0,1-1.57-2v-4c0-.2,0-.2-.2-.2a3.73,3.73,0,0,1-1.09.12" transform="translate(0 0)"/><path id="Fill-11" class="cls-2" d="M41.91,42.47H40.14c-.1,0-.2,0-.2-.2v-7.1c0-.1,0-.1.1-.1h1.77c.1,0,.1,0,.1.1v7.3" transform="translate(0 0)"/><path id="Fill-16" class="cls-3" d="M12.16,27.48A10.35,10.35,0,1,0,22.51,37.83,10.23,10.23,0,0,0,12.16,27.48Z" transform="translate(0 0)"/><path id="Fill-19" class="cls-4" d="M11.57,41.08h-.79V38.62h3.65a1.72,1.72,0,0,1,1.19.48,1.05,1.05,0,0,1,.1,1.09,1,1,0,0,1-.69.69,1.23,1.23,0,0,1-.58.1,28.79,28.79,0,0,1-2.88.1m3.25-4.52c-.1.1-.3.1-.49.2H10.68v-2h3.65a1,1,0,0,1,.89.69,1.1,1.1,0,0,1-.4,1.09m2.07,1c-.1-.1-.2-.2-.3-.2a.1.1,0,0,0,.1-.1c.1-.1.3-.2.4-.4a2.17,2.17,0,0,0,.49-2.26A2.71,2.71,0,0,0,16.21,33a3.73,3.73,0,0,0-1.88-.4h-6v5.93H5.56v2.36H9.5l-1.28.79V43h6.11a5.93,5.93,0,0,0,1.28-.1,3.17,3.17,0,0,0,2.56-3,2.48,2.48,0,0,0-1.28-2.36" transform="translate(0 0)"/><g id="svgg"><path id="path0" class="cls-5" d="M26.39,75.92V84.2H38.78V67.65H26.39v8.27m3.54-7.65s0,.29,0,.62v.6l.1,0a.44.44,0,0,1,.29.3l0,.1H31.6V71.2H30.36l0,.09a.46.46,0,0,1-.29.29l-.09,0v1.23H28.67V71.63l-.1,0a.47.47,0,0,1-.31-.29l0-.09h-.6a4.15,4.15,0,0,1-.63,0,4.24,4.24,0,0,1,0-.64v-.62h1.25l0-.1a.51.51,0,0,1,.31-.3l.1,0V68.24h.63c.55,0,.63,0,.63,0M28.8,69c0,.38,0,.63,0,.63a.19.19,0,0,0,0,.1v.09l.05,0,.09,0,.08,0h.08s0,0,.07,0h.1a.94.94,0,0,1,.51.12l.08,0v-.09a.56.56,0,0,0,0-.1,4.79,4.79,0,0,1,0-.63V68.4h-1V69m1.16.71c0,.1,0,.11.07,0s.1-.06,0,0-.06,0,0,0,0-.08-.05,0m-1.41-.06s0,0,.07.09.1.09.1.07a.64.64,0,0,0-.17-.16m.68,0-.08,0c-.06,0-.06,0,0,.09s.08.08.1,0v-.08l0,0m.11,0c0,.05,0,.13,0,.09s0,0,0,0,.07,0,.08-.08,0,0,0,0h-.07s0,0,0,0m-.38,0c-.06,0-.07.06,0,.07s0,0,0,0,.07.07.09-.06,0-.09-.08,0m-.5,0a.15.15,0,0,0,0,.06s0,.06,0,0,0,0,0,0a.45.45,0,0,0,.16.09.63.63,0,0,0-.08-.17s0,0,0,0m1.12,0s0,0,0,0,0,0,0,0,0,0,0,.05a0,0,0,0,1,0,0s0,0,.13,0l.05,0,0,0c-.12-.06-.16-.07-.16,0m.51.12s-.06.07,0,.07.14-.11.14-.14,0,0-.1.07m-1.24,0s0,0,0,0,0,0,0-.06,0,0,0,0m-.16.07a.75.75,0,0,0-.17.22c0,.06.18,0,.2,0a.48.48,0,0,1,.08-.1l.07-.07,0,0a.18.18,0,0,1,0-.07s0,0-.09,0m1.1,0c0,.12,0,.12.05.09s.08-.09,0-.14-.07,0-.08,0m-.65,0-.05,0L29,70S29,70,29,70l-.06,0-.05,0s0,0,0,0a.1.1,0,0,1,.07,0,.15.15,0,0,0,.09,0l.09,0a.07.07,0,0,0,.06,0,.11.11,0,0,1,.17,0s0,0,.05,0,0,0,0,0,0,0,.13,0,0,.15-.06.15,0,0,0,.06.05.07.1,0,.25.05.25.11-.06,0-.11,0l-.06,0s0,0,0,0,0,0,.07.07.14.15.1.15,0,0,0,0,0,0,0,0,0,0,0,0,0,0,0,0,0,0,0,.07.12-.1.12-.19a.06.06,0,0,1,0,0,.41.41,0,0,0,0-.22s0,0,0,0a.51.51,0,0,0-.1-.21s0,0,0,0-.18-.19-.3-.23a.83.83,0,0,0-.38,0m-.74.12H27.14v1h.62a4.79,4.79,0,0,1,.63,0s.05,0,.1,0,.08,0,.06,0a.46.46,0,0,1-.05-.1l-.05-.11a1,1,0,0,1,.08-.74l0-.08H28.5l-.1,0m1.69.09a.89.89,0,0,1,0,.81s-.05.08-.05.09a0,0,0,0,0,0,0s.16,0,.17,0a4.92,4.92,0,0,1,.63,0h.62v-1H30.2s0,0-.09,0H30l.06.11m-.23,0s0,0,0,0,0,0,0,0,0-.06,0,0m.11,0s-.07.06-.06.08.12,0,.12,0,0,0,0,0,0-.08,0-.08l-.08,0m-1.28.17a.09.09,0,0,0,0,.07s0,0,0,0a.79.79,0,0,0,0,.34l0,0a.52.52,0,0,0,.15.23c.12.1.13.11.16.11h0a.55.55,0,0,0,.24.06.72.72,0,0,0,.4-.13.54.54,0,0,0-.17,0c-.51,0-.57,0-.62,0s0-.06.07-.07.21,0,.21,0,0,0,0,0-.06,0,0-.09,0,0,0,0,0,0,0,0,0,0,0-.06-.09-.06-.08,0a.07.07,0,0,1,0,.06l0,.06s-.05.11-.07.11-.08-.14,0-.18,0,0,0-.06,0-.08,0-.12.09,0,.1,0,.07,0,.09,0,0-.07,0-.07l-.05,0s0,0,0,0-.15,0-.15-.1,0-.06,0,0m.35,0c-.05,0,0,.09,0,.12s.08,0,.05-.08,0-.07-.07,0m-.57,0s0,.08.07.08.09,0,.06,0-.12,0-.13,0m1.52,0c-.07,0,0,.09.09.08s.1-.07,0-.09-.07,0-.11,0m-1.5.15s0,0,0,0,.05,0,0,0,0,0,0,0,0,0,0,0m.11.06s-.13,0-.16,0,0,0,0,0,0,.06.06.06h.08s0,0,0-.06,0-.1,0-.06m1.54,0a0,0,0,0,1-.05,0,.1.1,0,0,0-.08,0l-.05,0,0,0a.1.1,0,0,0,.16-.08c0-.06,0-.07,0,0m-.58,0s0,0,0,0,0,0,.08,0l.07,0c.05,0,0,0-.1,0m.36.26s0,.07-.05.07a0,0,0,0,0,0,0,.76.76,0,0,1-.39.27s-.12,0-.12,0,0,0,0,0a.05.05,0,0,1,0,.09l-.05,0h0s0,0,.17,0,.13,0,.09,0a.09.09,0,0,1,0-.13.07.07,0,0,1,.06.11s0,0,0,0,.32-.24.39-.37l0-.08,0,0c0-.08-.1-.07-.14,0m-1.37,0-.05,0s.07.22.09.22,0,0,0,0,.36.33.4.3h0s0,0,0,0h.05s.12,0,.12,0,0,0,0,0h-.05s0-.07.05-.07,0-.05-.12-.08a.34.34,0,0,1-.15-.07s0,0,0,0-.22-.21-.25-.31-.09,0-.11,0m-.07.41s-.08.08-.07.09.05,0,.09-.07.08-.11,0,0m1.56,0a.48.48,0,0,0,.09.16s0,0,0,0a.19.19,0,0,1,0-.08s-.08-.09-.08-.06m-1,0a.07.07,0,0,1,0,.1s-.09,0-.09-.06a.07.07,0,0,1,.12,0m1.11,0s.05.06.08.06,0,0,0,0-.06-.05-.06,0m-1.54.11c-.07,0-.13.08-.06.06l0,0s0,0,0,.05,0,0,0,0,0,0,.08-.09.05-.1-.06,0m.18,0s0,.09,0,.09,0,.27,0,.64v.63h1v-.61a4.92,4.92,0,0,1,0-.63.22.22,0,0,0,0-.1V71.3l-.11,0c-.23.11-.74.14-.74,0a0,0,0,0,0,0,0l-.1,0-.07,0v.07m1.12-.07s.13.16.15.15,0,0-.06-.09-.08-.07-.09-.06" transform="translate(0 0)"/><path id="path1" class="cls-6" d="M38.82,75.92V84.2H51.2V67.65H38.82v8.27m-10.13-7c0,.63,0,.65-.07.65s-.11,0,0,0h.12V68.35h1.11v1.24H30c.11,0,.12,0,.08,0l-.08,0c-.07,0-.07,0-.07-.64v-.61H28.69v.6m1.6,1s0,.08,0,.09a.08.08,0,0,0,0,0s0,0,.62,0a2.7,2.7,0,0,1,.63,0,9.5,9.5,0,0,1,0,1.07,3.7,3.7,0,0,1-.62,0c-.66,0-.65,0-.62.1s0,.06,0,.1,0,0,0,.06.05-.1.06-.15v0h1.25V70H31c-.63,0-.65,0-.65,0a.47.47,0,0,0,0-.09l0,0v.07m-2,0c0,.07,0,.1-.07.1H27v1.22h.61c.65,0,.65,0,.65.08a.12.12,0,0,0,0,.07s0,0,0-.09v-.12H27.09s0-.25,0-.55V70h1.23v-.1c0-.11,0-.13,0-.06M30,71.54h-.1c-.09,0-.09,0-.09.65s0,.59,0,.59a6.22,6.22,0,0,1-1.06,0,2.77,2.77,0,0,1,0-.63v-.61h-.16s0,0,.05,0,.06,0,.06.65v.6h1.22v-.6c0-.66,0-.64.09-.66l.09,0s0,0-.05,0" transform="translate(0 0)"/><path id="path2" class="cls-7" d="M38.79,75.92c0,4.56,0,6.42,0,4.15V71.78c0-2.28,0-.41,0,4.14m-9.5-7.66h.63v.62c0,.58,0,.62,0,.62h0s0-.09,0-.61c0-.33,0-.62,0-.63s-.07,0-.64,0h0m-.51.11s0,.28,0,.61c0,.67,0,.63-.13.62a.28.28,0,0,0-.3.33c0,.1.06.09-.62.1h-.61v1h.6c.69,0,.66,0,.63.12s.09.29.31.31h.11v1.22h.5a2.21,2.21,0,0,0,.53,0,3.35,3.35,0,0,0,0-.62,2.23,2.23,0,0,1,0-.6H30c.18,0,.26-.09.26-.26s0-.12,0-.13,0,0,.61,0h.61v0s0-.25,0-.52V70h-.6c-.67,0-.64,0-.63-.13a.26.26,0,0,0-.29-.29c-.15,0-.14,0-.15-.64v-.6h-1m1,.64a4.79,4.79,0,0,0,0,.63.56.56,0,0,1,0,.1v.09l-.08,0a.94.94,0,0,0-.51-.12h-.1s-.07,0-.07,0H29l-.08,0-.09,0-.05,0v-.09a.19.19,0,0,1,0-.1s0-.25,0-.63v-.62h1V69m-1.21.51s0,0,0,0h.06s0,0,0,0l-.06,0m-.18.1s0,0,0,0l.09-.07s0,0,0,0l-.09.07m1.72-.05.09.07s0,0,0,0a.3.3,0,0,0-.1-.07s0,0,0,0m-.09.07,0,0s0,0,0,0,.08,0,0,0-.11,0-.07,0,.07-.11.07-.08m-1.31.18s0,0-.1-.07-.08-.08-.07-.09a.64.64,0,0,1,.17.16m.54-.06c0,.13,0,.13-.1,0s-.07-.09,0-.09l.08,0,0,0v.08m.19,0s0,0,0,0,0,0,0,0a.06.06,0,0,0,0,0s0,0,0,0,0,0,0,0,0,0,.11,0l.1,0-.06,0c-.09.05-.14.06-.13,0a0,0,0,0,0,0,0s0,0,0-.05,0,0,0,0a.17.17,0,0,0,0,.07s0,0,0,0,0,0,0,0,0,0,0,0-.05,0-.05,0,0,0,0,0,0,0,0,0,0,0,0,0,0,0,0,0,0-.11,0,0,0,0,0,0,0,0,0,0h.07m-.41.09c0,.13-.08.18-.09.06s0,0-.07,0,0,0,0,0l0,0a.58.58,0,0,1,.14-.08s0,0,0,.08m-.52,0,0,.08a.45.45,0,0,1-.16-.09s0,0,0,0,.06,0,0,0a.15.15,0,0,1,0-.06s0,0,.06.09m.63,0s0,.06,0,.06h0l0,0s0,0,0,0,0,0,0,0,0-.06,0,0,0,0,.06.06m1,0s-.12.14-.14.14,0,0,0-.07.1-.09.1-.07m-1.29.11a0,0,0,0,1,0,0s0,0,0,0,0,0,0,0l0,0M29,70s-.06-.06-.05-.07,0,0,0,0a.06.06,0,0,1,0,0m-.13,0,0,0-.07.07a.48.48,0,0,0-.08.1s-.2.06-.2,0,.26-.34.26-.27a.18.18,0,0,0,0,.07m0,0s0,0,0,0-.07,0-.07-.09,0,0,0,0l.05.06m.92-.06s0,.13,0,.13a.1.1,0,0,1,0,0s0,0,0,0h0s0,0,0,0a.08.08,0,0,0,.05,0s0,0,0,0a0,0,0,0,1,0,0m.09,0c.05,0,0,.1,0,.14s-.06,0-.05-.09,0-.1.08,0m-.35,0c.12,0,.32.2.3.23s0,0,0,0a.51.51,0,0,1,.1.21s0,0,0,0a.41.41,0,0,1,0,.22.06.06,0,0,0,0,0c0,.09-.1.25-.12.19s0-.07,0-.07,0,0,0,0,0,0,0,0,0,0,0,0,0,0,0,0,0-.1-.1-.15-.07-.06-.07-.07,0,0,0,0l.06,0c.05,0,.11,0,.11,0s-.21-.15-.25-.11-.08,0-.1,0,0-.06,0-.06.12-.15.06-.15-.12,0-.13,0,0,0,0,0,0,0-.05,0a.11.11,0,0,0-.17,0,.07.07,0,0,1-.06,0l-.09,0a.15.15,0,0,1-.09,0,.1.1,0,0,0-.07,0s0,0,0,0l.05,0L29,70s0,0,.06,0l.06,0a.69.69,0,0,1,.43,0M27,70.54a3.83,3.83,0,0,0,0,.65,4.15,4.15,0,0,0,.63,0c.53,0,.61,0,.62,0h0s0,0-.62,0H27v-.64m3-.47s0,.06,0,.06,0,0,0,0-.06-.05,0-.12,0,0,0,0m-1.41,0a1,1,0,0,0-.08.74l.05.11a.46.46,0,0,0,.05.1s0,0-.06,0-.1,0-.1,0a4.79,4.79,0,0,0-.63,0h-.62v-1H28.4l.1,0h.07l0,.08m1.67-.06h1.27v1h-.62a4.92,4.92,0,0,0-.63,0s-.17,0-.17,0a0,0,0,0,1,0,0s0-.05.05-.09a.89.89,0,0,0,0-.81L30,70h.08c.05,0,.09,0,.09,0m-.85.06s0,0,0,0,0,0,0,0a.15.15,0,0,1,0-.06s0,0,0,0a0,0,0,0,1,0,0m.52,0s0,0,0,.06,0,0,0,0,0,0,0,0,0,0,0,0,0,0,0,0,0,0,0,0m.2,0s0,0,0,0,0,0,0,0-.11.06-.12,0,0,0,.06-.08.08,0,.1,0m-.75,0s-.06,0-.07,0,0,0,0,0,0,0,0,0m-.74,0s0,0,.05,0h.05l-.05,0s0,0,0,0l0,0s0,0,0,0l-.07,0c-.06,0-.05,0,0,0s0,0,0,0a0,0,0,0,0,0,0s0,0,0,0a0,0,0,0,1,.06,0m.78.07s0,0,0,0,0,0,0,0,0,0,0,0a.37.37,0,0,1,0-.18s0,0,0,0l0,0m.75,0s0,0,0,0,0,0-.07,0-.09,0,0,0,.11,0,.11,0m-1.4,0c0,.07.12.16.15.1s0,0,0,0l.05,0s.05,0,0,.07-.07.06-.09,0-.08,0-.1,0,0,.1,0,.12,0,0,0,.06,0,.18,0,.18.07-.08.07-.11l0-.06a.07.07,0,0,0,0-.06s0,0,.08,0,.05.06,0,.06,0,0,0,0,.05,0,0,0,0,.09,0,.09,0,0,0,0-.11,0-.21,0-.12,0-.07.07.11,0,.62,0a.54.54,0,0,1,.17,0,.72.72,0,0,1-.4.13.55.55,0,0,1-.24-.06h0s0,0-.16-.11a.52.52,0,0,1-.15-.23l0,0a.79.79,0,0,1,0-.34s0,0,0,0a.16.16,0,0,1,0-.11,0,0,0,0,1,0,0m.41.12s-.1,0-.11,0a.09.09,0,0,1,0-.07s.12.09.08.12m-.52-.07s0,0-.06,0-.12,0-.07-.08.11,0,.13,0m1.5,0c.11,0,0,.12-.11.09s0-.1,0-.1h.07m-1.53.11s0,0,0,0a0,0,0,0,1,0,0s0,0-.05,0-.05,0-.05,0,0,0,0,0,0-.07.06-.07a.09.09,0,0,1,.05,0m1.54,0s0,0,0,0l0,0s0,0,0,0a.08.08,0,0,0-.07,0s0,0,0,0,0,0,0,0l0,0h0s0,0,0,0h.08c.07,0,.08,0,0,0m-1.55,0s0,.06,0,.06h-.06s0-.09.06-.09,0,0,0,0m-.06,0s0,0,.06,0,0,0,0,0-.05,0,0,0m.12.08c0,.06,0,.07,0,.06H28.5s0,0-.06-.06,0,0,0,0,.15,0,.16,0,0,0,0,.06m1.53,0a.1.1,0,0,1-.16.08l0,0,.05,0a.1.1,0,0,1,.08,0,0,0,0,0,0,.05,0s0,0,0,0m-.49,0-.07,0s-.08,0-.08,0,.07,0,.14,0,0,0,0,0m-1.1.15s.06,0,.06,0,0,0,0,0l-.08,0s0,0,0,0,0,0,0,0,0,0,0,0,0,0,0,0,0,0,0,0m1.57,0s0,0,0,0,0,0,0,0,0,0,0,0l-.05,0a.08.08,0,0,0-.06,0c-.05,0-.05,0,0,0h.08l0,0s0,0,0,0m-.07.11,0,0,0,.08a.87.87,0,0,1-.26.29c-.13.09-.13.09-.18,0s0,0,0,0a.05.05,0,0,0,0,0s0,0-.09,0-.17,0-.17,0h0l.05,0a.05.05,0,0,0,0-.09s0,0,0,0,.07,0,.12,0a.76.76,0,0,0,.39-.27,0,0,0,0,1,0,0s0,0,.05-.07.09-.09.14,0m-1.4,0c0,.1.2.31.25.31s0,0,0,0a.34.34,0,0,0,.15.07c.14,0,.21.08.12.08s-.07,0-.05.07h.05s0,0,0,0-.11,0-.12,0h-.05s0,0,0,0h0s-.4-.25-.4-.3,0,0,0,0-.11-.2-.09-.22.16,0,.16,0m.72.15s0,0,0,0,0,0,0,0,0,0,0,0m-.88.27s-.08.08-.09.07,0,0,.07-.09.11-.08,0,0m1.62,0a.19.19,0,0,0,0,.08s0,0,0,0a.48.48,0,0,1-.09-.16s.07,0,.08.06m.85-.06a2.59,2.59,0,0,0-.62,0H31a4.43,4.43,0,0,0,.62,0s0,0,0,0H31m-2,0a.06.06,0,0,0,0,.09.07.07,0,0,0,.1,0,.06.06,0,0,0-.11-.06m.67,0s0,0,0,0a0,0,0,0,1,.05.05s0,0,0,0,0-.06,0-.09a.06.06,0,0,0-.09,0m-.6,0s0,.06-.06,0,0,0,0,0,0,0,0,0m1.2,0s0,0,0,0-.08,0-.08-.06,0,0,.06,0m-.86,0a0,0,0,0,0,.05,0s0,0,0,0l0,0s-.05,0-.05,0-.06,0-.06,0,0-.05,0-.05-.07,0,0,0a0,0,0,0,0,.05,0s.05,0,.06,0m-.68.11c-.06.1-.08.12-.08.09s0,0,0,0,0-.06,0-.05l0,0c-.07,0,0,0,.06-.06s.11-.06.06,0m.3,0a0,0,0,0,1,0,0c0,.1.51.07.74,0l.11,0v.08a.22.22,0,0,1,0,.1,4.92,4.92,0,0,0,0,.63v.61h-1V72.1c0-.37,0-.63,0-.64s0,0,0-.09V71.3l.07,0,.1,0m1.09.08s-.16-.13-.15-.15,0,0,.09.06.07.08.06.09m-1.68,0a.34.34,0,0,0,.09.08q.09.06-.06-.06l0,0m1.58.16s0,1.24,0,1.23,0-.28,0-.62a2.12,2.12,0,0,1,0-.62s0,0,0,0,0,0,0,0" transform="translate(0 0)"/><path id="path3" class="cls-8" d="M38.81,75.92v4.15c0-2.28,0-6,0-8.29v4.14m-10.14-7v.62l0,0s0,0,0,0,.07,0,.07-.65v-.6H29.9v.61c0,.62,0,.65.07.64s0,0,0,0h0V68.27H28.67v.62m.08-.53s0,.29,0,.62v.61h-.12c-.11,0-.12,0-.07,0s0,0,0,0-.28.18-.26.23,0,0,0,0,0,0,0,0h0s0,0,0,.08V70H27.09v.55c0,.3,0,.55,0,.55h1.22v.12c0,.1,0,.12,0,.09s0,0,0,0a.08.08,0,0,0,0,0l0,.06a.62.62,0,0,0,.22.17s0,0,0,0,0,0,0,0h.16v.61a2.77,2.77,0,0,0,0,.63,6.22,6.22,0,0,0,1.06,0s0-.07,0-.6,0-.63.11-.64h.12s0,0,0,0,0,0,.05,0,.22-.24.18-.24,0,0,0,0a.11.11,0,0,1,0,0s0,0,0-.06,0-.07,0-.1,0-.09.62-.1a3.7,3.7,0,0,0,.62,0,9.68,9.68,0,0,0,0-1.08,10.42,10.42,0,0,0-1.25,0,2.85,2.85,0,0,0,.63,0h.6v.49c0,.27,0,.5,0,.52v0h-.61c-.57,0-.61,0-.61,0s0,.07,0,.13-.08.25-.26.26h-.14a2.23,2.23,0,0,0,0,.6,3.35,3.35,0,0,1,0,.62,2.21,2.21,0,0,1-.53,0h-.5V71.53h-.11c-.22,0-.35-.14-.31-.31s.06-.12-.63-.12h-.6V70h.61c.68,0,.65,0,.62-.1a.28.28,0,0,1,.31-.33c.12,0,.12,0,.12-.63v-.6h1V69c0,.69,0,.65.15.64a.26.26,0,0,1,.29.26s0,.06,0,0,0,0,0-.09,0-.07,0,0,0,0,0,0-.21-.29-.28-.29,0,0,0,0,0,0-.08,0h-.13V68.34h-1.1m-.49,1.52a.11.11,0,0,1,0,.06h0a.08.08,0,0,0,0,0s0,0,0,0m2.07,0c0,.06,0,.06.65.06h.6v1.22H30.33v0s0,0,0,0,0,0,.63,0h.62V69.94H31c-.6,0-.62,0-.63,0s0,0,0,0M27,70.56v.62h1.24v0s0,0,0,0,0-.08-.65-.08H27V70h0v.63m1.63,1s0,0,0,.63v.62h1.24v-.62c0-.6,0-.62,0-.63s0,0,0,0-.06,0-.06.65v.6H28.69v-.6c0-.64,0-.65-.06-.65s0,0,0,0" transform="translate(0 0)"/><path id="path4" class="cls-9" d="M29.28,69.79s0,.07,0,.07,0,0,0-.07,0-.07,0-.07,0,0,0,.07m-.21,0a.05.05,0,0,0,0,0s0,0,0,0,0,0,0,0l0,0h0s0,0,0-.06-.08-.08-.08,0m.43,0s0,.1,0,.1,0,0,0,0a.17.17,0,0,1,0-.07.1.1,0,0,0,0,0s0,0,0,0m-.59.08s0,.08.05.07a.06.06,0,0,0,0,0s0,0,0,0m-.11,0s0,.09.07.09,0,0,0,0l-.05-.06s0,0,0,0m.95,0a.08.08,0,0,1-.05,0s0,0,0,0h0s0,0,0,0,0,.05,0,0,0-.1,0-.1,0,0,0,0m.17.13c0,.07,0,.18,0,.12s0,0,0,0,0,0,0-.06,0-.07,0,0m-.59.06a.15.15,0,0,0,0,.06s0,0,0,0,0,0,0,0a0,0,0,0,0,0,0s0,0,0,0m-.08.09s.07,0,.07,0,0,0,0,0,0,0,0,0m-.73.06s0,0,0,0a0,0,0,0,1,0,0s0,0,0,0-.06,0,0,0l.07,0s0,0,0,0l0,0s0,0,0,0l.05,0h-.05s-.05,0-.05,0a0,0,0,0,0-.06,0m.78,0a.37.37,0,0,0,0,.18s0,0,0,0,0,0,0,0,0,0,0,0l0,0s0,0,0,0m.7.06c-.07,0-.05,0,0,0s.06,0,.07,0,0,0,0,0,0,0-.11,0m-1.53.17a.06.06,0,0,0,0,0s0,0,0,0,0,0,.05,0,.05,0,.05,0a0,0,0,0,0,0,0s0-.07-.06-.07l-.05,0m1.52,0s0,0,0,0h0l0,0s0,0,0,0,0,0,0,0a.08.08,0,0,1,.07,0s0,0,0,0l0,0s0,0,0,0,0,0,0,0H30m-1.53.07s.11,0,.12,0,0,0,0,0,0,0-.07,0,0,0,0,0m.06.18s0,0,0,0,0,0,0,0,0,0,0,0l.08,0c.05,0,.06,0,0,0l0,0s0,0,0,0m1.56,0H30c-.05,0-.05,0,0,0a.08.08,0,0,1,.06,0l.05,0s0,0,0,0,0,0,0,0,0,0,0,0,0,0,0,0l0,0m-.74.21s0,0,0,0,0,0,0,0,0,0,0,0m-.4.3s0,0,0,0,.06,0,.06,0,0,0,0,0m.66,0s0,0,0,.06,0,0,0,0,0-.08,0-.08l0,0m-.33,0a0,0,0,0,1-.05,0c-.06,0,0,0,0,0s0,0,0,.05,0,0,.06,0,0,0,.05,0l0,0s0,0,0,0a0,0,0,0,1-.05,0s-.06,0-.06,0" transform="translate(0 0)"/></g></svg>