<svg id="Layer_1" data-name="Layer 1" xmlns="http://www.w3.org/2000/svg" viewBox="0 0 80 83.66"><defs><style>.cls-1{fill:#f2f2f2;}.cls-2{fill:#4c2484;}.cls-10,.cls-11,.cls-2,.cls-3,.cls-4,.cls-5,.cls-6,.cls-7,.cls-8,.cls-9{fill-rule:evenodd;}.cls-3{fill:#1c1c1c;}.cls-4{fill:#50206c;}.cls-5{fill:#382034;}.cls-6{fill:#1c2038;}.cls-7{fill:#053ba1;}.cls-8{fill:#fbfbfb;}.cls-9{fill:#f1cc21;}.cls-10{fill:#90a7dd;}.cls-11{fill:#87650c;}</style></defs><path class="cls-1" d="M40,0h0A40,40,0,0,1,80,40h0A40,40,0,0,1,40,80h0A40,40,0,0,1,0,40H0A40,40,0,0,1,40,0Z" transform="translate(0 0)"/><g id="svgg"><path id="path0" class="cls-2" d="M18.45,40a.11.11,0,0,1-.08,0,.06.06,0,0,0-.07,0l0,.12s0,.73,0,1.57c0,1.58,0,1.6.13,1.61s0,0,0,0,0,0,0,.05.08,0,.08,0,.1,0,1.51,0a8.21,8.21,0,0,0,1.59,0l.09-.07c.06,0,.11-.06.11-.08a.19.19,0,0,1,0-.07s0-3.09,0-3.12a0,0,0,0,1,0,0s0-.08-.11-.1-3.16,0-3.21,0" transform="translate(0 0)"/><path id="path1" class="cls-3" d="M10.3,34.36v2.76H10c-.46,0-.42,0-.42-.12v-.11H8c-1.66,0-1.58,0-1.58.16s0,.09-.27.07-.43,0-.43.14v.1H5.28v.1c0,.1,0,.11-.13.12s-.11,0-.12.12v.12H4.82c-.21,0-.29.05-.29.18s0,.08-.1.09-.1,0-.11.11,0,.1-.08.1a.16.16,0,0,0-.18.16c0,.08,0,.09-.11.1s-.16.15-.14.37,0,.1-.11.1-.12,0-.12.11,0,.12-.11.13-.16.15-.14.39,0,.33-.12.33H3.1v.24c0,.22,0,.24-.07.24s-.17,0-.18,1.1v.58H2.64v.3c0,.32,0,.39.14.39h.08v.64c0,.36,0,.73,0,.84v.19H3.1v.71h.1c.11,0,.11,0,.11.41,0,.25,0,.29.18.3s.07,0,.07.12,0,.12.13.12.12,0,.1.1,0,.33.14.36.11,0,.11.14,0,.11.1.11.11,0,.14.12,0,.12.13.13.1,0,.11.11,0,.1.13.11.12,0,.12.11.07.15.3.15h.18v.11c0,.13,0,.15.31.15s.16,0,.16.08.09.14.54.14H6.7v.11c0,.15,0,.15,1,.14s1.08,0,1.1-.14l0-.09.35,0h.35V48c0-.1,0-.1.17-.1s.31,0,.31-.15,0-.11.13-.11h.13v-.25h.12c.13,0,.13,0,.13-.11s0-.11.11-.11.12,0,.12-.09,0-.08,0,0,0,.08.12.09l.11,0v.21c0,.22,0,.22.12.25s.11.06.12.13,0,.09.24.12.21,0,.21.08-.08.16,1.58.16h1.54V46.86a6.68,6.68,0,0,0,0-1.31,2.23,2.23,0,0,0-.42,0H14s0-.35,0-7v-7H10.3v2.77m15.64,3.69v6.46l.1,0,.11,0V45c0,.25,0,.57,0,.71V46h.24v.35c0,.36,0,.38.16.38s.06,0,.08.22l0,.22.11,0c.09,0,.11,0,.11.09a.14.14,0,0,0,.16.15c.08,0,.09,0,.09.09s.08.16.28.16.16,0,.19.12l0,.12h.45v.21H31.7V45.3H30v-.11c0-.12,0-.12-.13-.12h-.12v-.5h-.22v-13h-3.6v6.46m43.5.73V46h.1c.11,0,.12,0,.11.34s0,.34.15.37.1,0,.1.14,0,.11.13.11.12,0,.11.09,0,.37.13.38.11,0,.11.09.08.17.29.17h.18v.11c0,.13,0,.15.29.15h.19v.21h3.58V45.29H73.25v-.13c0-.12,0-.13-.07-.13s-.15,0-.15-.3,0-.4-.15-.4h-.1V31.59H69.43v7.19M37.09,36.65a.14.14,0,0,0-.11.16c0,.07,0,.07-.47.07H36v.23h-.33c-.35,0-.38,0-.38.16s0,.08-.21.08-.27,0-.27.15,0,.07-.09.07a.15.15,0,0,0-.17.17c0,.08,0,.08-.11.08s-.11,0-.11.11v.11l-.23,0c-.23,0-.23,0-.24.13s0,.1-.07.1a.16.16,0,0,0-.18.15c0,.09,0,.1-.12.11h-.1V39h-.12c-.13,0-.13,0-.13.11s0,.11-.1.14-.11,0-.13.23,0,.26-.13.26-.12,0-.12.4v.29h-.1c-.15,0-.16.13-.14,1l0,.71h-.26v.68h.24l0,.71c0,.84,0,1,.14,1h.1v.31c0,.33,0,.38.15.38s.07,0,.09.19a1.88,1.88,0,0,0,0,.23s0,0,.1.06.11,0,.12.12,0,.12.13.13.11,0,.11.14,0,.12.12.12.12,0,.11.17,0,.28.09.28.16,0,.16.11.06.14.28.14h.2v.13c0,.12,0,.13.11.13s.11,0,.11.06,0,.16.26.16H35l0,.13,0,.12h.48v.24H36v.21h1.17v.08c0,.17,0,.18,1,.18s1,0,1-.18v-.08h1.16v-.21h.49v-.23h.46v-.24h.46v-.1c0-.09,0-.1.11-.1s.11,0,.11-.13v-.13h.2c.22,0,.28,0,.28-.14s.06-.11.16-.11.1-.12.1-.33,0-.12.11-.12.11,0,.11-.13V46h.25v-.48h.24V45h.22V44.3h.24V42.53c0-1.92,0-1.83-.17-1.83s-.08,0-.08-.35V40h-.22v-.46h-.23v-.46h-.12C43,39,43,39,43,38.91s0-.12-.1-.11h-.11l0-.22c0-.23-.05-.28-.18-.28s-.07,0-.07-.07,0-.14-.26-.17l-.22,0v-.11c0-.1,0-.11-.11-.11s-.11,0-.11-.09-.07-.16-.3-.16-.17,0-.18-.1,0-.11-.13-.12-.12,0-.12-.08,0-.16-.4-.16h-.33v-.23H39.15v-.09c0-.17,0-.17-1-.16-.52,0-1,0-1,0m12.74,0c-.08,0-.11.06-.11.16s0,.07-.44.07-.51,0-.51.15,0,.07-.24.08H48.3v.24h-.46l0,.1a.27.27,0,0,0,0,.12s0,0-.07,0c-.21,0-.37,0-.38.14s0,.1-.14.1-.12,0-.12.11,0,.11-.13.13-.13,0-.13.13,0,.11-.11.11-.11,0-.11.13v.13h-.13c-.13,0-.13,0-.12.11s0,.11-.1.12-.11,0-.12.12,0,.12-.1.12-.16.08-.16.3v.18h-.11c-.11,0-.12,0-.12.09,0,.26,0,.39-.11.39s-.14.09-.14.54V41h-.11c-.15,0-.15,0-.15,1.57s0,1.55.16,1.55h.1v.42c0,.46,0,.53.16.53s.06,0,.08.23,0,.23.13.24h.11v.19c0,.21.05.29.17.29s.08,0,.08.1,0,.15.16.15.06,0,.06.11,0,.11.13.11.13,0,.14.12,0,.12.11.13.1,0,.11.11,0,.11.13.12.11,0,.12.12,0,.12.13.13.12,0,.13.11v.1h.42l0,.13,0,.12h.46v.24H49v.21h.94l0,.11c0,.15,0,.15,1,.15s.93,0,.93-.17v-.09h1.16v-.21h.24c.37,0,.43,0,.47-.15s0-.1.14-.11.12,0,.13-.13v-.12h.46v-.1c0-.09,0-.1.12-.1s.11,0,.11-.13v-.13h.13c.12,0,.13,0,.13-.11s0-.11.11-.11.11,0,.11-.13v-.13h.25v-.7h-.12c-.12,0-.13,0-.14-.12s0-.12-.12-.13-.11,0-.13-.11,0-.1-.12-.11-.1,0-.1-.1-.1-.17-.27-.16-.21,0-.21-.11,0-.11-.11-.11-.11,0-.11-.12,0-.12-.13-.13-.12,0-.12-.12,0-.11-.12-.11-.11,0-.11-.07,0-.18-.4-.18h-.33v.12c0,.13,0,.13-.11.13s-.14,0-.14.16,0,.06-.11.07-.1,0-.11.13,0,.12-.14.12-.12,0-.12.11V45h-.69v.24h-.5v-.11c0-.14,0-.16-.31-.15s-.39,0-.39-.06,0-.16-.26-.16h-.22v-.12c0-.11,0-.12-.12-.13s-.12,0-.12-.12,0-.11-.08-.11-.14,0-.17-.25,0-.21-.13-.22H49v-.19c0-.24,0-.28-.13-.28h-.09V41.66h.07c.11,0,.15-.07.15-.28v-.2h.1c.1,0,.1,0,.13-.24l0-.23h.11c.1,0,.11,0,.11-.11s0-.11.12-.12.12,0,.12-.13v-.11h.46V40h.47a8,8,0,0,1,1,0h.45v.1c0,.1,0,.11.13.12s.12,0,.12.11,0,.15.16.15.07,0,.08.11,0,.11.13.11.11,0,.12.12v.12h.25c.32,0,.42,0,.44-.14s0-.1.12-.11.11,0,.12-.12,0-.1.1-.1.16-.07.16-.19,0-.07.11-.07.11,0,.11-.11,0-.11.12-.12.12,0,.13-.13,0-.12.12-.12.11,0,.11-.1v-.11l.22,0c.23,0,.26,0,.26-.18s0-.06.12-.07h.12v-.44c0-.47,0-.5-.17-.5s-.07,0-.07-.06,0-.16-.13-.16S55,38,55,37.93s-.06-.1-.27-.1-.17,0-.17-.08-.05-.17-.16-.17-.09,0-.1-.1v-.11H53.8v-.09c0-.12-.09-.16-.32-.16s-.15,0-.18-.1l0-.11h-.46l-.46,0v-.08a.66.66,0,0,0,0-.11s-2.33-.05-2.47,0m10.52,0s-.06,0-.06.12v.11h-.68c-.72,0-.75,0-.75.16v.09l-.28,0c-.35,0-.45,0-.45.15v.1h-.48v.24h-.46v.11c0,.12,0,.12-.13.12h-.12v.3c0,.38,0,.4.14.4h.11v.24c0,.23,0,.23.11.26s.1,0,.11.17,0,.29.14.31l.11,0v.21c0,.21,0,.21.11.24s.1.05.11.13v.1h.46c.49,0,.51,0,.51-.15s0-.07.29-.07.41,0,.41-.16v-.09H61v-.21h.5v.22h1v.11c0,.12.06.15.34.15s.14,0,.14.11,0,.11.11.11.11,0,.11.08,0,.18.15.18h.1v.28c0,.15,0,.26,0,.23s-.11,0-.36,0h-.35v-.11c0-.15,0-.15-1.78-.15s-1.76,0-1.8.15l0,.11h-.3c-.33,0-.39,0-.39.14s0,.08-.13.09-.12,0-.12.13v.11h-.46v.12c0,.11,0,.12-.12.12s-.15,0-.15.16,0,.06-.1.07-.1,0-.11.12,0,.12-.11.13-.17.14-.14.35,0,.12-.1.13h-.12v.67l-.12,0-.11,0v2.1h.23v.72h.1c.12,0,.12,0,.11.23s0,.25.16.25.09,0,.09.11,0,.11.11.11.11,0,.12.12,0,.12.13.13.12,0,.12.12,0,.11.11.11.1,0,.13.12l0,.12h.42l0,.11,0,.12h.46v.21h.47c.46,0,.46,0,.47.08s0,.17.66.18.77,0,.77-.14v-.11h1.19v-.21h.21c.38,0,.47,0,.48-.15s0-.11.14-.11.12,0,.12-.12v-.13h.48v-.11c0-.1,0-.11.09-.11a.22.22,0,0,0,.13,0s0,0,0,.11,0,.15.12.16.11,0,.11.12,0,.11.12.12.12,0,.13.13,0,.11.11.12.1,0,.12.11l0,.11H68v-.91c0-.95,0-1-.14-1s-.07,0-.08-.12,0-.12-.19-.13-.06,0-.06-.08-.06-.15-.28-.15H67V45.3h-.21V42.43c0-3.16,0-3.1-.15-3.14s-.11,0-.11-.23,0-.27-.14-.27-.07,0-.09-.2-.07-.28-.18-.28-.06,0-.07-.1,0-.11-.12-.12-.11,0-.13-.13,0-.11-.11-.12-.11,0-.13-.11,0-.1-.24-.13-.22,0-.23-.13v-.1h-.24c-.23,0-.23,0-.23-.1s-.06-.17-.28-.15-.19,0-.19,0,0-.18-.64-.18h-.57V36.8c0-.18,0-.18-1.32-.17-.67,0-1.24,0-1.27,0M9.58,40.05a.43.43,0,0,1,0,.11c0,.06,0,.06.24.06h.23v.11c0,.11,0,.15.17.15s.06,0,.06,1.56v1.55h-.21l0,.23v.22l-.11,0H9.84v.46H9.63c-.21,0-.29.05-.29.18s0,.08-.11.08-.14,0-.14.16,0,.07-.73.07-.69,0-.72-.11,0-.11-.25-.12H7.18v-.12c0-.11,0-.12-.13-.13s-.12,0-.12-.12,0-.11-.06-.11-.16,0-.16-.21,0-.27-.11-.27-.14,0-.15-.38v-.33H6.22v-1h.09c.13,0,.13,0,.13-.52v-.43h.13c.13,0,.13,0,.13-.11s0-.11.1-.14.11,0,.12-.13,0-.1.1-.11.11,0,.14-.12.06-.11.13-.12.1,0,.1-.12v-.11h.19c.25,0,.29,0,.29-.13V40h.84c.73,0,.84,0,.86,0m29.34.05c0,.11,0,.11.24.12s.21,0,.21.09.05.17.17.17.09,0,.09.07a.14.14,0,0,0,.15.15s.07,0,.07.07.06.19.16.19.09,0,.09.18,0,.25.14.28.09,0,.09.29,0,.44.15.45h.1v.24c0,.22,0,.23-.07.23s-.15,0-.17.5l0,.45h-.2v.47H40c-.1,0-.11,0-.13.12s0,.13-.11.13-.12.05-.12.16,0,.06-.11.06-.15,0-.15.18,0,.08-.21.08-.22,0-.24.12,0,.1-.13.1H37.21v-.11c0-.1,0-.11-.12-.12s-.12,0-.13-.11,0-.11-.12-.12-.11,0-.11-.09,0-.14-.15-.15-.09,0-.1-.11,0-.14-.16-.14-.07,0-.07-.11,0-.15-.16-.15-.06,0-.06-.33c0-.48,0-.57-.15-.6l-.11,0v-.72h.11c.13,0,.14-.07.14-.58v-.37h.11c.11,0,.11,0,.11-.11s0-.11.08-.11a.18.18,0,0,0,.18-.18c0-.06,0-.08.07-.08a.14.14,0,0,0,.15-.15c0-.06,0-.07.09-.07s.16,0,.16-.17,0-.08.22-.09.21,0,.24-.12l0-.1h1.43l0,.1M62.2,43.18c0,.16,0,.16.39.16h.34v.24h.46v.47h-.1c-.1,0-.1,0-.13.24s0,.23-.13.24-.1,0-.11.13,0,.12-.12.12-.11,0-.13.09,0,.16-.13.14-.32,0-.32.09,0,.16-.39.16H61.5v.22H61v-.22h-.47v-.11c0-.11,0-.15-.17-.15a.05.05,0,0,1-.06-.06c0-.12,0-.16-.14-.16H60v-1h.12c.11,0,.12,0,.13-.11s0-.1.11-.11.1,0,.11-.13v-.12H61v-.22h.61c.57,0,.6,0,.6.06m-44,.32s.12.1.2.09.05,0,0,0a.14.14,0,0,1-.11,0c0-.05-.07-.07-.07,0m3.55,0s0,0,0,0a.18.18,0,0,0-.09,0c-.06,0-.06,0,0,0s.18-.05.15-.08a0,0,0,0,0,0,0" transform="translate(0 0)"/><path id="path2" class="cls-4" d="M18.27,40.06s0,.17,0,.14a.13.13,0,0,0,0-.08s0,0,0,0,0,0,0,0,0,0-.07,0m3.46,0s0,0,0,0,0,0,0,0,0,0,0,.05,0,0,0-.09-.08-.07-.08,0m.06,3.24a.2.2,0,0,0,0,.05s-.05.06-.11.09-.09.06-.07.08,0,0,0,0a.27.27,0,0,0-.12,0c-.09,0-.08,0,.07,0s.17,0,.17,0a0,0,0,0,1,0,0,.07.07,0,0,0,.05,0s0-.07,0-.11,0-.07,0-.07l0,0m-3.54.08a.35.35,0,0,0,.08.13c.08.07.1.07.07,0s0,0,0,0a.26.26,0,0,0,.14,0c.08,0,.09,0,0,0a.1.1,0,0,0-.09,0,0,0,0,0,1,0,0s0,0-.08,0-.08,0,0-.05,0,0,0,0-.06,0-.06,0a0,0,0,0,0,0,0s0,0,0,.07" transform="translate(0 0)"/><path id="path3" class="cls-5" d="M50.81,36.65h.45c.12,0,0,0-.22,0s-.35,0-.23,0m-18.4,5.26c0,.15,0,.21,0,.14a1.31,1.31,0,0,0,0-.28c0-.07,0,0,0,.14m0,1.21c0,.15,0,.21,0,.14a1.22,1.22,0,0,0,0-.27c0-.08,0,0,0,.13m24,.94c0,.07,0,.09,0,.06a.28.28,0,0,0,0-.13s0,0,0,.07m0,.92c0,.07,0,.1,0,.06a.28.28,0,0,0,0-.13s0,0,0,.07" transform="translate(0 0)"/><path id="path4" class="cls-6" d="M18.52,43.59h.11s0,0-.05,0-.09,0-.06,0m.85,0h1.35c.37,0,.07,0-.68,0s-1.05,0-.67,0" transform="translate(0 0)"/></g><g id="svgg-2" data-name="svgg"><path id="path0-2" data-name="path0" class="cls-7" d="M36.45,67.33s0,.47,0,1v1H53.78v-2H45.12c-6.92,0-8.67,0-8.67,0m-7.7.49s.06.06.06,0,0,0,0,0,0,0,0,0m5.1,0s0,0,0,0,0,0,0,0,0,0,0,0a.11.11,0,0,0-.06,0M27.91,69a.11.11,0,0,0,0,.05s0,0,0-.05,0,0,0,0m2.79.76c-.17.07-.21.09-.18.11h0s.06,0,.24,0,.25,0,.14-.06a.23.23,0,0,0-.24,0m1,0c-.12.06-.14.08-.05,0a.86.86,0,0,1,.48,0,.1.1,0,0,0,.07,0s-.29-.16-.36-.16l-.14.06m-.95.22a.36.36,0,0,0,0,.2s.13,0,.12,0,0,0,0,0,0,0,0,0A.18.18,0,0,1,31,70l0,0L31,70c-.12,0-.21,0-.22,0m1,0c-.05,0,0,.18.05.18s0,0,0,0,0,0,0,0,.09,0,.1-.11a.39.39,0,0,1,0-.11s0,0-.1,0a.31.31,0,0,0-.13,0m3.2.42s0,0,.05,0,0,0,0,0l0,0s-.05,0-.05,0M31,70.62s0,0,.07,0,.12,0,0,0-.06,0-.09,0m.48,0s0,0,0,0,.06,0,.05,0,0,0-.08,0m-.25.06s0,0,.06,0,.05,0,.05,0,0,0-.05,0-.06,0-.06,0m-.23.22-.1,0c-.08,0,0,.08.1.14a.92.92,0,0,0,.54,0,0,0,0,0,1,0,0s.12-.08.12-.11,0,0,0,0l-.07,0a1.87,1.87,0,0,0-.58,0m.61,0s0,.07,0,.07l-.06,0c-.06.06-.59,0-.59,0a2,2,0,0,1,.67,0m4.81.47a6.4,6.4,0,0,0,0,1v1H53.78v-2H36.55a.12.12,0,0,0-.09,0m-7.7,1.51s0,0,0,0,.07,0,.06-.06,0,0,0,0m5.09,0s0,0,0,0,0,0,0,0,0,0,0,0M31.31,74a.08.08,0,0,0,0,0s0,0,0,0,0-.06,0,0m-5.1,2.51v1H53.78v-2H26.21v1m0,4.08v1H53.78V79.57H26.21v1" transform="translate(0 0)"/><path id="path1-2" data-name="path1" class="cls-8" d="M26.21,70.37v5.1H53.78v-2H36.42V71.39H53.78v-2H36.43v-1a6.36,6.36,0,0,1,0-1H53.78v-2H26.21v5.1m5.14-3.68s0,.13,0,.21,0,.22.05.31,0,.23.06.31,0,.22.06.3,0,.23.05.31,0,.18,0,.22,0,.1.15-.06a1.78,1.78,0,0,0,.31-.65c.1-.38.2-.52.43-.64s.28-.1.15,0a.64.64,0,0,0-.17.62,2,2,0,0,1,0,.6s0,.08,0,.13a.54.54,0,0,1,0,.11.3.3,0,0,0,0,.09.34.34,0,0,1,0,.08s0,.12,0,.12l.18-.12.34-.24.3-.21a8.58,8.58,0,0,1,.75-.5,5.07,5.07,0,0,1-.39.61s0,0-.07.1l-.15.21c0,.07-.14.21-.22.32s-.15.22-.16.24,0,.05.11,0a1.85,1.85,0,0,0,.78-.28.76.76,0,0,1,.43-.15.68.68,0,0,1,.41.09c.1,0,.09.07,0,.07a.61.61,0,0,0-.55.27,2.19,2.19,0,0,1-.29.33,1.87,1.87,0,0,1-.52.34c-.18.1-.18.1,0,.12l.16,0,.25,0,.58.11.23,0,.15,0,.19,0,.17,0s0,0-.27.08l-.3,0-.29.06-.31,0-.51.09c-.12,0-.12,0,0,.12a2.15,2.15,0,0,0,.66.33c.45.13.55.2.69.48s.08.24-.05.11a.89.89,0,0,0-.25-.16,1.27,1.27,0,0,0-.53,0,1.67,1.67,0,0,1-.69-.07l-.1,0-.07,0-.07,0h-.06l.11.17.13.18.08.12.08.12a.56.56,0,0,1,.09.12l.14.21.1.14.09.13.06.09s0,0,0,0l.08.11A.56.56,0,0,0,34,73S34,73,34,73l-.26-.18,0,0-.15-.1L33,72.36l-.26-.18L32.51,72l-.07,0v.12a1.4,1.4,0,0,0,.07.37s0,0,0,0a2.58,2.58,0,0,0,.2.41,1.37,1.37,0,0,1,.11.21.82.82,0,0,1,0,.51c-.09.23-.1.23-.13,0s-.06-.32-.33-.52a2,2,0,0,1-.61-.77l-.07-.15,0,.14c0,.07,0,.2-.05.28s0,.22-.05.3,0,.21-.06.3-.06.31-.11.61-.07.36-.12.11,0-.21-.1-.55c0-.15-.05-.29-.11-.63l0-.24s0-.11,0-.15,0-.06,0-.06a2.73,2.73,0,0,0-.28.42c0,.08-.07.16-.08.18a.62.62,0,0,0,0,.1.3.3,0,0,1,0,.09.56.56,0,0,0,0,.1.39.39,0,0,1,0,.11.67.67,0,0,1-.39.43c-.21.1-.26.1-.15,0a.61.61,0,0,0,.18-.64,2.08,2.08,0,0,1,.06-.87c.07-.18.1-.28.08-.28l0,0-.06.05-.45.31c-1.14.79-1.14.79-1,.58l.21-.31.16-.23.19-.27.17-.24.16-.23.08-.12h-.13a1.06,1.06,0,0,0-.36.07h0a2.73,2.73,0,0,0-.45.23l-.12.06-.07,0a1,1,0,0,1-.42,0l-.05,0a.53.53,0,0,1-.2-.09s0,0,0,0a.74.74,0,0,0,.71-.36,2,2,0,0,1,.83-.64l.08,0-.13,0-1.2-.22-.31-.06c-.27,0-.28,0-.28-.06a1.65,1.65,0,0,1,.45-.1l.26,0,.18,0,.5-.09.26,0,.16,0L29.3,70a1.66,1.66,0,0,0-.69-.35c-.35-.1-.44-.14-.55-.27s-.22-.4-.17-.4l0,0a.64.64,0,0,0,.61.24,2.27,2.27,0,0,1,.95,0c.31.1.28.1.25.06l-.16-.23-.64-.93-.17-.24c-.14-.2-.13-.22,0-.1l.51.36.36.24.33.23.19.13v-.05A2.12,2.12,0,0,0,30,68a1,1,0,0,1-.18-1c.08-.16.09-.16.11,0s.06.34.34.55c.09.08.2.16.23.2a1.31,1.31,0,0,1,.23.31,0,0,0,0,0,0,0s0,0,0,0,0,0,0,0,0,0,0,0,0,.06,0,.06a.08.08,0,0,1,0,0l0,.08c0,.05,0,.05.07-.2s.05-.24.06-.32,0-.21.06-.3,0-.22.05-.3,0-.2,0-.3c.08-.43.11-.51.13-.38M26.21,78.55v1H53.78v-2H26.21v1m0,4.09v1H53.78v-2H26.21v1" transform="translate(0 0)"/><path id="path2-2" data-name="path2" class="cls-9" d="M31.28,67c0,.13-.05.28-.11.6,0,.09,0,.23-.06.32s0,.26-.1.58c0,.08,0,.2-.05.27a1.49,1.49,0,0,1,0,.19l0,.14v.08l.08,0a1.18,1.18,0,0,1,.21,0l.14,0V68c0-.62,0-1.12,0-1.12l0,.13m.07,1v1.08l.13,0a.94.94,0,0,1,.2,0c.1,0,.09.06,0-.4l-.05-.31c0-.08,0-.22-.06-.3s0-.22-.05-.3a.61.61,0,0,0,0-.15.62.62,0,0,1,0-.16,1.3,1.3,0,0,0,0-.17.48.48,0,0,1,0-.15c0-.32,0-.25,0,.81m1.09-.92c-.15.11-.19.19-.3.57a1.87,1.87,0,0,1-.4.75c0,.06-.07.08-.06.12s.09.45.1.54v.08l0-.06a2.63,2.63,0,0,0,.22-.43.26.26,0,0,0,0-.1.08.08,0,0,1,0,0s0,0,0-.08a.15.15,0,0,1,0-.08,5,5,0,0,0,.14-.71,1,1,0,0,1,.18-.54c.06-.08.06-.09,0,0m.09,0a1,1,0,0,0-.2.55,4.15,4.15,0,0,1-.17.82,3.54,3.54,0,0,1-.23.53c0,.06-.05.11,0,.12a1.25,1.25,0,0,0,.29-.2l.06,0a2,2,0,0,0,.24-1.21.87.87,0,0,1,0-.5c.06-.12.06-.13,0-.07m-2.64.05c-.05.07.06.33.25.59a4.25,4.25,0,0,1,.63,1.12.62.62,0,0,0,0,.14l0,.07s0,0,.06-.23a1.46,1.46,0,0,1,0-.17s0-.08-.09-.27a2.16,2.16,0,0,0-.69-.84.56.56,0,0,1-.24-.35s0-.08,0-.06m-.09.18a.89.89,0,0,0,.19.51,2.1,2.1,0,0,1,.17.39l.05.14a2.23,2.23,0,0,1,0,.23v.17l.12.09a4.48,4.48,0,0,1,.4.28c.2.17-.25-.82-.56-1.23a1.66,1.66,0,0,1-.35-.61c0-.14-.06-.12-.06,0m-.12,1.34c.41.42.76.76.77.76a.05.05,0,0,0,0,0,1.42,1.42,0,0,1,.26-.17c.08,0,0,0-.29-.26l-.25-.18a2,2,0,0,1-.26-.18l-.16-.1a4.18,4.18,0,0,0-.48-.33,1,1,0,0,0-.13-.1c-.28-.2-.21-.12.5.59m4-.71-.19.13-.26.18-.15.1,0,0-.69.48-.43.3s.06.06.14.11l.17.12s1.34-1.29,1.51-1.48c0,0,0,0,0,0m-4.72,0a.45.45,0,0,0,0,.09l.62.9.51.73c.08.13.08.13.12,0a1,1,0,0,1,.17-.23s0-.11-.73-.8c-.41-.41-.74-.73-.74-.72m4.06.74-.75.74.08.11a1.36,1.36,0,0,1,.12.17l0,.07,0-.06.14-.21a3,3,0,0,1,.18-.24L33,69c.22-.33.55-.81.64-.93s0-.07-.7.66m1.16.12L34,69a3.09,3.09,0,0,1-.6.27,1.57,1.57,0,0,1-.35.06c-.12,0-.12,0-.17.06a3.22,3.22,0,0,1-.2.29l-.15.22h.08l.11,0,.12,0,.14,0a3.78,3.78,0,0,0,.79-.45c.37-.28.5-.35.63-.37a.13.13,0,0,0,.09,0,.68.68,0,0,0-.32,0m.24.07a1.37,1.37,0,0,0-.51.28,3.41,3.41,0,0,1-.91.53l-.11,0-.09,0-.09,0-.07,0s0,0,.26.08L33,70a2.61,2.61,0,0,0,.56-.27,1.83,1.83,0,0,0,.44-.44c.17-.22.31-.33.44-.33h0s0,0-.14,0m-6.31.22a.94.94,0,0,0,.51.19l.59.1.12,0,.1,0,.09,0s0,0,0,0l.09,0,.34.16c.16.08.16.06,0-.16s-.14-.21-.15-.2l-.07,0a2,2,0,0,0-1.06-.17.7.7,0,0,1-.58-.07c-.07,0-.09,0,0,0m3,0A1.23,1.23,0,0,0,30.28,71a1.19,1.19,0,0,0,.88.58,1.39,1.39,0,0,0,.53,0l.15-.07a1.21,1.21,0,0,0-.12-2.24,1.6,1.6,0,0,0-.61,0m-3.07,0a.66.66,0,0,0,.27.23l.08,0,.13,0,.09,0,.09,0a.42.42,0,0,1,.12,0l.07,0,.1,0,.09,0a2.6,2.6,0,0,1,.32.23c.06,0,.12,0,.53,0l.14,0c.07,0,0,0-.18-.14a3.7,3.7,0,0,0-1.31-.37l-.18,0-.06,0a.66.66,0,0,1-.25-.12l-.08,0,0,0m4,.51c.12.05.22.11.22.15s-.06,0-.16,0a.56.56,0,0,0-.49,0c-.1.06-.16.07-.13,0a1.1,1.1,0,0,1,.31-.2.61.61,0,0,1,.25,0m-1,0a.59.59,0,0,1,.23.19s-.07,0-.09,0a.54.54,0,0,0-.58,0c-.1,0-.15,0-.1,0a.92.92,0,0,1,.27-.15.42.42,0,0,1,.27,0m.08.22c.05,0,.09.12.06.14l0,0c0,.1-.3.12-.42,0s-.11-.07-.15-.08,0-.08.14-.14a.55.55,0,0,1,.4,0M32,70c.13.07.2.15.12.15s0,0,0,0,0,0-.08.07-.45,0-.45-.15.32-.16.46-.09m-2,0-.55.1-.19,0-.13,0-.58.1-.31.06c-.46.08-.51.08.7.08h1.11v-.15a.75.75,0,0,1,0-.17l0-.06s0,0-.12,0m2.48,0a.29.29,0,0,0,0,.09s0,.13,0,.2v.12h1.11c1.21,0,1.16,0,.69-.08l-.31-.06-.3,0-.29,0L32.9,70l-.19,0a.54.54,0,0,0-.21,0m-.55.13c0,.07,0,.08,0,0A.06.06,0,0,0,32,70s0,0,0,0m-1.29,0s0,0,0,0,0,0,0,0,0-.06,0-.06,0,0,0,.06m.32,0s0,0,0,0l.06,0s0,0,0,0,0,0-.06,0m.61,0s0,0,0,0a.11.11,0,0,1,.07,0s0,0,0-.05,0,0-.07,0M28,70.41l.08,0,.15,0,.15,0,.15,0,.61.11.3.05.3.06c.45.08.45.08.41,0s0-.12,0-.19v-.12H28m4.61.11c0,.07,0,.16,0,.2s0,.1.4,0l.31-.06.3-.05.31-.06.81-.15a9,9,0,0,0-1,0H32.58v.12m-1.41,0s0,0,0,0,0,.09,0,.08.05,0,.05,0,.14.07.17,0a.07.07,0,0,1,.08,0c.05,0,.07,0,0-.09s0,0,0,0,.06,0,.09.08a.26.26,0,0,0,.09.09c.14.06.14.12,0,.07a.39.39,0,0,0-.28,0c-.09,0-.09,0-.16,0a.36.36,0,0,0-.27,0c-.13.06-.15,0,0-.06a.24.24,0,0,0,.09-.08c0-.08.12-.15.12-.09m2,.27a.8.8,0,0,1-.17,0l-.3,0-.14,0,.08.05a3.16,3.16,0,0,0,.41.2l.14.05a4.76,4.76,0,0,0,.87.2.91.91,0,0,1,.55.18c.06,0,.07,0,0,0a.77.77,0,0,0-.51-.28l-.09,0,0,0a2,2,0,0,1-.71-.41.08.08,0,0,0-.1,0m-3.75.11a1.62,1.62,0,0,0-.28.16l-.09,0a2,2,0,0,0-.44.45.65.65,0,0,1-.38.28c-.1,0-.11,0-.06,0a1,1,0,0,0,.61-.28l.5-.34a4.27,4.27,0,0,1,.7-.31l.17-.05-.12,0-.24,0-.14,0a.57.57,0,0,0-.23.09m2.32,0c.16.05.2.05.17,0s0,0,.06,0,.07.14,0,.09-.15,0-.2,0a.74.74,0,0,1-.8,0c-.16-.09-.2-.09-.22,0a0,0,0,0,1,0,0s0-.08.05-.13.08,0,0,0,0,0,.15,0l.15,0a1.9,1.9,0,0,1,.62,0M30,70.93l-.12,0-.05,0a3.81,3.81,0,0,0-1,.57,1.89,1.89,0,0,1-.48.28l-.12,0c-.05,0-.05,0,0,0a1,1,0,0,0,.65-.22l.11-.06.07,0a1.36,1.36,0,0,1,.47-.13c.19,0,.22,0,.3-.14l.19-.27c.12-.18.12-.19-.05-.13m-.06.37-.36.5c0,.07-.12.18-.16.24-.4.57-.5.72-.46.69s1.48-1.47,1.48-1.49l0,0a1,1,0,0,1-.11-.16l-.08-.13s-.13.18-.27.39m2.5-.31a1.2,1.2,0,0,1-.11.17l-.07.09L33,72c.41.41.75.75.75.74s0,0-.06-.11l-.52-.74L33,71.66l-.08-.12-.21-.3a3,3,0,0,1-.18-.27c-.05-.07-.06-.07-.11,0m.14,0,.1.15.13.2s0,.06.06.06l.08,0,.08,0s0,0,0,0l.08,0,.1,0a2,2,0,0,0,.77.06.76.76,0,0,1,.58.08s.06,0,0,0-.25-.17-.89-.27l-.16,0-.07,0a2.89,2.89,0,0,1-.79-.29c-.12-.06-.14-.07-.12,0m-1.48,0a1,1,0,0,0,.44,0c.12,0,0,0-.19,0a.83.83,0,0,0-.25,0m.35.26s0,0-.09,0-.1,0-.1,0,0,0,.1,0,.09,0,.09,0M29.7,72c-.7.7-.83.84-.66.71l.25-.18.34-.23.36-.25.42-.29a2.24,2.24,0,0,1,.29-.19c.09-.07.09-.08,0-.14a.49.49,0,0,1-.13-.08c-.12-.11,0-.18-.86.65m2.41-.67-.17.11a.26.26,0,0,0-.08,0s.41.3,1.14.8l.23.16.11.08.22.15.13.08s-.33-.35-.74-.76l-.75-.75-.09.08m-1.22.25,0,.21.05.26s0,.13,0,.18,0,.17,0,.25,0,.25.11.63c0,.17.08.42.11.61s0,0,0-1V71.64l-.17,0a.6.6,0,0,1-.19,0s-.07,0-.06,0m.8,0-.19,0-.16,0v1.08c0,.68,0,1.06,0,1s.05-.23.1-.54l.11-.59c0-.09,0-.23.06-.32s.07-.37.1-.55,0-.2,0-.16m.15,0a3.49,3.49,0,0,0,.63,1.26c.26.36.29.42.32.56a.41.41,0,0,0,0,.09s0-.13,0-.22a.38.38,0,0,0,0-.08,4,4,0,0,0-.2-.4,1.78,1.78,0,0,1-.23-.75V72l-.1-.07-.12-.08-.31-.21s0,0,0,0m-1.13,0-.24.16c-.07,0-.13.11-.13.13a.19.19,0,0,0,0,.07,1.75,1.75,0,0,0-.16,1c0,.33,0,.42,0,.56s-.05.12,0,.09a1,1,0,0,0,.21-.54,4.76,4.76,0,0,1,.19-.87.68.68,0,0,0,0-.13s.07-.17.12-.27c.13-.26.13-.27.05-.2m.08,0a2,2,0,0,0-.14.29,1.18,1.18,0,0,0-.06.13.11.11,0,0,0,0,0,.25.25,0,0,1,0,.07.25.25,0,0,0,0,.11.62.62,0,0,1,0,.1,6.74,6.74,0,0,0-.13.69,1,1,0,0,1-.21.56s0,0,0,0,.17-.12.22-.2a1.5,1.5,0,0,0,.14-.39,1.72,1.72,0,0,1,.39-.75c.08-.08.08-.09,0-.4,0-.09,0-.2,0-.24s0-.11-.08,0m1,.11c0,.1,0,.21-.05.24a.19.19,0,0,0,0,.15,2.28,2.28,0,0,1,.1.21,1.86,1.86,0,0,0,.6.73.68.68,0,0,1,.33.44c0,.07,0,.08,0,0a1,1,0,0,0-.19-.5L32.5,73a1.36,1.36,0,0,0-.14-.19,3.74,3.74,0,0,1-.56-1.17s0,0,0,.15" transform="translate(0 0)"/><path id="path3-2" data-name="path3" class="cls-10" d="M31.3,66.67c0,.07,0,.08,0,0s0-.07,0-.07,0,0,0,0m.06.14a.23.23,0,0,0,0,.11s0,0,0,0a.39.39,0,0,0,0-.11s0,0,0,0m-.09,0a.31.31,0,0,1,0,.09s0,.06,0,0a.13.13,0,0,0,0-.09s0,0,0,0M29.88,67h0s0,0,0,.14a.92.92,0,0,0,0,.17s0,0,0-.07a1.1,1.1,0,0,1,0-.18c0-.08,0-.11-.05-.06m2.85,0s0,.06-.06.11l-.1.12s0,0,0,0l.11-.13c.08-.08.08-.1,0-.1s0,0,0,0m-.15,0s-.08,0-.07,0l.1,0,.08,0-.11,0m-1.17.14a.68.68,0,0,0,0,.12s0-.13,0-.18,0,0,0,.06m1-.05s0,0,0,0a.15.15,0,0,0,.06,0s0,0,0,0m-1.21,0s0,.06,0,.08v0l0,0a.22.22,0,0,0,0-.08s0,0,0,0m-1.45.11s0,.07,0,.08l0-.06s0-.07,0-.08l0,.06m6.67.1a6.72,6.72,0,0,0,0,1v1h0v-1a7.46,7.46,0,0,1,0-1s0,0,0,0m-5.29.13s0,.08,0,.09,0-.12,0-.15,0,0,0,.06m1.34,0s0,.06,0,0v-.08s0,0,0,0m-1,0s0,.07,0,.09,0,0,0-.05,0-.12,0,0m-1.45,0,.06.06.06.05-.05-.06c-.05-.06-.07-.07-.07,0m-.26.07a.19.19,0,0,0,0,.07s0,0,0-.07v0m.42.07s.1.08.1.07,0,0-.06,0,0,0,0,0m1.34.15a.5.5,0,0,0,0,.12s0-.12,0-.17,0,0,0,0m1,0a.58.58,0,0,1,0,.15.36.36,0,0,0,0,.1.58.58,0,0,0,0-.26s0,0,0,0m-2.2,0a.6.6,0,0,0,.11.1l.07,0a.85.85,0,0,0-.18-.15m-1.64.07a.79.79,0,0,0,.12.2s0,0-.05-.1,0-.09.09,0,.12.09.12.08a1.65,1.65,0,0,0-.25-.18,0,0,0,0,0,0,0m5.25,0s0,0,0,0,0,0,0,0,0,0,0,0,0,0,0,0,0,0,0,0m-.16.1c-.08.05-.09.07-.07.07l.08-.06c.08-.06.07-.07,0,0m-1.73,0v0s0,0,0,0a.11.11,0,0,0,0,0s0,0,0,0M31,68s0,.09,0,.09,0-.11,0-.14,0,0,0,.05m2.44,0c-.1.07-.14.12-.09.09l.2-.15s0,0-.11.06m-1.9,0a.13.13,0,0,0,0,.08s0,0,0-.06,0-.1,0,0m-2.7,0,0,0s0,0,0,0,0,0,0,0,0,0,0,0m3.64.06a.62.62,0,0,1,0,.15s0,0,0,0a.89.89,0,0,0,0-.27s0,0,0,.09m-2.47,0,0,.08s0,0,0,0a.19.19,0,0,0,0-.08s0,0,0,0m3.67,0c0,.07-.07.11,0,.06s.08-.11.07-.11,0,0-.05,0m-4.34.1.08.07.08,0-.08-.06c-.05,0-.08-.06-.08,0m-.36.06.06.09s0,0,0-.1l0,0,0,.06m2.61.06,0,.09s0-.1,0-.13,0,0,0,0m-.64,0a.37.37,0,0,0,0,.08s0,0,0-.06a.44.44,0,0,0,0-.09s0,0,0,.07m-.83.06,0,.08s0-.08,0-.11,0,0,0,0m-.48,0,.11.08.06,0-.06,0-.11-.08-.05,0,.05,0m2.79,0a.24.24,0,0,1,0,.08s0,0,0,0,0-.13,0-.13l0,.05m-1.55.07s.06.06.06,0,0,0,0,0,0,0,0,0,0,0,0,0m1.86,0c-.1.07-.1.08,0,0s.09-.07.07-.07a.35.35,0,0,0-.08.06m-.36.08,0,0s0,0,0,0,0,0,0-.06,0-.06,0,0m-3.06.14.06.09s0,0,0-.09-.06-.08-.07-.08l.05.08m3,0s0,.07,0,.07,0,0,0,0,0-.06,0,0m1.76.09s0,0,0,0h.07s0,0,0,0l-.06,0m.3,0c.07,0,.11,0,.08,0l-.08,0h0l0,0m-1.28.07s0,.07,0,.06.1-.13.08-.13l-.06.07m1.41,0s0,0,.06,0,.05,0,0,0-.1,0-.1,0M27.87,69h0l.12.09.11.08,0,0L28,69c-.06-.06-.09-.08-.09,0m6.86,0s0,0-.13,0l-.17,0s0,0,0,0l.18,0c.12,0,.16,0,.1-.06h0M33,69.11l-.07.11a1.67,1.67,0,0,0,.15-.2c0-.06,0,0-.08.09m-5.08,0s0,.07,0,.07,0,0,0,0-.06-.09,0,0m.76,0s.07,0,.22,0,.24,0,.21,0H28.7m5.46,0,0,.07s0,0,.06-.06l0,0-.05,0m-4.79,0,.06,0s0,0,0,0h-.06s0,0,0,0m.35.06s0,0,0,0,0,0,0,0,.07,0,0-.06,0,0,0,0m-1.63.08.1.09h0c-.12-.11-.19-.17-.13-.1m5.95,0c0,.06,0,.08,0,0s0,0,0,0,0,0,0,0m-.11.14s-.07.09-.06.09l.07-.07c.06-.09.06-.1,0,0m-5.55,0,.09,0h0a.15.15,0,0,0-.08,0s0,0,0,0m.21.06.08,0s0,0,0,0l-.09,0s0,0,0,0m5.19,0-.05.06.06,0c.05,0,.06-.07.05-.07l-.06.06M29.32,70l.06,0-.09,0c-.06,0-.07,0,0,0l.1,0,.06,0L29.35,70l-.07,0s0,0,0,0m4,.08.12,0s.07,0,0,0l-.12,0c-.05,0-.07,0-.05,0M29,70.1l-.05,0H29l.1,0H29m4.64,0,.09,0h.05l-.05,0H33.6m.3.06H34s0,0,0,0-.14,0-.08,0m-5.54.06h.09l0,0h0l-.09,0m5.83,0h.11l-.11,0h0l0,0m-6.13,0s0,0,0,0h.09c.07,0,0,0-.08,0m6.44,0s.17,0,.15,0l-.1,0c-.06,0-.08,0,0,0m-6.75,0c-.05,0-.05,0,0,0h.07s0,0,0,0h-.11m7,0h.09l-.09,0h0l0,0m-7.19,0s0,0,0,0,0,0,.07,0,0,0,0,0m7.38,0s0,0,0,0,0,0,0,0,0,0,0,0,0,0-.06,0,0,0,0,0m-7.3.06h.14l-.09,0s-.07,0,0,0m7.15,0-.09,0s.14,0,.19,0,0,0-.1,0m-6.83,0s.21,0,.17,0l-.12,0s-.07,0,0,0m6.53,0s-.1,0-.1,0a.62.62,0,0,0,.2,0s0,0-.1,0m-6.23.06.12,0c.05,0,.08,0,.06,0s-.21,0-.18,0m5.91,0c-.12,0-.13,0,0,0s.2,0,.13,0l-.12,0m-5.62,0,.12,0c.05,0,.08,0,.07,0s-.22,0-.19,0m5.36,0c-.07,0-.07,0,0,0l.08,0s0,0-.07,0m-5.05.06a.45.45,0,0,0,.18,0l-.12,0s-.08,0-.06,0m4.64,0s0,0,.07,0,.09,0,.09,0a.35.35,0,0,0-.16,0m-4.33,0c.06,0,.21,0,.18,0l-.12,0h-.06m4.05,0s0,0,.06,0h.07s-.12,0-.13,0m-3.84.06-.05,0a.39.39,0,0,0,.13-.06s0,0-.08,0m-.53.31s0,0,0,0S29,71,29,71l-.06,0m-.17.16-.1.11.11-.1c.1-.1.11-.12.1-.12l-.11.11m5.6,0,.05,0s0,0,0,0-.07,0-.06,0m.11,0,.09.08.08.07-.06-.07-.09-.08s0,0,0,0m-5.84.08q-.08.09-.06.09l.05-.06c.05-.07.06-.09,0,0m4.27,0a.09.09,0,0,0,0,0s0,0,0,0,0,0,0,0,0,0,0,0,0,0,0,0m3.55,1v1h0v-1a6.4,6.4,0,0,1,0-1s0,0,0,0,0,.06,0,1m4.44-1h8.62c2.37,0,.43,0-4.31,0s-6.67,0-4.31,0M33,71.47l0,0h0s-.08,0-.08,0m-3.41,0h.08s0,0-.05,0-.05,0,0,0m-.25,0c-.09,0-.09,0,0,0s.15,0,.1,0l-.09,0m4.85,0a.09.09,0,0,0,.07,0h0s-.05,0,0,0m-5,0c-.05,0-.07,0,0,0s.06,0,.06,0h0m4.25,0,.19,0c.13,0,.15,0,.09,0s-.31,0-.28,0m.49,0H34s0,0,0,0l-.12,0m.46,0s.09.05.1,0,0,0,0,0h0m.28.18c.05,0,.1.08.1.07s0,0,0,0-.14-.11-.05,0m.07,0s0,.06,0,0,0-.1,0-.1,0,0,0,0m-6.68,0h.12s0,0-.12,0m-.18,0s.06,0,.05,0,0,0,0,0,0,0,0,0,0,0,0,0m.08,0,.07,0h0l0,0c-.06,0-.1,0-.07,0m5.26.07s0,.08.06.08a.51.51,0,0,0-.09-.14s0,0,0,.06m-5.11,0,.17,0-.1,0H28.1m.37,0-.08,0a.41.41,0,0,0,.15,0,0,0,0,0,0,0,0l-.08,0m4,.1s0,0,0,.07,0,0,0,0,0-.06,0,0l0,0s-.09-.07-.1,0m-2.23.1v0s0,0,0,0a.13.13,0,0,0,0,0s0,0,0,0m-.42.15c-.08.06-.1.08-.05,0s.13-.09.11-.09l-.06,0m.37,0a.23.23,0,0,0,0,.07s0,0,0,0,0-.09,0,0m2.3,0a.41.41,0,0,0,0,.1s0,0,0,0a.41.41,0,0,0,0-.1s0,0,0,0m-.81,0a.25.25,0,0,0,0,.09s0,0,0,0,0-.14,0-.06m1.23,0a.51.51,0,0,0,.14.09l-.08-.06-.06,0m-3.33.13c-.08.06-.1.08-.05.06s.13-.09.11-.09l-.06,0m-.58.14,0,.08s0,0,.07-.08l.05-.08s0,0-.07.08m3.55,0a.08.08,0,0,0,0,.06s0,0,0,0,0-.05,0-.05,0,0,0,0m-3.21.07c-.07.06-.1.08,0,.06s.13-.1.11-.1l-.06,0m.79.17a2,2,0,0,0,0,.27s0,0,0-.18,0-.35,0-.09m1.5-.13a.13.13,0,0,0,0,.09s0,0,0,0,0-.12,0-.05m-.9,0s0,.06,0,0,0-.08,0-.08,0,0,0,0m2.69,0,.08.06s0,0,0,0l-.08-.06s0,0,0,0m-2.35,0a.31.31,0,0,0,0,.09v0a.24.24,0,0,0,0-.09l0,0v0m.95.1.06.07s0,0,0-.06-.09-.09,0,0m-1.34,0s0,.06,0,0,0-.08,0-.08l0,0m2,.08.06.08a.64.64,0,0,0-.1-.18s0,0,0,.1m1.21,0,.06.07a.51.51,0,0,0-.08-.13s0,0,0,.06m-3.28,0a.21.21,0,0,0,0,.06s.05-.1,0-.11a.14.14,0,0,0,0,0m1.56.07.11.1s0,0-.09-.1a.51.51,0,0,0-.11-.11l.09.11m-.61,0a.6.6,0,0,0,0,.12s0,0,0,0a.88.88,0,0,0,0-.2s0,0,0,.07m-.45,0a.37.37,0,0,0,0,.09s0,0,0,0,0-.07,0-.1,0,0,0,0m2.78,0c.07,0,.1.06.1,0s0,0,0,0a.08.08,0,0,1-.08,0s0,0,0,0m-5.19,0s0,.06,0,0,0,0,0,0,0,0,0,0,0,0,0,0m1.87,0c0,.07,0,.11,0,.1s0,0,0-.06,0-.08,0,0m2.3.22c0,.12,0,.13,0,0a.29.29,0,0,0,0-.1s0,0,0,.06m-1.37,0c0,.11,0,.16,0,.14a.49.49,0,0,0,0-.19l0,0m-.33,0a.38.38,0,0,0,0,.1v0a.16.16,0,0,0,0-.1v0m1.42,0s.07.09.08.09a.68.68,0,0,0-.11-.14s0,0,0,.05m-2.14.12c0,.06,0,.08,0,0l0-.06s0,0,0,0m2.43.07a.31.31,0,0,1,0,.11s0,0,0,0,0-.19,0-.19l0,.07m-1.43,0c0,.1,0,.19,0,.16a.88.88,0,0,0,0-.2s0,0,0,0m1.27.1a.71.71,0,0,0,0,.14s0,0,0-.12,0-.13,0-.13a.29.29,0,0,0,0,.11m-1.5-.08a.37.37,0,0,0,0,.09s0,0,0,0,0-.06,0-.09,0,0,0,0M30,73.71l-.05.06.06,0c.06,0,.07-.07.05-.07l-.06.06m0,.08c-.06,0-.07,0,0,0l.07,0s0,0-.06,0m1.4.07c0,.14,0,.17,0,.14a.54.54,0,0,0,0-.2l0,.06m-.11,0a.38.38,0,0,0,0,.1v0a.3.3,0,0,0,0-.1v0m0,.18a.11.11,0,0,0,0,.07s0,0,0,0,0,0,0,0,0,0,0,0,0,0,0,0m1.8,1.45H46.88c3.8,0,.7,0-6.88,0s-10.69,0-6.91,0m0,2.06H46.88c3.8,0,.7,0-6.88,0s-10.69,0-6.91,0m0,2H46.88c3.8,0,.7,0-6.88,0s-10.69,0-6.91,0m0,2.06H46.88c3.8,0,.7,0-6.88,0s-10.69,0-6.91,0" transform="translate(0 0)"/><path id="path4-2" data-name="path4" class="cls-11" d="M31.32,66.68s0,.57,0,1.24v1.2l-.13,0a1.17,1.17,0,0,0-.22,0l-.08,0v-.08l0-.14a1.49,1.49,0,0,0,0-.19c0-.07,0-.19.05-.27.06-.32.08-.44.1-.58s0-.23.06-.32,0-.22,0-.3,0-.19.05-.24a1,1,0,0,0,0-.15c0-.09,0,0-.05.13s-.07.41-.1.53,0,.19-.05.27,0,.22-.05.29a2.38,2.38,0,0,1-.05.26c0,.17,0,.17-.14-.06a2.8,2.8,0,0,0-.21-.34,2.1,2.1,0,0,0-.5-.47.6.6,0,0,1-.19-.27,1,1,0,0,1,0-.19v-.15l0,.1c-.14.3-.12.47.09.85a1.78,1.78,0,0,1,.25.72c0,.21.05.22-.42-.11-1.21-.84-1.14-.8-1-.6l.39.56.25.37c.37.52.38.55.31.52l-.09,0-.09,0a1.43,1.43,0,0,0-.65-.1c-.75,0-.69,0-.9-.14l-.06,0s0,.07,0,0,0,0,.05.15a.69.69,0,0,0,.49.35l.4.13.07,0a2.17,2.17,0,0,1,.37.24l.1.09-.06,0-.15,0-.15,0-.25.05-.31.06L28,70.3c-.11,0-.17,0-.09,0l.15,0,.23,0,.31-.06.58-.1.16,0,.16,0,.16,0,.24,0,.23,0s0,0,0,.09a.75.75,0,0,0,0,.17v.15H27.63s0,0,.39.09l.63.12.29,0,.15,0,.15,0,.21,0h.06l-.13.07a1.92,1.92,0,0,0-.79.62c-.22.28-.32.34-.59.35s-.12,0,0,.09a.7.7,0,0,0,.72-.08,1.87,1.87,0,0,1,.76-.29l.17,0c.07,0,0,.1-.27.48l-.07.1a1.59,1.59,0,0,1-.11.16c-.11.16-.34.48-.36.52s0,0,0,0a1.11,1.11,0,0,1-.08.12c-.07.1-.08.15,0,.09s0,0,0,0,0,0,0,0,0,0,0,0,0,0,.13-.06l.29-.2.25-.17.24-.17a5,5,0,0,1,.57-.38l0,.13a2.34,2.34,0,0,0-.11,1.13.54.54,0,0,1-.16.51c-.1.11-.1.12-.05.11s0,0,0,0,0,0,0,0c.21,0,.43-.25.52-.6,0-.07,0-.15,0-.17a.26.26,0,0,0,0-.08,1.8,1.8,0,0,1,.36-.59s.06,0,.08.17,0,.12,0,.16,0,.16.05.25,0,.23,0,.3l.06.31c0,.09,0,.22.05.29a.86.86,0,0,1,0,.17s0,0,0,0,0,0,0,0,0,0,0-.06.07-.4.09-.55,0-.21.06-.29,0-.21.05-.3,0-.23.06-.31a1.49,1.49,0,0,1,0-.22l0-.07,0,.08a2.06,2.06,0,0,0,.68.89.61.61,0,0,1,.33.55q0,.19.06,0a.71.71,0,0,0,0-.73,4.2,4.2,0,0,1-.25-.54,2,2,0,0,1-.07-.46s.63.41.73.48l.12.09.33.22c.26.19.27.19.23.15s0,0,0,0,0,0-.5-.76l-.21-.31L33,71.55c-.1-.14-.11-.17,0-.13l.08,0,.08,0a2.27,2.27,0,0,0,1.1.08.64.64,0,0,1,.51.2c.06,0,.08.06.06,0s0,0,0,0,0,0,0,0,0-.08-.08-.22a.84.84,0,0,0-.48-.31,1.93,1.93,0,0,1-.76-.35c-.16-.12-.16-.14,0-.17l.6-.11.31,0,.32-.06.21,0s.07,0,.07,0a0,0,0,0,1,0,0s0,0,0,0l-.12,0-.17,0-.27-.05-.31,0-.19,0-.14,0L33.25,70c-.12,0-.11,0,.06-.12a1.84,1.84,0,0,0,.78-.64.73.73,0,0,1,.63-.32c.09,0-.1-.08-.25-.12a.61.61,0,0,0-.51.1,2.14,2.14,0,0,1-.93.33c-.14,0-.15,0,.33-.65l.14-.21.16-.23c.34-.48.34-.49.16-.35l-.13.09-.08,0-.27.19c-.11.07-.29.19-.39.27l-.58.39s0-.06.07-.24l.07-.3a2.76,2.76,0,0,0,0-.42c0-.59,0-.61.15-.81s.1-.13,0-.09,0,0,0,0,0,0,0,0,0,0,0,0-.43.23-.49.46l0,.14a.68.68,0,0,1,0,.12.3.3,0,0,0,0,.09c0,.18-.35.67-.41.63a.41.41,0,0,1,0-.14.51.51,0,0,0,0-.15s0-.08,0-.16,0-.23-.11-.62l-.1-.57c0-.09,0-.13,0-.12m.08.55a.48.48,0,0,0,0,.15,1.3,1.3,0,0,1,0,.17.62.62,0,0,0,0,.16.61.61,0,0,1,0,.15c0,.08,0,.21.05.3s0,.22.06.3c.14.82.14.75,0,.71a.94.94,0,0,0-.2,0l-.13,0V68c0-1.06,0-1.13,0-.81m1.07-.09a1,1,0,0,0-.18.54,5,5,0,0,1-.14.71.15.15,0,0,0,0,.08s0,.08,0,.08a.08.08,0,0,0,0,0,.26.26,0,0,1,0,.1,2.63,2.63,0,0,1-.22.43l0,.06V69.1c0-.09-.08-.48-.1-.54s0-.06.06-.12a1.87,1.87,0,0,0,.4-.75c.11-.38.15-.46.3-.57s.09-.06,0,0m.05.06a.87.87,0,0,0,0,.5,2,2,0,0,1-.24,1.21l-.06,0a1.25,1.25,0,0,1-.29.2s0-.06,0-.12a3.54,3.54,0,0,0,.23-.53,4.15,4.15,0,0,0,.17-.82,1,1,0,0,1,.2-.55c0-.06,0,0,0,.07M30,67.42a1.35,1.35,0,0,0,.17.17,2.16,2.16,0,0,1,.69.84c.1.19.11.22.09.27a1.46,1.46,0,0,0,0,.17c0,.23,0,.27-.06.23l0-.07a.62.62,0,0,1,0-.14,4.25,4.25,0,0,0-.63-1.12c-.19-.26-.3-.52-.25-.59s0,0,0,.06a.45.45,0,0,0,.07.18m-.13-.09a1.66,1.66,0,0,0,.35.61c.31.41.76,1.4.56,1.23a4.48,4.48,0,0,0-.4-.28l-.12-.09v-.17a2.23,2.23,0,0,0,0-.23l-.05-.14a2.1,2.1,0,0,0-.17-.39.89.89,0,0,1-.19-.51c0-.15,0-.17.06,0m-1.05.51s0,0-.06,0,0,0,0,0,0,0,0,0m5.08,0s0,0,0,0,0,0,0,0a.11.11,0,0,1,.06,0s0,0,0,0m-4.71.29a1,1,0,0,1,.13.1,4.18,4.18,0,0,1,.48.33l.16.1a2,2,0,0,0,.26.18l.25.18c.33.22.37.26.29.26a1.42,1.42,0,0,0-.26.17.05.05,0,0,1,0,0s-.36-.34-.77-.76c-.71-.71-.78-.79-.5-.59M33.69,68c-.17.19-1.5,1.49-1.51,1.48L32,69.33c-.08,0-.15-.1-.14-.11l.43-.3.69-.48,0,0,.15-.1.26-.18.19-.13s.07,0,0,0m-3.28,1.54,0,0a1,1,0,0,0-.17.23c0,.1,0,.1-.12,0L29.59,69l-.62-.9a.45.45,0,0,1,0-.09s.33.31.74.72.75.76.75.77m3.27-1.41c-.09.12-.42.6-.64.93l-.21.31a3,3,0,0,0-.18.24l-.14.21,0,.06,0-.07a1.36,1.36,0,0,0-.12-.17l-.08-.11.75-.74c.72-.73.82-.82.7-.66m.78.78a.13.13,0,0,1-.09,0c-.13,0-.26.09-.63.37a3.78,3.78,0,0,1-.79.45l-.14,0-.12,0-.11,0H32.5l.15-.22a3.22,3.22,0,0,0,.2-.29c0-.06,0-.06.17-.06a1.57,1.57,0,0,0,.35-.06A3.09,3.09,0,0,0,34,69l.17-.09a.68.68,0,0,1,.32,0m.06.07h0c-.13,0-.27.11-.44.33a1.83,1.83,0,0,1-.44.44A2.61,2.61,0,0,1,33,70l-.18,0c-.26,0-.3-.06-.26-.08l.07,0,.09,0,.09,0,.11,0a3.41,3.41,0,0,0,.91-.53,1.37,1.37,0,0,1,.51-.28c.11,0,.12,0,.14,0m-6.43.19a.7.7,0,0,0,.58.07,2,2,0,0,1,1.06.17l.07,0s.07.08.15.2.16.24,0,.16l-.34-.16-.09,0s0,0,0,0l-.09,0-.1,0-.12,0-.59-.1a.94.94,0,0,1-.51-.19c-.07-.06-.05-.08,0,0m3.63.09a1.21,1.21,0,0,1,.12,2.24l-.15.07-.2,0a1.16,1.16,0,0,1-.87-.22,1.21,1.21,0,0,1-.2-1.79,1.24,1.24,0,0,1,.69-.39,1.6,1.6,0,0,1,.61,0m-3.48.09.1,0,.06,0,.18,0a3.7,3.7,0,0,1,1.31.37c.22.11.25.13.18.14l-.14,0c-.41.08-.47.08-.53,0a2.6,2.6,0,0,0-.32-.23l-.09,0-.1,0-.07,0a.42.42,0,0,0-.12,0l-.09,0-.09,0-.13,0-.08,0a.66.66,0,0,1-.27-.23l0,0,.08,0,.15.09m3.52.38a1.1,1.1,0,0,0-.31.2c0,.07,0,.06.13,0a.56.56,0,0,1,.49,0c.1.05.16.05.16,0s-.35-.22-.47-.19m-1.06,0a.92.92,0,0,0-.27.15c-.05,0,0,.07.1,0a.54.54,0,0,1,.58,0s.09,0,.09,0a.59.59,0,0,0-.23-.19.42.42,0,0,0-.27,0m.24.05c.11,0,.1.06-.14.06s-.23,0-.24,0h0s0,0,.18-.11a.23.23,0,0,1,.24,0m1,0c.14,0,.25.11.23.12a.1.1,0,0,1-.07,0,.86.86,0,0,0-.48,0c-.09,0-.07,0,.05,0s.14-.07.27,0m-1.3.2c-.12.06-.18.12-.14.14s0,0,.15.08.39.06.42,0l0,0s0-.11-.06-.14a.55.55,0,0,0-.4,0m.94,0c-.07,0-.07.07,0,.15a.32.32,0,0,0,.42.07c.05,0,.08-.06.08-.07s0,0,0,0,.06,0,0-.07a.46.46,0,0,0-.51-.06M31,70,31,70l0,0a.18.18,0,0,0-.05.08s0,0,0,0,0,0,0,0,0,0,0,0-.09,0-.11-.09.05-.22.22-.16m1,0a0,0,0,0,1,0,0,.39.39,0,0,0,0,.11c0,.09,0,.11-.1.11s0,0,0,0,0,0,0,0-.08-.09-.08-.13.21-.1.27-.05m.76,0,.19,0,.58.11.29,0,.3,0,.31.06c.47.08.52.08-.69.08H32.58v-.12c0-.07,0-.16,0-.2a.29.29,0,0,1,0-.09.54.54,0,0,1,.21,0m-.72.13s0,0,0,0,0-.07,0,0a.06.06,0,0,1,0,.07m-1.29,0s0,0,0,0,0,0,0,0,0-.06,0-.06,0,0,0,.06m.35,0-.06,0s0,0,0,0,0,0,.06,0,0,0,0,0m.64,0s0,0,0,0a.11.11,0,0,0-.07,0s0,0,0,0,.1,0,.1.07m-1.61.4c0,.07,0,.15,0,.19s0,.1-.41,0l-.3-.06-.3-.05-.61-.11-.15,0-.15,0-.15,0-.08,0h2.11v.12m4.58-.11-.81.15-.31.06-.3.05-.31.06c-.44.08-.44.08-.4,0s0-.13,0-.2V70.4h1.08a9,9,0,0,1,1,0m-3.58.06a.2.2,0,0,0,0,.08.24.24,0,0,1-.09.08c-.13.06-.11.12,0,.06a.36.36,0,0,1,.27,0c.07,0,.07,0,.16,0a.39.39,0,0,1,.28,0c.14,0,.14,0,0-.07a.26.26,0,0,1-.09-.09c0-.07-.07-.1-.09-.08s0,0,0,0,0,.1,0,.09a.07.07,0,0,0-.08,0c0,.06-.17.05-.17,0s0,0-.05,0-.09,0,0-.08,0,0,0,0-.05,0-.08,0m.12.16h-.09c-.08,0-.09,0-.07,0a.14.14,0,0,1,.16,0m.4,0s0,0-.05,0-.06,0,0,0,.05,0,.08,0m-.22,0s0,0-.05,0-.06,0-.06,0,0,0,.06,0,.05,0,.05,0m1.84.09a2,2,0,0,0,.71.41l0,0,.09,0a.77.77,0,0,1,.51.28c.05.07,0,.08,0,0a.91.91,0,0,0-.55-.18,4.76,4.76,0,0,1-.87-.2L33,71.1a3.16,3.16,0,0,1-.41-.2l-.08-.05.14,0,.3,0a.8.8,0,0,0,.17,0,.08.08,0,0,1,.1,0m-3.48,0,.24,0,.12,0-.17.05a4.27,4.27,0,0,0-.7.31l-.5.34a1,1,0,0,1-.61.28c-.05,0,0,0,.06,0a.65.65,0,0,0,.38-.28,2,2,0,0,1,.44-.45l.09,0a2.28,2.28,0,0,1,.51-.25l.14,0m1.33.06-.15,0c-.13,0-.18,0-.15,0s0-.06,0,0-.08.13-.05.13a0,0,0,0,0,0,0s.06,0,.22,0a.74.74,0,0,0,.8,0c.05,0,.17-.07.2,0s.05,0,0-.09-.09-.07-.06,0,0,.05-.17,0a1.9,1.9,0,0,0-.62,0m.55,0,.07,0s0,0,0,0-.09.11-.12.11a0,0,0,0,0,0,0,.92.92,0,0,1-.54,0c-.12-.06-.18-.14-.1-.14l.1,0a1.87,1.87,0,0,1,.58,0m-1.6.17-.19.27c-.08.12-.11.14-.3.14a1.36,1.36,0,0,0-.47.13l-.07,0-.11.06a1,1,0,0,1-.65.22c-.09,0-.09,0,0,0l.12,0a1.89,1.89,0,0,0,.48-.28,3.81,3.81,0,0,1,1-.57l.05,0a.73.73,0,0,1,.24-.07s0,0-.07.16m.24,0a1,1,0,0,0,.11.16l0,0S29,72.69,28.93,72.73s.06-.12.46-.69c0-.06.12-.17.16-.24.26-.37.62-.89.63-.89l.08.13M32.52,71a3,3,0,0,0,.18.27l.21.3.08.12.16.23.52.74c0,.06.07.11.06.11s-.34-.33-.75-.74l-.75-.75.07-.09a1.2,1.2,0,0,0,.11-.17c.05-.09.06-.09.11,0m-1.52,0c-.05,0,0,.06.05.09a1.51,1.51,0,0,0,.52,0l.06,0c.05,0,.06-.05,0-.07H31m1.67,0a2.89,2.89,0,0,0,.79.29l.07,0,.16,0c.64.1.76.14.89.27s0,.06,0,0a.76.76,0,0,0-.58-.08,2,2,0,0,1-.77-.06l-.1,0-.08,0s0,0,0,0l-.08,0-.08,0s0,0-.06-.06l-.13-.2c-.11-.16-.12-.17-.1-.17l.12.06m-1.11,0a.83.83,0,0,1-.42,0c-.15,0-.06,0,.18,0a.79.79,0,0,1,.24,0m-.33.26s0,0,.1,0,.09,0,.09,0,0,0-.09,0-.1,0-.1,0m-.67.13a.49.49,0,0,0,.13.08c.1.06.1.07,0,.14a2.24,2.24,0,0,0-.29.19l-.42.29-.36.25-.34.23-.25.18c-.17.13,0,0,.66-.71s.74-.76.86-.65m3.13,1.41-.13-.08-.22-.15-.11-.08L33,72.32c-.73-.5-1.13-.78-1.14-.8a.26.26,0,0,1,.08,0l.17-.11.09-.08L33,72c.41.41.74.75.74.76M31,71.57a.6.6,0,0,0,.19,0l.17,0v1.12c0,1,0,1.11,0,1s-.08-.44-.11-.61c-.07-.38-.09-.48-.11-.63s0-.2,0-.25,0-.14,0-.18l-.05-.26,0-.21s0-.07.06,0m.8,0a.69.69,0,0,1,0,.13c0,.18-.07.4-.1.55s0,.23-.06.32l-.11.59c-.05.31-.08.47-.1.54s0-.34,0-1V71.64l.16,0,.19,0s.06,0,.06,0m.27.08.15.11.12.08.1.07v.12a1.78,1.78,0,0,0,.23.75,4,4,0,0,1,.2.4.38.38,0,0,1,0,.08c0,.09,0,.26,0,.22a.41.41,0,0,1,0-.09c0-.14-.06-.2-.32-.56a3.49,3.49,0,0,1-.63-1.26s0,0,.18.08m-1.26-.06s-.05.11-.1.2-.1.22-.12.27a.68.68,0,0,1,0,.13,4.76,4.76,0,0,0-.19.87,1,1,0,0,1-.21.54s0,0,0-.09.08-.23,0-.56a1.75,1.75,0,0,1,.16-1,.19.19,0,0,1,0-.07s.06-.08.13-.13l.24-.16c.05,0,.07,0,.05,0m.11.06s0,.15,0,.24c.06.31.06.32,0,.4a1.72,1.72,0,0,0-.39.75,1.5,1.5,0,0,1-.14.39c-.05.08-.18.2-.22.2s0,0,0,0a1,1,0,0,0,.21-.56,6.74,6.74,0,0,1,.13-.69.62.62,0,0,0,0-.1.25.25,0,0,1,0-.11.25.25,0,0,0,0-.07.11.11,0,0,1,0,0,1.18,1.18,0,0,1,.06-.13c.08-.2.17-.37.19-.35a.3.3,0,0,1,0,.09m1,.08a3.78,3.78,0,0,0,.52,1,1.36,1.36,0,0,1,.14.19l.08.1a1,1,0,0,1,.19.5s0,0,0,0a.68.68,0,0,0-.33-.44,1.86,1.86,0,0,1-.6-.73,2.28,2.28,0,0,0-.1-.21.19.19,0,0,1,0-.15s0-.14.05-.24,0-.17,0-.15a.85.85,0,0,0,0,.15M33.89,73s0,0,0,0,.05,0,0,0a0,0,0,0,0,0,0" transform="translate(0 0)"/></g></svg>