<?xml version="1.0" encoding="utf-8"?>
<!-- Generator: Adobe Illustrator 24.1.0, SVG Export Plug-In . SVG Version: 6.00 Build 0)  -->
<svg version="1.1" id="Layer_1" xmlns="http://www.w3.org/2000/svg" xmlns:xlink="http://www.w3.org/1999/xlink" x="0px" y="0px"
	 viewBox="0 0 80 83.7" style="enable-background:new 0 0 80 83.7;" xml:space="preserve">
<style type="text/css">
	.st0{fill:#F2F2F2;}
	.st1{fill-rule:evenodd;clip-rule:evenodd;fill:#FCFBFB;}
	.st2{fill-rule:evenodd;clip-rule:evenodd;fill:#241C53;}
	.st3{fill-rule:evenodd;clip-rule:evenodd;fill:#EC1C24;}
	.st4{fill-rule:evenodd;clip-rule:evenodd;fill:#FCE4E4;}
	.st5{fill-rule:evenodd;clip-rule:evenodd;fill:#5C5C7C;}
</style>
<path class="st0" d="M40,0L40,0c22.1,0,40,17.9,40,40l0,0c0,22.1-17.9,40-40,40l0,0C17.9,80,0,62.1,0,40l0,0C0,17.9,17.9,0,40,0z"/>
<g id="svgg">
	<path id="path0" class="st1" d="M27.1,71.6v1.3h24v-2.6h-24L27.1,71.6 M27.1,79.6V81h24v-2.7h-24L27.1,79.6"/>
	<path id="path1" class="st2" d="M27.1,75.6v2.7h24V73h-24L27.1,75.6"/>
	<path id="path2" class="st3" d="M27.1,68.9v1.3h24v-2.7h-24L27.1,68.9 M27.1,82.3v1.3h24V81h-24L27.1,82.3"/>
	<path id="path3" class="st4" d="M33.1,70.3L33.1,70.3 M33.1,72.9h12c3.3,0,0.6,0-6,0S29.8,72.9,33.1,72.9 M33.1,78.3h12
		c3.3,0,0.6,0-6,0S29.8,78.3,33.1,78.3 M33.1,81L33.1,81"/>
	<path id="path4" class="st5" d="M33.1,70.3h12c3.3,0,0.6,0-6,0S29.8,70.3,33.1,70.3 M33.1,73c3.3,0,8.7,0,12,0H33.1 M33.1,78.3
		L33.1,78.3"/>
</g>
<image style="overflow:visible;enable-background:new    ;" width="1233" height="1900" xlink:href="krunsgri.png"  transform="matrix(2.919708e-02 0 0 2.919708e-02 21.1278 7.5127)">
</image>
</svg>
