<svg id="Layer_1" data-name="Layer 1" xmlns="http://www.w3.org/2000/svg" viewBox="0 0 80 84.2"><defs><style>.cls-1{fill:#f2f2f2;}.cls-2{fill:#fbfafb;}.cls-2,.cls-3,.cls-4,.cls-5,.cls-6,.cls-7,.cls-8{fill-rule:evenodd;}.cls-3{fill:#3c3c6c;}.cls-4{fill:#b22434;}.cls-5{fill:#9595ac;}.cls-6{fill:#926a7c;}.cls-7{fill:#fc1454;}.cls-8{fill:#0c0c0c;}</style></defs><path class="cls-1" d="M40,0h0A40,40,0,0,1,80,40h0A40,40,0,0,1,40,80h0A40,40,0,0,1,0,40H0A40,40,0,0,1,40,0Z" transform="translate(0 0)"/><g id="svgg"><path id="path0" class="cls-2" d="M24,68.33a.08.08,0,0,0,0,0,1.28,1.28,0,0,1,0,.13l0,.1h-.33l0,0,.12.08c.11.07.11.09.07.22a.52.52,0,0,1-.05.12s0,0,0,0,0,0,.12-.06.15-.12.29,0,.15.09.09-.09-.06-.13.11-.25l.13-.1h-.35l0-.09c-.06-.19-.06-.21-.08-.19m2,0s0,.09,0,.1a.94.94,0,0,0,0,.09l0,0h-.34l.09.07.14.1,0,0,0,.12c-.08.21-.07.21.18,0l0,0,.14.1.14.09a1.07,1.07,0,0,0-.05-.16c-.06-.17-.06-.16.11-.28l.07,0,0,0h-.34l-.05-.14c-.05-.18-.06-.19-.09-.1m2,.08,0,.15h-.36l.13.09c.16.11.16.11.11.27s-.07.19.08.07.15-.1.29,0,.14.1.08-.07-.07-.15.09-.26l.13-.1H28.4c-.17,0-.2,0-.2-.08a.08.08,0,0,0,0,0,.4.4,0,0,1,0-.09c0-.12,0-.11-.09,0m2.05,0-.05.15h-.35l.13.1c.1.06.13.1.13.13a.49.49,0,0,1,0,.16s0,.12,0,.12a.42.42,0,0,0,.12-.08c.09-.1.2-.09.35.06s.08,0,.05-.06a1.07,1.07,0,0,1-.06-.19s.07-.13.11-.13l0,0,.07,0,0,0h-.35l0-.13a.66.66,0,0,1,0-.16c0-.06,0,0-.08.13m2.07,0,0,.11c0,.08,0,.1-.21.11h-.17l.13.09c.15.11.15.1.1.27s0,.18,0,.13l.12-.1c.1-.06.09-.06.26.06s.13.08.11,0a1.41,1.41,0,0,1-.09-.27.46.46,0,0,1,.14-.12l.13-.1h-.35l0-.13c-.06-.19-.06-.19-.1-.08m2.06-.06a.25.25,0,0,1,0,.07l0,.08a.31.31,0,0,1,0,.08v0h-.35l0,0,.07,0,.09.07c.08,0,.08,0,0,.21s0,.17.08.07.16-.09.22,0,.24.15.15,0a.46.46,0,0,1,0-.09c0-.07,0-.06.17-.19l.09-.07h-.18c-.17,0-.17,0-.18-.05a.08.08,0,0,0,0,0,.08.08,0,0,1,0,0,.07.07,0,0,0,0,0s0,0,0-.06,0-.07,0,0m-3.06.85a.43.43,0,0,1,0,0,.61.61,0,0,0-.05.11c0,.14,0,.14-.21.14s-.15,0-.15,0,0,0,0,0l0,0,.11.09s.08.06.08.08a2,2,0,0,1-.08.27s0,0,0,0a.92.92,0,0,0,.2-.14c.05,0,.07,0,.13,0s.07,0,.07.05h0s0,0,0,0a.24.24,0,0,0,.1.06s0-.06,0-.13-.06-.18,0-.24l.09-.07,0,0c.07,0,0,0-.11,0s-.17,0-.23-.19-.06-.15-.06-.11m4.17.59v.61H53.86V69.18H35.35v.61M25,69.25a.45.45,0,0,0,0,.11s0,0,0,0a.06.06,0,0,0,0,0s0,0-.2,0-.18,0-.12,0,.25.2.2.28a1,1,0,0,0-.06.21s0,0,.06,0,.09-.07.14-.09l.07-.06.1.07.14.1s0,0,0,0a.64.64,0,0,0-.05-.2s0-.14,0-.14l0,0,.1-.07c.11-.08.1-.09-.08-.09h-.16l-.05-.15L25,69.19l0,.06m2,0a.45.45,0,0,0,0,.13s-.06.07-.22.07h-.15l0,0,.1.08.09.07,0,0-.05.15c-.06.17-.06.18.08.07s.14-.11.29,0,.19.11.12,0a.11.11,0,0,1,0-.06s0,0,0,0a.11.11,0,0,1,0-.06.08.08,0,0,0,0-.06s0-.07.08-.13l.13-.1.05,0h-.16c-.19,0-.18,0-.23-.15s-.06-.18-.11,0m2.09-.09s0,0,0,0a.81.81,0,0,1-.09.25h-.17c-.16,0-.18,0-.1.06a.13.13,0,0,1,.07,0l.07,0c.07,0,.07.06,0,.22a.51.51,0,0,0,0,.14.76.76,0,0,0,.22-.15s.07,0,.16,0,.18.13.09-.11,0-.1.1-.19.17-.12-.06-.12-.14,0-.17-.11-.06-.19-.08-.18m4.06.13c-.06.17,0,.16-.23.16s-.15,0-.15,0,0,0,0,0l0,0a.37.37,0,0,0,.11.09c.08.06.09.13,0,.19s0,0,0,0,0,0,0,0A.08.08,0,0,0,33,70v0L33,70l.08-.06c.1-.09.17-.11.21,0a.62.62,0,0,0,.2.12s0-.07,0-.14-.06-.16.08-.26.15-.11,0-.11-.2,0-.2-.06,0,0,0,0a.43.43,0,0,1,0-.05l0-.06a.11.11,0,0,1,0-.05s0,0-.07.1M24,70.09a.14.14,0,0,0,0,.06l0,0s0,.06,0,.1l0,.07h-.33l0,0,.13.09c.1.07.1.09,0,.26s0,.15.05.09.2-.15.27-.08.2.14.14,0,0-.15,0-.19l.07-.05.08-.06.06,0h-.34l-.05-.13c0-.07-.05-.14-.05-.16s0,0,0,0m2.05,0a.11.11,0,0,1,0,.06.64.64,0,0,0,0,.1c0,.13,0,.13-.21.14h-.16l.12.1c.14.1.14.11.1.24s-.07.2.09.08.13-.1.19,0a1.36,1.36,0,0,0,.22.15.79.79,0,0,0-.05-.15c-.05-.17-.06-.17.09-.28l.13-.09h-.34l-.05-.15c-.06-.16-.07-.19-.07-.13m6.14,0a.25.25,0,0,1,0,.1s0,0,0,0,0,.11-.21.12h-.17l.14.1c.15.11.14.09.08.27s0,.17.07.08.15-.13.3,0,.16.12.1,0-.06-.18,0-.22l.06,0,.08,0c.09-.06.07-.07-.1-.07h-.16l-.06-.16c-.06-.19-.05-.18-.08-.09m-2.06,0s0,.12-.05.15l0,.07h-.16a.35.35,0,0,0-.16,0l.22.16s0,.12,0,.21,0,.15.08.07.17-.13.2-.09l.08.06.07,0c0,.06.1,0,.06,0s-.07-.23.05-.31.18-.13,0-.13-.18,0-.24-.2-.05-.13-.08,0m-2,0a.59.59,0,0,1-.05.14l0,.12h-.34l.09.07c.16.11.19.14.17.18a.85.85,0,0,0-.07.26l.07,0,.07,0,.05,0s.12,0,.13,0l.21.14a.21.21,0,0,0,0-.06,1.89,1.89,0,0,0-.06-.18c0-.06,0-.07.12-.17l.13-.1H28.4c-.19,0-.18,0-.24-.17s-.05-.15-.07-.11m6.12.11c-.05.17,0,.16-.22.16s-.19,0,0,.12.13.08.08.25,0,.18,0,.13.22-.16.36-.06.16.1.11,0-.08-.25.06-.34.15-.11,0-.11-.17,0-.23-.16a.36.36,0,0,0,0-.13.3.3,0,0,0-.06.13M27.08,71a1.83,1.83,0,0,1-.07.17l0,.05h-.33l.09.07.13.1.05,0,0,.13a.62.62,0,0,1-.06.15s0,0,.09,0l.15-.1.05,0,.12.08c.11.08.2.13.15.07s0,0,0-.05a.08.08,0,0,0,0,0,.5.5,0,0,1-.05-.16s0-.06.09-.11.2-.13,0-.13h-.16l0-.09a.79.79,0,0,1,0-.12.06.06,0,0,0,0,0,.08.08,0,0,1,0-.05s0,0,0,.08m4.13-.1-.05.16-.06.15H31c-.18,0-.19,0-.11.07l.15.12,0,0,0,.13a1,1,0,0,1,0,.16s0,0,.2-.12l.07-.05.1.07a.58.58,0,0,1,.13.1s0,0,0-.17l0-.13.12-.08c.17-.13.17-.13,0-.13s-.16,0-.23-.2l-.05-.12m2,0a.08.08,0,0,1,0,.06s0,0,0,0,0,.05,0,.05a.31.31,0,0,0,0,.07l0,.06h-.34l.13.1c.15.12.15.1.08.27s0,.17.1.06l.08-.06,0,0,.08,0,.14.1c.07,0,.07,0,0-.08s-.07-.2,0-.25l.06-.05.07,0c.09-.06.07-.07-.11-.07s-.15,0-.16,0a.11.11,0,0,1,0,0l0-.06s0,0,0,0a.43.43,0,0,1,0,0,.11.11,0,0,0,0-.07s0,0,0,0M25,71.09c-.06.18-.05.17-.23.17s-.18,0,0,.12.14.09.08.25,0,.19,0,.13l.08-.06.07,0c0-.05.07,0,.2,0s.16.1.1-.06-.06-.17.05-.25.19-.12,0-.13-.17,0-.22-.18-.05-.14-.1,0m4.13-.1a.2.2,0,0,1,0,.05.08.08,0,0,0,0,0s0,0,0,0a.07.07,0,0,0,0,0c0,.06,0,.07-.19.07a.35.35,0,0,0-.16,0,1.39,1.39,0,0,0,.19.15c.06,0,.06,0,0,.18s-.05.19,0,.12l.13-.09.05,0,.09.07.14.1c.06,0,.06,0,0-.14s-.06-.16.09-.26.15-.11,0-.11-.18,0-.23-.14-.08-.2-.08-.13m6.2,1.31v.61H53.86V71.69H35.34v.61M24,71.83A1.33,1.33,0,0,0,24,72c-.05.18-.05.17-.23.18h-.16l.13.09c.14.1.14.1.09.28s-.06.18,0,.12.21-.18.36-.06.16.08.11,0a.32.32,0,0,1,0-.11l0-.09.05,0,.12-.09c.1-.07.1-.08-.08-.08s-.15,0-.17,0-.08-.23-.09-.27,0,0,0,0m2,.11c-.08.21-.06.2-.24.2h-.16l.05,0,.14.1.07,0,0,.11a.82.82,0,0,0,0,.14l0,0s0,0,.05,0c.23-.19.21-.18.41,0s.11.09.05-.1l-.05-.15,0,0,.14-.1.09-.06H26.2l0-.1a.4.4,0,0,1,0-.13c0-.1-.05-.08-.08,0m6.15,0c-.06.21-.05.2-.23.2h-.16l.05,0,.13.1c.08,0,.08,0,0,.21s-.05.18.09.07.14-.11.36.07c.06,0,.06,0,0-.11s0-.24.17-.34,0,0-.12,0-.17,0-.23-.18,0-.17-.1,0m-4.07-.09a.36.36,0,0,0-.05.13c0,.17,0,.16-.22.17H27.7l.13.09c.12.09.15.12.13.15a.25.25,0,0,0,0,.1.51.51,0,0,1,0,.1c0,.08,0,.07.12,0s.15-.1.21,0,.2.14.2.12a1.07,1.07,0,0,0-.05-.16l0-.13.06,0,.12-.09c.1-.06.09-.07-.07-.07s-.19,0-.25-.23c0-.07,0-.09-.05-.06m2,0a.68.68,0,0,0,0,.13c0,.13,0,.13-.22.13s-.18,0-.12,0,.23.15.18.32a.81.81,0,0,0,0,.14s.12-.06.21-.13.06,0,.2,0,.15.1.1,0-.07-.19.08-.29l.12-.1h-.16c-.18,0-.17,0-.23-.19s0-.14-.07-.08m4.08.08c-.06.19,0,.17-.22.18s-.19,0-.05.11.14.09.09.24,0,.19,0,.12l.12-.09s.08,0,.11,0l.11.07s.08.06.08.07h0s0,0,0-.07a1.12,1.12,0,0,1-.06-.23s0-.06.08-.09l.13-.09,0,0h-.16c-.19,0-.17,0-.25-.22s0-.1-.08,0m-3.05.77c0,.1-.05.16-.07.21l0,0H31c-.19,0-.19,0,0,.12a.33.33,0,0,1,.12.1,1.38,1.38,0,0,1-.08.27l0,0s.07,0,.09,0a.76.76,0,0,1,.2-.13.76.76,0,0,1,.2.13s.09,0,.09,0l0,0a1.86,1.86,0,0,1-.08-.26s0,0,.07-.08c.22-.15.22-.15,0-.15s-.16,0-.21-.15,0-.09,0-.12l0-.06,0,.07m-6.19.1L25,73h-.17c-.19,0-.19,0,0,.14s.11.05,0,.27a1.1,1.1,0,0,1,0,.11.82.82,0,0,0,.22-.15s.27.09.3.16h0s0-.07,0-.21a1,1,0,0,1,0-.11l.09-.08.13-.1,0,0h-.34l0-.15c-.06-.18-.06-.18-.12,0m2.08-.08a.93.93,0,0,0,0,.1l0,.09,0,0h-.16c-.19,0-.19,0,0,.12l.12.09,0,.13c0,.07,0,.14,0,.15s0,0,.19-.1.09,0,.23.06.13.09.12.06a.93.93,0,0,0-.08-.22c0-.06,0-.09.1-.16a.44.44,0,0,1,.12-.08s0,0,0,0,0,0-.17,0h-.16l0-.07c-.06-.22-.08-.26-.11-.17m6.16,0a1.34,1.34,0,0,1-.09.26A.35.35,0,0,1,33,73c-.19,0-.19,0,0,.1s.15.11.1.26-.06.21,0,.17a1.23,1.23,0,0,1,.25-.17.55.55,0,0,1,.15.09l.12.07a.71.71,0,0,0-.07-.22c0-.05,0-.11.14-.2s.11-.1-.08-.1h-.15l0-.08a.66.66,0,0,0,0-.11s0,0,0-.05a.05.05,0,0,0,0,0s0,0,0,0m-4.1,0,0,.14,0,.12H28.9c-.2,0-.2,0,0,.11s.15.15.11.19a.71.71,0,0,0-.07.22l.12-.07a.43.43,0,0,1,.15-.09,1.23,1.23,0,0,1,.25.17s0,0,0-.16-.05-.16.09-.26.15-.11,0-.11-.17,0-.23-.17,0-.15-.07-.1m-3,.86a1.51,1.51,0,0,0-.06.15c0,.14,0,.14-.21.14s-.17,0,0,.11l.12.09a1.32,1.32,0,0,1-.07.27c0,.06,0,.06.11,0l.13-.1s.05,0,.21.12.09.07,0-.1a1.07,1.07,0,0,1-.05-.16l.12-.09c.16-.11.16-.12,0-.12s-.16,0-.2-.15,0-.08,0-.09l0,0v0l0,0m2,.09c-.07.22-.05.2-.24.2s-.19,0,0,.11.14.1.1.19a1,1,0,0,0-.05.22L28,74.3l.13-.09.13.09.14.09a.92.92,0,0,0-.05-.2c-.05-.11,0-.11.09-.21s.15-.11,0-.11h-.16l-.05-.15c0-.08-.06-.15-.06-.16s0,0,0,.12m-4.09,0s0,.09,0,.1a.64.64,0,0,0,0,.07l0,0h-.16c-.16,0-.18,0-.12,0,.23.16.22.14.16.32s-.06.17.09.06.13-.11.28,0,.15.11.09-.07a.4.4,0,0,1,0-.16l.12-.09c.14-.1.14-.11,0-.11s-.17,0-.22-.15-.07-.18-.09-.08m6.17-.06-.05.14c0,.15,0,.15-.21.15s-.18,0-.05.1.16.12.14.16a.92.92,0,0,0-.08.26l.13-.09c.14-.11.11-.11.27,0s.15.12.09,0-.06-.17,0-.24.19-.14,0-.14-.17,0-.21-.11-.07-.22-.08-.18m2,.11c-.06.19-.05.18-.23.18s-.18,0,0,.1.14.1.08.28-.05.17.1,0l.13-.09a1.31,1.31,0,0,1,.24.17c0,.05,0,0,0-.12s-.07-.18.07-.28.16-.11,0-.11-.17,0-.22-.17-.06-.16-.11,0m2.09-.09a1.12,1.12,0,0,1,0,.13c0,.14,0,.14-.2.14s-.19,0,0,.1.14.1.08.28,0,.14,0,.14l.14-.09c.15-.1.13-.1.28,0s.15.11.09-.06-.06-.18.08-.28.15-.1,0-.1-.18,0-.22-.15-.06-.17-.08-.12m1.05,1.21v.61H53.86V74.2H35.35v.61m-8.26-.33a.26.26,0,0,1,0,.09s0,0,0,.06a.17.17,0,0,1,0,.07l0,0h-.33l.11.08a.42.42,0,0,0,.14.09s0,0,0,.19-.05.17.1.07.13-.1.25,0l.13.09,0,0,0-.1a.79.79,0,0,1,0-.13c0-.07,0-.1.11-.2l.14-.09h-.16c-.19,0-.18,0-.25-.19l-.05-.15,0,.07m4.11,0a.21.21,0,0,0,0,.06s0,0,0,.06a.26.26,0,0,0,0,.09c0,.09,0,.09-.21.09h-.15l.12.09c.16.12.16.16.06.38,0,.06,0,0,.13,0s.14-.09.17-.06a1.17,1.17,0,0,0,.22.14s0-.07,0-.15-.06-.14.11-.26l.11-.08h-.15c-.18,0-.19,0-.23-.13a.55.55,0,0,0,0-.12.11.11,0,0,0,0-.06s0,0,0,0m2,.1c-.07.21-.06.2-.25.2h-.14l0,0s0,0,.09.07l.11.08s0,0,0,.22,0,.13.06.06.18-.14.34,0,.13.1.08-.06,0-.19,0-.26.18-.12,0-.12-.18,0-.24-.17-.06-.18-.1,0M25,74.47l-.05.14c0,.14,0,.14-.22.14s-.16,0-.13,0l.05,0,0,0c.16.1.16.09.09.3s0,.15.1,0,.13-.11.28,0l.12.07a.41.41,0,0,0,0-.17s0,0,0-.08v-.06l.13-.1.13-.09h-.16c-.19,0-.18,0-.24-.17s-.05-.16-.07-.11m4.09,0s0,.09,0,.09a.07.07,0,0,0,0,0c0,.07,0,.09-.21.09s-.16,0-.12,0l.05,0,.09.07c.1.07.1.06,0,.23s-.05.17.1.06.13-.1.28,0,.15.1.11,0-.09-.25.08-.37l.12-.08h-.16c-.19,0-.18,0-.24-.17s-.06-.17-.09-.06m-3.06.83a1.51,1.51,0,0,0-.06.15l0,.11h-.18c-.17,0-.17,0-.13,0s0,0,0,0l.09.06c.12.08.12.09.08.22s-.05.13-.05.15,0,0,.14-.07.15-.09.18-.05a.79.79,0,0,0,.18.13l.05,0L26.32,76c-.06-.18-.06-.19.1-.3l.14-.1H26.2l0,0s0-.08,0-.12a.66.66,0,0,0,0-.11l0,0v0m2,0c-.07.25-.05.23-.26.23h-.17l.14.11c.15.11.16.13.11.24a.31.31,0,0,0,0,.17s.06,0,.12-.07.15-.1.19-.07.22.16.22.14l0-.13c-.06-.17-.06-.17.1-.29l.14-.1h-.18c-.16,0-.19,0-.19,0l0-.07s0-.06,0-.11-.05-.12-.08,0m2.07,0s0,.08,0,.14,0,.14-.24.14h-.17l0,0,.13.09c.11.08.13.1.11.15a1.63,1.63,0,0,0-.09.26l.13-.09c.15-.11.15-.11.28,0s.15.11.14.06a.4.4,0,0,1,0-.12.7.7,0,0,0-.05-.13s0-.06.14-.13l.14-.11h-.36l0-.13c-.06-.19-.06-.19-.08-.15m2.06,0s0,.08,0,.16l0,.13h-.35l.14.1c.16.12.15.09.08.32s-.05.13.09,0,.14-.11.29,0l.12.09s0-.13,0-.21,0-.12.13-.22l.13-.09h-.37l-.05-.16c0-.09,0-.14-.06-.13m2,.11c-.06.19,0,.17-.24.18h-.18l.1.07.14.11,0,0,0,.15c0,.14-.05.18,0,.15.25-.19.24-.18.39-.07s.14.11.08-.07-.07-.16.11-.28l.12-.09H34.4l0-.14c-.06-.18-.06-.18-.1,0M24,75.35a1.19,1.19,0,0,1,0,.14l0,.12h-.37l.07,0c.12.08.22.16.22.19a.81.81,0,0,1-.05.14c-.05.17-.05.17.09.07s.15-.11.29,0,.14.1.08-.09l-.05-.13.06,0,.15-.11.08-.07h-.16c-.17,0-.22,0-.22,0a.71.71,0,0,0-.09-.26s0,0,0,0M23,77.3v.61H53.86V76.69H23v.61m0,2.51v.61H53.86V79.2H23v.61m0,2.51v.61H53.86V81.71H23v.61" transform="translate(0 0)"/><path id="path1" class="cls-3" d="M23,72.28v4.38H35.32V76c0-.34,0-.62,0-.62a10.3,10.3,0,0,1,0-1.24,0,0,0,0,0,0-.05s0-.25,0-.62,0-.59,0-.6,0-1.21,0-1.23,0-.28,0-.6,0-.61,0-.63,0,0,0,0a10.27,10.27,0,0,1,0-1.25V67.91H23v4.37m1.1-3.93s0,.08,0,.1a.11.11,0,0,1,0,0c0,.09,0,.11.21.11s.17,0,.17,0,0,0,0,0,0,0,0,0l-.08.06-.11.09,0,0,0,.1c.07.2.07.21.06.23s-.07,0-.15-.08S24,69,24,69a.92.92,0,0,1-.27.17s0-.06,0-.14.07-.19,0-.28-.22-.15,0-.16.17,0,.17,0,0,0,0-.06a.08.08,0,0,0,0,0,.07.07,0,0,1,0,0s0,0,0,0,.06-.11.09,0m2,0a.19.19,0,0,1,0,.07s0,0,0,0a.34.34,0,0,1,.06.16s0,0,.17,0,.23,0,.1.1l-.14.1,0,0,0,.13c.08.24.07.25-.11.11s-.18-.1-.22,0l-.1.08c-.14.09-.15.07-.08-.13l.05-.16,0,0-.14-.1c-.13-.08-.12-.09.09-.1h.18l0-.12c.07-.23.09-.25.12-.17m2.07,0a.32.32,0,0,0,0,.11.13.13,0,0,1,0,.06c0,.07,0,.09.21.09s.21,0,.15,0l-.05,0-.11.09c-.1.07-.09,0,0,.24s.06.21-.17,0-.08-.08-.24,0l-.14.09s0,0,0,0a.07.07,0,0,0,0,0s0,0,0,0a.07.07,0,0,0,0-.05.08.08,0,0,1,0,0c.05,0,0-.11-.07-.18s-.21-.15,0-.15H28l.06-.18c.06-.19.08-.21.12-.08m2,0s0,.1.05.17l0,.13h.16c.19,0,.23,0,.17,0l-.07,0-.1.08c-.07,0-.09.11-.05.13a.07.07,0,0,1,0,0,.08.08,0,0,0,0,0,.3.3,0,0,1,0,.16s0,0-.17-.1-.14-.1-.28,0-.13.1-.14.07a1,1,0,0,1,.07-.29s0,0,0-.07-.08-.06-.09-.08l-.09-.06c-.07,0,0,0,.14-.06H30l0-.09a.38.38,0,0,1,.05-.11s0,0,0,0,.05-.12.08,0m2,0s0,.08,0,.16,0,.17.22.17.23,0,.15.06l-.1.07a.28.28,0,0,1-.09.06c-.06,0-.06,0,0,.1a.64.64,0,0,1,.08.27s0,0-.2-.11-.1-.06-.11,0l-.13.09c-.14.1-.16.11-.16.06a1,1,0,0,1,.07-.23c0-.06,0-.1-.05-.14-.25-.16-.25-.18,0-.18s.17,0,.17,0l0,0s0,0,0,0a.14.14,0,0,1,0-.06.41.41,0,0,0,0-.1c0-.07,0-.08.07,0m2.11.17,0,.15h.17c.19,0,.21,0,.11.08l-.06,0-.07.05c-.08,0-.08.11,0,.24a.15.15,0,0,1,0,.06.08.08,0,0,0,0,0c.06.06,0,.06-.11,0s-.21-.16-.29-.08l-.09.07-.07.05s-.06,0,0,0a3.19,3.19,0,0,0,.09-.31s0,0-.06,0l-.07-.05-.07,0c-.09-.06-.07-.07.11-.08s.2,0,.2-.1,0,0,0,0,0,0,0,0a.08.08,0,0,1,0-.06.05.05,0,0,0,0,0c0-.12.06-.07.12.12m-9.25.82c0,.06,0,.13,0,.15s0,0,.18,0,.23,0,.1.11l-.07,0s0,0-.06.05-.07.09,0,.11,0,0,0,0,0,0,0,.06c.11.21,0,.22-.19,0-.07,0-.06-.06-.21.06s-.19.13-.11-.13a.48.48,0,0,0,0-.12.6.6,0,0,0-.11-.1c-.21-.15-.21-.16,0-.16s.18,0,.18,0a1.35,1.35,0,0,1,.09-.26c0-.06,0,0,.09.09m2-.1s0,.09.06.16l0,.13h.18c.24,0,.24,0,0,.18-.06,0-.1.08-.09.09s0,0,0,.06,0,0,0,0a.08.08,0,0,1,0,.05.43.43,0,0,0,0,0s0,.12,0,.12L27.25,70c-.17-.13-.16-.13-.37,0l-.09,0s0-.07,0-.09,0,0,0,0a.41.41,0,0,1,0-.12c0-.1,0-.13,0-.17a.78.78,0,0,1-.17-.12c-.07-.06,0-.07.17-.07s.16,0,.16,0a0,0,0,0,1,0,0,0,0,0,0,0,0,0c0-.11.1-.29.12-.23m2.08.06c0,.08,0,.11.06.2s0,0,.18,0,.24,0,0,.17-.12.08-.07.21l.05.15c0,.06,0,.09-.05.06-.29-.22-.24-.2-.39-.08s-.21.1-.1-.16c0-.08,0-.11,0-.12l0,0-.1-.08c-.13-.1-.12-.11.09-.12s.18,0,.18,0a.62.62,0,0,1,.06-.18.07.07,0,0,0,0,0c0-.1.07-.09.1,0m2,0,.06.16,0,.12h.16c.23,0,.24,0,.11.11l-.13.1-.07,0,.05.14c.08.23.08.24-.11.11s-.14-.12-.3,0a.42.42,0,0,1-.13.08s0-.09,0-.1a.08.08,0,0,0,0,0,.43.43,0,0,1,0,0,.08.08,0,0,0,0-.06s0,0,0,0,0,0-.06-.1l-.11-.07-.06,0c-.07-.05,0-.07.15-.07h.17l.05-.16c.06-.17.07-.19.11-.12m2.05,0a.49.49,0,0,0,0,.07.13.13,0,0,1,0,.06.08.08,0,0,0,0,.05s0,0,0,0,0,0,.18,0,.18,0,.19,0,0,0,0,0a0,0,0,0,0,0,0l-.08.06-.1.07,0,0,0,.13a1,1,0,0,0,.06.17s0,0-.1,0L33.36,70l-.06,0s-.11,0-.12,0a1.19,1.19,0,0,1-.23.16s0,0,0-.19a.54.54,0,0,0,0-.15.92.92,0,0,0-.22-.18l0,0s0-.06.19-.06h.16l0-.14c.06-.19.09-.23.11-.14M24,70.07s0,0,0,0a.07.07,0,0,1,0,0,.21.21,0,0,0,0,.06.34.34,0,0,1,0,.08l0,0h.16c.23,0,.24,0,.06.15s-.16.12-.13.17a.26.26,0,0,1,0,.09.93.93,0,0,1,0,.1c.07.12-.07.08-.21,0s-.17,0-.24.06a.51.51,0,0,1-.13.08.15.15,0,0,1,0-.13.11.11,0,0,0,0-.06s0,0,0,0,0-.15-.1-.22,0,0,0,0h0l-.05,0c-.05,0,0-.07.17-.07h.16l0,0s0-.09,0-.14.1-.18.1-.08m2.05,0a.24.24,0,0,1,0,.08s0,0,0,0,0,0,0,0l0,.09,0,.06h.17c.18,0,.24,0,.16.07l-.06,0-.11.07c-.08,0-.08,0,0,.21s.06.2,0,.2a1.42,1.42,0,0,1-.23-.17.1.1,0,0,0-.12,0l-.17.12a0,0,0,0,0,0,0s0,0,0,0,0-.13,0-.17a.11.11,0,0,0,0-.06.19.19,0,0,1,0-.07s0-.06-.17-.17-.13-.11.09-.12h.17l0-.09,0-.1a.52.52,0,0,1,.06-.15l0,0m6.2.15.05.14h.17c.23,0,.24,0,0,.16l0,0-.06,0s0,0,0,.06a.75.75,0,0,1,.08.29s-.1,0-.24-.14-.07,0-.11,0l-.24.16a.45.45,0,0,1,0-.19q.06-.18,0-.18l-.05,0-.12-.08c-.12-.08-.1-.1.1-.11s.21,0,.21-.12,0,0,0,0a.08.08,0,0,0,0,0c0-.19.07-.16.13,0m-4.15-.14a.11.11,0,0,1,0,.06.66.66,0,0,1,0,.11c0,.11,0,.11.21.11s.22,0,.13.09l-.18.13,0,0,.05.16c.07.21.06.22-.12.08s-.14-.1-.21,0-.21.15-.22.14,0-.12,0-.14a.07.07,0,0,0,0,0,.08.08,0,0,1,0,0s0-.1,0-.13l-.1-.07c-.18-.12-.17-.15.05-.15s.17,0,.23-.2.08-.17.09-.08m2.07.05a1.66,1.66,0,0,1,.06.16l0,.07h.17c.22,0,.22,0,.07.14l-.13.09s0,.09,0,.1a.07.07,0,0,1,0,0s0,0,0,0a.08.08,0,0,1,0,0,.07.07,0,0,0,0,0s0,0,0,.06-.11,0-.13-.07,0,0,0,0l-.08-.06s-.07,0-.09,0l-.14.1c-.1.07-.13.08-.13.06a.93.93,0,0,1,.07-.29s0,0,0,0l-.25-.18c-.07,0,0-.07.17-.07H30v0s0,0,0-.06,0,0,0,0a.13.13,0,0,1,0-.06.49.49,0,0,0,0-.07c0-.07,0-.06.08.05m4.12,0c.06.19.05.18.22.18s.25,0,.13.1-.06,0-.06,0l-.07,0c-.06,0-.09.11,0,.13a.11.11,0,0,1,0,.06.08.08,0,0,0,0,.06s0,0,0,0a.08.08,0,0,0,0,.06,0,0,0,1,1,0,0l-.12-.08-.13-.09s0,0-.08,0c-.24.19-.27.19-.2,0s.06-.17,0-.23l-.09-.06a.13.13,0,0,0-.07,0c-.09-.06,0-.08.13-.09s.18,0,.22-.11a.81.81,0,0,1,0-.11l0-.07c0-.07,0,0,.09.11m-9.2.9.06.16h.15c.2,0,.23,0,.16.08l-.13.1c-.06,0-.1.1-.08.16s.09.26.06.26a.59.59,0,0,1-.17-.11c-.1-.09-.17-.08-.33.07s-.09,0-.1,0,0-.07,0-.14,0-.14.06-.17,0-.06-.18-.18-.11-.11.14-.11.15,0,.15,0,0-.05,0-.05a.11.11,0,0,0,0-.06s0,0,0,0a.08.08,0,0,0,0,0s0-.08.05-.08l.06.17m2.05,0,.05.15h.17c.26,0,.25,0-.08.26,0,0,0,0,0,0a.19.19,0,0,1,0,.07.05.05,0,0,0,0,0,.43.43,0,0,1,0,.05.08.08,0,0,0,0,0s0,.1,0,.1l-.15-.09a.15.15,0,0,0-.24,0,.89.89,0,0,1-.18.13s0-.06,0-.21l0-.13,0,0-.06-.06-.09-.06c-.13-.09-.13-.1.1-.11H27l.05-.16c.07-.2.08-.2.14,0m2-.13a.93.93,0,0,1,0,.14c.05.16,0,.15.23.15s.21,0,.05.14-.17.17-.12.21a.08.08,0,0,1,0,0,.43.43,0,0,0,0,.05s0,.15,0,.15l-.15-.09c-.14-.11-.14-.11-.18-.08a1.86,1.86,0,0,1-.25.17s0,0,0,0a.43.43,0,0,0,0,0,.82.82,0,0,1,0-.14l0-.1,0,0a.64.64,0,0,0-.14-.1c-.15-.1-.15-.1.09-.12s.18,0,.22-.13l0-.09a.08.08,0,0,0,0-.05c0-.06,0-.07.06,0m2,0s0,0,0,0a.31.31,0,0,1,0,.12c0,.13,0,.12.22.13s.23,0,0,.19l-.08.06a2,2,0,0,0,.09.25s0,.09,0,.09a.61.61,0,0,1-.14-.1s0,0,0,0h0s-.1-.08-.13,0l-.05,0s0,0,0,0-.16.13-.18.12,0-.13,0-.22,0-.12,0-.16-.06,0-.06,0l-.09-.06c-.12-.08-.1-.1.13-.1h.16l0-.13c.06-.19.11-.27.11-.16m2.06,0,0,.08a.11.11,0,0,1,0,.06s0,0,0,0a.08.08,0,0,1,0,0s0,0,.13,0,.28,0,.21.07l-.07,0a.07.07,0,0,1,0,0s0,0-.11.08,0,0,0,.19,0,.22-.19,0c0,0-.09,0-.11,0l0,0s0,0,0,0l-.05,0L33,71.8l-.06,0s0-.07,0-.09,0,0,0,0a.1.1,0,0,1,0,0,.08.08,0,0,0,0-.05s0,0,0,0,0-.08-.08-.14c-.24-.16-.23-.18,0-.18h.16l0-.11a.7.7,0,0,1,0-.13.14.14,0,0,1,0-.06s0,0,.06,0m-9.18,1,.05.16h.18c.23,0,.23,0,0,.16l-.12.08a1,1,0,0,0,.05.17l0,0a.14.14,0,0,0,0,.06c.07.11-.09.05-.24-.08s-.1,0-.21.07-.14.09-.15.07a.46.46,0,0,1,0-.17c0-.15,0-.17,0-.18l0,0-.1-.08c-.15-.1-.15-.11.06-.11s.19,0,.22-.1a.51.51,0,0,1,0-.1s0,0,0,0,.05-.1.07-.08l.06.16m2-.08a1.28,1.28,0,0,0,0,.13l0,.12h.17c.24,0,.24,0,0,.16s-.11.08-.11.1a1.94,1.94,0,0,0,.06.22c.06.15,0,.14-.18,0l-.05,0s0,0,0,0-.14,0-.16.07l0,0h0s-.1.08-.11.07,0-.08,0-.09a.08.08,0,0,0,0,0s0,0,0-.06.07-.16-.16-.31-.09-.09.11-.09H26l0-.1,0-.11a.43.43,0,0,0,0-.05.33.33,0,0,0,0-.06s.07,0,.07.07m4.13.09.05.15h.18c.21,0,.22,0,.06.12s-.16.11-.11.28.06.24,0,.17l-.12-.08s-.08-.06-.08-.07,0,0-.09,0l-.15.11c-.09.07-.13.06-.11,0a.38.38,0,0,0,0-.1l0-.11c0-.08,0-.07-.15-.2s-.13-.12.07-.12.19,0,.24-.15.07-.23.15,0m2,0c.07.2,0,.19.25.19s.22,0,0,.17-.12.09-.08.12,0,0,0,0,0,0,0,0a.08.08,0,0,1,0,.06.47.47,0,0,0,0,.09c0,.06,0,.08-.07,0s-.23-.17-.26-.15l-.06,0-.08.05c-.14.13-.17.11-.1-.09s.08-.17-.12-.3-.13-.12.08-.12.18,0,.18,0,0,0,0,0a.81.81,0,0,0,0-.15c.05-.15.06-.15.12,0m-4.12,0c0,.08,0,.11.07.2l0,0h.17c.14,0,.17,0,.17,0a.86.86,0,0,1-.2.18.09.09,0,0,0-.06.06,2.13,2.13,0,0,0,.09.27c0,.11-.08.06-.23-.08a.15.15,0,0,0-.2,0s0,0,0,0h0s0,0-.07.05-.08,0,0-.15.06-.17-.08-.27-.19-.15,0-.15.19,0,.24-.18.09-.18.12-.06m6.18.06c.06.19,0,.18.24.18h.17s0,0-.08.09l-.07.05-.06,0s-.07.14,0,.16a.06.06,0,0,1,0,0,.11.11,0,0,0,0,.06c.09.19.06.19-.19,0-.07,0-.11-.06-.16,0a1.07,1.07,0,0,1-.22.14s0-.07,0-.07,0,0,0,0a.51.51,0,0,1,0-.11c0-.12,0-.14,0-.17-.29-.2-.29-.21-.06-.21h.17l0,0,0-.08a.11.11,0,0,0,0-.06s0,0,0,0a.08.08,0,0,0,0,0c0-.11.06-.07.11.09m-9.25.79s0,.1,0,.12a.43.43,0,0,1,0,0l0,.06s0,0,.19,0,.21,0,.06.12-.17.11-.12.26.05.25,0,.19-.29-.2-.29-.14h0l0,0c-.21.17-.25.15-.16-.07s.06-.14-.08-.24-.19-.14,0-.15.19,0,.19,0a.08.08,0,0,1,0-.06.3.3,0,0,0,0-.09c.05-.17.07-.18.12-.06m2-.07a.58.58,0,0,1,.06.16c.06.17,0,.16.25.16s.15,0,.15,0a1.1,1.1,0,0,1-.25.21s0,.06,0,.14,0,0,0,.06a.08.08,0,0,0,0,0s0,.09,0,.11,0,0-.09,0-.19-.15-.34,0l-.14.09s0-.07,0-.09l0,0a.25.25,0,0,1,0-.14c.05,0,0-.11-.09-.18s-.2-.16,0-.16.17,0,.24-.21.05-.14.07-.11m2.11.15.06.17h.17c.22,0,.22,0,.05.14s-.17.15-.12.18a.08.08,0,0,1,0,0s0,0,0,.07.06.12,0,.14-.1,0-.15-.08-.17-.11-.24,0a1,1,0,0,1-.2.13s0-.12,0-.15A.69.69,0,0,0,29,73.2l-.06,0-.12-.09c-.12-.09-.11-.1.08-.1s.21,0,.21-.07a.43.43,0,0,1,0-.05.34.34,0,0,0,.06-.15s0-.07.05-.07l.06.17m2-.14s0,0,0,0,0,.07,0,.14l0,.13h.18c.22,0,.21,0,0,.18-.06,0-.08.07-.08.08s0,.07,0,.11a.43.43,0,0,0,0,.11s0,.11,0,.11a.94.94,0,0,1-.17-.11c-.09-.08-.12-.09-.2,0a.86.86,0,0,1-.21.14s0-.09,0-.11,0,0,0,0l0-.06c0-.07.05-.14,0-.15a1.56,1.56,0,0,1-.26-.21s0,0,.17,0h.18l0-.08,0-.1a.3.3,0,0,0,0-.09c0-.07.06-.09.06,0m2.06,0,0,.07a.14.14,0,0,1,0,.06s0,0,0,0a.08.08,0,0,1,0,.05c0,.06,0,.07.21.07s.2,0,.08.1l-.1.08,0,0c-.05,0-.05.13,0,.23s0,.18-.11.08-.14-.13-.3,0-.2.13-.15,0c.1-.26.1-.26-.07-.38S32.75,73,33,73h.17l0-.15c0-.08.05-.16.05-.17s0,0,.06,0m-7.14.92,0,.09,0,.1,0,0h.16c.23,0,.24,0,0,.17s-.14.12-.09.15,0,0,0,0,0,0,0,0a.08.08,0,0,1,0,0,.2.2,0,0,0,0,0,0,0,0,0,1,0,.08s0,0,0,0l-.24-.16-.14.08c-.18.14-.2.12-.1-.13s0-.11-.08-.2-.21-.16,0-.17H26l.05-.15c.06-.17.08-.21.1-.15l0,.07m2.05,0a1.17,1.17,0,0,0,0,.15l0,.12h.17c.24,0,.24,0,.05.14l-.13.1s0,.06,0,.14.06.25,0,.18-.22-.17-.28-.12-.28.18-.23.07a.62.62,0,0,0,0-.1.43.43,0,0,1,0-.11s0-.06-.13-.16-.13-.1-.13-.13l.18,0H28l0-.11c.07-.22.11-.27.14-.15m6.19.13,0,.14h.18c.22,0,.22,0,.05.14s-.15.12-.13.15,0,.06,0,.1,0,.08,0,.09,0,.14,0,.09l-.06,0-.1-.07c-.1-.07-.07-.07-.23,0s-.19.13-.11-.09,0-.17,0-.2L34,74l-.08-.07c-.09-.06-.06-.07.13-.07h.18v0a.72.72,0,0,0,0-.14c.06-.2.07-.19.15,0m-10.27,0,.05.15h.18c.1,0,.18,0,.17,0v0a.33.33,0,0,1-.12.1c-.15.11-.15.09-.1.24s.06.2,0,.21h0a1.5,1.5,0,0,0-.24-.18l-.16.09q-.21.15-.15,0a2.22,2.22,0,0,0,.09-.28l-.13-.1c-.2-.14-.2-.15,0-.15s.21,0,.21-.09,0,0,0,0a.06.06,0,0,0,0,0,.11.11,0,0,1,0-.06.14.14,0,0,0,0-.06c0-.06,0,0,.1.14m6.1-.16a1.07,1.07,0,0,1,.07.2c0,.12,0,.12.22.12s.23,0,.12.09l-.1.07-.09.07s0,0,0,.1a.68.68,0,0,1,0,.15l0,.08s0,0-.08,0a1.76,1.76,0,0,0-.23-.15.42.42,0,0,0-.13.08c-.16.13-.18.13-.16,0a.13.13,0,0,1,0-.08.11.11,0,0,0,0-.06s0,0,0,0,0-.12,0-.14c-.18-.12-.23-.17-.23-.2h.35l0,0s0-.1,0-.16.05-.13.08-.11m2.09.09s0,.12,0,.16l0,.07h.18c.21,0,.22,0,0,.14s-.19.18-.12.18,0,0,0,0a.53.53,0,0,0,0,.13c0,.13,0,.15-.12,0s-.19-.13-.27,0-.2.14-.2.09.07-.23.09-.29,0,0-.13-.13-.17-.13,0-.14a.4.4,0,0,0,.18,0,1,1,0,0,1,.06-.19s0,0,0,0,0-.08.05-.08,0,0,0,.1m-7.19.93.06.17h.18c.21,0,.22,0,0,.15s-.17.16-.11.19a.07.07,0,0,1,0,0,.43.43,0,0,0,0,.05.3.3,0,0,1,.05.14s-.05,0-.13-.05-.17-.14-.33,0-.18.1-.15,0a2.42,2.42,0,0,1,.08-.25s0-.07-.16-.16-.13-.12.08-.11.17,0,.23-.17.07-.22.14,0m2,0a.5.5,0,0,1,0,.15s0,0,.19.06.22,0,.05.14-.16.12-.13.14a.08.08,0,0,1,0,0s0,0,0,0a.43.43,0,0,1,0,.05.08.08,0,0,0,0,0s0,.1,0,.1a1.53,1.53,0,0,1-.23-.14c-.06,0-.14,0-.28.12s-.12,0-.06-.08a1.29,1.29,0,0,0,.06-.25l-.22-.16c-.09-.06-.05-.08.2-.07s.11,0,.19-.23.06-.14.11,0m4.07-.09a.08.08,0,0,0,0,0,.89.89,0,0,1,.07.2s0,0,.17,0,.24,0,.14.09l-.11.08-.08.06a0,0,0,0,0,0,0,.39.39,0,0,0,.06.15.43.43,0,0,1,0,0s0,0,0,0,0,.09,0,.09a.56.56,0,0,1-.14-.09l-.15-.08a1.25,1.25,0,0,0-.24.16h0s0-.08,0-.12a.43.43,0,0,0,0-.05.08.08,0,0,1,0,0L31,75c0-.06,0-.07-.14-.18s-.15-.12,0-.12.22,0,.22,0a.1.1,0,0,1,0,0,.08.08,0,0,0,0,0,.08.08,0,0,1,0,0s0,0,0,0,.05-.12.07-.11a.06.06,0,0,1,0,0m2.07,0a.08.08,0,0,0,0,.06.08.08,0,0,1,0,0s0,0,0,0,0,0,0,0,0,.06.2.06.2,0,.17,0l-.14.1a.46.46,0,0,0-.13.13.3.3,0,0,1,0,.09.3.3,0,0,0,0,.09c0,.07,0,.13,0,.13h0a1.32,1.32,0,0,0-.25-.16l-.08,0-.11.08s0,0,0,0h0a0,0,0,0,1,0-.07s0,0,0,0a.43.43,0,0,1,0-.05s0,0,0,0S33,75,33,75s0-.07-.13-.16-.18-.14.08-.15h.15l0-.15c0-.08.05-.15.05-.17s.07,0,.07.08m-4.07.07c.05.18.05.17.26.18s.13,0,.13,0a.7.7,0,0,1-.22.17s0,.12,0,.15a.3.3,0,0,1,0,.09s0,.08,0,.1,0,0,0,0a0,0,0,0,1-.07,0,2.09,2.09,0,0,0-.22-.16s-.07,0-.18.1a.42.42,0,0,1-.13.07s0,0,0-.07a.2.2,0,0,0,0,0,.08.08,0,0,1,0-.05.35.35,0,0,0,0-.17l-.14-.11c-.16-.12-.15-.14.07-.14s.19,0,.19-.08a.43.43,0,0,1,0,0,.26.26,0,0,0,0-.09c0-.15.07-.14.13.05m-3.12.77a.31.31,0,0,1,0,.08.08.08,0,0,0,0,0s0,0,0,0,0,0,0,0a.08.08,0,0,1,0,0s0,0,.18,0,.23,0,.07.12l-.12.08-.05,0,.05.14c.08.23.07.23-.12.1l-.14-.1-.13.1-.16.09s0-.09,0-.1l0,0s0-.05,0-.06.05-.14,0-.16a1.39,1.39,0,0,1-.26-.2.44.44,0,0,1,.18,0H26l0-.12a.82.82,0,0,0,0-.14,0,0,0,0,1,0,0s0,0,0,0,0,0,.05,0m2,0a1.44,1.44,0,0,1,.06.17l.05.14h.36a1.71,1.71,0,0,1-.28.22.9.9,0,0,0,0,.12c.09.25.08.27-.06.17L28.19,76l-.05,0-.15.1c-.14.11-.21.12-.15,0a.15.15,0,0,0,0-.06.08.08,0,0,1,0,0s0,0,0-.05,0,0,0,0,0-.09-.11-.19-.17-.12,0-.13H28l0-.17c.06-.18.07-.2.1-.14m2.08.08a.24.24,0,0,0,0,.07s0,0,0,.09l0,.07h.18c.18,0,.22,0,.15.06l-.07,0-.09.07c-.08.06-.1.1-.06.17a.9.9,0,0,1,.06.22s0,0-.12,0L30.24,76l0,0-.12.09c-.12.08-.19.12-.19.09a1,1,0,0,1,.06-.21c0-.11,0-.13-.13-.25s-.06,0-.06,0h0a0,0,0,0,1,0,0s.06,0,.18,0h.18l.05-.15c.07-.21.11-.23.13-.07m2.07.06.06.16h.18c.19,0,.22,0,.13.08l-.09.07-.09.07s-.06.06,0,.09a.26.26,0,0,1,0,.09.66.66,0,0,0,0,.11c.05.11,0,.1-.18,0L32.24,76l-.05,0c-.28.22-.29.22-.21,0l.05-.15,0,0-.14-.1c-.14-.1-.14-.11.09-.11s.18,0,.18,0a1.3,1.3,0,0,1,.05-.14,1.24,1.24,0,0,1,0-.15s0,0,.09.15m2.06,0,.05.15h.18a.83.83,0,0,1,.18,0,.36.36,0,0,1-.11.1l-.05,0-.09.06s0,0,0,0a.34.34,0,0,1,0,.1.3.3,0,0,0,0,.09.23.23,0,0,1,0,.13,1.41,1.41,0,0,1-.26-.16s0,0-.16.06S34,76.22,34,76l0-.15L34,75.79a.53.53,0,0,0-.15-.11c-.1-.07-.08-.08.12-.08s.21,0,.21-.12a.08.08,0,0,1,0,0s0,0,0,0a.13.13,0,0,1,0-.06l0-.06s0,0,.1.16m-10.26,0,.05.16h.17c.25,0,.25,0,0,.16a.37.37,0,0,0-.11.1,1.48,1.48,0,0,0,.09.28c0,.08,0,.07-.14,0a.8.8,0,0,1-.14-.11s0,0,0,0a1.21,1.21,0,0,1-.25.17s0-.1,0-.14a.48.48,0,0,0,0-.18.37.37,0,0,0-.11-.1c-.21-.15-.21-.15,0-.15s.21,0,.21-.08,0,0,0,0a.08.08,0,0,0,0,0s0-.05,0-.05a.07.07,0,0,0,0,0c0-.12.07-.06.12.1" transform="translate(0 0)"/><path id="path2" class="cls-4" d="M35.32,68.52v.62H53.86V67.91H35.32v.61m.06,1.91c-.06,0-.06,0-.06.65v.57H53.86V71c0-.33,0-.61,0-.61s-18.43,0-18.47,0M35.33,73s0,1.15,0,1.18,1.07,0,9.28,0h9.25V72.93H44.6c-8.43,0-9.26,0-9.27,0m0,2.51s0,.29,0,.61v.59H53.86V75.43H44.6c-8.43,0-9.26,0-9.27,0M23,78.56v.61H53.86V77.94H23v.62m0,2.5v.62H53.86V80.44H23v.62m0,2.51v.62H53.86V83H23v.62" transform="translate(0 0)"/><path id="path3" class="cls-5" d="M24,68.32a2.19,2.19,0,0,0-.07.23s.07-.14.07-.17,0-.07.06,0a.88.88,0,0,0,.05.15l0,.08h0l-.05-.16c0-.17-.07-.2-.1-.13m2.05,0c0,.06,0,.09,0,0s0,0,.09.14l0,.12h.34l0,0s0,0-.06,0a.44.44,0,0,0-.17.16s0,0,0,0a.77.77,0,0,1,.15-.13c.16-.11.16-.12-.06-.12h-.16l0-.07s0-.09,0-.1a.51.51,0,0,1,0-.1c0-.07,0-.08-.06,0m2,0c0,.07,0,.12,0,.12l0-.06c0-.08,0-.08.07,0a.4.4,0,0,0,0,.09.08.08,0,0,1,0,0s0,.08.07.07,0,0,0,0-.09-.15-.11-.25,0-.09-.07,0m2.06,0a.21.21,0,0,0,0,.06s0,0,0,0,0,0,0,0,0,0,0,0,0,0-.05,0m2,.1a1.24,1.24,0,0,1,0,.15h0a.08.08,0,0,0,0,0c0-.08.07-.22.09-.18s0,0,0,0a.11.11,0,0,0,0-.09.36.36,0,0,0-.05.13m2.08-.09,0,.05a.37.37,0,0,1,0,.09s0,.05,0,0a.38.38,0,0,0,.05-.16s0,0,0,0,0,.06,0,.06,0,0,0,0a.11.11,0,0,1,0-.06s0-.06-.06,0m-4.05,0a.11.11,0,0,0,0,.05l0,0v0a.08.08,0,0,0,0-.05s0,0,0,0m2.07.06s0,0,0,0,0,0,0,0a.11.11,0,0,0,0,0s0,0,0,0m-6.26,0a.43.43,0,0,0,0,0s0,0,0,0a.07.07,0,0,0,0,0s0,0,0,0m4.09,0a.41.41,0,0,1,0,.07.21.21,0,0,0,0,.06s0,0-.16,0h.17l0-.09c0-.06,0-.1,0-.11l0,0m.14,0c0,.1.05.14.07.14s0,0,0,0l0-.09s0-.07,0-.07a.1.1,0,0,0,0,0m4.09,0a.08.08,0,0,0,0,0s0,0,0-.06,0,0,0,0m-6.3.06,0,.07h0l0-.06s0-.07,0-.08,0,0,0,.06m4.27,0,0,.06v.05h0v0s0-.08,0,0m-6.33,0,0,.06h-.13c.14,0,.19,0,.16-.1s0,0,0,0m8.2,0s0,0,0,0,0,0,0,0,.08-.07.05-.09a0,0,0,0,0,0,0m.2,0s0,0,.18.05h0c-.14,0-.17,0-.18,0s0,0,0,0m-10.47,0s0,0-.15,0-.22,0-.18,0a1.73,1.73,0,0,0,.25.16l-.11-.08c-.16-.11-.16-.12,0-.12s.2,0,.17,0,0,0,0,0m8,0c-.22,0-.22,0-.07.11a.75.75,0,0,1,.15.13l0,0v0s0-.06-.13-.13l-.13-.09h.17l.18,0s0,0,0,0l-.17,0m-3.57,0h.13s0,0-.07,0-.1,0-.06,0m2.13,0h.13l-.06,0a.11.11,0,0,0-.06.06l.06,0c.09-.06.08-.08-.07-.08h0m3.32,0s0,0,0,.06.07,0,.07,0a.17.17,0,0,0-.06,0l-.06,0h0m-9.47.1c-.17.12-.16.11-.11.25s.05.19-.09.09-.13-.11-.29,0-.12.09-.12.06,0,0,0,0a.48.48,0,0,0,.05-.13c0-.06,0-.11,0-.1a2.46,2.46,0,0,0-.09.29s0,0,.14-.06L24,69l.14.09c.17.12.18.1.1-.11s0-.15.07-.23a.49.49,0,0,0,.11-.08s0,0,0,0a0,0,0,0,0,0,0s0,0-.14.08m1.26-.09s.06.06.13.11.13.09.08.26-.07.21.11.08.13-.11.29,0,.2.1.13,0,0,0,0,0,0,0-.13-.06l-.14-.1,0,0c-.25.18-.26.18-.18,0s.05-.13-.09-.23l-.13-.09h0m2,0,.13.1c.15.1.15.09.08.28l0,.15s.06,0,.16-.08a.56.56,0,0,1,.14-.09.55.55,0,0,1,.15.09.56.56,0,0,0,.14.09s0,0,0,0l-.12-.08c-.13-.1-.15-.1-.28,0s-.15.12-.08-.07,0-.14,0-.16a1.26,1.26,0,0,0-.28-.19m.79.08c-.13.11-.15.13-.12.18s0,0,0,0,0-.06.08-.11.2-.15.18-.15l-.15.1m1.25-.09.14.1c.15.1.15.11.11.22s0,.07,0,.08a0,0,0,0,0,0,0,.33.33,0,0,0,0-.06c0-.09,0-.11-.12-.22s-.16-.11-.16-.09m2.9.06-.08.07.19-.12s0,0-.11,0m2.11,0-.14.1c-.1.08-.12.12-.06.23s0,.19,0,.15,0,0,0,0,.08.07.09,0a1,1,0,0,0,0-.16.4.4,0,0,1,0-.17,1.06,1.06,0,0,1,.24-.18s0,0,0,0l0,0m-4.29.14a.18.18,0,0,0,0,.07c0,.09,0,.11,0,.1a.21.21,0,0,0,0-.06c0-.05,0-.06.05-.11s.05-.05,0-.05l-.07.05m3.6,0,.07,0L34,69c-.08.25-.08.25.09.12s.15-.11.24,0l0,0,0,0c-.08-.07-.1-.06-.24,0S34,69.16,34,69s.05-.16,0-.21l-.07,0,.06.06m-1.56,0s0,0,0,.18a1.11,1.11,0,0,0,0,.13s0,0,0,0,0-.06,0-.14l-.05-.13,0,0s0,0,0,0m-.45.13a.11.11,0,0,0,0,0s0,0,0,0a.1.1,0,0,0,0,0s0,0,0,0m-3.66,0a.43.43,0,0,1,0,0s0,0,0,0a.08.08,0,0,0,0,0s0,0,0,0m3.79.07-.12.1c-.05,0-.06,0,0-.05S32,69,32,69a1.07,1.07,0,0,0-.06.17s.05,0,.16-.08.14-.11.29,0,.13.09.14.07,0,0,0,0a.24.24,0,0,1-.11-.06c-.17-.12-.16-.12-.26-.06m-5.83,0a.17.17,0,0,0,0,0s0,0,0,0a.07.07,0,0,0,0,0s0,0,0,0m3.79,0-.06,0a.42.42,0,0,1-.12.08s0,0,0,0,0,0,0,0,0,.11,0,.11l.19-.13c.08-.07.1-.07.2,0s.08,0,.08,0a.52.52,0,0,0-.19-.12l-.08,0m.32,0a.41.41,0,0,0,0,.07c0,.06,0,.09,0,.06s0,0,0,0,.08.07.1,0a.65.65,0,0,0,0-.1s0-.09,0-.07m-2,0a.17.17,0,0,0,0,0s0,0,0,0a.07.07,0,0,0,0,0s0,0,0,0M25,69.17a1.26,1.26,0,0,0-.09.31s0,0,0,0a.07.07,0,0,1,0,0s0,0,0-.06a.34.34,0,0,1,0-.12c0-.07,0-.12,0-.06m2,.08a.63.63,0,0,0,0,.12s0,0,0-.09,0-.09.05-.06,0,0,0,0-.05-.07-.08,0m2.09-.08s0,0,0,0h0s0,0,0,0a.08.08,0,0,0,0,0s0,0,0,0,0-.09-.05-.08m2,0a.18.18,0,0,0,0,0s0,0,0-.06,0,0,.06.12a.36.36,0,0,0,.05.14s0-.1,0-.12,0,0,0-.08-.05-.1-.07,0m4.18,0a2.62,2.62,0,0,0,0,.63v.61h0V69.18h0m-2.14.07s0,.06,0,.06,0,0,0,0,0-.07,0,0a.11.11,0,0,0,0,.05l0,.06a.43.43,0,0,0,0,.05s0,0,0,0,.05.06.2.06.17,0,0,.11-.14.13-.1.19,0,0,0,0,0-.06.11-.14.19-.14,0-.14-.2,0-.25-.17-.08-.18-.11-.08m-8.15,0s0,.08,0,0,0,0,0,0,0,0,0,0m4,.13,0,.13h-.18c-.2,0-.21,0,0,.13a.58.58,0,0,1,.13.11,1,1,0,0,1-.07.24s0,.1,0,.1a2.07,2.07,0,0,0,.25-.19s0,0,.16.09.18.13.13,0-.07-.23.15-.37c.07,0,.07-.07,0-.07s0,0,0,0,0,0-.09.12-.13.09-.1.19.08.25-.09.11-.12-.08-.16,0a.76.76,0,0,1-.22.15.51.51,0,0,1,0-.14c.05-.16.05-.17,0-.22l-.07,0a.13.13,0,0,0-.07,0c-.08,0-.06-.06.1-.06H29a.8.8,0,0,0,.09-.26s0,0-.05.12m-1.94-.08a.08.08,0,0,0,0,0s0,0,0,0a.11.11,0,0,0,0,0s0,0,0,0m-2,0,0,.09,0,.08h0l0-.08c0-.07-.05-.12,0-.08m4.1,0a.11.11,0,0,0,0,.06s0,0,0-.06l0,0v0m4,0s0,0,0,0l0,0v0s0,0,0,0m-6,0a.08.08,0,0,0,0,0s0,0,0,0a.17.17,0,0,0,0,0s0,0,0,0m3.94,0,0,.06H30.7l.08.07.14.11c.08,0,.08,0,0,.22s-.06.2.1.08.13-.13.32,0,.14.09.11,0l0-.08s0,0,0,0a.17.17,0,0,0,0,.08s0,.06,0,.06a.24.24,0,0,1-.1-.06s0,0,0,0h0s0,0-.07-.05-.08,0-.13,0a.92.92,0,0,1-.2.14s0,0,0,0a2,2,0,0,0,.08-.27s0,0-.08-.08l-.11-.09,0,0s0,0,0,0a.32.32,0,0,1,.15,0c.17,0,.23,0,.2-.11s0,0,0,0m-4.11,0,0,0h-.17c-.21,0-.21,0,0,.12a.49.49,0,0,1,.13.14s0,0,0,0,0-.06-.12-.14l-.1-.08,0,0h.16c.16,0,.22,0,.2-.09s0,0,0,0m2.24,0s0,.06.16.06h0c-.09,0-.12,0-.14,0s0,0,0,0m3.91,0s0,0-.19,0-.18,0-.16,0,0,0,0,0h0s0,0,.07.06.13.1.11.17,0,0,0,0,0-.13,0-.19a.37.37,0,0,1-.11-.09l0,0s0,0,0,0,.06,0,.15,0,.2,0,.19-.07,0,0,0,0m-5.94,0s0,0,.2,0h.15l-.05,0-.13.1c-.09.06-.11.11-.08.13a.08.08,0,0,1,0,.06.11.11,0,0,0,0,.06s0,0,0,0,0,0,0,0a.05.05,0,0,1,0,0s0,0-.06,0l0,0,0,0c.08.08.09.06,0-.09s-.09-.19.08-.31.17-.12,0-.12a.44.44,0,0,1-.18,0s0,0,0,0m4.11,0h.17c.15,0,.18,0,.11,0l0,0-.09.07c-.05,0-.07.06-.07.09s0,0,0,0a.19.19,0,0,1,.06-.07l.13-.09c.12-.09.12-.09-.1-.1H31.3m-6.74,0a.58.58,0,0,0,.13.11c.14.1.14.1.13.16s0,0,0,0-.07-.23-.21-.28,0,0,.13,0h0a.58.58,0,0,0-.18,0m.89,0s0,0-.07.08l-.1.07,0,0a0,0,0,0,0,0,0,1.22,1.22,0,0,0,.28-.2s0,0,0,0,0,0,0,0m-.22.26s0,0,0,0,0,0,0,0,0,0,0,0m6.16,0a.17.17,0,0,0,0,0s0,0,0,0a.07.07,0,0,0,0,0s0,0,0,0m-4.54,0v0l0,0a0,0,0,0,0,0,0l0,0m-2.08.09c-.05.14,0,.17.05.1l.13-.1.09-.06.12.09c.18.14.2.14.13,0s0,0,0,0,0,.07-.05,0l-.13-.09L25,69.84,25,69.9c-.05,0-.1.07-.14.09s-.07.06,0,0,0-.08,0-.09a.25.25,0,0,0,0,.07m2.18,0c-.08.06-.13.08-.14.07s0,0,0,0,0,0,.21-.09.1-.06.15,0,.1.07.09,0a.72.72,0,0,0-.15-.11l-.14.09m6.24-.07-.08.06C33,70,33,70,33,70s0,0,0,0,0,.07.18-.06.11-.08.12-.07l.14.1.14.09s0-.09,0-.11,0,0,0,0,0,0,0,0l-.18-.13a.08.08,0,0,0-.12,0m-.2,0a.43.43,0,0,0,0,0s0,0,0,0a.07.07,0,0,0,0-.05s0,0,0,0m-6.17.06s0,0,0,0l0,0v0s0,0,0,0M24,70.07c0,.06,0,.14,0,.13a.08.08,0,0,0,0,0c0-.05.05-.12.05-.07a1.17,1.17,0,0,0,0,.16l.05.13h.34l-.06,0-.08.06-.07.05c-.06,0-.07,0,0,.19s0,.2-.14,0-.07-.07-.27.08-.1.06-.05-.09a.4.4,0,0,0,0-.13,1,1,0,0,0-.09.28s0,0,.14-.07.15-.11.3,0,.17.1.11-.06-.07-.19.08-.3.16-.12-.06-.13h-.16l-.05-.15c0-.08,0-.16-.06-.17s0,0,0,0m2.05,0,0,.07s0,0,0,0a.08.08,0,0,0,0-.06c0-.06,0,0,.07.13l.05.15h.34l-.13.09-.12.1s.06,0,.14-.08.16-.13,0-.13h-.17l0-.12c-.06-.22-.08-.26-.1-.2m6.16,0,0,.13c-.07.22,0,.19-.24.2s-.2,0-.1.08l.13.1.07.06-.06.15c-.06.21-.06.22,0,.13l.19-.14a.44.44,0,0,1,.15.09c.17.12.18.11.12-.07s-.07-.17.08-.27.13-.1.12-.11a1,1,0,0,0-.35,0h.16c.18,0,.2,0,.11.07l-.08,0-.06,0c-.06,0-.06,0,0,.22s.07.17-.1,0-.13-.11-.3,0-.12.08-.07-.08.07-.16-.08-.27l-.14-.1h.17c.18,0,.21,0,.21-.12s0,0,0,0a.25.25,0,0,0,0-.1l0-.08,0,0s0,0,0,0,0-.11,0-.08m-2.06,0,0,.06s0,0,0,0,0-.05,0-.05h0s0,0-.05,0m-2.06,0a0,0,0,0,0,0,0s0,0,.06.12.05.16.24.17h.16l-.13.1c-.14.1-.15.11-.12.17a.19.19,0,0,1,0,.07s0,0,0,0,0,0,0-.07,0-.08.12-.19.15-.12-.05-.12-.18,0-.25-.23c0-.07-.08-.11-.08-.06m6.16,0-.05.13c0,.16,0,.16-.23.16s-.2,0,0,.12.13.11.12.16,0,0,0,0,0-.09-.1-.17-.15-.12,0-.12.17,0,.22-.16.07-.16.09-.08,0,0,0,0a.21.21,0,0,0,0-.06c0-.06-.06-.08-.07,0m-4.05,0a1.44,1.44,0,0,0,.08.25s0,0,.18,0h.17l-.1.07c-.12.08-.17.13-.17.16s0,0,0,0a.67.67,0,0,1,.14-.11c.14-.1.14-.11-.06-.12s-.17,0-.22-.19-.05-.11,0-.08m-2.13,0a.43.43,0,0,0,0,.05s0,0,0,0,0-.07,0-.05m4.2,0s0,0,0,0,0,0,0,0a.11.11,0,0,0,0,0s0,0,0,0M26,70.2a0,0,0,0,0,0,0l0,0v0s0,0,0,0m4.11,0,0,.1,0,.07h-.16c-.16,0-.22,0-.17.06a.72.72,0,0,1,.14.09l.11.08,0,.1s0,.09,0,.1a0,0,0,0,0,0,0l0-.08c0-.08,0-.12,0-.13l-.22-.16a.35.35,0,0,1,.16,0h.16l0-.07c0-.1,0-.14,0-.14v0m-6.19.1,0,.07h-.17c-.19,0-.2,0-.13.06s.22.17.22.15l-.08-.07-.13-.09,0,0h.33l0-.06a.45.45,0,0,0,0-.08s0,0,0,.05m8.38,0a.43.43,0,0,1,0,0s0,0,0,0a.08.08,0,0,0,0,0s0,0,0,0m-6.34,0,0,.05h-.16c-.2,0-.2,0,0,.13s.14.1.08.26-.06.21.11.08.13-.11.3,0,.18.09.12,0,0,0,0,0v0l-.08-.06-.14-.1c-.06-.05-.05-.05-.19,0s-.16.12-.09-.08,0-.14-.1-.24l-.12-.1h.32l0,0a.08.08,0,0,0,0,0s0,0,0,0m2.05,0s0,0-.18,0-.2,0-.12.07l.13.1s.07.06.07.08,0,0,0,0,0-.06-.17-.17l-.09-.07h.17c.16,0,.22,0,.18-.07a0,0,0,0,0,0,0m6.36,0s0,0,.19,0,.18,0,0,.11-.14.08-.07.33c0,0,0,0,0,0a.63.63,0,0,0,0-.12c0-.14,0-.13.1-.22s.16-.12,0-.13-.16,0-.18,0,0,0,0,0m-8.1.32s0,.08,0,0a.08.08,0,0,0,0,0h0m1.59.14a.87.87,0,0,0,0,.14.47.47,0,0,0,.18-.12l-.08,0c-.08.06-.09,0-.05-.07a.49.49,0,0,0,0-.12l0,.12M34,70.72a.06.06,0,0,0,0,0s0,0,0,0,0-.06,0,0m-3.91,0-.12.09c-.1.08-.11.08-.1,0s0,0,0,0,0,.12.12,0,.16-.11.26,0,.08.05.08,0,0,0-.05,0l-.08-.06s0,0-.1,0m-3.83,0,0,0s0,0,0,0a.07.07,0,0,0,0,0s0,0,0,0m1.75,0,0,0s0,0,0,0,.09,0,.21.07.16.1.13,0l0,0s0,0,0,0,0,.05,0,.05a1.28,1.28,0,0,1-.21-.14s-.09,0-.13,0m2.36,0a.24.24,0,0,1,0,.08s0,0,0,0l0,0,0,0c.08.07.09,0,0-.09s0-.06,0,0m3.79,0-.11.08c-.08.06-.09.06-.07,0s0,0,0,0,0,.12,0,.12l.14-.09a.43.43,0,0,1,.15-.09.56.56,0,0,1,.14.09c.15.11.18.11.14,0s0,0,0,0,0,0-.13-.06-.15-.09-.22,0m-7.09.15a.33.33,0,0,1,0,.06.54.54,0,0,1,0,.1l0,.09s0,0,0,0a.62.62,0,0,0,.05-.14c0-.07.05-.11.05-.09a.08.08,0,0,0,0,.05s0,0,0-.09,0,0,0,0M25,71A.21.21,0,0,0,25,71s0,0,0,0,0,0,0,0,0,0,0,0,0,0,0,0m4.08,0c-.05.15-.05.15,0,.14s0,0,0,0a.08.08,0,0,1,0,0,.2.2,0,0,0,0-.05c0-.06,0,0,.06.05s0,0,0,0a.28.28,0,0,0-.06-.15s0,0,0,.08m2.05,0,0,.09s0,0,0,0,0-.11.07,0,0,.09,0,.09a.86.86,0,0,0-.07-.21s0,0,0,.08m2.06,0s0,0,0,.05,0,0,0,0,0,0,0,0,0,0,0,0m-8.15,0a.08.08,0,0,0,0,0s0,0,0,0l0,0s0,0,0,0m8.22,0a.43.43,0,0,0,0,0s0,0,0,0l0,.06a.11.11,0,0,0,0,0s0,0,.16,0,.19,0,.12.06l-.09.07a.25.25,0,0,0-.08.07s0,0,.17-.12.11-.09-.09-.09h-.17l0-.08c0-.12-.06-.18-.06-.14m-8.3,0,0,.1,0,.07h-.17c-.22,0-.22,0,0,.16s.09,0,0,0-.13-.1.05-.1.16,0,.17,0a.58.58,0,0,0,.06-.19v0m2.15,0a.17.17,0,0,0,0,.05s0,0,0,0a.08.08,0,0,0,0-.05s0,0,0,0m6.05,0a.11.11,0,0,1,0,0s0,0,0,0a0,0,0,0,0,0-.05s0,0,0,0m-8.07.07c0,.12,0,.13.21.13s.19,0,0,.14-.11.12-.06.21,0,0,0-.1,0-.05.11-.12.19-.14,0-.14h-.18l0-.06c0-.1-.05-.12,0-.06m4.09,0,0,0s0,0,0,0a.08.08,0,0,0,0,0s0,0,0,0m1.9,0s0,0,0,0,0,0,0,0,0,0,0,0l0,0m-3.93,0a.18.18,0,0,0,0,.06l0,.05h.16c.21,0,.21,0,0,.13s-.11.1-.07.19,0,0,0,.06,0,0,0,0a.17.17,0,0,0,0-.08c0-.1,0-.12.06-.18s.22-.16,0-.16h-.17l0-.06a.11.11,0,0,0,0,0m4.1,0c0,.08,0,.09.2.09s.19,0,0,.13-.11.09-.11.12,0,0,0,0,0-.07.14-.14.16-.12,0-.12h-.17l0-.06s0,0,0,0m-2.24,0s0,0-.19,0-.21,0-.1.09l.09.06s0,0,.06,0,.05,0,0,.08,0,0,0,0,0-.11,0-.11a1.39,1.39,0,0,1-.19-.15.35.35,0,0,1,.16,0c.16,0,.2,0,.18-.07s0,0,0,0m4.11,0a.1.1,0,0,0,0,0s0,0-.18,0a.58.58,0,0,0-.18,0,.78.78,0,0,0,.22.17c.05,0,.05.07,0,.18s0,.08,0,.09,0-.06.07-.19,0-.05-.13-.14l-.13-.1H33c.17,0,.17,0,.19,0s0-.06,0,0m-3.9,0s0,0,.19,0,.18,0,0,.11-.15.1-.09.26.06.18,0,.14l-.14-.1-.09-.07-.05,0-.13.09q-.12.1-.06-.06s0-.09,0-.09,0,0,0,.07-.05.17,0,.17a1.59,1.59,0,0,0,.24-.17s0-.05.25.12.1,0,0-.13-.05-.16.05-.24.22-.15,0-.15-.17,0-.19,0,0,0,0,0m-2.27,0s0,0-.18,0-.21,0,0,.13.15.1.12.17a.23.23,0,0,0,0,.07s0,0,0-.06,0-.09-.16-.22l-.09-.07h.16c.15,0,.21,0,.18,0s0,0,0,0m4.11,0s-.06,0-.18,0-.22,0,0,.13a.67.67,0,0,1,.14.12s0,0,0,0a.15.15,0,0,0-.06-.07l-.07-.05-.06,0c-.08-.06-.06-.07.1-.07s.2,0,.17,0,0,0,0,0m-6.29.4c-.06.21,0,.21.11.09l.14-.1.07,0,.14.1c.07,0,.11,0,.08,0s0,0,0,0,0,0-.14-.06-.16-.1-.2,0l-.07,0-.08.06c-.06.06-.06,0,0-.13a.54.54,0,0,0,0-.15.49.49,0,0,0-.06.15m8.65-.1a.11.11,0,0,0,0,.06s0,0,0,0a.13.13,0,0,0,0-.06s0,0,0,0m-2.47,0,0,.14c-.05.15,0,.16.13,0l.13-.1.09.06c.21.16.21.16.21.12a.83.83,0,0,0-.08-.24s0,0,0,.09,0,.15,0,.12a.58.58,0,0,0-.13-.1l-.1-.07-.07.05c-.21.16-.21.16-.2.12a.93.93,0,0,0,.07-.24s0,0,0,0m-3.92.09-.14.1c-.1.07-.1.07-.09,0s0,0,0,0,0,.08.14,0l.14-.1.07,0,.13.1c.06,0,.08,0,.09,0s0,0,0,0a.43.43,0,0,1-.15-.09l-.13-.08,0,0m6.13,0,0,0,.06,0s.05,0,.2.08l.12.08s0-.08,0-.09,0,0,0,0v0l-.06,0c-.22-.16-.22-.16-.29-.11m.29,0s0,.08,0,.05a0,0,0,0,0,0-.05h0m-8.19,0a.07.07,0,0,0,0,0s0,0,0,0a.17.17,0,0,0,0,0s0,0,0,0m1.55,0v0s0,0,0,0a0,0,0,0,0,0,0l0,0m8.48,0s0,.29,0,.62a2.51,2.51,0,0,0,0,.6,6.12,6.12,0,0,0,0-.62v-.59h0m-8,0a.07.07,0,0,0,0,.05s0,0,0-.05,0,0,0,0m5.7,0-.06.05v0s0,0,0,0,0,.07.09,0,.08-.07.07-.07l-.07,0m-9,.08A1.13,1.13,0,0,0,24,72c0,.15,0,.13-.24.14h-.13s0,0,0,.07a.13.13,0,0,1,.07,0,.63.63,0,0,0,.14.09l-.12-.1-.12-.09h.15c.18,0,.18,0,.23-.18s.08-.19.08-.13a1.5,1.5,0,0,0,.08.27s0,0,.17,0,.18,0,.08.08l-.12.09-.05,0,0,.09a.32.32,0,0,0,0,.11c.05.11,0,.12-.11,0s-.17-.11-.36.06-.07,0,0-.07l0-.08s0,0,0,0a.31.31,0,0,1,0,.08c-.05.14,0,.14.13,0l.13-.1,0,0,.09,0a.92.92,0,0,0,.16.12s0,0,0-.17-.05-.18.07-.26.16-.13.14-.14-.07,0-.15,0h-.17a.49.49,0,0,1-.07-.16c-.06-.19-.06-.18-.09-.13m2,0c0,.06,0,.08,0,0l0,0,0,0s0,.1.05.16l0,.12h.34l-.09.06-.14.1,0,0,.05.15c.06.19.06.19-.05.1s-.18-.15-.41,0c0,0-.07,0-.05,0l0,0a.82.82,0,0,1,0-.14l0-.11-.07,0-.14-.1-.05,0h.15a.54.54,0,0,0,.17,0h-.16c-.22,0-.22,0-.06.13s.15.1.09.28-.05.19.1.07.14-.12.3,0,.17.11.1-.09-.07-.15.11-.27.13-.12-.07-.12-.17,0-.21-.14-.08-.22-.11-.14m4.11,0s0,.09,0,0,0-.05.07.11,0,.16.22.17h.16l-.12.1c-.08,0-.13.1-.13.12s0,0,0,0a.65.65,0,0,1,.14-.12c.16-.12.16-.13,0-.13s-.17,0-.23-.17-.06-.18-.09-.12m2.06,0a1.51,1.51,0,0,0-.06.15c-.05.15,0,.15-.22.15s-.2,0,0,.13a.58.58,0,0,1,.13.11s0,.08-.05.16-.06.2.08.1l.14-.1s0,0,.15.06l.12.07s0,0-.08-.07-.15-.11-.21-.07c-.25.19-.23.19-.16-.05s0-.13,0-.14l-.13-.09-.1-.08H32c.18,0,.17,0,.24-.22l0-.12,0,0s0,0,0,0,0-.1-.06-.05m-4.11,0s0,0,0,0,0,0,0,.07c.06.24.06.23.25.23s.17,0,0,.11-.15.11-.12.16,0,0,0,0,0-.07.16-.17.12-.12-.1-.11-.15,0-.2-.18-.09-.19-.09-.12m6.11.12c0,.19,0,.18-.22.17s-.16,0-.17,0,0,0,0,0a.35.35,0,0,1,.16,0c.17,0,.16,0,.22-.18s0-.12,0-.12,0,0,0,0,0,0-.09.12m-6.14,0s0,0,0,0,0,0,0,0v0l0,0m6.24,0a.07.07,0,0,0,0,.05s0,0,0,0a.17.17,0,0,0,0-.05s0,0,0,0m-4.2.07s0,0,0,0,0,0,0,0a.1.1,0,0,0,0,0s0,0,0,0m2.16,0s0,0,0,0,0,0,0,0a.11.11,0,0,0,0,0s0,0,0,0M28.06,72s0,0,0,0a0,0,0,0,0,0,0,.1.1,0,0,0,0,0s0,0,0,0m6.3,0a.19.19,0,0,0,0,.09l0,0h.33l0,0,0,0,0,0c.09-.05,0-.07-.14-.06s-.16,0-.2-.1,0,0,0,0m-4.26.06c0,.07,0,.07-.2.07s-.2,0-.16,0,0,0,0,0,0,0,.16,0,.22,0,.2-.12,0,0,0,0m2.23,0c0,.09,0,.09.2.09s.15,0,.15,0,0,0,0,0,0,0-.13,0-.22,0-.22,0a.11.11,0,0,0,0,0s0,0,0,0M28,72.1a.26.26,0,0,1-.15,0c-.23,0-.24,0-.06.14s.14.09.08.28-.05.2.07.1.19-.14.22-.11a1.64,1.64,0,0,0,.24.16s0,0,0,0,0-.1,0,0v.07l-.08-.06-.12-.09c-.06,0-.07,0-.21,0s-.15.1-.12,0a.51.51,0,0,0,0-.1.25.25,0,0,1,0-.1s0-.06-.13-.15l-.13-.09h.16c.11,0,.16,0,.17,0s0-.05,0,0m1.76.09.11.08c.11.08.11.07.06.23s-.06.21,0,.18l.14-.1.12-.08.14.1c.17.12.17.12.11-.06a.36.36,0,0,0-.05-.12.45.45,0,0,0,0,.11c.05.14,0,.14-.1,0s-.14-.1-.2,0-.21.15-.21.13a.81.81,0,0,1,0-.14c.05-.16.05-.17-.06-.24s-.14-.1-.13-.08m2.76.06c-.12.09-.12.1-.06.28s0,.13,0,.13,0,0,0,0,0,0,0-.15-.07-.18,0-.26.12-.08.11-.09l-.12.07m1.35-.06.1.08c.1.07.11.08.1.12s0,0,0,0a.08.08,0,0,0,0-.07.94.94,0,0,0-.21-.15m.68.08s-.08.07-.08.09a1.12,1.12,0,0,0,.06.23s0,.07,0,.07h0s0,0-.08-.07l-.11-.07s-.07,0-.11,0l-.12.09-.08.06v-.06c0-.08,0,0,0,0s0,.07.14,0,.13-.12.28,0,.19.14.12-.06-.06-.18,0-.24.09-.06.08-.07,0,0-.09,0m-10.75.13a.1.1,0,0,0,0,0s0,0,0,0,0-.06,0,0m4.54.07a.17.17,0,0,0,0,0s0,0,0,0a.07.07,0,0,0,0,0s0,0,0,0m5.7,0a.06.06,0,0,0,0,0s0,0,0,0,0,0,0,0,0,0,0,0m-2.85.14a1.47,1.47,0,0,1-.05.17L31.1,73h-.17c-.22,0-.22,0,0,.15a.44.44,0,0,1,.12.11s0,0,0,0,0-.06-.12-.12S30.76,73,31,73s.16,0,.21-.15a.84.84,0,0,0,0-.12l0-.06,0,.07c0,.1.05.16.07.21l0,0h.16c.21,0,.21,0,0,.15,0,0-.07.06-.07.08a1.86,1.86,0,0,0,.08.26l0,0s-.07,0-.09,0a1.07,1.07,0,0,0-.19-.13s0,0,0,0l.13.09c.12.09.13.07.07-.1s-.06-.16.06-.25.22-.15,0-.16h-.16l0-.11a.39.39,0,0,0,0-.13.14.14,0,0,1,0-.06s0,0,0,0M25,72.7a.1.1,0,0,0,0,.07s0,0,0,0,0,0,0,0,0,0,0,0,0,0,0,0m2.06,0s0,.08-.05.16L27,73h-.16c-.23,0-.23,0,0,.17a.24.24,0,0,1,.08.1v0s0,0-.11-.13-.17-.12,0-.12H27l0,0,0-.09a.93.93,0,0,1,0-.1c0-.06,0-.07,0,0s0,0,0,0,0-.09,0-.07m2.06,0a.58.58,0,0,0-.06.16l-.05.15h-.17c-.13,0-.18,0-.17,0a.94.94,0,0,0,.27.21.94.94,0,0,0-.12-.1c-.16-.11-.16-.11,0-.11h.16l.05-.14c.05-.17.07-.17.1,0s0,.09,0,.08-.07-.23-.09-.22m4.09,0a.08.08,0,0,0,0,0,.05.05,0,0,1,0,0s0,0,0,.05a.66.66,0,0,1,0,.11l0,.08h.15c.19,0,.2,0,.08.1s-.16.11-.14.11a1,1,0,0,0,.26-.21s0,0-.17,0-.18,0-.18,0a.94.94,0,0,0-.1-.28h0m-8.16.06s0,.07,0,.14l0,.12h.34l0,0,0,0,.06,0c.08-.06.06-.07-.13-.07h-.17l-.05-.13c0-.14-.06-.17-.05-.12m8.14,0a.13.13,0,0,0,0,.05s0,0,0,0,0-.05,0-.06a.1.1,0,0,0,0,0m-6.08,0a.08.08,0,0,0,0,0s0,0,0,0a.17.17,0,0,0,0,0s0,0,0,0m-2.15,0s0,0,0,.09L25,73h-.18c-.22,0-.22,0,0,.14s.13.08.1.2a.65.65,0,0,0,0,.1s0,0,0,0l0-.11s0,0-.08-.12-.19-.13,0-.14H25l0-.09c0-.07,0-.13,0-.08m8.19,0s0,0,0,0l0,0s0,0,0,0,0,0,0,0m-6,0a.28.28,0,0,0,0,.08l0,.06h.16c.14,0,.17,0,.17,0s0,0,0,0,0,0-.17,0h-.17v-.06s0-.09,0-.06m2.07.08s0,.06.19.06.18,0,0,.11-.14.09-.09.26.06.19,0,.16a1.23,1.23,0,0,0-.25-.17.43.43,0,0,0-.15.09c-.13.09-.14.09-.1,0a.14.14,0,0,0,0-.07s0,0,0,0,0,0,0,.07,0,.11,0,.11a.5.5,0,0,0,.12-.08h0l.07,0c.07-.06.11,0,.24.07s.14.08.11,0-.09-.24,0-.27l.06-.05.1-.07c.1-.07.09-.09-.11-.09s-.17,0-.18,0,0,0,0,0m3.9,0s0,0-.18,0-.22,0-.09.1l.14.1,0,0,0,.16c-.06.19,0,.22.08.11s.17-.13.31,0l.14.09s0-.09,0-.1,0,0,0,0v0l-.13-.09a.43.43,0,0,0-.15-.09,1.23,1.23,0,0,0-.25.17s0,0,0-.17.05-.14-.1-.26-.14-.1,0-.1.21,0,.19-.07,0,0,0,0m6.82,0h0m-12.58.2c-.1.07-.13.13-.08.16s0,0,0,0,0,0,.1-.12l.11-.09s0,0-.13.08m-2.07,0c-.07,0-.08.07-.07.1a1.27,1.27,0,0,0,.06.18s0-.06,0-.11l0-.1,0,0,.08-.06s.05,0,.05,0,0,0-.1.06m3.63.1c0,.05,0,.07,0,.05a.08.08,0,0,0,0-.05s0,0,0,0m4.5,0s0,0,0,0,0,0,0-.06,0,0,0,0M31,73.38c0,.14,0,.16,0,.16a1.26,1.26,0,0,0,.25-.19,1.58,1.58,0,0,0-.18.13s-.09,0-.09,0l0,0a.52.52,0,0,0,.06-.21l0,.11m-4.1,0a.2.2,0,0,0,0,.09.48.48,0,0,0,0-.08l0-.09s0,0,0,.08m.46-.05a.49.49,0,0,0,0,.1c.05.12,0,.12-.1,0s-.18-.11-.22-.06l0,0,0,0c.05,0,.07,0,.18,0l.11.07a0,0,0,0,1,0,0s0,0,0,0,0,0,0-.12-.05-.13-.05-.09m6.16,0s0,0,0,.06v0a.07.07,0,0,0,0-.06s0,0,0,0m-8.47,0-.07.06-.12.08,0,0v0s0,0,0,0,0,.09,0,.09a.36.36,0,0,0,.12-.08h0l.07,0c.06,0,.08,0,.13,0a1.13,1.13,0,0,0,.22.14s0-.05,0-.08,0,0,0,0,0,.07,0,0-.28-.2-.29-.16m1.91.1c-.06.06-.08.06-.09,0s0,0,0,0,0,0,.14,0,.05-.06,0,0m1.2.11a.23.23,0,0,0,0,.07s0,0,0,0,0-.07.08.11l.05.15h.16c.19,0,.19,0,0,.11a.58.58,0,0,0-.13.11h0l.13-.1c.17-.12.17-.13,0-.13s-.19,0-.25-.2-.06-.16-.09-.08M24,73.6c0,.11-.05.14,0,.13s0,0,0-.09.06-.09.08,0,0,0,0,0a.28.28,0,0,0-.06-.15s0,0,0,.07m2.06,0,0,.09v0l0-.08,0,0v0l0,0a.24.24,0,0,1,0,.07s0,0,0,0a.54.54,0,0,0-.08-.21s0,0,0,0m4.11,0s0,0,0,0,.05.06.08.19,0,.11.21.11.15,0,.15,0a0,0,0,0,1,0,0,0,0,0,0,0,0,0s0,0,0,0,0-.07-.12-.07-.2,0-.2,0a.8.8,0,0,0-.11-.29,0,0,0,0,0,0,0m2.05,0a.81.81,0,0,0-.05.15c0,.15,0,.14-.23.14s-.2,0-.07.11.19.11.13.28a1.28,1.28,0,0,0,0,.13s0-.05.05-.13.06-.17-.08-.27-.15-.1,0-.1.17,0,.23-.17,0-.14.06-.13,0,0,0,0,0,0,0,0m2,0a.13.13,0,0,1,0,.06.26.26,0,0,0,0,.09l0,.11,0,0H34c-.2,0-.2,0,0,.13a.71.71,0,0,1,.13.1s0,0,0,.12a.9.9,0,0,0,0,.12.76.76,0,0,0,.07-.24S34.06,74,34,74s-.13-.1,0-.1.15,0,.2-.14a1.12,1.12,0,0,0,0-.13v0l0,0s0,0,0,0,0-.08,0-.08a0,0,0,0,0,0,0m-2,0a1.44,1.44,0,0,0,.08.25s0,0,.17,0,.19,0,0,.11-.12.1-.12.12,0,0,0,0,.07-.07.14-.12.18-.13,0-.13-.18,0-.23-.13-.05-.16-.05-.13m-2.13,0a.43.43,0,0,0,0,0s0,0,0,0,0-.06,0,0m4.2,0a.11.11,0,0,0,0,0s0,0,0,0a.08.08,0,0,0,0,0s0,0,0,0m-6.27,0s0,0,0,0,0,0,0,0v0l0,0m-4,0a.08.08,0,0,0,0,0s0,0,0,0l0,0s0,0,0,0m6,.06,0,.07h-.16c-.21,0-.21,0,0,.13s.14.09.09.26,0,.22.1.09l.09-.07.05,0,.11.07.12.09s0,0,0,0,0,0-.11-.1-.14-.12-.28,0l-.13.09a.92.92,0,0,1,.08-.26s0-.07-.14-.16-.13-.1.05-.1.16,0,.19-.1,0-.07,0,0m4.29,0c0,.08,0,.09.2.09s.18,0,0,.1-.14.1-.08.28.05.17-.09.06-.13-.11-.28,0-.15.11-.14.06,0,0,0,0,0,.06.06,0l.14-.1c.09-.07.08-.07.25,0s.15.09.09-.09-.07-.16.08-.27.16-.13,0-.13-.21,0-.21,0a.08.08,0,0,0,0,0s0,0,0,0M24,73.8l0,0h-.16c-.17,0-.21,0-.14.07s0,0,0,0a0,0,0,0,0,0,0s0,0,0,0a.35.35,0,0,1,.16,0c.16,0,.2,0,.18-.09s0,0,0,0m2.24,0c0,.08,0,.09.19.09s.19,0,0,.12-.13.08-.09.2,0,.06,0,0,0-.14.09-.24.18-.13,0-.13h-.17l0,0s0,0,0,0m1.86,0v0h-.18c-.15,0-.17,0-.16,0s0,0,0,0a.37.37,0,0,1,.17,0h.16l0-.05a.18.18,0,0,0,0-.06s0,0,0,0m-3.89,0s0,.05.18.05.17,0,0,.11l-.12.09a.4.4,0,0,0,0,.16c.06.18.06.19-.09.07s-.15-.1-.17-.07,0,0,0,0,.07,0,.1,0l.2.14s0-.06,0-.19-.06-.14.09-.25.17-.13,0-.13-.17,0-.19,0,0,0,0,0m1.82,0s-.06,0-.18,0-.19,0,.11.23c0,0,0,.06,0,.15s-.06.24.11.08c0,0,0,0,0,0s-.12.06-.09,0a1.32,1.32,0,0,0,.07-.27L25.8,74c-.14-.1-.14-.11,0-.11s.19,0,.18-.05h0M23.69,74l.08.07c.06,0,.08.06.08.1s0,0,0,0,0-.07-.06-.12-.12-.09-.11-.07m4.11,0,.08.07c.08.06.08.06,0,.19s-.07.24.1.12.13-.11.3,0,.14.1.14.07a.47.47,0,0,0-.06-.17s0,0,0,.08,0,.09-.12,0l-.13-.09L28,74.3c-.14.11-.14.11-.12,0a.44.44,0,0,0,0-.1.21.21,0,0,0,0-.06c.05-.06,0-.1-.07-.17l-.08,0m2.69,0c-.09.07-.11.1-.08.15s0,0,0,0,0-.05,0-.07l.13-.11-.1.06m-2.13.14a.08.08,0,0,0,0,0s0,0,0,0,0,0,0,0m4.11,0a.53.53,0,0,0,0,.13c0,.09,0,.16,0,.11a1.31,1.31,0,0,0-.24-.17l-.13.09a.56.56,0,0,1-.14.09v0s0,0,.17-.1.11-.09.28,0,.13.1.13.07a2.12,2.12,0,0,0-.09-.27m-8.65,0a.43.43,0,0,0,0,0s0,0,0,0,0-.06,0,0m6.61,0,0,0s0,0,0,0a.43.43,0,0,0,0,0s0,0,0,0m4.9,0s0,1.23,0,1.23a2.93,2.93,0,0,0,0-.61V74.2h0m-9.28.06s0,0,0,0,.05,0,.06,0,0,0,0,0-.05,0-.09,0m-2.15.07c-.11.09-.12.09-.1,0s0-.07,0,0a.24.24,0,0,0,0,.13,1.19,1.19,0,0,0,.23-.16s0,0-.1.06m2.27-.06a1.6,1.6,0,0,0,.23.16.22.22,0,0,0,0-.13s0,0,0,0,0,.07-.1,0-.12-.09-.1-.06m4.29,0a.14.14,0,0,0,0,.06v0a.13.13,0,0,0,0-.06s0,0,0,0M25,74.42a.19.19,0,0,0,0,.07s0,0,0,0,0,0,.07.11.05.17.24.17h.16l-.13.09-.13.1V75s0,.08,0,.08,0,0,0-.09,0-.06.15-.16.13-.1-.07-.1h-.17l-.05-.17c-.06-.18-.06-.18-.09-.14m2,.14-.05.18h-.17c-.2,0-.21,0,0,.13l.13.1s0,.06,0,.12a.45.45,0,0,0,0,.11,1,1,0,0,0,.08-.24s0,0,0,0a.42.42,0,0,1-.14-.09l-.11-.08H27l0,0a.17.17,0,0,0,0-.07s0,0,0-.06a.52.52,0,0,0,.06-.18.62.62,0,0,0-.07.17m4.15-.13c0,.07-.05.15,0,.13s0,0,0,0a.19.19,0,0,1,0-.07s0,0,0,0a.08.08,0,0,0,0,0s0,0,0,0,0-.08-.06,0m2,0a.35.35,0,0,1,0,.07s0,0,0,0,0-.06.08.11.06.15.08.15a1.35,1.35,0,0,0,.34,0,.35.35,0,0,0-.16,0c-.2,0-.19,0-.24-.16s-.08-.2-.11-.12m-4.11,0a.66.66,0,0,1,0,.11s0,0,0,0a.64.64,0,0,0,0-.1c0-.09,0-.1.07,0s0,0,0,0a.28.28,0,0,0-.06-.14s0,0,0,.08m-2,0s0,.08,0,0a.07.07,0,0,0,0,0h0m-2.12.1c-.06.2-.05.19-.24.19s-.19,0-.12.07.05,0,.05,0l0,0s0,0,.12,0a.44.44,0,0,0,.18,0,.63.63,0,0,0,.06-.2s0,0,0,0m2.15,0,0,0s0,0,0,0a.08.08,0,0,0,0,0s0,0,0,0m4.11,0a.54.54,0,0,0,.07.19l.18,0h.15l-.11.08-.11.08a1.62,1.62,0,0,0,.22-.14s0,0-.15,0h-.17l0-.11c0-.06,0-.1,0-.08m1.93,0s0,0,0,0,0,0,0,0,0,0,0,0l0,0m-2.08.09,0,.07h-.33s.08.1.22.18,0,0-.09-.08l-.12-.09h.32a.24.24,0,0,0,.05-.14l0,.06m-3.91,0c0,.08,0,.09.21.09h.16l-.14.09c-.13.1-.17.16-.11.2s0,0,0,0,0,0,.13-.14.16-.13,0-.13-.2,0-.2,0a.08.08,0,0,0,0,0s0,0,0,0m1.86,0s0,.06-.2.06-.2,0-.07.1S29,75,29,75s0,0,0,0,0-.08-.07-.14l-.09-.07-.05,0s0,0,.12,0,.16,0,.18,0,0-.08,0-.08,0,0,0,0m4.09,0v0H33a.41.41,0,0,0-.17,0,.81.81,0,0,0,.17,0c.18,0,.24,0,.22-.1s0,0,0,0m-3.89,0s0,.06.2.06h.16l-.12.08c-.17.12-.18.15-.08.37s0,.07-.11,0-.15-.1-.19-.06,0,0,0,0,0,0,.12,0,.22.15.16,0-.07-.18.09-.28.15-.12,0-.12-.16,0-.19,0,0,0,0,0m3.57.09a1.52,1.52,0,0,0,.21.14s0,0-.09-.07-.09-.06-.09-.07,0,0,0,0,0,0,0,0m.83,0-.11.08a.24.24,0,0,0-.09.08l.11-.07c.13-.1.15-.11.13-.11l0,0m-8.92.07.08.07,0,0,0,.13c-.07.24-.07.23.1.11s.13-.11.29,0,.15.11.15.07,0-.09,0,0,0,0-.14-.06-.13-.1-.27,0-.14.11-.1,0,.06-.2,0-.25-.11-.07-.06,0M31.4,75a.11.11,0,0,0,0,0s0,0,0,0,0-.06,0,0m1.65,0a.74.74,0,0,1,0,.12l0,.09s0,0,0,0l0-.1a.11.11,0,0,0,0-.08s0,0,0,0M31,75a.61.61,0,0,0-.06.21l0,0,0-.12c0-.11,0-.16,0-.07m2.46,0s0,.07,0,0a.07.07,0,0,0,0,0s0,0,0,0m-2,.07c.07.21.07.21-.06.11l-.07,0s.2.16.21.14a.85.85,0,0,0-.08-.24v0m-4.1,0a.14.14,0,0,0,0,.06c.06.13,0,.14-.1,0l-.14-.08-.13.08c-.13.1-.14.1-.14.06s0,0,0,0,0,.08,0,0c.25-.19.23-.18.39-.06s.17.11.11,0,0-.09,0-.08m1.59,0s0,0,0,.05,0,0,0,0,0-.06,0,0m2.29,0s0,0,0,0h0s-.07,0-.07,0m2,0-.11.08c-.07.06-.09.06-.08,0s0,0,0,0,0,.11,0,.11h0a1.85,1.85,0,0,1,.25-.18s0,0,0,0a.2.2,0,0,0-.08,0m.3,0a.44.44,0,0,0,0,.08c0,.09,0,.09-.08,0s-.19-.12,0,0,.15.09.1,0,0-.11,0-.07m-2.43.08c-.08.06-.12.08-.13.06s0,0,0,0,0,0,0,0a1.38,1.38,0,0,0,.25-.17s0,0-.12.07M29,75.2c-.1.07-.12.07-.1,0a.11.11,0,0,0,0,0,.28.28,0,0,0,0,.11s.05,0,.21-.11h0l-.08,0m-2.94.1a.13.13,0,0,0,0,.06s0,0,0,0l0,0,0,0c0,.07.05.14.06.19s0,0,0,0a1.11,1.11,0,0,0-.1-.29s0,0,0,0m2.06,0a.08.08,0,0,0,0,0,.34.34,0,0,1,0,.1l0,.1,0,.07s0,0,.19,0h.18l-.14.1c-.15.11-.17.15-.13.21s0,0,0,0,0-.06.13-.16.17-.13-.05-.13h-.18l0-.13c-.05-.17-.09-.26-.09-.19m2.05,0a.08.08,0,0,0,0,0s0,0,0,0,0,0,0,0,0,0,0,0,0,0,0,0m2,.14-.05.17h-.18c-.21,0-.22,0-.06.11l.14.11a0,0,0,0,0,0,0s0-.06-.13-.11l-.14-.11h.35l0-.15c.06-.16.07-.17.08-.1s0,0,0,0,0-.12,0-.12a.65.65,0,0,0-.07.16m2.1-.14-.05.16,0,.15H34c-.2,0-.21,0-.08.11l.14.1,0,0,0,.11a.38.38,0,0,0,0,.14l0-.12,0-.14,0,0-.14-.11-.1-.07H34c.2,0,.18,0,.24-.18s0-.12,0-.1,0,0,0,0,0-.07,0,0M24,75.44l0,.15h-.17c-.21,0-.22,0-.13.09l.08,0s0,0-.07-.06l-.06,0h.36l0-.12a1.19,1.19,0,0,0,0-.14s0,0,0,0l0,0s0-.13,0-.13a.31.31,0,0,0-.06.15m6.25-.07,0,.13,0,.11h.36l-.14.11c-.11.07-.15.11-.14.13s.09.27.07.28,0,0,0,0,0,0,0-.14-.07-.18.07-.29.18-.12,0-.13h-.18l0-.1c0-.13-.05-.15-.05-.12m-.09,0s0,0,0,0,0,0,0,0a.18.18,0,0,0,0-.05s0,0,0,0m4.2,0a.06.06,0,0,0,0,0s0,0,0,0a.08.08,0,0,0,0,0s0,0,0,0m-8.31,0s0,0,0,0,0,0,0,0,0,0,0,0l0,0m6.28,0a.38.38,0,0,0,0,.1l0,0h.37l-.14.1c-.14.1-.18.16-.13.22a.11.11,0,0,1,0,.06s0,.05,0,0,0,0,0-.08,0-.12.11-.23.16-.12-.06-.12h-.17l0-.09c0-.1,0-.12,0-.05m-8.21,0a.38.38,0,0,0,.06.16h.35l-.08.07-.15.11-.06,0,.05.13c.06.19.06.2-.08.09s-.15-.11-.29,0-.14.1-.1,0,0-.1,0-.09a.08.08,0,0,0,0,.05.43.43,0,0,1,0,0,.33.33,0,0,0,0,.06c0,.07,0,.06.15,0s.17-.11.32,0,.12.09.12.07a.87.87,0,0,0,0-.14c-.08-.21-.08-.19.07-.3s.17-.12,0-.13h-.17l0-.09c0-.05,0-.08,0-.07m4,0s0,0,0,0,0,0,0,0a.08.08,0,0,0,0,0s0,0,0,0m6.3,0a.07.07,0,0,0,0,0s0,0,0,0a.17.17,0,0,0,0,0s0,0,0,0m-8.37,0s0,0,0,0l0,0v0s0,0,0,0m4.1,0v0H29.9c-.22,0-.22,0-.06.13s.16.08.1.26-.07.22.11.09.13-.11.26,0,.14.09,0,0-.13-.1-.28,0l-.13.09a1.63,1.63,0,0,1,.09-.26s0-.07-.11-.15l-.13-.09,0,0h.17c.19,0,.2,0,.22-.08s0-.06,0,0m-2.06,0s0,0-.19,0-.21,0,0,.13.15.1.11.2,0,0,0,0,0-.12-.11-.23l-.14-.11h.17c.18,0,.22,0,.21-.06s0,0,0,0m6.37,0s.05,0,.18,0h.17l-.12.09c-.17.12-.17.11-.11.28s.06.17,0,.15,0,0,0,0a0,0,0,0,0,0,0s0,0,0-.19-.08-.14.12-.27.14-.11-.07-.11a.51.51,0,0,1-.19,0s0,0,0,0m-8.79,0s0,0,0,0l.05,0,0,0s0,0,.14,0h-.19m.76,0h.18l-.12.09c-.15.1-.16.11-.15.16s0,0,0,0,.07-.09.21-.19.07-.07-.13-.07h0m-.62.12.09.07.05,0-.05.15c-.07.19-.06.2.1.09s.14-.11.29,0,.17.11.15.06a.19.19,0,0,1,0-.07s0,0,0-.06,0,0,0,0l0,.07s0,0-.19-.1-.09-.05-.2,0-.18.13-.14.07.09-.29,0-.37-.07,0,0,0m-2,0c.05,0,.06.06.05.11V76l0-.06s0-.11-.09-.15,0,0,0,0M32,75.9s0,0,0,0l0,0v0s0,0,0,0m-5.73,0s0,.08,0,0,0,0,0,0,0,0,0,0m2.07,0a.08.08,0,0,0,0,0s0,0,0,0a.11.11,0,0,0,0,0s0,0,0,0m-.49.09c-.05.14,0,.14.12,0s.14-.12.29,0,.2.1.13,0,0,0,0,0v.06l-.1-.08L28.19,76s-.08,0-.19.07-.14.09-.11,0,0-.06,0-.07a.24.24,0,0,0,0,.08M32,76a.06.06,0,0,0,0,0s0,0,0,0a.1.1,0,0,0,0,0s0,0,0,0m.1,0c-.14.11-.13.1-.12,0s0,0,0,0,0,.08,0,.08l0,0a1.67,1.67,0,0,1,.24-.16.56.56,0,0,1,.14.09c.15.11.19.11.13,0s0,0,0,0,0,.06-.13,0-.14-.1-.29,0m2.13,0-.11.08a.16.16,0,0,1-.09,0s0,0,0,0,0,0,.16-.06a.56.56,0,0,1,.14-.09.81.81,0,0,1,.2.14s0,0,0,0-.19-.16-.22-.16l-.07,0m-8.15.68h6.25c1.73,0,.32,0-3.12,0s-4.85,0-3.13,0m9.55,0h0m4.74,0h9c2.48,0,.45,0-4.51,0s-7,0-4.5,0m-9.68,1.23c4.26,0,11.21,0,15.47,0H30.68m0,1.28H46.15c4.25,0,.76,0-7.74,0s-12,0-7.73,0m0,1.23h0m0,1.27h0" transform="translate(0 0)"/><path id="path4" class="cls-6" d="M28.08,68.28s0,0,0,0h0s0,0,0,0-.07,0-.07,0m6.16,0s0,0,0,0,0,0,0,0,0,0,0,0,0-.07-.07,0m-6.09.07a.43.43,0,0,0,0,0s0,0,0,0l0,0s0,0,0,0m-2.57.26s0,0,0,0l0,0s0,0,0,0,0,0,0,0,0,0,0,0h0m6.19,0,.21.14-.11-.08c-.06,0-.1-.07-.1-.06m-1.28.08,0,0,0,0c.08,0,.08,0,.06,0a.12.12,0,0,0-.06,0m-.65,0,.08.06s0,0,0,0a.5.5,0,0,0-.14-.1s0,0,0,0m2.65,0-.05,0,.06,0,.06,0-.07,0m2,0,0,0,0,0c.08,0,.08,0,.06,0l-.07,0m-6.18,0-.05,0s0,0,.07,0,.06-.07,0,0m-4.58,0s0,0,0,.06,0,0,0,0,0,0,0-.06,0,0,0,0m2.49,0a.06.06,0,0,0,0,.06s0,0,0,0a0,0,0,0,1,0-.06s0,0,0,0l0,0m3.67,0s0,0,0,0,0,0,0,0,0-.06,0,0m2,.05s0,.11,0,.1a.76.76,0,0,0,0-.11h0m.15.12c-.1.07-.11.09,0,0l.08-.07s0,0-.06,0m2.18,0a1.33,1.33,0,0,0,.16.12s0,0-.08-.07l-.08,0m-2,0s0,0,.06,0l0,0a.33.33,0,0,0-.11-.08m-4.06,0s.1.09.1.08,0,0-.06-.06l0,0m1.63,0a.14.14,0,0,0,0,.09s0,0,0-.05,0-.08,0,0m-4.11,0c0,.06,0,.09,0,0s0,0,0,0,0,0,0,0,0-.07,0,0m-1.46,0c0,.05,0,.06,0,0s0,0,0,0,.07,0,0,0,0,0,0,0m4.1,0s0,.05,0,.05,0,0,0,0,0,0,0-.06,0,0,0,0m-2.12,0,.07,0-.06,0-.06,0,.05,0m7.68,0s0,0,0,0,0,0,0,0,0,0,0,0,0,0,0,0m-10.26,0s0,0,.06,0,0,0,0,0,0,0-.05,0,0,0,0,0m5.41,0s0,0,0,0,0,0,0,0,0-.06.05,0,0,0,0,0,0,0-.06,0m4.11,0s0,0,0,0h0a0,0,0,0,1,0,0s0,0,0,0h0s0-.07,0-.07,0,0,0,0m2.11,0s8.89,0,15.9,0c1.45,0-1.53,0-6.63,0H35.33m0,.6v.29a5.61,5.61,0,0,0,0-.58v.29m-6.09-.37c0,.09,0,.1.22.09h-.18v0c0-.07-.05-.09,0,0m1.85,0s0,0-.18,0h.18v0s0,0,0,0a.11.11,0,0,0,0,0m.21,0c0,.08,0,.1.2.09h0c-.17,0-.17,0-.19,0l0,0M27,69.45s0,0-.17,0h0c.15,0,.17,0,.18,0s0,0,0,0,0,0,0,0m.23,0s0,.06.2,0h0c-.14,0-.17,0-.19,0s0,0,0,0m-2,0a.4.4,0,0,0,.18,0h-.18m3.68,0c-.18,0-.21,0-.16.07s0,0,0,0,0-.05.15-.05a.48.48,0,0,0,.18,0h-.18m-4.28,0a0,0,0,0,0,0,0h0s.07,0,.19,0h-.19m8.3,0h0m.6,0h0m-6.85,0,.06,0s0,0,0,0-.09-.07,0,0m2.11,0s.11.1.11.08l-.06,0s-.05,0-.05,0m-4,0s.1.09.1.08,0,0-.06-.06l0,0m2.67.08-.05,0,.06,0,0,0s0,0-.06,0m4.1,0s0,0,0,0,.07-.06.06-.06l-.06.05m-2.59,0s0,0,0,0h0l0,0a.06.06,0,0,0,0,0m4.13,0,.05.07s0,0,0,0a.1.1,0,0,0,0-.07l0,0,0,0m.49,0s0,0,0,0,0,0,0,0l0,0s0,0,0,0l-.05,0m-4.34.17.08,0,.05,0-.05,0a.19.19,0,0,0-.08,0s0,0,0,0m2,0,0,0,0,0s0,0,.1,0,.06,0,.05,0-.11-.08-.16,0m2.07,0s0,0,0,0,0,0,0,0-.05,0-.06,0m-8.12,0a.33.33,0,0,0,.11.08l-.06-.06-.05,0m2.11,0,.06,0,0,0A.33.33,0,0,0,27.2,70M31,70l-.07.06L31,70Q31.07,70,31,70L31,70m-2.06,0c-.06,0-.07,0-.08,0s0,0,0,0,0,0,0,0S29,70,29,70s0,0-.06,0m4,0c0,.06,0,.08.07,0s0,0,0,0-.06,0,0,0,0-.06,0,0M24,70a.11.11,0,0,0,0,.06s0,0,0,0,0,0,0,0,0,0,0,0,0,0-.05,0m1.34,0s0,0,0,0,0,0,0,0,.06,0,.05,0,0,0,0,0m8.14,0,.07,0s0,0,0,0,0,0,0,0,0,0-.06,0l0,0s0,0,0,0m-8.74,0s0,0,.05,0h0s0,0,0,0,0,0,0,0m2.1,0h0s0,0,0,0,0,0,.06,0,0,0,0,0m1.25,0,0,0s0,0,0,0-.06,0-.06,0m6.16,0s0,0,0,0h0s0,0,0,0,0-.07,0-.07a0,0,0,0,0,0,0m.12.24c0,.06,0,.08.2.08s.16,0,.17,0,0,0,0,0,0-.05-.21-.05-.14,0-.16,0,0,0,0,0m-10.25,0c0,.06,0,.08.2.08s.16,0,.16,0h0c.05,0,0-.06-.18-.06s-.16,0-.17,0,0,0,0,0m3.88,0s0,0-.17,0h-.17a.5.5,0,0,0,.17,0c.14,0,.17,0,.18,0a0,0,0,0,0,0,0s0,0,0,0m-2.06,0s-.06,0-.17,0-.23,0-.15.08,0,0,0,0,0,0,.15,0,.2,0,.17-.05a0,0,0,0,0,0,0m2.3,0s.05,0,.18,0,.16,0,.17,0h0s0,0-.16,0a.61.61,0,0,1-.19,0s0,0,0,0m1.81,0s-.06,0-.18,0-.17,0-.18,0,0,0,0,0,0,0,.18,0,.2,0,.17-.05,0,0,0,0m2.28,0s0,0,.17,0,.17,0,.19,0,0,0,0,0,0,0-.17,0a.51.51,0,0,1-.19,0s0,0,0,0m1.82,0a.45.45,0,0,1-.17,0H33.8s.33,0,.35,0a0,0,0,0,0,0,0h0m-10.42,0c-.16,0-.23,0-.18.06h0s0,0,.16,0a.53.53,0,0,0,.18,0s0,0,0,0h-.17m2.51,0a1.22,1.22,0,0,0,.29,0h-.29m4.21,0c.13,0,.17,0,.18,0s0,0,0,0,0,0-.19,0h0m1.3,0s0,0,0,0,0,0,0,0,.06,0,.19,0h-.2m2.8.17s-.07.07-.07.09,0,0,0,0a.23.23,0,0,1,.07-.07s.07,0,.07-.06l-.08,0m-10.77,0a0,0,0,0,1,0,0s0,0,0,0a.06.06,0,0,0,0-.08s0,0,0,0m8.2.11a.43.43,0,0,0,0,0s0,0,0,0,0-.08,0,0M28,70.81h0l.07,0s0,0-.06,0m6.28,0a.33.33,0,0,0,.11.08l-.06,0-.05,0m-2,0s.11.09.11.08l-.06,0s-.05,0-.05,0m1.84,0c-.06,0-.06,0,0,0l.07,0s0,0-.06,0m-2.07,0,0,0,.06,0c.07,0,.07,0,.05,0l-.07,0m-5.88,0s.11.09.11.08,0,0-.06-.06-.05,0-.05,0m3.69,0a.14.14,0,0,0,0,.09s0,0,0,0,0-.08,0,0m-5.7,0s.12.1.14.08,0,0,0,0l-.08,0-.06,0m1.59,0s0,0,0,0,0,0,0,0l0,0h0m8.2,0s0,0,0,0,0,0,0,0a0,0,0,0,1,0,0v0s0,0,0,0m.53,0a.09.09,0,0,0,.06,0,0,0,0,0,0,0,0s0,0,0,0,0,0,0,0l0,0s0,0,0,0m-5.36,0v0s0,0,0,0,0,0,.05,0,0,0,0,0-.06-.08-.08,0m-.09.29-.17,0h0c.12,0,.16,0,.17,0s0,0,0,0m-4.27,0h0a.38.38,0,0,0,.18,0h-.18m2.46,0a.44.44,0,0,0,.18,0c.17,0,.19,0,.15,0s0,0,0,0,0-.06-.17-.07h-.17m2.06,0a.15.15,0,0,0,.07,0h0s-.07,0-.06,0m-4,0a.49.49,0,0,0,.17,0h-.17m1.48,0a.48.48,0,0,0,.17,0h-.17m2.72,0a.11.11,0,0,0,.08,0h-.08m.14,0s0,0,0,.06h0s0-.06,0-.06,0,0,0,0m1.24,0a.54.54,0,0,0,.18,0h-.18m.61,0a.33.33,0,0,0,.14,0h-.14m1.45,0a.48.48,0,0,0,.17,0H32.9m.54,0a.33.33,0,0,0,.14,0h-.14m-8.86,0s0,0,0,.06l.05,0,0,0s0,0-.05,0h0m7.06,0s0,0,0,0,.08-.07.07-.07l-.06,0m-4.26.13s-.06,0-.05,0l.12-.09-.07.05m-2.09,0s0,0,0,.05,0,0,0,0,0,0,0,0l0,0a.07.07,0,0,0-.05,0m5.69,0a.07.07,0,0,1,0,.06s0,0,0,0,0,0,0-.07,0,0,0,0m-4.12.14a.23.23,0,0,0,0,.07s0,0,0-.06a.56.56,0,0,1,0-.07s0,0,0,.06M25,71.65l0,0,0,0s.05,0,.06,0h0s0,0-.06,0m2,0s0,0,0,0l0,0s0,0,.05,0,0,0,0,0,0,0-.07,0m4.1,0s0,0,0,0a.05.05,0,0,0,0,0l0,0s0,0,0,0,0,0-.08,0m4.16,0,0,0s0,0,0,0,.6,0,9.29,0h0c-7.19,0-9.27,0-9.29,0m-3.82.12s0,0,0,0a.07.07,0,0,0,0,0s0,0,0,0m1.46,0v0s0,0,0,0,0-.07,0,0m-2,0-.06,0h0s.05,0,.09,0,0,0,0,0m-7,0a.05.05,0,0,0,0,0l0,0s0,0,0,0h0s0,0-.05,0m2.83,0s0,0,0,0l.06,0q.07-.06,0,0m2,0s0,0,0,0,0,0,.06,0h0s0,0,0,0,0,0,0,0m.59,0s0,0,0,0,0,0,0,0,.07,0,.07,0,0,0,0,0m2.77,0h0s0,0,0,0,0,0,0,0-.05,0-.05,0m1.34,0s0,0,0,0,0,0,0,0,.06,0,0,0,0,0,0,0m1.75.57v.25a4,4,0,0,0,0-.49v.24M30,72.1s0,0,0,0,.08,0,.07,0H30m-3.49,0s0,0,0,0,0,0,0,0,0,0,0,0m5.22,0s0,0,.06.06l.06,0-.06,0s0-.06,0-.07,0,0,0,0,0,0,0,0m-5.4.15c-.05,0-.05,0,0,0l.06,0s0,0-.06,0m2.07,0s0,0,0,0l0,0s0,0,0,0m6.08.06a0,0,0,0,0,0,0s0,0,0,0a.08.08,0,0,1,0,0s0,0,0,0m-4.12,0v0s0,0,0,0a.08.08,0,0,1,0,0s0,0,0,0l0,0m-2.3.18s0,0,0,0a.06.06,0,0,1,.07,0s0,0,0,0a0,0,0,0,0-.08,0m4.08,0,0,0,.06,0c.07,0,.07,0,.05,0l-.06,0m2.07,0s0,0,0,0a.08.08,0,0,1,.08,0s0,0,0,0-.05,0-.09,0m-10.13,0,0,0s0,0,0,0l0,0h0m10.31,0a.33.33,0,0,0,.11.08s0,0-.06-.06l0,0m-10.1.06s0,0,0,0,0,0,0,0,0,0,0,0,0,0,0,0m4,0s.11.08.12,0a0,0,0,0,0,0,0s0,0,0,0,0,0-.08,0,0,0,0,0m1.56,0a0,0,0,0,0,0,0s0,0,0,0,0,0,0,0a.06.06,0,0,0,0,0m2.12,0c-.06,0-.06,0,0,0l.06-.05s0,0-.06,0m-4.92,0h0s0,0,0,0,0,0,0,0,0-.06,0-.06,0,0,0,0m2.05,0s0,0,0,0,0,0,0,0a.05.05,0,0,0,0,0m4.1,0s0,0,0,0,0,0,0,0,0,0,0,0,0,0,0,0,0,0-.06,0m.74,0a.1.1,0,0,0,0,0s0,0,0,0,0,0,0,0v0m.62,0s0,0,0,0h0a0,0,0,0,0,0-.06,0,0,0,0,0,0,0m-8.27,0s0,0,.05,0,0,0,0,0l-.05,0s0,0,0,0m4.77.24a.18.18,0,0,0,0,0s0-.08,0-.09l0,0m.22,0s0,0,0,.06,0,0,0,0,0-.07,0,0M26.64,73s0,0,.05.06,0,0,0,0,0-.05,0-.05,0,0,0,0l0,0m2.05,0,0,.06.05,0-.05,0,0,0h0m5,0,0,0,0,0s0-.05,0-.06l0,0m-6.23.06-.06,0,.06,0q.09-.06.06-.06l-.06,0m5.41,0,.06,0,0,0a.33.33,0,0,0-.11-.08m-6.06.08.07.09v0s0-.08-.11-.13l0,0m2.09,0a.09.09,0,0,1,0,0s0,0,0,0,0-.08-.07-.08,0,0,0,0m-2.05.13s0,.11,0,.1a.76.76,0,0,0,0-.11h0m-2.07,0s0,0,0,0,0,0,0,0,0-.06,0,0m2.21.07-.06,0,.06,0c.06,0,.07-.06.06-.06l-.06.05m2.45.07a0,0,0,0,1,0,0s0,0,0,0,0,0,0-.07,0,0,0,0m-4.7,0s0,.06,0,0,0,0,0,0,0,0-.05,0,0,0,0,0m3.41,0a.33.33,0,0,0,0,.06s0,0,0,0a.11.11,0,0,0,0-.06h0m.7,0s0,0,.06,0,0,0,0,0,0,0-.05,0,0,0,0,0m5.43,0,0,0s0,0,0,0,0,0,0,0m-6.19.08a.07.07,0,0,0,0,0s0,0,0,0,0-.08,0,0m-1.9.19c0,.06,0,.07.2.07s.17,0,.16,0,0,0,0,0,0,0-.17,0-.16,0-.18,0,0,0,0,0m-2.28,0s0,0-.17,0-.2,0-.17,0,0,0,0,0,0,0,.16,0,.17,0,.18,0,0,0,0,0l0,0m6.39,0s0,0,.2,0,.15,0,.15,0h0s0,0-.17,0a.44.44,0,0,1-.18,0s0,0,0,0m-6.14,0h.35l0,0s0,0,0,0,0,0,0-.05h-.35m3.68,0c-.18,0-.2,0-.17,0a1,1,0,0,0,.19.15s-.09-.08-.13-.11-.07-.07.11-.07H28a0,0,0,0,0,0,0h-.19m-2.23,0s0,.05.05.08.05,0,0,0l-.05,0h0m2.83,0c.16,0,.17,0,.17,0s0,0,0,0,0,0-.17,0h0m1.27,0s.06,0,.13,0,.24,0,.05,0h-.18m2.06,0v0s0,0,0,0,.07,0,.17,0h-.18m.78,0c.12,0,.17,0,.16,0s0,0,0,0,0,0-.17,0h0m1.35,0h.19s0,0-.1,0-.14,0-.09,0m.69,0c.18,0,.19,0,.14.06s0,0,0,0,.05-.07-.14-.07h0m-11,.06a.17.17,0,0,0,.06,0s.05,0,.05,0l-.11-.08m6.92.08c-.05.05-.05.05,0,0l.06,0s0,0-.06,0m2.07,0,0,0,0,0s0,0,0,0l0,0m2,0-.06.05.06-.05c.06,0,.08,0,.06,0l-.06,0M34,74,34,74l0,0,0,0L34,74m-9.7.07s0,0,0,.07,0,0,0,0,0,0,0-.06l0,0,0,0m1.59,0s0,0,0,.06,0,0,0,0,0,0,0-.08,0,0,0,0m4.1,0a.08.08,0,0,1,0,0s0,0,0,0a.05.05,0,0,0,0,0s0,0,0,0m5.36.12s0,0,0,0,0,0,0,0,.48,0,9.28,0h8.92c-1.72,0-18.17,0-18.19,0M24,74.27l-.05,0,.05,0c.05,0,.06,0,.1,0l0,0s-.08-.06-.1-.06l-.05,0m2.11,0s0,0,.05,0,.05,0,0,0-.08-.07-.08-.06m-.1.07-.05,0,.06,0c.05,0,.07,0,.05,0l-.06,0m9.3.54v.3a5.8,5.8,0,0,0,0-.59v.29m-1.13-.51-.06,0,.06,0c.06,0,.07,0,.06,0l-.06,0m-7.78,0c0,.05,0,.05,0,0s0,0,0,0,0,0,0,0,0-.07,0-.08,0,0,0,0m1.47,0s0,.07,0,.08a.06.06,0,0,0,0,0v0h0m2.63,0s0,0,0,0,0,0,0,0,.05,0,0,0,0,0,0,0m2.74,0a0,0,0,0,0,0,0s0,0,0,0,0,0,0,0,0,0,0,0-.05-.09-.07-.07m-4.1,0a0,0,0,0,0,0,0h0s0,0,.05,0,0,0,0,0a.1.1,0,0,0,0,0s0,0-.05,0m-4,.22,0,.06,0,0h.16c.21,0,.21,0,.06.11l-.09.07a.89.89,0,0,0,.22-.16s0,0-.17,0H25.2l0-.06,0,0m3.88.07s-.06,0-.16,0-.16,0-.18,0,0,0,0,0a.53.53,0,0,1,.18,0c.12,0,.16,0,.17,0s0,0,0,0m-4.1,0a.41.41,0,0,1-.17,0c-.18,0-.24,0-.13.08s0,0,0,0,0-.06.13-.06.16,0,.18,0a0,0,0,0,0,0,0s0,0,0,0m4.36,0s.05,0,.18,0h0l-.19,0s0,0,0,0m-2.57,0s0,0,.11,0a.46.46,0,0,0,.16,0,1.17,1.17,0,0,0-.27,0m.52,0h.18c.15,0,.16,0,.15,0s0,0,0,0,0,0-.18-.06-.17,0-.16,0m3.66,0a.65.65,0,0,0-.16,0,1.39,1.39,0,0,0,.35,0s0,0,0,0H30.9m.44,0a.54.54,0,0,0,.17,0,.4.4,0,0,1,.18,0s0,0,0,0a0,0,0,0,0,0,0,1.33,1.33,0,0,0-.34,0m1.63,0h0a.54.54,0,0,0,.17,0v0l-.18,0m.43,0h.18c.11,0,.16,0,.16,0s0,0,0,0,0,0,0,0a1.26,1.26,0,0,0-.33,0m-.62,0s0,0,0,0l0,0,0,0s0,0,0,0m-5.33.1-.08.07a.77.77,0,0,0,.17-.12s0,0-.09,0m6.1,0c-.09.07-.1.09-.07.11s0,0,0,0,0,0,.09-.09.1-.08.08-.08l-.1.07m-4.73,0,.07.07L29,75a.42.42,0,0,0-.13-.11m2.65.06s0,0,0,0l.08,0c.07-.06,0-.06,0,0M31,75s0,0,0,0a.06.06,0,0,0,0-.06s0,0,0,0m-6,.14s0,0,0,0l.07,0,.05,0,0,0c-.05,0-.08,0-.09,0m6.13,0s0,0,0,0,.07,0,.15,0l.08,0a.81.81,0,0,0-.18-.12.05.05,0,0,0-.05,0m2.06,0s0,0,0,0,.06,0,.13,0l0,0,0,0c-.07-.06-.1-.06-.13,0m-8.29,0c-.1.07-.11.1,0,0s.11-.08.09-.08l-.07,0m2.24,0,.06,0,.05,0a.33.33,0,0,0-.11-.08m-2.4,0a.21.21,0,0,1,0,.06.06.06,0,0,0,0,.06,0,0,0,0,0,0,0,.15.15,0,0,1,0-.06s0,0,0,0h0m4.23,0-.05,0,.06,0,0,0s0,0-.06,0m4.11,0c-.08.05-.09.08,0,0s.11-.08.1-.08l-.07,0m-4.25,0a.06.06,0,0,0,0,0s0,0,.08,0,0,0,0,0-.07,0-.06,0,0,0,0,0m.6,0s0,0,0,0,0,0,0,0,.06,0,.08,0a0,0,0,0,0,0,0s0,0,0,0m-5.46,0a0,0,0,0,0,0,0h0s0,0,0,0,0,0,0,0a0,0,0,0,0-.07,0m16,.14h0m-14.37.18s0,0,0,0a.59.59,0,0,0,.13.09l-.07-.06s-.07-.06-.07-.07h0s0,0,0,0m-1.9.13.12.11s0,0,0,0a.78.78,0,0,0-.24-.19.56.56,0,0,0,.11.08m4.76,0-.06,0,.06,0,.06,0-.06,0m5.47,0,.08.07.09.06s-.17-.15-.17-.13m-1.42.06s-.06,0,0,0l.08,0,.05,0a.19.19,0,0,0-.08,0m2.06,0-.07,0s.08,0,.12-.06,0,0,0,0m-4.64,0a.08.08,0,0,1,0,.08s0,0,0,0,0-.06,0-.1l-.06,0,.05,0m2,0s0,0,.05,0a.07.07,0,0,0,0,0l0,0,0,0m-1.55,0a.14.14,0,0,0,0,.06s0,0,0,0a.11.11,0,0,1,0-.06s0,0,0,0l0,0m-2.07.09a.24.24,0,0,0,0,.07s0,0,0,0a.19.19,0,0,0,0-.08s0,0,0,0m1.59,0a.07.07,0,0,0,0,0s0,0,0,0,0-.06,0,0m2.23.08s0,0,0,0,.09-.07.07-.07l0,0m-6.18,0,0,0,0,0s.06,0,.06,0,0,0-.06,0m4,0c-.1.07-.11.09,0,0s.11-.08.09-.08l-.07,0m.29,0a.39.39,0,0,0,.16.1s0,0,0,0l-.09,0s-.07-.05-.07,0m2,0,.06,0s0,0,0,0-.11-.1-.11-.08m1.73,0-.06,0,.06,0s.07-.06.06-.06l-.06.05m-1.57,0s0,0,0,0,0,0,0,0a0,0,0,0,0,0-.08s0,0,0,0m-4.7,0s0,.08,0,.06,0,0,0,0,0,0,0,0,0,0,0,0m.52,0c.06,0,.09.06.09,0s0,0,0,0,0,0-.07,0l-.06,0,.05,0m-4,0s0,0,0,0,0,0,0,0,0,0,0,0a0,0,0,0,0,0-.06s0,0,0,0m7.6,0a0,0,0,0,0,0,0s0,0,0,0,0,0,0,0,0,0,0,0m-9,.52s30.9,0,30.91,0-7,0-15.45,0-15.46,0-15.46,0m7.73,1.27h0m0,1.24H46.15c4.25,0,.76,0-7.74,0s-12,0-7.73,0m0,2.51H46.15c4.25,0,.76,0-7.74,0s-12,0-7.73,0m0,1.25c4.26,0,11.21,0,15.47,0H30.68m0,1.26H46.15c4.25,0,.76,0-7.74,0s-12,0-7.73,0" transform="translate(0 0)"/></g><g id="svgg-2" data-name="svgg"><path id="path0-2" data-name="path0" class="cls-7" d="M20.35,31.62l-.45.94c-.08.15-.27.55-.43.87l-.9,1.86-.46.94-.89,1.84-.45.92-.42.86-.29.61a.77.77,0,0,0-.12.32s.39.81.85,1.74S18,45,18.46,45.89s.83,1.66.84,1.66l.11-.21.22-.46.23-.5c.07-.13.17-.36.24-.5l.23-.49.26-.53.23-.49.23-.5c.09-.17.27-.57.42-.87s.32-.67.39-.83a2.66,2.66,0,0,0,.14-.29l.17-.36.27-.56c0-.11.15-.33.23-.49.19-.41.57-1.2.68-1.43l.26-.56.25-.51.23-.49c.09-.18.25-.52.35-.74l.34-.71.23-.49.27-.57.18-.39.21-.43.62-1.3c.1-.23.28-.59.38-.81l.33-.69c.08-.17.15-.32.16-.33s-.1-.06-3.24-.06H20.68l-.33.66" transform="translate(0 0)"/><path id="path4-2" data-name="path4" class="cls-8" d="M11.37,31a2.83,2.83,0,0,0,.2.42s0,0,0,0,0,.05.05.11l.06.14a1,1,0,0,0,.08.2,2.14,2.14,0,0,1,.1.24s0,.06,0,.06,0,0,0,0l0,.11c0,.06.07.16.09.23a.41.41,0,0,0,.07.13.52.52,0,0,1,0,.12l.15.33a1.43,1.43,0,0,1,.1.25,0,0,0,0,0,0,0,0,0,0,0,1,0,0,.29.29,0,0,0,0,.11l0,.11a2.2,2.2,0,0,0,.1.21l.29.64c.1.24.22.52.27.61l.17.39c0,.12.14.31.2.42l.09.22s0,0,0,.06l0,.07s0,.07.06.14a1,1,0,0,1,0,.12l.11.24c.06.13.12.25.12.26a.62.62,0,0,0,.06.14.81.81,0,0,1,.06.13l.1.24.27.57c0,.13.07.12.17-.12l.39-.82a5.25,5.25,0,0,0,.23-.51s0-.06,0-.06,0,0,0-.06.1-.24.21-.45c.24-.5.31-.65.31-.66s.09-.19.19-.4l.55-1.14.33-.7c.15-.29.26-.54.26-.54l.21-.44c.12-.24.25-.52.3-.63s.13-.28.18-.37a.84.84,0,0,0,.08-.21s-.53,0-3.35,0-3.35,0-3.34,0m18.47.11c0,.08-.17.33-.28.57l-.21.45s0,0,0,0,0,0,0,.06l-.77,1.59c-.46.94-.71,1.46-.82,1.7l-.14.29a.63.63,0,0,0-.07.12l-.28.59-1.29,2.65c-.07.16-.15.31-.16.34s-.43.86-.43.88,0,.1-.1.2l-.09.18.25.5c.14.28.26.52.28.54s0,0,0,0,.2.42.45.93L26.77,44l.2.38h0s0,0,0,.07a.23.23,0,0,1,0,.1l.39.82.66,1.32c.14.29.27.53.28.54s0,0,0,0a.92.92,0,0,0,.13.24.51.51,0,0,0,.09-.21s0,0,0,0a.07.07,0,0,0,0,0,2,2,0,0,1,.13-.29l.3-.63.23-.48c0-.05,0-.1,0-.1s0,0,0,0l0,0a3.13,3.13,0,0,1,.16-.37l.71-1.49.25-.52c.08-.17.18-.38.22-.48s.16-.32.25-.51.2-.43.26-.55l.17-.37.08-.17a.75.75,0,0,1,.07-.15.57.57,0,0,0,.07-.16.08.08,0,0,1,0,0,3.12,3.12,0,0,0,.18-.34c.08-.19.24-.51.34-.72l.24-.52.45-.93c.06-.14.18-.38.25-.54l.15-.33a.19.19,0,0,1,0-.08,1.8,1.8,0,0,0,.15-.3l.3-.63.29-.62c.07-.15.15-.31.17-.34s0-.07,0-.08,0,0,0,0a0,0,0,0,0,0,0,3.25,3.25,0,0,1,.18-.4c.11-.21.23-.47.28-.58l.24-.51c.15-.3.3-.62.45-1l.29-.59c.11-.24.2-.44.2-.45l.35-.73a1.43,1.43,0,0,0,.09-.19l0-.05H29.9l-.06.14m9.35,8.43V48.1h4.56V31H39.19v8.57m21.16-6.62v2h8.44l.06-.1.12-.2.21-.36.14-.26.06-.1s.05-.08,0-.08,0,0,0,0a.34.34,0,0,0,.08-.12l.24-.41a6.2,6.2,0,0,0,.33-.58s0,0,0,0a1.38,1.38,0,0,0,.16-.26l.24-.42.11-.2s0,0,0-.05,0,0,0-.05,0,0,0,0a.28.28,0,0,0,.08-.12l.08-.14a3.23,3.23,0,0,0,.22-.37H60.35v1.95M51.75,31a5.69,5.69,0,0,0-.78.16l-.29.09a.94.94,0,0,0-.2.08l-.09,0a5.94,5.94,0,0,0-.71.33s0,0-.08.05a4.07,4.07,0,0,0-.79.56s0,0,0,0a5.37,5.37,0,0,0-.9.93.52.52,0,0,1-.08.11,5.9,5.9,0,0,0-1,2.41,1.59,1.59,0,0,0,0,.23,5.84,5.84,0,0,0,0,1.57,5.9,5.9,0,0,0,2.39,4c.61.41.59.4.67.22s.45-1,.45-1,.07-.15.14-.29.13-.29.13-.3a.11.11,0,0,1,0-.07l0,0s.11-.26.24-.54.26-.56.28-.62a3.51,3.51,0,0,0,.15-.32l.14-.32a.85.85,0,0,1,.06-.13s.5-1.06.51-1.11A.26.26,0,0,1,52,37a.15.15,0,0,0,0-.06,1,1,0,0,1,.1-.23l.6-1.31.15-.32.2-.43c.16-.36.22-.5.36-.79.06-.13.11-.26.12-.29s0-.07,0-.07,0,0,0,0l.11-.26c.32-.69.72-1.56.72-1.59a.15.15,0,0,1,0-.06c.11-.13.08-.18-.2-.26A5.26,5.26,0,0,0,53.27,31a9.66,9.66,0,0,0-1.52,0m2.69,6.19c0,.11-.07.16-.27.59a2.08,2.08,0,0,0-.1.24l-.1.22-.15.32-.17.37-.13.28-.17.38c-.1.2-.18.36-.18.37a2.45,2.45,0,0,1-.1.23c-.11.22-.13.26-.36.78l-.2.43c-.19.4-.26.57-.26.58l-.18.37-.17.37s0,.08-.28.62a2.56,2.56,0,0,0-.12.26s-.06.14-.14.3-.14.3-.14.32a1.33,1.33,0,0,0-.06.14.62.62,0,0,0-.06.14s0,0,0,0a.24.24,0,0,0-.06.12c0,.06-.08.18-.12.25a1.17,1.17,0,0,1-.07.15,1.5,1.5,0,0,1-.1.24c-.18.37-.29.62-.34.73l-.24.52A2.51,2.51,0,0,0,50,47h0s0,0,0,0a1.62,1.62,0,0,1-.1.23,1.78,1.78,0,0,0-.2.48,5.55,5.55,0,0,0,.58.18,6.16,6.16,0,0,0,2.77,0,7.19,7.19,0,0,0,.79-.24l.15-.06a6.91,6.91,0,0,0,.72-.36l.24-.15a5.81,5.81,0,0,0,1.23-1.08,4.29,4.29,0,0,0,.56-.79l0,0a6.59,6.59,0,0,0,.7-1.73,7.08,7.08,0,0,0,0-2.38.19.19,0,0,1,0-.07,6.46,6.46,0,0,0-.3-1,.11.11,0,0,1,0-.06,5,5,0,0,0-.54-1s0,0,0,0,0-.07-.07-.15A6.13,6.13,0,0,0,55,37.42a5.38,5.38,0,0,0-.51-.31.33.33,0,0,0-.07.11m5.91,2.37v1.68h5.08V37.91H60.35v1.68m0,6.55v2H65.7c3,0,5.36,0,5.36,0A.57.57,0,0,0,71,48l-.18-.3a2.65,2.65,0,0,0-.15-.25,1,1,0,0,1-.08-.15.38.38,0,0,0-.08-.11s0,0,0,0,0,0,0-.07-.11-.19-.19-.33l-.17-.28L70,46.3l-.1-.17a3.69,3.69,0,0,1-.19-.32,5.06,5.06,0,0,0-.3-.5.09.09,0,0,1,0-.05,2.92,2.92,0,0,0-.19-.35L69,44.56l-.15-.27-.07-.1H60.35v2m-49-15.23,0,0,0,0" transform="translate(0 0)"/></g></svg>