<svg id="Layer_1" data-name="Layer 1" xmlns="http://www.w3.org/2000/svg" viewBox="0 0 80 84.2"><defs><style>.cls-1{fill:#f2f2f2;}.cls-2{fill:#cb0404;}.cls-2,.cls-3,.cls-4,.cls-5,.cls-6,.cls-7{fill-rule:evenodd;}.cls-3{fill:#dad2ca;}.cls-4{fill:#e2043c;}.cls-5{fill:#3b3433;}.cls-6{fill:#d3134c;}.cls-7{fill:#7b7570;}</style></defs><path class="cls-1" d="M40,0h0A40,40,0,0,1,80,40h0A40,40,0,0,1,40,80h0A40,40,0,0,1,0,40H0A40,40,0,0,1,40,0Z" transform="translate(0 0)"/><path id="path0" class="cls-2" d="M27.94,72.1v3.28h6.53V68.81H27.94V72.1m8.77,0v3.28H51V68.81H36.71V72.1m-8.77,8.82V84.2h6.54V77.65H27.94v3.27m8.77,0V84.2H51V77.65H36.71v3.27" transform="translate(0 0)"/><g id="svgg"><path id="path0-2" data-name="path0" class="cls-3" d="M28.57,30.52c0,.07.13.26.22.41l.32.59.23.42c0,.07.29.52.55,1s.53,1,.59,1.07l.23.42c.07.14.22.41.33.61l.32.59.71,1.3.32.59.34.63.19.34a4.53,4.53,0,0,1,.23.41l.19.36v5.42H37.4V39.25l.12-.22c.07-.13.31-.58.55-1L40,34.54c.19-.36,1-1.85,1.12-2.06l.23-.42c.16-.31.57-1.05.74-1.36.07-.14.14-.26.14-.28s-1,0-2.25,0H37.74l-.13.28-.35.75-.39.84c-.09.2-.29.63-.45,1l-.29.62-.17.37L35.6,35c-.23.49-.22.49-.39.14s-.49-1.06-.85-1.82c-.07-.16-.25-.55-.4-.86l-.45-1c-.1-.22-.26-.55-.34-.74L33,30.4H28.5l.07.12m15.59.39-.26.49a9,9,0,0,0,1,0h1v.25a.72.72,0,0,0,.78.75h.21v4.39l-.12.05a.72.72,0,0,0,0,1.37l.16.08v4.54l-.15,0a.77.77,0,0,0-.85.86l0,.15-2.19,0c-1.38,0-2.19,0-2.21-.06s0-.11,0-.19A.81.81,0,0,0,41,43c-.26,0-.24.12-.24-2.42V38.3l.18-.09A.71.71,0,0,0,41.07,37a.45.45,0,0,0-.16-.1,14,14,0,0,0-1,1.83l-.12.21,0,2.87a21.29,21.29,0,0,0,0,2.88s1.38,0,6.72.12l1.5,0V30.46H44.41l-.25.47m4.35.54V32H49v.24a.74.74,0,0,0,.48.73c.08,0,.08,0,0,.43s-.24,1.37-.32,1.92l-.11.78c0,.15-.06.42-.08.61-.06.47-.07.52-.16.52-.65,0-.8,1.22-.16,1.38.12,0,.12.06.07.62-.11,1.19-.24,3.89-.25,5v.68H49c.49,0,.59,0,.51-.16s0-2.87.1-3.71.15-2.2.19-2.63c.1-1,.2-1.88.21-2s0-.22.06-.4.09-.66.15-1.06.14-.83.15-.94.19-.94.31-1.5c.05-.22.25-1.07.31-1.3s.17-.27-1.23-.27H48.51v.52m3-.35a7,7,0,0,0-.18.9,1.56,1.56,0,0,0,.31.06c.23,0,.29,0,.28.09a.82.82,0,0,0,.27.9c.18.1.18.11.1.37s-.37,1.21-.41,1.38l-.12.42c0,.17-.16.62-.25,1-.24,1-.25,1-.3,1l-.2.06a.72.72,0,0,0-.23,1.29c.17.11.17.11,0,.69s-.35,1.9-.41,2.27L50.25,43c-.09.59-.2,1.5-.22,1.71v.19l.47,0c.56.07.49.12.56-.45,0-.26.09-.73.14-1s.09-.69.11-.84A54.25,54.25,0,0,1,53.91,31.8c.09-.25.17-.46.16-.46s-.53-.08-1.23-.16L52,31.09c-.39-.05-.44-.05-.46,0m-8.07,2.28a.76.76,0,0,0,.11,1.35.74.74,0,0,0,.65-1.33.79.79,0,0,0-.76,0m0,2.57a1.78,1.78,0,1,0,2.15,2.2A1.78,1.78,0,0,0,43.43,36m.82.85a.91.91,0,0,1,.56.81,1,1,0,1,1-.56-.81m-.72,3.8a.73.73,0,0,0,.31,1.4.74.74,0,0,0,.28-1.44.66.66,0,0,0-.59,0" transform="translate(0 0)"/><path id="path1" class="cls-4" d="M22.25,37.53V56.59H60.37V18.47H22.25V37.53M53.83,21a5.27,5.27,0,0,1,1.05.35,2.81,2.81,0,0,0,.4.17.14.14,0,0,1,.1.07,2.19,2.19,0,0,0,.43.31,2.11,2.11,0,0,1,.32.27.57.57,0,0,0,.21.12c.06,0,.1.06.1.1s.13.19.19.19,0,0,0,.08a.36.36,0,0,0,.13.18,3,3,0,0,1,.48.65,2.62,2.62,0,0,0,.15.33,3.16,3.16,0,0,1,.31.74.71.71,0,0,0,.07.21.67.67,0,0,1,.08.38.84.84,0,0,0,.06.33c.08.14.08,24.05,0,24.18a.83.83,0,0,0-.07.31.69.69,0,0,1-.07.25.61.61,0,0,0-.07.23,1.3,1.3,0,0,1-.13.41,1.17,1.17,0,0,0-.1.27.18.18,0,0,1,0,.12.27.27,0,0,0-.08.15,1.12,1.12,0,0,1-.14.26,4,4,0,0,0-.26.35,6.54,6.54,0,0,1-1.11,1.12l-.33.24a1.79,1.79,0,0,1-.32.19l-.2.08-.27.12a1.55,1.55,0,0,0-.27.12,3.19,3.19,0,0,1-.71.17.77.77,0,0,0-.26.07c-.09.08-23.95.08-24.17,0a1.18,1.18,0,0,0-.39-.06,1.13,1.13,0,0,1-.39-.07,6.36,6.36,0,0,0-.62-.24,1.62,1.62,0,0,1-.37-.19.78.78,0,0,0-.25-.11.12.12,0,0,1-.1-.06.09.09,0,0,0-.07-.06.12.12,0,0,1-.09-.05.18.18,0,0,0-.1-.06.66.66,0,0,1-.19-.12,3.47,3.47,0,0,0-.42-.38.89.89,0,0,1-.27-.3s0-.08-.06-.08a.59.59,0,0,1-.17-.21,4.23,4.23,0,0,0-.42-.54.29.29,0,0,1-.09-.14.33.33,0,0,0,0-.13A4.53,4.53,0,0,1,25,50.6a.43.43,0,0,0,0-.17.87.87,0,0,1-.06-.25.59.59,0,0,0-.07-.26c-.08-.1-.08-24.47,0-24.76s.23-.76.28-.88l.1-.25c0-.1.08-.19.1-.19a.62.62,0,0,0,.14-.24,1.59,1.59,0,0,1,.15-.27s.07-.08.1-.15a5,5,0,0,1,1.3-1.3c.07,0,.14-.07.15-.1l.27-.15a.66.66,0,0,0,.25-.15s.08-.06.18-.09l.26-.1a4.39,4.39,0,0,1,.45-.15L29,21c.22-.08,24.54,0,24.83.05" transform="translate(0 0)"/><path id="path2" class="cls-5" d="M29.11,21.08a5.29,5.29,0,0,0-4.25,4.28c-.08.48-.06,24.18,0,24.54a5.28,5.28,0,0,0,1.35,2.6,7.38,7.38,0,0,0,1,.83,5.05,5.05,0,0,0,2,.73c.67.1,23.64.1,24.2,0a5.2,5.2,0,0,0,4.19-3.57c0-.1.06-.23.08-.31.17-.55.16-.15.18-12.27,0-11.44,0-11.68-.11-12.62a5.16,5.16,0,0,0-.69-1.81,5.68,5.68,0,0,0-1.95-1.85,6.18,6.18,0,0,0-1.49-.53c-.34-.08-24.14-.1-24.57,0M33.2,30.7l.26.56c.13.29.39.84.55,1.18l.26.56.27.57c.07.16.16.36.21.45s.19.41.33.7.25.54.25.56.07,0,.14-.12l.22-.47c.08-.17.24-.52.37-.78l.22-.48s.11-.25.25-.54.29-.6.33-.7c.2-.45.62-1.33.77-1.64l.08-.17H40c2.6,0,2.39,0,2.22.25l-.25.47c-.08.13-.25.44-.38.68l-.24.44s-.22.42-.49.9L39.9,34.8c-.09.17-.24.44-.33.59s-.22.42-.31.58-.18.34-.23.41l-.21.39c-.23.43-.37.69-.67,1.23-.16.3-.39.7-.49.9l-.2.37V42a13.75,13.75,0,0,1-.06,2.73H33.33V39.29l-.17-.3-.33-.6-.94-1.74c-.08-.13-.18-.32-.23-.41l-.2-.36-.27-.51c-.09-.16-.17-.32-.19-.34l-.19-.34-.67-1.24c-.05-.08-.15-.27-.24-.44l-.33-.6a2.81,2.81,0,0,1-.17-.32,1.07,1.07,0,0,0-.09-.16c-.05-.07-.19-.33-.31-.56a7.59,7.59,0,0,0-.48-.87c-.12-.14-.09-.14,2.25-.14H33l.16.34M48,31.19c0,.44,0,3.68,0,7.21,0,5.49,0,6.43,0,6.47a11.08,11.08,0,0,1-1.56,0l-4.09-.07c-1.42,0-2.6-.05-2.62-.06s0-1,0-2.87V39l.15-.26c.24-.45.47-.87.64-1.17l.16-.32a1.3,1.3,0,0,1,.14-.23l.13-.21.15.1A.75.75,0,0,1,41,38.22l-.2.12v2.23c0,2.52,0,2.39.18,2.42a.81.81,0,0,1,.61.58l.07.19,1,0c.56,0,1.52,0,2.14,0h1.11l0-.13a.81.81,0,0,1,.82-.9l.19,0V38.34l-.13,0a.77.77,0,0,1,0-1.45l.14-.06V32.48h-.25a.76.76,0,0,1-.77-.82v-.17h-1l-1,0a1.27,1.27,0,0,1,.12-.26l.26-.47c.07-.12.14-.25.16-.27a9.94,9.94,0,0,1,1.82-.05H48v.79m3.11-.26a2.33,2.33,0,0,1-.08.43c-.23.91-.48,2-.55,2.47,0,.12-.06.36-.1.55a58.61,58.61,0,0,0-.66,6c0,.56-.1,2.05-.15,3.65l0,.84h-1l0-.49c0-.7.06-2.82.15-4.1,0-.6.09-1.21.1-1.37l0-.29-.16-.08a.79.79,0,0,1,.18-1.42l.15,0,0-.3c0-.16,0-.39.06-.5s.05-.37.08-.55c.08-.68.17-1.22.28-1.81,0-.18.08-.42.1-.54s0-.25.06-.31,0-.11-.1-.16a.85.85,0,0,1-.45-.78L49,32h-.5l0-.49c0-.27,0-.52,0-.54a17.35,17.35,0,0,1,2.6,0m1.5.18.8.09.51.06c.26,0,.26,0,0,.59-.1.26-.3.81-.43,1.22-.23.68-.28.83-.37,1.16,0,.06-.06.21-.1.33-.24.79-.64,2.41-.8,3.17a1.85,1.85,0,0,1-.08.33s0,.12,0,.23-.09.48-.15.8c-.12.6-.15.75-.33,1.77-.1.58-.12.71-.23,1.41s-.28,2-.32,2.42l0,.29h-.23l-.53,0-.31,0v-.23c0-.22.09-1,.16-1.41,0-.12.06-.41.1-.64s.07-.52.09-.63.07-.38.1-.59c.09-.61.3-1.76.42-2.35l.06-.29-.21-.21a.77.77,0,0,1,.4-1.32l.15,0c0-.05.2-.88.35-1.47.25-1,.4-1.49.58-2.06s.16-.47,0-.6a.82.82,0,0,1-.3-.72l0-.24-.29,0c-.37,0-.37,0-.14-.88l.06-.21.27,0,.79.08m-8.48,2.18a.8.8,0,0,1,.09,1.46.94.94,0,0,1-.68,0,.79.79,0,0,1,.59-1.47M44.65,36a1.82,1.82,0,1,1-1.8.12,1.82,1.82,0,0,1,1.8-.12m-1,.75a.92.92,0,1,0,.59,0,1.32,1.32,0,0,0-.59,0m.63,3.77a.92.92,0,0,1,.41.6.79.79,0,1,1-.41-.6" transform="translate(0 0)"/><path id="path3" class="cls-6" d="M29,21l-.48.15a4.39,4.39,0,0,0-.45.15l-.26.1c-.1,0-.18.07-.18.09a.66.66,0,0,1-.25.15l-.27.15s-.08.07-.15.1a5.52,5.52,0,0,0-.72.58,5.84,5.84,0,0,0-.58.72c0,.07-.07.14-.1.15a1.59,1.59,0,0,0-.15.27.62.62,0,0,1-.14.24s-.07.09-.1.19l-.1.25c-.05.12-.21.62-.28.88s-.08,24.66,0,24.76a.59.59,0,0,1,.07.26.87.87,0,0,0,.06.25.43.43,0,0,1,0,.17,4.53,4.53,0,0,0,.33.77.33.33,0,0,1,0,.13.29.29,0,0,0,.09.14,4.23,4.23,0,0,1,.42.54.59.59,0,0,0,.17.21s.05,0,.06.08a.89.89,0,0,0,.27.3,3.47,3.47,0,0,1,.42.38.66.66,0,0,0,.19.12.18.18,0,0,1,.1.06.12.12,0,0,0,.09.05.09.09,0,0,1,.07.06.12.12,0,0,0,.1.06.78.78,0,0,1,.25.11,1.62,1.62,0,0,0,.37.19,6.36,6.36,0,0,1,.62.24,1.13,1.13,0,0,0,.39.07,1.18,1.18,0,0,1,.39.06c.22.07,24.08.07,24.17,0a.77.77,0,0,1,.26-.07,3.19,3.19,0,0,0,.71-.17,1.55,1.55,0,0,1,.27-.12l.27-.12.2-.08a1.79,1.79,0,0,0,.32-.19l.33-.24A6.54,6.54,0,0,0,57,52.05a4,4,0,0,1,.26-.35,1.12,1.12,0,0,0,.14-.26.27.27,0,0,1,.08-.15.18.18,0,0,0,0-.12,1.17,1.17,0,0,1,.1-.27,1.3,1.3,0,0,0,.13-.41.61.61,0,0,1,.07-.23.69.69,0,0,0,.07-.25A.83.83,0,0,1,58,49.7c.08-.13.08-24,0-24.18a.84.84,0,0,1-.06-.33.67.67,0,0,0-.08-.38.71.71,0,0,1-.07-.21,3.16,3.16,0,0,0-.31-.74,2.62,2.62,0,0,1-.15-.33,3,3,0,0,0-.48-.65.36.36,0,0,1-.13-.18s0-.08,0-.08-.19-.12-.19-.19,0-.08-.1-.1a.57.57,0,0,1-.21-.12,2.11,2.11,0,0,0-.32-.27,2.19,2.19,0,0,1-.43-.31.14.14,0,0,0-.1-.07,2.81,2.81,0,0,1-.4-.17A5.27,5.27,0,0,0,53.83,21C53.54,21,29.22,20.91,29,21m24.68.11A5.17,5.17,0,0,1,57.89,26c0,.33,0,3.38,0,11.93,0,12.12,0,11.72-.18,12.27,0,.08-.05.21-.08.31a5.2,5.2,0,0,1-4.19,3.57c-.56.1-23.53.1-24.2,0a5.05,5.05,0,0,1-2-.73,7.38,7.38,0,0,1-1-.83,5.28,5.28,0,0,1-1.35-2.6c-.08-.36-.1-24.06,0-24.54a5.29,5.29,0,0,1,4.25-4.28c.43-.08,24.23-.06,24.57,0" transform="translate(0 0)"/><path id="path4" class="cls-7" d="M28.47,30.4a1.14,1.14,0,0,0,.17.31.52.52,0,0,0-.06-.16l-.08-.15H33l.15.33c.08.19.24.52.34.74l.45,1c.15.31.33.7.4.86.36.76.74,1.57.85,1.82s.16.35.39-.14l.36-.76.17-.37.29-.62c.16-.33.36-.76.45-1l.4-.85a5.32,5.32,0,0,0,.22-.51.66.66,0,0,0-.14.24c-.17.35-.39.83-.49,1s-.19.41-.33.7-.25.53-.25.54l-.22.48c-.13.26-.29.61-.37.78l-.22.47c-.07.14-.14.21-.14.12s-.12-.27-.25-.56-.29-.6-.33-.7-.14-.29-.21-.45L34.27,33,34,32.44c-.16-.34-.42-.89-.55-1.18l-.26-.56L33,30.36H30.75c-1.4,0-2.28,0-2.28,0m9.24,0a1.94,1.94,0,0,0-.2.46.55.55,0,0,0,.12-.22l.11-.23H40c1.24,0,2.25,0,2.25,0s-.07.14-.14.28l-.39.71c-.13.25-.28.51-.32.58s-.07.14-.06.15a3.84,3.84,0,0,0,.3-.49L42,31l.2-.36a.62.62,0,0,0,.1-.24s-4.53,0-4.57,0m6.66.06s-.09.15-.16.27l-.26.47a1.27,1.27,0,0,0-.12.26l1,0h1v.19a1,1,0,0,0,0,.23s0-.07,0-.21v-.25h-1a9,9,0,0,1-1,0s.12-.24.26-.49l.25-.47H46.2c1,0,1.78,0,1.78,0s-3.57,0-3.61,0m-15.71.32a.11.11,0,0,0,0,.07s.14.24.27.49.28.53.33.6a1.07,1.07,0,0,1,.09.16,2.81,2.81,0,0,0,.17.32l.33.6c.09.17.19.36.24.44l.67,1.24L31,35s.1.18.19.34l.27.51.2.36c.05.09.15.28.23.41l.94,1.74.33.6.17.3v5.44H37.4A13.75,13.75,0,0,0,37.46,42V39.27l.2-.37c.1-.2.33-.6.49-.9.3-.54.44-.8.67-1.23l.21-.39c0-.07.15-.26.23-.41s.23-.42.31-.58.24-.42.33-.59l.92-1.69c.27-.48.49-.9.49-.91s-.07,0-.18.26l-.56,1c-.25.45-.51.92-.57,1L38.09,38c-.24.43-.48.88-.55,1l-.12.22v5.42H33.34V39.27l-.19-.36a4.53,4.53,0,0,0-.23-.41l-.19-.34-.34-.63-.32-.59-.71-1.3L31,35.05l-.35-.63c-.08-.15-.19-.35-.24-.46-.77-1.39-1-1.86-1.11-2l-.23-.42c-.4-.75-.45-.83-.45-.75M48.49,31s0,.27,0,.54l0,.49H49l0,.16a.85.85,0,0,0,.45.78c.1.05.12.07.1.16s0,.2-.06.31-.07.36-.1.54c-.09.5-.13.73-.13.81s0,0,.11-.45l.16-.87c.09-.45.09-.48,0-.51A.74.74,0,0,1,49,32.2V32h-.53v-1h1.26c1.4,0,1.31,0,1.23.27s-.24,1-.24,1,.06,0,.1-.24.09-.39.15-.61a2.33,2.33,0,0,0,.08-.43,17.35,17.35,0,0,0-2.6,0m3,.26c-.23.84-.23.85.14.88l.29,0,0,.24a.82.82,0,0,0,.3.72c.17.13.17.11,0,.6-.2.67-.59,2-.59,2.13s.07-.09.31-1c0-.17.32-1.11.41-1.38s.08-.27-.1-.37a.82.82,0,0,1-.27-.9s-.05-.06-.29-.09-.35,0-.22-.55l.11-.44.13,0,.13,0h-.14c-.14,0-.14,0-.2.19m.57-.12.78.09c.7.08,1.24.14,1.25.16s-.07.21-.16.46a37.39,37.39,0,0,0-1.41,4.58,32.6,32.6,0,0,0-.7,3.36s.22-1,.3-1.45c0-.11,0-.21,0-.23a1.85,1.85,0,0,0,.08-.33c.16-.76.56-2.38.8-3.17,0-.12.08-.27.1-.33.09-.33.14-.48.37-1.16.13-.41.33-1,.43-1.22.23-.59.23-.56,0-.59l-.51-.06c-.76-.1-1.29-.15-1.43-.15s-.11,0,.08,0M46,32c0,.21.37.46.7.46h.25v4.31l-.14.06a.77.77,0,0,0,0,1.45l.13,0v4.47l-.19,0a.81.81,0,0,0-.82.89l0,.14h0l0-.15a.77.77,0,0,1,.85-.86l.15,0V38.33l-.16-.08a.72.72,0,0,1,0-1.37l.12-.05V32.44h-.2a.71.71,0,0,1-.65-.3C46,32.06,46,32,46,32m4.77.27-.21,1a5.12,5.12,0,0,0-.13.76s0,0,0-.11.19-1,.28-1.36a1.12,1.12,0,0,0,0-.3s0,0,0,0m-7.15,1a.79.79,0,0,0,.27,1.54.79.79,0,0,0,.78-.89c0-.11,0-.1,0,.08a.74.74,0,1,1-.1-.36c0,.09.1.13.1.1,0-.31-.64-.6-1-.47m6.76.9-.11.76c-.06.41-.13.89-.15,1.06s0,.37-.06.42c0,.21-.17,1.49-.17,1.63s0,0,.06-.29c.11-1,.21-1.81.28-2.27a9.25,9.25,0,0,0,.18-1.31h0M49.18,35c0,.11,0,.36-.08.56-.06.4-.07.78,0,.45a9.9,9.9,0,0,0,.14-1.15s0,0,0,.14m-5.44.85H44c.07,0,0,0-.13,0s-.19,0-.12,0M43.2,36a1.83,1.83,0,1,0,2.3.89,2,2,0,0,0-1.27-1c-.1,0-.1,0,.07.06a1.79,1.79,0,1,1-.87,0c.15-.05.17-.05.07-.06a1.12,1.12,0,0,0-.3.08m4.8.74c0,.46,0,.64,0,.41s0-.62,0-.84,0,0,0,.43m3.53-.65c0,.11-.07.29-.1.4s-.17.73-.17.75l-.15,0a.77.77,0,0,0-.4,1.32l.21.21-.06.29c-.06.3-.21,1.14-.31,1.66a7.3,7.3,0,0,0-.16,1.11s0,0,0-.14l.09-.51.15-.84c.16-.91.21-1.18.25-1.32s0-.31-.12-.42A.73.73,0,0,1,51,37.3l.2-.06s.07-.07.25-.81a3.5,3.5,0,0,0,.1-.52s0,.05-.06.15M49,36.37a4.1,4.1,0,0,0-.06.7,4.71,4.71,0,0,0,.1-.82s0,0,0,.12m-5.59.46A.93.93,0,0,0,43,38a1,1,0,1,0,.46-1.16m.78,0a.92.92,0,1,1-.59,0,1.32,1.32,0,0,1,.59,0m-3.43.23a1.3,1.3,0,0,0-.14.23l-.16.32c-.17.3-.4.72-.64,1.17l-.15.26v2.85c0,1.82,0,2.86,0,2.87s1.2,0,2.62.06l4.09.07a14.28,14.28,0,0,0,1.55,0,29.84,29.84,0,0,0,0-3.3v3.29l-1.5,0c-5.34-.08-6.68-.1-6.72-.12a21.29,21.29,0,0,1,0-2.88l0-2.87.12-.21a14,14,0,0,1,1-1.83.45.45,0,0,1,.16.1.71.71,0,0,1-.15,1.19l-.18.09v2.32c0,2.54,0,2.37.24,2.42a.88.88,0,0,1,.54.51c.06.29,0,.27,1,.26h.94l-.91,0-.91,0-.07-.19A.81.81,0,0,0,41,43c-.19,0-.18.1-.18-2.42V38.34l.2-.12A.75.75,0,0,0,41,36.94l-.15-.1-.13.21m8,.11a.79.79,0,0,0-.14,1.41l.16.08,0,.29c0,.16,0,.77-.1,1.37-.09,1.28-.16,3.4-.15,4.1l0,.49H49c.48,0,.51,0,.52-.07s0-.06,0,0-.16.05-.51.05h-.5v-.68c0-1.09.14-3.79.25-5,.05-.56.05-.59-.07-.62-.64-.16-.49-1.38.17-1.38,0,0,.07,0,.07,0s0,0-.2,0m-.74.63c0,.1,0,.14,0,.09a.49.49,0,0,0,0-.17c0-.05,0,0,0,.08m1.82.48s0,.5-.08,1-.07,1.06-.07,1.2,0,.22,0-.15.06-.78.1-1.22.05-.83,0-.86,0,0,0,0m1.95,1.51c-.08.4-.46,2.78-.46,2.85s.05-.07.13-.6c0-.25.08-.53.1-.63.14-.74.26-1.53.25-1.58s0,0,0,0m-8.2.74A.79.79,0,0,0,43.84,42a.72.72,0,0,0,.77-.56.8.8,0,0,0-1-1m.56,0A.74.74,0,0,1,43.84,42a.73.73,0,0,1-.31-1.4.66.66,0,0,1,.59,0m5.49.64c0,.48-.07,2.51,0,2.33s.1-2.73.09-2.75a2,2,0,0,0,0,.42m.71.89c0,.1,0,.34-.07.53-.15,1-.25,1.77-.26,2.05v.23l.31,0,.53,0h.23l0-.29c0-.29.12-1.06.19-1.48,0-.26.05-.45,0-.42s-.12.78-.23,1.67c-.07.57,0,.52-.56.45l-.47,0v-.19c0-.21.13-1.13.22-1.73a5.16,5.16,0,0,0,.12-1s0,.07,0,.17m-.8,2.2c0,.23,0,.32,0,.2a2.94,2.94,0,0,0,0-.42c0-.11,0,0,0,.22" transform="translate(0 0)"/></g></svg>