<svg id="Layer_1" data-name="Layer 1" xmlns="http://www.w3.org/2000/svg" viewBox="0 0 80 84.2"><defs><style>.cls-1{fill:#f2f2f2;}.cls-2{fill:#fcfcfc;}.cls-10,.cls-2,.cls-3,.cls-4,.cls-5,.cls-6,.cls-7,.cls-8,.cls-9{fill-rule:evenodd;}.cls-3{fill:#cc1424;}.cls-4{fill:#c4c4c4;}.cls-5{fill:#dc5464;}.cls-6{fill:#1375b7;}.cls-7{fill:#2463af;}.cls-8{fill:#5c5c5c;}.cls-9{fill:#04aac4;}.cls-10{fill:#fbac24;}</style></defs><path class="cls-1" d="M40,0h0A40,40,0,0,1,80,40h0A40,40,0,0,1,40,80h0A40,40,0,0,1,0,40H0A40,40,0,0,1,40,0Z" transform="translate(0 0)"/><g id="svgg"><path id="path0" class="cls-2" d="M24.77,79.32v4.84H53.86V74.48H24.77v4.84" transform="translate(0 0)"/><path id="path1" class="cls-3" d="M24.73,69.58v4.85H53.9v-9.7H24.73v4.85" transform="translate(0 0)"/><path id="path2" class="cls-4" d="M24.76,74.48s0,9.66,0,9.69,29.09,0,29.12,0,0-1.3,0-4.86V74.47H24.76m29.1,4.84v4.84H24.77V74.48H53.86v4.84" transform="translate(0 0)"/><path id="path3" class="cls-5" d="M24.74,74.44s4.86,0,14.58,0,14.58,0,14.57,0-29.13,0-29.15,0" transform="translate(0 0)"/><path id="path4" class="cls-5" d="M24.73,64.73" transform="translate(0 0)"/></g><g id="svgg-2" data-name="svgg"><path id="path0-2" data-name="path0" class="cls-6" d="M15.08,29.12s0,0,.05,0a.18.18,0,0,1,.11.05.13.13,0,0,0,.07,0s0,0,0-.05-.18-.09-.2-.06m-.24.07c-.06.06-.06.08,0,.11s0,0,0,0a.38.38,0,0,1,0-.16s0,0-.07,0m0,.31s0,.05.06.07.08,0,0-.05-.07-.05-.07,0m8.28.05a0,0,0,0,0,0,0s0-.05,0-.07,0,0,0,0m-7.89.11.08.08s-.07-.13-.11-.14,0,0,0,.06m1,.48c.06.08.09.08.06,0a.14.14,0,0,0-.07-.06c-.06,0-.06,0,0,.05m.25.18s.08.1.1.08l-.05-.06s0,0,0,0m.22.19s.07.06.08,0-.08-.12-.12-.12,0,0,0,.07m.17.12s.07.05.08,0-.08-.09-.12-.09,0,0,0,.05m.17.17s.07.05.08,0-.08-.09-.12-.09,0,0,0,.05m.32.37a.15.15,0,0,0,.08,0s0,0,0,0a.17.17,0,0,0-.07-.06s0,0,0,.06m.35.48c.08.09.1.1.06,0a.18.18,0,0,0-.08-.07s0,0,0,0m.18.33S18,32,18,32s-.06-.1-.09-.1,0,0,0,.06m.15.35.08.07s-.07-.12-.1-.14,0,0,0,.07m.09.29a.44.44,0,0,0,.09.26c.06,0,.08,0,.05,0s0-.06,0-.07,0,0,0-.05a.13.13,0,0,1-.07-.09s0,0,0,0M8.06,33.5s0,.08,0,.08,0,.47,0,4.13c0,4.12,0,4.13,0,4.13s.06,0,.06.11,0,.09,0,0,0,0,0,0,0,.06,0,0l0-.09,0,.08c0,.09.26.21.42.21a.19.19,0,0,1,.15.09.27.27,0,0,0,.17.08.22.22,0,0,1,.17.08c.07.08.1.09.25.09s.18,0,.26.08a.22.22,0,0,0,.15.09,1.17,1.17,0,0,1,.37.14l.14,0a.26.26,0,0,1,.17.09.24.24,0,0,0,.16.08.29.29,0,0,1,.16.09.32.32,0,0,0,.17.08.24.24,0,0,1,.16.08c.07.08.1.09.25.09s.18,0,.26.08a.21.21,0,0,0,.16.09.21.21,0,0,1,.17.08.22.22,0,0,0,.17.08.21.21,0,0,1,.15.07c.06.06.09.07.25.07h.17v.09c0,.08,0,.08.17.08s.34.12.34.26,0,0,0-.06l0-.13,0,.14,0,.14,0-.15c0-.21.07-.12.08.2v.23l0-.25c0-.22,0-.19,0,.21a1.72,1.72,0,0,1,0,.49s0,0,0,.07,0-8.66,0-9.88c0-.47,0-.51,0-.22,0,1.23-.08,1.88-.1,1v-.37l0,.37,0,.36V36.1c0-.32-.06-.54-.07-.3v.12l0-.11c0-.06,0-.1,0-.1s-.16,0-.16-.07,0-.07-.25-.07h-.25V35.4h-.34v-.17h-.34v-.17H11.4v-.17h-.34v-.16h-.5v-.17h-.17c-.16,0-.17,0-.17-.07s0-.07-.17-.09-.17,0-.17-.08,0-.07-.16-.07H9.55v-.09c0-.08,0-.08-.14-.08s-.34,0-.34-.1,0-.06-.17-.08-.17,0-.17-.08-.11-.1-.38-.1c-.12,0-.12,0-.12-.1s0-.1,0-.11,0,0,0,.12a.42.42,0,0,1,0,.16s0,0,0-.13a.7.7,0,0,0,0-.2s0,0,0,0m10.3.1c0,.08,0,.1,0,0a.08.08,0,0,0,0-.07s0,0,0,0M18.53,40c0,2.31,0,4,0,3.71a2.17,2.17,0,0,1,0-.43v.05l0-.05s0,0,0,0v.1l0-.1,0-.1v.23l0-.12,0-.11v.14c0,.19.05.27.06.1s0-.11,0,0,0,.09.09.09.08,0,.08.08v.08h.84v.07c0,.07,0,.07.21.07.35,0,.47,0,.47.11s0,.06.21.06.43,0,.43.1,0,.07.16.07c.47,0,.68,0,.68.1s0,.07.22.07.43,0,.43.1,0,.07.33.07h.34v.16h.53v-.13c0,.22.06.28.07.07s.05-.29.05-.05.05.16.06-.2c0-.16,0-.26,0-.22s.07-.19.08-2.9a25.36,25.36,0,0,0-.07-3.58l0-.17v.17c0,.14,0,.16-.06.14s-.05,0-.06.06,0,0,0-.07,0-.14,0-.07,0,.07,0,0-.06-.05-.17-.05a.71.71,0,0,1-.23,0,.87.87,0,0,0-.54-.13c-.23,0-.25,0-.32-.09s-.09-.08-.32-.08a1,1,0,0,1-.55-.14.43.43,0,0,0-.2,0,.82.82,0,0,1-.34-.08.78.78,0,0,0-.33-.09.68.68,0,0,1-.23,0l-.12,0a.16.16,0,0,1-.1,0,.48.48,0,0,0-.21,0,.7.7,0,0,1-.24,0,.59.59,0,0,0-.2,0,.34.34,0,0,1-.16,0,.41.41,0,0,0-.22,0,.89.89,0,0,1-.45-.13c-.07,0-.08,0-.08,0s0,0,0,0l0-.06v.12l0-.06c0-.05,0-.05,0,0s0,.05-.07,0h-.07a2.34,2.34,0,0,1,0-.39c0-.22,0,1.49,0,3.8m-5,6,.07,0s.06,0,.05,0-.12,0-.12,0m.19.85c0,.06.14.13.14.09s-.07-.09-.13-.13,0,0,0,0m.17.47s.11.13.13.11,0,0-.06-.08-.07,0-.07,0m.14.38s0,.06.09.08.08,0,.08,0a0,0,0,0,0,0,0,.19.19,0,0,1-.08-.05s-.06,0-.06,0m.52,1a.19.19,0,0,0,.09.09c.08,0,.08,0,0,0s-.11-.1-.09-.05m.36.52a.29.29,0,0,0,.07.08s0,0,0-.06-.1-.09-.05,0m.37.48s.06.05.06,0-.05-.1-.08-.1,0,0,0,.06m.07.09.08.09c.06.05.08.07.07,0s-.15-.15-.15-.13m.2.21a.15.15,0,0,0,0,.08s.06,0,.06,0L15.6,50s0,0,0,0m.15.19a.2.2,0,0,0,.08.08c.05,0,.05,0,0,0s-.09-.09-.07,0m.17.17a.14.14,0,0,0,.08.07c.05,0,.05,0,0,0s-.09-.09-.07,0m.15.17s.08.11.1.09l-.05-.06s-.05,0-.05,0" transform="translate(0 0)"/><path id="path1-2" data-name="path1" class="cls-7" d="M9.15,29.34a.27.27,0,0,1-.24.09c-.12,0-.16,0-.17.05v.08s0,0-.09,0-.08,0-.08.08,0,.08-.08.09-.08,0-.09.09,0,.07-.05.06a.1.1,0,0,0-.12.1s0,.05-.08.07-.08,0-.08.05,0,.27-.05.27S8,30.6,8,32a6.46,6.46,0,0,0,0,1.59s0,0,0-.08,0-.07,0,0a.7.7,0,0,1,0,.2c0,.09,0,.14,0,.13a.42.42,0,0,0,0-.16q0-.14,0-.12s0,.06,0,.11,0,.1.12.1c.27,0,.38,0,.38.1s0,.06.17.08.17,0,.17.08.09.1.34.1.14,0,.14.08v.09h.17c.15,0,.16,0,.16.07s0,.07.17.08.17,0,.17.09,0,.07.17.07h.17v.17h.5v.16h.34v.17h.47v.17h.34v.17h.34v.17h.25c.25,0,.25,0,.25.07s0,.07.16.07,0,0,0,.1l0,.11V35.8c0-.24.06,0,.07.3v.32l0-.36,0-.37v.37c0,.87.07.26.1-1,0-.31,0-.3,0,.17s0,.32,0-.5v-1h.06c.08,0,.11,0,.11-.22s0-.14.12-.12,0,0,0,0a0,0,0,0,1,0,0,0,0,0,0,0,0,0c0-.15,0-.21.09-.23S14,33,14,33s0-.08,0-.07.13-.08.12-.12,0,0,0-.06l0,0s0,0,0,0,0,0,0-.07,0,0,0,0h.14s0,0,0,0,0-.11.12-.13.08,0,.08,0,0-.12.12-.12.19,0,.19-.12,0,0,.25,0,.24,0,.25-.05v-.07s.08-.05.46-.05.44,0,.43,0,0,.12.09.1,0,0,0,0a.83.83,0,0,0,.25,0c.22,0,.25,0,.24,0s0,.13.17.13.15,0,.15,0,0,0,0,.05a.15.15,0,0,1,0,.06.08.08,0,0,0,.07,0c.05,0,.07,0,.09.08s0,.09.08.09.07,0,.08.07a.09.09,0,0,0,.09.09c.06,0,.07,0,.07.08s.14.29.21.19a.17.17,0,0,0,0-.07s0,0,0,0a0,0,0,0,0,.05,0s.05,0,.08,0,.05,0,0,0a.51.51,0,0,1-.09-.34.23.23,0,0,0-.08-.21.22.22,0,0,1-.09-.19.19.19,0,0,0-.08-.17.2.2,0,0,1-.09-.15.23.23,0,0,0-.08-.16.27.27,0,0,1-.08-.16c0-.06,0-.08-.08-.1a.11.11,0,0,1-.08-.08c0-.08-.15-.23-.45-.52s-.4-.39-.45-.4-.07,0-.09-.08a.11.11,0,0,0-.1-.08.29.29,0,0,1-.14-.08.25.25,0,0,0-.1-.08c-.09,0-.14,0-.16-.08s0-.07-.05-.07H15.8a.12.12,0,0,1-.09-.07c0-.06-.06-.07-.2-.08a.42.42,0,0,1-.24-.09.26.26,0,0,0-.18-.07c-.14,0-.19,0-.22-.11s0-.06-.28-.06-.36-.05-.28-.13,0,0,0,0,0,0,0,0-1,0-2.5,0H9.24l-.09.08m0,0s0,.05-.06,0,0-.09.08-.09,0,0,0,.05m14.93,14c0,.73,0,1-.06.81s0,.08,0,.23c0,.37-.05.51-.06.2s-.05-.21-.05.05-.06.15-.07-.07v.13h-.53v-.16H23c-.33,0-.33,0-.33-.07s-.09-.1-.43-.1-.22,0-.22-.07-.21-.1-.68-.1c-.15,0-.16,0-.16-.07s-.09-.1-.43-.1-.21,0-.21-.06-.12-.11-.47-.11c-.2,0-.21,0-.21-.07v-.07H19v-.08c0-.07,0-.08-.08-.08s-.08,0-.09-.09,0-.07,0,0-.06.09-.06-.1v-.14l0,.11,0,.12v-.23l0,.1,0,.1v-.1c0-.08,0-.09,0,0l0,.05v-.05c0-.07-.05,1.23-.05,1.84,0,.45,0,.55-.14.55s0,.08,0,.19a.41.41,0,0,1-.06.26s-.05.06-.05,0-.06.07-.06.12,0,.08-.12.07,0,0,0,0,0,0,0,0,0,0,0,0,0,.22-.08.22-.08,0-.08.07,0,.09-.1.1-.07,0-.07,0,0,.13-.09.13-.08,0-.08.09,0,.08-.09.08a.29.29,0,0,0-.14,0s-.05,0-.06,0,0,0,0,.06-.13.12-.31.09c0,0,0,0,0,0s0,.12-.31.12l-.38,0q-.08,0-.06,0s0,0,0,0a0,0,0,0,0,0,0s0,0,0,0,0,0,0,.05a.08.08,0,0,1,0,.07s0,0,0,0-.05-.14-.09-.14,0,0,0,0,0,0,0,0a1,1,0,0,0-.37,0c-.28,0-.33,0-.32,0s-.05-.11-.18-.12a.29.29,0,0,1-.19-.09.25.25,0,0,0-.14-.08c-.12,0-.14,0-.12-.08s0-.05-.07-.08l-.1-.05a.13.13,0,0,0,0-.1.08.08,0,0,0-.07,0s-.06,0-.07-.07,0-.11,0-.14a.23.23,0,0,1,0-.07l0,0-.09,0s0,0,0,0,0,0-.09,0-.07,0-.06,0,0,0,0,0,0,0,0,0a0,0,0,0,1,0,0c-.08,0,0,.24,0,.31s.07.08.07.24,0,.19.09.25a.21.21,0,0,1,.08.2c0,.12.07.23.14.23a.45.45,0,0,1,0,.18c0,.15,0,.18.06.19s.1,0,.1.15,0,.16.12.16,0,0,0,.09a.2.2,0,0,0,.08.17.24.24,0,0,1,.08.16c0,.06,0,.08.07.09a.08.08,0,0,1,.07.08.31.31,0,0,0,.09.15.43.43,0,0,1,.1.16v.09s0,0,.07,0,.07,0,.07.08,0,.08.06.09a.14.14,0,0,1,.1.07.38.38,0,0,0,.1.13c.17.18.57.62.61.68s.06.08.09.08a.07.07,0,0,1,.05.06c0,.07.36.06.37,0s0,0,0,0,0,.05,0,0,.21-.07.34,0,0,0,0-.08,0-.08.23-.09.27,0,.28,0v-.08s.05,0,.21,0,.27,0,.28-.1,0-.06.26-.06.25,0,.25-.14A1.18,1.18,0,0,1,19,50s0,0,0-.08v-.08h.23c.21,0,.24,0,.26-.07s.05-.07.23-.07.32-.06.28-.14.07,0,.2,0,.32,0,.32-.14,0,0,.16,0h.19l.07,0s0,0,.05-.06,0-.07.22-.08.29,0,.29-.13a.73.73,0,0,1,.37,0s.13-.1.11-.14,0,0,.2,0,.33,0,.33-.11,0-.05.15-.05.15,0,.15-.09,0-.08.07-.08.16,0,.15-.06,0,0,0,0,0,0,0,0,0,0,0,0,0,0,0-.11,0,0,.06,0h.09s0,0,0-.07,0-.08.1-.09.09,0,.09-.09,0-.07.08-.1.08,0,.08-.09,0-.2.07-.2.1,0,.1-.14a.09.09,0,0,1,0-.06h.06s.05,0,.08-.3A.45.45,0,0,1,24,47c.13,0,.13.06.13-2.28,0-1.2,0-2.19,0-2.19s0,.37,0,.82M13.53,46c0,.06,0,.07.05.06a.06.06,0,0,1,.07,0s0,0,0,0-.09-.19-.13-.19,0,0,0,.07" transform="translate(0 0)"/><path id="path2-2" data-name="path2" class="cls-8" d="M18.8,26.13a.45.45,0,0,1-.05.08c-.05.06-.05.06,0,0s.09-.15,0-.15,0,0,0,0m-.71,1.23s0,.05,0,.05a.07.07,0,0,0,.06,0c0-.07,0-.07-.05,0m-.25.13c0,.07,0,.08.08,0s0-.08,0-.08-.06,0-.06,0m-3.58.14a.14.14,0,0,0,.09.09s0,0,0-.06,0-.05-.06-.05l-.05,0m2.38.53s0,.05-.06.06,0,0,0,0,.12,0,.11-.09,0,0,0,0m-1.88,1s0,0,0,0,0,0,0,0,0,.14,0,.14,0,0,0,0,0,0,0,0,0,0,0-.09.06-.06,0-.06a.11.11,0,0,0-.09,0m-5.63.16s0,0,0,.06,0,0,.07,0,0-.05,0-.06a.07.07,0,0,0-.07,0m14,.15s0,0,0,.07.1,0,.05-.05-.07-.06-.09,0m34.89.14a.29.29,0,0,0-.07.08.11.11,0,0,1-.1.06c-.05,0-.07,0-.08.07a.13.13,0,0,1-.08.08.09.09,0,0,0-.07.08.09.09,0,0,1-.09.09c-.07,0-.07,0-.08.18s0,.18-.06.18-.11,0-.11,6.35V43h.16v.46l.08,0c.07,0,.08,0,.08.08s0,.1.68.1.64,0,.64-.1,0-.07,0-.07h.07s0,0,0-.1,0-.09.07-.1.1,0,.1-1.89V39.72h.07c.06,0,.08,0,.09-.08s0-.08.08-.09.08,0,.09-.08,0-.08.08-.08.06,0,.06-.09,0-.08.08-.08a.18.18,0,0,0,.11,0c.11-.09.14-.12.22-.14a.14.14,0,0,0,.1-.1s0-.07.08-.07.07,0,.08-.08a.09.09,0,1,1,.17,0c0,.07,0,.08.09.08s.08,0,.09.16,0,.17.08.17a.09.09,0,0,1,.09.09c0,.06,0,.08.08.08s.08,0,.08.16,0,.16.08.17.09,0,.09.09,0,.06.08.06h.09v.34h.08c.07,0,.08,0,.08.09s0,.08.07.08.07,0,.09.17,0,.17.08.17.07,0,.08.07,0,.08.08.09.08,0,.08.14,0,.2.12.2.05,0,.05.08,0,.08.09.08.08,0,.08.15,0,.15.08.18.08.05.08.09,0,.06.09.06.08,0,.09.17,0,.16.08.17.08,0,.09.08,0,.08.08.08.08,0,.09.17,0,.16.08.17.08,0,.08.09,0,.08.08.08.09,0,.09.16,0,.15.08.17a.09.09,0,0,1,.09.09s0,.08.07.08.06,0,.06.06a.13.13,0,0,0,.12.12,0,0,0,0,1,.05,0c0,.1,0,.11.58.11s.6,0,.6-.12,0,0,.08,0,.08,0,.08-.08,0-.08.06-.08.12-.06.11-.54v-.46h-.08c-.07,0-.07,0-.07-.14s0-.2-.12-.2-.05,0-.05-.06,0-.25-.1-.25-.07,0-.07-.08,0-.08-.08-.08-.09,0-.09-.08-.07-.23-.12-.23,0,0,0-.1,0-.1-.08-.1-.08,0-.08-.08,0-.09-.09-.09-.08,0-.09-.16,0-.16-.08-.17-.08,0-.08-.09,0-.08-.08-.08-.09,0-.09-.15,0-.15-.08-.17-.09,0-.09-.09,0-.07-.08-.09-.08,0-.09-.16,0-.14-.07-.15-.06,0-.07-.08a.09.09,0,0,0-.09-.09c-.06,0-.07,0-.07-.09s0-.08-.09-.08-.08,0-.09-.16,0-.16-.08-.17-.08,0-.08-.09,0-.08-.08-.08-.09,0-.09-.16,0-.15-.08-.17a.09.09,0,0,1-.09-.09c0-.06,0-.08-.08-.08s-.08,0-.09-.16,0-.14-.08-.15-.08,0-.08-.09,0-.09-.09-.09-.08,0-.08-.12-.05-.21-.13-.21,0,0,0-.09,0-.08.09-.08.08,0,.08-.08,0-.09.07-.09.21,0,.23-.11.05-.06.09-.07a.11.11,0,0,0,.1-.09.07.07,0,0,1,.07-.06.12.12,0,0,0,.11-.12s0-.05.07-.05.08,0,.09-.09,0-.08.09-.08.07,0,.08-.08,0-.09.09-.09.08,0,.08-.09,0-.08.09-.08a.12.12,0,0,0,.08,0v-.08s0,0,.08,0,.07,0,.07-.08,0-.08.08-.08.08,0,.08-.07,0-.07.09-.07.08,0,.08-.09,0-.08.08-.09.08,0,.09-.08,0-.08.09-.08.08,0,.08-.08,0-.09.08-.09.09,0,.09-.08,0-.09.08-.09.08,0,.08-.08,0-.08.09-.08.08,0,.08-.09,0-.08.07-.08.1,0,.1-.37v-.27l-.08,0c-.08,0-.08,0-.09-.16s0-.15-.09-.16-.07,0-.08-.08,0-.08-.17-.09-.16,0-.17-.08v-.08H64c-.29,0-.37,0-.35.11s0,0-.08,0-.09,0-.09.08,0,.09-.09.09-.08,0-.08.08,0,.08-.09.08-.08,0-.08.07,0,.07-.08.08-.08,0-.08.08,0,.08-.15.09-.15,0-.17.11-.05.08-.08.08a.08.08,0,0,0-.08.07.2.2,0,0,1-.1.08.11.11,0,0,0-.09.09.08.08,0,0,1-.07.07.12.12,0,0,0-.09.07c0,.1-.07.12-.12.1s0,0,0,.08,0,.08-.09.08-.07,0-.07.08a.09.09,0,0,1-.09.09c-.06,0-.08,0-.08.09s0,.08-.08.08-.08,0-.08.08,0,.09-.09.09-.08,0-.08.08,0,.09-.09.09-.08,0-.08.08,0,.08-.08.09-.08,0-.08.07,0,.06-.09.07-.09,0-.09.09,0,.07-.07.08-.08,0-.09.08,0,.08-.08.09-.08,0-.09.08,0,.08-.08.08-.07,0-.08.08,0,.09-.09.09-.08,0-.08.09,0,.07-.09.08-.08,0-.08.09,0,.07-.08.07-.07,0-.09.09,0,.08-.08.08-.07,0-.07.09,0,.08-.08.08-.08,0-.08.08,0,.09-.09.09H59.3V33.77c0-3.87,0-3.7-.13-3.7s0,0,0-.07a.1.1,0,0,0-.14-.08s0,0,0-.07,0-.09-.08-.09-.25,0-.26-.09a.89.89,0,0,0-.57-.05m-27.18.21a.3.3,0,0,1-.14.07.12.12,0,0,0-.13.12s0,.05-.11.06a.22.22,0,0,0-.2.24c0,.08,0,.09-.09.09s-.08,0-.08.17,0,.16-.08.17H30v.8l.08,0c.09,0,.09,0,.09.16s0,.15.08.15.09,0,.09.17v.16h.16c.1,0,.16,0,.15,0s0,.14.17.14.15,0,.16.08l0,.09h.94v-.07c0-.06,0-.07.18-.08s.16,0,.18-.09,0-.08.08-.08.07,0,.07-.08,0-.09.08-.09.09,0,.09-.08,0-.08.07-.09h.08v-.73c0-.63,0-.73,0-.73h-.08s0,0,0-.08,0-.09-.09-.09-.08,0-.08-.08,0-.09,0-.08-.12,0-.12-.06-.09-.12-.16-.11-.17,0-.19-.08l0-.07h-.48c-.48,0-.49,0-.56.07m-7,.32s0,0,0,.07.06,0,.07,0a0,0,0,0,0,0,0s0,0,0,0,0-.06-.06,0m-5.77,2.77s0,0,0,.06,0,.05,0,.06,0,0,0,0,0,0,0,0,0,0,0,0,0,0,0,0,0,0,0,0-.05,0,0,0m12.59.52a.11.11,0,0,0-.05.08s0,.06-.08.06-.08,0-.08.08,0,.08-.09.08-.08,0-.08.09,0,.08-.09.08h-.08v.47l-.08,0-.09,0v8.25h.15v.47l.08,0c.07,0,.09,0,.09.09s0,.08.09.08.07,0,.08.09,0,.07.09.08.07,0,.07.07.09.1.34.1.17,0,.17.07.44.11.46,0,0-.08.26-.08h.23l0-.08c0-.06,0-.08.08-.08a.34.34,0,0,0,.24-.26c0-.07,0-.08.08-.08s.09,0,.09-.08,0-.09.08-.1l.08,0V34.1l-.07,0c-.05,0-.07,0-.08-.1a.09.09,0,0,0-.09-.09c-.07,0-.08,0-.08-.08s0-.07-.07-.07-.07,0-.07-.08,0-.08-.08-.08-.09,0-.1-.09l0-.08H31.4a4.25,4.25,0,0,0-.73,0m10.29,0a.09.09,0,0,0-.05.08s0,0-.24.06-.25,0-.26.09-.15.11-.32.08c0,0,0,0,0,.06s0,.07-.08.08-.08,0-.08.09,0,.07-.11.07-.23.05-.24.12a.07.07,0,0,1-.05.07c-.1,0-.11,0-.11.08s0,.07-.08.07-.08,0-.09.17,0,.17-.09.17-.08,0-.08.08,0,.08-.08.09-.07,0-.08.17,0,.16-.08.16-.09,0-.09.32,0,.26-.09.33-.12.84,0,.84,0,0,.06.24,0,.25.09.25.07,0,.07.17,0,.15,0,.15H39s0,0,.06.09a.09.09,0,0,0,.09.09c.06,0,.07,0,.09.14s0,.17.21.17.12,0,.12.09,0,.08.08.08.08,0,.08.08,0,.09.09.09.08,0,.08.07.05.1.21.1.13,0,.13.07,0,.08.24.09.24,0,.24,0v.08s.06,0,.25,0,.25,0,.25.08,0,.08.26.09.24,0,.24.07a.13.13,0,0,0,0,.08l.33,0c.29,0,.31,0,.32.07s.08.1.39.1.26,0,.26.07,0,.07.05.07h.29c.14,0,.17,0,.17.06s0,.09.19.11a.22.22,0,0,1,.14,0c0,.06.1.11.2.11s.1,0,.12.09,0,.08.09.08.07,0,.07.08a.09.09,0,0,0,.09.09c.06,0,.07,0,.09.15s0,.16.09.17.1.67,0,.7-.07,0-.09.17,0,.15-.09.16a.09.09,0,0,0-.09.09c0,.06,0,.07-.07.07s-.07,0-.07.06,0,.07-.09.09-.08,0-.08.09,0,.07-.16.08-.16,0-.17.08v.08H41.56v-.07c0-.08-.05-.1-.22-.1s-.12,0-.12-.07,0-.07-.09-.08-.08,0-.08-.09,0-.07-.08-.07-.09,0-.09-.07a.09.09,0,0,0-.09-.09c-.06,0-.08,0-.08-.09s0-.08-.08-.08-.08,0-.08-.09,0-.08-.09-.08h-.08v-.34h-.17V40.7c0-.16,0-.17-.07-.17s-.07,0-.08-.08,0-.08-.08-.09-.08,0-.08-.08,0-.08-.09-.08a.1.1,0,0,1-.09-.08c0-.14-.66-.14-.66,0s-.1.1-.23.07a.13.13,0,0,0-.11.12s0,.06-.09,0-.07.07-.07.2,0,.13-.07.15-.1.44,0,.46.07,0,.07.25,0,.41.1.42.06,0,.06.09,0,.08.09.08.08,0,.08.13,0,.21.1.21.07,0,.07.08,0,.09.09.09.08,0,.08.08,0,.09.08.09.09,0,.09.08,0,.08.08.08.08,0,.09.08,0,.08.17.09.16,0,.16.09,0,.08.09.08.08,0,.08.07.06.1.23.1.11,0,.11.06.11.11.36.11c.09,0,.11,0,.13.06s.05.1,1.71.1,1.58,0,1.58-.1,0-.06.25-.07.24,0,.25-.08,0-.08.17-.09.16,0,.17-.08,0-.08.16-.09.16,0,.17-.08,0-.08.1-.08.22,0,.22-.1,0-.07.08-.07.09,0,.1-.08,0-.08.09-.08.06,0,.06-.09,0-.08.09-.08.08,0,.08-.08,0-.09.06-.11.11-.06.11-.2,0-.12.08-.12h.09v-.17c0-.14,0-.16,0-.16s.11-.06.11-.47,0-.41.06-.49a.31.31,0,0,0,.06-.19.32.32,0,0,0-.06-.2c-.05-.07-.06-.12-.06-.43v-.35h-.16v-.34h-.09c-.07,0-.08,0-.08-.08s0-.09-.09-.09-.08,0-.08-.08,0-.09-.08-.09-.09,0-.09-.08,0-.08-.07-.08-.07,0-.07-.08a.09.09,0,0,0-.09-.09c-.05,0-.07,0-.09-.09s0-.08-.17-.08-.15,0-.16-.08,0-.08-.1-.08-.09,0-.09-.07-.1-.1-.33-.1-.15,0-.15-.07-.07-.11-.34-.11-.16,0-.16-.07,0-.07-.25-.07-.25,0-.25-.06,0-.1-.45-.1h-.36V37.4H42.2v-.17h-.47l0-.08c0-.09,0-.09-.18-.09s-.17,0-.18,0a.26.26,0,0,0-.23-.12s-.07,0-.07-.07,0-.08-.17-.09h-.16v-.16c0-.15,0-.16-.09-.17h-.07v-.81h.07c.06,0,.08,0,.09-.08s0-.08.08-.09.08,0,.09-.08,0-.08.08-.08a.25.25,0,0,0,.15-.08c.07-.08.1-.09.23-.09s.22,0,.22-.12,0,0,.91,0h.91V35c0,.08,0,.1.21.1s.12,0,.12.07,0,.1.22.1.12,0,.12.08,0,.09.07.09.07,0,.09.15,0,.14.08.15.07,0,.07.09,0,.07.09.08.07,0,.08.17,0,.16.09.17.07,0,.07.12,0,.22.2.22.14,0,.15.07v.08h.34c.41,0,.46,0,.46-.09s0-.07.09-.07.08,0,.08-.09,0-.08.09-.08h.08v-.21c0-.16,0-.21,0-.22a.06.06,0,0,0,0-.06.05.05,0,0,0,0-.06s0-.08,0-.31v-.29H46v-.17c0-.16,0-.17-.06-.17s-.07,0-.09-.14,0-.19-.1-.19-.06,0-.06-.05a.11.11,0,0,0-.11-.12,0,0,0,0,1-.05,0,.13.13,0,0,0-.14-.12s-.06,0-.06,0-.1-.12-.26-.13,0,0,0-.06-.06-.1-.23-.11-.11,0-.11-.07,0-.07-.16-.07h-.17v-.16h-.47l0-.09v-.08H42.43c-.91,0-1.44,0-1.47,0m9.15,0a.18.18,0,0,0-.07.08s0,.06-.26.06-.25,0-.26.09,0,.07-.17.07-.17,0-.17.07,0,.07-.17.09-.17,0-.17.08,0,.07-.07.08-.08,0-.09.08-.08.1-.22.08a.13.13,0,0,0-.12.12s0,0-.07,0-.08,0-.09.08,0,.09-.08.09-.07,0-.07.08,0,.09-.08.09h-.09v.33h-.08c-.08,0-.09,0-.09.09s0,.08,0,.08-.11.06-.11.37,0,.33-.15.31,0,.1,0,.22,0,.24.09.24.08,0,.08.18,0,.17.08.17.08,0,.08.08,0,.08.17.08.17,0,.18.08.63.13.63,0,0-.07.15-.09l.15,0,0-.15c0-.13,0-.14.1-.14s.08,0,.08-.17,0-.17.08-.17.07,0,.08-.17,0-.16.09-.17.07,0,.08-.09,0-.07.08-.07.07,0,.08-.07a.14.14,0,0,1,.09-.09.11.11,0,0,0,.08-.08c0-.07,0-.08.12-.07s0,0,0-.08,0-.09.16-.1.16,0,.17-.08v-.08h.24c.22,0,.23,0,.32-.08l.09-.09h.84c.7,0,.83,0,.83,0s.09.13.3.13h.21v.09c0,.07,0,.08.08.08s.09,0,.09.08,0,.08.09.08.07,0,.08.09,0,.07.09.08h.07V36h.17v1h-.08c-.08,0-.09,0-.09.09v.08H53l0,.08,0,.09h-.79v.16h-.41a2.08,2.08,0,0,0-.42,0c0,.11-.11.14-.53.15s-.41,0-.44.07,0,.06-.18.06c-.36,0-.51,0-.51.11s0,.06-.2.07h-.24l-.12,0a.09.09,0,0,0-.1.07c0,.06,0,.07-.17.08s-.16,0-.17.08-.1.1-.28.08-.07.1,0,.14,0,0-.07,0-.1,0-.1.09,0,.07-.16.08-.14,0-.15.09,0,.08,0,.08h-.08a.09.09,0,0,0,0,.08.12.12,0,0,1-.09.1c-.08,0-.08,0-.08.18s0,.14-.09.14-.08,0-.08.16,0,.17-.08.18-.08,0-.08.23,0,.23-.1.26l-.08,0v1.1h.08l.09,0V42h.08c.07,0,.08,0,.08.17s0,.16.09.16.08,0,.08.1,0,.08.08.08.08,0,.08.08,0,.09.09.09.08,0,.08.08,0,.08.08.09.08,0,.08.08,0,.08.08.08.07,0,.08.09,0,.08.08.08a.08.08,0,0,1,.09.07c0,.07.08.1.23.1s.09,0,.09,0,.09.12.15.11.22,0,.22,0,.14.12,1.42.12,1.34,0,1.37-.1,0-.06.21-.06.28,0,.28-.1,0-.07.14-.07.31,0,.34-.1a.08.08,0,0,1,.09-.07c.11,0,.22,0,.23-.11s.05-.06.11-.06.08,0,.09-.09,0-.08.15-.08.14,0,.17-.08,0-.08.1-.08.06,0,.06-.09,0-.08.09-.08.08,0,.08-.09,0-.08.09-.08h.08v.18c0,.22,0,.32.11.32s.06,0,.06.13,0,.21.1.21.06,0,.07.08,0,.08.09.08.07,0,.07.08a.11.11,0,0,0,0,.09.17.17,0,0,1,.13.13A1.64,1.64,0,0,0,56,43.56a.11.11,0,0,1,.09-.07c.07,0,.08,0,.08-.15s0-.15.1-.17.11-.48,0-.48,0,0-.06-.32v-.32H56v-.5h-.17V35.73h-.07c-.07,0-.07,0-.07-.26s0-.41-.11-.41,0,0,0-.1,0-.23-.1-.23-.07,0-.08-.08,0-.08-.08-.09-.08,0-.08-.09,0-.08-.08-.08-.09,0-.09-.08,0-.09-.08-.09-.08,0-.09-.08,0-.08-.09-.08-.08,0-.08-.08-.06-.09-.23-.1-.1,0-.1-.07,0-.07-.17-.07H54v-.16h-.5v-.16H51.81c-1.1,0-1.66,0-1.7,0m16.33.05c0,.06-.06.09-.11.09s-.07,0-.08.16,0,.14-.09.16l-.08,0v3.59c0,3.86,0,3.69.13,3.69s0,0,0,.25,0,.38.1.39.07,0,.07.17,0,.16.09.17.07,0,.08.16,0,.16.09.17.07,0,.07.09,0,.09.09.09.08,0,.08.08,0,.08.09.08.08,0,.08.09,0,.08.08.08.09,0,.09.08,0,.08.16.08.15,0,.16.1,0,.08.17.08.15,0,.15.07,0,.1.22.1.12,0,.14.06.11.1,1.34.1,1.25,0,1.27-.1.09-.08.26-.07a.1.1,0,0,0,.1-.12s0,0,.14,0,.16,0,.17-.08,0-.08.1-.08.24,0,.24-.11,0-.06.08-.06a.09.09,0,0,0,.09-.09c0-.06,0-.08.09-.08s.08,0,.08-.08,0-.08.08-.08.09,0,.09-.09,0-.08.08-.08h.08v.35c0,.37,0,.46.12.46s0,0,.06.09,0,.09.08.1.08,0,.08.08,0,.1.63.09H74V43.6c0-.06,0-.07.09-.07s.08,0,.08-.09,0-.08,0-.08,0-.55,0-4.81,0-4.81,0-4.81,0,0,0-.08,0-.08-.09-.08-.08,0-.08-.09v-.08H72.89v.08c0,.08,0,.09-.08.09s-.09,0-.09.08,0,.08-.08.08h-.09v.41c0,.39,0,.4-.06.42s-.1,0-.1,2.06v3.42h-.08s-.06,0,0,0a0,0,0,0,1,0,0s0,.08,0,.21,0,.2-.08.21-.08,0-.08.17,0,.16-.1.17-.08,0-.07,0,0,.12-.07.13-.07,0-.08.09,0,.09-.09.09-.06,0-.07.07,0,.08-.09.08-.08,0-.08,0,0,.15-.09.15-.08,0-.08.08v.08h-.17c-.16,0-.17,0-.17.07s0,.07-.1.07c-.28,0-.4,0-.4.11V42H70c-.41,0-.42,0-.43-.06s0-.07-.24-.09-.23,0-.24-.08,0-.06-.17-.07-.16,0-.16-.09,0-.08-.08-.08-.09,0-.09-.09,0-.23-.11-.24,0,0,0-.1,0-.08-.09-.08h-.08v-.22c0-.23,0-.23-.09-.26l-.08,0v-6.6H68c-.07,0-.07,0-.08-.17s0-.16-.09-.16-.09,0-.09,0-.09-.14-.69-.14h-.57l0,.08M53.83,39.28V40l-.08,0-.09,0v.46h-.07c-.08,0-.08,0-.09.17s0,.19-.15.17a.35.35,0,0,0,0,.16c0,.17,0,.17-.09.17s-.08,0-.08.08,0,.09-.14.09-.15,0-.17.08-.05.09-.11.09-.09,0-.09.08,0,.08-.16.09-.16,0-.17.07,0,.07,0,.07c-.32,0-.44,0-.44.12s-.06,0-.24.05-.42,0-.42.09-.84.1-.86,0S50.24,42,50,42s-.16,0-.16-.06,0-.09-.19-.11-.14,0-.14-.08,0-.07-.09-.07-.08,0-.08-.12,0-.21-.1-.21-.07,0-.08-.16,0-.16-.08-.17H49v-.25c0-.24,0-.25.07-.26s.1-.09.1-.32V40h.08c.08,0,.09,0,.09-.08s0-.09.08-.09.09,0,.09-.06,0-.07.07-.08a.09.09,0,0,0,.09-.09c0-.07,0-.07.2-.07s.28,0,.28-.1,0-.07.32-.07.44,0,.48-.11,0-.06.35-.06.5,0,.5-.1,0-.07.32-.07.49,0,.51-.1,0-.07.31-.07.33,0,.36-.1,0-.06.26-.06h.23v-.09s0-.08,0-.08,0,.33,0,.74M35.27,40.71a.17.17,0,0,0,0,.09c0,.06-.07.08-.23.06s-.07,0-.09.08a.13.13,0,0,1-.1.1c-.06,0-.07,0-.07.08s0,.07-.08.07-.1.09-.1.27,0,.08-.07.08a2.49,2.49,0,0,0,0,1.48.07.07,0,0,1,.07.08c0,.06,0,.08.09.08s.07,0,.08.09,0,.08.08.08a.09.09,0,0,1,.09.09c0,.06,0,.07.08.08s.08,0,.08.06.11.11.34.11.19,0,.19.05.1.09.32.09.3,0,.3-.11a.36.36,0,0,1,.18,0c.22,0,.32,0,.32-.11s0,0,.08-.06.08,0,.09-.08,0-.08.09-.08.08,0,.08-.08,0-.09.08-.1.08,0,.08-.08a.1.1,0,0,1,.08-.09c.09,0,.1-.07.1-.81v-.66h-.09c-.08,0-.08,0-.08-.12s0-.22-.11-.22-.06,0-.06-.08,0-.07-.17-.08-.17,0-.17-.09,0-.09-.08-.09-.08,0-.08,0,0-.11-.68-.11h-.62M13.83,46.52s0,0,.06,0,.09,0,.09,0,0,0-.07,0-.08,0-.08,0m.93.7c0,.07.08.1.08.06s-.06-.11-.09-.11,0,0,0,0m.35.16c.06,0,.09,0,.06,0a.08.08,0,0,0-.07,0s0,0,0,0m.84.19s0,.08,0,.09,0,0,0,0,.1-.13.07-.16,0,0,0,0,0,0-.05,0-.1,0-.05,0m7.07.86s0,0,0,0,0,0,0,0a.08.08,0,0,0,.07,0s0,0,0,0,0,0,0,0m-6.41,2.26s0,0,0,0a0,0,0,0,0,0,0s0,0,0,0,0,0,0,0" transform="translate(0 0)"/><path id="path3-2" data-name="path3" class="cls-9" d="M14.9,29.11s0,0,0,0a.36.36,0,0,0,0,.15s0,.07,0,.06,0,0,0,.08.12.16.26.15a.18.18,0,0,1,.17.07c0,.07.08.08.21.08s.17,0,.21.08.06.08.16.08.12,0,.16.08a.2.2,0,0,0,.16.1c.1,0,.12,0,.14.09s0,.07.08.07a.45.45,0,0,1,.17.1,1.39,1.39,0,0,0,.33.26s.07,0,.07.08,0,.07.09.08a.12.12,0,0,1,.08.09s0,.07.08.1.09.06.09.09a.13.13,0,0,0,.07.08.38.38,0,0,1,.11.14.27.27,0,0,0,.1.13.11.11,0,0,1,.06.11c0,.05,0,.09,0,.09s.14.11.14.2a.13.13,0,0,0,.08.14c.07,0,.08.05.09.18s0,.15,0,.15.11.08.13.25a.34.34,0,0,0,.08.2c.06,0,.06,0,.08.47a1.42,1.42,0,0,0,0,.38s0,.08,0,0,0,0,0,0a.09.09,0,0,0,.06,0c.07-.08.09.07.09.89s0,2,.05,2,0,0,.07,0,.07,0,.07,0,0,0,0,0l0,.06v-.12l0,.06s0,0,0,0,0-.05.08,0a.89.89,0,0,0,.45.13.41.41,0,0,1,.22,0,.34.34,0,0,0,.16,0,.59.59,0,0,1,.2,0,.7.7,0,0,0,.24,0,.48.48,0,0,1,.21,0,.16.16,0,0,0,.1,0l.12,0a.68.68,0,0,0,.23,0,.78.78,0,0,1,.33.09.82.82,0,0,0,.34.08.43.43,0,0,1,.2,0,1,1,0,0,0,.55.14c.23,0,.24,0,.32.08s.09.09.32.09a.87.87,0,0,1,.54.13.71.71,0,0,0,.23,0c.11,0,.15,0,.17.05s0,0,0,0,0-.06,0,.07,0,.12,0,.07,0-.07.06-.06.06,0,.06-.14v-.17l0,.19c0,.1,0,.26.05.36s0-1.44,0-3.59c0-3.2,0-3.79,0-3.82a.09.09,0,0,1,0,0s0,0,0,0-.06,0-.06-.14-.11-.32-.11-.2,0,0,0,0,0-.09,0-.06l0,0a.19.19,0,0,1-.05-.1.14.14,0,0,0-.08-.11.14.14,0,0,1-.08-.11s0-.07-.09-.07-.1,0-.09-.14a.67.67,0,0,0-.25,0c-.06,0-.07,0-.07-.08s0-.07-.17-.08-.18,0-.18-.06-.05-.11-3.82-.11-3.68,0-3.73-.06a.16.16,0,0,0-.09-.05s0,0,0,0,0,0,0,0a.08.08,0,0,0-.07,0,.14.14,0,0,1-.14,0s-.07,0-.07,0m-.14.08s0,.06,0,.11,0,0,0,0a.14.14,0,0,1,0-.11c0-.06,0-.07,0,0M8,44.49a17.5,17.5,0,0,0,0,2.65s0,0,.05.26c0,.06,0,.08.07.08s.09,0,.1.18,0,.11,0,.09,0,0,0,0,0,0,.05,0,.06,0,.06.1,0,.08.08.08.08,0,.09.08a.09.09,0,0,0,.09.09c.05,0,.07,0,.08.08s0,.08,0,.08h.08s.05,0,.06.07,0,.07.06.06,0,0,0,0,.05,0,.11,0,.1,0,.1,0,.07.12.17.12.1,0,.13.06.05.07.06.06,0,0,0,0a.54.54,0,0,0,.22,0c.24,0,.24,0,.24.09s0,.07.09.07c.41,0,.41,0,.41.06a.21.21,0,0,0,0,.1s.05,0,0,0,0,0,0,0a.53.53,0,0,0,.23,0c.18,0,.19,0,.19.07s0,.09.27.1.25,0,.21.09,0,0,0,0,0,0,0,0,.1,0,.22.05.26,0,.24.11,0,0,0,0l.11,0h.2c.11,0,.15,0,.15.05s.09.09.29.09.18,0,.21.09,0,.08.26.08.22,0,.22.05,0,0,0,0,0,0,0,0,.06.06.28.06.19,0,.19,0,.06.12.29.12h.22v.16h.22c.23,0,.31,0,.29.1s0,0,0,0h.26c.15,0,.19,0,.19,0s.05,0,.32,0,.41,0,.26-.1a.1.1,0,0,1-.07-.09.13.13,0,0,0-.08-.08.23.23,0,0,1-.08-.09s0-.06,0-.06-.05,0-.29-.3l-.26-.28a.35.35,0,0,1-.09-.17c0-.05,0-.06-.08-.06s-.09,0-.09-.09,0-.09,0-.1a.35.35,0,0,1-.1-.14.32.32,0,0,0-.11-.15.13.13,0,0,1-.06-.09.21.21,0,0,0-.08-.14.21.21,0,0,1-.08-.14c0-.12,0-.16-.11-.16s-.06,0-.06-.09-.06-.22-.12-.22-.05,0-.06-.16,0-.17-.08-.2-.08,0-.08-.17a.23.23,0,0,0-.08-.22c-.08-.08-.09-.11-.09-.25s0-.16-.08-.23-.08-.09-.09-.39c0-.48,0-.54-.13-.5s0-.06,0-.29c0-.46,0-.62,0-.65s0,0,0,0a1.43,1.43,0,0,0,0-.48c0-.41,0-.44,0-.22l0,.25V44.4c0-.32,0-.41-.08-.2l0,.15,0-.14,0-.14,0,.13c0,.08,0,.1,0,0s-.16-.25-.35-.25-.16,0-.16-.08v-.09h-.17c-.16,0-.19,0-.25-.07a.21.21,0,0,0-.15-.07.22.22,0,0,1-.17-.08.21.21,0,0,0-.17-.08.21.21,0,0,1-.16-.09c-.08-.07-.1-.08-.26-.08s-.18,0-.25-.09a.24.24,0,0,0-.16-.08.32.32,0,0,1-.17-.08.29.29,0,0,0-.16-.09.24.24,0,0,1-.16-.08.26.26,0,0,0-.17-.09l-.14,0a1.17,1.17,0,0,0-.37-.14.22.22,0,0,1-.15-.09c-.08-.07-.1-.08-.26-.08s-.18,0-.25-.09A.22.22,0,0,0,9,42.35a.27.27,0,0,1-.17-.08.19.19,0,0,0-.15-.09c-.16,0-.41-.12-.42-.21l0-.08,0,.09c0,.09,0,.09,0,0s0-.06,0,0,0,0,0,0,0-.11-.06-.11,0,0,0,2.65" transform="translate(0 0)"/><path id="path4-2" data-name="path4" class="cls-10" d="M15,22.74s0,.05-.15.05-.16,0-.16.08V23h-.33V23c0,.07,0,.08-.09.08s-.08,0-.08.09,0,.08-.08.08-.09,0-.09.08,0,.09-.08.09-.09,0-.09.08,0,.08-.07.09a.09.09,0,0,0-.09.09.09.09,0,0,1-.08.08c-.07,0-.08,0-.09.16s0,.14-.06.14-.11.06-.12.21,0,.14,0,.14-.11.11-.11.92,0,.89.11.89.06,0,.07.2,0,.28,0,.26.11.05.12.12a.09.09,0,0,0,.09.09c.06,0,.08,0,.08.1s0,.21.11.21,0,0,.07.08a.14.14,0,0,0,.1.11c.06,0,.08.05.07.08s.13.1.25.1.07,0,.07.07,0,.07.08.07.08,0,.1.08,0,.08.16.08.16,0,.17.09l0,.08h.24c.14,0,.24,0,.24,0s0,0,0,.06v0a4.76,4.76,0,0,0,.6,0c.61,0,.63,0,.67-.13a.66.66,0,0,1,.23,0c.21,0,.25,0,.26-.11s0,0,.15-.06.2-.05.19-.11,0,0,.08-.05.1,0,.1-.07,0-.07.08-.08.08,0,.08-.09,0-.07.06-.07a.3.3,0,0,0,.28-.28s0-.06.08-.06.08,0,.08-.09,0-.08.06-.08.12-.06.12-.19,0-.13.08-.16.08,0,.08-.17a.24.24,0,0,1,.07-.2,4.8,4.8,0,0,0,0-1.6c-.07,0-.09,0-.09-.2s-.05-.31-.13-.31a.52.52,0,0,1-.07-.27s0,0,0,0-.11,0-.12-.08,0-.08-.08-.09-.08,0-.08-.09,0-.08-.08-.08-.09,0-.09-.08a.09.09,0,0,0-.09-.09c-.06,0-.08,0-.08-.09s0-.08-.08-.08-.08,0-.09-.08,0-.09,0-.08c-.18,0-.29,0-.29-.09v-.08h-.17c-.13,0-.17,0-.17-.05s-.13,0-1,0-1,0-1,0" transform="translate(0 0)"/></g></svg>