<?xml version="1.0" encoding="utf-8"?>
<!-- Generator: Adobe Illustrator 24.1.0, SVG Export Plug-In . SVG Version: 6.00 Build 0)  -->
<svg version="1.1" id="Layer_1" xmlns="http://www.w3.org/2000/svg" xmlns:xlink="http://www.w3.org/1999/xlink" x="0px" y="0px"
	 viewBox="0 0 80 84.2" style="enable-background:new 0 0 80 84.2;" xml:space="preserve">
<style type="text/css">
	.st0{fill:#F2F2F2;}
	.st1{fill:#37CBC4;}
	.st2{fill:#44DCD4;}
	.st3{fill:#323131;}
	.st4{fill:#0069A3;}
	.st5{fill:#FFCC35;}
</style>
<path class="st0" d="M40,0L40,0c22.1,0,40,17.9,40,40v0c0,22.1-17.9,40-40,40h0C17.9,80,0,62.1,0,40v0C0,17.9,17.9,0,40,0z"/>
<polygon class="st1" points="26.1,35 26.1,47 19.3,47 12.6,47 12.6,35.1 10,32.4 10,36.8 10,40 10,45 10,47.8 10,49.6 11,49.6 
	14.7,49.6 19.3,49.6 24,49.6 28.7,49.6 28.7,47 28.7,45 28.7,40 28.7,36.8 28.7,32.4 "/>
<polygon class="st2" points="22.3,30.4 19.3,33.3 16.4,30.4 15.1,31.9 18,34.7 19.3,36.1 20.5,34.9 23.6,31.9 "/>
<path class="st3" d="M65.6,39.9c-0.2-0.2-0.3-0.5-0.3-0.8c0-0.4,0.2-0.7,0.5-0.9c0.4-0.2,0.9-0.4,1.4-0.3H68v1.4
	c-0.2,0.3-0.4,0.5-0.7,0.6c-0.3,0.2-0.6,0.2-0.9,0.2C66.1,40.2,65.8,40.1,65.6,39.9z M70,41.4v-0.1c-0.2-0.5-0.3-1.1-0.3-1.6v-3.4
	c0-0.7-0.3-1.4-0.8-1.9c-0.6-0.5-1.3-0.7-2.1-0.7c-0.5,0-1.1,0.1-1.6,0.3c-0.4,0.2-0.8,0.5-1.1,0.8c-0.3,0.3-0.4,0.7-0.4,1.2h1.7
	c0-0.3,0.1-0.6,0.4-0.7c0.3-0.2,0.6-0.3,0.9-0.3c0.4,0,0.7,0.1,1,0.3c0.2,0.3,0.3,0.6,0.3,0.9v0.5h-1c-0.9-0.1-1.8,0.2-2.5,0.6
	c-0.6,0.4-0.9,1.1-0.9,1.8c0,0.6,0.3,1.2,0.7,1.6c1.1,0.9,2.8,0.8,3.8-0.2c0,0.2,0.1,0.5,0.2,0.7L70,41.4z M56.1,33.9v7.5h1.7v-5.3
	c0.3-0.6,0.9-0.9,1.5-0.9c0.4,0,0.7,0.1,1,0.3c0.2,0.3,0.3,0.7,0.3,1.1v4.8h1.7v-4.9c0-1.8-0.8-2.7-2.4-2.7c-0.8,0-1.6,0.3-2.2,1
	l0-0.9L56.1,33.9z M48.3,33.9v7.5H50v-5.3c0.3-0.6,0.9-0.9,1.5-0.9c0.4,0,0.7,0.1,1,0.3c0.2,0.3,0.3,0.7,0.3,1.1v4.8h1.7v-4.9
	c0-1.8-0.8-2.7-2.4-2.7c-0.8,0-1.6,0.3-2.2,1l0-0.9L48.3,33.9z M45.1,32.6c0.2,0.2,0.4,0.3,0.7,0.3c0.3,0,0.5-0.1,0.7-0.3
	c0.2-0.2,0.3-0.4,0.2-0.6c0-0.2-0.1-0.5-0.2-0.6c-0.2-0.2-0.4-0.3-0.7-0.3c-0.3,0-0.5,0.1-0.7,0.3c-0.2,0.2-0.3,0.4-0.2,0.6
	C44.9,32.2,45,32.5,45.1,32.6z M46.7,33.9H45v7.5h1.7L46.7,33.9z M32.7,33.9v7.5h1.7V36c0.3-0.5,0.8-0.9,1.4-0.8
	c0.7-0.1,1.3,0.4,1.3,1c0,0.1,0,0.2,0,0.3v4.9h1.7l0-5.1c0.1-0.3,0.3-0.6,0.5-0.8c0.3-0.2,0.6-0.3,0.9-0.3c0.4,0,0.7,0.1,1,0.3
	c0.2,0.3,0.3,0.7,0.3,1v4.9h1.7v-4.9c0-0.7-0.2-1.4-0.6-2c-0.5-0.5-1.2-0.7-1.8-0.7c-0.9,0-1.8,0.4-2.3,1.1
	c-0.4-0.8-1.2-1.2-2.1-1.1c-0.8,0-1.6,0.3-2.2,0.9l0-0.8H32.7z"/>
<path class="st1" d="M68.6,47.7c-0.1,0.1-0.3,0.1-0.5,0.1c-0.2,0-0.4,0-0.5-0.1c-0.1-0.1-0.2-0.3-0.2-0.4h-0.8
	c0,0.2,0.1,0.4,0.2,0.6c0.1,0.2,0.3,0.3,0.5,0.4c0.2,0.1,0.5,0.2,0.8,0.2c0.4,0,0.7-0.1,1-0.3c0.2-0.2,0.4-0.5,0.4-0.8
	c0-0.2,0-0.3-0.1-0.5c-0.1-0.1-0.2-0.3-0.4-0.3c-0.2-0.1-0.5-0.2-0.7-0.2c-0.2,0-0.4-0.1-0.6-0.2c-0.1-0.1-0.2-0.2-0.1-0.3
	c0-0.1,0.1-0.2,0.2-0.3c0.1-0.1,0.3-0.1,0.4-0.1c0.2,0,0.3,0,0.4,0.1c0.1,0.1,0.2,0.2,0.2,0.4h0.8c0-0.3-0.1-0.6-0.4-0.8
	c-0.3-0.2-0.6-0.3-1-0.3c-0.3,0-0.7,0.1-1,0.3c-0.2,0.2-0.4,0.4-0.4,0.7c0,0.4,0.2,0.7,0.6,0.8c0.2,0.1,0.4,0.2,0.7,0.2
	c0.2,0,0.4,0.1,0.6,0.2c0.1,0.1,0.2,0.2,0.2,0.3C68.8,47.5,68.7,47.6,68.6,47.7z M65.3,45.6c0.1,0.2,0.2,0.4,0.2,0.6v0.1H64
	c0-0.2,0.1-0.4,0.2-0.6C64.5,45.4,65,45.3,65.3,45.6C65.3,45.6,65.3,45.6,65.3,45.6z M65.6,48.2c0.2-0.1,0.4-0.3,0.6-0.5l-0.4-0.4
	c-0.2,0.3-0.5,0.4-0.9,0.4c-0.2,0-0.5-0.1-0.6-0.2c-0.2-0.2-0.3-0.4-0.3-0.7h2.2v-0.3c0-0.5-0.1-0.9-0.4-1.3
	c-0.3-0.3-0.7-0.5-1.1-0.4c-0.3,0-0.6,0.1-0.8,0.2c-0.2,0.2-0.4,0.4-0.6,0.6c-0.1,0.3-0.2,0.6-0.2,0.9v0.1c0,0.5,0.1,0.9,0.5,1.2
	c0.3,0.3,0.7,0.5,1.2,0.5C65.1,48.4,65.4,48.3,65.6,48.2L65.6,48.2z M61.8,44.3c0.1,0.1,0.2,0.1,0.3,0.1c0.1,0,0.2,0,0.3-0.1
	c0.1-0.1,0.1-0.2,0.1-0.3c0-0.1,0-0.2-0.1-0.3c-0.1-0.1-0.2-0.1-0.3-0.1c-0.1,0-0.2,0-0.3,0.1c-0.1,0.1-0.1,0.2-0.1,0.3
	C61.7,44.1,61.7,44.2,61.8,44.3z M62.5,44.9h-0.8v3.4h0.8V44.9z M58.9,45.7c0.1-0.2,0.4-0.3,0.6-0.3c0.3,0,0.6,0.1,0.7,0.4v1.5
	c-0.1,0.3-0.4,0.4-0.7,0.4c-0.2,0-0.5-0.1-0.6-0.3c-0.2-0.2-0.2-0.5-0.2-0.8C58.6,46.3,58.7,46,58.9,45.7L58.9,45.7z M58.3,47.9
	c0.2,0.3,0.6,0.5,1,0.5c0.3,0,0.7-0.1,0.9-0.4v0.2c0,0.2-0.1,0.4-0.2,0.6C59.7,49,59.5,49,59.3,49c-0.3,0-0.7-0.2-0.9-0.4l-0.4,0.5
	c0.1,0.2,0.3,0.3,0.5,0.4c0.2,0.1,0.5,0.2,0.7,0.2c0.4,0,0.8-0.1,1.1-0.4c0.3-0.3,0.4-0.7,0.4-1.1v-3.3h-0.7l0,0.3
	c-0.2-0.3-0.6-0.4-0.9-0.4c-0.4,0-0.8,0.2-1,0.5c-0.3,0.4-0.4,0.8-0.4,1.3C57.8,47,58,47.5,58.3,47.9z M55.2,45.7
	c0.3-0.3,0.7-0.4,1.1-0.1c0.1,0,0.1,0.1,0.2,0.2c0.2,0.2,0.2,0.5,0.2,0.8c0,0.3-0.1,0.6-0.2,0.9c-0.1,0.2-0.4,0.3-0.6,0.3
	c-0.2,0-0.5-0.1-0.6-0.3c-0.2-0.2-0.2-0.5-0.2-0.8C54.9,46.3,55,46,55.2,45.7L55.2,45.7z M54.2,46.6c0,0.5,0.1,0.9,0.4,1.3
	c0.3,0.3,0.7,0.5,1.2,0.5c0.3,0,0.6-0.1,0.8-0.2c0.2-0.1,0.4-0.4,0.6-0.6c0.1-0.3,0.2-0.6,0.2-0.9l0-0.2c0-0.4-0.2-0.9-0.5-1.2
	c-0.3-0.3-0.7-0.5-1.1-0.4c-0.3,0-0.6,0.1-0.8,0.2c-0.2,0.1-0.4,0.4-0.6,0.6C54.2,45.9,54.2,46.2,54.2,46.6L54.2,46.6z M53.5,43.4
	h-0.8v4.9h0.8L53.5,43.4z M49.8,45.7c0.3-0.3,0.7-0.4,1.1-0.1c0.1,0,0.1,0.1,0.1,0.2c0.2,0.2,0.2,0.5,0.2,0.8c0,0.3-0.1,0.6-0.2,0.9
	c-0.3,0.3-0.7,0.4-1.1,0.2c-0.1,0-0.1-0.1-0.1-0.1c-0.2-0.2-0.2-0.5-0.2-0.8C49.6,46.3,49.6,46,49.8,45.7L49.8,45.7z M48.8,46.6
	c0,0.5,0.1,0.9,0.4,1.3c0.3,0.3,0.7,0.5,1.2,0.5c0.3,0,0.6-0.1,0.8-0.2c0.2-0.1,0.4-0.4,0.6-0.6c0.1-0.3,0.2-0.6,0.2-0.9l0-0.2
	c0-0.4-0.2-0.9-0.5-1.2c-0.3-0.3-0.7-0.5-1.1-0.4c-0.3,0-0.6,0.1-0.8,0.2c-0.2,0.1-0.4,0.4-0.6,0.6C48.9,45.9,48.8,46.2,48.8,46.6
	L48.8,46.6z M45.3,44.9v3.4h0.8v-2.4c0.1-0.3,0.4-0.4,0.7-0.4c0.2,0,0.3,0,0.5,0.2c0.1,0.1,0.2,0.3,0.1,0.5v2.2h0.8V46
	c0-0.8-0.4-1.2-1.1-1.2c-0.4,0-0.8,0.2-1,0.5l0-0.4L45.3,44.9z M42.5,43.4h-0.8v4.9h0.8v-2.5c0.1-0.3,0.4-0.4,0.7-0.4
	c0.2,0,0.3,0,0.5,0.1c0.1,0.1,0.2,0.3,0.2,0.5v2.2h0.8v-2.2c0-0.8-0.4-1.3-1.1-1.3c-0.4,0-0.7,0.2-1,0.4L42.5,43.4z M39.1,47.5
	c-0.2-0.3-0.2-0.5-0.2-0.8v-0.1c0-0.3,0.1-0.6,0.2-0.8c0.1-0.2,0.4-0.3,0.6-0.3c0.2,0,0.4,0.1,0.5,0.2c0.1,0.1,0.2,0.3,0.2,0.5h0.7
	c0-0.4-0.1-0.7-0.4-0.9c-0.3-0.2-0.6-0.4-1-0.4c-0.4,0-0.9,0.2-1.1,0.5c-0.3,0.4-0.4,0.8-0.4,1.3v0.1c0,0.5,0.1,0.9,0.4,1.3
	c0.3,0.3,0.7,0.5,1.1,0.5c0.2,0,0.5-0.1,0.7-0.2c0.2-0.1,0.4-0.3,0.5-0.4c0.1-0.2,0.2-0.4,0.2-0.6h-0.7c0,0.2-0.1,0.3-0.2,0.4
	c-0.1,0.1-0.3,0.2-0.5,0.2C39.5,47.8,39.3,47.7,39.1,47.5L39.1,47.5z M36.8,45.6c0.1,0.2,0.2,0.4,0.2,0.6v0.1h-1.5
	c0-0.2,0.1-0.4,0.2-0.6C36,45.4,36.5,45.3,36.8,45.6C36.7,45.6,36.7,45.6,36.8,45.6L36.8,45.6z M37.1,48.2c0.2-0.1,0.4-0.3,0.6-0.5
	l-0.4-0.4c-0.2,0.3-0.5,0.4-0.9,0.4c-0.2,0-0.5-0.1-0.6-0.2c-0.2-0.2-0.3-0.4-0.3-0.7h2.2v-0.3c0-0.5-0.1-0.9-0.4-1.3
	c-0.3-0.3-0.7-0.5-1.1-0.4c-0.3,0-0.6,0.1-0.8,0.2c-0.2,0.2-0.4,0.4-0.6,0.6c-0.1,0.3-0.2,0.6-0.2,0.9v0.1c0,0.5,0.1,0.9,0.5,1.2
	c0.3,0.3,0.7,0.5,1.2,0.5C36.6,48.4,36.9,48.3,37.1,48.2L37.1,48.2z M32.9,44v0.8h-0.6v0.6h0.6v1.9c0,0.7,0.3,1,0.9,1
	c0.2,0,0.3,0,0.5-0.1v-0.6c-0.1,0-0.2,0-0.3,0c-0.1,0-0.2,0-0.3-0.1c-0.1-0.1-0.1-0.2-0.1-0.3v-1.9h0.6v-0.6h-0.6V44L32.9,44z"/>
<path class="st4" d="M28,69.2h24v15H28V69.2z"/>
<path class="st5" d="M28,75.2h7.5v-6h3v6H52v3H38.5v6h-3v-6H28V75.2z"/>
</svg>
