<svg id="Layer_1" data-name="Layer 1" xmlns="http://www.w3.org/2000/svg" viewBox="0 0 80 84.2"><defs><style>.cls-1{fill:#f2f2f2;}.cls-2{fill:#16436a;}.cls-10,.cls-2,.cls-3,.cls-4,.cls-5,.cls-6,.cls-7,.cls-8,.cls-9{fill-rule:evenodd;}.cls-3{fill:#18abd8;}.cls-4{fill:#96b4c6;}.cls-5{fill:#808c9c;}.cls-6{fill:#bb0404;}.cls-7{fill:#f9f9f8;}.cls-8{fill:#046404;}.cls-9{fill:#040404;}.cls-10{fill:#601910;}</style></defs><path class="cls-1" d="M40,0h0A40,40,0,0,1,80,40h0A40,40,0,0,1,40,80h0A40,40,0,0,1,0,40H0A40,40,0,0,1,40,0Z" transform="translate(0 0)"/><g id="svgg"><path id="path0" class="cls-2" d="M45.93,33.56a1.34,1.34,0,0,0-1,.74.45.45,0,0,1-.06.14s0,.82,0,2.74v2.69h.37c.3,0,.37,0,.39-.06s0-.87,0-1.88a8,8,0,0,1,0-1.89s.15,0,.65,0c.69,0,.65,0,.65-.32s0-.32-.61-.32-.74,0-.74-.36.12-.66.47-.78a2.85,2.85,0,0,1,1.3.09c.1.05.12,0,.12-.31s0-.35-.17-.38l-.3-.07a3.26,3.26,0,0,0-1.12,0m-22.56.19a1.42,1.42,0,0,0,0,.58,3.8,3.8,0,0,0,.92,0c.78,0,.89,0,.93.06a21.54,21.54,0,0,1,.07,2.74v2.68h.74l0-2.68a24,24,0,0,1,.06-2.74s.15-.06.9-.06c1,0,1,0,1-.35v-.27H23.37m32.16,0a3.17,3.17,0,0,0,0,.88s.73,0,1.57,0c1.34,0,1.52,0,1.55.06a.16.16,0,0,1,0,.22,7.51,7.51,0,0,0-.55.66l-.19.23s-.18.21-.29.35l-.37.46L57,37l-.38.46a1.77,1.77,0,0,0-.17.2l-.17.22c0,.06-.15.17-.21.26l-.31.36a.88.88,0,0,0-.29.84,1.2,1.2,0,0,0,0,.47c.05.06,4.34.06,4.4,0a2,2,0,0,0,0-.88s-.73,0-1.56,0a10.46,10.46,0,0,1-1.54,0s0-.12,0-.16.36-.43.5-.62l.19-.25a5.09,5.09,0,0,0,.41-.52c.19-.25.45-.57.49-.6l.88-1.14a1.8,1.8,0,0,1,.22-.27,3.17,3.17,0,0,0,.24-.31l.21-.29v-.94H57.72a16.46,16.46,0,0,0-2.19,0M27.89,35.4c0,.07,0,4.29,0,4.39s0,.08.39.07h.38l0-1.62c0-1.76,0-1.67.2-1.82a1.69,1.69,0,0,1,1-.39c.07,0,.12,0,.13-.05a1.86,1.86,0,0,0,0-.58c-.07-.11-.79.07-1.1.28s-.3.16-.4-.14l-.06-.18h-.25c-.19,0-.25,0-.26,0m3.79,0-.47.09-.27.05c-.1,0-.14.1-.14.36s0,.33.47.22a2.35,2.35,0,0,1,2,.21l.15.15v.28c0,.39.1.36-1,.37h-1l-.3.14a1.14,1.14,0,0,0-.72,1.06,2,2,0,0,0,.09.73s0,.1.07.16c.28.6,1.63.85,2.63.47a.36.36,0,0,1,.47.07c.15.13.42.17.5.07s0-3.32,0-3.52a1.23,1.23,0,0,0-.55-.67.32.32,0,0,1-.13-.06.45.45,0,0,0-.14-.06l-.28-.07a5.71,5.71,0,0,0-1.4-.06m3.77,0s0,.65,0,2.25v2.2l.35,0a1.08,1.08,0,0,0,.38,0s0-.67,0-1.62c0-1.82,0-1.65.35-1.89.73-.48,1.54-.41,1.84.15l.08.16,0,1.56a15.29,15.29,0,0,0,0,1.61c.08.09.76.06.78,0s0-3.19-.08-3.4a1.19,1.19,0,0,0-1.06-1,2.65,2.65,0,0,0-1.8.34c-.2.14-.25.12-.36-.15l-.09-.24H35.7a.42.42,0,0,0-.25,0m6.13,0a1.45,1.45,0,0,0-1.26.74,1.86,1.86,0,0,0,0,1.07.57.57,0,0,1,.07.16,1.38,1.38,0,0,0,.2.29.84.84,0,0,0,.41.23l.28.07A5.2,5.2,0,0,0,42,38c.7,0,.79,0,1,.23.3.39,0,.87-.53,1a4.4,4.4,0,0,1-1.51-.09.67.67,0,0,0-.27-.06h-.16v.63l.13,0a5.28,5.28,0,0,0,2.56,0,1.09,1.09,0,0,0,.66-.78,1.48,1.48,0,0,1,0-.19,1.72,1.72,0,0,0-.26-1.06c-.3-.3-.7-.4-1.54-.4S41,37.13,41,36.65s.84-.81,1.8-.6l.49.11.33.07a1.36,1.36,0,0,0,0-.64,5,5,0,0,0-2.06-.21m7.67,0-.35.09-.22.05a.12.12,0,0,0-.1,0l-.12.07A2,2,0,0,0,48,36l-.1.17c-.62.92-.3,2.87.55,3.32a.34.34,0,0,1,.12.08,4.86,4.86,0,0,0,2.38.19l.37,0v-.32c0-.3,0-.32-.07-.31-1.74.2-2.52,0-2.78-.78-.17-.52-.24-.5,1.46-.5.84,0,1.44,0,1.47,0a4.55,4.55,0,0,0,0-1.38.47.47,0,0,1-.06-.17,1.42,1.42,0,0,0-.44-.61.22.22,0,0,1-.12-.06,2.78,2.78,0,0,0-1.53-.21m3.31,0c-.07,0-.09,4.28,0,4.41a1.19,1.19,0,0,0,.79,0s0-.77,0-1.65V36.57l.17-.15a1.64,1.64,0,0,1,.93-.4c.16,0,.25-.38.13-.61s-.77,0-.91.17a.13.13,0,0,1-.07,0,.56.56,0,0,0-.15.08c-.2.15-.3.1-.33-.16s0-.15-.09-.17a1,1,0,0,0-.47,0m17,0a4.65,4.65,0,0,0-.66.18l-.15.09a1,1,0,0,0-.36.25,2.27,2.27,0,0,0-.36.57.42.42,0,0,1-.06.15,4.06,4.06,0,0,0,0,2,.48.48,0,0,1,.06.14,2,2,0,0,0,.68.84,2.93,2.93,0,0,0,1.54.31,3,3,0,0,0,.87-.16l.13,0a2,2,0,0,0,.61-.45,3,3,0,0,0,.09-3.11,2,2,0,0,0-1.77-.73h-.62m-7.43.05a2.41,2.41,0,0,0-.62.16l-.12.06a1.61,1.61,0,0,0-.72.74,2.23,2.23,0,0,0-.19.66,3,3,0,0,0,.32,2,2,2,0,0,0,.94.67.37.37,0,0,1,.15.05,5.56,5.56,0,0,0,1.59.09l.66,0c.21,0,.25-.09.24-.5v-.36h-.3a2.94,2.94,0,0,0-.47,0c-.88.21-2-.17-2-.72,0-.22-.08-.22,1.44-.22s1.47,0,1.51-.4c.15-1.6-.76-2.44-2.39-2.19m3.19,0s0,4.3,0,4.37a2.45,2.45,0,0,0,1,0,8,8,0,0,0,0-1.47V36.88l.07-.1a1.28,1.28,0,0,1,.33-.3l.1,0a1.31,1.31,0,0,1,.49-.17c.15,0,.16,0,.14-.51s0-.35-.09-.36a2,2,0,0,0-.84.31c-.3.2-.35.2-.39-.06a.56.56,0,0,0-.08-.22,2.63,2.63,0,0,0-.79,0m-15.23.65a1,1,0,0,1,.6.85c0,.27.08.26-1.12.26s-1.3,0-1-.52c.12-.26.17-.33.25-.36s.08,0,.08-.06a2.13,2.13,0,0,1,.44-.22,1.85,1.85,0,0,1,.8.05m20.31.17A1.39,1.39,0,0,1,71.19,38a1,1,0,0,0,0,.24.87.87,0,0,1-.27.46,1.18,1.18,0,0,1-1.74-.13c-.49-.72-.13-2.31.52-2.31a.23.23,0,0,0,.13,0s.09,0,.27-.07l.33.07m-7.33.13c.3.18.5.72.31.84a8.9,8.9,0,0,1-1.79,0c-.09-.11,0-.49.21-.69a1.17,1.17,0,0,1,1.27-.14m-29.86,1.4c.22,0,.24.06.24.55s0,.55-.3.7c-.89.43-1.9.14-1.9-.54s.59-.85,2-.71M10.12,39s0,.07,0,.1.06.1-.07.15-.12,0-.17,0-.08-.07-.43-.07-.39,0-.43-.07-.12-.09-.15,0a.1.1,0,0,1-.16,0s0,0,0,0,0,.07-.09.11-.17.19-.07.23a.08.08,0,0,1,.05.07c0,.07.15.05.16,0a.12.12,0,0,0,0-.1l0-.06s.05,0,.1.07.13.14.05.14a.08.08,0,0,0-.07,0s-.06.05-.1.05-.11.09,0,.12a.09.09,0,0,1,0,.08.3.3,0,0,0,.07.14.26.26,0,0,1,.07.12.16.16,0,0,0,.05.1.29.29,0,0,1,0,.13s0,.09.05.09,0,0,0,0a.36.36,0,0,0,.1.14.9.9,0,0,1,.22.34.09.09,0,0,0,.07.06s.05,0,.05,0a7.08,7.08,0,0,0,1,1,1.18,1.18,0,0,1,.25.23s0,0,0,0a.1.1,0,0,1,.08.05.09.09,0,0,0,.07,0,.16.16,0,0,1,.11.05.18.18,0,0,0,.08,0l.12.06a.92.92,0,0,0,.61.07,7.25,7.25,0,0,0,.86-.18.8.8,0,0,1,.23-.05.22.22,0,0,0,.12,0,.14.14,0,0,1,.11-.05l.17-.07a.45.45,0,0,1,.15-.07.87.87,0,0,0,.2-.1l.16-.1a3.61,3.61,0,0,0,.48-.29l.17-.12.13-.08-.16,0a1.43,1.43,0,0,0-.29,0,.62.62,0,0,1-.22,0,1.13,1.13,0,0,0-.31-.05,2.19,2.19,0,0,1-.8-.22L12.72,41a3,3,0,0,1-.54-.25,6.1,6.1,0,0,1-.67-.47.83.83,0,0,0-.16-.12s0,0,0,0,0-.06,0-.06a1.53,1.53,0,0,1-.43-.48.05.05,0,0,0,0,0,0,0,0,0,1-.05,0s0,0-.08,0-.08,0-.08,0,0,0,0,0,0-.06,0-.15-.09-.07-.12,0,0,0-.08,0,0-.06-.08-.06-.06,0-.07-.08-.05-.11-.1,0m-.23,0c-.05.05,0,.11.07.11s.08,0,.07-.05A.12.12,0,0,1,10,39s-.09,0-.12,0m9.1.21a.29.29,0,0,0,0,.17.55.55,0,0,1-.07.23l-.14.28a.47.47,0,0,1-.1.16s0,0,0,.1a.21.21,0,0,1-.07.15.19.19,0,0,0-.07.12.16.16,0,0,1-.05.11.16.16,0,0,0-.05.1.14.14,0,0,1-.05.1.12.12,0,0,0,0,.09.18.18,0,0,1-.07.1.2.2,0,0,0-.06.09,2.12,2.12,0,0,1-.29.4.12.12,0,0,0-.05.08s-.08.15-.24.32-.16.18-.21.25a7.92,7.92,0,0,1-1.07,1s0,0,0,0,.27,0,.4-.06a.37.37,0,0,1,.17,0,2.67,2.67,0,0,0,.71-.67,2.53,2.53,0,0,1,.17-.21l.16-.2L18,41.7a.41.41,0,0,0,0-.08.07.07,0,0,1,.05-.06.07.07,0,0,0,.05-.06.75.75,0,0,1,.21-.32s0,0,0-.06a.16.16,0,0,1,.05-.11.1.1,0,0,0,.05-.07.31.31,0,0,1,.07-.12.42.42,0,0,0,.06-.15.1.1,0,0,1,.05-.08s.05-.06.05-.12a.22.22,0,0,1,.05-.13.2.2,0,0,0,.06-.12A.92.92,0,0,1,18.9,40a.67.67,0,0,0,.07-.22.09.09,0,0,1,.05-.09s.05-.11.07-.26,0-.35-.1-.24m.91,0a.17.17,0,0,0,0,.17c0,.1-.05.3-.12.3s0,0,0,.11a.26.26,0,0,1-.05.17.23.23,0,0,0-.05.15.31.31,0,0,1-.07.18.43.43,0,0,0-.06.12,2.05,2.05,0,0,1-.28.51s0,.05-.05.09a1.06,1.06,0,0,1-.12.24.7.7,0,0,0-.09.17,2.19,2.19,0,0,1-.19.28,1.69,1.69,0,0,0-.18.28s.06,0,.08,0a.23.23,0,0,1,.09-.07,1.51,1.51,0,0,0,.38-.31.48.48,0,0,0,.17-.25.15.15,0,0,1,.07-.11.08.08,0,0,0,.05-.07.34.34,0,0,1,.05-.14c0-.05.11-.22.18-.39a3.4,3.4,0,0,1,.17-.31.22.22,0,0,0,0-.15c0-.09,0-.14,0-.16S20,40,20,39.85s0-.16.06-.19.09-.52,0-.5l-.08.07m-2,.81s-.06.05-.06.08a0,0,0,0,1,0,.05c-.1,0-.43.37-.5.54a.21.21,0,0,1-.09.11.08.08,0,0,0,0,.07.09.09,0,0,1-.05.07A.08.08,0,0,0,17,41s-.06.1-.12.17l-.12.13s-.34.38-.51.55-.34.33-.72.67a.15.15,0,0,1-.08.05l-.08.06a.18.18,0,0,1-.1.07.18.18,0,0,0-.1.06,2.62,2.62,0,0,1-.68.44c-.23.12-.2.14.16.14a.51.51,0,0,0,.42-.13,1.12,1.12,0,0,1,.21-.14l.08,0,.19-.15A10.43,10.43,0,0,0,17,41.58a.45.45,0,0,1,.11-.17c.28-.31.33-.37.33-.42a.23.23,0,0,1,0-.09l.07-.09s.06-.11.1-.19a2.54,2.54,0,0,0,.16-.28,1.19,1.19,0,0,1,.12-.21c.07-.08.05-.14,0-.09m-2,1.13-.15.06a.21.21,0,0,1-.12.05.09.09,0,0,0-.08,0s0,.05-.05.05a1.63,1.63,0,0,0-.24.21c-.12.11-.28.24-.35.29a.64.64,0,0,0-.16.13s0,.05-.06.05a1.86,1.86,0,0,0-.26.15l-.3.19c-.05,0-.08,0-.08.06s0,0-.06,0a.43.43,0,0,0-.13,0,.35.35,0,0,1-.15.07l-.12.07a.21.21,0,0,1-.13,0,.52.52,0,0,0-.21.07.52.52,0,0,1-.21.07.37.37,0,0,0-.15,0,.42.42,0,0,1-.19.07c-.26.05-.22.11.09.15a1.11,1.11,0,0,0,.72-.08.3.3,0,0,1,.14,0,.16.16,0,0,0,.1,0,.14.14,0,0,1,.11-.05.66.66,0,0,0,.25-.12,1.43,1.43,0,0,1,.21-.12,0,0,0,0,0,0,0s0,0,.06-.05a1.46,1.46,0,0,0,.24-.14,1.06,1.06,0,0,1,.21-.11.2.2,0,0,0,.09-.06c.14-.13.41-.37.5-.43a8.27,8.27,0,0,0,.59-.58.15.15,0,0,1,.06-.07c.06,0,0,0-.2,0" transform="translate(0 0)"/><path id="path2" class="cls-3" d="M14.13,30a1.13,1.13,0,0,0,.24.18,2.7,2.7,0,0,1,.31.17l.13.08a9.21,9.21,0,0,1,1.11.85,4.22,4.22,0,0,1,.57.58l.23.27a4.26,4.26,0,0,1,.36.47,2.09,2.09,0,0,0,.49.59,2,2,0,0,1,.46.48s0,0,0,0-.34-.92-.74-1.45a4.84,4.84,0,0,0-.4-.5c-.05-.06-.13-.15-.17-.21s-.69-.68-.88-.84a7.5,7.5,0,0,0-.68-.51l-.33-.23h-.8l.05.08m-1.45.2c-.37.1-.51.23-.24.23a2.35,2.35,0,0,1,.68.19l.2.06.17.07a.25.25,0,0,0,.11.05,5.8,5.8,0,0,1,.69.37l.3.21a7.17,7.17,0,0,1,.64.5,2.25,2.25,0,0,0,.43.32,1.34,1.34,0,0,1,.18.07c.44.22.45.06,0-.37a6.93,6.93,0,0,0-1.75-1.33,8.18,8.18,0,0,0-1-.42,1.26,1.26,0,0,0-.38.05m3.38-.05s0,.07.12.14a16,16,0,0,1,1.36,1.41,7.73,7.73,0,0,1,.91,1.48.24.24,0,0,0,.07.12.16.16,0,0,1,.05.09.47.47,0,0,0,.05.16A5.65,5.65,0,0,1,19,34.67a1,1,0,0,0,.06.24c0,.05.05.24.07.42s.06.44.08.56a10.41,10.41,0,0,1,0,1.58,8.53,8.53,0,0,0-.12,1.12s0,0,0,0-.05.06-.05.14a.24.24,0,0,1,0,.14c-.07,0,0,.23.08.23s0,.07,0,.2.08.29.12.06a.68.68,0,0,1,.06-.2.56.56,0,0,0,0-.21c0-.1,0-.14.05-.14s.05,0,.05,0a3.23,3.23,0,0,1,.08-.51,10.14,10.14,0,0,0-.1-3.73c0-.08-.05-.2-.07-.26a8.61,8.61,0,0,0-2.27-3.81c-.2-.18-.9-.44-1-.35m-5,.74a6.74,6.74,0,0,0-1.83,1.6l-.18.23a7,7,0,0,0-.65,1.1l-.15.33a7.16,7.16,0,0,0-.41,3.53c.14.77.3,1.34.37,1.29s0,0,.06.08a.48.48,0,0,0,.08.16.52.52,0,0,1,.07.12s0,0,0,0,0-.08.12-.11.11-.07.09-.11,0-.05,0,0a.1.1,0,0,0,.16,0c0-.07.1-.06.15,0s.08.07.43.07.39,0,.43.07,0,.06.17,0,.15-.09.07-.15,0-.05,0-.1.08-.08.1,0,0,.08.07.08.06,0,.08.06,0,.05.08,0,.06,0,.07,0,0,0,0-.18a.49.49,0,0,1-.06-.17c0-.07-.1-.21-.13-.19s0,0,0,0a1.48,1.48,0,0,0-.14-.51,4.55,4.55,0,0,1,0-2.71,1,1,0,0,0,.07-.22,4.14,4.14,0,0,1,.47-.95.45.45,0,0,0,.1-.15,5.06,5.06,0,0,1,1.67-1.46,4.89,4.89,0,0,1,1.8-.51c.43-.06.44-.1.1-.29l-.13-.08a6.31,6.31,0,0,0-.56-.34l-.12-.06a1.58,1.58,0,0,0-.4-.17L13,31.09a8,8,0,0,0-1.6-.36,3.16,3.16,0,0,0-.31.16m7.13.16a1.86,1.86,0,0,0,.28.42,9.93,9.93,0,0,1,1.06,2,5.13,5.13,0,0,1,.21.66c0,.07,0,.21.08.3A9.49,9.49,0,0,1,20,38.06c0,.17,0,.36,0,.43a.35.35,0,0,1,0,.17.8.8,0,0,0,.08.55l.06.07.1-.12a.34.34,0,0,0,.1-.28.33.33,0,0,1,.05-.22s0-.1.06-.23a2.16,2.16,0,0,1,.06-.47,11,11,0,0,0,.05-2.09c0-.16-.05-.46-.07-.65a2.13,2.13,0,0,0-.07-.42,2.46,2.46,0,0,1-.06-.3,1.7,1.7,0,0,0-.09-.36,3.09,3.09,0,0,1-.09-.31,9.3,9.3,0,0,0-.51-1.31c-.2-.39-.23-.46-.26-.47a.26.26,0,0,1,0-.09c-.06-.18-1.1-1-1.1-.91m2.48,3c0,.05,0,.16.1.53s.11.65.18,1.29a13.61,13.61,0,0,1,0,2.19,1.35,1.35,0,0,0,0,.46s0,.08,0,.15-.05.07,0,.12.1.09.1,0a.22.22,0,0,1,0-.13.27.27,0,0,0,0-.12,2.74,2.74,0,0,1,.1-.47,8.69,8.69,0,0,0,0-2.74,1.46,1.46,0,0,1-.06-.26.88.88,0,0,0-.07-.28.86.86,0,0,1-.05-.15c0-.13-.25-.64-.28-.57M20.79,39c0,.12,0,.14,0,.17s.09,0,.09-.15-.06-.11-.1,0M10,39A.12.12,0,0,0,10,39s0,.05-.07.05S9.84,39,9.89,39,10,39,10,39m9.83.18a1.29,1.29,0,0,0-.05.28c0,.23,0,.25,0,.17a.34.34,0,0,0,0-.2.2.2,0,0,1,0-.14s0,0,0-.08,0,0,0,0m-11.15.17,0,.06c.07.07,0,.17-.09.17s-.1,0-.1.05.19,0,.23,0a.09.09,0,0,1,.07,0c.08,0,.07,0-.05-.14s-.1-.09-.1-.07m1.89.08a.05.05,0,0,0,.05,0s0,0,0,0,0,0,0,0a0,0,0,0,0-.05,0m-2.16,0s0,.1,0,.1.08-.1,0-.12a.12.12,0,0,0-.07,0M18,39.9A.08.08,0,0,0,18,40s0,0,0,0,0-.09,0,0" transform="translate(0 0)"/><path id="path3" class="cls-4" d="M14,29.92s.08.13.58.42l.44.25.09.06a.82.82,0,0,0,.15.12A8.52,8.52,0,0,1,17,32.64a1.92,1.92,0,0,0,.42.51,5,5,0,0,1,.67.72c0,.1.19.09.19,0a6.8,6.8,0,0,0-.49-1,8.63,8.63,0,0,0-2.58-2.72l-.35-.23h-.44a2.21,2.21,0,0,0-.49,0m1.26.25a7.5,7.5,0,0,1,.68.51c.19.16.82.76.88.84s.12.15.17.21a4.84,4.84,0,0,1,.4.5c.4.53.85,1.4.74,1.45s0,0,0,0a2,2,0,0,0-.46-.48,2.09,2.09,0,0,1-.49-.59,4.26,4.26,0,0,0-.36-.47l-.23-.27A7.9,7.9,0,0,0,15,30.55l-.19-.12-.13-.08a2.7,2.7,0,0,0-.31-.17,1.13,1.13,0,0,1-.24-.18l-.05-.08h.8l.33.23m.71-.11c0,.05,0,.11.22.28a10.13,10.13,0,0,1,1.8,2,8.46,8.46,0,0,1,.59,1.15.1.1,0,0,0,0,.07.84.84,0,0,1,.07.18.44.44,0,0,0,.05.18,4,4,0,0,1,.2.68c0,.07.06.24.09.37a8.92,8.92,0,0,1,.15,2.2c0,.14-.05.42-.07.61a4.75,4.75,0,0,1-.21,1,3.81,3.81,0,0,0-.09.38,1.31,1.31,0,0,1-.08.21.58.58,0,0,0-.06.17.27.27,0,0,1-.05.14.21.21,0,0,0,0,.11.87.87,0,0,1-.1.25,6.79,6.79,0,0,1-.43.79A.2.2,0,0,0,18,41s-.23.33-.65.89a14.94,14.94,0,0,1-1.2,1.18c-.31.24-.22.45.12.27a.45.45,0,0,1,.19,0,1.76,1.76,0,0,0,.54-.19,8.54,8.54,0,0,0,1.47-1.75,1,1,0,0,1,.14-.23c.07-.12.2-.35.29-.53a2.71,2.71,0,0,0,.27-.63.31.31,0,0,1,.06-.14.19.19,0,0,0,0-.13.65.65,0,0,1,.07-.23.74.74,0,0,0,.06-.18,1.88,1.88,0,0,1,.05-.2,9.76,9.76,0,0,0,.07-4.42,9.56,9.56,0,0,0-.31-1l-.12-.3a10.32,10.32,0,0,0-.88-1.58c-.79-1.08-1.17-1.43-1.74-1.59s-.49-.13-.52-.08m-3.14.06c-.53.1-.8.34-.39.34a.59.59,0,0,1,.22.05l.24.07a.76.76,0,0,1,.21.06.6.6,0,0,0,.21.09,6.35,6.35,0,0,1,2.09,1.35,1.49,1.49,0,0,0,.68.31.18.18,0,0,1,.11,0c.19.14.3,0,.15-.16a7.92,7.92,0,0,0-2-1.67,1.43,1.43,0,0,1-.23-.14l-.08,0-.21-.08c-.55-.25-.72-.29-1-.23m.78.21.55.24a6.93,6.93,0,0,1,1.75,1.33c.43.43.42.59,0,.37a1.34,1.34,0,0,0-.18-.07,2.25,2.25,0,0,1-.43-.32,7.17,7.17,0,0,0-.64-.5l-.3-.21a5.8,5.8,0,0,0-.69-.37.25.25,0,0,1-.11-.05l-.17-.07-.2-.06a2.35,2.35,0,0,0-.68-.19c-.27,0-.13-.13.24-.23s.37-.08.88.13m2.89-.12c.46.13.48.14,1,.71a8.22,8.22,0,0,1,1.88,3.39c0,.06.05.17.07.25a10.63,10.63,0,0,1,0,4.28c0,.09-.06.23-.07.3a1.55,1.55,0,0,1-.06.23,3.06,3.06,0,0,0-.12.34A2.55,2.55,0,0,1,19,40a.18.18,0,0,0-.05.11,7.06,7.06,0,0,1-.46.94,1.65,1.65,0,0,0-.11.2l0,.06a1.85,1.85,0,0,0-.15.22,5.37,5.37,0,0,1-1.41,1.53c-.79.27-.92.23-.45-.15a11.69,11.69,0,0,0,.87-.86,8.72,8.72,0,0,0,.88-1.19,4.68,4.68,0,0,0,.36-.7s0,0,.05-.08a.15.15,0,0,0,.06-.1.74.74,0,0,1,.06-.18.64.64,0,0,0,.07-.19.24.24,0,0,1,.05-.12A6.72,6.72,0,0,0,19.14,38c0-.16.05-.38.07-.49a10.4,10.4,0,0,0,0-1.58c0-.12-.05-.37-.08-.56s-.06-.37-.07-.42a1,1,0,0,1-.06-.24,5.65,5.65,0,0,0-.37-1.12.47.47,0,0,1-.05-.16.16.16,0,0,0-.05-.09.24.24,0,0,1-.07-.12,7.73,7.73,0,0,0-.91-1.48,16,16,0,0,0-1.36-1.41c-.22-.19-.17-.2.27-.08m-5.29.57A7.24,7.24,0,0,0,9.1,32.59l-.25.35a1.24,1.24,0,0,0-.13.19,1.49,1.49,0,0,1-.13.25,4.37,4.37,0,0,0-.22.43c0,.11-.11.25-.13.31a6.28,6.28,0,0,0-.46,1.67,11.23,11.23,0,0,0,0,1.93c0,.13.06.33.08.43a4.75,4.75,0,0,0,.39,1.19.43.43,0,0,1,.05.15,3.4,3.4,0,0,0,.27.54l.1.17a2,2,0,0,0,.18.29l.16.22a7.5,7.5,0,0,0,1.51,1.52.41.41,0,0,1,.12.08,3.51,3.51,0,0,0,.48.3l.25.13.34,0a2.45,2.45,0,0,0,.47-.08l.22,0a3.4,3.4,0,0,0,.78-.26l.1-.05a3.14,3.14,0,0,0,.53-.25l.24-.13a4.71,4.71,0,0,0,.5-.35l.11-.07c.2-.11.08-.28-.19-.28A5.19,5.19,0,0,1,13,40.93a.49.49,0,0,0-.18,0,.1.1,0,0,1-.08,0l-.21-.12a4.49,4.49,0,0,1-1.24-.92,5.82,5.82,0,0,1-.46-.55,1,1,0,0,0-.09-.17,4.3,4.3,0,0,1-.58-1.35,2.55,2.55,0,0,0-.07-.32,5.86,5.86,0,0,1,0-1.45c0-.09.06-.23.07-.32a4.35,4.35,0,0,1,.58-1.36,1,1,0,0,0,.09-.17,5,5,0,0,1,1.25-1.21l.27-.18a2.73,2.73,0,0,1,.3-.15l.32-.14a3.07,3.07,0,0,1,.71-.18,1.17,1.17,0,0,0,.26,0l.47-.05c.35,0,.47-.14.26-.25a.33.33,0,0,1-.11-.09.08.08,0,0,0-.07,0,.2.2,0,0,1-.09-.06,6,6,0,0,0-.84-.5l-.15-.07a.18.18,0,0,0-.11,0L13.09,31a5.26,5.26,0,0,0-1.48-.36.56.56,0,0,0-.45.1m.7,0a5.24,5.24,0,0,1,1.15.29l.13.05a1.58,1.58,0,0,1,.4.17l.13.06c.09,0,.76.46.87.54s.06.12-.29.17a5.57,5.57,0,0,0-1.46.35,5,5,0,0,0-2,1.62.45.45,0,0,1-.1.15,4.14,4.14,0,0,0-.47.95,1,1,0,0,1-.07.22,4.5,4.5,0,0,0,0,2.67.64.64,0,0,1,.07.19,4,4,0,0,0,.4.85.78.78,0,0,1,.1.15,4.74,4.74,0,0,0,2,1.68l.16.07a.53.53,0,0,0,.18.07.47.47,0,0,1,.16.05,1.07,1.07,0,0,0,.31.08l.51.07.4,0c.27,0,.29.08,0,.24l-.31.22a.58.58,0,0,1-.15.1,1.33,1.33,0,0,0-.22.12,1.82,1.82,0,0,1-.28.16l-.16.06a5.86,5.86,0,0,1-1.85.47A5,5,0,0,1,9.32,41l-.23-.29a3.85,3.85,0,0,1-.3-.45.2.2,0,0,0,0-.08,6,6,0,0,1-.48-1,7.19,7.19,0,0,1,0-5l.15-.33a7,7,0,0,1,.65-1.1l.18-.23a6.74,6.74,0,0,1,1.83-1.6c.32-.18.24-.17.76-.09m6.23.18a2.34,2.34,0,0,0,.27.4c.14.19.3.42.36.52a1.7,1.7,0,0,0,.13.21,8.48,8.48,0,0,1,.78,1.76.63.63,0,0,0,.06.18.57.57,0,0,1,.07.23,1,1,0,0,0,.07.27,1.8,1.8,0,0,1,.06.33,3.14,3.14,0,0,0,.06.32,14,14,0,0,1,.12,1.45,1.68,1.68,0,0,1,0,.42,3.85,3.85,0,0,0-.06.61,5.89,5.89,0,0,1-.19,1.25,1,1,0,0,0-.05.24,1,1,0,0,1-.07.21.56.56,0,0,0-.07.19,4.78,4.78,0,0,1-.25.69.58.58,0,0,0-.05.13,7,7,0,0,1-.39.76l-.17.28-.09.17a6.88,6.88,0,0,1-.5.64s0,.07,0,.12.1.13.53-.2a2.48,2.48,0,0,0,1-1.22,3.63,3.63,0,0,0,.27-.59.47.47,0,0,1,.05-.14,4,4,0,0,0,.23-.64c0-.1.06-.24.08-.29a6.67,6.67,0,0,0,.15-.69c0-.13.06-.33.09-.46a17.8,17.8,0,0,0,0-2.73,2.33,2.33,0,0,1-.09-.45,5.36,5.36,0,0,0-.19-.89,2,2,0,0,1-.06-.24s-.28-.78-.37-1-.11-.24-.17-.37a4.23,4.23,0,0,0-.2-.38.67.67,0,0,1-.12-.21,4,4,0,0,0-.68-.62l-.3-.21c-.17-.12-.29-.15-.29-.07m.3.13a3.58,3.58,0,0,1,.94.85.26.26,0,0,0,0,.09s.06.08.26.47a9.3,9.3,0,0,1,.51,1.31,3.09,3.09,0,0,0,.09.31,1.7,1.7,0,0,1,.09.36,2.46,2.46,0,0,0,.06.3,2.28,2.28,0,0,1,.07.43c0,.21.06.48.07.61a12.05,12.05,0,0,1,0,1.7c0,.14,0,.43-.07.64a3,3,0,0,1-.08.49.54.54,0,0,0-.05.19,8,8,0,0,1-.4,1.34.58.58,0,0,0,0,.13.34.34,0,0,1-.05.14c0,.05-.09.18-.14.29A2.52,2.52,0,0,1,18.75,42c-.58.45-.63.44-.25-.06a4.05,4.05,0,0,0,.35-.53c.3-.52.39-.67.39-.69a.45.45,0,0,1,.05-.13,6.63,6.63,0,0,0,.39-1,.56.56,0,0,1,0-.15.63.63,0,0,0,.07-.22,2.33,2.33,0,0,1,.07-.25,1.59,1.59,0,0,0,.08-.33c0-.12,0-.31.07-.41a9.68,9.68,0,0,0-.15-3.86c0-.09-.06-.23-.08-.3a5.13,5.13,0,0,0-.21-.66,9.93,9.93,0,0,0-1.06-2c-.33-.43-.36-.52-.12-.36m27.83,2.28c-.49,0-1.3.51-1.3.78a.19.19,0,0,1-.05.1c-.12.13-.13.43-.14,3,0,3-.08,2.71.51,2.71s.5.22.51-2c0-1,0-1.86,0-1.87a4.3,4.3,0,0,1,.62,0c.73,0,.71,0,.71-.45s0-.4-.73-.4-.63,0-.62-.36c0-.22.1-.48.18-.48a.22.22,0,0,0,.1-.06,2.9,2.9,0,0,1,1.21,0,.3.3,0,0,0,.2,0h.12V34c0-.45,0-.44-.32-.53a4.83,4.83,0,0,0-1-.08m1,.13.2.07.1,0V34c0,.42,0,.44-.24.34a2.6,2.6,0,0,0-1.36,0,.68.68,0,0,0-.25.69l0,.23h.61c.74,0,.72,0,.72.39s0,.4-.68.4a3.47,3.47,0,0,0-.63,0A9.08,9.08,0,0,0,45.67,38a15.33,15.33,0,0,1,0,1.91,1.8,1.8,0,0,1-.8,0s-.06-5,0-5.26a1.39,1.39,0,0,1,1.31-1.16,5.3,5.3,0,0,1,1.1.05m-26.74,0a.33.33,0,0,0,0,.15l.07.24c0,.11.05.28.08.39a10.88,10.88,0,0,1,.26,2.92c-.06.62-.14,1.28-.18,1.43s-.05.24-.08.38a1.46,1.46,0,0,1-.08.31.38.38,0,0,0,0,.16.54.54,0,0,1-.05.21c0,.08-.05.12,0,.15s.28-.19.28-.26a.72.72,0,0,1,.08-.21,1.68,1.68,0,0,0,.19-.5.45.45,0,0,1,0-.17,1.29,1.29,0,0,0,.06-.21l.07-.26a7.45,7.45,0,0,0,0-3.12,2,2,0,0,1-.06-.26,1,1,0,0,0-.07-.23.45.45,0,0,1,0-.17.4.4,0,0,0-.06-.16c0-.06,0-.11,0-.13a2.56,2.56,0,0,0-.33-.63l-.1-.12v.09m2.82.12c0,.05-.06.13-.06.38,0,.46-.07.43,1,.43.77,0,.88,0,.9.06s0,1.24,0,2.69c0,3.13-.06,2.78.52,2.78s.51.37.53-2.8V34.49l.9,0c.49,0,.91,0,.93,0a1.39,1.39,0,0,0,0-.78,41.46,41.46,0,0,0-4.73,0m4.69,0a1,1,0,0,1,0,.67,3.85,3.85,0,0,1-.93,0h-.89l0,.08c0,.06,0,1.1,0,2.73,0,2.58,0,2.64-.07,2.68a2,2,0,0,1-.78,0,12.35,12.35,0,0,1-.07-2.73,16.05,16.05,0,0,0-.06-2.72,7.16,7.16,0,0,0-.93,0c-1,0-1,0-1-.39s-.24-.36,2.38-.36c1.51,0,2.3,0,2.34,0m27.44,0s0,.18,0,.5c0,.65-.18.58,1.63.59,1.65,0,1.62,0,1.43.22s-.39.45-.74.88l-.17.2a3.48,3.48,0,0,0-.22.28,3.13,3.13,0,0,1-.21.26,3.89,3.89,0,0,0-.34.41l-.16.19a.59.59,0,0,0-.14.19s0,0,0,0a1,1,0,0,0-.2.21l-.31.38-.19.22-.18.22c-.26.3-.28.36-.28.87s0,.46.07.52a38.87,38.87,0,0,0,4.58,0,2.48,2.48,0,0,0,.06-1s-.73,0-1.58,0c-1.5,0-1.55,0-1.55-.08a.12.12,0,0,1,0-.09,2.51,2.51,0,0,0,.24-.28,1.9,1.9,0,0,1,.23-.26.08.08,0,0,0,0-.06.09.09,0,0,1,0-.07l.13-.16a1.54,1.54,0,0,1,.18-.23c0-.05.16-.2.26-.32s.33-.43.52-.67l.4-.51.13-.15.27-.35c.18-.24.35-.45.58-.74.09-.11.09-.12.08-.72,0-.3,0-.43,0-.45s-4.49,0-4.54,0m4.5,0a1.23,1.23,0,0,1,.05.5v.46l-.16.22c-.09.12-.33.43-.54.68l-1.56,2-.65.81c-.41.5-.53.45,1.26.45a15.25,15.25,0,0,1,1.58,0,1.62,1.62,0,0,1,0,.93l0,.08h-2.2c-2.62,0-2.32.08-2.31-.59l0-.48.2-.24.3-.38c.06-.06.26-.31.46-.55l.44-.54.48-.59c.06-.06.22-.26.36-.44.46-.57.61-.75.81-1,.34-.39.44-.37-1.33-.37-1.36,0-1.52,0-1.58-.05a2.13,2.13,0,0,1,0-1c.1,0,4.39,0,4.43,0m-39,.63a.8.8,0,0,1,.08.24.86.86,0,0,0,.05.15.88.88,0,0,1,.07.28,1.46,1.46,0,0,0,.06.26,8.69,8.69,0,0,1,0,2.74,1.48,1.48,0,0,0-.06.25,1.87,1.87,0,0,1-.07.33c0,.06-.08.23-.13.36a1.1,1.1,0,0,1-.14.32l-.06.08v-.15c0-.09.05-.3.09-.48A10.88,10.88,0,0,0,21,35.86q-.1-1-.18-1.29c-.17-.67-.12-.75.1-.2m6.91.92a42.43,42.43,0,0,0,0,4.65,1.53,1.53,0,0,0,.9,0c.05-.06.06-.22.06-1.64,0-1.8,0-1.68.19-1.84a1.21,1.21,0,0,1,.73-.29c.41,0,.43-.05.43-.48s0-.46-.45-.42a1.58,1.58,0,0,0-.83.3c-.2.13-.25.11-.29-.12a.25.25,0,0,0-.08-.17,1.46,1.46,0,0,0-.66,0m3.77,0a1.88,1.88,0,0,0-.4.06L31,35.4c-.2,0-.24.11-.26.49s.09.53.43.35a.63.63,0,0,1,.26-.05,2.17,2.17,0,0,0,.4,0,2.36,2.36,0,0,1,1.27.13.21.21,0,0,0,.11.07.09.09,0,0,1,.06.07.16.16,0,0,0,.05.09s0,.11,0,.29,0,.3-.26.21a6.27,6.27,0,0,0-1.37,0,1,1,0,0,1-.23,0,.54.54,0,0,0-.25.07.24.24,0,0,1-.12.05.71.71,0,0,0-.24.14A1.5,1.5,0,0,0,31,39.73a1.35,1.35,0,0,0,.46.18,3.59,3.59,0,0,0,1.84-.14c.17-.09.17-.09.29,0a.53.53,0,0,0,.46.21c.31,0,.29.11.29-1.84s0-2-.37-2.37a2.85,2.85,0,0,0-2.38-.51m3.75,0a10.36,10.36,0,0,0-.06,2.31c0,2.67-.06,2.38.52,2.38s.51.2.52-1.75V36.6l.17-.11a.69.69,0,0,0,.16-.13s0,0,.07,0a.31.31,0,0,0,.12,0,1.39,1.39,0,0,1,1.28.07c.26.27.25.22.25,1.95,0,1.88-.05,1.7.51,1.7s.54.17.54-1.64a9.08,9.08,0,0,0-.07-1.82,1.46,1.46,0,0,0-.29-.71.06.06,0,0,1,0-.06c0-.1-.29-.31-.6-.43a2.81,2.81,0,0,0-2.13.33c-.06.07-.15,0-.18-.13a.52.52,0,0,0-.77-.23m6.16,0a1.93,1.93,0,0,0-.79.25l-.08.06a1.56,1.56,0,0,0-.46.63,3.14,3.14,0,0,0,0,1c.18.38.53.74.72.74l.26.07a2.88,2.88,0,0,0,.85.06c.66,0,.87,0,.87.18a.61.61,0,0,0,.05.15.2.2,0,0,1,0,.21.81.81,0,0,1-.22.31.35.35,0,0,0-.14.06,5.29,5.29,0,0,1-1.43,0,.69.69,0,0,0-.25-.07.64.64,0,0,1-.27-.07.31.31,0,0,0-.28,0,1.22,1.22,0,0,0,0,.82,4.44,4.44,0,0,0,2.36.2c.64-.13,1.17-.55,1.18-.94a1,1,0,0,1,0-.24,1.5,1.5,0,0,0-.59-1.37,1.75,1.75,0,0,0-1.07-.2c-1,0-1.15-.07-1.2-.37s.14-.59.35-.59a1.45,1.45,0,0,0,.29,0,1.7,1.7,0,0,1,.67,0l.46.07a1.94,1.94,0,0,1,.42.08.47.47,0,0,0,.42,0,2.15,2.15,0,0,0,0-.8,5.87,5.87,0,0,0-2.22-.2m7.7,0a1.8,1.8,0,0,0-.81.28s0,0,0,0-.72.74-.72.95a.58.58,0,0,1-.06.17,5.51,5.51,0,0,0,0,1.72.74.74,0,0,1,.06.18,1.77,1.77,0,0,0,.58.86l.21.16a2.81,2.81,0,0,0,1.16.34,6.51,6.51,0,0,0,1.78-.15s0-.15,0-.41c0-.43,0-.46-.23-.42l-.3.06a5.11,5.11,0,0,1-1.36,0L49.23,39a.26.26,0,0,1-.13,0s0,0-.09-.08a1,1,0,0,1-.48-.67c-.05-.24-.1-.23,1.47-.23s1.47,0,1.53-.17a2.85,2.85,0,0,0-.25-1.88,2.11,2.11,0,0,0-2.08-.62m3.28,0c-.07.07-.06,4.59,0,4.66s.13,0,.45,0c.56,0,.51.18.51-1.75,0-.87,0-1.61,0-1.63a1,1,0,0,1,.36-.29.18.18,0,0,0,.1-.06,1,1,0,0,1,.38-.09c.41-.06.42-.06.42-.52s0-.43-.39-.4a2,2,0,0,0-1,.41,0,0,0,0,1,0,0,.86.86,0,0,1-.12-.3c0-.14-.58-.22-.7-.1m12.79,0c-.13.05-.13.05-.13,2.31v2.2l.08.08c.09.08.1.09.6.09s.51,0,.59-.09l.08-.08V38.34c0-1.45,0-1.47.07-1.56a1.64,1.64,0,0,1,.86-.44c.17,0,.18-.06.18-.51s0-.55-.27-.55a1.14,1.14,0,0,0-.26,0l-.25.12a1.39,1.39,0,0,0-.28.16c-.19.17-.25.14-.31-.15a.32.32,0,0,0-.06-.13,3.34,3.34,0,0,0-.9,0m4.17,0a2.26,2.26,0,0,0-.93.36,1.61,1.61,0,0,0-.57.76.14.14,0,0,1,0,.11,3.6,3.6,0,0,0,0,2.18.18.18,0,0,1,0,.11,1.88,1.88,0,0,0,.81.9.45.45,0,0,1,.15.07,3.44,3.44,0,0,0,1.16.23,3.74,3.74,0,0,0,1.23-.25.27.27,0,0,1,.13,0,.09.09,0,0,0,.08-.05.12.12,0,0,1,.07-.07,1.92,1.92,0,0,0,.7-.94.42.42,0,0,1,.06-.15,1,1,0,0,0,0-.32,1.77,1.77,0,0,1,0-.31,4.15,4.15,0,0,0-.11-1.18.46.46,0,0,1-.06-.16c0-.18-.46-.83-.59-.83s0,0-.06,0a.07.07,0,0,0-.06,0s-.05,0-.08-.05a3.69,3.69,0,0,0-2-.26m-41,.08a.77.77,0,0,1,.09.22c0,.14.16.2.22.11s1.11-.49,1.25-.35,0,.75-.15.75c-.38,0-1,.31-1.1.52,0,0,0,.78,0,1.64s0,1.59,0,1.62a1.92,1.92,0,0,1-.83,0,43.72,43.72,0,0,1,0-4.58c.13-.07.51,0,.56,0m4.22,0a1.66,1.66,0,0,1,1.53.9,21.67,21.67,0,0,1,0,3.69.47.47,0,0,1-.52-.1c-.17-.15-.23-.16-.46-.07a3.14,3.14,0,0,1-2.16,0,1.44,1.44,0,0,1-.58-1.84c.22-.6,1-.91,2-.85l.66,0h.2v-.21c0-.51-.28-.73-1-.77a4.93,4.93,0,0,0-1.35.16c-.19.1-.23,0-.23-.37s0-.34.38-.44a4.69,4.69,0,0,1,1.52-.11m3.28,0a2.09,2.09,0,0,1,.1.23c.07.2.16.26.27.16a2.59,2.59,0,0,1,2.12-.29c.8.31.89.59.91,2.78,0,1.91.06,1.73-.42,1.73s-.47.19-.49-1.65V36.71l-.09-.16c-.31-.59-1.13-.63-1.88-.1-.21.15-.2,0-.2,1.82s.05,1.66-.46,1.66-.45.27-.45-2.33V35.39l.07-.06a.81.81,0,0,1,.53,0m6.66,0a3.69,3.69,0,0,1,1.06.21.94.94,0,0,1,0,.38c0,.42,0,.43-.33.32-1.15-.35-2.34-.15-2.34.41s.19.53,1.19.56l.76,0,.25.13a1.25,1.25,0,0,1,.67,1.45c-.06.37-.4.86-.59.86l-.14.06a4.7,4.7,0,0,1-2.63,0l-.18-.08v-.3c0-.37.06-.48.23-.39a.37.37,0,0,0,.16.05l.32.07a3.47,3.47,0,0,0,1.58,0c.41-.22.49-.6.19-.87-.13-.13-.18-.14-1-.15-1.28,0-1.7-.35-1.7-1.36s.76-1.49,2.41-1.35m7.8,0a1.4,1.4,0,0,1,1,1,4.07,4.07,0,0,1,0,1.47l0,.08H50c-1.69,0-1.63,0-1.52.36a1.16,1.16,0,0,0,.82.81,4.89,4.89,0,0,0,1.72,0c.33-.08.33-.08.33.33s0,.37-.44.43c-1.73.24-2.79-.12-3.19-1.07a3.52,3.52,0,0,1,.11-2.6,2,2,0,0,1,.53-.55.16.16,0,0,0,.09,0,3.27,3.27,0,0,1,1.95-.2M53,35.3c.06,0,.09.06.11.16.08.29.13.31.36.16a1.93,1.93,0,0,1,.82-.3c.33,0,.34,0,.34.36s0,.41-.19.41a1.49,1.49,0,0,0-.94.39l-.15.14v1.62c0,1.89,0,1.69-.46,1.69s-.45.3-.45-2.32V35.35l.08,0a1.09,1.09,0,0,1,.48,0m8.89,0a.62.62,0,0,1-.2.07,1.87,1.87,0,0,0-.89.55,1.83,1.83,0,0,0-.41.71,1,1,0,0,1-.05.24,4.37,4.37,0,0,0,0,1.35,2.11,2.11,0,0,1,.07.3c0,.07,0,.12.05.12s0,0,0,.05a2,2,0,0,0,.72.86.3.3,0,0,1,.14.07.24.24,0,0,0,.13.07l.14,0a5.06,5.06,0,0,0,2.33.13c.48,0,.51-.09.5-.67s0-.49-.36-.42a6.58,6.58,0,0,1-1,.05h-.76l-.27-.14c-.28-.14-.48-.35-.48-.51v-.08h2.86l.07-.08a3.28,3.28,0,0,0,0-1.45,1.62,1.62,0,0,0-1.16-1.22,5.06,5.06,0,0,0-1.48,0m9.09.1c.62.22,1.21.78,1.21,1.17a.62.62,0,0,0,0,.18,3,3,0,0,1-.43,2.52,2.91,2.91,0,0,1-2.86.47l-.23-.11a1.92,1.92,0,0,1-.72-.75,2.82,2.82,0,0,0-.13-.28,4.17,4.17,0,0,1,0-2,.31.31,0,0,0,0-.13,1.7,1.7,0,0,1,.71-.82l.14-.08A3.51,3.51,0,0,1,71,35.41m-7.64,0a1.45,1.45,0,0,1,1,.77c.24.48.32,1.72.11,1.84,0,0-.66,0-1.43,0-1.52,0-1.48,0-1.45.2.1.54.87.74,2.26.61.61-.06.58-.08.57.42s0,.49-.56.54C62,40,61,39.67,60.59,38.72a2.62,2.62,0,0,1,.56-3,3,3,0,0,1,2.22-.28m2.76-.05a.39.39,0,0,1,.07.21c0,.25.09.25.41,0a1.87,1.87,0,0,1,.71-.29c.22,0,.24,0,.21.54v.4l-.19,0a2.11,2.11,0,0,0-.71.33c-.21.19-.2.1-.2,1.7v1.45l-.07.06a2.1,2.1,0,0,1-1.09,0c-.06-.09-.08-4.32,0-4.44a1.58,1.58,0,0,1,.89,0m-17,.75a1,1,0,0,0-.66.72c-.07.28-.13.26,1,.26s1.21,0,1-.5a1.08,1.08,0,0,0-1.39-.48m.78,0a.62.62,0,0,0,.18,0c.22,0,.59.75.43.85a16.68,16.68,0,0,1-2,0s0,0,0-.07a.33.33,0,0,0,0-.15,1.1,1.1,0,0,1,.3-.51,1.36,1.36,0,0,1,1.07-.17m19.85.13a.94.94,0,0,0-.28.1l-.09.06c-.22,0-.43.58-.43,1.18s.16,1.06.54,1.23l.18.08a1.27,1.27,0,0,0,1.12-.23,1.8,1.8,0,0,0-.08-2.26,1.63,1.63,0,0,0-.71-.2l-.25,0m-7.72.09c-.31.17-.58.64-.46.79a7.91,7.91,0,0,0,1.69,0c.2-.11,0-.61-.28-.79a1.35,1.35,0,0,0-.95,0m8.48,0a.16.16,0,0,0,.09,0c.07,0,.25.21.36.41a2.17,2.17,0,0,1-.12,1.71,1.15,1.15,0,0,1-1.64,0,2.12,2.12,0,0,1,.07-2,1,1,0,0,1,.51-.27,1.85,1.85,0,0,1,.73.06m-7.66,0s0,0,.1.07c.22.08.43.56.29.67a9.09,9.09,0,0,1-1.65,0c-.09-.09.24-.57.47-.7s.79-.11.79,0M31.75,37.84a.66.66,0,0,0-.11,1.21c.44.26,1.69,0,1.74-.35a2.82,2.82,0,0,0,0-.82,3.64,3.64,0,0,0-1.59,0m1.32,0,.24,0v.92l-.09,0a.29.29,0,0,0-.11.06s-.18.09-.53.16a1.88,1.88,0,0,1-.92-.05.21.21,0,0,0-.12,0,0,0,0,0,1,0,0,.41.41,0,0,0-.08-.13.84.84,0,0,1,0-.66,1.37,1.37,0,0,1,.49-.29,5.09,5.09,0,0,1,1.16,0m-14.9,1.57a.15.15,0,0,0-.09.11,4.53,4.53,0,0,1-.63.65,3.64,3.64,0,0,0-.32.4,7.54,7.54,0,0,1-2.74,2.54c-.57.26-.53.38.12.38H15l.33-.23a4.76,4.76,0,0,0,.73-.56.63.63,0,0,1,.15-.12,13.26,13.26,0,0,0,.94-1l.07-.09.09-.12a1.28,1.28,0,0,1,.1-.15,2,2,0,0,0,.28-.39l.14-.24a1.84,1.84,0,0,0,.1-.16l.07-.12a2.41,2.41,0,0,0,.35-.89c0-.06,0-.06-.14,0m0,.36c0,.05-.06.14-.09.19a8.55,8.55,0,0,1-.7,1.23,2,2,0,0,0-.17.21,9.57,9.57,0,0,1-1.35,1.38,8.76,8.76,0,0,1-.83.59,1.85,1.85,0,0,1-.87,0c-.08,0,.06-.11.47-.33a8.24,8.24,0,0,0,2.64-2.53,2.17,2.17,0,0,1,.27-.33l.37-.37c.27-.26.35-.29.26-.09m-2,1.13A.64.64,0,0,1,16,41a1.44,1.44,0,0,0-.69.38,6.42,6.42,0,0,1-2.83,1.52c-.33,0-.26.22.1.32l.33.1a3.4,3.4,0,0,0,1.64-.61.68.68,0,0,1,.19-.11,6.05,6.05,0,0,0,.68-.5A4,4,0,0,0,16.44,41c0-.07-.19-.09-.29,0m.13.17a7.59,7.59,0,0,1-2.34,1.84l-.08,0a4.19,4.19,0,0,1-.69.28.76.76,0,0,1-.41,0c-.45-.09-.56-.27-.18-.28a.45.45,0,0,0,.22,0l.15-.05a.63.63,0,0,0,.21-.07l.17-.06a5,5,0,0,0,.79-.38l.32-.2a3.77,3.77,0,0,0,.62-.47,2.15,2.15,0,0,1,1-.62.18.18,0,0,0,.11-.05s0,0,.08,0h.09l-.1.15" transform="translate(0 0)"/><path id="path4" class="cls-5" d="M46.13,33.47a1.39,1.39,0,0,0-1.31,1.16c0,.31,0,5.21,0,5.26a1.8,1.8,0,0,0,.8,0,15.33,15.33,0,0,0,0-1.91,9.08,9.08,0,0,1,.06-1.89,3.47,3.47,0,0,1,.63,0c.7,0,.68,0,.68-.4s0-.37-.72-.39h-.61l0-.23a.68.68,0,0,1,.25-.69,2.6,2.6,0,0,1,1.36,0c.24.1.25.08.24-.34v-.36l-.1,0-.2-.07a5.3,5.3,0,0,0-1.1-.05m.92.07.3.07c.15,0,.17.06.17.38s0,.36-.12.31a2.85,2.85,0,0,0-1.3-.09c-.35.12-.47.33-.47.78s0,.36.74.36.61,0,.61.32,0,.32-.65.32c-.5,0-.6,0-.65,0a8,8,0,0,0,0,1.89c0,1,0,1.85,0,1.88s-.09.06-.39.06h-.37V37.18c0-1.92,0-2.71,0-2.74A.45.45,0,0,0,45,34.3a1.32,1.32,0,0,1,.56-.6,2.78,2.78,0,0,1,1.52-.16m-23.71.18s-.06.12-.06.3c0,.42-.07.39,1,.39a7.16,7.16,0,0,1,.93,0,16.05,16.05,0,0,1,.06,2.72,12.35,12.35,0,0,0,.07,2.73,2,2,0,0,0,.78,0c.07,0,.07-.1.07-2.68,0-1.63,0-2.67,0-2.73l0-.08h.89a3.85,3.85,0,0,0,.93,0,1,1,0,0,0,0-.67c-.12-.06-4.6-.05-4.66,0m32.17,0a2.13,2.13,0,0,0,0,1c.06.05.22.05,1.58.05,1.77,0,1.67,0,1.33.37-.2.23-.35.41-.81,1-.14.18-.3.38-.36.44l-.48.59-.44.54c-.2.24-.4.49-.46.55l-.3.38-.2.24,0,.48c0,.67-.31.59,2.31.59h2.2l0-.08a1.62,1.62,0,0,0,0-.93,15.25,15.25,0,0,0-1.58,0c-1.79,0-1.67,0-1.26-.45l.65-.81,1.56-2c.21-.25.45-.56.54-.68L60,34.7v-.46a1.23,1.23,0,0,0-.05-.5s-4.33-.06-4.43,0M28,34c0,.37.06.35-1,.35-.75,0-.86,0-.9.06a24,24,0,0,0-.06,2.74l0,2.68h-.74V37.17a21.54,21.54,0,0,0-.07-2.74s-.15-.06-.93-.06a3.8,3.8,0,0,1-.92,0,1.42,1.42,0,0,1,0-.58H28V34m31.91.2v.47l-.21.29a3.17,3.17,0,0,1-.24.31,1.8,1.8,0,0,0-.22.27l-.88,1.14s-.3.35-.49.6a5.09,5.09,0,0,1-.41.52l-.19.25c-.14.19-.45.57-.5.62s-.06.13,0,.16a10.46,10.46,0,0,0,1.54,0c.83,0,1.54,0,1.56,0a2,2,0,0,1,0,.88c-.06.06-4.35.06-4.4,0a1.2,1.2,0,0,1,0-.47.88.88,0,0,1,.29-.84l.31-.36c.06-.09.16-.2.21-.26l.17-.22a1.77,1.77,0,0,1,.17-.2L57,37l.27-.33.37-.46c.11-.14.24-.3.29-.35l.19-.23a7.51,7.51,0,0,1,.55-.66.16.16,0,0,0,0-.22s-.21-.06-1.55-.06c-.84,0-1.54,0-1.57,0a3.17,3.17,0,0,1,0-.88,16.46,16.46,0,0,1,2.19,0H59.9v.47m-32,1.1a43.72,43.72,0,0,0,0,4.58,1.92,1.92,0,0,0,.83,0s0-.7,0-1.62,0-1.6,0-1.64c.06-.21.72-.52,1.1-.52.19,0,.3-.6.15-.75s-1.12.14-1.25.35-.18,0-.22-.11-.11-.3-.36-.3a.85.85,0,0,0-.29,0m3.85,0a3.59,3.59,0,0,0-.93.21,1.68,1.68,0,0,0,0,.68c0,.06.12.07.21,0a4.93,4.93,0,0,1,1.35-.16c.76,0,1.06.26,1,.77v.21h-.2l-.66,0c-1.08-.06-1.81.25-2,.85a1.44,1.44,0,0,0,.58,1.84,3.14,3.14,0,0,0,2.16,0c.23-.09.29-.08.46.07a.47.47,0,0,0,.52.1,21.67,21.67,0,0,0,0-3.69c-.26-.69-1.14-1-2.46-.89m3.68,0-.07.06V37.6c0,2.6-.05,2.33.45,2.33s.46.2.46-1.66,0-1.67.2-1.82c.75-.53,1.57-.49,1.88.1l.09.16v1.57c0,1.84,0,1.65.49,1.65s.44.18.42-1.73c0-2.19-.11-2.47-.91-2.78a2.59,2.59,0,0,0-2.12.29c-.11.1-.2,0-.27-.16a2.09,2.09,0,0,0-.1-.23.81.81,0,0,0-.53,0m6.18,0c-1,.1-1.4.52-1.4,1.35,0,1,.42,1.35,1.7,1.36.77,0,.82,0,1,.15.3.27.22.65-.19.87a3.47,3.47,0,0,1-1.58,0L40.76,39a.37.37,0,0,1-.16-.05c-.17-.09-.23,0-.23.39v.3l.18.08a4.7,4.7,0,0,0,2.63,0l.14-.06c.19,0,.53-.49.59-.86a1.25,1.25,0,0,0-.67-1.45L43,37.22l-.76,0c-1,0-1.19-.11-1.19-.56s1.19-.76,2.34-.41c.32.11.33.1.33-.32s0-.39-.39-.49a5.49,5.49,0,0,0-1.72-.1m7.77,0a3.1,3.1,0,0,0-.91.26.16.16,0,0,1-.09,0,2,2,0,0,0-.53.55,3.52,3.52,0,0,0-.11,2.6c.4.95,1.46,1.31,3.19,1.07.48-.06.44,0,.44-.43s0-.41-.33-.33a4.89,4.89,0,0,1-1.72,0,1.16,1.16,0,0,1-.82-.81c-.11-.38-.17-.36,1.52-.36h1.41l0-.08a4.07,4.07,0,0,0,0-1.47c-.3-.79-.94-1.11-2.06-1m3.18,0-.08,0v2.26c0,2.62-.06,2.32.45,2.32s.46.2.46-1.69V36.62l.15-.14a1.49,1.49,0,0,1,.94-.39c.17,0,.19,0,.19-.41s0-.41-.34-.36a1.93,1.93,0,0,0-.82.3c-.23.15-.28.13-.36-.16,0-.1,0-.14-.11-.16a1.09,1.09,0,0,0-.48,0m17,0a2.82,2.82,0,0,0-.72.22l-.14.08a1.7,1.7,0,0,0-.71.82.31.31,0,0,1,0,.13,4.17,4.17,0,0,0,0,2,2.82,2.82,0,0,1,.13.28,1.92,1.92,0,0,0,.72.75l.23.11a2.91,2.91,0,0,0,2.86-.47,3,3,0,0,0,.43-2.52.62.62,0,0,1,0-.18,1.83,1.83,0,0,0-.76-1,3.33,3.33,0,0,0-1.92-.3m-7.38,0a1.92,1.92,0,0,0-1.79,2.12c-.09,1.85,1.05,2.62,3.48,2.37.57,0,.56,0,.56-.54s0-.48-.57-.42c-1.39.13-2.16-.07-2.26-.61,0-.2-.07-.2,1.45-.2.77,0,1.41,0,1.43,0,.21-.12.13-1.36-.11-1.84a2,2,0,0,0-2.19-.85m3.08,0c-.06.12,0,4.35,0,4.44a2.1,2.1,0,0,0,1.09,0l.07-.06V38.34c0-1.6,0-1.51.2-1.7a2.11,2.11,0,0,1,.71-.33l.19,0v-.4c0-.53,0-.57-.21-.54a1.87,1.87,0,0,0-.71.29c-.32.21-.37.21-.41,0s-.06-.26-.52-.26-.4,0-.44.06m-36.78.15c.1.3.14.32.4.14s1-.39,1.1-.28A1.86,1.86,0,0,1,30,36s-.06.05-.13.05a1.69,1.69,0,0,0-1,.39c-.2.15-.19.06-.2,1.82l0,1.62h-.38c-.36,0-.37,0-.39-.07s0-4.32,0-4.39.07,0,.26,0h.25l.06.18m4.62-.09.28.07a.45.45,0,0,1,.14.06.32.32,0,0,0,.13.06,1.23,1.23,0,0,1,.55.67c0,.2.08,3.45,0,3.52s-.35.06-.5-.07a.36.36,0,0,0-.47-.07c-1,.38-2.35.13-2.63-.47,0-.06-.06-.13-.07-.16a2,2,0,0,1-.09-.73,1.14,1.14,0,0,1,.72-1.06l.3-.14h1c1.1,0,1,0,1-.37v-.28l-.15-.15a2.35,2.35,0,0,0-2-.21c-.48.11-.47.12-.47-.22s0-.36.14-.36l.27-.05a4.93,4.93,0,0,1,1.87,0m2.92.15c.11.27.16.29.36.15a2.65,2.65,0,0,1,1.8-.34,1.19,1.19,0,0,1,1.06,1c.05.21.12,3.16.08,3.4s-.7.12-.78,0a15.29,15.29,0,0,1,0-1.61l0-1.56-.08-.16c-.3-.56-1.11-.63-1.84-.15-.38.24-.35.07-.35,1.89,0,1,0,1.6,0,1.62a1.08,1.08,0,0,1-.38,0l-.35,0v-2.2c0-2.49,0-2.3.28-2.3h.21l.09.24m6.66-.2a3.24,3.24,0,0,1,1,.2,1.36,1.36,0,0,1,0,.64l-.33-.07-.49-.11c-1-.21-1.8.07-1.8.6s.19.59,1.06.59,1.24.1,1.54.4a1.72,1.72,0,0,1,.26,1.06,1.48,1.48,0,0,0,0,.19,1.09,1.09,0,0,1-.66.78,5.28,5.28,0,0,1-2.56,0l-.13,0V39h.16a.67.67,0,0,1,.27.06,4.4,4.4,0,0,0,1.51.09c.56-.09.83-.57.53-1-.16-.2-.25-.23-1-.23a5.2,5.2,0,0,1-.75,0L41,37.87a.84.84,0,0,1-.41-.23,1.38,1.38,0,0,1-.2-.29.57.57,0,0,0-.07-.16,1.86,1.86,0,0,1,0-1.07c.28-.61,1.09-.86,2.34-.73m7.81.07a1.42,1.42,0,0,1,.31.13.22.22,0,0,0,.12.06,1.42,1.42,0,0,1,.44.61.47.47,0,0,0,.06.17,4.55,4.55,0,0,1,0,1.38s-.63,0-1.47,0c-1.7,0-1.63,0-1.46.5.26.77,1,1,2.78.78.06,0,.07,0,.07.31v.32l-.37,0a4.86,4.86,0,0,1-2.38-.19.34.34,0,0,0-.12-.08c-.85-.45-1.17-2.4-.55-3.32L48,36a2,2,0,0,1,.47-.4l.12-.07a.12.12,0,0,1,.1,0l.22-.05a3.09,3.09,0,0,1,1.57,0M53,35.37c.06,0,.08.05.09.17s.13.31.33.16a.56.56,0,0,1,.15-.08.13.13,0,0,0,.07,0c.14-.13.87-.27.91-.17s0,.61-.13.61a1.64,1.64,0,0,0-.93.4l-.17.15v1.59c0,.88,0,1.62,0,1.65a1.19,1.19,0,0,1-.79,0c-.07-.13,0-4.37,0-4.41a1,1,0,0,1,.47,0M71,35.46a1.68,1.68,0,0,1,1,.64,3,3,0,0,1-.09,3.11,2,2,0,0,1-.61.45l-.13,0a2.93,2.93,0,0,1-2.67-.37,1.61,1.61,0,0,1-.42-.62.48.48,0,0,0-.06-.14,4.06,4.06,0,0,1,0-2,.42.42,0,0,0,.06-.15,2.27,2.27,0,0,1,.36-.57,1,1,0,0,1,.36-.25l.15-.09a4.65,4.65,0,0,1,.66-.18,5.22,5.22,0,0,1,1.43.09m-7.63,0c.87.25,1.27,1,1.16,2.14,0,.44.1.4-1.51.4s-1.47,0-1.44.22c.07.55,1.15.93,2,.72a2.94,2.94,0,0,1,.47,0h.3v.36c0,.41,0,.49-.24.5l-.66,0a5.56,5.56,0,0,1-1.59-.09.37.37,0,0,0-.15-.05,2,2,0,0,1-.94-.67,3,3,0,0,1-.32-2,2.23,2.23,0,0,1,.19-.66,1.61,1.61,0,0,1,.72-.74l.12-.06a3.47,3.47,0,0,1,1.85-.11m2.75,0a.56.56,0,0,1,.08.22c0,.26.09.26.39.06a2,2,0,0,1,.84-.31c.08,0,.08,0,.09.36s0,.51-.14.51a1.31,1.31,0,0,0-.49.17l-.1,0a1.28,1.28,0,0,0-.33.3l-.07.1v1.44a8,8,0,0,1,0,1.47,2.45,2.45,0,0,1-1,0c0-.07,0-4.35,0-4.37a2.63,2.63,0,0,1,.79,0M49.27,36a2.13,2.13,0,0,0-.44.22s0,0-.08.06c-.2.09-.43.71-.31.82a10.21,10.21,0,0,0,2.21,0c.11-.13,0-.63-.25-.84A1.33,1.33,0,0,0,49.27,36m.79.12a.87.87,0,0,1,.57.76c0,.21.06.21-1.1.21s-1.11,0-1-.26a1.16,1.16,0,0,1,1.57-.71m19.85,0a.32.32,0,0,0-.13,0,.23.23,0,0,1-.13,0c-.65,0-1,1.59-.52,2.31a1.18,1.18,0,0,0,1.74.13.87.87,0,0,0,.27-.46,1,1,0,0,1,0-.24,1.3,1.3,0,0,0-1.14-1.84l-.14,0m-7.65.08a.84.84,0,0,0-.71.72c0,.26-.06.26.91.26s.95,0,.94-.29c0-.51-.45-.78-1.14-.69m8.07,0c1,.18,1.19,2.18.19,2.61a1.65,1.65,0,0,1-.82,0l-.18-.08c-.38-.17-.53-.53-.54-1.23s.21-1.18.43-1.18l.09-.06a.94.94,0,0,1,.28-.1l.25,0,.3.05m-7.32.1c.29.18.48.68.28.79a7.91,7.91,0,0,1-1.69,0c-.07-.09.08-.49.25-.65A1.18,1.18,0,0,1,63,36.38M32,37.74c-.74.07-1,.76-.51,1.26a1.77,1.77,0,0,0,1.64,0c.3-.15.3-.14.3-.7s0-.52-.24-.55a9.61,9.61,0,0,0-1.19,0m1.15.07c.21,0,.23.07.24.43,0,.53,0,.59-.21.69a2.07,2.07,0,0,1-1.54.12.66.66,0,0,1,.11-1.21,4.94,4.94,0,0,1,1.4,0m-12.74.42a.44.44,0,0,0,0,.18c0,.12,0,.11,0,0s0-.23,0-.14M19,38.55c0,.1,0,.11,0,.08a.09.09,0,0,0,0-.09c0-.06,0-.06,0,0m.92,0c0,.06,0,.07,0,0s0-.05,0-.09,0,0,0,.05m.89,0c0,.07,0,.17,0,.21s0,.08,0,.06.05,0,.07.05l0,.08,0-.07a.23.23,0,0,0,0-.16c-.06-.09-.06-.1,0-.15s.07-.14,0-.14-.05,0-.07.12m-10.43.15a1,1,0,0,0,.07.16.76.76,0,0,1,.06.21.11.11,0,0,0,.05.09s.06,0,.06.06.11.19.16.19,0,0,.06.09a1.35,1.35,0,0,0,.41.44s0,0,0,.06,0,0,0,0a.83.83,0,0,1,.16.12,6.1,6.1,0,0,0,.67.47,3,3,0,0,0,.54.25l.11.06a2.19,2.19,0,0,0,.8.22,1.13,1.13,0,0,1,.31.05.62.62,0,0,0,.22,0,1.43,1.43,0,0,1,.29,0l.16,0-.13.08-.17.12a3.61,3.61,0,0,1-.48.29l-.16.1a.87.87,0,0,1-.2.1.45.45,0,0,0-.15.07l-.17.07a.14.14,0,0,0-.11.05.22.22,0,0,1-.12,0,.8.8,0,0,0-.23.05,7.25,7.25,0,0,1-.86.18.92.92,0,0,1-.61-.07l-.12-.06a.18.18,0,0,1-.08,0,.16.16,0,0,0-.11-.05.09.09,0,0,1-.07,0,.1.1,0,0,0-.08-.05s0,0,0,0a1.18,1.18,0,0,0-.25-.23,7.08,7.08,0,0,1-1-1s0,0-.05,0a.09.09,0,0,1-.07-.06c0-.15-.22-.38-.28-.38s0,0,0-.07a.06.06,0,0,0,0-.06s-.05,0-.05-.09a.17.17,0,0,0,0-.12.54.54,0,0,1-.07-.13.76.76,0,0,0-.07-.13.14.14,0,0,1-.05-.11s0-.07,0-.07-.14-.17-.1-.22,0-.06,0-.08-.05,0-.08,0a1.09,1.09,0,0,0,.27.63.2.2,0,0,1,0,.08,3.85,3.85,0,0,0,.3.45l.23.29a5,5,0,0,0,2.22,1.7,5.86,5.86,0,0,0,1.85-.47l.16-.06a1.82,1.82,0,0,0,.28-.16,1.33,1.33,0,0,1,.22-.12.58.58,0,0,0,.15-.1l.31-.22c.25-.16.23-.25,0-.24l-.4,0-.51-.07a1.07,1.07,0,0,1-.31-.08.47.47,0,0,0-.16-.05.53.53,0,0,1-.18-.07l-.16-.07a4.58,4.58,0,0,1-1.81-1.38l-.22-.29-.27-.41s0,0,0,0m9.51.06a.49.49,0,0,1-.06.17c-.05.1-.06.15,0,.12s0,0,0,0,0,.06,0,.06.07-.12,0-.29,0-.13,0-.09m-.61.14a1.11,1.11,0,0,1,0,.25c-.07.15-.07.23,0,.12a1,1,0,0,0,.06-.24c0-.08,0-.17,0-.21s0-.06,0-.06,0,.06,0,.14M8.22,39a.53.53,0,0,0,.07.18.7.7,0,0,1,.06.17s0,0,.06,0,.06-.12,0-.21a.28.28,0,0,1-.06-.1A.13.13,0,0,0,8.27,39s0,0,0,0m10.68,0s0,.15-.07.23a1.17,1.17,0,0,1-.08.21.24.24,0,0,0-.05.12.64.64,0,0,1-.07.19.74.74,0,0,0-.06.18.15.15,0,0,1-.06.1s-.05.06-.05.08a4.68,4.68,0,0,1-.36.7,8.72,8.72,0,0,1-.88,1.19,11.69,11.69,0,0,1-.87.86c-.47.38-.34.42.45.15a5.37,5.37,0,0,0,1.41-1.53,1.85,1.85,0,0,1,.15-.22l0-.06a1.65,1.65,0,0,1,.11-.2,7.06,7.06,0,0,0,.46-.94A.18.18,0,0,1,19,40a2.28,2.28,0,0,0,.15-.39c0-.07,0-.09,0-.09a.06.06,0,0,0-.06.06.11.11,0,0,1-.05.09.09.09,0,0,0-.05.09.67.67,0,0,1-.07.22.92.92,0,0,0-.06.22.2.2,0,0,1-.06.12.22.22,0,0,0-.05.13c0,.06,0,.11-.05.12a.1.1,0,0,0-.05.08.42.42,0,0,1-.06.15.31.31,0,0,0-.07.12.1.1,0,0,1-.05.07.16.16,0,0,0-.05.11s0,.06,0,.06a.75.75,0,0,0-.21.32.07.07,0,0,1-.05.06.07.07,0,0,0-.05.06.41.41,0,0,1,0,.08l-.18.22-.16.2a2.53,2.53,0,0,0-.17.21,2.67,2.67,0,0,1-.71.67.37.37,0,0,0-.17,0c-.13.07-.4.1-.4.06s0,0,0,0a7.92,7.92,0,0,0,1.07-1c.05-.07.15-.18.21-.25s.24-.28.24-.32a.12.12,0,0,1,.05-.08,2.12,2.12,0,0,0,.29-.4.2.2,0,0,1,.06-.09.18.18,0,0,0,.07-.1.12.12,0,0,1,0-.09.14.14,0,0,0,.05-.1.16.16,0,0,1,.05-.1.16.16,0,0,0,.05-.11.19.19,0,0,1,.07-.12.21.21,0,0,0,.07-.15c0-.05,0-.1,0-.1s0,0,.06-.07a.29.29,0,0,1,.07-.12.34.34,0,0,0,0-.16c0-.08,0-.12.05-.12s.09-.07.09-.21a.28.28,0,0,1,0-.15s0-.05,0-.1A.1.1,0,0,1,19,39s0,0,0,0,0,0-.06.08m1.27.12a.36.36,0,0,0-.09.27c0,.12,0,.16-.07.2s-.06.07-.06.19a.27.27,0,0,1,0,.15s-.05.07-.06.15a.3.3,0,0,1-.05.17,1.89,1.89,0,0,0-.17.31c-.07.17-.16.34-.18.39a.34.34,0,0,0-.05.14.08.08,0,0,1-.05.07.15.15,0,0,0-.07.11.48.48,0,0,1-.17.25,1.51,1.51,0,0,1-.38.31.23.23,0,0,0-.09.07c0,.06-.08.07-.08,0a1.69,1.69,0,0,1,.18-.28,2.19,2.19,0,0,0,.19-.28.7.7,0,0,1,.09-.17,1.06,1.06,0,0,0,.12-.24s0-.09.05-.09a2.05,2.05,0,0,0,.28-.51.43.43,0,0,1,.06-.12.31.31,0,0,0,.07-.18.23.23,0,0,1,.05-.15.26.26,0,0,0,.05-.17c0-.06,0-.11,0-.11a.22.22,0,0,0,0-.14c0-.17-.06-.15-.09,0a7.15,7.15,0,0,1-.4,1,.45.45,0,0,0-.05.13s-.09.17-.39.69a4.05,4.05,0,0,1-.35.53c-.38.5-.33.51.25.06a2.52,2.52,0,0,0,.94-1.24c0-.11.11-.24.14-.29a.36.36,0,0,0,.05-.13.5.5,0,0,1,.05-.15,4.83,4.83,0,0,0,.22-.64c0-.08.05-.21.08-.3s.05-.19-.06-.06m.55,0v.15l.07-.09c.08-.1.08-.12,0-.17s-.07,0-.07.11m-2.85.65-.37.37a2.17,2.17,0,0,0-.27.33,8.24,8.24,0,0,1-2.64,2.53c-.41.22-.55.33-.47.33a1.85,1.85,0,0,0,.87,0,8.76,8.76,0,0,0,.83-.59,9.57,9.57,0,0,0,1.35-1.38,2,2,0,0,1,.17-.21A5.4,5.4,0,0,0,18,40c0-.17,0-.18,0-.11s0,.07,0,0a.15.15,0,0,1,0-.1.17.17,0,0,0,0-.1s-.07,0-.29.2m0,.31a.75.75,0,0,0-.11.22c0,.05,0,.1,0,.1s-.05,0-.08.09a1.52,1.52,0,0,1-.18.3.14.14,0,0,0,0,.09s-.05.11-.33.42a.45.45,0,0,0-.11.17,10.43,10.43,0,0,1-1.38,1.33l-.19.15-.08,0a1.12,1.12,0,0,0-.21.14.51.51,0,0,1-.42.13c-.36,0-.39,0-.16-.14a2.62,2.62,0,0,0,.68-.44.18.18,0,0,1,.1-.06.18.18,0,0,0,.1-.07l.08-.06a.15.15,0,0,0,.08-.05c.38-.34.59-.54.72-.67s.51-.54.51-.55l.12-.13c.06-.07.12-.14.12-.17a.08.08,0,0,1,.05-.07.09.09,0,0,0,.05-.07.08.08,0,0,1,0-.07.21.21,0,0,0,.09-.11c.07-.17.4-.54.5-.54a0,0,0,0,0,0-.05s.11-.13.13-.09a.44.44,0,0,1-.08.16M16.21,41a.18.18,0,0,1-.11.05,2.15,2.15,0,0,0-1,.62,3.77,3.77,0,0,1-.62.47l-.32.2a5,5,0,0,1-.79.38l-.17.06a.63.63,0,0,1-.21.07l-.15.05a.45.45,0,0,1-.22,0c-.38,0-.27.19.18.28a.76.76,0,0,0,.41,0,4.19,4.19,0,0,0,.69-.28l.08,0a7.59,7.59,0,0,0,2.34-1.84l.1-.15h-.09c-.05,0-.08,0-.08,0m-.11.21a.15.15,0,0,0-.06.07,8.27,8.27,0,0,1-.59.58c-.09.06-.36.3-.5.43a.2.2,0,0,1-.09.06,1.06,1.06,0,0,0-.21.11,1.46,1.46,0,0,1-.24.14s-.06,0-.06.05a0,0,0,0,1,0,0,1.43,1.43,0,0,0-.21.12.66.66,0,0,1-.25.12.14.14,0,0,0-.11.05.16.16,0,0,1-.1,0,.3.3,0,0,0-.14,0,1.11,1.11,0,0,1-.72.08c-.31,0-.35-.1-.09-.15a.42.42,0,0,0,.19-.07.37.37,0,0,1,.15,0,.52.52,0,0,0,.21-.07.52.52,0,0,1,.21-.07.21.21,0,0,0,.13,0l.12-.07a.35.35,0,0,0,.15-.07.43.43,0,0,1,.13,0s.06,0,.06,0,0-.05.08-.06l.3-.19a1.86,1.86,0,0,1,.26-.15s0,0,.06-.05a.64.64,0,0,1,.16-.13c.07-.05.23-.18.35-.29a1.63,1.63,0,0,1,.24-.21s0,0,.05-.05a.09.09,0,0,1,.08,0,.21.21,0,0,0,.12-.05c.12-.08.45-.12.35,0" transform="translate(0 0)"/></g><g id="svgg-2" data-name="svgg"><path id="path0-2" data-name="path0" class="cls-6" d="M38.07,74.16a18,18,0,0,0,0,2h.14V72.21h-.15v2m.22-1.89a.1.1,0,0,0,0,0,1.18,1.18,0,0,1,.12.34.34.34,0,0,0,0,.08.45.45,0,0,1,0,.08l.05.24a5.7,5.7,0,0,1,0,2.06,3,3,0,0,1-.09.42,1.2,1.2,0,0,0,0,.17l0,.09,0,.15a1.23,1.23,0,0,1-.05.13s0,.08,0,.09.18.2.21.33a.77.77,0,0,1-.16.7c-.08.07-.1.12,0,.15a3,3,0,0,1,.16.52s0,.13.05.21a1.72,1.72,0,0,1,0,.21s0,.07,0,.1a5.78,5.78,0,0,1-.1,2.2l0,.17a1.47,1.47,0,0,1-.12.33s0,.08,0,.07a2.32,2.32,0,0,0,.41-.31,6.38,6.38,0,0,0,.49-.62,1.51,1.51,0,0,1,.16-.22l.09-.17.09-.15a1.38,1.38,0,0,0,.15-.26,2.28,2.28,0,0,1,.1-.21l0-.1a.26.26,0,0,0,0-.24,8.44,8.44,0,0,1-.32-1.12s0-.13,0-.19a1.64,1.64,0,0,1,0-.25c0-.08,0-.23,0-.33a3.9,3.9,0,0,1,0-.76,3.83,3.83,0,0,1,.12-.72s0-.1,0-.13a1,1,0,0,1,0-.15,1.44,1.44,0,0,0,.07-.22.75.75,0,0,1,.05-.16.41.41,0,0,1,0-.07l.07-.18a.35.35,0,0,0,0-.33,2.43,2.43,0,0,0-.19-.36l-.07-.13a5.61,5.61,0,0,0-.37-.6L39.11,73a2.78,2.78,0,0,0-.74-.74l0,0s0,0,0,0m-.4,0a1.66,1.66,0,0,0-.45.4l-.08.09a4.45,4.45,0,0,0-.28.38.53.53,0,0,1-.06.1,3.3,3.3,0,0,0-.26.39l-.07.13c-.06.11-.19.37-.19.38a.09.09,0,0,1,0,0,.33.33,0,0,0,0,.06.19.19,0,0,1,0,.09l0,.06,0,.14a2.31,2.31,0,0,1,.1.28c0,.08.07.21.09.29a1,1,0,0,1,.05.18.37.37,0,0,0,0,.09s0,.13.05.2,0,.18,0,.23a1,1,0,0,1,0,.16.81.81,0,0,0,0,.19,6.54,6.54,0,0,1,0,1s0,.15,0,.22-.08.46-.1.55a1.55,1.55,0,0,0,0,.15c0,.15,0,.19-.06.24s-.06.15-.1.27l-.09.29c0,.06,0,.06,0,.14l0,.09a5.52,5.52,0,0,0,.3.58.28.28,0,0,1,0,.08l.05.07L37,80a4.38,4.38,0,0,0,.78.95l.11.08c.08.06.13.07.13,0a.48.48,0,0,0-.05-.17.2.2,0,0,1,0-.07s0-.08,0-.1a1.27,1.27,0,0,1,0-.14c0-.05,0-.11,0-.14a.57.57,0,0,1,0-.15s0-.13,0-.18,0-.12,0-.17a7,7,0,0,1,0-1.8.19.19,0,0,0,0-.08.43.43,0,0,1,0-.11.37.37,0,0,0,0-.09,3.14,3.14,0,0,1,.16-.49c.05-.15.05-.14,0-.23a.73.73,0,0,1,0-1c.08-.07.08-.07.06-.11A.66.66,0,0,1,38,76s0-.08,0-.09a2.21,2.21,0,0,1-.09-.32s0-.11,0-.14a.42.42,0,0,1,0-.14l0-.18s0-.13,0-.17,0-.48,0-.74a5.06,5.06,0,0,1,.06-.83,2.09,2.09,0,0,1,.08-.44.19.19,0,0,0,0-.07,1.46,1.46,0,0,1,.08-.29c.12-.35.12-.35,0-.27M40,74.46a.07.07,0,0,0,0,.05.33.33,0,0,1,0,.06s0,.1.06.17.06.18.08.24,0,.14,0,.18.05.19.11.45a5.79,5.79,0,0,1,.09,1.68,2.33,2.33,0,0,0,0,.28,1.11,1.11,0,0,1-.05.24c-.06.28-.08.37-.09.4a1.29,1.29,0,0,0-.06.2c0,.08-.07.21-.09.28s-.08.24,0,.25h9.4V74.46H40s-.05,0-.06,0M26.9,76.7V79h4.72c4.41,0,4.72,0,4.72,0a1.19,1.19,0,0,0,0-.14,1.14,1.14,0,0,1-.07-.19l0-.14a7.8,7.8,0,0,1-.27-1.26,6.74,6.74,0,0,1,0-1.1c0-.25.06-.36.07-.42a1,1,0,0,0,0-.12,6.74,6.74,0,0,1,.25-.86c0-.09.06-.18.06-.19s0,0-4.72,0H26.9V76.7m11.19.58a17.91,17.91,0,0,0,0,1.94c0,2.17,0,2,.11,2h0V79.24c0-1.06,0-1.95,0-2s-.1,0-.14,0" transform="translate(0 0)"/><path id="path1" class="cls-7" d="M35.14,71.49a2.8,2.8,0,0,0,.13.54l.12.33,0,.09a4.48,4.48,0,0,0,.37.72,1,1,0,0,0,.4.45s.1,0,.1.06-2.11,0-4.7,0H26.9v.75h9.46l.08-.18c0-.1.08-.18.08-.19s0,0,0,0,0,0,.06-.09l.08-.17c.06-.08,0-.1-.06-.1s-.14,0-.14-.26a1.42,1.42,0,0,0-.28-.7,5.37,5.37,0,0,0-1-1.21l-.07-.07v0m5.84.14a3.59,3.59,0,0,0-1.14,1.84.21.21,0,0,1,0,.18s0,.07,0,.06-.15,0-.15,0,0,.09.09.2a1.08,1.08,0,0,1,.1.2.1.1,0,0,1,0,0,.51.51,0,0,1,.07.15.88.88,0,0,0,.08.14H49.4v-.75H40s0,0,.1-.07a1.21,1.21,0,0,0,.46-.55c.1-.18.3-.58.3-.6a.11.11,0,0,1,0-.06,6.69,6.69,0,0,0,.23-.74,1.37,1.37,0,0,0,0-.18c0-.06,0,0-.2.14m-2.73,2.54v2h-.09c-.41,0-.53.84-.15,1.09a.24.24,0,0,0,.15,0h.09v2c0,2.17,0,2,.09,1.75a5.59,5.59,0,0,0-.05-3.64c0-.08,0-.08,0-.13a.71.71,0,0,0,0-1l0,0,.05-.14a5.51,5.51,0,0,0,.06-3.48c0-.11-.08-.23-.09-.26l0-.06v2M38,72.36a5.58,5.58,0,0,0-.21,2.88A5.35,5.35,0,0,0,38,76a.41.41,0,0,1,0,.07s0,0,0,0,0-3.86,0-3.87,0,0-.06.11m0,4.92a.21.21,0,0,1,0,.06,4,4,0,0,0-.16.51,5.48,5.48,0,0,0-.15,1.71A4.92,4.92,0,0,0,38,81c0,.07,0,.12.06.12s0-3.87,0-3.88,0,0,0,0m-11.13,2v.38h9.41l0,.07-.3.52-.15.26-.13.22-.09.15-.06.12-.07.11.07,0c.1.06.1.06.19-.1l.14-.24.08-.14.12-.22.25-.43c.07-.12.15-.25.17-.3l0-.07h.09c.06,0,.08,0,.08,0a.4.4,0,0,0-.07-.13s0,0,0,0a.61.61,0,0,0-.09-.18s0,0,0,0-.14-.33-.15-.35-1,0-4.75,0H26.9v.37M40,79a.88.88,0,0,0-.08.14,5.06,5.06,0,0,1-.24.51c-.05.08-.05.09,0,.08h.09l.09.15.33.57.39.68.07.12s0,0,.11,0,.09,0,0-.22l-.15-.28-.1-.17-.39-.67L40,79.75l0,0s2.12,0,4.7,0h4.7V79H40" transform="translate(0 0)"/><path id="path2-2" data-name="path2" class="cls-8" d="M35.13,71.49h0v0l.07.07.07.06-.07-.07c-.08-.08-.09-.08-.08,0m6,0-.06.06.07-.06s.06-.05.07,0a0,0,0,0,0,0,0s0,0-.09.05m-5.58.32.07.06-.05-.06-.07-.06.05.06m5.24,0-.06.06.06-.06.06-.06-.06.06m-5.56,0a.43.43,0,0,1,0,.05s0,0,0,0a.14.14,0,0,0,0-.06s0,0,0,0m5.88.07a.1.1,0,0,0,0,0s0,0,0,0,0,0,0-.05a.06.06,0,0,0,0,0M35.63,72l.06.05s0,0,0-.05l-.06,0,0,0m4.9.15,0,.06A.58.58,0,0,0,40.6,72s0,0-.07.07m-5.23,0a.11.11,0,0,0,0,.06s0,0,0,0a.11.11,0,0,0,0-.06s0,0,0,0m5.08,1.25s0,0,0,0,.06-.08.05-.08,0,0,0,0M36,73.5l.07.07s0,0-.06-.07L36,73.43l.06.07m4.25,0-.06.06.08-.06.06-.07-.08.07m-3.78,6.25s-.1.18-.17.3l-.25.43-.12.22-.08.14-.14.24c-.09.16-.09.16-.19.1l-.07,0,.07-.11.06-.12.09-.15.13-.22.15-.26.3-.52,0-.07H26.9v4.5H49.4V79.7H44.7c-2.58,0-4.7,0-4.7,0l0,0,.06.11.39.67.1.17.15.28c.12.19.11.17,0,.22s-.11,0-.11,0l-.07-.12-.39-.68-.33-.57-.09-.15h-.09c-.09,0-.09,0-.11,0s-.07.12-.24.38l-.17.25s0,0,0,0a.66.66,0,0,1-.09.12l-.17.21a1.4,1.4,0,0,1-.59.46l-.06,0s-.15,0-.18,0,0,0,0,0-.28-.11-.49-.32a6.31,6.31,0,0,1-.61-.79l-.07-.12a.75.75,0,0,1-.1-.17l0-.07h-.18l0,.07" transform="translate(0 0)"/><path id="path3-2" data-name="path3" class="cls-9" d="M26.9,71.43v2.25h4.68c2.73,0,4.68,0,4.68,0l0,0a.37.37,0,0,1-.16-.1,2.22,2.22,0,0,1-.36-.52s0,0,0,0-.19-.37-.23-.46l0-.09s0-.13-.08-.21a1.13,1.13,0,0,0-.06-.16.82.82,0,0,0,0-.14,1.24,1.24,0,0,0,0-.15,1,1,0,0,1-.06-.35,3.24,3.24,0,0,1,.53.51l.11.14a2.72,2.72,0,0,1,.72,1.38c0,.16,0,.21.16.21h.1l0-.07a5,5,0,0,1,.35-.55l.14-.18a2.32,2.32,0,0,1,.68-.64c.3-.14.56,0,1,.48a4.74,4.74,0,0,1,.4.54c.07.11.14.22.16.24l0,0c0,.07.08.13.17.13s.14,0,.15-.26a1,1,0,0,1,.19-.55l.07-.13a5.72,5.72,0,0,1,.32-.48l.15-.19a6.37,6.37,0,0,1,.61-.63s0,.25-.14.66c-.06.17-.08.22-.14.36a.44.44,0,0,0,0,.08,5.79,5.79,0,0,1-.44.81.74.74,0,0,1-.32.29l-.05,0s2,0,4.67,0H49.4V69.19H26.9v2.24m9.45,3.07a.41.41,0,0,1,0,.07s0,.13-.16.48a2.09,2.09,0,0,0-.09.36.41.41,0,0,1,0,.1,5,5,0,0,0,0,2.21s0,.14,0,.21,0,.13,0,.15l0,.17a1.41,1.41,0,0,0,.06.22,1.26,1.26,0,0,1,0,.15s0,.1.06.17,0,.14.11,0a5.58,5.58,0,0,0,0-4c-.06-.18-.12-.29-.12-.23m3.57,0a.17.17,0,0,0,0,0c0,.06-.24.73-.26.83s0,.11,0,.17a5.91,5.91,0,0,0-.12,1.12,5.24,5.24,0,0,0,.13,1.18,6.81,6.81,0,0,0,.29,1,.07.07,0,0,1,0,.05c0,.15.09-.07.27-.68a5.5,5.5,0,0,0,.14-.65l0-.24a7.2,7.2,0,0,0,0-1.14,6.7,6.7,0,0,0-.3-1.32L40,74.65a.19.19,0,0,1,0-.07.21.21,0,0,0,0-.07l0,0v0" transform="translate(0 0)"/><path id="path4-2" data-name="path4" class="cls-10" d="M41.08,71.51l0,.06.06,0s.06-.06,0-.06l-.06.05m-5.81,0s.07.08.08.08l-.07-.08-.08-.07a.36.36,0,0,0,.07.07m.15.16a.4.4,0,0,1,.07.07s0,0-.06-.08l-.07-.07.06.08m2.66.47a1.87,1.87,0,0,0-.82.69l-.14.18a5,5,0,0,0-.35.55l0,.07h-.12c.05,0,.09,0,.09,0s0,0,0,0a.08.08,0,0,0,0,0,2.64,2.64,0,0,1,.26-.4.53.53,0,0,0,.06-.1,4.45,4.45,0,0,1,.28-.38l.08-.09c.18-.24.56-.52.57-.41s0,0,0,0,0,0,0,0,0,0,0,0,0,0,.08,0h.08v2a11.15,11.15,0,0,1,0,2s0,0,0,0h0v-2a18.41,18.41,0,0,1,0-1.93s0,0,0,0,0,0,0,0l0,0a2.78,2.78,0,0,1,.74.74l.12.17a4.76,4.76,0,0,1,.37.6,1,1,0,0,0,.11.18s0,0-.05-.11-.08-.14,0-.15h0c-.09,0-.17-.06-.17-.13l0,0s-.09-.13-.16-.24a4.74,4.74,0,0,0-.4-.54,1.65,1.65,0,0,0-.64-.52.73.73,0,0,0-.2,0m.23.14a.06.06,0,0,0,0,0s0,0,0,0a.06.06,0,0,0,0,0s0,0,0,0m-.24,0s0,0,0,0v-.06s0,0,0,0m-.11,0a.18.18,0,0,0,0,.06l0,0s0-.06,0-.06l0,0m.42.14,0,.07s0,.06,0,0,0-.13,0-.1m-.5.11a.11.11,0,0,0,0,0s0,0,0,0,0,0,0,0,0,0,0,0m.56.1a.21.21,0,0,0,0,.06v0s0,0,0-.06,0,0,0,0m-.61,0v.06s0,0,0,0,0-.09,0,0m.66.13a.17.17,0,0,0,0,.07s0,0,0,0a.15.15,0,0,0,0-.06s0,0,0,0m-.7.09a.32.32,0,0,0,0,.08s0,0,0-.07,0-.07,0-.07,0,0,0,.06m.74.1s0,.06,0,.09,0,.06,0,0,0-.15,0-.11m-.77,0,0,.12c0,.08,0,.08,0,0s0-.15,0-.09m2.07.28v.06a.24.24,0,0,0,0-.12v.06m-1.25,0s0,0,0,0v-.07s0,0,0,0m-.88.13a.81.81,0,0,0,0,.16c0,.06,0,.05,0-.06s0-.22,0-.1m.37,0s0,0,0,0v-.07s0,0,0,0m.52,0s0,0,0,0v-.06s0,0,0,0m-2.33.11s-1.57,0-4.68,0h0c4.18,0,4.71,0,4.69,0s0,0,0,0m3.77,0s.51,0,4.68,0h0c-3.11,0-4.67,0-4.67,0s0,0,0,0m-1.42,0s0,0,0,0v0s0,0,0,0m-1.94.08c-.05.08-.05.09,0,.08s.08-.13.07-.14l0,.06m1.95.37c0,.18,0,.38,0,.45v0c0-.06,0-.26,0-.44v0M37.68,74s0,.06,0,0v-.08s0,0,0,0M36.55,74c-.07.13-.11.21-.09.2a1.79,1.79,0,0,0,.12-.24s0,0,0,0m1.11.13s0,0,0,0v-.06s0,0,0,0m-1.26.19,0,.08H31.61c4.71,0,4.72,0,4.72,0s0,.1-.06.19a6.74,6.74,0,0,0-.25.86,1,1,0,0,1,0,.12c0,.06,0,.17-.07.42a6.74,6.74,0,0,0,0,1.1,7.8,7.8,0,0,0,.27,1.26l0,.14a1.14,1.14,0,0,0,.07.19,1.19,1.19,0,0,1,0,.14s0,0,0,0,0,0,0,0,0,0,0,0a4.91,4.91,0,0,1,.21-.63s0-.09.06-.24a1.55,1.55,0,0,1,0-.15c0-.09.09-.43.1-.55s0-.17,0-.22a6.54,6.54,0,0,0,0-1,.81.81,0,0,1,0-.19,1,1,0,0,0,0-.16s0-.15,0-.23,0-.16-.05-.2a.37.37,0,0,1,0-.09,1,1,0,0,0-.05-.18c0-.08-.06-.21-.09-.29a2.31,2.31,0,0,0-.1-.28l0-.14,0-.06a.27.27,0,0,0,0-.08s0,0,0,.07m1.28,0s0,0,0,0v-.06s0,0,0,0m2.23,0a.7.7,0,0,1,0,.19l-.07.18a.41.41,0,0,0,0,.07.75.75,0,0,0-.05.16,1.44,1.44,0,0,1-.07.22,1,1,0,0,0,0,.15s0,.09,0,.13a3.83,3.83,0,0,0-.12.72,3.9,3.9,0,0,0,0,.76c0,.1,0,.25,0,.33a1.64,1.64,0,0,0,0,.25c0,.06,0,.14,0,.19a8.44,8.44,0,0,0,.32,1.12.6.6,0,0,1,0,.12c0,.05,0,.05,0,0S40,79,40,79h0s0,0,0-.26c0-.07.06-.2.09-.28a1.29,1.29,0,0,1,.06-.2s0-.12.09-.4a1.11,1.11,0,0,0,.05-.24,2.33,2.33,0,0,1,0-.28,5.79,5.79,0,0,0-.09-1.68c-.06-.26-.09-.39-.11-.45s0-.13,0-.18,0-.17-.08-.24S40,74.6,40,74.57a.33.33,0,0,0,0-.06.06.06,0,0,1,0,0s0,0,0,0,0,0,0-.05,0,0,0,0m2.46,0h0m-5.9.28a5.58,5.58,0,0,1,0,4c-.06.16-.06.16-.11,0s0-.14-.06-.17a1.26,1.26,0,0,0,0-.15,1.41,1.41,0,0,1-.06-.22l0-.17s0-.09,0-.15,0-.16,0-.21a5,5,0,0,1,0-2.21.41.41,0,0,0,0-.1,2.09,2.09,0,0,1,.09-.36c.11-.35.14-.44.16-.48a.41.41,0,0,0,0-.07c0-.06.06,0,.12.23M40,74.58a.19.19,0,0,0,0,.07l.07.19a6.7,6.7,0,0,1,.3,1.32,7.2,7.2,0,0,1,0,1.14l0,.24a5.5,5.5,0,0,1-.14.65c-.18.61-.27.83-.27.68a.07.07,0,0,0,0-.05,6.81,6.81,0,0,1-.29-1,5.24,5.24,0,0,1-.13-1.18,5.91,5.91,0,0,1,.12-1.12c0-.06,0-.13,0-.17s.23-.77.26-.83a.17.17,0,0,1,0,0v0l0,0a.21.21,0,0,1,0,.07m-2.29.08s0,.07,0,0v-.09s0,0,0,0m.38,0c0,.07,0,.09,0,.06v-.11s0,0,0,.05m.51.18V75s0,0,0-.1,0-.11,0-.12l0,.1m-.87,0s0,.06,0,0V74.8s0,0,0,0m0,.22a.28.28,0,0,0,0,.09s0,0,0,0,0-.14,0,0m.33.15s0,.07,0,0v-.09s0,0,0,0m-.29.1s0,.16,0,.15,0,0,0-.1,0-.07,0,0m.72,0a.17.17,0,0,1,0,.07v0l0,0a.17.17,0,0,0,0-.07s0,0,0,0m-.62.34a.12.12,0,0,0,0,.07s0-.05,0-.09,0,0,0,0m.52,0v0s0,0,0,0,0,0,0,0,0,0,0,0m-.48.1a.16.16,0,0,0,0,.06s0,0,0,0,0-.08,0,0m.4.15a.73.73,0,0,1,0,.08.39.39,0,0,0,.06-.17l0,.09M38,76a.14.14,0,0,0,0,.06s0,0,0,0,0,0,0,0m0,.12,0,0,0,0,.07,0s0,0,0,0,0,0-.08,0m.24,0a.08.08,0,0,0,.05.05.62.62,0,0,1,.18.25c0,.07,0,.07,0,0a.58.58,0,0,0-.2-.29,0,0,0,0,1,0,0s0,0,0,0m-.35.11a.42.42,0,0,0-.11.24l0,0a.47.47,0,0,1,.11-.21.17.17,0,0,0,0-.06l-.06.06m.63.47v0m-.77,0s0,.07,0,0v-.09s0,0,0,0m.73.18a.32.32,0,0,0,0,.08s0-.1,0-.13,0,0,0,.05m-.1.22a.38.38,0,0,1-.09.09s-.05,0-.05.05.16-.12.18-.16,0,0,0,0m-.53,0a.5.5,0,0,0,.08.08c.07.08.07.09,0,.17l0,0s0,0,0,0,0,0,0,0h0s-.06,0-.12-.08-.08-.08-.08-.07m.33.16s0,0,0,0,0,0,0,0a0,0,0,0,0,0,0s0,0,0,0m0,2v1.93h-.14s-.05,0,0,0,.17,0,.18,0V79.25m.08-1.89a.53.53,0,0,0,0,.14.38.38,0,0,0,0-.16v0m-.36.12a.21.21,0,0,0,0,.06l0,0a.12.12,0,0,0,0-.07l0,0m.44.12c0,.07,0,.12,0,.06a.34.34,0,0,0,0-.08s0,0,0,0m-.51.09a.18.18,0,0,0,0,0s0,0,0,0,0,0,0,0a0,0,0,0,0,0,0m.56.09s0,.1,0,.06,0,0,0-.06,0,0,0,0m-.61,0v.06s0,0,0,0,0-.08,0,0m.66.13a.17.17,0,0,0,0,.07s0,0,0,0a.17.17,0,0,0,0-.07s0,0,0,0m-.7.06a.17.17,0,0,0,0,.07s0,0,0,0,0-.11,0,0m.74.14s0,.06,0,.09l0,.06v0s0-.07,0-.09,0,0,0,0m-.79.13s0,.09,0,.09a.33.33,0,0,0,0-.08v-.1l0,.09m.84.17s0,0,0,0v-.06s0,0,0,0m-.88.11a.71.71,0,0,0,0,.16v.1l0-.14c0-.15,0-.21,0-.12m.37,0s0,0,0,0v0s0,0,0,0m.52,0s0,0,0,0v-.06s0,0,0,0m0,.17s0,0,0,0v-.06s0,0,0,0m0,.46c0,.18,0,.38,0,.44s0,.12,0,0a7.14,7.14,0,0,0,0-.79,1.8,1.8,0,0,0,0,.32M37.68,79s0,.06,0,0v-.08s0,0,0,0m-1.25.12s0,.1.06.13a.2.2,0,0,1,0,.08s0,0,0,0,0,0,0,.07l0,.07a1.42,1.42,0,0,0-.08-.17l-.1-.22s0-.06,0-.06,0,0,0,.07m1.23.11s0,0,0,0v-.06s0,0,0,0m2.16,0,0,.07a1,1,0,0,1-.08.18,1.19,1.19,0,0,0-.07.15s0,0,.1-.19.07-.13.08-.14,0-.13,0-.07m-2.14.24s0,0,0,0v-.07s0,0,0,0m-1.06.08,0,0s0,0,0,0a.15.15,0,0,0,0,0s0,0,0,0m.07.12a2.87,2.87,0,0,0,.17.3.4.4,0,0,1,.06.11s.28.4.39.54a1.89,1.89,0,0,0,.68.59c.06,0,.06,0,0-.12S38,81,38,81s0,.17-.11.08L37.75,81A4.38,4.38,0,0,1,37,80l-.12-.18-.05-.07a.49.49,0,0,0,0-.09c-.06-.08-.09-.11-.07-.07m2.87.06-.09.14-.09.17a1.51,1.51,0,0,0-.16.22,3.15,3.15,0,0,1-.78.85c-.13.08-.14.09-.15.07s0,0,0,0,.42-.21.61-.45l.17-.21a.66.66,0,0,0,.09-.12s0,0,0,0,.35-.5.35-.52a.17.17,0,0,1,0,0,.73.73,0,0,0,.09-.18l-.06.08m-1.87,0s0,.07,0,0v-.09s0,0,0,0m.38,0c0,.06,0,.08,0,0v-.11s0,0,0,.06m.51.18V80l0-.09c0-.06,0-.11,0-.11a.66.66,0,0,0,0,.09m-.87,0s0,.05,0,0v-.07s0,0,0,0m0,.21c0,.06,0,.16,0,.1a.41.41,0,0,0,0-.1v0m.79.16s0,0,0,0v0s0,0,0,0m-.75.08s0,.17,0,.16l0-.1c0-.06,0-.08,0-.06m.71.1v.06l0,0s0-.06,0-.06l0,.05m0,.18a.18.18,0,0,0,0,.06s0,0,0,0,0-.06,0-.06a.1.1,0,0,0,0,0m-.58.09a.11.11,0,0,0,0,.06s0,0,0,0,0-.07,0,0m.54,0a.13.13,0,0,1,0,.06s0,0,0,0,0,0,0-.06,0,0,0,0m-.49.14s0,.06,0,.06,0,0,0,0,0-.09,0,0m.39.18s0,0,0,0a.07.07,0,0,0,0,0s0,0,0,0" transform="translate(0 0)"/></g></svg>