<svg id="Layer_1" data-name="Layer 1" xmlns="http://www.w3.org/2000/svg" viewBox="0 0 80 84.19"><defs><style>.cls-1{fill:#f2f2f2;}.cls-2{fill:#cb0404;}.cls-2,.cls-3,.cls-4,.cls-5{fill-rule:evenodd;}.cls-3{fill:#2c2c2c;}.cls-4{fill:#2c2c34;}.cls-5{fill:#302c2c;}</style></defs><rect class="cls-1" width="80" height="80" rx="40"/><path id="path0" class="cls-2" d="M27.21,70.77v3.65h7.24V67.13H27.21v3.64m9.72,0v3.65H52.79V67.13H36.93v3.64m-9.72,9.79v3.63h7.25V76.93H27.21v3.63m9.72,0v3.63H52.79V76.93H36.93v3.63" transform="translate(0 0)"/><g id="svgg"><path id="path0-2" data-name="path0" class="cls-3" d="M12.79,31.24c0,3.79,0,3.89-.16,3.85a.36.36,0,0,1-.21-.21.2.2,0,0,0-.17-.16c-.07,0-.14-.08-.17-.17s-.12-.17-.35-.17-.31,0-.31-.18-.06-.17-.34-.17-.34,0-.34-.17-.06-.17-.52-.17-.51,0-.51-.17-.06-.17-2-.17-2,0-2,.17-.06.17-.51.17-.52,0-.52.17,0,.17-.34.17-.34,0-.34.17-.06.18-.17.18-.17,0-.17.17-.06.17-.29.17-.3,0-.34.17a.21.21,0,0,1-.18.17c-.08,0-.13.07-.13.17s-.06.17-.18.17a.15.15,0,0,0-.17.17c0,.12-.05.18-.17.18s-.17,0-.17.3,0,.29-.17.29-.17.06-.17.35,0,.34-.17.34-.17.06-.17.34,0,.34-.18.34-.17.06-.17.69,0,.68-.17.68-.26,2.53,0,2.62.17.12.17.51,0,.47.2.47.19,0,.16.51,0,.52.15.52.18,0,.18.17a.15.15,0,0,0,.17.17c.14,0,.17.06.17.31s0,.32.17.35a.21.21,0,0,1,.17.2.22.22,0,0,0,.17.19c.1,0,.18.11.18.18s0,.14.08.14a1.11,1.11,0,0,1,.37.3,1.3,1.3,0,0,0,.55.35c.16,0,.28.11.28.17s.11.12.34.12.34,0,.34.17.06.17.35.17.34,0,.34.17S5.5,47,7.74,47s2.31,0,2.31-.17.06-.17.34-.17.35,0,.35-.17,0-.17.34-.17.34,0,.34-.13.11-.17.29-.13.4-.1.4-.21.07-.13.17-.15.17-.1.17-.17.08-.15.17-.18a.21.21,0,0,0,.17-.17c0-.07.08-.14.17-.17a.2.2,0,0,0,.17-.18.14.14,0,0,1,.13-.14.15.15,0,0,0,.13-.16.22.22,0,0,1,.17-.2c.13,0,.17-.12.17-.36s0-.3.17-.3.18-.06.18-.35,0-.34.17-.34.18,0,.15-.47,0-.48.17-.53l.19,0V27.36h-2v3.88m19.35,3.57c0,7.39,0,7.46.17,7.5s.17.12.17.52,0,.47.17.51.17.12.17.34,0,.31.17.34a.24.24,0,0,1,.18.21.15.15,0,0,0,.17.16.15.15,0,0,1,.17.17.15.15,0,0,0,.17.17c.11,0,.17.06.17.18a.15.15,0,0,0,.17.17c.12,0,.17.05.17.17a.15.15,0,0,0,.17.17.16.16,0,0,1,.18.16.23.23,0,0,0,.17.21.21.21,0,0,1,.17.18c0,.08.07.13.17.13s.17.06.17.13.09.13.29.13.3,0,.34.18.1.17.37.16c.56,0,.63,0,.63.18s4.31.22,4.34-.05.08-.17.5-.14.46,0,.46-.15.06-.18.35-.18.34,0,.34-.13.08-.13.17-.13.17-.05.17-.16.08-.18.34-.22.35-.1.35-.14a1.53,1.53,0,0,1,.34-.4c.24-.22.34-.38.34-.55s0-.24.17-.24a.15.15,0,0,0,.17-.16.24.24,0,0,1,.18-.21c.13,0,.17-.11.16-.24,0-.34,0-.42.13-.42s.13-.1.13-.47,0-.47.17-.47.17-.06.17-2.18,0-2.18-.17-2.18-.17-.07-.17-.48,0-.48-.12-.52-.14-.17-.17-.33a.67.67,0,0,0-.17-.36.52.52,0,0,1-.16-.22.24.24,0,0,0-.19-.15.13.13,0,0,1-.13-.13.23.23,0,0,0-.17-.19c-.09,0-.17-.09-.17-.16s-.08-.12-.17-.12-.17,0-.17-.18,0-.17-.17-.13-.18,0-.18-.17,0-.2-.17-.2a.15.15,0,0,1-.17-.17.15.15,0,0,0-.16-.17.24.24,0,0,1-.21-.18c0-.13-.11-.17-.35-.17s-.31,0-.31-.17,0-.17-.47-.17-.49,0-.53-.17S41,33.35,39,33.35s-2.1,0-2.14.17-.12.17-.38.17-.33,0-.33.17-.06.17-.35.17-.34,0-.29.17,0,.18-.3.18-.36,0-.32.2,0,.19-.17.16-.19,0-.19.14a.16.16,0,0,1-.18.18c-.16,0-.17-.06-.17-3.85V27.36h-2v7.45m20.77-7.32c-.07.18-.07,15.26,0,15.61,0,.18.1.26.21.26s.15.07.12.41,0,.62.18.62.12.08.12.17a.15.15,0,0,0,.17.17c.12,0,.17.06.17.18a.15.15,0,0,0,.17.17c.14,0,.17.05.17.29s0,.29.35.35.34.1.34.22.06.16.17.16.17.06.17.13.1.13.34.13.35,0,.35.17.05.17.29.17.3,0,.33.17a7.39,7.39,0,0,0,3,.07c.1-.09.11-.09.06,0s.09.11.59.11.64,0,.64-.18.06-.17.52-.17.51,0,.51-.17.06-.17.34-.17.34,0,.34-.15.06-.15.3-.12.3,0,.3-.15.06-.18.17-.18.16-.07.16-.51,0-.52-.16-.52a.15.15,0,0,1-.17-.17c0-.09-.05-.17-.11-.17s-.14-.08-.17-.17-.11-.17-.52-.17-.48,0-.48.17-.06.17-.34.17-.35,0-.35.17-.05.17-.46.17-.46,0-.5.18-.12.17-1.55.17-1.51,0-1.51-.17-.06-.18-.34-.18-.34,0-.34-.17a.15.15,0,0,0-.17-.17c-.12,0-.18-.06-.18-.17s0-.17-.12-.17-.15-.08-.18-.17-.1-.17-.16-.17-.14-.08-.16-.17-.09-.16-.18-.12-.14,0-.14-.29,0-.35-.17-.39-.17-.12-.17-3.69V35.4l4,0,4,0v-2l-4,0-4,0v-6h-1c-.81,0-1,0-1,.13m-39.8,6c0,1.07,0,.19,0-1.95s0-3,0-1.95,0,2.83,0,3.9M53.26,39c0,2.08,0,.38,0-3.79s0-5.87,0-3.79,0,5.5,0,7.58M48.6,29.84a.25.25,0,0,1-.21.17c-.25,0-.24,1.62,0,1.69a.2.2,0,0,1,.17.16c0,.09.16.12.65.12s.64,0,.64-.13a.15.15,0,0,1,.16-.13c.15,0,.17-.07.17-.85s0-.86-.16-.86a.15.15,0,0,1-.17-.17c0-.16-.06-.17-.61-.17s-.61,0-.65.17M21.14,33.52c0,.13-.13.17-.35.17s-.29,0-.29.17-.06.17-.35.17-.34,0-.34.17-.06.18-.34.18-.34,0-.34.17-.06.17-.18.17a.15.15,0,0,0-.17.17.15.15,0,0,1-.17.17.15.15,0,0,0-.17.17.15.15,0,0,1-.17.17c-.09,0-.17.06-.17.13s-.08.14-.17.17-.17.1-.17.16a.51.51,0,0,1-.18.26.32.32,0,0,0-.14.33c0,.12,0,.18-.11.21a.57.57,0,0,0-.22.62s0,.09-.12.09-.18.05-.18.52,0,.51-.15.51-.16.1-.16,1.81,0,1.81.16,1.85.15.12.15.5,0,.46.17.46.16,0,.12.3,0,.31.17.38a.29.29,0,0,1,.22.24c0,.31,0,.45.14.45s.13.08.13.17,0,.17.17.17.17.06.17.18a.15.15,0,0,0,.17.17.15.15,0,0,1,.17.17.15.15,0,0,0,.16.17.25.25,0,0,1,.21.17.21.21,0,0,0,.18.17.14.14,0,0,1,.14.13c0,.14.34.25.59.19s.15,0,.11.12,0,.16.14.16.18,0,.18.17.06.17.46.17.47,0,.51.17.12.18,2.33.18,2.29,0,2.33-.18.12-.17.38-.17.33,0,.33-.17.06-.17.3-.17.32,0,.35-.12.18-.14.34-.17.29-.11.29-.18a.13.13,0,0,1,.14-.13.22.22,0,0,0,.18-.17.21.21,0,0,1,.17-.17.21.21,0,0,0,.17-.17c0-.1.1-.17.17-.17a.21.21,0,0,0,.17-.17.32.32,0,0,1,.21-.2c.23-.06.23-.57,0-.64a.22.22,0,0,1-.17-.2c0-.11-.06-.16-.17-.16s-.17-.06-.17-.18,0-.16-.17-.12-.17,0-.19-.15-.83-.35-.9-.07a.35.35,0,0,1-.21.22c-.09,0-.16.1-.16.16s-.08.14-.17.16-.17.11-.17.18a.15.15,0,0,1-.17.14.15.15,0,0,0-.17.17c0,.11-.06.17-.18.17a.15.15,0,0,0-.17.17c0,.15-.05.17-.46.17s-.48,0-.52.18-.13.17-1.55.17-1.49,0-1.49-.17-.06-.18-.34-.18-.34,0-.34-.17-.07-.17-.35-.18c-.45,0-.48,0-.57-.1s0-.06.05,0a.15.15,0,0,0,.16-.08c0-.06,0-.11-.1-.11a.14.14,0,0,1-.14-.14.22.22,0,0,0-.16-.18.32.32,0,0,1-.21-.2c0-.11-.09-.15-.18-.11s-.13,0-.13-.27,0-.33-.17-.36a.22.22,0,0,1-.17-.21c0-.1-.06-.16-.18-.16s-.17-.05-.17-.51V41.4h-.27c-.16,0-.23,0-.18,0s.11-.26.11-.73v-.68l6,0h6l0-.23c0-.34-.06-.65-.2-.65s-.13-.13-.13-.65,0-.65-.17-.69-.17-.12-.17-.38,0-.33-.17-.33-.18-.06-.18-.31,0-.32-.17-.35a.25.25,0,0,1-.17-.21c0-.13,0-.16-.17-.11s-.17,0-.17-.3,0-.35-.17-.35-.17,0-.17-.17a.15.15,0,0,0-.17-.17c-.12,0-.18-.06-.18-.17s-.05-.17-.28-.17-.31,0-.34-.17a.22.22,0,0,0-.22-.17c-.13,0-.18-.06-.18-.18S27,34,26.79,34s-.3,0-.34-.17-.13-.17-.52-.17-.47,0-.47-.17-.06-.17-2.13-.17-2.14,0-2.19.17m27.09,6.67V47h2V33.35h-2v6.84m22.09-6.67c0,.15-.06.17-.51.17s-.52,0-.52.17S69.23,34,69,34s-.34,0-.34.17-.06.18-.17.18-.18,0-.18.17-.05.17-.3.17-.32,0-.35.16a.36.36,0,0,1-.21.21.2.2,0,0,0-.16.18.13.13,0,0,1-.13.13.13.13,0,0,0-.13.14.22.22,0,0,1-.17.18c-.13,0-.17.12-.17.34s0,.28-.17.28a.15.15,0,0,0-.17.17.22.22,0,0,1-.18.2c-.16,0-.18.1-.15.55s0,.51-.17.47-.19,0-.19.49,0,.52-.17.52-.17.06-.17,1.47,0,1.46.17,1.5.17.12.17.68,0,.63.17.63.17.06.17.34,0,.35.17.35.18,0,.18.17a.15.15,0,0,0,.17.17c.14,0,.17.06.17.34s0,.34.13.34a.23.23,0,0,1,.19.18c0,.09.09.17.15.17s.13.07.15.17a.23.23,0,0,0,.22.17c.13,0,.16,0,.13.13s0,.15.12.18a.35.35,0,0,1,.22.16c0,.07.19.14.35.18s.31.1.31.17.1.12.34.12.34,0,.34.17.06.17.34.17.35,0,.35.17.07.17,2.32.17h2.32l0-.19c0-.18,0-.19.33-.16s.37,0,.37-.15.06-.21.45-.18c.16,0,.24,0,.24-.11s.12-.15.3-.18a.67.67,0,0,0,.36-.17.47.47,0,0,1,.22-.16.24.24,0,0,0,.15-.19.13.13,0,0,1,.13-.13.21.21,0,0,0,.18-.17c0-.1.1-.17.17-.17s.12-.08.12-.17.05-.18.17-.18.17,0,.17-.34,0-.34.17-.34a.15.15,0,0,0,.17-.17.15.15,0,0,1,.17-.17c.14,0,.17-.06.17-.35s0-.34.17-.34S79,43,79,42.39s0-.64.17-.68.17-.11.17-1.47,0-1.43-.17-1.47-.17-.12-.17-.55,0-.51-.18-.51-.17-.05-.17-.47,0-.49-.17-.53a.22.22,0,0,1-.17-.2.15.15,0,0,0-.17-.17c-.14,0-.17-.05-.17-.29s0-.3-.17-.3-.17-.06-.17-.18-.06-.17-.13-.17a.13.13,0,0,1-.13-.13.2.2,0,0,0-.16-.18.33.33,0,0,1-.21-.22c0-.14-.1-.17-.35-.14s-.31,0-.31-.16,0-.19-.17-.19S76,34.32,76,34.2s-.06-.17-.34-.17-.35,0-.35-.17,0-.17-.51-.17-.51,0-.51-.17-.06-.17-2-.17-2,0-2,.17m-20.91,0a.78.78,0,0,1-.34,0c-.11,0,0,0,.15,0s.27,0,.19,0m11,0H56.73c-1,0-.19,0,1.86,0s2.89,0,1.86,0m12,0a.81.81,0,0,1-.38,0c-.11,0,0,0,.19,0s.3,0,.19,0m-47.7,2.06c0,.07.12.11.33.11s.34,0,.38.18.1.18.35.15.31,0,.31.16.05.19.17.19.17.06.17.18a.15.15,0,0,0,.17.17.15.15,0,0,1,.17.17A.15.15,0,0,0,27,37a.15.15,0,0,1,.17.17.15.15,0,0,0,.17.17c.12,0,.18.06.18.17s.05.17.17.17.19,0,.12.21a54.65,54.65,0,0,1-8.68,0,.22.22,0,0,1,.17-.21c.13,0,.17-.12.17-.35s0-.31.18-.31.17,0,.14-.2,0-.19.16-.16.2,0,.2-.14.05-.19.3-.19.3,0,.3-.17a.15.15,0,0,1,.17-.17c.12,0,.18,0,.18-.17s0-.2.65-.17c.28,0,.36,0,.39-.14s.15-.14,1.21-.13c.79,0,1.16,0,1.12-.08s0,0,.13,0a.35.35,0,0,1,.18.22M8.7,35.4c.31,0,.41,0,.41.13s.11.13.51.13.5,0,.46.17,0,.17.12.17a.23.23,0,0,1,.22.17c0,.13.12.17.35.17s.31,0,.31.18a.15.15,0,0,0,.17.17c.14,0,.17.05.17.3s0,.32.17.36a.21.21,0,0,1,.17.2c0,.11.06.16.18.16s.17.06.17.29,0,.31.17.34.17.12.17.52,0,.48.17.48.26,1.67,0,1.74-.17.1-.15.52,0,.48-.16.48-.19,0-.19.34,0,.35-.17.35-.18,0-.18.33,0,.34-.17.31-.17,0-.17.13a.15.15,0,0,1-.17.17.15.15,0,0,0-.17.17c0,.14-.06.17-.29.17s-.31,0-.35.16a.38.38,0,0,1-.22.21.21.21,0,0,0-.17.18c0,.1-.08.13-.3.13s-.3,0-.3.18,0,.17-1.54.17-1.54,0-1.54-.17-.06-.18-.47-.18-.47,0-.47-.17a.15.15,0,0,0-.16-.17.23.23,0,0,1-.21-.17.21.21,0,0,0-.17-.17.21.21,0,0,1-.17-.17c0-.13-.12-.17-.35-.17s-.31,0-.31-.3,0-.3-.14-.3-.15-.08-.18-.17a.34.34,0,0,0-.2-.22c-.12,0-.17-.13-.17-.35s0-.29-.17-.29S3,42,3,41.57s0-.52-.17-.52-.17,0-.17-.68,0-.69.17-.69S3,39.63,3,39s0-.64.17-.64.17-.06.17-.34,0-.35.18-.35a.15.15,0,0,0,.17-.17.15.15,0,0,1,.17-.17.15.15,0,0,0,.17-.17A.15.15,0,0,1,4.2,37c.07,0,.15-.08.18-.17a.2.2,0,0,1,.17-.17c.07,0,.14-.08.17-.17a.23.23,0,0,1,.21-.18.15.15,0,0,0,.16-.17c0-.13,0-.17.29-.17s.3,0,.33-.17.12-.17.35-.17.31,0,.31-.12.13-.18,1.11-.16l1.22,0m31.68,0a.14.14,0,0,1,.15.13c0,.09.09.13.34.13s.34,0,.34.17.06.17.35.17.34,0,.34.17.05.17.12.17.13.08.16.18a.23.23,0,0,0,.22.17c.13,0,.16,0,.13.13s0,.15.13.18a.24.24,0,0,1,.18.21c0,.11.06.16.17.16s.17.06.17.31,0,.32.17.35.17.12.17.33,0,.3.18.34.17.13.17,1.54,0,1.48-.17,1.52-.18.12-.18.35,0,.3-.17.34-.17.11-.17.3,0,.26-.17.3a.21.21,0,0,0-.17.17c0,.07-.08.14-.17.17a.21.21,0,0,0-.17.18.13.13,0,0,1-.13.14c-.06,0-.14.07-.17.17s-.11.17-.18.17-.12.08-.12.17-.06.17-.31.17-.32,0-.35.17-.12.17-.34.17-.31.05-.35.18-.11.17-1.52.17-1.48,0-1.52-.17-.12-.18-.36-.18-.3,0-.3-.17-.06-.17-.35-.17-.34,0-.34-.17a.15.15,0,0,0-.17-.17.15.15,0,0,1-.17-.17.15.15,0,0,0-.17-.17c-.12,0-.17-.06-.17-.18s0-.16-.21-.12-.2,0-.16-.18,0-.22-.13-.17-.19,0-.19-.29,0-.35-.13-.35-.12-.09-.12-.3,0-.32-.18-.36a5.87,5.87,0,0,1,0-2.76c.14,0,.22-.26.22-.66,0-.19,0-.28.13-.28s.13-.1.13-.35,0-.34.17-.34.17,0,.17-.17.06-.17.18-.17a.15.15,0,0,0,.17-.17c0-.12.05-.17.17-.17a.15.15,0,0,0,.17-.17c0-.12.06-.18.17-.18a.15.15,0,0,0,.17-.17c0-.14.06-.17.34-.17s.35,0,.35-.17,0-.17.47-.17.47,0,.47-.12.43-.2,2.59-.14m32.87,0c.32,0,.41,0,.41.14s.07.13.34.11.34,0,.34.16,0,.19.3.19.3,0,.3.17a.15.15,0,0,0,.17.17.15.15,0,0,1,.17.14.21.21,0,0,0,.17.18.3.3,0,0,1,.2.21.21.21,0,0,0,.17.16.21.21,0,0,1,.17.17.22.22,0,0,0,.19.17c.07,0,.13.07.13.17a.15.15,0,0,0,.17.17c.14,0,.17.06.17.31s0,.32.18.35.17.12.17.51,0,.46.19.46.19,0,.16.86,0,.85-.19.85-.16.07-.16.52,0,.51-.17.51-.18.06-.18.34,0,.35-.16.35a.21.21,0,0,0-.2.17c0,.09-.11.17-.18.17s-.14.08-.14.3,0,.3-.17.3-.17,0-.17.17-.06.17-.3.17-.31,0-.35.17a.23.23,0,0,1-.22.17c-.13,0-.16,0-.12.17s0,.17-.29.17-.34,0-.37.2,0,.18-.09.17-.79,0-1.69,0c-1.57,0-1.62,0-1.62-.17s-.06-.18-.3-.18-.3,0-.3-.13a.21.21,0,0,0-.17-.18.38.38,0,0,1-.22-.21c0-.12-.13-.16-.35-.16S69,44,69,43.88a.15.15,0,0,0-.17-.17c-.14,0-.17-.06-.17-.3s0-.3-.14-.3a.22.22,0,0,1-.18-.17.23.23,0,0,0-.21-.17c-.13,0-.16-.07-.16-.34s0-.34-.19-.36-.18-.07-.16-.49,0-.46-.15-.5c-.31-.08-.31-1.74,0-1.74.14,0,.16-.06.16-.46s0-.47.17-.51.17-.11.17-.35,0-.31.17-.31.17-.05.17-.16a.22.22,0,0,1,.18-.2c.09,0,.17-.1.17-.17a.22.22,0,0,1,.17-.18.21.21,0,0,0,.17-.18.13.13,0,0,1,.14-.13.21.21,0,0,0,.17-.17.32.32,0,0,1,.21-.2.22.22,0,0,0,.16-.18c0-.1.09-.14.29-.14s.3,0,.34-.17.12-.17.35-.17.31,0,.31-.12.48-.19,1.41-.16l.92,0m-29,4.84c0,.11,0,.19,0,.17s-.08-.13-.11-.25,0-.2,0-.18a.6.6,0,0,1,.1.26M23.59,45.32a.94.94,0,0,1-.45,0s.13-.05.38,0l.44,0-.37,0m-15.66,0a1.21,1.21,0,0,1-.38,0c-.11,0,0,0,.19,0s.3,0,.19,0m64.55,0a1.21,1.21,0,0,1-.38,0c-.11,0,0,0,.19,0s.3,0,.19,0" transform="translate(0 0)"/><path id="path1" class="cls-4" d="M53.24,35.23c0,4.17,0,5.87,0,3.79s0-5.49,0-7.58,0-.37,0,3.79M44.1,40.16c0,.12.07.23.11.25s0-.06,0-.17a.6.6,0,0,0-.1-.26s-.05.06,0,.18m-21,5.11a.94.94,0,0,0,.45,0l.37,0-.44,0c-.25,0-.42,0-.38,0m-15.59,0a1.21,1.21,0,0,0,.38,0c.11,0,0,0-.19,0s-.3,0-.19,0m64.55,0a1.21,1.21,0,0,0,.38,0c.11,0,0,0-.19,0s-.3,0-.19,0" transform="translate(0 0)"/><path id="path2" class="cls-5" d="M13.09,31.55c0,2.14,0,3,0,1.95s0-2.83,0-3.9,0-.19,0,1.95m36,1.94a.78.78,0,0,0,.34,0c.08,0,0,0-.19,0s-.26,0-.15,0m7.66,0h3.72c1,0,.19,0-1.86,0s-2.89,0-1.86,0m15.37,0a.81.81,0,0,0,.38,0c.11,0,0,0-.19,0s-.3,0-.19,0M16.5,40.2c0,.3,0,.43,0,.28a2.62,2.62,0,0,0,0-.56c0-.15,0,0,0,.28m4.79-.2c1.6,0,4.18,0,5.74,0s.26,0-2.9,0-4.43,0-2.84,0" transform="translate(0 0)"/><path id="path3" class="cls-5" d="M13.09,31.55c0,2.14,0,3,0,1.95s0-2.83,0-3.9,0-.19,0,1.95m36,1.94a.78.78,0,0,0,.34,0c.08,0,0,0-.19,0s-.26,0-.15,0m7.66,0h3.72c1,0,.19,0-1.86,0s-2.89,0-1.86,0m15.37,0a.81.81,0,0,0,.38,0c.11,0,0,0-.19,0s-.3,0-.19,0M16.5,40.2c0,.3,0,.43,0,.28a2.62,2.62,0,0,0,0-.56c0-.15,0,0,0,.28m4.79-.2c1.6,0,4.18,0,5.74,0s.26,0-2.9,0-4.43,0-2.84,0" transform="translate(0 0)"/><path id="path4" class="cls-5" d="M13.09,31.55c0,2.14,0,3,0,1.95s0-2.83,0-3.9,0-.19,0,1.95m36,1.94a.78.78,0,0,0,.34,0c.08,0,0,0-.19,0s-.26,0-.15,0m7.66,0h3.72c1,0,.19,0-1.86,0s-2.89,0-1.86,0m15.37,0a.81.81,0,0,0,.38,0c.11,0,0,0-.19,0s-.3,0-.19,0M16.5,40.2c0,.3,0,.43,0,.28a2.62,2.62,0,0,0,0-.56c0-.15,0,0,0,.28m4.79-.2c1.6,0,4.18,0,5.74,0s.26,0-2.9,0-4.43,0-2.84,0" transform="translate(0 0)"/></g></svg>