<svg id="Layer_1" data-name="Layer 1" xmlns="http://www.w3.org/2000/svg" viewBox="0 0 80 84.19"><defs><style>.cls-1{fill:#f2f2f2;}.cls-2{fill:#fac304;}.cls-2,.cls-3,.cls-4,.cls-5,.cls-6{fill-rule:evenodd;}.cls-3{fill:#c4041c;}.cls-4{fill:#2e2e2f;}.cls-5{fill:#c9c9c9;}.cls-6{fill:#ab0c13;}</style></defs><rect class="cls-1" width="80" height="80" rx="40"/><g id="svgg"><path id="path0" class="cls-2" d="M26.29,74.21v5h30v-10H26.29v5m10-3.4c0,.07,0,.07-.08.08s-.1,0,0-.11.1-.06.09,0m.15,0a.3.3,0,0,1,.07.1v0s-.05,0-.08,0-.07,0-.07-.08,0-.1.08,0m.06.18s0,0,0,0,0,0,0,0a.06.06,0,0,1,0,.1s0,0,0,0,0,0,0,0,0,0,0,0,0,0,.06,0l.07,0s0,0,0,0-.11.31,0,.31a1.82,1.82,0,0,1,.44.11c.2.06.23.06.25,0s0,0,0,0a.24.24,0,0,1-.09.16c0,.05,0,.13,0,.13s0,0,0,0,0,0,0-.07a.38.38,0,0,0-.08-.55s-.06,0,0,0,.05,0,.05,0,0,0,0,0,.06.06,0,.07h-.05l.05,0s.06,0,.06,0,.07,0,.09,0a.17.17,0,0,1,0,.07s0,0,0,0,.07,0,.08,0,0,0,.16,0h0c-.17,0-.21,0-.14.06s0,0,0,0a.08.08,0,0,0,0,.07s0,.06,0,.08,0,.06.13.08a1,1,0,0,1,.48.14c.11.06.11.06.12,0s0,0,0,0a.13.13,0,0,1,0,.08s0,0,0,.11.09.09,0,0,0-.07,0-.14-.06-.54-.26-.54c0,0,0,0,0,0s0,0,0,0,0-.06,0-.06,0,0,0,.08,0,0,0,0,.06,0,.06,0,0,0,.08,0,0,0,0,0,0,0-.05,0,0,0,0,0,0,0,.05,0a.07.07,0,0,1,.06,0s.05.07,0,.1,0,0,0,0,0,0,0,0,0,0,0,0,0,0,0,0,0,0-.06,0-.05,0,0,0,0,0,0,.06,0,0,0,.1a1.55,1.55,0,0,1,0,.15c0,.06,0,.12,0,.12s0,0,0,0,.14,0,.14,0,0,.08-.06,0,0-.08-.06,0,0,.06,0,.06a0,0,0,0,1,0,.09.08.08,0,0,0,0,.07s0,0-.07,0-.12,0-.16.14a.11.11,0,0,1-.06.07l-.11.07-.07.06s0,0,0-.06.09-.13,0,0-.26.1-.3,0,0,0-.05,0a.21.21,0,0,1-.32-.16c0-.08,0-.09,0,0a.22.22,0,0,1-.37.07l-.06-.07-.06.06c-.13.1-.34,0-.34-.12a.07.07,0,0,0,0-.06s0,0,0,.05a.21.21,0,0,1-.36.12l0-.06,0,.06c-.09.15-.39.09-.39-.07s0,0,0,0-.23.25-.31.15-.08,0-.08,0-.15.1-.26,0-.14-.06-.05,0,.24.14.3.06,0,0,.18,0,.13,0,.2-.07l.07-.07.07,0a.31.31,0,0,0,.31,0c.06,0,.06,0,.1,0a.29.29,0,0,0,.32,0c.07,0,.07,0,.11,0a.29.29,0,0,0,.35,0s0,0,.09,0a.31.31,0,0,0,.32,0c.05,0,.05,0,.11,0a.24.24,0,0,0,.25.07.15.15,0,0,1,.15,0s.06,0,.13,0,.11,0,0,0a.73.73,0,0,1-.26,0,6.29,6.29,0,0,0-2.29,0c-.3.07-.31.07-.32.11s0,0,0,0l.22,0,.27-.06a6.48,6.48,0,0,1,1.76,0l.51.1s0,0,0,0-.06,0-.14,0a6.08,6.08,0,0,0-2.44,0c-.12,0-.13.07,0,.07s.07,0,0,.06a.08.08,0,0,0,0,.06s0,0,.12,0a5.5,5.5,0,0,1,2.18,0l.13,0a.09.09,0,0,1,.09.08s0,0,0,0a1.45,1.45,0,0,0-.46-.12,6.35,6.35,0,0,0-1.63,0c-.38.07-.47.1-.43.15s0,0,0,0S35,73.05,35,73s0-.09-.06-.09,0,0,0,0,0,0-.07-.07a.05.05,0,0,1,0,0s0,0-.05,0a.33.33,0,0,1-.13-.09l-.14-.1a.07.07,0,0,1-.06-.06c0-.06-.07-.12-.15-.14s-.08,0-.07,0a.13.13,0,0,0,0-.07c-.05,0,0-.08,0-.08s.05,0,0-.06,0,0,0,0-.09.09-.09,0,.12-.07.13,0,0,0,0,0,0-.06,0-.12a.54.54,0,0,1,0-.15s0-.1,0-.1,0,0,0-.06,0,0,0,0-.08-.08,0-.08.05,0,.05,0,0,0,0,0,0,0,0,0,0-.1,0-.1a.07.07,0,0,1,.06,0s0,0,.05,0,0,0,0,0-.05,0-.05,0a0,0,0,0,1,0,0,.07.07,0,0,1,.06,0s0,0,.07,0a.06.06,0,0,1,.05,0s0,0-.05,0a.37.37,0,0,0-.21.52c0,.07,0,.08,0,.14s0,.08,0,0,0-.06,0-.13,0-.08,0-.08,0,0,0,0,.05,0,.13,0a1.25,1.25,0,0,1,.5-.14c.14,0,.15,0,.1-.07s0,0,0-.07,0,0,0-.07,0,0,0-.07l0,0h-.22c.21,0,.22-.06,0-.07s-.15,0-.16,0,0-.08,0-.07,0,0,0,0,0,0,0,0,.07,0,0-.05,0,0,0,0,0,0,0,0,0,.05,0,.05,0,0,0-.05,0,0,0,0,.08,0,0,.06,0,0,0,.06.07,0,0,0,0,0,0-.05.09,0,.09,0,0,0,0,0,0,0,0,0,0,0,0-.05.09,0,.08,0,0,0,0,0,.07,0,0,0a.37.37,0,0,0-.07.55.11.11,0,0,1,0,.06s0,0,0,0,0,0,0-.09a.27.27,0,0,1-.08-.16s0,0,0,0,.06.09.27,0a3.63,3.63,0,0,1,.45-.11h.08v-.13c0-.1,0-.13,0-.15s0,0,0,0,.05,0,0,0,0,0,0,0,0,0,0,0,0,0,0,0,0,0,0,0,0,0,0-.09,0,0,0-.07,0,0,.16,0a.44.44,0,0,1,.18,0m-.84.08s0,0,.13,0h.14s0,0-.1,0h-.19c-.06,0-.06,0,0,0s0,0,0,0-.06,0,0-.07.05,0,.06,0m.16,0s0,0-.05,0,0,0,0,0,0,0,0,0,.05,0,.05,0m.12,0s-.07,0-.09,0,0,0,.05,0a0,0,0,0,1,0,0M36,71s0,.07,0,.07,0-.06,0-.08,0,0,.06,0m.57,0s0,0-.06,0,0,0,0,0,.06,0,.06,0m.16,0s0,0,0,0-.05,0-.05,0,0,0,.05,0,0,0,0,0m.12,0s0,0,0,0-.07-.06,0-.06,0,0,0,0M37,71s0,.07,0,.07,0,0,0,0,0,0-.13,0-.25,0-.06,0,.15,0,.15,0,0-.09.06,0m-1.51.06s0,0,0,0a0,0,0,0,1,0,0s-.12-.07-.09-.1.07,0,.07,0m1.65,0s-.05.12-.09.1,0,0,0,0,0,0,0,0,0-.1.07,0m-1,0,0,.07a2,2,0,0,0,0,.28c0,.12,0,.24,0,.26s0,.06,0,.09.09,0,0,0,0-.05,0-.08a.86.86,0,0,0,0-.26c0-.23,0-.31.11-.31s.09.08.1.31a1.12,1.12,0,0,0,0,.26s0,0,0,.08,0,.09,0,0,0-.06,0-.16a1.49,1.49,0,0,1,0-.21.72.72,0,0,0-.06-.29v0h-.19m0,.08s0,.25,0,.27,0,0,0,0,0,0,0,0,0,0,0,0,0,0,0,0,0-.24,0-.28-.05,0-.09,0m-.54,0h-.07s0,0,0,0,.05,0,0,0m.22,0h-.07s0,0,0,0,.05,0,0,0m.8,0h-.07s0,0,0,0,0,0,0,0m-1.18,0a.37.37,0,0,0-.23.21c0,.06,0,.07,0,0s.18-.26.28-.26,0,0,0,0m.81,0s0,0,0,0-.1,0-.09,0,.11,0,.11,0m1.15,0c0,.05,0,.05,0,.05s0,0,0-.05,0,0,0,0,.08,0,0,.06,0,0,0,0,.12,0,.08,0,0-.06,0-.06.05.08,0,.1-.27,0-.29,0,0-.08,0-.08,0,0,0,0m-2.77,0a.17.17,0,0,1,0,.05s-.07,0,0-.05.07,0,.07,0m2.47.06c.06.06.09.1.09.13s0,0,0,0a.36.36,0,0,0-.17-.18s0,0,0,0l.11.09m.72-.06c0,.05,0,.09-.06.06s0-.09,0-.09,0,0,0,0m-3.31.06a.05.05,0,0,1,0,0s-.08,0-.06,0,.08,0,.08,0m1.72,0s-.05.07-.07,0a.05.05,0,0,1,0-.08s0,0,0,0m-1.5,0h-.07s0,0,0,0,.06,0,0,0m3,0h-.07s0,0,0,0,0,0,0,0m-3,.07-.09,0s-.07,0,0,0,.15,0,.13,0m3.13,0c.05,0,0,0-.07,0s0,0,0,0l.08,0m-3.33,0-.08.06a.29.29,0,0,0-.14.22c0,.08,0,.09,0,0a.36.36,0,0,1,.14-.27c.09-.07.16-.11.1-.05m3.48,0c.09.06.15.15.13.17s0,0,0,0-.1-.13-.18-.19-.05,0,0,0l.1.06m-1.85,0s-.06.22,0,.23,0,0,0-.1a0,0,0,0,1,0-.06,0,0,0,0,0,0,0s0,0,0,0m-1,.07a.24.24,0,0,0,0,.1s0,0,0,0,0-.07,0-.09,0,0,0,0,0,0,0,.07m1.15,0s0,0,0,0a.05.05,0,0,1,0,0s0,0,0,0,0-.07-.06,0m1,0a.37.37,0,0,1,0,.09s0,0,0,0a.07.07,0,0,0,0-.07s0,0,0,0,0,0,0,0,0,0,0,0m-3.16.11s0,0,0,0,0,0,0-.07.06,0,.07,0m4.23,0s0,.07-.05.07,0-.06,0-.09,0,0,.06,0m-2.08,0s0,0,0,.06,0,0,0-.07,0,0,0,0m1.86.13s0,0,0,0,0-.06,0,0v.08m-3,0,0,0s0,0,0,0-.07,0-.06,0m2.06,0s0,0,0,0,0,0,0,0,0,0,0,0m-3.06.08a.34.34,0,0,1,0,.11s0,0,0-.1,0-.14,0,0m4.13.07s0,0,0-.06,0-.09,0-.06v.12m-4.17-.1s0,0-.05,0-.07,0,0-.06a0,0,0,0,1,.07,0m4.3,0s0,0,0,0-.08,0,0-.06.08,0,.08,0m-2.22,0a.11.11,0,0,0,0,.06.07.07,0,0,1,0,0s0,0,0,.11.18.07.2,0,0-.14,0-.12,0,0-.06-.06,0-.08-.07,0m-2.08.12s0,.06-.08,0,0-.06,0-.06,0,0,0,0m4.29,0s0,.06-.06,0,0,0,0,0,.06,0,.09,0m-3.18,0s0,0,0,.06,0,0,0,0,0,0,0,.06.17.07.2,0,0-.05,0,0,0,0-.06,0,0-.06-.07,0m1.92,0a.09.09,0,0,1-.06,0s0,0,0,.06,0,.07,0,.07h.08s0,0,.07,0,0-.06,0-.06,0,0,0-.06,0-.08-.08,0m-1.19.1s0,0-.06,0-.06,0-.06,0l.06,0,.06,0s.08,0,.13,0a.09.09,0,0,0,0-.15L36,72s0,0,0,0m.43,0c-.13.06-.08.19.07.19s0,0,0,0,0,0,.05,0,.1-.06,0-.08a.18.18,0,0,1-.07-.05s0,0-.11,0m-.94.06c-.06,0-.06,0,0,.12s.14.08.14,0,0,0,0-.05.05,0,0-.07l-.07,0s0,0-.07,0m1.47,0s0,0,0,0-.08,0,0,.07.06,0,.06.05.12,0,.14,0,0-.09-.07-.12-.05,0-.05,0m1.28,0s-.09,0-.17,0-.08.07-.07.13.06.06.12,0a.12.12,0,0,1,.1,0c.05,0,.08,0,0-.07a0,0,0,0,1,0,0,0,0,0,0,0,0,0s0,0,0,0m-3.16.07c-.07.07-.07.08,0,.08l.07,0s0,0,.06,0,.06-.17-.06-.16l-.07.06m2.23,0a.05.05,0,0,0,0,0s0,0,0,.06,0,0,0,0,.07,0,.07,0l.06,0c.07,0,.07,0,0-.08s-.08-.06-.15,0m-3,0a0,0,0,0,0,0,.09.18.18,0,0,1,.11,0c.07.06.12,0,.12,0s-.08-.16-.08-.11,0,0,0,0a.2.2,0,0,0-.13,0m.34.11c-.11.07-.08.14.07.14s.08,0,.08,0,0-.05,0-.07l.05,0h-.07l-.09,0s0,0-.08,0m3.19,0-.08,0h-.07l0,0a.1.1,0,0,1,.05.07s.15,0,.19,0,0-.08-.06-.12-.07,0-.07,0m-4.49.41c0,.06,0,.07.1.08s.11,0,0,.11-.07.09-.06.09.16-.15.16-.17.06,0,.12,0,.09.12,0,.23a.29.29,0,0,0-.08.11s0,0,0,0,0,0,0,0a.14.14,0,0,0,.11,0,1.53,1.53,0,0,1-.36,0h-.45v.2h.88s0,0,0,0,0,0,0,0a.09.09,0,0,1,0,0s0,0,0,0a0,0,0,0,1,0,.09s0,.08,0,.37v.35h.09l.28,0,.25,0h0V73.21H36l-.2,0-.35,0a1.36,1.36,0,0,0-.27,0c-.2,0,0-.09.48-.15a8.55,8.55,0,0,1,1.24,0c.61.09.67.12.39.16l-.24,0-.28,0c-.15,0,0,0,.64,0l.88,0a6,6,0,0,1,0,.66v.65h0a2,2,0,0,1,.39,0c.2,0,.18,0,.18-.37v-.33h.24c-.36,0-.3,0,.09,0a1.29,1.29,0,0,0,.35,0s-.11,0-.36,0-.36,0-.36,0l0,0s0-.13-.09-.13,0,0,0,0h.87v-.2h-.44a2.53,2.53,0,0,1-.39,0c.14,0,.16,0,.13,0a.13.13,0,0,1,0-.07s0,0,0-.06-.11-.12-.07-.15a.07.07,0,0,0,0,0s0,0,0,0c.21,0,.33-.05.29-.07s0,0,0,0,0,0,0,0,0,0,0-.07l0,0s0,0,0,0,.06,0,0,0a0,0,0,0,0,0,0,.08.08,0,0,1,0,.07s0,0,.13.07.21,0,.24,0,0,.08,0,.15-.14.2,0,.2h.08v.12c0,.09,0,.12,0,.12a.09.09,0,0,0-.06.14s0,0,0,.07,0,.07,0,.42v.4l.06,0,.13,0c.27.1.33.2.23.41l-.06.14s-.1.14-.15.15l-.13,0-.08,0v.32l.18.09c.24.11.25.13.21.34s0,.18-.11.24a.29.29,0,0,0-.08.11s0,0-.07,0a.24.24,0,0,1,0-.23l.05-.07-.07,0-.1,0a3.9,3.9,0,0,0,0,.9s0,0,0,0a1.54,1.54,0,0,1-.74,0s0,0,0,0a2.73,2.73,0,0,0,.7,0,1.3,1.3,0,0,0-.34,0h-.34V75.79l-.1-.08c-.18-.14-.18-.14-.17-.34s0-.22.17-.26l.09,0V75c0-.11,0-.11,0-.12a2.43,2.43,0,0,0-.52.08h0v1c0,1.08,0,1.15-.13,1.35a1.15,1.15,0,0,1-.57.46,3.73,3.73,0,0,1-.92.24,3.11,3.11,0,0,1-2.15-.51c-.27-.27-.3-.41-.28-1.61a3.86,3.86,0,0,0,0-.9,2.61,2.61,0,0,0-.57-.09c-.09,0-.09.23,0,.25s.22.05.23.28l0,.17-.09.08a.83.83,0,0,1-.16.13l-.06,0V77h-.33A1.37,1.37,0,0,0,33,77a2.81,2.81,0,0,0,.71,0s0,0,0,0,0,0-.34,0-.35,0-.37,0,0,0,.34,0,.37,0,.36,0,0,0,0,0l.06,0s0,0,0,.12,0,.11.08.13h.07v.25c0,.28,0,.28-.16.22a.62.62,0,0,0-.38,0,.28.28,0,0,1-.22,0,.5.5,0,0,0-.34,0c-.16,0-.16.06-.16-.22v-.24l.08,0c.07,0,.07,0,.08-.13s0-.12.06-.15,0,0,0-.08,0-.07,0-.08a5.3,5.3,0,0,0,0-.89.36.36,0,0,0-.15.06s0,0,0,.08a.25.25,0,0,1,0,.22c0,.06-.08.08-.08,0a.2.2,0,0,0-.07-.11c-.08-.07-.09-.08-.11-.25s0-.23.22-.34L33,75.7v-.17c0-.14,0-.16,0-.17l-.13,0c-.11,0-.14,0-.2-.2l-.09-.19c-.06-.12,0-.23.32-.34l.13,0v-.4a1.35,1.35,0,0,0,0-.41s0-.07,0-.1,0-.12-.08-.12,0,0,0-.12v-.12h.08c.09,0,.15,0,.09-.07s0,0,0,0a.26.26,0,0,0-.06-.08c-.17-.12-.07-.27.2-.3.09,0,.12,0,.13,0s0-.07,0-.1,0,0,.06.07m2.64,0a.07.07,0,0,1,0,.05s0,0,0-.1.07,0,.07,0m.48,0c0,.06,0,.08-.18.08s-.2,0-.18-.07.34,0,.36,0m.2,0s0,0,0,0a0,0,0,0,1,0-.08.05.05,0,0,1,.08,0m-.9,0c0,.05,0,.07-.16.08s-.13,0-.13,0,0-.06.19-.07.09,0,.1,0m1.31,0c.06,0,0,.08-.13.07s-.16,0-.14-.08.24,0,.27,0m-1.75.07s-.09,0-.09,0a.05.05,0,0,1,0,0s.07,0,.06,0m-2,0s0,.06,0,.06,0,0,0,0,0,0,0,0m4,0s0,0-.05,0a0,0,0,0,1,0,0s0,0,.05,0,0,0,0,0m-4.26,0s0,0,0,.05h0s0,0,.06,0,0,0,0,0a.41.41,0,0,0-.16-.16s0,0,0,0m4.54,0a.11.11,0,0,0,0,0c0,.05-.07.08-.12,0s-.07-.08,0-.09h.08a0,0,0,0,1,0,0m1.64,0a.06.06,0,0,0,0,0s0,0,0,0,0,0,0,0m-1.71.28-.08,0s0,0,0,0,.12,0,.07,0m-4.37,0s0,0,.05,0,0,0,0,0,0,0,0,0l-.05,0m.2,0,0,0s.05,0,.05,0,0,0-.05,0h0m1.85,0s.06,0,0,0h-.1c-.07,0,0,0,.09,0m2.21.38s0,0,0,0h0s0,.07,0,.06,0-.09-.07-.09,0,0,0,0m-4.29,0a2.16,2.16,0,0,0,.36,0h-.36m2,0s.06,0,.13,0,.13,0,.13,0-.06,0-.13,0-.13,0-.13,0m3.94,0a2,2,0,0,0,.35,0h-.35m-1.55,0s0,.05,0,.08.08,0,.08,0a0,0,0,0,0,0,0,.09.09,0,0,1,0,0s0,0,0,0m-4.55,0a1.11,1.11,0,0,0,.3,0,1,1,0,0,0,.3,0,1,1,0,0,0-.3,0,1.11,1.11,0,0,0-.3,0m2.17,0,.12,0a.25.25,0,0,0,.12,0s0,0-.12,0-.13,0-.12,0m3.8,0a1.11,1.11,0,0,0,.3,0,1,1,0,0,0,.3,0,1,1,0,0,0-.3,0,1.11,1.11,0,0,0-.3,0m-6,.08a3.07,3.07,0,0,0,.7,0s-.13,0-.35,0-.35,0-.35,0m1.93.06s.23,0,.23,0,0,0,0,0a0,0,0,0,1-.06,0s0,0-.05,0,0,0,0,0-.06,0,0,0m.57,0s0,0,.12,0,.12,0,.12,0,0,0,0,0a0,0,0,0,0,0,0s0,0-.07,0,0,0,0,0,0,0-.06,0,0,0,0,0m-2.35,0h.22c.06,0,0,0-.12,0s-.16,0-.1,0m2.13,0s0,0,.05,0,0,0,0,0,0,0,0,0-.05,0-.05,0m-.3,0a.28.28,0,0,0,.13,0H35c-.07,0-.1,0-.06,0m.57,0a.28.28,0,0,0,.13,0s0,0-.06,0H35.5m-.24.1a.08.08,0,0,0,.07,0s0,0,0,0,0,0,0,0m-.45.07s0,0,0,0,0,0,0,0l0,0s0,0,0,0m.12,0c0,.08,0,.11.08.11s.06,0,.06-.08,0-.08-.07-.08-.07,0-.07,0m.17,0s0,0,0,0,0,0,0,0l0,0,0,0m.12,0a.09.09,0,0,0,.07.13c.06,0,.06,0,.06-.08s-.11-.12-.13,0m.17,0s0,0,0,0,0,0,0,0,0,0-.07,0m.11,0c0,.06,0,.12.06.12s.11-.08.08-.14-.13,0-.14,0m.18,0s0,0,0,0,.05,0,0,0l0,0,0,0m-.87.15s0,0,0,0,0,0,0,0,0,0,0,0,0,0,0,0m.29,0s0,0,0,0a0,0,0,0,0,0,0s-.06,0-.09,0m.28,0s0,0,0,0a0,0,0,0,0,0,0s-.06,0-.09,0m.28,0s0,0,.08,0,0,0,0,0l-.05,0m-.79.08s0,0,.06,0,.06,0,.06,0l-.06,0-.06,0m.16,0s0,0,0,0,0,0,0,0,0,0,0,0,0,0,0,0m.12,0s0,0,.06,0,.06,0,.06,0l-.06,0-.06,0m.15,0s0,0,.05,0,.06,0,.06,0,0,0,0,0l-.06,0m.15,0s0,0,0,0,0,0,0,0,0,0,0,0,0,0,0,0m.13,0s0,0,.05,0,.06,0,.06,0,0,0,0,0l-.06,0m-.63.08s0,0,.06,0l.06,0s0,0-.06,0-.06,0-.06,0m.14,0s0,0,0,0,0,0,0,0,0,0,0,0,0,0,0,0m.14,0,.06,0s.06,0,.05,0a.08.08,0,0,0-.06,0s-.05,0-.05,0m.14,0s0,0,.05,0,0,0,0,0,0,0,0,0-.05,0-.05,0m.14,0s0,0,.05,0,0,0,0,0,0,0,0,0-.05,0-.05,0m-.63,0a0,0,0,0,0,0,0,.05.05,0,0,0,0,0s0-.05-.06,0m.28,0s0,0,.05,0,.06,0,.06,0-.09,0-.11,0m.14,0s0,0,.06,0,0,0,0,0-.09,0-.11,0m.33,0s0,0,0,0a0,0,0,0,0,0,0s0,0-.06,0m-.4.09s0,0,.06,0,.06,0,.05,0a.08.08,0,0,0-.06,0s-.05,0-.05,0m-.08.08.06,0,.06,0s0,0-.06,0-.06,0-.06,0m.14,0,.06,0s.06,0,.06,0,0,0-.06,0-.06,0-.06,0m-1.71.08a.93.93,0,0,0,0,.1s0,0-.08-.06-.1-.11-.1-.06.12.21.15.21a.44.44,0,0,0,.07-.12c0-.13,0-.19,0-.07m5.27,0c0,.15,0,.17.09.17s.07,0,0,0,0,0-.06-.12-.05-.16-.07,0m-5.1,0s0,.08,0,.11.07.1,0,.1a.07.07,0,0,1-.06,0s0,0,0,0,.09,0,.14,0,.07-.09,0-.14-.06-.05-.05-.07,0,0,0,0m5,0a.05.05,0,0,0,0,0,.15.15,0,0,1,0,.08l0,0,0-.06s0-.08,0-.09,0,0,0,0,0,0,0,.13.11.13.16,0,0-.16,0-.12m.38,0s0,0,0,.12,0,.12,0,.12,0,0,0-.07,0-.15.07-.15,0,0,0,0l-.11,0c-.08,0-.1,0-.06,0m-3.87,0s0,0,.06,0,.06,0,.06,0,0,0-.06,0-.06,0-.06,0m-2.09.09c0,.15,0,.16.15.13s.05,0,0,0-.06,0-.07-.11-.09-.13-.07,0m6.21,0c0,.12,0,.16,0,.16s0,0,0,0,0-.05.06,0,0,.06.05.06,0-.05,0-.07,0-.07,0-.07a.05.05,0,0,0,0-.09s-.07,0-.06,0,0,0,0,0,0,0,0,0l0-.06s0,0,0,0,0,0-.06.08m-6.42,0a.05.05,0,0,0,0,0s0,.09,0,.09,0,0,0,0,0-.07-.07,0,.07.23.11.23,0,0,0-.06,0,0,0-.09.07-.1,0-.12-.07,0-.07,0m2,0s0,0,.06,0H35l0,0s-.06,0-.07,0m.28,0s0,0,.05,0,.06,0,.06,0-.08,0-.11,0m.14,0s0,0,.05,0,.06,0,.06,0-.08,0-.11,0m.31,0,0,0h.06c.05,0,.07,0,.07,0s0,0-.08,0m-.66.07s.09,0,.11,0,0,0,0,0l-.06,0s0,0,0,0m.18,0c-.05,0,0,0,0,0a0,0,0,0,0,0,0s0,0-.06,0m.11,0s0,0,0,0,.07,0,0,0a0,0,0,0,0,0,0m.14,0v0s.09,0,.09,0-.07,0-.09,0m.14,0s0,0,0,0a0,0,0,0,0,0,0s-.07,0-.09,0m4.18.08a.36.36,0,0,0-.12.09s0,0,.05,0,0,0,0,0,0,0,0,0,.08,0,.08,0,0,.07,0,.06,0,0,0,0a.12.12,0,0,1,0,.07c0,.07.06.06.07,0s0-.24-.13-.14m-4.82,0s0,0,0,0,.06,0,0,0,0,0,0,0,0,0,0,0m.15,0s0,0,0,0,0,0,0,0,0,0,0,0,0,0,0,0m.21,0a.05.05,0,0,0,.09,0s0,0,0,0-.05,0,0,0m.21,0s0,0,0,0,0,0,0,0,0,0,0,0,0,0,0,0m.13,0s0,0,.05,0l.06,0s0,0,0,0,0,0-.06,0m-.4,0a0,0,0,0,0,0,0s0,0,0,0,0-.05,0,0m.17,0a0,0,0,0,0,0,0s0,0,0,0,0,0,0,0,0,0,0,0m-.56,0s0,0,.06,0,.06,0,.06,0,0,0-.06,0-.06,0-.06,0m.16,0s0,0,0,0l.06,0s0,0-.05,0-.06,0-.06,0m.48,0s0,0,0,0,.06,0,0,0,0,0,0,0m.08,0s0,0,.05,0,0,0,0,0,0,0,0,0-.05,0-.05,0m.14,0s0,0,.06,0,.06,0,.06,0,0,0-.06,0-.06,0-.06,0m-.56,0s0,0,0,0,0,0,0,0a0,0,0,0,0,0,0m-.35,0s0,0,0,0,.06,0,.06,0-.09,0-.11,0m.14,0s0,0,0,0S35,75,35,75s-.09,0-.11,0m.73,0s0,0,0,0,0,0,0,0,0,0,0,0h-.06m.12,0s0,0,0,0,0,0,0,0,0,0,0,0,0,0,0,0M32.89,75l0,0,0,0s0,0,0,0,0,0,0,0m2.22,0s0,.07,0,.07,0,0,0-.07,0-.07,0-.07,0,0,0,.07m.3,0s0,.08,0,.08,0-.13,0-.14,0,0,0,.06m4.17,0,0,0s0,0,0,0,0,0,0,0,0,0,0,0M34.8,75s0,0,.05,0,.06,0,.06,0,0,0,0,0,0,0-.06,0M35,75s0,0,.06,0,.06,0,.06,0,0,0-.06,0S35,75,35,75m.54,0s0,0,.06,0,.06,0,.06,0,0,0-.06,0-.06,0-.06,0m.16,0s0,0,0,0,0,0,0,0,0,0,0,0,0,0,0,0m-.92.08s0,0,.06,0,.06,0,.06,0,0,0-.06,0-.06,0-.06,0m.14,0s0,0,.06,0,.06,0,.06,0,0,0-.06,0-.06,0-.06,0m.62,0s0,0,0,0,0,0,0,0,0,0,0,0,0,0,0,0m.08,0s0,0,.06,0,.06,0,.06,0,0,0-.06,0-.06,0-.06,0m.47,0v.09s0,0,0,0a.06.06,0,0,0-.06,0s0,0,0,0a.08.08,0,0,1,.06,0s0,0,.05,0,.06,0,.08,0,0-.07,0-.06,0,0,0,0,0-.13,0-.13,0,0,0,0m.43,0a.19.19,0,0,0,0,.11c0,.06,0,.06,0,0s-.07,0-.07,0,0,0,0,0a.08.08,0,0,1,.06,0s0,0,.05,0a.15.15,0,0,1,.08,0s0,0,0,0,0,0,0,0,0,0,0,0a.15.15,0,0,0,0-.09l0,0,0,0m-.43.32s0,.05.05,0,0,0,0,0l0,0m.43,0s0,0,.05,0,0,0,0,0,0,0,0,0m-2.16,0a6.71,6.71,0,0,0,0,.7c0,.77,0,.88.14,1.07l0,.08v-.92a5.52,5.52,0,0,0,0-.93s-.15,0-.16,0m.43,0s0,.48,0,1v1l.08,0c.15.08.14.17.13-1,0-.59,0-1.08,0-1.09s-.15,0-.18,0m.46,0a6.53,6.53,0,0,0,0,1.12v1.12h.2V75.47H35.2m1.06,0a.2.2,0,0,0,0,.09s0,0,0,0a.05.05,0,0,0-.05,0,0,0,0,0,0,0,0,.13.13,0,0,1,.07,0s0,0,.07,0,0,0,.06,0,0,0,0,0,0,0,0,0,0,0,0-.07,0-.13-.05-.07m-.63,1.13v1l0,0a.3.3,0,0,0,.1,0l0,0V76l-.06-.09a.75.75,0,0,1-.1-.2c0-.09,0-.06,0,.92m1.3-.95s0,0,0,0,0,0,0,0a.07.07,0,0,0-.06,0s.17,0,.19,0,.08,0,.14,0,.06.08,0,.1,0,0,0,.11,0,.09,0,.1,0,0,0,.13,0,.12.06.13a.1.1,0,1,1-.11,0s0,0,0-.12-.07-.09-.06-.13S37,76,37,76s-.05,0-.08,0-.14,0-.06,0a.09.09,0,0,1,0,.09c0,.05.1.2.13.16s.2.13.2.17-.1,0-.11,0,0,0-.11,0-.1,0-.11,0-.12,0-.16,0,0-.18,0-.19,0,0,0-.1,0-.1-.07,0,0,.08-.06,0-.07,0-.07,0a.05.05,0,0,0,0,0s0,.13,0,.2l0,.06,0,.06c.06.07.06.13,0,.15s0,.19,0,.21.09.12.06.18a.11.11,0,0,0,.1.14.17.17,0,0,1,.13.14s.15.12.19.08a.14.14,0,0,1,.17,0,.15.15,0,0,0,.09,0,.15.15,0,0,0,.08,0,.16.16,0,0,1,.18,0s.17,0,.18-.09.09-.13.13-.13a.12.12,0,0,0,.11-.13c0-.08,0-.18,0-.19s.05-.19,0-.21,0-.08,0-.14a.2.2,0,0,0,0-.08.15.15,0,0,0,0-.06.12.12,0,0,1,0-.11.11.11,0,0,1,0-.1c.06,0,0-.2,0-.2s0,0,0-.09,0-.09,0-.09,0,0,0,0-.11-.19-.18-.11a.15.15,0,0,1-.1,0s-.06,0-.06,0,0,0-.1,0-.11,0-.12,0,0,0-.06,0a.08.08,0,0,1-.07,0,.12.12,0,0,0-.08,0,.16.16,0,0,0-.09,0,.11.11,0,0,1-.07,0,.06.06,0,0,1-.06,0s-.13,0-.13,0m.72.06s0,0,0,0-.05,0-.05,0,0,0,.05,0l0,0m-1.41.06h.09s0,0,0,0-.07,0,0,0m1.25,0s.19,0,.21,0,0,0,.08,0h.07l-.11.12c-.07.08-.11.11-.13.11s-.17.1-.15.16-.09.18-.14.18,0-.22,0-.23,0,0,0-.1,0-.09,0-.11-.05,0,0-.1.14,0,.15,0m-1.23,0s0,0,0,0a0,0,0,0,0,0-.05s0,0,0,0m1.65.08s0,.07,0,.07,0,0,0,.1,0,.11,0,.12,0,.14,0,.19-.14,0-.16,0,0,0-.11,0-.1,0-.11,0-.1,0-.1,0,.16-.18.2-.17.14-.1.12-.16,0-.06.09-.14.11-.11.11,0m-.6.09s0,0,0,0,0,0,0,0,0,0,0,0a0,0,0,0,1,0,0m.66.09s0,.07,0,0,0-.08,0-.08,0,0,0,0m-1,0a.08.08,0,0,0,0,0s0,0,0,0h0s0,0,0,0,0,0,0,0h0m.64,0s-.06.07-.08.06,0-.08.05-.08,0,0,0,0m-1.56.63v.58l0-.06a.46.46,0,0,0,.07-.14.58.58,0,0,1,.05-.11,3.77,3.77,0,0,0,0-.82l-.11,0h-.07v.59m.58-.28s0,.06-.07,0a0,0,0,0,1,0-.07,0,0,0,0,1,0,0m.35,0s0,0,0,0-.08,0-.05,0,.09,0,.1,0m.65,0s0,0,0,0-.07,0,0,0,.09,0,.09,0m.33,0s0,.08-.06.05a0,0,0,0,1,0-.07l0,0m-1.13.09s0,0,.1,0,.1,0,.11,0,.11,0,.11,0a.44.44,0,0,1-.18.15c-.05,0-.15.1-.13.14s-.08.18-.14.17a.06.06,0,0,1,0-.11s0-.21,0-.21,0-.08,0-.12.17,0,.17,0m.64,0s0,0,.12,0,.1,0,.1,0,.11,0,.16,0,.05.12,0,.12-.07.18,0,.21,0,.11,0,.11-.15-.1-.13-.16-.09-.17-.14-.15-.17-.12-.17-.15.09,0,.1,0m-.24.19c0,.12,0,.14,0,.15s0,0,0,.1,0,.1,0,.11.06.21,0,.25-.11,0-.11,0-.16-.14-.19-.11-.09,0-.09-.09.11-.23.16-.2.14-.09.13-.14,0-.07,0-.12.1-.09.1.07m.15-.07s.06.08.05.11.09.17.14.15.15.11.16.2-.06.13-.1.09-.18.06-.18.1-.09.06-.13,0,0-.23,0-.24,0,0,0-.11,0-.09,0-.1,0,0,0-.15,0-.16.09-.07m-.76.12s0,.06-.06,0v0s.06,0,.06,0m1.33,0s0,.07,0,0,0-.08,0-.08,0,0,0,.05m-.95,0s0,.09-.07.07,0,0,0,0,0,0,.07,0m.59.07s0,0,0,0,0-.08,0,0,0,0,0,.06M37.3,77s0,0,0,0a.06.06,0,0,1,0-.06s0,0,0,0a0,0,0,0,1,0,.05m1.6.1s0,0,.36,0a1.22,1.22,0,0,0,.35,0s0,0,.07,0l0,0H38.8v.19h.93l.08,0h.06v.25c0,.28,0,.27-.15.22a.5.5,0,0,0-.34,0,.28.28,0,0,1-.22,0,.62.62,0,0,0-.38,0c-.17.06-.16.06-.16-.22v-.25h.15v-.12c0-.11,0-.12,0-.14s.05,0,.05,0a0,0,0,0,1,0,0v0m-6,.17v.1h.9v-.2h-.9v.1m4.14,0s0,0,0,0a.06.06,0,0,1-.08,0s.05,0,.08,0m.66,0a.05.05,0,0,1-.09,0s0,0,0,0,.08,0,.08,0" transform="translate(0 0)"/><path id="path1" class="cls-3" d="M26.29,66.72v2.49h30v-5H26.29v2.5m0,15v2.5h30v-5H26.29v2.49" transform="translate(0 0)"/><path id="path2" class="cls-4" d="M36.15,70.78c-.09.08-.08.12,0,.11s.08,0,.08-.08,0-.1-.09,0m.16,0c0,.08,0,.08.07.08s.07,0,.08,0v0s-.11-.16-.14-.16a.38.38,0,0,0,0,.08m-.2.17s0,0,0,0,0,0,0,0,0,0,0,0,0,0-.07,0,0,0,0,0a.08.08,0,0,0,0,0s0,0,0,0,0,0,0,0,0,0,0,0,0,0,0,0,.05.06,0,0,0,0,0,0,0,0,0,.15,0,.13,0,.14,0,0,0,0,0,0,0,.09,0,.08,0,.07a1.27,1.27,0,0,0,0-.24,2,2,0,0,1,0-.29l0-.07h.19v0a.79.79,0,0,1,.06.32c0,.1,0,.12,0,.1s0,0,0,0,0-.26.06-.29.06,0,0,0l-.07,0s0,0-.06,0,0,0,0,0,0,0,0,0,0,0,0,0a.05.05,0,0,0,0,0s0,0,0,0-.06,0-.06,0,0,0,0,0,0,0,0,0,0,0,0,0,0,0-.16,0-.18,0-.16,0m-.66.07s0,.06,0,.06,0,0,0,0,0,0,0,0,0,0,0,0,0,0,0,0,0,0,0,0,0,0,0,0m1.61,0a0,0,0,0,0,0,0s0,0,0,0,0,0,0,0,.11,0,.11-.07,0,0,0,0l0,0a0,0,0,0,1,0-.06s0,0,0,0a0,0,0,0,0,0,0m-1.46,0s0,0,0,0h.2c.06,0,.11,0,.1,0a.66.66,0,0,0-.28,0m1.19,0H37s0,0,0,0,0,0,0,0h-.15m-.58.06s0,.08-.05.27a.86.86,0,0,1,0,.26s0,0,0,.08,0,.06,0,.07l-.07,0a.28.28,0,0,0-.06-.06.28.28,0,0,0,.05.08s0,.06,0,.07,0,0,0,0,0,0,0,0a0,0,0,0,1,0,0s0,0,0,0,.06-.1.09,0,0,.07.06.06,0,0,0,.12-.16,0-.2,0l0-.05v.11l-.07,0C36,72,36,72,36,72s0,0-.06.06-.09.06,0,.09.08,0,0,0,0-.06,0-.08.06,0,.06,0,0,0,0,0l.09,0a.09.09,0,0,1,0,.16l0,0h0c.07,0,.08,0,.08,0s-.3.24-.34.08a.05.05,0,0,0-.05,0s0,0,0,0,0,0,0,0,0,0,0,0-.1,0-.06.1-.07.16-.16.16-.06,0,0,0a.19.19,0,0,0,.19-.09l0-.06,0,.06a.22.22,0,0,0,.3,0c.07-.06.08-.17,0-.21s0-.11.06-.11.09.07,0,.12l-.05,0h.05a.21.21,0,0,1,.13,0c.09,0,.13,0,.13,0a.08.08,0,0,1,0-.05c.08,0,.08-.08,0-.11s-.06,0-.06-.06,0,0-.15,0,0,0,0-.1,0-.07,0-.07,0,0,0-.08l.05-.06s0,0-.06,0l-.07,0s0,0,0-.07,0-.05,0-.08a1.12,1.12,0,0,1,0-.26c0-.23,0-.31-.1-.31l-.06,0m1,0s0,0-.05,0,0,0,0,0a.38.38,0,0,1,.08.55s0,0,0,.07,0,0,0,0-.06-.08,0-.14.08-.15.06-.17,0,0,0,0a.22.22,0,0,1-.06.1c-.07.08-.07.08,0,.16s0,.14,0,.13,0,0,0,.07v.08l-.07,0c-.07,0-.08,0-.1,0a.05.05,0,0,1,0,0c-.06,0-.07,0,0,.08a.1.1,0,0,1,0,.07c0,.07.19,0,.2,0s.07-.1.11-.07a.08.08,0,0,1,0,.13s0,0,0,.09a.21.21,0,0,0,.31.16l0,0,0,.06s0,.06.09.06.06,0,0,0-.1-.09-.05-.14,0-.1,0-.1a.08.08,0,0,0-.07.09c0,.1-.18.12-.27,0s-.06-.22.06-.14.11.05.11,0,0,0,.07,0h.07l0-.06a.15.15,0,0,1-.05-.08s0,0-.07,0-.11,0-.07-.06.05-.08,0-.08,0,0-.05-.06,0-.08,0-.08l0,0h0c-.05,0-.07,0,0-.1s0,0,0,0,0,0,0,0a0,0,0,0,0,0,0s0,0,0,0,.05,0,0,0,0,0,0,0,0,0,0,0a0,0,0,0,1,0,0s.06,0,0-.06,0,0,0,0,0,0,0,0a0,0,0,0,1,0,.06s0-.12,0-.16.08.07.09.1,0,0,0,0a.18.18,0,0,0-.06-.08c-.06-.06-.08-.17,0-.2s.06,0,0,.05,0,0,0,.07,0,0,0,0,0,0,.19,0h0c-.19,0-.23-.07,0-.07s.21,0,.21-.06,0,0,0,0-.06,0-.18,0l-.21,0s0,0,0,0,0,0,0,0,0,0,0,0a0,0,0,0,1,.06,0h0s-.09,0-.09,0,0,0-.05,0a.07.07,0,0,1,0-.07s0,0,0,0,0,0,0,0m-.85,0c.07.08,0,.38-.06.35s0,0,0,0,.07,0,.09,0,0,0,0,0,0,0,0,0,0,0,0,0,0,0,0,.06,0,.07,0,.09,0,0,0,0,0,0,0,0,0,0,0,0-.05,0-.08,0,0,0,0,0,0,0,0,0,0,0,0,0a.54.54,0,0,1,0-.23.32.32,0,0,0,0-.15c0-.19.05-.28.13-.19m-1,0s-.07.07-.07,0-.08,0-.09,0h0s.07,0,.07,0,0,0,0,0,0,0,0,0-.1,0-.14,0,0,0,0,0,0,0-.13,0-.13,0-.11,0l.16,0c.19,0,.15.06,0,.07h0c.16,0,.18,0,.16,0s0-.06,0,0,0,0,0,.06,0,0,0,0,0,0,0,0,0,0,0,0-.06.1-.09,0l0,0a.17.17,0,0,0,0,.05s0,0,0,0a.07.07,0,0,0,0,.06s0,0,0,0,0,0,0,0,0,0,0,0,0,0,0,0,0,0,0,0,0,.06,0,.09,0,0,0,0a.08.08,0,0,1,0,0s0,0,0,0,0,.06,0,.08.1.06.09.11-.07,0-.07,0,0-.09,0-.08,0,0,0,0,0,0,0,0,0,0,0,0,0,0,0,.07a.07.07,0,0,0,0,.05s0,0,0,0,0,0,0,.07,0,0,0,0h0l0,.07c0,.06,0,.08,0,.09s0,0,0,0,.06.11,0,.14-.06,0-.06,0l-.07,0-.06,0a.69.69,0,0,1,.15-.13h0s-.06,0-.06,0a.12.12,0,0,1-.05.06c-.06,0-.06.07,0,.08l.07,0s0,0,.11,0,.17,0,.06.14-.23.08-.27,0,0-.07-.06-.07,0,0,0,.14-.08.12-.2,0l-.08,0,.06,0c.1.09.25.08.25,0s.05,0,.08,0,.18,0,.25,0,.1-.2,0-.23,0-.09,0-.13a.06.06,0,0,1,.07,0s0,0,0,0,0,0,0,0,0,0,0,0l0,0s-.05,0,0-.06,0-.08,0-.08-.07,0,0-.12,0-.08,0-.16a.22.22,0,0,1-.06-.1s0,0,0,0,0,.11.06.17,0,.07,0,.1,0,0,0,0a.11.11,0,0,0,0-.06.38.38,0,0,1,.07-.56s0,0,0,0a0,0,0,0,1-.05,0s0,0,0,0m.27,0h.07s0,0,0,0,0,0,0,0m.22,0h.07s0,0,0,0,0,0,0,0m.8,0h.07s0,0,0,0-.06,0,0,0m-1.86,0s0,0,0,0,.06,0,.08,0h0s-.09,0-.09,0m.69,0a.35.35,0,0,0-.19.23s0,0,0,0a.37.37,0,0,1,.23-.21s0,0,0,0l-.09,0m.76,0s.07.05.09,0,0,0,0,0,0,0,0,0,0,0,0,0,0,0,0,0m1.46,0a.06.06,0,0,0,0,0s0,0,0,0a.09.09,0,0,1,.06,0s0,0,0,0h0m-3,0s0,.07,0,.07,0,0,0,0,0-.06,0-.07,0,0,0,0a.05.05,0,0,0,0,0m2.44,0a.36.36,0,0,1,.17.18s0,.06,0,0a.48.48,0,0,0-.2-.22s0,0,0,0m.75,0c0,.05,0,.09.06.05s0,0,0,0,0,0,0,0,0,0,0,0,0,0,0,0,0,0-.07,0m-1.59.08a0,0,0,0,0,0,.05s.07,0,.07,0,0,0,0,0,0,0,0,0,0,0,0,0,0,0,0,0,0,0,0,0m-1.5,0h.07s0,0,0,0-.05,0,0,0m3,0h.07s0,0,0,0-.06,0,0,0m-3.28,0c0,.06-.06.09-.09.05s0,0,0,0,0,0,0,0,0,0,0,0,0,0,0,0,0,0,0,0,0,0,0,0a.25.25,0,0,1,0,.1,0,0,0,0,0,0,0s0,0,0,.1a.54.54,0,0,0,0,.15s0,.12,0,.12,0,0,0,0,0,0,0,0,0,0,0,0,.06.06,0,.08a.14.14,0,0,1-.07,0s-.06,0,0,0a.05.05,0,0,1,0,.05s0,0,0,0,.11,0,.12,0,0,0,0,0h-.06s0,0,0,0,0,0,0,0,0,0,.07.06a.23.23,0,0,1,.12.06.12.12,0,0,0,.09,0c.06,0,.09.09,0,.09s0,0,0,0l.12.09a.33.33,0,0,0,.13.09s.05,0,.05,0a.05.05,0,0,0,0,0l.06,0s0,0,0,.05,0,0,0,0S35,73,35,73s0,.11,0,.11,0,0,0,0,0-.08.43-.15a6.35,6.35,0,0,1,1.63,0,1.45,1.45,0,0,1,.46.12s0,0,0,0a.09.09,0,0,0-.09-.08l-.13,0a5.5,5.5,0,0,0-2.18,0c-.12,0-.12,0-.12,0a.08.08,0,0,1,0-.06c.06,0,0-.06,0-.06s0,0,0,0,0,.06,0,.06,0,0,0-.07,0,0,0,0,.23-.09.72-.15a6.07,6.07,0,0,1,1.81.12c.08,0,.13,0,.14,0s0,0,0,0l-.51-.1a6.48,6.48,0,0,0-1.76,0l-.27.06-.22,0s0,0,0,0,0,0,.3-.1a.46.46,0,0,0,.16,0s0,0,.08,0h0c-.06,0-.07,0-.05,0s.07,0,.12,0,0,0,.42,0a4.57,4.57,0,0,1,.74,0c.35,0,.36,0,.41,0l.06,0s.11.09.09.11h0l.23.05a.79.79,0,0,0,.27,0c.09,0,.08,0,0,0s-.09,0-.13,0a.15.15,0,0,0-.15,0,.24.24,0,0,1-.25-.07c-.06-.06-.06-.06-.11,0a.31.31,0,0,1-.32,0s0,0-.09,0,0,0,0,0,.11,0,.11,0,0,0-.07,0h-.14a.33.33,0,0,1-.24-.08s0,0-.09,0-.06,0,0,.06a.11.11,0,0,0,0,0l.05,0,.06,0,0,0h-.23c-.19,0-.23,0-.27,0s0,0-.1,0a.31.31,0,0,1-.31,0l-.07,0-.07.07c-.07.07-.07.07-.2.07s-.14,0-.18,0-.23,0-.33-.08,0,0,.09-.08a.14.14,0,0,0,.1,0s0-.05,0-.07,0-.07,0-.07a.08.08,0,0,1-.07,0s0,0-.08,0-.11,0-.11,0,0-.06-.1,0l-.06,0s0,0,0-.14,0,0,0-.08l0,0s0,0,0,0,0,0,0,.07,0,.07,0,.13-.09.08,0,0,0-.07,0-.14a.37.37,0,0,1,.21-.52s.07,0,.05,0a.06.06,0,0,0-.05,0s-.06,0-.07,0,0,0,0,0m3.49,0s0,0,0,0c.21,0,.37.35.26.54s-.05.08,0,.14,0,.08,0,0,0-.06,0-.11a.13.13,0,0,0,0-.08s0,0,0,0,0,0,0,0,0,0,0,0a.15.15,0,0,1,0,.06s0,0,0,.1,0,.13,0,.11-.11.06-.11.11,0,0-.08,0-.09,0-.1,0,0,0-.06,0-.1,0,0,.08a.09.09,0,0,1,0,.06c0,.06.17.08.22,0s.11-.07.11,0,0,0,0,0a.16.16,0,0,1,.15-.12c.06,0,.07,0,.07,0a.07.07,0,0,1,0-.06s0,0,0,0a.19.19,0,0,1,0-.07s0,0,0,0-.13,0-.08,0,0,0,0,0,0,0,0,0-.06-.06-.07,0,0,0,0,0,0-.06,0-.12a1.55,1.55,0,0,0,0-.15s0-.1,0-.1a0,0,0,0,0,0,0,.25.25,0,0,1,0-.1s0,0,0,0,0,0,0,0,0,0,0,0,0,0,0,0,0,0,0,0,0,0,0,0-.12,0-.1,0,0,0,0,0,0,0,0,0,0,0-.07,0a0,0,0,0,0-.06,0m-3.3,0s0,0,0,0l.09,0s-.09,0-.13,0m3.19,0c.06,0,.12,0,.07,0l-.08,0s0,0,0,0m-3.36.1a.36.36,0,0,0-.14.27s0,0,0,0a.29.29,0,0,1,.14-.22c.06,0,.11-.09.09-.09l-.11.08M38,71.46c.08.06.18.16.18.19s0,0,0,0-.16-.23-.23-.23,0,0,0,0m.2.3s0,.06,0,0v-.08s0,0,0,0m-1.85,0c0,.05,0,.06,0,0s0,0,0,0,0,0,0,0,.11-.06.13,0m-2.15.1c0,.06,0,.11,0,.1a.5.5,0,0,0,0-.21.63.63,0,0,0,0,.11m4.14,0c0,.07,0,.09,0,.06v-.12s0,0,0,.06m-3,.12s0,.05.06,0,0,0,0,0-.15.15-.2,0,0-.06,0-.06,0,0,0,0,0-.1.08,0m1.93,0s0,.06,0,.06,0,0,0,.06,0,.06-.07,0h-.08s0,0,0-.07,0-.07,0-.06a.09.09,0,0,0,.06,0c0-.07.06-.06.08,0m-.66.15c.07,0,.05,0,0,.08s-.06,0-.05,0,0,0,0,0-.2-.13-.07-.19.08,0,.11,0a.18.18,0,0,0,.07.05m-1,0s0,0,.06,0,.09,0,0,.07,0,0,0,.05-.12,0-.14,0v0l0,0s0,0,0,0,0,.1.06.15l.07,0s0,0,0,0a.32.32,0,0,1-.09-.16s0,0,.11,0,.11,0,.11,0a.13.13,0,0,1,0-.07c.06,0,.05,0,0-.08s-.07,0-.06,0,0,0,0,0,0,0,0,0m1.52.05a.1.1,0,0,1-.08.14s-.06,0-.06,0,0,0-.06-.05,0-.06,0-.07,0,0,0,0,.1,0,.12,0m1.26,0s0,0-.05,0,0,0,0,0l0,0s.05,0,.05,0m-.88.07c.06.06.06.08,0,.08l-.06,0s0,0-.07,0-.06,0,0,0,0,0,0-.06,0,0,.09,0l.09.06m-3,0s0,0,0,0,.08.06.08.11,0,.08-.12,0a.18.18,0,0,0-.11,0s0,0,0,0,.09-.08.16,0m3.83,0c0,.05,0,.08,0,.08a.12.12,0,0,0-.1,0q-.09.09-.12,0c0-.06,0-.14.06-.12h.06a.12.12,0,0,1,.13,0m-2.29,0s.05,0,.1,0,0,0,0,0l0,0a0,0,0,0,0,0,0s0,0,0,0m.71,0c0,.17-.26.2-.34,0s0,0,0,0,.22.2.34.1l.06-.06.06.07a.22.22,0,0,0,.3,0s.11-.17.08-.17,0,0,0,0a.19.19,0,0,1-.31.11s-.06-.07-.06-.09,0,0,0,0,0,0-.05,0,0,0,0,0m-1.87,0h.07l-.05,0s0,0,0,.07,0,0-.08,0-.18-.07-.07-.14.07,0,.08,0l.09,0m3.09,0c.07,0,.1.08.06.12s-.19,0-.19,0a.1.1,0,0,0-.05-.07l0,0h.07l.08,0s0,0,.07,0m-2.9.12s0,.09,0,0a.14.14,0,0,1,0-.06s0,0,.07,0m2.63,0s0,.07-.07.07,0-.07,0-.09.07,0,.07,0m-1.75.08s0,0,0,0-.06,0,0,0a.11.11,0,0,1,.08,0m2.07,0a.21.21,0,0,1-.07.08s-.05.06,0,.06l.07-.05a.25.25,0,0,1,.08-.07s0,0,0,0,0,0,0,0m-.14,0-.05,0s.15-.1.12-.1l-.07,0m-.73,0a.11.11,0,0,0,.08,0h0s-.06,0,0,0m-3.8,0a.19.19,0,0,0,0,.07s0,0,0,.07,0,0,0,0,0,0,0,0,0,0,0,0,0,0,0,0,0,0,0,0,0,0,0,0a.11.11,0,0,1-.06,0s0,0,0,0,0,0,0,0,0,0-.06,0h0s0,0,0-.05,0,0,0,0a.22.22,0,0,1,.1.07c.08.08.08.06,0,0s-.08-.07-.14,0,0,0,0,0,.05.06,0,.11,0,.07,0,.07,0,0,0,0,0,0,0,0,0,0,0,0,0,0,0,0,0,0,0,0,0,0,0,0-.08,0,0,.08a.3.3,0,0,1,.08.09s0,0,0,0,0,0,0,0-.05,0-.1,0h-.08v.12q0,.12,0,.12s.1.1.08.12,0,.1,0,.1a2.33,2.33,0,0,1,0,.83c-.1,0,0,0,.11,0s.13,0,.05,0H33v-.78h.21c.26,0,.24,0,.23.4v.31h-.06s0,0,.08,0,.32,0,.17,0h-.1v-.33c0-.35,0-.4.08-.36s0,0,0,0,0,0,0,0a0,0,0,0,0,0-.09s0,0,0,0a.09.09,0,0,0,0,0s0,0,0,0,0,0,0,0h-.88v-.2h.45a1.53,1.53,0,0,0,.36,0,.14.14,0,0,1-.11,0s0,0,0,0,0,0,0,0a.29.29,0,0,1,.08-.11.24.24,0,0,0,.08-.13s0,0,0,0a.06.06,0,0,1-.06.05s0,0,0,0,0,0-.07,0a.09.09,0,0,1,.08-.13s0,0,0,0-.09,0-.08,0a.9.9,0,0,1-.16.18v0s0,0,0,0,0,0,0,0,0-.38-.06-.3m1.78,0s0,0,0,0-.05,0,0,0,0,0,.06,0m2.49,0a0,0,0,0,1,0,0s-.06,0,0,0,.07,0,.07,0m1.69,0s0,0,0,0l0,0s0,.05,0,.05,0,0,0,0,0,0,0,0,0,0,0,0a.06.06,0,0,0,0,.05,0,0,0,0,1,0,0s0,0,0,.06,0,0,0,0-.05,0-.05,0,0,0,0,0,0,0-.08,0,0,0,0,0,.06,0,0,0a.07.07,0,0,1,0,0s0,0,0,0,0,0,0,.06S39,73,39,73s0,0,0,0l0,0s0,0,0,0,0,0-.05,0,0,0,0,0,0,0,0,0h0s-.05,0,0-.07,0,0,0,0,0,0,0,0,0,0,0,0,0,.12.07.15,0,0,0,.06a.13.13,0,0,0,0,.07s0,0-.13,0a2.53,2.53,0,0,0,.39,0h.44v.2h-.87s0,0,0,0,.12.09.09.13l0,0s.17,0,.36,0,.36,0,.36,0a1.29,1.29,0,0,1-.35,0c-.24,0-.35,0-.33,0l.25,0h.21v.74h-.06s0,0,.1,0l.21,0s0,0,0,0a2,2,0,0,1,0-.84s0,0,0-.07a.09.09,0,0,1,.06-.14s0,0,0-.12v-.12h-.08c-.13,0-.13-.06,0-.2a.28.28,0,0,0,.06-.1s-.05-.09-.07-.06,0,0,0,0,0,0,0,0,0,0,0,0a0,0,0,0,0,0,0s0,0,0,0,0-.05,0-.05a.07.07,0,0,1,0,0s0,0,0,0,.05,0,0,0-.06,0-.06,0a.17.17,0,0,1,0,.07s0,0,0,0,0,0,0,0,0,0-.06,0,0,0,0,0a0,0,0,0,1,0,0s0,0,0,0,0,0,0-.05a0,0,0,0,1,0,0,.28.28,0,0,0,0-.18.12.12,0,0,1,0-.07s0,0,0,0m-3.34,0s0,0,0,0,0,0,0,0,0,0,0,0a0,0,0,0,0,0,0,0,0,0,0,0-.08,0m.2,0s0,.07.18.07.21,0,.18-.08-.35,0-.36,0m.48,0s0,0,0,0,0,0,0,0,0,0,0,0,0,0,0,0,0,0,0,0,0-.08,0-.08,0,0,0,0m-1.06,0s-.05,0-.05.06.23.06.28,0,0-.09-.23-.07m.92,0s0,0-.16,0-.16,0-.17,0,0,0,.17,0,.17,0,.16,0m.36,0c0,.05,0,.07.14.08s.19,0,.13-.07-.26,0-.27,0m-3.3.06s0,0,0,.08l-.06.06.07-.06c.07-.06.08-.09,0-.09h0m4.07,0c0,.05,0,.07,0,.05s-.07,0,0-.06,0,0,0,0-.07,0,0,.08.14,0,.12,0a.11.11,0,0,1,0,0,0,0,0,0,0,0,0s0,0,0,0m1.69,0s0,0,0,0a.06.06,0,0,1,0,0s0,0,0,0m-3.42.08-.34,0-.21,0c-.31,0-.28.06.33.16.15,0,.36,0,.3,0h-.09c-.06,0-.07-.18,0-.2a6,6,0,0,1,1.5.1s.15,0,.15,0a1.72,1.72,0,0,0-.56-.12,7.43,7.43,0,0,0-1.07,0m-.07.14c0,.08,0,.09,0,.08s-.06-.15,0-.17h0s0,0,0,.1m-.21,0v0s0-.07,0,0a.11.11,0,0,1,0,.08m.07,0s0,.07,0,.07,0,0,0-.07,0-.07,0-.07,0,0,0,.07m0,0V73a.14.14,0,0,1,0,.09m-.23,0s0,0,0,0,0,0,0,0,0,0,0,0a.08.08,0,0,1,0,0m.1,0a.11.11,0,0,1,0,.06s0,0,0-.05,0-.06,0-.06,0,0,0,0m1.92,0s-.05,0,0,0l.08,0s0,0-.07,0m-4.2,0s0,0,0,0-.05,0-.05,0l.05,0s0,0,0,0m.2,0s0,0-.05,0-.06,0,0,0,.05,0,.05,0m1.66,0h.1s0,0,0,0-.16,0-.09,0m1.87,0-.12,0H37c.13,0,.28,0,.2,0l-.18,0m-1,0s0,0-.28,0H34.27v.66a2.82,2.82,0,0,1,0,.66s0,0,0,0,0,.06,0,.2v.19l-.05,0h-.06l.05,0,0,0v.88c0,1.21,0,1.34.28,1.61a3.11,3.11,0,0,0,2.15.51,3.73,3.73,0,0,0,.92-.24,1.15,1.15,0,0,0,.57-.46c.12-.2.12-.27.13-1.35v-1l0,0,0,0h-.09v-.84c0-.46,0-.85,0-.85l-1.15,0a6.07,6.07,0,0,1-1.16,0s0,0,0,0m.68,0h.13s0,0-.06,0-.1,0-.07,0m-3.19,0a.51.51,0,0,1-.3,0c-.05,0,0,0,.12,0a.4.4,0,0,1,.18,0m6,0a.54.54,0,0,1-.31,0s0,0,.14,0,.17,0,.17,0M36.27,74v.73h-.06s0,0,.07,0a.72.72,0,0,1,.65.76c0,.09,0,.1,0,0v-.06h1.32v.66c0,.92,0,1-.29,1.31a1,1,0,0,1-1.65-.39,1.2,1.2,0,0,1-.05-.51v-.35h.07s0,0,0,0a.68.68,0,0,1-.66-.67c0-.09,0-.15,0-.12s0,.05,0,.05,0,.41,0,1.13c0,1.24,0,1.12-.13,1.15h-.05V75.44h-.28v1.14c0,1.09,0,1.14,0,1.13l-.09,0H35V75.44H34.7v1c0,.56,0,1,0,1s-.06,0-.11-.07l-.08-.08V75.44h-.23V73.23h2V74m2,.37v1.1H37v-.1a.71.71,0,0,0-.53-.62l-.11,0V73.25h2v1.1m-.87-.92a.07.07,0,0,0,0,.07s.09.06.07.08,0,0,0,0,0,0,0,0-.1,0-.13,0a.15.15,0,0,1-.09,0c-.05,0-.06,0-.06.06s0,.07-.06,0-.14-.06-.16,0,.14.15.19.15,0,0,0,0,0,0,0,0,0,.07-.11.07-.35-.17-.27-.21,0-.08,0-.12,0,0-.06,0,0,.06-.07,0-.12,0-.13,0,0,0,0,0h0s0,0,0,.06,0,0,0,0-.05.09,0,.09.09,0,.08,0,0,.06,0,.06,0,0,0,0,0,0,0,0c.18.07.19.1.07.16s-.08,0-.1,0a.12.12,0,0,0-.15,0s0,0,0,0,.05.06,0,.06,0,0,0,0,0,0,0,0,.06,0,.08.06.07.08.07,0,0-.1.06-.12h.06a0,0,0,0,0,0,0s0,0,0,0a.15.15,0,0,0-.17,0s-.06,0,0,0,0,0,0,0,0,0,0,0a0,0,0,0,1,0,0s0,0,0,0,0,0,0,0,0,0,0,0,0,0,.05,0,.16,0,.23-.11.09-.07.09,0,0,0,.11,0,0,0,0,0-.15.13-.2.12-.05,0,0,.06,0,0,.08,0l.06,0,0,0a.29.29,0,0,0,.11.11l.09.06h-.1a.15.15,0,0,0-.11.25c.05,0,.05.06,0,.06a.12.12,0,0,1-.07,0c0-.06-.15-.08-.15,0s0,0,0,0,0,0,0,0a.1.1,0,0,1,0,0s-.1,0-.1.06,0,0,.11,0,0,0,0,.06S37,75,37,75a0,0,0,0,0,0,0s.07-.1.17-.09h.1v-.07a.34.34,0,0,0,0-.11s0,0,0,0,0,0,.06.06.06.15.14.14.07,0,0,.07-.11,0-.11.08,0,0,0,0a.12.12,0,0,1,.07,0h.06s0,0,0,0,0,0,0,0,.07-.06,0-.12,0,0-.09,0-.12-.1-.05-.2,0-.13-.14-.2a.49.49,0,0,1-.13-.1l0-.06.08-.06c.08-.06.09-.06.1,0s0,0,.06,0,0,0,.07.06c.11.35.42.3.36,0v-.09l0,.07c.08.18,0,.31-.11.34a.15.15,0,0,0,0,.26l.06.06,0,.08a.34.34,0,0,0,0,.12.12.12,0,0,1,0,.07s0,0,0,0-.13,0-.14,0,0,.09,0,.07.07,0,.11,0,.08,0,.06,0a0,0,0,0,1,0,0,.06.06,0,0,0,0-.07s0-.06,0-.13.06-.15,0-.18-.09-.17,0-.23.16-.15.1-.34-.06-.29,0-.33.14-.21.11-.22,0,0,0-.07,0-.1-.05,0-.06,0-.09,0,0,0,0,0a.38.38,0,0,1,0,.1,1.09,1.09,0,0,0,0,.51c.11.31-.06.41-.26.15,0,0-.06-.15,0-.14s0,0,0,0,0-.06,0-.05,0,0,0,0,0,0,0,0,0,0,0-.09,0,0,0,0,0-.2,0-.25,0,0,0-.07,0,0,0,0a.09.09,0,0,0,0,0,0,0,0,0,1,0,0s0,0,.06,0,.07,0,0-.06a.06.06,0,0,1,0,0,0,0,0,0,0,0,0,0,0,0,0,1,0,0s0,0,0,0,0,0,0,0a0,0,0,0,0-.07,0s0,0-.06,0l0,0v.06m-2.26.14s0,.07,0,.07,0,0,0,0,0,0,.12,0,.13,0,.12,0a.2.2,0,0,1-.11,0H35.2v.15c0,.16,0,.16-.05.16s-.09-.06,0-.08,0,0,0-.08v-.07h-.3v.06s0,.08,0,.09,0,.08,0,.09h-.07v.14c0,.13,0,.14,0,.15s0,0,0,.29v.28h-.13v.3h.79c.16,0,.17,0,.17,0s0,0,0-.07a.67.67,0,0,1,.27-.3l.06,0-.11,0s-.07,0-.09,0h-.14v-.29c0-.26,0-.28,0-.29s0,0,0-.15V74h-.07c-.06,0-.09-.07,0-.09s0,0,0-.08v-.07h-.28v.07a.15.15,0,0,0,0,.1s0,.07,0,.07-.08-.29,0-.32,0,0,0-.07v-.07h-.3v.07m-1.65,0a2.16,2.16,0,0,1-.36,0h.36m1.93,0s-.06,0-.13,0-.13,0-.13,0,.06,0,.13,0,.13,0,.13,0m4,0a2,2,0,0,1-.35,0h.35m-1.93.11c.07.06.12.23.06.19s0,0,0,.08a.08.08,0,0,1,0,.07s0,0,0,0,0,0,0,0,0,0,0,0,0,.07,0,0,0,0-.05,0,0,0,0,0,0,0,0,0-.07,0-.05,0,0,0-.06,0-.1,0-.05-.09,0,0-.06,0h0c.09,0,.15-.06.14-.09l0-.06c.06,0,.06-.11,0-.14a.07.07,0,0,1,0-.05s.1,0,.13,0,.08,0,0,0,0,0,.1,0m-3.92,0a1,1,0,0,1-.3,0,1.11,1.11,0,0,1-.3,0,1.11,1.11,0,0,1,.3,0,1,1,0,0,1,.3,0m4.37,0s0,.06,0,.07,0,0,0,.09-.13.1-.08-.08,0-.09.05-.08,0,0,.06,0,.06,0,0,0m1.6,0a1,1,0,0,1-.3,0,1.11,1.11,0,0,1-.3,0,1.11,1.11,0,0,1,.3,0,1,1,0,0,1,.3,0m-2.44.08c.07,0,.09.08,0,.08s-.14-.07-.14-.1,0,0,.11,0m-3.47,0a3.07,3.07,0,0,1-.7,0s.13,0,.35,0,.35,0,.35,0m3.12,0c0,.06,0,.1.12.15s.08,0,.08.09,0,0,0,0,.11,0,0,.08-.07,0-.11,0l-.07,0a0,0,0,0,1,0,0s-.13-.18-.16-.17a0,0,0,0,1,0,0s0,0,0,0,0,0,0,0,0-.07,0,0,0,0,0,0,0,0,0,0m-1.84,0s0,0,0,0,0,0,.05,0a0,0,0,0,0,.06,0s0,0,0,0-.22,0-.23,0,0,0,0,0m.62,0s0,0,0,0,.07,0,.07,0a0,0,0,0,1,0,0s0,0,0,0,0,0-.12,0-.12,0-.12,0,0,0,0,0,0,0,.06,0m-2.06.35c0,.22,0,.35,0,.35a3.07,3.07,0,0,1,0-.7s0,.13,0,.35m1.84-.33s0,0,0,0-.05,0-.05,0,0,0,.05,0,0,0,0,0m4.13.36c0,.29,0,.38,0,.37a3.15,3.15,0,0,1,0-.71c0-.13.05,0,.05.34m.1,0c0,.36,0,.39,0,.38a1.54,1.54,0,0,1,0-.77s0,0,0,.39m-.63,0c0,.31,0,.35,0,.35s.1,0,.22,0h.14l-.15,0-.15,0V74.1m-3.87-.28a.28.28,0,0,1-.13,0s0,0,.06,0h.07m.57,0a.28.28,0,0,1-.13,0h.07c.07,0,.1,0,.06,0m-.3.1a.08.08,0,0,1-.07,0s0,0,0,0,.05,0,0,0m-.44.07s0,0,0,0,0,0,0,0,0,0,0,0l0,0m.18.06c0,.08-.1.12-.13,0s0-.13.06-.13.07,0,.07.08m.11-.06s0,0,0,0,0,0,0,0l0,0,0,0m.17.06c0,.07,0,.08-.06.08a.09.09,0,0,1-.07-.13c0-.07.12,0,.13,0m.11-.06s0,0,0,0-.05,0,0,0,0,0,.07,0m.18,0c0,.06,0,.15-.08.14s-.09-.06-.06-.12.12,0,.14,0m.12,0s0,0,0,0,0,0,0,0l0,0,0,0m-.86.15s0,0,0,0,0,0,0,0,0,0,0,0,0,0,0,0m.29,0s-.07,0-.09,0,0,0,0,0,0,0,0,0m.28,0s-.07,0-.09,0,0,0,0,0,0,0,0,0m.29,0s0,0-.08,0,0,0,0,0l0,0m-.77.08s0,0-.06,0-.06,0-.06,0l.06,0,.06,0m.12,0s0,0,0,0,0,0,0,0,0,0,0,0,0,0,0,0m.16,0s0,0-.06,0-.06,0-.06,0l.06,0,.06,0m.14,0s0,0-.06,0-.06,0-.05,0l.06,0s0,0,0,0m.14,0s0,0,0,0,0,0,0,0,0,0,0,0,0,0,0,0m.14,0s0,0-.06,0-.06,0-.05,0l.06,0s0,0,0,0m-.62.08-.06,0s-.06,0-.06,0,0,0,.06,0,.06,0,.06,0m.12,0s0,0,0,0,0,0,0,0,0,0,0,0,0,0,0,0m.15,0s0,0-.05,0l-.06,0s0,0,.05,0a.08.08,0,0,1,.06,0m.13,0s0,0,0,0-.05,0-.05,0,0,0,.05,0,0,0,0,0m.14,0s0,0,0,0-.05,0-.05,0,0,0,.05,0,0,0,0,0m-.67.08s-.07,0-.07,0,0,0,.05,0,0,0,0,0m.33,0s0,0-.06,0-.08,0-.05,0,.1,0,.11,0m.14,0s0,0,0,0-.08,0-.06,0,.1,0,.11,0m.28,0a0,0,0,0,1,0,0s-.06,0,0,0,.06,0,.06,0m-.35.07s0,0-.05,0-.06,0-.06,0,0,0,.05,0a.08.08,0,0,1,.06,0m-1.48,0h.07s0,0,0,0,0,0,0,0m4.78,0h.08s0,0,0,0-.05,0,0,0M34,74.5a.09.09,0,0,0,.07,0s0,0,0,0,0,0,0,0m1.25,0-.06,0-.06,0s0,0,.06,0,.06,0,.06,0m.14,0s0,0-.06,0l-.06,0s0,0,.06,0,.06,0,.06,0m2,.06c0,.05,0,.11-.09.12s-.06,0,0,.17v.06H37.2c-.07,0-.11,0-.11,0s0,0,0,0,0,0,0,0,0,0,0,0,0,0,0,0a.08.08,0,0,0,0-.06s0,0,0,0,.2,0,.12-.12,0-.12.07-.13h.12a.09.09,0,0,1,.06,0m-2.09,0s0,0-.06,0-.06,0-.06,0,0,0,.06,0,.06,0,.06,0m-.41.09q-.09,0-.06,0s0,0,.07,0l0,0h-.06m.33,0s0,0-.06,0-.07,0-.05,0,.11,0,.11,0m.14,0s0,0-.06,0-.08,0-.05,0,.1,0,.11,0m.28,0s0,0-.07,0h-.06l0,0c.06,0,.08,0,.08,0m4.18,0,.13.1,0,0,0,0a.56.56,0,0,0-.2-.14l.06,0M35,74.73s0,0,0,0-.11,0-.11,0,0,0,0,0l.06,0m.15,0s-.07,0-.09,0,0,0,.08,0a0,0,0,0,1,0,0m.16,0h-.06s-.06,0,0,0,.09,0,.11,0m.12,0s-.07,0-.09,0v0s.09,0,.09,0m.14,0s-.07,0-.09,0,0,0,0,0,0,0,0,0m-.63.07s0,0,0,0-.06,0,0,0,0,0,0,0,0,0,0,0m.13,0s0,0,0,0,0,0,0,0,0,0,0,0,0,0,0,0m.22,0a.05.05,0,0,1-.09,0s0,0,0,0,0,0,0,0m.21,0s0,0,0,0,0,0,0,0,0,0,0,0,0,0,0,0m.15,0-.06,0s-.06,0-.05,0,0,0,.06,0,0,0,0,0m-2.38,0c-.24,0-.22,0,0,0h.08v.64l-.1,0a2,2,0,0,1-.32.13,1.71,1.71,0,0,1,0-.36V75l.07,0s0,0,0,0-.19.07-.15.07.05.31,0,.36,0,0,0,0a.69.69,0,0,1,0,.35c-.06,0,.1,0,.16,0,.29-.13.7-.34.56-.29s0,0,0-.14,0-.15,0-.15a.32.32,0,0,0,0,.15c0,.16,0,.2-.09.2a2.33,2.33,0,0,1,0-.29v-.29h.07l.06,0a.68.68,0,0,0-.34,0m1.92,0s0,0,0,0a0,0,0,0,1,0,0s0,0,0,0m.17,0s0,0,0,0a0,0,0,0,1,0,0s0,0,0,0,0,0,0,0m3.52.25c0,.24,0,.28,0,.27s0,0,.13.09a3.73,3.73,0,0,0,.46.21v-.39a1.16,1.16,0,0,0,0-.38,2.12,2.12,0,0,0,0,.37c0,.29,0,.37,0,.36s0-.09,0-.38v-.37l-.17,0-.25,0h-.08v.28M40,74.85a.17.17,0,0,1,0,.07s0,0,0,0a.19.19,0,0,0,0-.07s0,0,0,0m-6.55.32c0,.19,0,.31,0,.31a1,1,0,0,1,0-.3c0-.27,0-.33,0-.33v.32m5.73-.3c.18,0,.17,0,.16.4v.35l-.21-.1L39,75.41v-.56H39l.21,0m-4.31,0s0,0-.06,0-.06,0-.06,0,0,0,.06,0,.06,0,.06,0m.15,0-.06,0s0,0,0,0,0,0,.06,0,.06,0,.05,0m.41,0s-.07,0,0,0,0,0,0,0a0,0,0,0,1,0,0m.14,0s0,0,0,0-.05,0-.05,0,0,0,.05,0,0,0,0,0m.16,0s0,0-.06,0-.06,0-.06,0,0,0,.06,0,.06,0,.06,0m-.61,0s0,0,0,0,0,0,0,0,.06,0,.07,0m.93,0c-.44.22-.3,1,.19,1a.49.49,0,0,0,.47-.54.47.47,0,0,0-.66-.49m-1.24,0s0,0-.06,0-.07,0,0,0,.1,0,.11,0M35,75s0,0-.06,0-.07,0,0,0,.1,0,.11,0m.7,0s-.09,0-.11,0,0,0,.09,0,0,0,0,0m.08,0s0,0,0,0,0,0,0,0,0,0,0,0,0,0,0,0m3.77,0s0,.1,0,.38,0,.36,0,.36,0,0,0,0l.06,0s0,0,0,0,0-.35,0-.35,0,0,0,0,0-.35,0-.36,0,0,0,0a.13.13,0,0,0-.07,0h0M32.83,75s0,0,0,0l0,0s0,0-.06,0m2.32,0s0,.07,0,.07,0,0,0-.07,0-.07,0-.07,0,0,0,.07m.31,0s0,.07,0,.07,0,0,0-.08.05-.08.05,0m4.2,0h.06c.05,0,.05,0,0,0s-.07,0-.07,0m-4.75,0s0,0-.06,0-.06,0-.05,0,0,0,.06,0,0,0,0,0m.16,0s0,0-.06,0S35,75,35,75s0,0,.06,0,.06,0,.06,0m.54,0s0,0-.06,0-.06,0-.06,0,0,0,.06,0,.06,0,.06,0m.12,0s0,0,0,0,0,0,0,0,0,0,0,0,0,0,0,0m-.88.08s0,0-.06,0-.06,0-.06,0,0,0,.06,0,.06,0,.06,0m.14,0s0,0-.06,0-.06,0-.06,0,0,0,.06,0,.06,0,.06,0m.56,0s0,0,0,0,0,0,0,0,0,0,0,0,0,0,0,0m.14,0s0,0-.06,0-.06,0-.06,0,0,0,.06,0,.06,0,.06,0m.41,0a.14.14,0,0,1,0,.09s0,.05,0,0,.1,0,0,.06-.06,0-.08,0,0,0-.05,0a.08.08,0,0,0-.06,0s0,0,0,0a.06.06,0,0,1,.06,0s0,0,0,0,0-.18.06-.09m.44.08s0,0,0,0,0,0,0,0,0,0,0,0a.15.15,0,0,0-.08,0s0,0-.05,0a.08.08,0,0,0-.06,0s0,0,0,0,0-.06.07,0,0,0,0,0a.19.19,0,0,1,0-.11l0,0,0,0a.15.15,0,0,1,0,.09m-3.9,0c0,.06.08.11.1.11s0,0,0,0a.09.09,0,0,1,0-.08s0,0,0,0,0,0,0,0m1.22,0c0,.08,0,.08,0,0a.2.2,0,0,0,0-.09s0,0,0,.06m4.83-.06a.15.15,0,0,0,0,.08c0,.06,0,.06,0,0s0-.11,0-.07m1.21,0s0,0,0,0a.1.1,0,0,1,0,.07s0,0,0,0a.33.33,0,0,0,.12-.14s0,0,0,0m-1.25.3a.17.17,0,0,0,.07.17l.07.06-.06-.07a.24.24,0,0,1-.07-.17v0m-2.55,0s0,.05-.05,0,0,0,0,0l0,0m.42,0s-.05,0-.05,0,0,0,0,0,0,0,0,0m-2.05,0a5.52,5.52,0,0,1,0,.93v.92l0-.08c-.12-.19-.14-.3-.14-1.07a6.71,6.71,0,0,1,0-.7s.13,0,.16,0m.45,0s0,.5,0,1.09c0,1.19,0,1.1-.13,1l-.08,0v-1c0-.57,0-1,0-1s.17,0,.18,0m.45,1.11v1.12h-.2V76.6a6.53,6.53,0,0,1,0-1.12h.16V76.6m.94-1c0,.06,0,.07,0,.07s0,0,0,0,0,0,0,0,0,0-.06,0,0,0-.07,0a.13.13,0,0,0-.07,0,0,0,0,0,1,0,0,.05.05,0,0,1,.05,0s0,0,0,0a.2.2,0,0,1,0-.09c0-.06.05,0,.05.07m-2.51.07s-.08.08-.06.07a.91.91,0,0,0,.17-.16l-.11.09m2,.27.06.09v1.56l0,0a.3.3,0,0,1-.1,0l0,0v-1c0-1,0-1,0-.92a.75.75,0,0,0,.1.2m1.14-.28a.51.51,0,0,0,0,.1.59.59,0,0,1-.34.37s-.06,0-.05.05.31-.19.41-.38,0-.19,0-.14m2,.1.06.06V77h.34a1.3,1.3,0,0,1,.34,0,2.73,2.73,0,0,1-.7,0s0,0,0,0a1.54,1.54,0,0,0,.74,0s0,0,0,0,0-.08,0-.46v-.44h.06c.08,0-.07,0-.2-.1a4.66,4.66,0,0,1-.6-.28s0,0,0,0m-5.28.06-.27.13a.64.64,0,0,0-.17.08l.13,0,.14,0a2,2,0,0,1,0,.51v.51H33v-.43c0-.38,0-.43,0-.44s0,0,0,0-.12,0-.09,0A3.78,3.78,0,0,1,33,77s0,0,0,.08,0,.06,0,.08,0,.05-.06.15,0,.11-.08.13l-.08,0v.24c0,.28,0,.27.16.22a.5.5,0,0,1,.34,0,.28.28,0,0,0,.22,0,.62.62,0,0,1,.38,0c.14,0,.16,0,.16,0s0-.06,0-.06l-.11,0a.35.35,0,0,0-.17,0,.43.43,0,0,0-.17,0,.37.37,0,0,1-.31,0,.34.34,0,0,0-.31,0c-.08,0-.13,0-.13,0s.29-.12.43-.08a.59.59,0,0,0,.37,0c.12,0,.1,0,.38,0,.06,0,.06,0,.06,0s0-.07,0-.07a.23.23,0,0,1-.11,0,.38.38,0,0,0-.16,0,.33.33,0,0,0-.15,0,.35.35,0,0,1-.16,0,.33.33,0,0,1-.15,0,.35.35,0,0,0-.16,0,.33.33,0,0,0-.15,0c-.08,0-.15,0-.14,0s.29-.11.48-.06a.42.42,0,0,0,.19,0,.94.94,0,0,1,.4,0l.13,0s0,0,0,0,0-.06-.07-.07-.08,0-.08-.13,0-.12,0-.12l-.06,0s0,0,0,0,0,0-.36,0-.37,0-.34,0,0,0,.37,0,.34,0,.34,0,0,0,0,0A2.81,2.81,0,0,1,33,77a1.37,1.37,0,0,1,.34,0c.29,0,.34,0,.34,0s0,0-.06,0h-.06V75.84l.07,0a.24.24,0,0,0,.09,0s0,0-.09,0m6.12,0s.13.08.13.07,0,0-.06,0l-.07,0m-3.37,0h-.09s0,0,0,0,.07,0,0,0m2.86.11.19.08v.93h-.44v-.56c0-.44,0-.56,0-.55l.22.1m-6.57,0-.06.05.07-.05s.06,0,.06,0,0,0-.07,0m3.69,0s0,0-.05,0,0,0,0,0,0,0,0,0m-2.82.55a2.21,2.21,0,0,1,0,.53,2.91,2.91,0,0,1,0-.51c0-.46,0-.55,0-.55v.53m6,.08c0,.39,0,.45,0,.45a4.48,4.48,0,0,1,0-.9s0,0,0,.45m-3.55-.42a.16.16,0,0,0,.08,0l.06,0v1.26l-.06.06a.61.61,0,0,1-.1.07l0,0v-.76c0-.72,0-.79.06-.73m3.65.44c0,.42,0,.43,0,.43s0,0,0-.44,0-.44,0-.43,0,0,0,.44m.17-.36s0,0,0,.07l0,0,0,0a.09.09,0,0,1,.07,0l0,0a.13.13,0,0,0-.07-.05s0,0,0,0m-7.13,0a.22.22,0,0,0,.1.2l.08.07-.06-.07c-.08-.08-.08-.09,0-.15s0,0,0,0-.08,0-.09,0,0,0,0,0m.19,0s0,0,0,.06,0,0,0,0,0,0,0,0m7.15,0s0,0,0,0,0,0,0,0,0,0,0,.06,0,0,0,0,.07-.18,0-.2,0,0,0,0m-3.69,0a3.77,3.77,0,0,1,0,.82.58.58,0,0,0-.05.11.46.46,0,0,1-.07.14l0,.06V76.16h.07l.11,0m-3.39.13s0,.06,0,0v-.08s0,0,0,0m6.83,0s0,.06,0,0v-.08s0,0,0,0m-2.49.08c-.08.11.06.24.15.14s.06-.13,0-.12,0,0,0,0-.12,0-.16,0m-4.37,0s0,0,0,0a0,0,0,0,0,0,0s0,0,0,0,.07-.06.06-.07,0,0,0,0m6.89,0s0,0,0,0,0,0,0,0,0,0,0,0,0,0-.05,0,0,0,0,0m-3.35.74a1.11,1.11,0,0,0,1,.56c.1,0,.08,0-.08,0a3.39,3.39,0,0,1-1.92,0l-.17,0h.13c.49-.05,1-.41,1-.75,0,0,0,0,0,0l.08.18m2.51-.1s0,0-.05,0,0,0,0,.14v.12H38.7c-.07,0-.08,0-.08.09s0,.06,0,0a.74.74,0,0,1,.53,0,.46.46,0,0,0,.2,0c.18-.05.47,0,.48.06s-.07,0-.14,0a.42.42,0,0,0-.31,0,.35.35,0,0,1-.16,0,.33.33,0,0,1-.15,0,.42.42,0,0,0-.31,0,.3.3,0,0,1-.12,0s-.05,0-.05.06,0,.08.07.06c.28-.07.26-.07.38,0a.59.59,0,0,0,.37,0c.14,0,.42,0,.42.08s0,0-.14,0l-.15,0-.14,0a.37.37,0,0,1-.31,0,.36.36,0,0,0-.32,0,.22.22,0,0,1-.14,0s0,0,0,.06,0,.09.17,0a.62.62,0,0,1,.38,0,.28.28,0,0,0,.22,0,.5.5,0,0,1,.34,0c.16,0,.15.06.15-.22v-.25h-.06l-.08,0h-.93v-.19h.93l0,0s-.09,0-.07,0a1.22,1.22,0,0,1-.35,0c-.33,0-.37,0-.36,0v0a0,0,0,0,0,0,0m-5.13.18v.1h-.9v-.2h.9v.1m2.47,0s0,0,0,0a.15.15,0,0,1-.05.08.17.17,0,0,0,.08.28.1.1,0,0,1,.07,0s0,0-.1,0a.39.39,0,0,0-.23,0H35.8l.06,0a.41.41,0,0,0,.3.11c.1,0,.1,0,.09,0s0,0,0,0a.14.14,0,0,0,.09-.08s0,0,.1,0,.39-.07.33-.12-.28,0-.35,0-.1,0-.1,0,0,0,.07,0a.17.17,0,0,0,.05-.3.07.07,0,0,1,0-.05,0,0,0,0,0,0,0h-.16m.16.06c.15.09.14.27,0,.31s0,0,0,0c.08-.18,0-.37-.11-.2s0,.08,0,.14,0,.1,0,.07a.17.17,0,0,1-.11-.15c0-.06.12-.18.16-.16s0,0,0,0,0,0,.11,0m-.06.07s0,.16,0,.19-.09,0-.06-.17,0-.06.06,0" transform="translate(0 0)"/><path id="path3" class="cls-5" d="M35.68,71s0,0,0,0a0,0,0,0,0,0,0s0,0-.07,0m.13,0a0,0,0,0,0,0,0s0,0,0,0,0,0,0,0m.85,0s0,0,0,0a0,0,0,0,0,0,0s0,0-.07,0m.13,0a0,0,0,0,0,0,0s0,0,0,0,0,0,0,0m-1.24,0s.05,0,.06,0,0,0,0,0a0,0,0,0,0,0,0M36,71s0,.07,0,0a0,0,0,0,0,0,0A0,0,0,0,0,36,71m.56,0s0,.07.06,0,0-.06,0-.06,0,0,0,0m.41,0a.05.05,0,0,0,0,0s.06,0,0,0-.06,0-.06,0m-1.52,0a0,0,0,0,0,.06,0,0,0,0,0,0-.06,0m.68,0a0,0,0,1,0,.06,0,0,0,0,0,0-.06,0m.3,0a0,0,0,0,0,0,0,0,0,0,0,0,0,0,0,0,0,0,0,0,0,0,0,0,0,0,0,0m.68,0a0,0,0,0,0,0,0,0,0,0,0,0,0,0,0,0,0,0,0,0,0,0,0,0,0,0,0,0m-1.77,0a0,0,0,0,0,0,.05s.07,0,0-.05a0,0,0,0,0-.06,0m1.89,0s0,0,0,0a0,0,0,0,0,0-.08s0,0,0,0m-2.27.06a0,0,0,0,0,0,0s.06,0,0,0,0,0-.06,0m.14,0s0,.07,0,.05,0,0,0,0-.06,0-.07,0m2.37,0s0,0,0,0,0,0,0,0,0-.07,0-.05m.13,0s0,.06,0,0,0,0,0,0,0,0-.06,0m-2.77,0a0,0,0,0,0,.06,0,0,0,0,0,0-.06,0m.41,0s0,0,0,0a0,0,0,0,0,0,0s0,0,0,0m2.09,0a0,0,0,0,0,0,0,0,0,0,0,0,0,0,0,0,0,0,0,0,0,0,0,0,0,0,0,0m.4,0s.05,0,.06,0,0,0,0,0a0,0,0,0,0,0,0m-3,0a0,0,0,0,0,0,0s0-.06,0-.06a0,0,0,0,0,0,0m3.2,0s0,0,0,0l0,0a0,0,0,0,0,0,0s0,0,0,0m-3.33,0s0,.07,0,0,0-.07,0-.07l0,0m3.45,0a0,0,0,0,0,0,0s0,0,0,0,0,0,0,0m-2.85,0a0,0,0,0,0,0,0s.06,0,0,0,0,0-.06,0m1.13,0s0,0,0,0,0-.06,0-.06a0,0,0,0,0,0,0m1.11,0s0,.07,0,0a.08.08,0,0,0,0,0s-.05,0-.06,0m-3,0a0,0,0,0,0,0,0s0,0,0,0,0,0,0,0a0,0,0,0,0,0,0m3.71,0a0,0,0,0,0,0,.06s0,0,0,0,0-.05,0,0m-3.82.08a0,0,0,0,0,0,.06,0,0,0,0,0,0,0s-.05-.06-.07,0m3.91,0s0,.07.06,0,0-.07,0-.07l0,0m-3.09,0s0,.07,0,0a0,0,0,0,0,0-.07l0,0m1.12,0s0,.08.08.07a0,0,0,0,0,0,0s-.08,0-.1,0m1.16,0s0,0,0,0,.05,0,0,0,0,0-.06,0m-3.19.09a0,0,0,0,0,0,0s0,0,0,0,0,0,0,0a0,0,0,0,0,0,0m4.1,0s0,0,0,0a0,0,0,0,0,0-.08s0,0,0,0m-2.07,0a.06.06,0,0,0,.05.1c.06,0,.09,0,0-.1s-.06,0-.1,0m-1.13,0s0,0,0,0,0,0,0-.06a0,0,0,0,0,0,0m2.3,0a0,0,0,0,0,0,0,0,0,0,0,0,0-.06,0,0,0,0,0,0,0m-3.27.05s0,.06.06,0,0,0,0,0,0,0-.07,0m4.24,0s0,0,0,0,0,0,0,0a0,0,0,0,0-.06,0m-3.22.07s0,0,0,0,0,0,0,0,0,0,0,0m2.21,0s0,0,0,0,0,0,0,0a0,0,0,0,0,0,0m-1.14,0s0,.06,0,0,0,0,0,0,.05,0,0,0-.13,0-.13,0m-2.1,0s0,.07,0,.07a0,0,0,0,0,0,0s0,0,0,0m4.29,0a0,0,0,0,0,0,.07,0,0,0,0,0,0,0s0,0-.05,0m-3.19.06a0,0,0,0,0,.06,0,0,0,0,0,0-.06,0,0,0,0,0,0,0,0m2.06,0a0,0,0,0,0,0,0s0,0,0-.06a0,0,0,0,0,0,0m-3.17.09s0,0,0,0a0,0,0,0,0,0,0s0,0-.06,0m4.28,0a0,0,0,0,0,0,0,.11.11,0,0,0,0,0s0,0-.06,0M34.14,72s0,0,0,0a0,0,0,0,0,.05,0s0,0-.06,0m4.21,0s0,0,0,0,0,0,0,0a0,0,0,0,0,0,0s0,0,0,0m-4.16.11s0,0,0,0,.05-.06,0-.06,0,0,0,0m4.09,0s0,0,0,0a0,0,0,0,0,0,0s-.05,0-.07,0m-2.49.13s0,0,0,0,0-.08,0-.09,0,0,0,0m.9,0s0,0,0,0,0-.08,0-.09,0,0,0,0m-1.76.14a.14.14,0,0,0,0,.06s.07,0,0,0-.07,0-.07,0m2.63,0s0,.09,0,.09.07,0,.07-.07-.05,0-.07,0m-1.66.33s0,.06.06,0,0,0,0,0,0,0-.07,0m.69,0s0,.05,0,0,0,0,0,0a0,0,0,0,0,0,0m-1.34.08s0,0,0,0,0,0,0,0l0,0s0,0,0,0m2,0a0,0,0,0,0,0,0s0,0,0-.06,0,0,0,0m-.58.42h-.38v1.44l.11,0a.71.71,0,0,1,.53.62v.1h1.32v-2.2H36.67m.81.18a0,0,0,0,1,.07,0s0,0,0,0,0,0,0,0,0,0,0,0a0,0,0,0,1,0,0,.06.06,0,0,0,0,0c.06,0,0,.05,0,.06h-.07v.09a.19.19,0,0,1,0,.1s0,0,0,0,0,.11,0,.09,0,0,0,0,0,0,0,0,0,0,0,.05,0,.06,0,0,0,.09,0,.14c.2.26.37.16.26-.15a1.09,1.09,0,0,1,0-.51.38.38,0,0,0,0-.1s0,0,0,0,0,0,.09,0,.09,0,.05,0,0,.07,0,.07-.06.16-.11.22-.06.15,0,.33,0,.28-.1.34-.17.18,0,.23.06.08,0,.18,0,.09,0,.13a.06.06,0,0,1,0,.07,0,0,0,0,0,0,0s0,0-.06,0-.08,0-.11,0,0,0,0-.07.14,0,.14,0,0,0,0,0a.12.12,0,0,0,0-.07.34.34,0,0,1,0-.12l0-.08-.06-.06a.15.15,0,0,1,0-.26c.15,0,.19-.16.11-.34l0-.07v.09c.06.35-.25.4-.36,0,0-.09,0-.09-.07-.06s0,0,0,0,0,0-.12,0l-.07.05,0,.06a.38.38,0,0,0,.12.09c.15.07.19.13.15.2s0,.23.05.21.06,0,.09,0,0,.11,0,.12-.06,0,0,0,0,0,0,0h-.06a.12.12,0,0,0-.07,0s0,0,0,0,0-.06.11-.08.11-.08,0-.07-.13,0-.14-.14,0-.06-.06-.06,0,0,0,0a.34.34,0,0,1,0,.11v.07h-.1c-.1,0-.17,0-.17.09a0,0,0,0,1,0,0s0,0,0-.06,0-.06,0-.06-.11,0-.11,0,.07-.07.1-.06,0,0,0,0a0,0,0,0,0,0,0,0,0,0,0,1,0,0s.11,0,.15,0a.12.12,0,0,0,.07,0c.05,0,.05,0,0-.06a.15.15,0,0,1,.11-.25h.1l-.09-.06a.29.29,0,0,1-.11-.11l0,0-.06,0s-.06,0-.08,0,0-.07,0-.06.2-.08.2-.12,0,0,0,0-.11,0-.11,0,0-.05-.09,0-.19.14-.23.11,0,0-.05,0,0,0,0,0,0,0,0,0,0,0,0,0a0,0,0,0,0,0,0s0,0,0,0,0,0,0,0,0,0,0,0a.15.15,0,0,1,.17,0s0,0,0,0a0,0,0,0,1,0,0h-.06s0,0-.06.12,0,0-.07,0,0-.06-.08-.06-.06,0,0,0,0,0,0,0,0,0,0-.06,0,0,0,0a.12.12,0,0,1,.15,0s0,0,.1,0,.11-.09-.07-.16c0,0,0,0,0,0s0,0,0,0,0,0,0-.06,0,0-.08,0-.12-.05,0-.09,0-.09,0-.11,0,0,0,0a.14.14,0,0,1,.09,0c.05,0,.06,0,.09-.05s0-.06.06,0,0,.1,0,.12.13.21.27.21.14,0,.11-.07,0,0,0,0,0,0,0,0-.21-.12-.19-.15.12,0,.16,0,.07,0,.06,0,0-.05.06-.06.17-.08.15-.16v-.07l0,0s0,0,.06,0m-.07.18s0,.06,0,0-.13,0-.13,0a.07.07,0,0,0,0,.05c.07,0,.07.09,0,.14l0,.06s-.05.07-.14.09h0c.06,0,.08,0,.07,0s0,.14,0,.09.08,0,.06,0,0,0,.05,0,0,0,0,0,0,0,0,0,0,0,.05,0,0,0,0,0,0-.07,0,0,0,0,0,0,0,0,0,0a.08.08,0,0,0,0-.07c0-.07,0-.1,0-.08s0-.13-.06-.19-.15-.09-.1,0m.53,0s0,0-.06,0,0,0-.05.08,0,.22.08.08.05-.08,0-.09,0,0,0-.07,0-.09,0,0m-1.2.09s0,0,0,0-.05,0,0,0,0,0,0,0,0,0,0,0a0,0,0,0,0,0,0s.17.14.16.17a0,0,0,0,0,0,0l.07,0s0,0,.11,0,.06-.1,0-.07,0,0,0,0,0-.06-.08-.09-.13-.09-.12-.15,0-.07,0,0M33,74.15v.38h.09l.21,0,.13,0v-.68H33v.38m.46,0a1.37,1.37,0,0,0,0,.34s0-.13,0-.34,0-.34,0-.34a1.3,1.3,0,0,0,0,.34m.08-.33a1.67,1.67,0,0,0,0,.34v.33h.1v-.34c0-.35,0-.4-.08-.33m5.41.32v.34l.2,0,.22,0s0-.09,0-.36v-.36h-.44v.33m.47-.31a3.23,3.23,0,0,0,0,.71s0-.07,0-.36,0-.44-.05-.35m.08.35c0,.34,0,.38,0,.38s0,0,0-.37,0-.38,0-.38,0,0,0,.37m-2.23.4c-.11,0-.14,0-.07.13s0,.22-.12.12,0,0,0,0a.08.08,0,0,1,0,.06s0,0,0,0,0,0,0,0,0,0,0,0,0,0,0,0,0,0,.11,0h.12v-.06c0-.14,0-.16,0-.17s.13-.07.09-.12a.09.09,0,0,0-.06,0h-.12m-3.79.32a2.57,2.57,0,0,0,0,.62s0-.12,0-.31v-.32s0,0,0,0m.06,0a3.79,3.79,0,0,0,0,.58c.08,0,.09,0,.09-.32s0-.33-.08-.26m5.42.27v.28l.21.11.21.1v-.35a2.48,2.48,0,0,0,0-.36,2,2,0,0,0-.36-.06h-.07v.28m-5.74-.23c-.23,0-.22,0-.22.43a1.65,1.65,0,0,0,0,.35,2,2,0,0,0,.32-.13l.1,0v-.32c0-.36,0-.33-.22-.28m6.2,0a3.23,3.23,0,0,0,0,.71,2.48,2.48,0,0,0,0-.72s0,0,0,0m.08.37c0,.34,0,.37,0,.38s0,0,0-.36,0-.39-.07-.39v.37m-5.94.53s0,.06,0,.55v.54h.1v-.56c0-.3,0-.56,0-.56l-.05,0m5.39.53v.56h.44V76l-.19-.08-.22-.1s0,.11,0,.55m-5.47-.48a7.22,7.22,0,0,0,0,1,2.21,2.21,0,0,0,0-.53v-.53a0,0,0,0,0,0,0m-.24.09L33,76s0,0,0,.45v.43h.44v-.51c0-.39,0-.51,0-.5l-.18.06m6.19,0a4.48,4.48,0,0,0,0,.9s0-.06,0-.45,0-.49,0-.45m.06.46c0,.43,0,.44,0,.44a2.12,2.12,0,0,0,0-.87s0,0,0,.43M36.27,77c0,.34-.49.7-1,.75h-.13l.17,0a3.39,3.39,0,0,0,1.92,0c.16,0,.18-.06.08,0a1.36,1.36,0,0,1-.55-.14,1.08,1.08,0,0,1-.49-.6s0,0,0,0m.11.31a0,0,0,0,1,0,0,.07.07,0,0,0,0,.05.17.17,0,0,1-.05.3s-.07,0-.07,0,0,0,.1,0,.32-.06.35,0-.18.14-.33.12-.1,0-.1,0a.14.14,0,0,1-.09.08s0,0,0,0,0,0-.09,0a.41.41,0,0,1-.3-.11l-.06,0h.14a.39.39,0,0,1,.23,0c.1.06.1.06.1,0a.1.1,0,0,0-.07,0,.17.17,0,0,1-.08-.28.15.15,0,0,0,.05-.08s.09,0,.15,0h.06m-.11,0s0,0,0,0,0,0,0,0,0,0,0,0-.14.14-.07.22.15.1.11,0a.16.16,0,0,1,0-.2l0-.06,0,0a.26.26,0,0,1,0,.23c0,.07,0,.06.1,0s0-.32-.1-.27,0,0,0,0,0,0,0,0m-3.48.15s-.09,0-.09.06.06,0,.14,0a.33.33,0,0,1,.15,0,.35.35,0,0,1,.16,0,.33.33,0,0,0,.15,0,.35.35,0,0,0,.16,0,.33.33,0,0,1,.15,0,.38.38,0,0,1,.16,0c.07,0,.15,0,.14,0s-.29-.1-.54,0a.42.42,0,0,1-.19,0,.86.86,0,0,0-.39,0m6,0c-.05,0-.09,0-.09.06s.06,0,.14,0a.33.33,0,0,1,.15,0,.35.35,0,0,1,.16,0,.33.33,0,0,0,.15,0,.35.35,0,0,0,.16,0,.42.42,0,0,1,.31,0c.07,0,.15,0,.14,0s-.3-.11-.48-.06a.46.46,0,0,1-.2,0,1.1,1.1,0,0,0-.44,0m-5.92.19c-.09,0-.13,0-.13.07s.05,0,.13,0a.34.34,0,0,1,.31,0,.37.37,0,0,0,.31,0,.43.43,0,0,1,.17,0,.35.35,0,0,1,.17,0c.08,0,.13,0,.13,0s-.28-.12-.42-.08a.55.55,0,0,1-.36,0,.48.48,0,0,0-.31,0m6,0c-.09,0-.13,0-.13.07s0,0,.17,0a.34.34,0,0,1,.31,0,.37.37,0,0,0,.31,0l.14,0,.15,0c.14,0,.14,0,.14,0s-.28-.12-.42-.08a.55.55,0,0,1-.36,0,.48.48,0,0,0-.31,0" transform="translate(0 0)"/><path id="path4" class="cls-6" d="M35.81,71.56a3.34,3.34,0,0,0-.44.14l0,0s0,0,0,.09,0,.13,0,.13,0,0,0,.08v.08l.07,0c.08,0,.1,0,.08,0s0,0,.06,0,.09.05,0,.08a.13.13,0,0,0,0,.07s0,0-.11,0-.13,0-.08.09.39.1.32-.08,0-.07,0-.08.09,0,.09.06,0,.11.07.14.29,0,.29-.14,0-.08-.11,0-.15,0-.15,0,0,0-.06,0-.08-.07,0-.1.06,0,.06-.06,0,0,.12,0l.07,0V72a.94.94,0,0,0,0-.09s0,0,0-.06,0,0,0-.06a.12.12,0,0,1,0-.15l0-.1s-.18,0-.28,0m.65,0a.58.58,0,0,1,0,.1.12.12,0,0,1,0,.08c-.06,0-.07.08,0,.08s0,0,0,.07,0,.12,0,.1.15,0,.15,0,0,0,.06.06.07.07,0,.11a.08.08,0,0,0,0,.05s0,0-.14,0-.14,0-.09.07.38.15.34,0,0-.11.06-.11,0,0,0,.09c0,.22.3.26.36,0,0,0,0,0,0,0s.11,0,.1-.07-.13-.1-.15,0-.2.12-.2,0a.1.1,0,0,0,0-.07s0-.08,0-.08a.05.05,0,0,0,0,0s0,0,.1,0l.07,0v-.08c0-.08,0-.08,0-.07s.07,0,0-.13,0-.07,0-.1,0,0-.16-.11a2,2,0,0,0-.47-.11h-.07v.08m-1.63.12-.18.06-.11,0c-.07,0-.15.09-.12.12s0,0,0,.08-.08.12,0,.14l.06,0s.1,0,.1,0,0,.08.11,0,.07,0,.08,0a.08.08,0,0,0,.07,0c.08,0,.09,0,0,.07s0,.06,0,.07,0,0-.08,0l-.08,0,.06,0c.12.09.24.08.22,0s0-.14,0-.14,0,0,.06.07.17.14.27,0,.07-.21-.06-.14-.09,0-.11,0l-.07,0c-.07,0-.07,0,0-.08a.12.12,0,0,0,.05-.06s0,0,.08,0,.09,0,0-.08l0-.07h0s0,0,0,0,0,0,0-.07,0,0,0,0a.07.07,0,0,1,0-.05c0-.09-.15-.12-.36-.09m2.57,0a.1.1,0,0,0,0,.07,0,0,0,0,1,0,0l0,0s0,.13.07.13,0,0,0,.08,0,.07.07.06.07,0,.07,0a.15.15,0,0,0,.05.08l0,.06H37.5s-.07,0-.07,0,0,0-.11,0-.17,0-.06.14.27.07.27,0a.08.08,0,0,1,.07-.09s0,.06,0,.1.08.18.22.07l0-.05h-.08c-.06,0-.08,0-.07,0a.09.09,0,0,0,0-.07c-.05,0,0-.08,0-.08s.06,0,.06,0,0,0,.1,0,.08,0,.08,0,.07-.12.11-.11.08,0,0-.11,0-.08,0-.11-.56-.31-.71-.21m-1.2.37s0,.07,0,.09a.07.07,0,0,0,.11-.07s-.12-.07-.14,0m-.89,0a.08.08,0,0,0,0,.12.07.07,0,0,0,.11,0,.08.08,0,0,0-.13-.08m-.82.25s0,.09.06.09,0,0,0-.05-.07-.07-.1,0m3.48,0s0,0,0,0a.06.06,0,0,0,.09,0s-.08,0-.1,0m-1.75,0,0,0h.11c.06,0,.11,0,.11,0l-.06,0,0,0-.06,0m-.42,0s0,0,0,0,.08,0,0,0a.11.11,0,0,0-.08,0m.85,0s0,0,.08,0,.05,0,0,0a.09.09,0,0,0-.09,0m-1.28,0s0,0,.05,0,.11,0,0-.06-.07,0-.1,0m1.69,0s0,0,0,0h.11s0,0,0,0-.08-.06-.13,0M35,72.62s0,0,0,0,.07,0,0,0,0,0-.06,0m2.48,0s0,0,0,0a0,0,0,0,0,0,0s0,0-.07,0m-1.37.11s.06,0,.17,0,.16,0,.16,0,0,0-.16,0-.17,0-.17,0m-3,.06s.05.14.11.17,0,0,0-.09-.07-.13-.14-.08m.24,0c0,.17,0,.21.09.09s.06-.07,0-.09-.11,0-.12,0m-.48.09c-.06.06,0,.11,0,.12s0,0,0,0,0,0,0,0,0,0,0,0,0,0,0,0,0,0,0,0,0,0,0,0,0,0,0-.06-.08-.18-.17-.09m2.12,0a.05.05,0,0,0,0,0s.08,0,.1,0,0,0-.07,0m2.5,0s0,0,0,0,.09,0,.11,0,0-.07,0-.07h0m-3.93,0s0,.05,0,.1.07.09.07,0,0,0,0,0a.08.08,0,0,0,0-.13.1.1,0,0,0-.14,0m5.47,0a.07.07,0,0,0,0,0c.05,0,.06.06,0,.06a0,0,0,0,0,0,0,0,0,0,0,0,.08,0s0,0,0,0,0,0,.05,0,0,0,0,0,0,0,0-.06,0-.08-.1-.08-.07,0-.07,0m.27,0a0,0,0,0,0,0,.06s0,0,0,0,0,0,0,0a0,0,0,0,0,0,0s0,0,0,0,0,0,.06,0,0,0,0,0,0,0,0,0,.06-.1,0-.1-.07,0-.08,0m-.44,0s0,.08,0,.08h0s0,.06,0,0,0,0,0,0,0,0,.05,0,0,0,0,0l0,0a0,0,0,0,1,0,0s0,0,0,0-.11-.06-.15,0m.63,0a.07.07,0,0,0,0,0s0,0,0,.05,0,0,0,0a0,0,0,0,1,0,0,0,0,0,0,0,0-.09c-.07,0-.14,0-.13,0m-3.68,0c-.06,0,0,.21,0,.2h.09s0,0,0,0,0,0,0,0a4.59,4.59,0,0,0,1.11,0c.31-.05.3-.07-.07-.12a8.64,8.64,0,0,0-1.21,0m-.1,0s0,.16,0,.17,0,0,0-.08,0-.1,0-.1h0m-.16.08v0a.11.11,0,0,0,0-.08s0,0,0,0m0,0s0,.07,0,.07,0,0,0-.07,0-.07,0-.07,0,0,0,.07m.07,0v0a.14.14,0,0,0,0-.09v0m-.27,0s0,0,0,0,0,0,0,0a.08.08,0,0,0,0,0s0,0,0,0m.1,0s0,.06,0,.05a.11.11,0,0,0,0-.06s0,0,0,0,0,0,0,.06m-2.32.16a.7.7,0,0,0,.29,0s0,0-.15,0-.16,0-.14,0m6,0,.15,0a.32.32,0,0,0,.15,0s0,0-.15,0-.15,0-.15,0m-4.84,1.11v1.1h.23v1.94l.08.08c0,.05.1.08.11.07s0-.49,0-1v-1H35v2.24H35l.09,0s0,0,0-1.13V75.44h.28v2.28h.05c.14,0,.13.09.13-1.15,0-.72,0-1.12,0-1.13s0,0,0-.05,0,0,0,.12a.68.68,0,0,0,.66.67c.09,0,.1,0,0,0h-.07v.35a1.2,1.2,0,0,0,.05.51,1,1,0,0,0,1.65.39c.27-.27.3-.39.29-1.31v-.66H37v.06s0,0,0,0a.72.72,0,0,0-.65-.76c-.07,0-.1,0-.07,0h.06V73.23h-2v1.11m1.14-.78s0,.07,0,.07,0,.32,0,.32.09,0,0-.07a.15.15,0,0,1,0-.1v-.07h.28v.07s0,.07,0,.08,0,.08,0,.09h.07v.14c0,.13,0,.14,0,.15s0,0,0,.29v.29h.14s0,0,.09,0l.11,0-.06,0a.67.67,0,0,0-.27.3c0,.06,0,.09,0,.07s0,0-.17,0h-.79v-.3h.13v-.28c0-.26,0-.28,0-.29s0,0,0-.15V74h.07c.08,0,.1,0,0-.09s0,0,0-.09v-.06h.3v.07s0,.07,0,.08,0,.09,0,.08.09-.31,0-.31,0,0,0-.07v-.07h.3v.07m1.58.11s.1.1.14.1,0,0,0-.08-.11,0-.11,0m-3.6.82a1.72,1.72,0,0,0-.72.19l0,0c-.11,0-.15.15-.09.29a.42.42,0,0,1,0,.12l0,0s0,0,0,0,0,.08.15.12.16,0,.15-.13V75h-.15l.13-.06a1.66,1.66,0,0,1,.71-.12,3.8,3.8,0,0,1,.59.08s0,0,0-.18,0-.2-.28-.24a1.57,1.57,0,0,0-.58,0m5.15,0c-.28,0-.25,0-.25.23v.19l.12,0a2,2,0,0,1,1.18.07c.15.06.22,0,.13-.07s0,0,0,0,0,0,0-.06-.06,0-.08,0,0,0,0,0,0,0,0,0-.05,0-.05,0a.89.89,0,0,1,.25-.16.83.83,0,0,1,0,.27l-.12,0-.11,0v.14c0,.17,0,.18.15.13s.17-.08.15-.12a.08.08,0,0,1,0,0,.91.91,0,0,0,.13-.3c0-.23-.87-.44-1.48-.35m-5,.16a.44.44,0,0,1-.07.12s-.15-.18-.15-.21.07,0,.1.06.08.1.08.06.06-.17.07-.16,0,.06,0,.13m5.33,0c0,.11,0,.11.06.12s0,0,0,0-.11,0-.09-.17.06-.1.07,0m-5.12-.07s0,0,.05.07.08.11,0,.14-.16,0-.14,0,0,0,0,0a.07.07,0,0,0,.06,0s0-.07,0-.1-.08-.07,0-.11.06,0,0,0m4.92.1c0,.15-.07.15-.16,0s-.07-.12,0-.13,0,0,0,0,0,0,0,.09l0,.06,0,0a.15.15,0,0,0,0-.08,0,0,0,0,1,0,0l0,.13m.55-.11s0,0,0,0-.07,0-.07.15,0,.07,0,.07,0,0,0-.12,0-.11,0-.12,0,0,.06,0l.11,0m-6.06.11c0,.08,0,.1.07.11s.06,0,0,0-.12,0-.15-.13,0-.13.07,0m6.23-.06,0,.06s0,0,0,0,.05,0,0,0,0-.07.06,0a.05.05,0,0,1,0,.09s0,0,0,.07,0,.07,0,.07,0,0-.05-.06-.06-.08-.06,0,0,0,0,0,0,0,0-.16,0-.08.06-.08,0,0,0,0m-6.44,0s0,.08,0,.12,0,0,0,.09,0,.06,0,.06-.13-.21-.11-.23.06,0,.07,0,0,0,0,0,0-.06,0-.09,0-.07,0,0m3.45.29a.6.6,0,0,1,.25.76c-.24.51-.88.32-.87-.25,0-.38.32-.64.62-.51m-2.81.19s0,.27,0,.26-.06.05-.24.14l-.44.2a1.21,1.21,0,0,0-.36.17l-.06,0,0,.15c0,.14,0,.17.1.12s0,0,0,0,0,.07.05.17.08.09.1.06a.26.26,0,0,0,0-.24c-.05-.07-.07,0,.31-.21.55-.22.79-.38.79-.52a1.07,1.07,0,0,0-.08-.31.43.43,0,0,0-.19,0m5.17,0c-.15,0-.21.37-.08.49a2.43,2.43,0,0,0,.68.36l.19.08.12,0a.12.12,0,0,1,.06.05l0,0c-.08,0-.14.2-.08.28s0,0,.05,0a.38.38,0,0,1,.09-.09s.05,0,0-.08,0,0,0,0,.07-.28,0-.32a1.4,1.4,0,0,0-.34-.18,3.68,3.68,0,0,1-.58-.25c-.15-.08-.21-.12-.14-.09s0,0,0-.12,0-.15-.11-.13m-1.75.55a.09.09,0,0,0,.13,0,.16.16,0,0,1,.09,0,.12.12,0,0,1,.08,0,.08.08,0,0,0,.07,0s.06,0,.06,0,0,0,.12,0,.1,0,.1,0,0,0,.06,0a.15.15,0,0,0,.1,0c.07-.08.23,0,.18.11s0,0,0,0,0,0,0,.09S38,76,38,76s.08.17,0,.2a.11.11,0,0,0,0,.1.12.12,0,0,0,0,.11.15.15,0,0,1,0,.06.2.2,0,0,1,0,.08c-.05.06-.06.12,0,.14s0,.19,0,.21-.07.11,0,.19a.12.12,0,0,1-.11.13s-.12.08-.13.13-.14.12-.18.09a.16.16,0,0,0-.18,0,.15.15,0,0,1-.08,0,.15.15,0,0,1-.09,0,.14.14,0,0,0-.17,0s-.19,0-.19-.08a.17.17,0,0,0-.13-.14.11.11,0,0,1-.1-.14c0-.06,0-.17-.06-.18s0-.19,0-.21,0-.08,0-.15l0-.06,0-.06a.17.17,0,0,0,0-.23l-.05-.06.06,0a.59.59,0,0,0,.34-.37s0-.08,0-.09.15,0,.16,0m-.15.06s0,0,0,0,0,0,0,0,0,0,0,0-.05,0-.05,0m.64,0s0,0,.05,0,0,0,0,0l0,0s-.05,0-.05,0m-.49.07s0,0-.11,0-.17,0-.09.13.07,0,.09,0,.16.11.15.16.09.19.13.19,0-.22,0-.23,0,0,0-.1,0-.09,0-.11,0-.06,0-.1-.12,0-.14,0m.28,0c0,.05,0,.08,0,.1s0,0,0,.11,0,.09,0,.1-.07.23,0,.23.15-.14.14-.18.09-.18.15-.16.06,0,.13-.11l.11-.12h-.07s-.07,0-.08,0-.19,0-.21,0-.1,0-.15,0m.46.14c-.07.08-.1.11-.09.14s-.08.17-.12.16-.21.15-.19.17a.07.07,0,0,0,.09,0s0,0,.11,0,.11,0,.11,0,.12,0,.16,0,.05-.18,0-.19,0,0,0-.12,0-.1,0-.1,0,0,0-.07,0-.08-.11,0m-1.07,0a.29.29,0,0,0,0,.12c0,.07,0,.1,0,.11s0,.15,0,.19.15,0,.16,0,0,0,.11,0,.1,0,.11,0,.11,0,.11,0-.17-.19-.2-.17-.15-.11-.13-.16-.07-.15-.11-.11m.52,0s0,0,0,0,0,0,0,0a0,0,0,0,0,0,0s0,0,0,0m-1.4.76v.76l0,0a.61.61,0,0,0,.1-.07l.06-.06V76.13l-.06,0a.16.16,0,0,1-.08,0c-.06-.06-.06,0-.06.73m2.06-.69a.07.07,0,0,0,0,0s0,0,0,0,0-.06-.06,0m-1.32,0s0,0,0,0,0,0,.05,0,0-.05,0,0m.35,0s0,0,0,0h0s0,0,0,0a.08.08,0,0,1,0,0h0s0,0,0,0m.61,0v.05s.08,0,.08-.06-.06,0-.08,0m-1,.34s0,0,0,0,0-.07,0-.07,0,0,0,0m.33,0s0,0,.05,0,.06,0,0,0-.08,0-.1,0m.66,0s0,0,0,0,0,0,0,0-.06,0-.09,0m.35,0s0,.08.06.05,0-.07,0-.07l0,0m-1.23.1s0,.12,0,.12,0,.16,0,.21a.06.06,0,0,0,0,.11c.06,0,.15-.12.14-.17s.08-.15.13-.14a.44.44,0,0,0,.18-.15s-.1,0-.11,0,0,0-.11,0-.1,0-.1,0-.13,0-.17,0m.71,0s.14.16.17.15.15.09.14.15.07.16.13.16.07-.08,0-.11,0-.21,0-.21,0-.08,0-.12-.16,0-.16,0,0,0-.1,0-.11,0-.12,0-.1,0-.1,0m-.24.13s-.06.08,0,.12S37,77,37,76.93s-.16.11-.16.2,0,.13.09.09.19.06.19.11.06,0,.11,0,.07-.24,0-.25,0,0,0-.11,0-.09,0-.1,0,0,0-.15,0-.16-.1-.07m.16.07c0,.12,0,.14,0,.15s0,0,0,.1,0,.1,0,.11-.06.19,0,.24.13,0,.13,0,.16-.13.18-.1.1,0,.1-.09-.1-.22-.16-.2-.15-.09-.14-.15-.08-.18-.13-.18a.94.94,0,0,0,0,.14m-.73,0v0s.06,0,.06,0,0-.06-.06,0m1.33,0a.07.07,0,0,0,0,0s0,0,0,0,0-.07-.06,0m-1,0s0,0,0,0,.08,0,.07-.07,0,0-.07,0m.59,0s0,.1.07.07,0,0,0-.06,0,0-.05,0m-.28.19a.06.06,0,0,0,0,.06s0,0,0,0a0,0,0,0,0,0-.05s0,0,0,0m-.35.36a.06.06,0,0,0,.08,0s0-.07-.05-.07a0,0,0,0,0,0,0m.66,0s0,0,0,0a.05.05,0,0,0,.09,0s0,0-.08,0m-1.31.15a.24.24,0,0,0,0,.17s.08,0,.08-.1-.07-.16-.09-.07" transform="translate(0 0)"/></g><circle cx="9.01" cy="38.98" r="1.54"/><path d="M13.84,34.89l-.74.74a5.28,5.28,0,0,1,0,6.7l-.95-1A3.89,3.89,0,0,0,13,39a3.94,3.94,0,0,0-3.42-3.91V33.72a5.24,5.24,0,0,1,2.82,1.17l.74-.74A6.32,6.32,0,1,0,8.49,45.28v-1a5.29,5.29,0,0,1,0-10.52v1.35a3.94,3.94,0,0,0-3.38,3.39h1a2.9,2.9,0,1,1,0,1h-1a3.94,3.94,0,0,0,6.3,2.61l.95,1a5.25,5.25,0,0,1-2.82,1.18v1a6.32,6.32,0,0,0,4.3-10.39Z" transform="translate(0 0)"/><path d="M21.22,40v3.78H19.35V34.22h1.87V38a2.57,2.57,0,0,1,1.13-.24,13,13,0,0,1,1.3.13,12.53,12.53,0,0,0,1.56.15,2.73,2.73,0,0,0,1.2-.24v-3.6h1.88v9.51H26.41v-4a2.46,2.46,0,0,1-1.12.24,13.72,13.72,0,0,1-1.47-.13,10.66,10.66,0,0,0-1.4-.13,3,3,0,0,0-1.2.22ZM36.39,44h0a5.07,5.07,0,0,1-3.28-1A3.66,3.66,0,0,1,31.78,40V34.22h1.89V40a1.81,1.81,0,0,0,.76,1.65,3.34,3.34,0,0,0,2,.46,3.4,3.4,0,0,0,2-.46A1.82,1.82,0,0,0,39.08,40V34.22H41V40a3.68,3.68,0,0,1-1.28,3.05,5.15,5.15,0,0,1-3.3,1Zm10-7.92v2.17a4.07,4.07,0,0,1,1.38-.46,11.64,11.64,0,0,1,1.6-.09h1a1.09,1.09,0,0,0,.72-.2.76.76,0,0,0,.23-.61.72.72,0,0,0-.26-.61,1.11,1.11,0,0,0-.69-.2Zm0,4.1v1.61h4a2.07,2.07,0,0,0,1-.2,1,1,0,0,0,.46-.9.94.94,0,0,0-.36-.8,2,2,0,0,0-1.13-.26h-1a10.14,10.14,0,0,0-1.84.11,4,4,0,0,0-1.14.44Zm7.34.55a2.74,2.74,0,0,1-.9,2.18,3.62,3.62,0,0,1-2.48.79H44.47V34.22h5.85a3,3,0,0,1,1.43.34,2.8,2.8,0,0,1,1.06,1,2.52,2.52,0,0,1,.39,1.38,2.13,2.13,0,0,1-.62,1.64,2.1,2.1,0,0,1,.83.91,3,3,0,0,1,.29,1.31ZM61.07,44h0a5.07,5.07,0,0,1-3.28-1A3.66,3.66,0,0,1,56.46,40V34.22h1.89V40a1.83,1.83,0,0,0,.75,1.65,3.34,3.34,0,0,0,1.95.46,3.43,3.43,0,0,0,2-.46A1.85,1.85,0,0,0,63.76,40V34.22h1.89V40a3.7,3.7,0,0,1-1.28,3.05,5.15,5.15,0,0,1-3.3,1Zm15.58-2.94,1.1,1.58a5.33,5.33,0,0,1-1.79,1,6.61,6.61,0,0,1-2.13.35,6.21,6.21,0,0,1-2.74-.61A5.13,5.13,0,0,1,69,41.7a4.86,4.86,0,0,1-.81-2.76,4.72,4.72,0,0,1,.83-2.74,4.94,4.94,0,0,1,2.08-1.7,6.28,6.28,0,0,1,2.72-.59,7.08,7.08,0,0,1,2.06.3,5.56,5.56,0,0,1,1.77.89l-1.27,1.47A4.33,4.33,0,0,0,75.2,36a4.74,4.74,0,0,0-1.35-.19,4.29,4.29,0,0,0-1.76.35,2.88,2.88,0,0,0-1.33,1A3,3,0,0,0,70.23,39a3,3,0,0,0,.53,1.76,3.28,3.28,0,0,0,1.36,1,4.51,4.51,0,0,0,1.75.33,4.31,4.31,0,0,0,1.49-.27,4,4,0,0,0,1.29-.76Z" transform="translate(0 0)"/></svg>