<svg id="Layer_1" data-name="Layer 1" xmlns="http://www.w3.org/2000/svg" viewBox="0 0 80 83.93"><defs><style>.cls-1{fill:#f2f2f2;}.cls-2{fill:#fadc05;}.cls-2,.cls-3,.cls-4,.cls-5,.cls-6,.cls-7{fill-rule:evenodd;}.cls-3{fill:#049b3b;}.cls-4{fill:#042573;}.cls-5{fill:#e9f5f2;}.cls-6{fill:#5d9a1d;}.cls-7{fill:#060606;}</style></defs><rect class="cls-1" width="80" height="80" rx="40"/><g id="svgg"><path id="path0" class="cls-2" d="M38.19,71.05l-.35.22-.52.33-.54.35-.22.14-1.26.8-.17.11-.27.17-.29.19c-.58.37-.9.58-1,.62l-.24.16-.81.52-.41.26-.33.21-.26.17-.36.23-.41.26-.45.28c-.74.47-.68.43-.59.49a1.84,1.84,0,0,1,.18.12l1.17.75c.08,0,.6.38,1.19.75l.43.28.36.23.67.43.64.41.37.23.35.23.27.17.27.17.4.26.43.27.56.36.56.36.16.1.18.11.51.32a.41.41,0,0,0,.15-.08l.32-.2.59-.38.64-.41.4-.26.35-.22.61-.39,1.59-1,.7-.44.42-.27.42-.27.46-.29.38-.25.33-.2.35-.23.35-.22.71-.47a8.93,8.93,0,0,0-1.28-.84l-.57-.36L44.83,75l-.7-.44-1.24-.8c-.41-.25-.81-.51-.91-.58l-.52-.33-.35-.22-.79-.51L40.1,72l-.59-.38L39,71.22c-.3-.2-.5-.32-.51-.32a1.57,1.57,0,0,0-.25.15m.86,1.78a4,4,0,0,1,1.12.38,3.82,3.82,0,0,1,1.7,1.85,3.15,3.15,0,0,1,.27,1.43,2.71,2.71,0,0,1-.1.91,3.54,3.54,0,0,1-.64,1.36,4,4,0,0,1-.29.33,3.69,3.69,0,0,1-1.2.84l-.14,0a3.24,3.24,0,0,1-1.16.23,3.45,3.45,0,0,1-1.1-.1c-.07,0-.36-.11-.42-.13L37,79.92a3.73,3.73,0,0,1-2.21-3,6,6,0,0,1,0-1,5,5,0,0,1,.22-.75c0-.06,0-.13.06-.15a3.07,3.07,0,0,1,.43-.72A3.71,3.71,0,0,1,38,72.81a8.85,8.85,0,0,1,1,0" transform="translate(0 0)"/><path id="path1" class="cls-3" d="M27.84,76.51v7.42H49V69.09H27.84v7.42m10.68-5.6a.48.48,0,0,0,.14.09l.31.2.59.38c.1.06.14.08.42.27l.27.17.15.1.5.32.36.23.57.36.38.24.2.13.15.09.4.26h0l.48.3.08.06.53.34.21.14.31.19.26.16c.14.1.24.17.51.34l.5.32.25.15.36.24.05,0,.18.11.35.22c.22.15.22.15.06.25a5.28,5.28,0,0,0-.53.35l0,0-.11.06-.39.25-.3.19-.33.21-.21.13-.33.22-.09,0-.11.08-.38.23-.15.1-.35.22-.16.11-.13.08-.13.08-.47.3-.26.17-.21.13-.22.14L42,79.9l-.24.15-.26.17-.42.27-.16.1-.15.1-.09,0-.09.05-.06,0-.08,0-.15.1-.2.13-.18.11-.12.07-.06,0-.06,0-.11.06a1,1,0,0,1-.22.14l-.16.11-.1.06-.26.16-.12.08-.13.09c-.1.07-.11.07-.46-.17-.12-.08-.27-.18-.35-.22l-.17-.11-.13-.09-.13-.08-.09,0L37,81.2l-.3-.19-.19-.12-.26-.16-.33-.21-.21-.14-.26-.16-.3-.2L35,79.93l-.23-.15-.79-.5L33.46,79l-.29-.18-.12-.08-.13-.08-.11-.07-.22-.15-.15-.09-.16-.1-.19-.13L32,78l-.1-.06-.24-.15-.25-.16L31,77.37l-.47-.3-.24-.16-.11-.06a2.1,2.1,0,0,0-.28-.18l-.1-.07-.1-.07s0-.06.18-.17l.28-.18.17-.1.17-.12.23-.14.19-.12.47-.3.12-.08.18-.12.22-.13L32,75l.2-.12.22-.14.11-.07.37-.24.15-.09.12-.08s0,0,0,0,0,0,0,0,.28-.16.52-.32L34,73.7l.19-.13.14-.08.41-.27.22-.14.28-.17a1.91,1.91,0,0,1,.21-.14l.12-.07a.43.43,0,0,1,.11-.08.83.83,0,0,0,.17-.11l.08,0,0,0,.14-.1.22-.14.11-.07.11-.06.11-.07.15-.1.24-.15.38-.25.6-.38.15-.1.14-.09,0,0a.12.12,0,0,1,.16,0M36.08,75c-.08,0-.07,0-.06.22v.12h.19c.12,0,.15-.26,0-.32s-.05,0-.16,0m.39.1v.24h.13c.15,0,.18,0,.17,0s0,0-.13,0h-.11v0s0,0,.07,0h.1c.06,0,0,0-.06,0s-.17-.08,0-.09.17,0,.07,0h-.24v.11M35.56,75a1,1,0,0,0,0,.34s0,0,0-.06.13-.11.17,0,.07.09.06,0a.29.29,0,0,1,0-.16c0-.08,0-.11-.16-.11h-.13m1.38,0a1,1,0,0,1,0,.15c0,.05,0,.1,0,.11s0,0,0,0,0-.09.06,0,.07.12.07.06a.17.17,0,0,1,0-.07c0-.06,0,0,0,0s0,.07,0,0,0-.24,0-.24-.05,0-.08.09-.06.11-.08,0-.11-.18-.11-.06m-.72,0a.12.12,0,0,1,0,.2c-.09,0-.13,0-.13-.11s.08-.15.16-.09m-1.06,0a.19.19,0,0,0,0,.28c.1.09.24,0,.24-.15a.18.18,0,0,0-.25-.13m.61,0s0,0,0,.05-.18,0-.17,0,.11-.08.16,0m-.45.08a.1.1,0,0,1,0,.14c-.07.07-.15,0-.15-.08a.08.08,0,0,1,.15-.06m2.37,0c-.06.28-.06.28.1.29s.13,0,0-.06,0-.08,0-.07h.09s0,0-.08,0-.08,0-.07-.05,0,0,.1,0,.1,0-.08-.07-.06,0-.07,0m.71.09a.75.75,0,0,0-.06.3s0,0,0-.06,0,0,.13,0,.22-.14,0-.2-.15,0-.16,0m.15.07c.11,0,.07.12,0,.09s-.07,0-.07-.07,0-.05.11,0m.29,0a1.33,1.33,0,0,0-.07.29s0,0,0,0,0-.05.08,0,.09,0,.09.09,0,.06,0,.07,0,0,0-.09a.12.12,0,0,1,0-.09c.06-.06,0-.16-.08-.18l-.1,0s0,0-.06,0m.16.08c.06,0,0,.08,0,.08s-.15,0-.09-.1,0,0,.11,0m-2.36,0a.06.06,0,0,0,.06,0h-.06m2.68.13a.17.17,0,0,0,.07.32.18.18,0,0,0,.11-.29.17.17,0,0,0-.18,0m.14.09c0,.06,0,.07,0,.13s-.15,0-.15-.07.11-.14.16-.06m.24.12c-.09.11,0,.28.09.28s.05,0,.05,0,0,0,.07,0,0-.1,0-.11-.07,0-.05,0,0,0-.07,0,0,0,0-.07.12-.16.18-.08.08,0,.08,0-.19-.15-.27-.06m-4.43,0s0,0,0,0h0s0,0,0,0,0,0,0,0,0,0,0,0m4.88.1a1.05,1.05,0,0,0-.1.3s0,0,.05,0,.15-.07.16,0,.05.1.06,0a.16.16,0,0,1,0-.09c.06-.07.07-.13,0-.17s-.22-.09-.23-.07m.14.09q.08,0,0,.09a.21.21,0,0,1-.16,0c0-.07,0-.08.13,0m.26.15a.41.41,0,0,1,0,.09c-.08.12-.09.16-.07.18s.24.14.25.12,0,0-.1-.1-.08,0-.08-.07,0-.06.12,0,.1,0,.1,0l-.07-.06c-.08-.05-.09-.07-.07-.09s0,0,.11,0,.09,0,.1,0,0-.05,0-.05l-.12-.06c-.12-.07-.11-.07-.13,0m.4.26c-.05,0,0,.17.06.2s0,.09,0,.09-.1-.07-.1-.1a.08.08,0,0,0,0,0s0,0,0,0,.18.2.25.14,0-.08,0-.17-.07-.09-.05-.11.1,0,.1.06a.06.06,0,0,0,0,.06c.07,0,0-.12-.08-.16s-.08,0-.13,0m.39.25c-.05,0-.05.08,0,.17s.07.08,0,.11-.09,0-.11,0l0-.05s-.06,0-.05,0,.18.2.24.13,0-.08,0-.16-.07-.12,0-.12a.1.1,0,0,1,.08.08s0,.06.06,0,0-.11-.1-.17-.06,0-.11,0m.38.3c-.18.1-.09.38.11.3s.15-.27,0-.3-.08,0-.12,0m.11.06a.1.1,0,0,1-.06.19c-.11,0-.12-.14,0-.19s0,0,.08,0" transform="translate(0 0)"/><path id="path2" class="cls-4" d="M38.09,72.82a3.69,3.69,0,0,0-3,2l-.09.17h.08l.27,0a11.35,11.35,0,0,1,2.26.06l.27,0a9.26,9.26,0,0,1,2.15.68A8.86,8.86,0,0,1,42,76.9l.13.1s0-.38,0-.5A3.76,3.76,0,0,0,39.75,73a2.6,2.6,0,0,0-.37-.12,3.94,3.94,0,0,0-1.29-.1m1.53,2.44s0,0,.08,0h0l0,0a.11.11,0,0,0,0,.07s0,0-.05,0a0,0,0,0,0,0,0s0,0,0,0,0,0,0-.07,0,0,0,0h0s0,0,0,0,0,0,0,0m-3.79.21a7.61,7.61,0,0,0-.95.11,3.38,3.38,0,0,0-.1,1.5,3.73,3.73,0,0,0,1.84,2.66l.17.08.17.09a4.16,4.16,0,0,0,1.48.31A3.76,3.76,0,0,0,41.83,78c.16-.4.15-.36.08-.43a8.54,8.54,0,0,0-2.1-1.36L39.32,76a6.13,6.13,0,0,0-.68-.22l-.15,0a9,9,0,0,0-2.66-.26m-.33.31c.06,0,.07,0,0,0s0,0,0,.12,0,0,0,0-.06,0-.08,0-.06,0-.05,0,0-.06,0-.08,0,0,0,0,.05,0,.05,0,0-.07.06,0,0,0,.06,0m4,.47a.07.07,0,0,0,.05,0s0,0,0,0,0,0,0,0,0,0-.06,0-.06,0-.06,0a0,0,0,0,0,0-.05s0,0,0,0,0,0,0,0,0,0,0,0m-2.43.32s0,0,.05,0,.06,0,0,0,0,0,0,.06,0,.06,0,0,0,0-.06,0,0,0,0,0a0,0,0,0,0,0-.06s0,0,0,0,0,0,0,0,0,0,0,0,0,0,0,0m1.42.46s0,0,.05,0,0,0,0,0,0,0,0,.07,0,0,0,0,0,0-.06,0-.06,0,0,0,0-.05,0-.07,0,0,0,0a.05.05,0,0,0,0,0l0,0s0,0,0,0m-2.32.14s0,0,0,.06a.05.05,0,0,1,0-.09s.08,0,.08,0m-.38.13a.07.07,0,0,0,.07,0h0l0,0s-.05,0,0,.08,0,.06,0,0a.08.08,0,0,0-.09,0l0,0v-.06s0-.06,0-.08l0,0h.06s.06,0,.07,0,0,0,0,0a.14.14,0,0,1,0,0m3.18.1s0,0,0,0,0,0,0,.06,0,.07,0,0,0,0-.06,0-.06,0-.05,0a0,0,0,0,0,0-.06s0,0,0,0,.05,0,.05,0,0-.07,0,0,0,.05.06.05m-.86,0a0,0,0,0,0,0,0s.05,0,0,0,0,0,0,.06,0,.05-.05,0a0,0,0,0,0,0,0s0,0,0,0,0,0,0,0,0,0,0,0a0,0,0,0,0,0,0s0,0,0,0l0,0m-2.78.27s0,0,0,0,.06,0,0,0,0,0,0,.07,0,.07,0,0l0,0,0,0s0,0,0,0,0-.05,0-.06l0,0s0,0,0,0,.07,0,.07,0,0-.05,0-.05l0,0m3,0s0,.08,0,.08,0,0,0,0,0-.07.09,0m-1.75,0s0,0,0,0,.05,0,0,0a.07.07,0,0,0,0,.06s0,0,0,0,0,0-.06,0-.05,0,0,0,0,0,0-.07l0,0h0s.06,0,.06,0,0,0,0,0m4.52,0s0,0,.07,0,.06,0,0,0,0,0,0,.08,0,.06,0,0a.06.06,0,0,0-.09,0s-.05,0,0,0,0,0,0-.08l0,0h.06c.05,0,.06,0,.07,0s0-.06.05,0m.52.07s0,0,0,0,.05,0,0,0a.07.07,0,0,0,0,0s0,0,0,0,0,0,0,0,0,0,0,0a.11.11,0,0,0,0-.05,0,0,0,0,1,0,0s0,0,0,0l0,0,0,0m-.37.29s0,0,.06,0h0l0,0a.07.07,0,0,0,0,.07s0,0,0,0a.06.06,0,0,0-.06,0s-.06,0,0,0,0,0,0-.06,0,0,0,0,0,0,0,0l0,0s0,0,0,0m-2.74,0s0,0,.07,0h.05l0,0a.08.08,0,0,0,0,.09c0,.06,0,.07,0,0l0,0,0,0s0,0,0,0,0-.06,0-.09l0,0h.06s0,0,.07,0,0-.06,0-.06a.3.3,0,0,1,0,.06m-2,0s0,0,0,0,.05,0,0,0a.05.05,0,0,0,0,0s0,0,0,0h0s0,0,0,0a.07.07,0,0,0,0,0s0-.06,0-.06,0,0,0,0l0,0,0,0m.55.29s0,0,.05,0,.08,0,0,.06,0,0,0,.08,0,.07,0,0-.06,0-.1,0,0,0,0,0,0-.06,0-.08,0-.06,0-.06a.05.05,0,0,0,.06,0s0,0,0,0m4,0a.1.1,0,0,0,0,0s0,0,0,0,0,0,0,.06,0,.06,0,0,0,0-.05,0-.06,0,0,0,0,0,0-.07l0,0h0s.05,0,.07,0,0,0,.06,0m-.7.13s0,0,0,0,0,0,0,0,0,0,0,0,0,.06,0,0,0,0-.06,0,0,0,0,0a.08.08,0,0,0,0-.06s0,0,0,0,0,0,0,0,0,0,0,0,0,0,0,0m-1,0s0,0,0,0a0,0,0,0,1,0,0,.05.05,0,0,0,0,0s0,0-.06,0-.06,0-.06,0,0,0,0,0,0,0,0,0,0,0,0,0,0,0,0,0m1.46.07s0,0,0,0,0,0,0,0,0,0,0,0,0,0,0,0,0,0,0,0,0,0,0,0,0-.05,0,0,0,0,0,0l0,0v0l0,0m-.79,0s0,0,0,0,0,0,0,0,0,0,0,0h0s0,0,0,0,0,0,0-.06,0,0,0,0a.09.09,0,0,0,.05,0v0l0,0a.09.09,0,0,0,0,0m.38.2s0,0,0,0,.06,0,0,0a.08.08,0,0,0,0,.07s0,0,0,0a0,0,0,0,0-.07,0s0,0,0,0,0,0,0-.07l0,0h.06a.09.09,0,0,0,.06,0s0,0,0,0m-.75.09s0,0,0,0,.06,0,0,0,0,0,0,.08v.05l-.05,0s0,0-.06,0,0,0,0,0a.07.07,0,0,0,0-.06s0,0,0,0a0,0,0,0,0,.05,0s0,0,0,0,0,0,0,0m.75.3a.05.05,0,0,0,0,0s0,0,0,0a.07.07,0,0,0,0,.06s0,0-.06,0-.07,0-.06,0,0,0,0,0,0,0,0-.05,0,0,0,0,0,0,0,0m-1.86.16a0,0,0,0,1,0,.06s-.06,0,0-.06h.05" transform="translate(0 0)"/><path id="path3" class="cls-5" d="M35.73,74.93c-.56,0-.69.07-.71.12l0,.08a2.72,2.72,0,0,0-.14.44H35a9,9,0,0,1,2.54,0l.44.07a7.94,7.94,0,0,1,1.07.28,9.43,9.43,0,0,1,1.24.53,8.65,8.65,0,0,1,1.6,1.08c.12.11.15.13.16.1s0-.1,0-.2.05-.22.06-.27l0-.09,0,0-.5-.39c-.24-.16-.32-.22-.49-.32a8.07,8.07,0,0,0-1.23-.64l-.11,0a6.9,6.9,0,0,0-.81-.29,9.45,9.45,0,0,0-1.7-.34c-.31,0-1.21,0-1.5,0m.53.1c.08,0,.09.22,0,.29s-.06,0-.16,0H36V75h.11l.15,0m.5,0c.05,0,0,.06-.11.06s-.17.06,0,.06.14.07,0,.07-.1,0-.1,0,0,0,.13,0,.13,0,.12,0a0,0,0,0,1,0,0h-.3V75h.3m-.93,0a.12.12,0,0,1,0,.14s0,0,0,.06a.12.12,0,0,1,0,.07c0,.07,0,.07-.07,0s0,0-.09,0h-.07v0c0,.05,0,.09-.06.06s0-.34,0-.35.23,0,.25,0M37,75a.29.29,0,0,1,0,.1c0,.11,0,.11.08,0s0-.08.07-.09h0v.17c0,.17,0,.2-.06.18s0,0,0-.08v-.08l0,.08c-.05.1-.09.1-.11,0s0-.12,0,0,0,.11,0,.11,0-.07,0-.25S37,75,37,75m-1.65.09a.19.19,0,0,1,0,.28c-.19.08-.33-.2-.16-.32a.16.16,0,0,1,.2,0m.71.05v.11h.05c.09,0,.13,0,.13-.1s0-.11-.12-.11h-.06v.1m-.45-.07s0,.07,0,.07.11,0,.11-.05-.13,0-.15,0m-.42,0c-.07,0,0,.19,0,.19s.1-.12.05-.18-.06,0-.1,0m2.73,0s0,0-.1,0-.15,0,0,0,.08,0,.08,0,0,0-.09,0-.06,0-.08,0,0,0,.11.07.07,0,.07,0,0,0-.16,0l-.1,0V75.4a.43.43,0,0,1,0-.11s0-.07,0-.09a.08.08,0,0,1,0,0l.24,0m.59.08c.1,0,.14,0,.15.12s-.07.14-.2.11-.08,0-.09.06-.07.06-.07,0,.08-.34.11-.33l.1,0m1,0a0,0,0,0,1,0,0c-.05,0-.05,0,0,0s0,0,0,.05,0,0,0,0,0,0,.05,0,0,0,0,0,0,0,0-.06l.05,0h-.06s0,0-.06,0,0,0,0,0,0,0,0,0m-1.14.09s0,.06.07.07.13-.05,0-.08-.08,0-.09,0m.54,0c.15,0,.19.13.1.21a.08.08,0,0,0,0,.07c0,.06,0,.11,0,.11s0,0,0-.07,0-.09-.09-.1,0,0-.06,0,0,.07-.06.06a.7.7,0,0,1,.09-.35l.12,0m-.1.07a.06.06,0,0,1,0,0s.07.06.13.06a0,0,0,0,0,0-.07s-.15,0-.15,0m.62.15c.14.17-.07.41-.23.26a.18.18,0,0,1,.13-.3c.06,0,.08,0,.1,0m-.15,0a.1.1,0,0,0,0,.16s.09,0,.13,0,0-.19-.11-.13m-4,.08s0,.05-.07.05h0l0,0s0,0,0,.08,0,0,0,0,0,0,.07,0,0,0,0,0,0,0,0-.07l0,0h0s-.06,0-.07-.05v0l0,0m4.53,0s.06.12,0,.12,0,0,0-.05-.22,0-.16.12.11,0,.09,0,.06,0,.13,0-.07.16-.09.16,0,0,0,0,0,0,0,0-.13,0-.15-.08.13-.35.26-.22m.37.13c.13,0,.17.14.08.21a.1.1,0,0,0,0,.09c0,.07,0,.1-.06.08s0,0,0-.07,0-.07,0-.09-.08,0-.1,0-.06.06-.08,0a.17.17,0,0,1,0-.08l.08-.2s0,0,.16,0m-.12.06v0s.11.07.14.06,0-.06,0-.08-.1,0-.1,0m.54.19c.17.09.16.16,0,.07s-.19,0-.05,0,.07,0,.07.07,0,0-.12,0-.07,0-.09,0,0,.06.09.11.12.08.09.11-.28-.11-.28-.15a1.17,1.17,0,0,1,.17-.29l.13.07m-1.28.1s0,0,0,0,0,0,0,0,0,0,0,.06,0,0,0,0,0,0,.06,0,0,0,0,0,0,0,0-.05,0,0,0,0,0,0,0,0,0,0,0,0a0,0,0,0,0,0,0m1.66.13c.09,0,.14.14.09.17s-.07,0-.07,0a.11.11,0,0,0-.08-.08s0,0,0,.11,0,.27-.13.17-.13-.14-.09-.18.08,0,.08,0a.11.11,0,0,0,.08.09s0,0,0-.11,0-.26.12-.17M37,76.57a.05.05,0,0,1,0,0s-.05,0,0,0,0,0,0,.06v.05l0,0s0,0,.07,0,0,0,0,0a0,0,0,0,1,0-.06s0,0,0,0a.06.06,0,0,1-.05,0v0l0,0m4.45.07a.16.16,0,0,1,.11.13c0,.08-.06.07-.08,0s-.1-.1-.1,0a.18.18,0,0,0,0,.07c.07.08.08.13,0,.18s-.15,0-.23-.06,0-.14,0-.14a.06.06,0,0,1,.06.06c0,.06.1.12.12.08s0,0,0-.09,0-.26.1-.18m.38.29a.17.17,0,0,1-.08.33c-.17,0-.2-.25,0-.33s.06,0,.12,0M38.42,77a.06.06,0,0,1-.06.06s0,0,0,0,0,0,0,.06v0l0,0s0,0,.06,0,0,0,0,0,0,0,0,0,0-.06,0,0a.07.07,0,0,1-.08-.06s0,0,0,0l0,0m3.3,0c-.08.11,0,.22.11.12a.11.11,0,0,0,0-.14.1.1,0,0,0-.13,0m-5.64.12s0,.07,0,.06.07,0,0-.07,0,0,0,0m-.37.16s0,0-.06,0h0l0,0s0,0,0,.08,0,0,0,0,0,0,.08,0,0,0,0,0,0,0,0-.07l0,0h-.05a.07.07,0,0,1-.07,0,.08.08,0,0,0,0,0s0,0,0,0m3.15,0a.08.08,0,0,0,0,0s0,0-.05,0h0l0,0s0,0,0,.06,0,.05,0,0,0,0,.06,0l0,0v-.05s0,0,0-.07,0,0,0,0,0,0-.06-.05,0,0,0,0m-.82,0s0,0,0,0,0,0,0,0,0,0,0,0,0,0,.05,0,.06,0,0,0a.1.1,0,0,1,0,0s0,0,0,0a0,0,0,0,1,0,0l0,0s0,0,0,0m-2.77.25a.1.1,0,0,0,0,0s0,0,0,0h0l0,0s0,0,0,.07,0,0,0,0a.08.08,0,0,1,.07,0s0,0,0,0,0-.05,0-.07l0,0h0a.07.07,0,0,1-.06,0s0,0,0,0m1.23.05s0,0,0,0,0,0,0,0,0,0,0,.06,0,0,0,0h0s0,0,0,0,0,0,0,0,0,0,0,0a.06.06,0,0,1,0,0l0,0v0m1.72,0s0,0,0,.06,0,0,0,0a0,0,0,0,0-.06,0m2.79,0s0,0-.06,0-.06,0,0,0,0,0,0,.07a.18.18,0,0,0,0,.06l0,0,0,0,0,0c.05,0,.05,0,0,0s0,0,0-.06,0,0,0,0,0,0-.06,0l0,0s0,0,0,0m.53.07a.05.05,0,0,1,0,0s0,0,0,0a.08.08,0,0,1,0,.05s0,0,0,0h.07s0,0,0,0,0,0,0,0,0,0,0,0,0,0,0,0v0l0,0m-.38.28s0,0,0,0,0,0,0,0,0,0,0,.06,0,0,0,0,.05,0,.08,0,0,0,0,0a.06.06,0,0,1,0-.07s0,0,0,0,0,0,0,0l0,0,0,0m-4.76,0,0,0s0,0,0,0a0,0,0,0,1,0,0s0,0,0,0a0,0,0,0,1,.07,0s0,0,0,0,0,0,0,0,0,0,0,0,0,0,0,0,0,0,0,0m2,0s0,0-.06,0H38.3l0,0s0,0,0,.07,0,.06,0,0a0,0,0,0,1,.07,0c.05,0,.06,0,0,0s0,0,0-.07l0,0h-.06s-.05,0-.06,0l0,0s0,0,0,0m-1.48.27a.06.06,0,0,1-.06,0s0,0,0,0,0,0,0,.06,0,.06,0,0,.05,0,.08,0,.06,0,0,0,0,0,0-.07.05,0,0,0a.07.07,0,0,1-.08-.07s0,0,0,0m4,0s0,0-.06,0,0,0,0,0a.07.07,0,0,1,0,.07s0,0,0,0,0,0,.07,0l0,0v0s0-.06,0-.08l0,0h0a.08.08,0,0,1-.07,0l0,0v0m-.69.14s0,0,0,0,0,0,0,0,0,0,0,0,0,0,0,0,0,0,0,0,0,0,0,0a.06.06,0,0,1,0,0s0,0,0,0,0,0,0,0l0,0s0,0,0,0m-1,0s0,0,0,0,0,0,0,0,0,0,0,0,0,0,0,0,.06,0,.06,0,0,0,0,0,0,0,0,0,0,0,0,0,0,0,0,0m1.41,0a.05.05,0,0,1,0,0s0,0,0,0a.07.07,0,0,1,0,.06s0,0,0,0,0,0,.06,0,0,0,0,0,0,0,0,0,0,0,0,0a.05.05,0,0,1,0,0v0l0,0m-.8,0s0,0,0,0,0,0,0,0a.08.08,0,0,1,0,0s0,0,0,0,.05,0,.05,0a.08.08,0,0,1,0,0s0,0,0,0l0,0s0,0,0,0m.42.22s0,.05-.06.05h0l0,0a.06.06,0,0,1,0,.07s0,0,0,0,0,0,.06,0,0,0,0,0,0,0,0-.06l0,0h0s0,0,0,0,0-.07,0,0m-.75.11s0,0-.05,0h0l0,0s0,0,0,.07v0l0,0a0,0,0,0,1,.07,0s.05,0,0,0,0,0,0-.06l0,0h0s0,0,0,0,0,0,0,0,0,0,0,0m.76.29a0,0,0,0,1,0,0s0,0,0,0,0,0,0,0,0,0,0,0,0,0,0,0,0,0,0,0a0,0,0,0,1,0,0s0,0,0,0a.05.05,0,0,1,0,0l0,0v0m-1.87.17a0,0,0,0,0,0,0,0,0,0,0,0,0,0s0,0-.06,0" transform="translate(0 0)"/><path id="path4" class="cls-6" d="M38.36,70.91l0,0-.14.09-.15.1-.6.38-.38.25-.24.15-.15.1-.11.07-.11.06-.11.07-.22.14-.14.1,0,0-.08,0a.83.83,0,0,1-.17.11.43.43,0,0,0-.11.08l-.12.07a1.91,1.91,0,0,0-.21.14l-.28.17-.22.14-.41.27-.14.08L34,73.7l-.27.17c-.24.16-.49.31-.52.32s0,0,0,0,0,0,0,0l-.12.08-.15.09-.37.24-.11.07-.22.14L32,75l-.12.09-.22.13-.18.12-.12.08-.47.3-.19.12-.23.14-.17.12-.17.1-.28.18c-.16.11-.22.16-.18.17l.1.07.1.07a2.1,2.1,0,0,1,.28.18l.11.06.24.16.47.3.45.29.25.16.24.15L32,78l.1.06.19.13.16.1.15.09.22.15.11.07.13.08.12.08.29.18.48.31.79.5.23.15.15.09.3.2.26.16.21.14.33.21.26.16.19.12.3.19.25.17.09,0,.13.08.13.09.17.11c.08,0,.23.14.35.22.35.24.36.24.46.17l.13-.09.12-.08.26-.16.1-.06.16-.11a1,1,0,0,0,.22-.14l.11-.06.06,0,.06,0,.12-.07.18-.11.2-.13.15-.1.08,0,.06,0,.09-.05.09,0,.15-.1.16-.1.42-.27.26-.17L42,79.9l.26-.17.22-.14.21-.13.26-.17.47-.3.13-.08.13-.08.16-.11.35-.22.15-.1.38-.23.11-.08.09,0,.33-.22.21-.13.33-.21.3-.19.39-.25.11-.06,0,0a5.28,5.28,0,0,1,.53-.35c.16-.1.16-.1-.06-.25l-.35-.22L46.52,76l-.05,0-.36-.24-.25-.15-.5-.32c-.27-.17-.37-.24-.51-.34l-.26-.16-.31-.19-.21-.14-.53-.34-.08-.06-.48-.3h0l-.4-.26-.15-.09-.2-.13L41.83,73l-.57-.36-.36-.23-.5-.32-.15-.1L40,71.85c-.28-.19-.32-.21-.42-.27L39,71.2l-.31-.2a.48.48,0,0,1-.14-.09.12.12,0,0,0-.16,0m.16,0,.43.28.56.35.59.38.22.14.79.51.35.22.52.33c.1.07.5.33.91.58l1.24.8.7.44.52.34.57.36a8.93,8.93,0,0,1,1.28.84l-.71.47-.35.22-.35.23-.33.2-.38.25-.46.29-.42.27-.42.27-.7.44-1.59,1-.61.39-.35.22-.4.26-.64.41-.59.38-.32.2a.41.41,0,0,1-.15.08l-.51-.32-.18-.11-.16-.1L37,81.22l-.56-.36L36,80.59l-.4-.26-.27-.17L35.09,80l-.35-.23-.37-.23-.64-.41-.67-.43-.36-.23-.43-.28c-.59-.37-1.11-.71-1.19-.75l-1.17-.75a1.84,1.84,0,0,0-.18-.12c-.09-.06-.15,0,.59-.49l.45-.28.41-.26.36-.23.26-.17.33-.21.41-.26.81-.52.24-.16c.08,0,.4-.25,1-.62l.29-.19.27-.17.17-.11,1.26-.8.22-.14.54-.35.52-.33.6-.37.08,0M38,72.81a2.38,2.38,0,0,0-.4.07h0l.55-.08c.14,0,.14,0,0,0H38m.71,0,.55.08s0,0,0,0a2.74,2.74,0,0,0-.53-.09h0M37.32,73a2.91,2.91,0,0,0-.56.24l.19-.07a3.26,3.26,0,0,1,.53-.2c.05,0,.06,0,0,0l-.2,0m2,0,.15,0a3.71,3.71,0,0,1,2.15,1.73,1,1,0,0,1,.07.12s0,0,0-.1a3.83,3.83,0,0,0-1.83-1.64,3.67,3.67,0,0,0-.52-.17s0,0,0,0m-2.82.39a3.73,3.73,0,0,0-1.42,1.53C35,75,35,75,35.08,75s0,0,0,0,.2-.46.4-.73a4,4,0,0,1,1.18-1c.08-.05.1-.06.07-.06l-.19.1m5.21,1.53a1.2,1.2,0,0,0,.08.18,4,4,0,0,1,.3,1.16l0,.21V76.2a3.88,3.88,0,0,0-.18-.9c0-.09-.08-.21-.09-.24-.09-.21-.12-.26-.12-.23M35.43,75h0s0,0,0,0,0,0,0,0M36,75s0,0,.06,0,.09,0,0,0H36m.47,0v0a.11.11,0,0,0,0-.08v0m-.77,0c.08,0,.11,0,.13,0a0,0,0,0,0,0,0S35.8,75,35.7,75h0m1.06,0s0,0-.11,0-.12,0-.12,0h0s0,0,.12,0,.15,0,.12,0,0,0,0,0M37,75l.05,0s0,0,0,0,0,0-.07,0h0m-1.72,0,.1,0,0,0,0,0a.23.23,0,0,0-.1,0c-.06,0-.06,0,0,0m.3,0v0a.06.06,0,0,0,0-.06v0m.57,0h.06s0,0,0,0,0,0,0,0m.81.06v0a.06.06,0,0,0,0-.06v0m-.86,0v0a.14.14,0,0,0,0-.09v0m-.06.06v.07a.29.29,0,0,0,0-.13v.06m.31-.06s0,0,0,0v-.06s0,0,0,0m.31,0c.08,0,.11,0,.07,0s0,0,0,0,0-.06-.06-.06h0m1.25,0c.06,0,.07,0,0,0h0c.08,0,.08,0,0-.06h0l0,0m-1.31,0h0s-.05,0,0,0m.34,0s0,0,0,0v0s0,0,0,0m.06.05s0,0,0,0v-.06s0,0,0,0m-1.28,0a.06.06,0,0,0,.06,0h-.06m.58.06s0,0,0,0l0,0s0,0,0,0m.9,0c0,.08.06.09.06,0s0,0,0,0,0,.05,0,0v0m-.61,0h0m2.09,0q.06.09,0,0a.11.11,0,0,0,0-.06s0,0,0,0m-2.79,0s0,0,0,0,0,0,0,0,.06,0,.06,0,0,0,0,0v0m1.17,0s0,0,0,0,0,0,0,0a0,0,0,0,1,0,0s0,0,0,0m1.56.06s0,0-.05,0,0,0,0,0,.13,0,.1,0,0,0,0,0m-2.67,0a.09.09,0,0,0,.07,0h-.07m3.18.05a.09.09,0,0,1,0,.09l0,0,0,0s.06-.12,0-.14,0,0,0,.05m-3.6,0a0,0,0,0,0,0,0h0m1.58,0a.09.09,0,0,0,.07,0h-.07m.75,0a0,0,0,0,0,.05,0h-.05m.55.08s0,0,0,0,0,0,0,0,0,0,.07,0v0s0,0,0,0m-3.57.11a2.56,2.56,0,0,0-.07.86,4.16,4.16,0,0,0,0,.5s0,0,0,0a4.1,4.1,0,0,1,.09-1.44s0,0,0,0,0,0,0,.11m4.64-.1,0,0s0,0,0,0l0,0s0,0,0,0m-.19.06a.24.24,0,0,0,0,.07v.05l0-.06a.49.49,0,0,1,0-.07h0a0,0,0,0,0,0,0m.28.1s0,.05,0,0v-.06s0,0,0,0m.24,0a.09.09,0,0,0,.07,0h-.07m-.14.18s0,0,0,0v-.06s0,0,0,0m.74.17,0,0,0,0a.09.09,0,0,0,0,0s0,0,0,0m-.35.06v0s0,0,0,0,0,0,0,0m.77.1s0,0,0,0a0,0,0,0,0,0,0s0,0,0,0m-.55,0a0,0,0,0,0,.06,0s0,0,0,0h0s0,0,0,0m-.86.1v0s0-.06,0-.07,0,0,0,0m1.29.12a0,0,0,0,1,0,0s0,0,0,0,0,0,0,0,0,0,0,0m.5,0a.07.07,0,0,1,0,0s0,0,0,0,0-.07,0-.09,0,0,0,0m-.34,0s0,.08,0,.08,0,0,0,0v0h0m.62.11s0,0,0,0,0,0,0,0-.08-.06-.08,0m.66.19a.41.41,0,0,1,0,.17s0,0,0,0,0,0,0-.17,0-.17,0-.17l0,.16m-1-.12a.1.1,0,0,1-.07,0,.07.07,0,0,0-.05,0s.1,0,.13,0a0,0,0,0,0,0,0,.07.07,0,0,0,0,0m.29,0s0,0,0,0a0,0,0,0,0,0,0,.1.1,0,0,0,0,0s0,0,0,0m.09.24s0,0,0,0,.06-.07,0-.08,0,0,0,0m.16.07a.24.24,0,0,0,0,.09v0a.17.17,0,0,1,0-.09s0,0,0,0l0,0m-3.23,0s0,0,0,0,0,0,0,0,.07,0,.06,0,0,0,0,0m-3.62.12a3.55,3.55,0,0,0,.48,1.26A3.74,3.74,0,0,0,37,79.92l.14.06.43.13-.13,0L37,79.91l-.17-.09a2.16,2.16,0,0,1-.37-.21,3.7,3.7,0,0,1-1.59-2.26l0-.21c0-.06,0-.06,0,0m7.18.48s0,0,0,0,0-.08,0-.08a.2.2,0,0,0,0,.05m0,.11-.09.23,0,.07s0,0,.09-.2.06-.15.05-.15a.14.14,0,0,0,0,.05m-.13.33a.49.49,0,0,0,0,.09s.06-.09,0-.1a0,0,0,0,0,0,0m-.63.12s0,0,0,0a0,0,0,0,1,0,0s0,0,0,0-.06,0-.07,0m.53.07A3.78,3.78,0,0,1,39.58,80l-.07,0a.87.87,0,0,0,.26-.08l.14,0a3.69,3.69,0,0,0,1.2-.84,4,4,0,0,0,.29-.33,2.51,2.51,0,0,0,.34-.56l-.05.08m-2.48.37s0,0,0,0,0,0,0,0h-.08m.13,1.45a3,3,0,0,1-.54.09l-.19,0h.16a4.15,4.15,0,0,0,.71-.13s0,0-.14,0m-1.76,0a.74.74,0,0,0,.24,0s0,0-.08,0l-.16,0m.27.06.23,0c.26,0,.28,0,.27,0l-.49,0s0,0,0,0" transform="translate(0 0)"/></g><path id="path0-2" data-name="path0" class="cls-7" d="M6.67,20.39a.76.76,0,0,0-.24.07,1.56,1.56,0,0,1-.27.06.45.45,0,0,0-.24.1.57.57,0,0,1-.17.12,1.54,1.54,0,0,0-.45.43.74.74,0,0,1-.12.16.25.25,0,0,0-.09.19.8.8,0,0,1-.1.23A2,2,0,0,0,5,23a.72.72,0,0,1,.1.22.72.72,0,0,0,.1.22.57.57,0,0,1,.12.21c0,.06.06.11.1.11a.14.14,0,0,1,.08.09.23.23,0,0,0,.11.11s.08.06.08.07a.74.74,0,0,0,.16.2c.09.09.25.27.34.38l.28.33a.47.47,0,0,1,.12.16,0,0,0,0,0,0,0s.08.05.12.12.1.12.12.12.07,0,.09.09a.24.24,0,0,0,.1.1.21.21,0,0,1,.1.09.18.18,0,0,0,.09.1.42.42,0,0,1,.17.13,3,3,0,0,0,.4.33.36.36,0,0,1,.11.1l.13.1s.09.06.09.09.08.08.17.12a.47.47,0,0,1,.16.1.22.22,0,0,0,.12.07.42.42,0,0,1,.16.13.15.15,0,0,0,.1.07.6.6,0,0,1,.29.16.53.53,0,0,0,.15.08.35.35,0,0,1,.17.09.44.44,0,0,0,.18.09.49.49,0,0,1,.19.1.7.7,0,0,0,.23.11,2,2,0,0,1,.29.13.33.33,0,0,0,.22.08.39.39,0,0,1,.28.13l.27.07a.78.78,0,0,1,.33.11,1.16,1.16,0,0,0,.41.1,1.22,1.22,0,0,1,.46.11,1.67,1.67,0,0,0,.63.09,6.27,6.27,0,0,1,.69.06l.36.06.77,0a5.82,5.82,0,0,1,1.84.15,1,1,0,0,0,.43.1.73.73,0,0,1,.38.1.45.45,0,0,0,.19.09.64.64,0,0,1,.36.12.46.46,0,0,0,.21.09.78.78,0,0,1,.26.11.4.4,0,0,0,.17.09.25.25,0,0,1,.15.1.34.34,0,0,0,.17.11.59.59,0,0,1,.2.12.77.77,0,0,0,.15.1.27.27,0,0,1,.11.1c0,.05,0,.08.07.08a.38.38,0,0,1,.14.12.39.39,0,0,0,.15.12s.06,0,.08.07a.19.19,0,0,0,.09.09.22.22,0,0,1,.1.11.25.25,0,0,0,.11.12.19.19,0,0,1,.09.11.22.22,0,0,0,.1.12c.05,0,.09.06.09.08a.55.55,0,0,0,.11.17,1,1,0,0,1,.12.22.31.31,0,0,0,.1.14.25.25,0,0,1,.1.15.54.54,0,0,0,.1.18,1,1,0,0,1,.1.23.62.62,0,0,0,.11.23.45.45,0,0,1,.1.24.47.47,0,0,0,.09.26c.07.07.09.14.12.38a1.42,1.42,0,0,0,.07.35c.08.08.11.21.14.62a1.47,1.47,0,0,0,.09.55,1,1,0,0,1,.08.33c0,.27,0,.31.11.41a.7.7,0,0,1,.11.21.59.59,0,0,0,.11.19,1,1,0,0,1,.14.19.28.28,0,0,0,.09.11.32.32,0,0,1,.1.09.76.76,0,0,0,.22.17.51.51,0,0,1,.16.11s.1.06.2.08a1.25,1.25,0,0,1,.34.12l.16.08H25l.2-.1.23-.1c.22,0,.42-.6.37-1.11a9.84,9.84,0,0,1-.09-1.22,2.43,2.43,0,0,0-.11-.86,1.33,1.33,0,0,1-.1-.56c0-.23,0-.33-.09-.39a.76.76,0,0,1-.12-.46.38.38,0,0,0-.08-.25.89.89,0,0,1-.12-.35.54.54,0,0,0-.11-.3.46.46,0,0,1-.1-.21.6.6,0,0,0-.1-.25.62.62,0,0,1-.1-.24.84.84,0,0,0-.09-.19.7.7,0,0,1-.11-.21.78.78,0,0,0-.11-.2.47.47,0,0,1-.09-.17.62.62,0,0,0-.1-.17.55.55,0,0,1-.12-.21c0-.07-.05-.13-.07-.13s-.07-.05-.11-.12a.83.83,0,0,0-.12-.17.51.51,0,0,1-.12-.18.34.34,0,0,0-.09-.13s-.06-.05-.09-.11a.4.4,0,0,0-.11-.14s-.08,0-.08-.06a4.89,4.89,0,0,0-.54-.59,4.93,4.93,0,0,0-.6-.55A.18.18,0,0,1,22,27s-.07-.09-.1-.09a.41.41,0,0,1-.13-.08.42.42,0,0,0-.14-.11.93.93,0,0,1-.19-.12.45.45,0,0,0-.17-.11.22.22,0,0,1-.1-.08.43.43,0,0,0-.19-.13.55.55,0,0,1-.21-.12.31.31,0,0,0-.15-.09.22.22,0,0,1-.15-.08.78.78,0,0,0-.2-.11.72.72,0,0,1-.2-.09.73.73,0,0,0-.25-.12,1,1,0,0,1-.25-.12.29.29,0,0,0-.18-.08.64.64,0,0,1-.34-.13.88.88,0,0,0-.27-.08.85.85,0,0,1-.35-.11.72.72,0,0,0-.37-.1.9.9,0,0,1-.37-.09c-.09-.06-.19-.08-.57-.11a2,2,0,0,1-.6-.11c-.16-.07-.14-.07-1.95-.11-1,0-1.05,0-1.17-.09a.72.72,0,0,0-.42-.09,1.11,1.11,0,0,1-.39-.07,1.14,1.14,0,0,0-.41-.15.44.44,0,0,1-.23-.09.65.65,0,0,0-.22-.1.45.45,0,0,1-.21-.1.5.5,0,0,0-.18-.09.55.55,0,0,1-.2-.11.68.68,0,0,0-.21-.12.51.51,0,0,1-.18-.12.12.12,0,0,0-.09-.07.25.25,0,0,1-.11-.09.62.62,0,0,0-.18-.14.22.22,0,0,1-.11-.07s0-.06-.1-.09a3.61,3.61,0,0,1-.68-.64,4.33,4.33,0,0,1-.41-.5.32.32,0,0,0-.08-.1.33.33,0,0,1-.1-.12c0-.07-.1-.12-.12-.12s0,0,0,0a6.35,6.35,0,0,0-.5-.55,1.76,1.76,0,0,0-.67-.43l-.3-.07a1.07,1.07,0,0,0-.6-.06m26.06,3.38c-.44.09-.47.18-.47,1.43,0,1.5,0,1.45,1.41,1.47,1.13,0,1.32,0,1.4-.27a1.39,1.39,0,0,1,.1-.21,7.79,7.79,0,0,0,0-2,1,1,0,0,1-.12-.21c-.07-.15-.1-.17-.46-.23a11.68,11.68,0,0,0-1.87,0m23.62,3.82-.71.08c-.4,0-.47,0-.53.11a.86.86,0,0,1-.45.13.24.24,0,0,0-.16.09.26.26,0,0,1-.18.09.34.34,0,0,0-.27.12.38.38,0,0,1-.17.08.82.82,0,0,0-.2.12.48.48,0,0,1-.17.11.26.26,0,0,0-.14.09.37.37,0,0,1-.14.09.24.24,0,0,0-.12.1.1.1,0,0,1,0,.07,6,6,0,0,0-.77.73l-.27.3a.63.63,0,0,0-.12.18.58.58,0,0,1-.1.19.42.42,0,0,0-.09.14.28.28,0,0,1-.07.13.89.89,0,0,0-.13.24,2.17,2.17,0,0,1-.1.21.52.52,0,0,0-.12.3.34.34,0,0,1-.08.16.62.62,0,0,0-.12.36,1.44,1.44,0,0,1-.1.37,10.15,10.15,0,0,0,0,3.3.86.86,0,0,1,.11.38.83.83,0,0,0,.08.33.41.41,0,0,1,.12.27.41.41,0,0,0,.13.28.32.32,0,0,1,.06.13.86.86,0,0,0,.12.27.7.7,0,0,1,.11.21.17.17,0,0,0,.07.11.53.53,0,0,1,.13.2.61.61,0,0,0,.11.16.24.24,0,0,1,.08.09,6.5,6.5,0,0,0,.78.79s0,0,0,0,.05.06.12.09a.28.28,0,0,1,.14.1s0,.06,0,.06.29.13.29.17.07.06.16.08a1.12,1.12,0,0,1,.22.11.44.44,0,0,0,.23.09.55.55,0,0,1,.23.1.42.42,0,0,0,.26.1,1.16,1.16,0,0,1,.52.12c.1.08.44.11,1.33.1h.88l.17-.08a1.18,1.18,0,0,1,.39-.11c.2,0,.24-.05.32-.13a.25.25,0,0,1,.2-.09.15.15,0,0,0,.15-.07.74.74,0,0,1,.16-.12,1,1,0,0,0,.19-.14c.1-.1.38-.2.43-.15a1.47,1.47,0,0,1,0,.66s-.05.15-.07.39-.08.54-.14.54,0,.08-.06.16a.57.57,0,0,1-.1.22.51.51,0,0,0-.12.18,1.69,1.69,0,0,1-.73.67c-.06,0-.11.06-.11.08s-.17.14-.29.14a.27.27,0,0,0-.16.08c-.08.08-.11.09-.34.1a1.62,1.62,0,0,0-.38.07,2.41,2.41,0,0,1-1.05.1A2.63,2.63,0,0,1,55,42.3a2.4,2.4,0,0,0-.77-.11c-.33,0-.37,0-.48-.1a.43.43,0,0,0-.23-.08.73.73,0,0,1-.47-.14.19.19,0,0,0-.16-.07.69.69,0,0,1-.39-.12.31.31,0,0,0-.13-.08l-.15,0a.31.31,0,0,1-.14-.09.2.2,0,0,0-.2-.08,4.45,4.45,0,0,0,.1,1.75.62.62,0,0,1,.1.17c0,.17,0,.19.1.2a.16.16,0,0,1,.08.11.31.31,0,0,0,.1.12.37.37,0,0,1,.13.12c0,.05.07.09.09.09a.25.25,0,0,1,.11.09.21.21,0,0,0,.13.09.37.37,0,0,1,.25.16.39.39,0,0,0,.17.07.28.28,0,0,1,.21.1.23.23,0,0,0,.22.09.67.67,0,0,1,.39.13.93.93,0,0,0,.39.08,2.26,2.26,0,0,1,.49.09,6.84,6.84,0,0,0,2.63,0,1.68,1.68,0,0,1,.47-.08c.27,0,.35,0,.4-.09a.52.52,0,0,1,.35-.13.32.32,0,0,0,.23-.09.43.43,0,0,1,.15-.09.8.8,0,0,0,.34-.13.59.59,0,0,1,.17-.1A.87.87,0,0,0,59.9,44,.34.34,0,0,1,60,44c.08,0,.18-.05.18-.1s0-.06.06-.08.12-.08.52-.47.43-.44.45-.5a.19.19,0,0,1,.09-.09.12.12,0,0,0,.08-.09c0-.07.11-.26.15-.26a.3.3,0,0,0,.06-.13,1,1,0,0,1,.12-.23.31.31,0,0,0,.09-.17.41.41,0,0,1,.12-.29s.07-.1.09-.25a1.12,1.12,0,0,1,.13-.46,1.48,1.48,0,0,0,.08-.59,4.9,4.9,0,0,1,.06-.56c0-.14,0-6.2,0-6.45s0-.39-.06-.65a1.68,1.68,0,0,0-.08-.6,1.08,1.08,0,0,1-.13-.46.74.74,0,0,0-.11-.32,1,1,0,0,1-.1-.28.34.34,0,0,0-.1-.25.46.46,0,0,1-.09-.2.53.53,0,0,0-.11-.21.43.43,0,0,1-.11-.21.18.18,0,0,0-.11-.16s-.08-.07-.08-.09a.86.86,0,0,0-.12-.18.57.57,0,0,1-.12-.18s0-.07-.09-.1a.21.21,0,0,1-.09-.13s0-.07-.09-.09a.18.18,0,0,1-.11-.1.23.23,0,0,0-.12-.12s-.11-.07-.12-.1a.14.14,0,0,0-.09-.08,1.47,1.47,0,0,1-.44-.33.6.6,0,0,0-.21-.11,1.14,1.14,0,0,1-.22-.12.27.27,0,0,0-.17-.08.34.34,0,0,1-.18-.09.55.55,0,0,0-.28-.11c-.18,0-.33-.08-.35-.14a1.66,1.66,0,0,0-.5-.07c-.26,0-.58-.06-.72-.09a2.54,2.54,0,0,0-.87,0m-22.47.49c-.29,0-.33,0-.42.1a.41.41,0,0,1-.18.1c-.16,0-.18,0-.2.11s0,.06,0,.06a2.48,2.48,0,0,0-.54.58.43.43,0,0,1-.14.25c-.08.06-.09.54-.09,5,0,4.89,0,5,.15,5.15a.31.31,0,0,1,.08.15.34.34,0,0,0,.13.21.62.62,0,0,1,.08.12.3.3,0,0,0,.12.13.21.21,0,0,1,.11.09.2.2,0,0,0,.12.09.63.63,0,0,1,.2.13.25.25,0,0,0,.19.08.71.71,0,0,1,.27.09l.17.09h1.37V34.39c0-3.44,0-6.27,0-6.29a8.51,8.51,0,0,0-1.34,0m5.53,0c-.29,0-.33,0-.46.12a.88.88,0,0,1-.21.1.31.31,0,0,0-.15.09,3.2,3.2,0,0,1-.26.24l-.15.16a.38.38,0,0,1-.07.08A.28.28,0,0,0,38,29a.51.51,0,0,1-.09.18c-.16.21-.17.36-.15,4,0,3.26,0,3.7.12,3.8a.91.91,0,0,1,.12.42.57.57,0,0,0,.1.25.44.44,0,0,1,.09.22.37.37,0,0,0,.1.23.57.57,0,0,1,.11.22.27.27,0,0,0,.1.17.46.46,0,0,1,.12.18.58.58,0,0,0,.09.15s.05,0,.08.1a.68.68,0,0,0,.13.18,8.78,8.78,0,0,0,.66.65s0,0,0,.06a.19.19,0,0,0,.09.09.28.28,0,0,1,.12.1.28.28,0,0,0,.14.1.25.25,0,0,1,.14.08.7.7,0,0,0,.18.12.64.64,0,0,1,.18.13.2.2,0,0,0,.16.07.29.29,0,0,1,.2.11.26.26,0,0,0,.18.1c.11,0,.31.07.31.1s.16.09.38.11a1.91,1.91,0,0,1,.38.1,6.54,6.54,0,0,0,2.29,0,.68.68,0,0,1,.44-.12.42.42,0,0,0,.34-.12.58.58,0,0,1,.22-.09.56.56,0,0,0,.28-.12.29.29,0,0,1,.16-.09A.35.35,0,0,0,46,40.4a1.43,1.43,0,0,1,.21-.12.74.74,0,0,0,.16-.11.5.5,0,0,1,.13-.11.36.36,0,0,0,.15-.12.22.22,0,0,1,.1-.07.43.43,0,0,0,.16-.1c.06-.06.13-.12.16-.12a.17.17,0,0,0,.07-.09.22.22,0,0,1,.1-.09.24.24,0,0,0,.1-.12l.08-.12a.5.5,0,0,0,.11-.13,4.5,4.5,0,0,1,.34-.42.58.58,0,0,0,.11-.2.4.4,0,0,1,.09-.17.55.55,0,0,0,.11-.2.48.48,0,0,1,.09-.19.55.55,0,0,0,.1-.24.83.83,0,0,1,.11-.26.78.78,0,0,0,.1-.37,1.68,1.68,0,0,1,.12-.45l.07-.14V32.32c0-3,0-4.16,0-4.21s0-.06-.77,0-.9,0-1,.14a.36.36,0,0,1-.18.1.23.23,0,0,0-.16.1.36.36,0,0,1-.14.1.22.22,0,0,0-.1.09.22.22,0,0,1-.11.1s-.09.07-.09.11a.23.23,0,0,1-.06.12.76.76,0,0,0-.13.24,1,1,0,0,1-.12.25c-.06.08-.06.1-.08,3.4v3.31l-.08.14a1.19,1.19,0,0,0-.12.29.58.58,0,0,1-.09.22.56.56,0,0,0-.1.15,1.18,1.18,0,0,1-.13.18,1.6,1.6,0,0,0-.25.29s0,.05-.1.08a.42.42,0,0,0-.14.11.37.37,0,0,1-.13.11.91.91,0,0,0-.16.11.34.34,0,0,1-.19.09A.77.77,0,0,0,44,38l-.13.09H42.61L42.49,38a.91.91,0,0,0-.25-.11A.36.36,0,0,1,42,37.8a.33.33,0,0,0-.16-.11,1.88,1.88,0,0,1-.71-.72s0,0,0,0-.08-.07-.14-.24a.56.56,0,0,0-.09-.19c-.11-.13-.12-.5-.12-4.52,0-3,0-3.86,0-3.87a10.1,10.1,0,0,0-1.32,0m27.16,0c-.31,0-.34,0-.47.12l-.2.1a.35.35,0,0,0-.17.1,1.27,1.27,0,0,1-.2.16s-.08.06-.08.07,0,.07-.1.13a.78.78,0,0,0-.16.21.62.62,0,0,1-.11.17.35.35,0,0,0-.08.24c0,.11,0,.28-.08.38s0,6.28,0,6.43a2.33,2.33,0,0,1,.06.47.94.94,0,0,0,.09.47.85.85,0,0,1,.11.31.69.69,0,0,0,.11.28.61.61,0,0,1,.1.24.72.72,0,0,0,.13.25.22.22,0,0,1,.07.12.26.26,0,0,0,.07.14.76.76,0,0,1,.17.29.25.25,0,0,0,.09.11A.25.25,0,0,1,66,39a.63.63,0,0,0,.08.11c.05,0,.19.19.31.32.33.33.46.46.5.46s.06,0,.09.09a.36.36,0,0,0,.15.12.24.24,0,0,1,.12.08.39.39,0,0,0,.16.1.56.56,0,0,1,.18.13.5.5,0,0,0,.18.09.61.61,0,0,1,.23.11.32.32,0,0,0,.19.09.51.51,0,0,1,.29.11.71.71,0,0,0,.39.1.59.59,0,0,1,.27.08,5.76,5.76,0,0,0,2.41,0,.67.67,0,0,1,.31-.09.6.6,0,0,0,.42-.11.36.36,0,0,1,.15-.08l.18,0a.27.27,0,0,0,.12-.06.35.35,0,0,1,.23-.14.34.34,0,0,0,.16-.08.56.56,0,0,1,.23-.12c.08,0,.14-.06.14-.08s0-.07.11-.11a.54.54,0,0,0,.13-.11,1.24,1.24,0,0,1,.15-.13,4.37,4.37,0,0,0,.78-.78,1.21,1.21,0,0,1,.13-.16.6.6,0,0,0,.14-.18A.32.32,0,0,1,75,38.6a.22.22,0,0,0,.09-.16.22.22,0,0,1,.09-.16.37.37,0,0,0,.12-.23.56.56,0,0,1,.1-.22.45.45,0,0,0,.1-.23c0-.16.09-.34.13-.34s0-.06.09-.49a1.67,1.67,0,0,1,.08-.35c.12-.18.15-8.27,0-8.34a4.24,4.24,0,0,0-.85,0l-.8,0-.09.08a.36.36,0,0,1-.18.1.5.5,0,0,0-.21.12c0,.06-.1.11-.12.11a.24.24,0,0,0-.08.09s-.07.09-.09.09,0,0-.08.07a.32.32,0,0,1-.12.14.29.29,0,0,0-.1.17.44.44,0,0,1-.1.22l-.08.1,0,3.28c0,3.12,0,3.47-.09,3.47s-.09.14-.12.33a.47.47,0,0,1-.1.25.37.37,0,0,0-.08.15.35.35,0,0,1-.1.17l-.27.28a1.13,1.13,0,0,1-.19.18s-.06,0-.09.08a.29.29,0,0,1-.11.11.49.49,0,0,0-.15.09.7.7,0,0,1-.21.11,1,1,0,0,0-.34.15,3.18,3.18,0,0,1-1.51,0,.43.43,0,0,0-.2-.08.41.41,0,0,1-.21-.1.49.49,0,0,0-.16-.1c-.11,0-.17-.1-.46-.39s-.35-.38-.38-.51a.75.75,0,0,0-.1-.2.47.47,0,0,1-.12-.37.66.66,0,0,0-.07-.3l-.08-.15V28.15l-.06,0a4.35,4.35,0,0,0-1.19,0M57.3,30.6a2.09,2.09,0,0,0,.33.07.5.5,0,0,1,.25.09l.18.1a.31.31,0,0,1,.17.12s.06.08.09.08a.68.68,0,0,1,.16.12.48.48,0,0,0,.15.12s0,0,0,.07a.41.41,0,0,0,.1.14.25.25,0,0,1,.09.11.36.36,0,0,0,.09.15.61.61,0,0,1,.12.27.94.94,0,0,0,.1.26,1.18,1.18,0,0,1,.11.62,1.29,1.29,0,0,0,.07.4,1.27,1.27,0,0,1,0,.75,1.67,1.67,0,0,0-.06.4c0,.3-.08.5-.15.5a.46.46,0,0,0-.06.17.57.57,0,0,1-.12.27.29.29,0,0,0-.09.14.46.46,0,0,1-.1.17.79.79,0,0,0-.11.15,2.05,2.05,0,0,1-.42.41,1.25,1.25,0,0,0-.17.12.22.22,0,0,1-.12.07.25.25,0,0,0-.14.09.32.32,0,0,1-.23.11.73.73,0,0,0-.26.09,3.21,3.21,0,0,1-1.79,0,.77.77,0,0,0-.22-.09.75.75,0,0,1-.25-.13.34.34,0,0,0-.14-.09.47.47,0,0,1-.17-.12l-.15-.12s0,0-.07-.08a.89.89,0,0,0-.13-.18.58.58,0,0,1-.11-.2.45.45,0,0,0-.11-.17.24.24,0,0,1-.09-.17.55.55,0,0,0-.11-.32,5.09,5.09,0,0,1,0-2.54.42.42,0,0,0,.09-.24.24.24,0,0,1,.09-.18.34.34,0,0,0,.11-.18,2.7,2.7,0,0,1,.83-.9.7.7,0,0,0,.18-.13.2.2,0,0,1,.11-.06.61.61,0,0,0,.2-.09.69.69,0,0,1,.34-.12,2.24,2.24,0,0,0,.34-.07,1.18,1.18,0,0,1,.57-.07,1.45,1.45,0,0,1,.45.07M7.16,32,6.74,32l-.18.16c-.16.14-.19.19-.22.32a12,12,0,0,0,.06,2.27,2,2,0,0,1,.12.69.89.89,0,0,0,.12.54.7.7,0,0,1,.07.28,1.26,1.26,0,0,0,.11.48.89.89,0,0,1,.13.4.7.7,0,0,0,.09.24.62.62,0,0,1,.1.26.38.38,0,0,0,.09.24.61.61,0,0,1,.11.23,1,1,0,0,0,.12.25.23.23,0,0,1,.08.16.36.36,0,0,0,.09.19.5.5,0,0,1,.11.2.47.47,0,0,0,.09.17.36.36,0,0,1,.13.24.31.31,0,0,0,.1.17A2,2,0,0,1,8.4,40c0,.05,0,.08.06.08s.06.05.09.11a.39.39,0,0,0,.1.14,4.27,4.27,0,0,1,.32.34,8,8,0,0,0,1.19,1.13,0,0,0,0,1,0,0s0,.07.1.09a.38.38,0,0,1,.15.12.28.28,0,0,0,.13.09.44.44,0,0,1,.2.12.45.45,0,0,0,.17.11.15.15,0,0,1,.1.07.21.21,0,0,0,.15.09.37.37,0,0,1,.18.11.41.41,0,0,0,.2.12.72.72,0,0,1,.23.12.33.33,0,0,0,.19.09.3.3,0,0,1,.19.09.38.38,0,0,0,.16.09.57.57,0,0,1,.33.12.85.85,0,0,0,.27.1.79.79,0,0,1,.3.11.82.82,0,0,0,.32.09c.23,0,.33.06.4.14s.16,0,.56.09c.17,0,.26,0,.31.08a1.68,1.68,0,0,0,.79.11,4.61,4.61,0,0,1,1.08.12,10.1,10.1,0,0,0,1.14.06c1.05,0,1.2,0,1.3.14s.11.06.37.09.23,0,.29.09a.54.54,0,0,0,.22.09.49.49,0,0,1,.31.13.69.69,0,0,0,.24.1c.09,0,.17.07.17.09a.48.48,0,0,0,.13.09.56.56,0,0,1,.18.11.35.35,0,0,0,.15.09,1.12,1.12,0,0,1,.42.33l.13.09c.05,0,.14.08.5.42a3,3,0,0,1,.26.28s0,.06.09.11a.25.25,0,0,1,.09.11.25.25,0,0,0,.09.11s.09.08.09.1.05.07.11.12a.46.46,0,0,1,.12.13.11.11,0,0,0,.07.08s.09.05.12.1.07.11.1.11.05,0,.05,0a2.63,2.63,0,0,0,.39.43c.3.28.35.31.45.33a.4.4,0,0,1,.16.08,2.46,2.46,0,0,0,1.52,0,.4.4,0,0,1,.17-.09,2.25,2.25,0,0,0,.55-.45l.1-.12a.58.58,0,0,0,.13-.22.34.34,0,0,1,.08-.14c.17,0,.16-1.44,0-1.65a.4.4,0,0,1-.09-.17.15.15,0,0,0-.07-.1.56.56,0,0,1-.12-.15,1.76,1.76,0,0,0-.34-.41.33.33,0,0,1-.09-.13s0-.06-.09-.09-.09-.06-.09-.08A.44.44,0,0,0,26,44.2L25.76,44c-.28-.33-.86-.94-.88-.94l-.12-.1-.25-.22-.25-.23a.56.56,0,0,0-.15-.11s-.05,0-.08-.09a.18.18,0,0,0-.11-.09.29.29,0,0,1-.16-.09.43.43,0,0,0-.15-.09.41.41,0,0,1-.14-.1.64.64,0,0,0-.21-.14.35.35,0,0,1-.15-.09.75.75,0,0,0-.17-.1.32.32,0,0,1-.15-.11s-.08-.06-.16-.08a.31.31,0,0,1-.2-.11.41.41,0,0,0-.23-.11.41.41,0,0,1-.21-.1.26.26,0,0,0-.21-.09.64.64,0,0,1-.26-.1.91.91,0,0,0-.33-.12,1.07,1.07,0,0,1-.29-.1.62.62,0,0,0-.31-.1,1.51,1.51,0,0,1-.37-.1,1.28,1.28,0,0,0-.51-.11,3,3,0,0,1-.78-.15,11.65,11.65,0,0,0-1.41-.06c-1.29,0-1.31,0-1.46-.08a1.26,1.26,0,0,0-.52-.1,1.26,1.26,0,0,1-.56-.12,1.2,1.2,0,0,0-.37-.1.61.61,0,0,1-.28-.1.7.7,0,0,0-.23-.1.44.44,0,0,1-.26-.11.29.29,0,0,0-.2-.1.31.31,0,0,1-.2-.1.36.36,0,0,0-.18-.11A.29.29,0,0,1,13.1,39a.82.82,0,0,0-.17-.1.38.38,0,0,1-.12-.1.44.44,0,0,0-.15-.12c-.05,0-.1-.06-.1-.09s0-.06-.08-.08a1.51,1.51,0,0,1-.32-.28,2.44,2.44,0,0,1-.4-.46.25.25,0,0,0-.1-.12.5.5,0,0,1-.11-.13.5.5,0,0,0-.1-.14.54.54,0,0,1-.09-.17.44.44,0,0,0-.12-.19.47.47,0,0,1-.11-.19.44.44,0,0,0-.09-.18A.38.38,0,0,1,11,36.5c0-.15-.07-.26-.12-.28a.68.68,0,0,1-.09-.25,1.16,1.16,0,0,0-.11-.31,1.12,1.12,0,0,1-.11-.5.76.76,0,0,0-.08-.26,1.35,1.35,0,0,1-.1-.61c0-.43-.06-.61-.12-.61s-.05-.1-.11-.42a.51.51,0,0,0-.09-.18.51.51,0,0,1-.09-.16,1.23,1.23,0,0,0-.35-.43c-.26-.26-.34-.31-.45-.33A.27.27,0,0,1,9,32.08,4.31,4.31,0,0,0,7.16,32m7.58.26a.26.26,0,0,0-.14.07.47.47,0,0,1-.18.09c-.08,0-.15.07-.15.09s0,0-.07.07a.38.38,0,0,0-.11.14.29.29,0,0,1-.09.15c-.1.12-.12.35-.11,1.67v1.26l.08.09a.35.35,0,0,1,.1.19c0,.08,0,.12.1.14a.41.41,0,0,1,.17.11c.15.13.22.14,1.79.13H17.6l.17-.17c.34-.36.31-.31.34-.7,0-.19,0-.87,0-1.52V32.85L18,32.7a.88.88,0,0,1-.13-.19s-.08-.08-.19-.13l-.27-.14a19.29,19.29,0,0,0-2.65,0" transform="translate(0 0)"/></svg>