<svg id="Layer_1" data-name="Layer 1" xmlns="http://www.w3.org/2000/svg" viewBox="0 0 80 83.93"><defs><style>.cls-1{fill:#f2f2f2;}.cls-2{fill:#fadc05;}.cls-10,.cls-2,.cls-3,.cls-4,.cls-5,.cls-6,.cls-7,.cls-8,.cls-9{fill-rule:evenodd;}.cls-3{fill:#049b3b;}.cls-4{fill:#042573;}.cls-5{fill:#e9f5f2;}.cls-6{fill:#5d9a1d;}.cls-7{fill:#070707;}.cls-8{fill:#a4bc34;}.cls-9{fill:#9e9e9e;}.cls-10{fill:#7c7c7c;}</style></defs><rect class="cls-1" width="80" height="80" rx="40"/><g id="svgg"><path id="path0" class="cls-2" d="M38.19,71.05l-.35.22-.52.33-.54.35-.22.14-1.26.8-.17.11-.27.17-.29.19c-.58.37-.9.58-1,.62l-.24.16-.81.52-.41.26-.33.21-.26.17-.36.23-.41.26-.45.28c-.74.47-.68.43-.59.49a1.84,1.84,0,0,1,.18.12l1.17.75c.08,0,.6.38,1.19.75l.43.28.36.23.67.43.64.41.37.23.35.23.27.17.27.17.4.26.43.27.56.36.56.36.16.1.18.11.51.32a.41.41,0,0,0,.15-.08l.32-.2.59-.38.64-.41.4-.26.35-.22.61-.39,1.59-1,.7-.44.42-.27.42-.27.46-.29.38-.25.33-.2.35-.23.35-.22.71-.47a8.93,8.93,0,0,0-1.28-.84l-.57-.36L44.83,75l-.7-.44-1.24-.8c-.41-.25-.81-.51-.91-.58l-.52-.33-.35-.22-.79-.51L40.1,72l-.59-.38L39,71.22c-.3-.2-.5-.32-.51-.32a1.57,1.57,0,0,0-.25.15m.86,1.78a4,4,0,0,1,1.12.38,3.82,3.82,0,0,1,1.7,1.85,3.15,3.15,0,0,1,.27,1.43,2.71,2.71,0,0,1-.1.91,3.54,3.54,0,0,1-.64,1.36,4,4,0,0,1-.29.33,3.69,3.69,0,0,1-1.2.84l-.14,0a3.24,3.24,0,0,1-1.16.23,3.45,3.45,0,0,1-1.1-.1c-.07,0-.36-.11-.42-.13L37,79.92a3.73,3.73,0,0,1-2.21-3,6,6,0,0,1,0-1,5,5,0,0,1,.22-.75c0-.06,0-.13.06-.15a3.07,3.07,0,0,1,.43-.72A3.71,3.71,0,0,1,38,72.81a8.85,8.85,0,0,1,1,0" transform="translate(0 0)"/><path id="path1" class="cls-3" d="M27.84,76.51v7.42H49V69.09H27.84v7.42m10.68-5.6a.48.48,0,0,0,.14.09l.31.2.59.38c.1.06.14.08.42.27l.27.17.15.1.5.32.36.23.57.36.38.24.2.13.15.09.4.26h0l.48.3.08.06.53.34.21.14.31.19.26.16c.14.1.24.17.51.34l.5.32.25.15.36.24.05,0,.18.11.35.22c.22.15.22.15.06.25a5.28,5.28,0,0,0-.53.35l0,0-.11.06-.39.25-.3.19-.33.21-.21.13-.33.22-.09,0-.11.08-.38.23-.15.1-.35.22-.16.11-.13.08-.13.08-.47.3-.26.17-.21.13-.22.14L42,79.9l-.24.15-.26.17-.42.27-.16.1-.15.1-.09,0-.09.05-.06,0-.08,0-.15.1-.2.13-.18.11-.12.07-.06,0-.06,0-.11.06a1,1,0,0,1-.22.14l-.16.11-.1.06-.26.16-.12.08-.13.09c-.1.07-.11.07-.46-.17-.12-.08-.27-.18-.35-.22l-.17-.11-.13-.09-.13-.08-.09,0L37,81.2l-.3-.19-.19-.12-.26-.16-.33-.21-.21-.14-.26-.16-.3-.2L35,79.93l-.23-.15-.79-.5L33.46,79l-.29-.18-.12-.08-.13-.08-.11-.07-.22-.15-.15-.09-.16-.1-.19-.13L32,78l-.1-.06-.24-.15-.25-.16L31,77.37l-.47-.3-.24-.16-.11-.06a2.1,2.1,0,0,0-.28-.18l-.1-.07-.1-.07s0-.06.18-.17l.28-.18.17-.1.17-.12.23-.14.19-.12.47-.3.12-.08.18-.12.22-.13L32,75l.2-.12.22-.14.11-.07.37-.24.15-.09.12-.08s0,0,0,0,0,0,0,0,.28-.16.52-.32L34,73.7l.19-.13.14-.08.41-.27.22-.14.28-.17a1.91,1.91,0,0,1,.21-.14l.12-.07a.43.43,0,0,1,.11-.08.83.83,0,0,0,.17-.11l.08,0,0,0,.14-.1.22-.14.11-.07.11-.06.11-.07.15-.1.24-.15.38-.25.6-.38.15-.1.14-.09,0,0a.12.12,0,0,1,.16,0M36.08,75c-.08,0-.07,0-.06.22v.12h.19c.12,0,.15-.26,0-.32s-.05,0-.16,0m.39.1v.24h.13c.15,0,.18,0,.17,0s0,0-.13,0h-.11v0s0,0,.07,0h.1c.06,0,0,0-.06,0s-.17-.08,0-.09.17,0,.07,0h-.24v.11M35.56,75a1,1,0,0,0,0,.34s0,0,0-.06.13-.11.17,0,.07.09.06,0a.29.29,0,0,1,0-.16c0-.08,0-.11-.16-.11h-.13m1.38,0a1,1,0,0,1,0,.15c0,.05,0,.1,0,.11s0,0,0,0,0-.09.06,0,.07.12.07.06a.17.17,0,0,1,0-.07c0-.06,0,0,0,0s0,.07,0,0,0-.24,0-.24-.05,0-.08.09-.06.11-.08,0-.11-.18-.11-.06m-.72,0a.12.12,0,0,1,0,.2c-.09,0-.13,0-.13-.11s.08-.15.16-.09m-1.06,0a.19.19,0,0,0,0,.28c.1.09.24,0,.24-.15a.18.18,0,0,0-.25-.13m.61,0s0,0,0,.05-.18,0-.17,0,.11-.08.16,0m-.45.08a.1.1,0,0,1,0,.14c-.07.07-.15,0-.15-.08a.08.08,0,0,1,.15-.06m2.37,0c-.06.28-.06.28.1.29s.13,0,0-.06,0-.08,0-.07h.09s0,0-.08,0-.08,0-.07-.05,0,0,.1,0,.1,0-.08-.07-.06,0-.07,0m.71.09a.75.75,0,0,0-.06.3s0,0,0-.06,0,0,.13,0,.22-.14,0-.2-.15,0-.16,0m.15.07c.11,0,.07.12,0,.09s-.07,0-.07-.07,0-.05.11,0m.29,0a1.33,1.33,0,0,0-.07.29s0,0,0,0,0-.05.08,0,.09,0,.09.09,0,.06,0,.07,0,0,0-.09a.12.12,0,0,1,0-.09c.06-.06,0-.16-.08-.18l-.1,0s0,0-.06,0m.16.08c.06,0,0,.08,0,.08s-.15,0-.09-.1,0,0,.11,0m-2.36,0a.06.06,0,0,0,.06,0h-.06m2.68.13a.17.17,0,0,0,.07.32.18.18,0,0,0,.11-.29.17.17,0,0,0-.18,0m.14.09c0,.06,0,.07,0,.13s-.15,0-.15-.07.11-.14.16-.06m.24.12c-.09.11,0,.28.09.28s.05,0,.05,0,0,0,.07,0,0-.1,0-.11-.07,0-.05,0,0,0-.07,0,0,0,0-.07.12-.16.18-.08.08,0,.08,0-.19-.15-.27-.06m-4.43,0s0,0,0,0h0s0,0,0,0,0,0,0,0,0,0,0,0m4.88.1a1.05,1.05,0,0,0-.1.3s0,0,.05,0,.15-.07.16,0,.05.1.06,0a.16.16,0,0,1,0-.09c.06-.07.07-.13,0-.17s-.22-.09-.23-.07m.14.09q.08,0,0,.09a.21.21,0,0,1-.16,0c0-.07,0-.08.13,0m.26.15a.41.41,0,0,1,0,.09c-.08.12-.09.16-.07.18s.24.14.25.12,0,0-.1-.1-.08,0-.08-.07,0-.06.12,0,.1,0,.1,0l-.07-.06c-.08-.05-.09-.07-.07-.09s0,0,.11,0,.09,0,.1,0,0-.05,0-.05l-.12-.06c-.12-.07-.11-.07-.13,0m.4.26c-.05,0,0,.17.06.2s0,.09,0,.09-.1-.07-.1-.1a.08.08,0,0,0,0,0s0,0,0,0,.18.2.25.14,0-.08,0-.17-.07-.09-.05-.11.1,0,.1.06a.06.06,0,0,0,0,.06c.07,0,0-.12-.08-.16s-.08,0-.13,0m.39.25c-.05,0-.05.08,0,.17s.07.08,0,.11-.09,0-.11,0l0-.05s-.06,0-.05,0,.18.2.24.13,0-.08,0-.16-.07-.12,0-.12a.1.1,0,0,1,.08.08s0,.06.06,0,0-.11-.1-.17-.06,0-.11,0m.38.3c-.18.1-.09.38.11.3s.15-.27,0-.3-.08,0-.12,0m.11.06a.1.1,0,0,1-.06.19c-.11,0-.12-.14,0-.19s0,0,.08,0" transform="translate(0 0)"/><path id="path2" class="cls-4" d="M38.09,72.82a3.69,3.69,0,0,0-3,2l-.09.17h.08l.27,0a11.35,11.35,0,0,1,2.26.06l.27,0a9.26,9.26,0,0,1,2.15.68A8.86,8.86,0,0,1,42,76.9l.13.1s0-.38,0-.5A3.76,3.76,0,0,0,39.75,73a2.6,2.6,0,0,0-.37-.12,3.94,3.94,0,0,0-1.29-.1m1.53,2.44s0,0,.08,0h0l0,0a.11.11,0,0,0,0,.07s0,0-.05,0a0,0,0,0,0,0,0s0,0,0,0,0,0,0-.07,0,0,0,0h0s0,0,0,0,0,0,0,0m-3.79.21a7.61,7.61,0,0,0-.95.11,3.38,3.38,0,0,0-.1,1.5,3.73,3.73,0,0,0,1.84,2.66l.17.08.17.09a4.16,4.16,0,0,0,1.48.31A3.76,3.76,0,0,0,41.83,78c.16-.4.15-.36.08-.43a8.54,8.54,0,0,0-2.1-1.36L39.32,76a6.13,6.13,0,0,0-.68-.22l-.15,0a9,9,0,0,0-2.66-.26m-.33.31c.06,0,.07,0,0,0s0,0,0,.12,0,0,0,0-.06,0-.08,0-.06,0-.05,0,0-.06,0-.08,0,0,0,0,.05,0,.05,0,0-.07.06,0,0,0,.06,0m4,.47a.07.07,0,0,0,.05,0s0,0,0,0,0,0,0,0,0,0-.06,0-.06,0-.06,0a0,0,0,0,0,0-.05s0,0,0,0,0,0,0,0,0,0,0,0m-2.43.32s0,0,.05,0,.06,0,0,0,0,0,0,.06,0,.06,0,0,0,0-.06,0,0,0,0,0a0,0,0,0,0,0-.06s0,0,0,0,0,0,0,0,0,0,0,0,0,0,0,0m1.42.46s0,0,.05,0,0,0,0,0,0,0,0,.07,0,0,0,0,0,0-.06,0-.06,0,0,0,0-.05,0-.07,0,0,0,0a.05.05,0,0,0,0,0l0,0s0,0,0,0m-2.32.14s0,0,0,.06a.05.05,0,0,1,0-.09s.08,0,.08,0m-.38.13a.07.07,0,0,0,.07,0h0l0,0s-.05,0,0,.08,0,.06,0,0a.08.08,0,0,0-.09,0l0,0v-.06s0-.06,0-.08l0,0h.06s.06,0,.07,0,0,0,0,0a.14.14,0,0,1,0,0m3.18.1s0,0,0,0,0,0,0,.06,0,.07,0,0,0,0-.06,0-.06,0-.05,0a0,0,0,0,0,0-.06s0,0,0,0,.05,0,.05,0,0-.07,0,0,0,.05.06.05m-.86,0a0,0,0,0,0,0,0s.05,0,0,0,0,0,0,.06,0,.05-.05,0a0,0,0,0,0,0,0s0,0,0,0,0,0,0,0,0,0,0,0a0,0,0,0,0,0,0s0,0,0,0l0,0m-2.78.27s0,0,0,0,.06,0,0,0,0,0,0,.07,0,.07,0,0l0,0,0,0s0,0,0,0,0-.05,0-.06l0,0s0,0,0,0,.07,0,.07,0,0-.05,0-.05l0,0m3,0s0,.08,0,.08,0,0,0,0,0-.07.09,0m-1.75,0s0,0,0,0,.05,0,0,0a.07.07,0,0,0,0,.06s0,0,0,0,0,0-.06,0-.05,0,0,0,0,0,0-.07l0,0h0s.06,0,.06,0,0,0,0,0m4.52,0s0,0,.07,0,.06,0,0,0,0,0,0,.08,0,.06,0,0a.06.06,0,0,0-.09,0s-.05,0,0,0,0,0,0-.08l0,0h.06c.05,0,.06,0,.07,0s0-.06.05,0m.52.07s0,0,0,0,.05,0,0,0a.07.07,0,0,0,0,0s0,0,0,0,0,0,0,0,0,0,0,0a.11.11,0,0,0,0-.05,0,0,0,0,1,0,0s0,0,0,0l0,0,0,0m-.37.29s0,0,.06,0h0l0,0a.07.07,0,0,0,0,.07s0,0,0,0a.06.06,0,0,0-.06,0s-.06,0,0,0,0,0,0-.06,0,0,0,0,0,0,0,0l0,0s0,0,0,0m-2.74,0s0,0,.07,0h.05l0,0a.08.08,0,0,0,0,.09c0,.06,0,.07,0,0l0,0,0,0s0,0,0,0,0-.06,0-.09l0,0h.06s0,0,.07,0,0-.06,0-.06a.3.3,0,0,1,0,.06m-2,0s0,0,0,0,.05,0,0,0a.05.05,0,0,0,0,0s0,0,0,0h0s0,0,0,0a.07.07,0,0,0,0,0s0-.06,0-.06,0,0,0,0l0,0,0,0m.55.29s0,0,.05,0,.08,0,0,.06,0,0,0,.08,0,.07,0,0-.06,0-.1,0,0,0,0,0,0-.06,0-.08,0-.06,0-.06a.05.05,0,0,0,.06,0s0,0,0,0m4,0a.1.1,0,0,0,0,0s0,0,0,0,0,0,0,.06,0,.06,0,0,0,0-.05,0-.06,0,0,0,0,0,0-.07l0,0h0s.05,0,.07,0,0,0,.06,0m-.7.13s0,0,0,0,0,0,0,0,0,0,0,0,0,.06,0,0,0,0-.06,0,0,0,0,0a.08.08,0,0,0,0-.06s0,0,0,0,0,0,0,0,0,0,0,0,0,0,0,0m-1,0s0,0,0,0a0,0,0,0,1,0,0,.05.05,0,0,0,0,0s0,0-.06,0-.06,0-.06,0,0,0,0,0,0,0,0,0,0,0,0,0,0,0,0,0m1.46.07s0,0,0,0,0,0,0,0,0,0,0,0,0,0,0,0,0,0,0,0,0,0,0,0,0-.05,0,0,0,0,0,0l0,0v0l0,0m-.79,0s0,0,0,0,0,0,0,0,0,0,0,0h0s0,0,0,0,0,0,0-.06,0,0,0,0a.09.09,0,0,0,.05,0v0l0,0a.09.09,0,0,0,0,0m.38.2s0,0,0,0,.06,0,0,0a.08.08,0,0,0,0,.07s0,0,0,0a0,0,0,0,0-.07,0s0,0,0,0,0,0,0-.07l0,0h.06a.09.09,0,0,0,.06,0s0,0,0,0m-.75.09s0,0,0,0,.06,0,0,0,0,0,0,.08v.05l-.05,0s0,0-.06,0,0,0,0,0a.07.07,0,0,0,0-.06s0,0,0,0a0,0,0,0,0,.05,0s0,0,0,0,0,0,0,0m.75.3a.05.05,0,0,0,0,0s0,0,0,0a.07.07,0,0,0,0,.06s0,0-.06,0-.07,0-.06,0,0,0,0,0,0,0,0-.05,0,0,0,0,0,0,0,0m-1.86.16a0,0,0,0,1,0,.06s-.06,0,0-.06h.05" transform="translate(0 0)"/><path id="path3" class="cls-5" d="M35.73,74.93c-.56,0-.69.07-.71.12l0,.08a2.72,2.72,0,0,0-.14.44H35a9,9,0,0,1,2.54,0l.44.07a7.94,7.94,0,0,1,1.07.28,9.43,9.43,0,0,1,1.24.53,8.65,8.65,0,0,1,1.6,1.08c.12.11.15.13.16.1s0-.1,0-.2.05-.22.06-.27l0-.09,0,0-.5-.39c-.24-.16-.32-.22-.49-.32a8.07,8.07,0,0,0-1.23-.64l-.11,0a6.9,6.9,0,0,0-.81-.29,9.45,9.45,0,0,0-1.7-.34c-.31,0-1.21,0-1.5,0m.53.1c.08,0,.09.22,0,.29s-.06,0-.16,0H36V75h.11l.15,0m.5,0c.05,0,0,.06-.11.06s-.17.06,0,.06.14.07,0,.07-.1,0-.1,0,0,0,.13,0,.13,0,.12,0a0,0,0,0,1,0,0h-.3V75h.3m-.93,0a.12.12,0,0,1,0,.14s0,0,0,.06a.12.12,0,0,1,0,.07c0,.07,0,.07-.07,0s0,0-.09,0h-.07v0c0,.05,0,.09-.06.06s0-.34,0-.35.23,0,.25,0M37,75a.29.29,0,0,1,0,.1c0,.11,0,.11.08,0s0-.08.07-.09h0v.17c0,.17,0,.2-.06.18s0,0,0-.08v-.08l0,.08c-.05.1-.09.1-.11,0s0-.12,0,0,0,.11,0,.11,0-.07,0-.25S37,75,37,75m-1.65.09a.19.19,0,0,1,0,.28c-.19.08-.33-.2-.16-.32a.16.16,0,0,1,.2,0m.71.05v.11h.05c.09,0,.13,0,.13-.1s0-.11-.12-.11h-.06v.1m-.45-.07s0,.07,0,.07.11,0,.11-.05-.13,0-.15,0m-.42,0c-.07,0,0,.19,0,.19s.1-.12.05-.18-.06,0-.1,0m2.73,0s0,0-.1,0-.15,0,0,0,.08,0,.08,0,0,0-.09,0-.06,0-.08,0,0,0,.11.07.07,0,.07,0,0,0-.16,0l-.1,0V75.4a.43.43,0,0,1,0-.11s0-.07,0-.09a.08.08,0,0,1,0,0l.24,0m.59.08c.1,0,.14,0,.15.12s-.07.14-.2.11-.08,0-.09.06-.07.06-.07,0,.08-.34.11-.33l.1,0m1,0a0,0,0,0,1,0,0c-.05,0-.05,0,0,0s0,0,0,.05,0,0,0,0,0,0,.05,0,0,0,0,0,0,0,0-.06l.05,0h-.06s0,0-.06,0,0,0,0,0,0,0,0,0m-1.14.09s0,.06.07.07.13-.05,0-.08-.08,0-.09,0m.54,0c.15,0,.19.13.1.21a.08.08,0,0,0,0,.07c0,.06,0,.11,0,.11s0,0,0-.07,0-.09-.09-.1,0,0-.06,0,0,.07-.06.06a.7.7,0,0,1,.09-.35l.12,0m-.1.07a.06.06,0,0,1,0,0s.07.06.13.06a0,0,0,0,0,0-.07s-.15,0-.15,0m.62.15c.14.17-.07.41-.23.26a.18.18,0,0,1,.13-.3c.06,0,.08,0,.1,0m-.15,0a.1.1,0,0,0,0,.16s.09,0,.13,0,0-.19-.11-.13m-4,.08s0,.05-.07.05h0l0,0s0,0,0,.08,0,0,0,0,0,0,.07,0,0,0,0,0,0,0,0-.07l0,0h0s-.06,0-.07-.05v0l0,0m4.53,0s.06.12,0,.12,0,0,0-.05-.22,0-.16.12.11,0,.09,0,.06,0,.13,0-.07.16-.09.16,0,0,0,0,0,0,0,0-.13,0-.15-.08.13-.35.26-.22m.37.13c.13,0,.17.14.08.21a.1.1,0,0,0,0,.09c0,.07,0,.1-.06.08s0,0,0-.07,0-.07,0-.09-.08,0-.1,0-.06.06-.08,0a.17.17,0,0,1,0-.08l.08-.2s0,0,.16,0m-.12.06v0s.11.07.14.06,0-.06,0-.08-.1,0-.1,0m.54.19c.17.09.16.16,0,.07s-.19,0-.05,0,.07,0,.07.07,0,0-.12,0-.07,0-.09,0,0,.06.09.11.12.08.09.11-.28-.11-.28-.15a1.17,1.17,0,0,1,.17-.29l.13.07m-1.28.1s0,0,0,0,0,0,0,0,0,0,0,.06,0,0,0,0,0,0,.06,0,0,0,0,0,0,0,0-.05,0,0,0,0,0,0,0,0,0,0,0,0a0,0,0,0,0,0,0m1.66.13c.09,0,.14.14.09.17s-.07,0-.07,0a.11.11,0,0,0-.08-.08s0,0,0,.11,0,.27-.13.17-.13-.14-.09-.18.08,0,.08,0a.11.11,0,0,0,.08.09s0,0,0-.11,0-.26.12-.17M37,76.57a.05.05,0,0,1,0,0s-.05,0,0,0,0,0,0,.06v.05l0,0s0,0,.07,0,0,0,0,0a0,0,0,0,1,0-.06s0,0,0,0a.06.06,0,0,1-.05,0v0l0,0m4.45.07a.16.16,0,0,1,.11.13c0,.08-.06.07-.08,0s-.1-.1-.1,0a.18.18,0,0,0,0,.07c.07.08.08.13,0,.18s-.15,0-.23-.06,0-.14,0-.14a.06.06,0,0,1,.06.06c0,.06.1.12.12.08s0,0,0-.09,0-.26.1-.18m.38.29a.17.17,0,0,1-.08.33c-.17,0-.2-.25,0-.33s.06,0,.12,0M38.42,77a.06.06,0,0,1-.06.06s0,0,0,0,0,0,0,.06v0l0,0s0,0,.06,0,0,0,0,0,0,0,0,0,0-.06,0,0a.07.07,0,0,1-.08-.06s0,0,0,0l0,0m3.3,0c-.08.11,0,.22.11.12a.11.11,0,0,0,0-.14.1.1,0,0,0-.13,0m-5.64.12s0,.07,0,.06.07,0,0-.07,0,0,0,0m-.37.16s0,0-.06,0h0l0,0s0,0,0,.08,0,0,0,0,0,0,.08,0,0,0,0,0,0,0,0-.07l0,0h-.05a.07.07,0,0,1-.07,0,.08.08,0,0,0,0,0s0,0,0,0m3.15,0a.08.08,0,0,0,0,0s0,0-.05,0h0l0,0s0,0,0,.06,0,.05,0,0,0,0,.06,0l0,0v-.05s0,0,0-.07,0,0,0,0,0,0-.06-.05,0,0,0,0m-.82,0s0,0,0,0,0,0,0,0,0,0,0,0,0,0,.05,0,.06,0,0,0a.1.1,0,0,1,0,0s0,0,0,0a0,0,0,0,1,0,0l0,0s0,0,0,0m-2.77.25a.1.1,0,0,0,0,0s0,0,0,0h0l0,0s0,0,0,.07,0,0,0,0a.08.08,0,0,1,.07,0s0,0,0,0,0-.05,0-.07l0,0h0a.07.07,0,0,1-.06,0s0,0,0,0m1.23.05s0,0,0,0,0,0,0,0,0,0,0,.06,0,0,0,0h0s0,0,0,0,0,0,0,0,0,0,0,0a.06.06,0,0,1,0,0l0,0v0m1.72,0s0,0,0,.06,0,0,0,0a0,0,0,0,0-.06,0m2.79,0s0,0-.06,0-.06,0,0,0,0,0,0,.07a.18.18,0,0,0,0,.06l0,0,0,0,0,0c.05,0,.05,0,0,0s0,0,0-.06,0,0,0,0,0,0-.06,0l0,0s0,0,0,0m.53.07a.05.05,0,0,1,0,0s0,0,0,0a.08.08,0,0,1,0,.05s0,0,0,0h.07s0,0,0,0,0,0,0,0,0,0,0,0,0,0,0,0v0l0,0m-.38.28s0,0,0,0,0,0,0,0,0,0,0,.06,0,0,0,0,.05,0,.08,0,0,0,0,0a.06.06,0,0,1,0-.07s0,0,0,0,0,0,0,0l0,0,0,0m-4.76,0,0,0s0,0,0,0a0,0,0,0,1,0,0s0,0,0,0a0,0,0,0,1,.07,0s0,0,0,0,0,0,0,0,0,0,0,0,0,0,0,0,0,0,0,0m2,0s0,0-.06,0H38.3l0,0s0,0,0,.07,0,.06,0,0a0,0,0,0,1,.07,0c.05,0,.06,0,0,0s0,0,0-.07l0,0h-.06s-.05,0-.06,0l0,0s0,0,0,0m-1.48.27a.06.06,0,0,1-.06,0s0,0,0,0,0,0,0,.06,0,.06,0,0,.05,0,.08,0,.06,0,0,0,0,0,0-.07.05,0,0,0a.07.07,0,0,1-.08-.07s0,0,0,0m4,0s0,0-.06,0,0,0,0,0a.07.07,0,0,1,0,.07s0,0,0,0,0,0,.07,0l0,0v0s0-.06,0-.08l0,0h0a.08.08,0,0,1-.07,0l0,0v0m-.69.14s0,0,0,0,0,0,0,0,0,0,0,0,0,0,0,0,0,0,0,0,0,0,0,0a.06.06,0,0,1,0,0s0,0,0,0,0,0,0,0l0,0s0,0,0,0m-1,0s0,0,0,0,0,0,0,0,0,0,0,0,0,0,0,0,.06,0,.06,0,0,0,0,0,0,0,0,0,0,0,0,0,0,0,0,0m1.41,0a.05.05,0,0,1,0,0s0,0,0,0a.07.07,0,0,1,0,.06s0,0,0,0,0,0,.06,0,0,0,0,0,0,0,0,0,0,0,0,0a.05.05,0,0,1,0,0v0l0,0m-.8,0s0,0,0,0,0,0,0,0a.08.08,0,0,1,0,0s0,0,0,0,.05,0,.05,0a.08.08,0,0,1,0,0s0,0,0,0l0,0s0,0,0,0m.42.22s0,.05-.06.05h0l0,0a.06.06,0,0,1,0,.07s0,0,0,0,0,0,.06,0,0,0,0,0,0,0,0-.06l0,0h0s0,0,0,0,0-.07,0,0m-.75.11s0,0-.05,0h0l0,0s0,0,0,.07v0l0,0a0,0,0,0,1,.07,0s.05,0,0,0,0,0,0-.06l0,0h0s0,0,0,0,0,0,0,0,0,0,0,0m.76.29a0,0,0,0,1,0,0s0,0,0,0,0,0,0,0,0,0,0,0,0,0,0,0,0,0,0,0a0,0,0,0,1,0,0s0,0,0,0a.05.05,0,0,1,0,0l0,0v0m-1.87.17a0,0,0,0,0,0,0,0,0,0,0,0,0,0s0,0-.06,0" transform="translate(0 0)"/><path id="path4" class="cls-6" d="M38.36,70.91l0,0-.14.09-.15.1-.6.38-.38.25-.24.15-.15.1-.11.07-.11.06-.11.07-.22.14-.14.1,0,0-.08,0a.83.83,0,0,1-.17.11.43.43,0,0,0-.11.08l-.12.07a1.91,1.91,0,0,0-.21.14l-.28.17-.22.14-.41.27-.14.08L34,73.7l-.27.17c-.24.16-.49.31-.52.32s0,0,0,0,0,0,0,0l-.12.08-.15.09-.37.24-.11.07-.22.14L32,75l-.12.09-.22.13-.18.12-.12.08-.47.3-.19.12-.23.14-.17.12-.17.1-.28.18c-.16.11-.22.16-.18.17l.1.07.1.07a2.1,2.1,0,0,1,.28.18l.11.06.24.16.47.3.45.29.25.16.24.15L32,78l.1.06.19.13.16.1.15.09.22.15.11.07.13.08.12.08.29.18.48.31.79.5.23.15.15.09.3.2.26.16.21.14.33.21.26.16.19.12.3.19.25.17.09,0,.13.08.13.09.17.11c.08,0,.23.14.35.22.35.24.36.24.46.17l.13-.09.12-.08.26-.16.1-.06.16-.11a1,1,0,0,0,.22-.14l.11-.06.06,0,.06,0,.12-.07.18-.11.2-.13.15-.1.08,0,.06,0,.09-.05.09,0,.15-.1.16-.1.42-.27.26-.17L42,79.9l.26-.17.22-.14.21-.13.26-.17.47-.3.13-.08.13-.08.16-.11.35-.22.15-.1.38-.23.11-.08.09,0,.33-.22.21-.13.33-.21.3-.19.39-.25.11-.06,0,0a5.28,5.28,0,0,1,.53-.35c.16-.1.16-.1-.06-.25l-.35-.22L46.52,76l-.05,0-.36-.24-.25-.15-.5-.32c-.27-.17-.37-.24-.51-.34l-.26-.16-.31-.19-.21-.14-.53-.34-.08-.06-.48-.3h0l-.4-.26-.15-.09-.2-.13L41.83,73l-.57-.36-.36-.23-.5-.32-.15-.1L40,71.85c-.28-.19-.32-.21-.42-.27L39,71.2l-.31-.2a.48.48,0,0,1-.14-.09.12.12,0,0,0-.16,0m.16,0,.43.28.56.35.59.38.22.14.79.51.35.22.52.33c.1.07.5.33.91.58l1.24.8.7.44.52.34.57.36a8.93,8.93,0,0,1,1.28.84l-.71.47-.35.22-.35.23-.33.2-.38.25-.46.29-.42.27-.42.27-.7.44-1.59,1-.61.39-.35.22-.4.26-.64.41-.59.38-.32.2a.41.41,0,0,1-.15.08l-.51-.32-.18-.11-.16-.1L37,81.22l-.56-.36L36,80.59l-.4-.26-.27-.17L35.09,80l-.35-.23-.37-.23-.64-.41-.67-.43-.36-.23-.43-.28c-.59-.37-1.11-.71-1.19-.75l-1.17-.75a1.84,1.84,0,0,0-.18-.12c-.09-.06-.15,0,.59-.49l.45-.28.41-.26.36-.23.26-.17.33-.21.41-.26.81-.52.24-.16c.08,0,.4-.25,1-.62l.29-.19.27-.17.17-.11,1.26-.8.22-.14.54-.35.52-.33.6-.37.08,0M38,72.81a2.38,2.38,0,0,0-.4.07h0l.55-.08c.14,0,.14,0,0,0H38m.71,0,.55.08s0,0,0,0a2.74,2.74,0,0,0-.53-.09h0M37.32,73a2.91,2.91,0,0,0-.56.24l.19-.07a3.26,3.26,0,0,1,.53-.2c.05,0,.06,0,0,0l-.2,0m2,0,.15,0a3.71,3.71,0,0,1,2.15,1.73,1,1,0,0,1,.07.12s0,0,0-.1a3.83,3.83,0,0,0-1.83-1.64,3.67,3.67,0,0,0-.52-.17s0,0,0,0m-2.82.39a3.73,3.73,0,0,0-1.42,1.53C35,75,35,75,35.08,75s0,0,0,0,.2-.46.4-.73a4,4,0,0,1,1.18-1c.08-.05.1-.06.07-.06l-.19.1m5.21,1.53a1.2,1.2,0,0,0,.08.18,4,4,0,0,1,.3,1.16l0,.21V76.2a3.88,3.88,0,0,0-.18-.9c0-.09-.08-.21-.09-.24-.09-.21-.12-.26-.12-.23M35.43,75h0s0,0,0,0,0,0,0,0M36,75s0,0,.06,0,.09,0,0,0H36m.47,0v0a.11.11,0,0,0,0-.08v0m-.77,0c.08,0,.11,0,.13,0a0,0,0,0,0,0,0S35.8,75,35.7,75h0m1.06,0s0,0-.11,0-.12,0-.12,0h0s0,0,.12,0,.15,0,.12,0,0,0,0,0M37,75l.05,0s0,0,0,0,0,0-.07,0h0m-1.72,0,.1,0,0,0,0,0a.23.23,0,0,0-.1,0c-.06,0-.06,0,0,0m.3,0v0a.06.06,0,0,0,0-.06v0m.57,0h.06s0,0,0,0,0,0,0,0m.81.06v0a.06.06,0,0,0,0-.06v0m-.86,0v0a.14.14,0,0,0,0-.09v0m-.06.06v.07a.29.29,0,0,0,0-.13v.06m.31-.06s0,0,0,0v-.06s0,0,0,0m.31,0c.08,0,.11,0,.07,0s0,0,0,0,0-.06-.06-.06h0m1.25,0c.06,0,.07,0,0,0h0c.08,0,.08,0,0-.06h0l0,0m-1.31,0h0s-.05,0,0,0m.34,0s0,0,0,0v0s0,0,0,0m.06.05s0,0,0,0v-.06s0,0,0,0m-1.28,0a.06.06,0,0,0,.06,0h-.06m.58.06s0,0,0,0l0,0s0,0,0,0m.9,0c0,.08.06.09.06,0s0,0,0,0,0,.05,0,0v0m-.61,0h0m2.09,0q.06.09,0,0a.11.11,0,0,0,0-.06s0,0,0,0m-2.79,0s0,0,0,0,0,0,0,0,.06,0,.06,0,0,0,0,0v0m1.17,0s0,0,0,0,0,0,0,0a0,0,0,0,1,0,0s0,0,0,0m1.56.06s0,0-.05,0,0,0,0,0,.13,0,.1,0,0,0,0,0m-2.67,0a.09.09,0,0,0,.07,0h-.07m3.18.05a.09.09,0,0,1,0,.09l0,0,0,0s.06-.12,0-.14,0,0,0,.05m-3.6,0a0,0,0,0,0,0,0h0m1.58,0a.09.09,0,0,0,.07,0h-.07m.75,0a0,0,0,0,0,.05,0h-.05m.55.08s0,0,0,0,0,0,0,0,0,0,.07,0v0s0,0,0,0m-3.57.11a2.56,2.56,0,0,0-.07.86,4.16,4.16,0,0,0,0,.5s0,0,0,0a4.1,4.1,0,0,1,.09-1.44s0,0,0,0,0,0,0,.11m4.64-.1,0,0s0,0,0,0l0,0s0,0,0,0m-.19.06a.24.24,0,0,0,0,.07v.05l0-.06a.49.49,0,0,1,0-.07h0a0,0,0,0,0,0,0m.28.1s0,.05,0,0v-.06s0,0,0,0m.24,0a.09.09,0,0,0,.07,0h-.07m-.14.18s0,0,0,0v-.06s0,0,0,0m.74.17,0,0,0,0a.09.09,0,0,0,0,0s0,0,0,0m-.35.06v0s0,0,0,0,0,0,0,0m.77.1s0,0,0,0a0,0,0,0,0,0,0s0,0,0,0m-.55,0a0,0,0,0,0,.06,0s0,0,0,0h0s0,0,0,0m-.86.1v0s0-.06,0-.07,0,0,0,0m1.29.12a0,0,0,0,1,0,0s0,0,0,0,0,0,0,0,0,0,0,0m.5,0a.07.07,0,0,1,0,0s0,0,0,0,0-.07,0-.09,0,0,0,0m-.34,0s0,.08,0,.08,0,0,0,0v0h0m.62.11s0,0,0,0,0,0,0,0-.08-.06-.08,0m.66.19a.41.41,0,0,1,0,.17s0,0,0,0,0,0,0-.17,0-.17,0-.17l0,.16m-1-.12a.1.1,0,0,1-.07,0,.07.07,0,0,0-.05,0s.1,0,.13,0a0,0,0,0,0,0,0,.07.07,0,0,0,0,0m.29,0s0,0,0,0a0,0,0,0,0,0,0,.1.1,0,0,0,0,0s0,0,0,0m.09.24s0,0,0,0,.06-.07,0-.08,0,0,0,0m.16.07a.24.24,0,0,0,0,.09v0a.17.17,0,0,1,0-.09s0,0,0,0l0,0m-3.23,0s0,0,0,0,0,0,0,0,.07,0,.06,0,0,0,0,0m-3.62.12a3.55,3.55,0,0,0,.48,1.26A3.74,3.74,0,0,0,37,79.92l.14.06.43.13-.13,0L37,79.91l-.17-.09a2.16,2.16,0,0,1-.37-.21,3.7,3.7,0,0,1-1.59-2.26l0-.21c0-.06,0-.06,0,0m7.18.48s0,0,0,0,0-.08,0-.08a.2.2,0,0,0,0,.05m0,.11-.09.23,0,.07s0,0,.09-.2.06-.15.05-.15a.14.14,0,0,0,0,.05m-.13.33a.49.49,0,0,0,0,.09s.06-.09,0-.1a0,0,0,0,0,0,0m-.63.12s0,0,0,0a0,0,0,0,1,0,0s0,0,0,0-.06,0-.07,0m.53.07A3.78,3.78,0,0,1,39.58,80l-.07,0a.87.87,0,0,0,.26-.08l.14,0a3.69,3.69,0,0,0,1.2-.84,4,4,0,0,0,.29-.33,2.51,2.51,0,0,0,.34-.56l-.05.08m-2.48.37s0,0,0,0,0,0,0,0h-.08m.13,1.45a3,3,0,0,1-.54.09l-.19,0h.16a4.15,4.15,0,0,0,.71-.13s0,0-.14,0m-1.76,0a.74.74,0,0,0,.24,0s0,0-.08,0l-.16,0m.27.06.23,0c.26,0,.28,0,.27,0l-.49,0s0,0,0,0" transform="translate(0 0)"/></g><g id="svgg-2" data-name="svgg"><path id="path0-2" data-name="path0" class="cls-7" d="M64.1,34.17a5,5,0,0,0-.73.19,3.79,3.79,0,0,0-2.56,3.84,3.84,3.84,0,0,0,.47,2.17c1.1,2.09,4.85,2.61,6.86,1,.46-.38.46-.35,0-.95l-.6-.7-.15-.18-.23.2c-1.24,1.09-3.33.86-3.86-.42-.13-.32-.28-.3,2.8-.3,1.55,0,2.85,0,2.89,0a5.77,5.77,0,0,0-.32-2.5,3.63,3.63,0,0,0-2.27-2.12L66,34.22a9.68,9.68,0,0,0-1.9,0m-11.18.06a2.25,2.25,0,0,0-1.2.79c-.22.25-.24.21-.24-.29v-.46H49.2v7.87h2.23l0-2.53c0-2.48,0-2.65.2-3a1,1,0,0,1,1.63-.21c.23.37.24.5.24,3.19v2.54l1.13,0H55.8l0-2.55a20,20,0,0,1,.1-2.75,1,1,0,0,1,1.78-.31l.11.2,0,2.6c0,1.44,0,2.66,0,2.72s0,.12,1.13.12h1.11l0-.12c0-.07,0-1.39,0-2.95,0-3.11,0-3.2-.37-3.85-.67-1.33-2.84-1.48-4-.28l-.25.24-.11-.15a2.43,2.43,0,0,0-2.48-.83m-45,.1a3.35,3.35,0,0,0-1.81.94c-.12.19-.18.06-.2-.38v-.44H4.35V45.08H5.92V43.14c0-2.1,0-2.07.29-1.78a3.66,3.66,0,0,0,3.22.83,3.47,3.47,0,0,0,2.88-2.86,8.86,8.86,0,0,0,0-2.12c0-.13-.1-.32-.13-.43A3.66,3.66,0,0,0,10,34.47a4.77,4.77,0,0,0-2-.14m8.38,0A3.42,3.42,0,0,0,14.7,35c-2.26,1.67-2,5.72.45,6.84a3.88,3.88,0,0,0,4.22-.51c.25-.26.28-.22.28.33v.48h.8l.8,0V38.31c0-2.55,0-3.83,0-3.83H19.68l0,.43c0,.5,0,.51-.32.22a3.75,3.75,0,0,0-3-.77m9,0c-2.28.42-3.55,2.5-3,5A3.46,3.46,0,0,0,26,42.12a3.57,3.57,0,0,0,1.34-.19,3,3,0,0,0,1-.58c.18-.15.32-.24.34-.22a5.78,5.78,0,0,1-.08,1.41c0,.06-.09.19-.13.29-.41.92-1.93,1.31-3.34.84a3.71,3.71,0,0,1-1.3-.75c-.05-.05-.11-.1-.13-.09A8,8,0,0,0,22.89,44c0,.19.95.76,1.65,1,2.46.83,5,0,5.5-1.84.28-1,.3-1.3.28-5.21l0-3.47H28.68v.42c0,.53,0,.53-.31.25a3.7,3.7,0,0,0-3-.77m9.13,0a3.59,3.59,0,0,0-1.82.79,4.36,4.36,0,0,0-1.24,4.62c.26,1,1.49,2.27,2.16,2.27a.18.18,0,0,1,.12.05,3.44,3.44,0,0,0,1.11.19,3.39,3.39,0,0,0,2.53-.8c.35-.34.37-.33.39.22v.47l.76,0c.57,0,.76,0,.79-.06s0-1.76,0-3.84V34.48H37.71v.43c0,.5,0,.5-.32.2a3.79,3.79,0,0,0-2.91-.78m9.53,0a2.3,2.3,0,0,0-1.55,1.21c-.11.21-.14.12-.15-.55l0-.56H41.5l-.8,0v3.86l0,3.86h1.56l0-2.3c0-1.54,0-2.36.08-2.47a1.85,1.85,0,0,1,1.66-1.31l.41,0,.06-.35a11.61,11.61,0,0,0,.07-1.33c0-.08-.25-.08-.59,0M9.22,35.79a2.82,2.82,0,0,1,.92,4.35,2.52,2.52,0,0,1-3.77-.24A2.7,2.7,0,0,1,8,35.67a4.09,4.09,0,0,1,1.25.12m8.72,0A2.71,2.71,0,0,1,19,40.15a2.47,2.47,0,0,1-3.93-.55,2.57,2.57,0,0,1,2.86-3.82m9,0a2.41,2.41,0,0,1,1.8,2.49,2.45,2.45,0,0,1-4.76.88,2.51,2.51,0,0,1,3-3.37m9.09,0a2.67,2.67,0,0,1,.22,4.94A2.45,2.45,0,0,1,32.93,39C32.43,36.9,34,35.23,36,35.78m29.34.27a1.65,1.65,0,0,1,1.08.9c.24.49.33.46-1.54.46s-1.75,0-1.6-.38a1.77,1.77,0,0,1,2.06-1M45.63,39.7a1.38,1.38,0,0,0-.36,2.23,1.49,1.49,0,0,0,2.25-.39,1.84,1.84,0,0,0,.06-1.07.12.12,0,0,1,0-.1c0-.54-1.24-1-1.9-.67" transform="translate(0 0)"/><path id="path2-2" data-name="path2" class="cls-8" d="M64.84,25.63a40.13,40.13,0,0,0,0,4.1H65a8.62,8.62,0,0,1,2.56.5,8.53,8.53,0,0,1,5.74,8c0,.35,0,.5.06.51s1,0,2.08,0l2,0,0-.87a12,12,0,0,0-.67-3.73c-.1-.26-.2-.54-.22-.61s-.15-.35-.28-.63a12.69,12.69,0,0,0-10-7.2,3.6,3.6,0,0,0-1.36-.05" transform="translate(0 0)"/><path id="path3-2" data-name="path3" class="cls-9" d="M64.78,25.62a35.25,35.25,0,0,0,0,4.13s0,0,0,0a31.33,31.33,0,0,1,0-4.11,1,1,0,0,1,.52,0c.36,0,.4,0,.17,0-.5-.07-.7-.06-.76.05m1.58.09h.18s0,0-.09,0-.14,0-.09,0m.52.07.2,0c.08,0,.08,0,0,0s-.31-.06-.18,0m3,.88a.53.53,0,0,0,.18.07s0,0-.08-.07a.53.53,0,0,0-.18-.07s0,0,.08.07m3.92,2.71c.91.94.89.92.65.63s-.47-.5-.78-.81c-.55-.53-.54-.52.13.18m-8.54.44a.88.88,0,0,0,.23,0c.06,0,0,0-.11,0s-.18,0-.12,0m.59.05a.48.48,0,0,0,.17,0s0,0-.09,0-.13,0-.08,0M75.12,31c.29.4.39.48.13.11a1.8,1.8,0,0,0-.27-.35s0,.09.14.24m-6,0a.63.63,0,0,0,.2.13l.1.05-.1-.08-.2-.13-.1-.05.1.08m.48.3a1.18,1.18,0,0,0,.18.16c.11.08.17.12.15.08s-.33-.28-.33-.24m1.09.94c.24.25.46.46.47.46a3.39,3.39,0,0,0-.42-.46c-.25-.25-.47-.45-.48-.45a4.62,4.62,0,0,0,.43.45m-6.55,1.81a6.14,6.14,0,0,0,1.4,0c-.06,0-.38,0-.7,0s-.63,0-.7,0m-10.79,0h.32c.09,0,0,0-.16,0s-.26,0-.16,0m4.14,0h.36c.1,0,0,0-.17,0s-.28,0-.19,0m-4.69.07c-.05,0,0,0,.08,0s.22-.07.09-.07a.35.35,0,0,0-.17.06m1.17,0,.2,0c.12,0,.15,0,.1,0s-.35-.07-.3,0m2.93,0c-.06,0,0,0,.08,0s.22-.07.09-.07a.35.35,0,0,0-.17.06m1.32,0,.2,0c.12,0,.15,0,.1,0s-.35-.07-.3,0m5.41,0c-.06,0,0,0,.1,0s.26-.07.1-.07a.53.53,0,0,0-.2.05m2.18,0,.2,0c.12,0,.15,0,.1,0s-.35-.07-.3,0m-57.26.07h.17c.05,0,0,0-.08,0s-.14,0-.09,0m-.8.07c-.07,0,0,0,.13,0l.25,0s-.28,0-.38,0m1.4,0,.27,0c.17,0,.21,0,.13,0s-.44-.07-.4,0m7.06,0a4.72,4.72,0,0,0,.75,0,3.77,3.77,0,0,0,.72,0,7.22,7.22,0,0,0-1.47,0m9.06,0a4.23,4.23,0,0,0,.72,0,4.23,4.23,0,0,0,.72,0,6.5,6.5,0,0,0-1.44,0m9,0a4.08,4.08,0,0,0,.73,0,3.77,3.77,0,0,0,.72,0,4.58,4.58,0,0,0-.72,0,4.75,4.75,0,0,0-.73,0m9.65,0s.09,0,.31,0a1.17,1.17,0,0,0,.41,0,1.75,1.75,0,0,0-.72,0m5.14,0c-.06.16,0,7.89.07,7.91s0,0,0,0-.07-7.89,0-7.92,0,0,0,0a.09.09,0,0,0-.09.06m2.35,0a.92.92,0,0,1,.06.43c0,.45,0,.48.24.19l.12-.18-.15.18-.16.18v-.4c0-.28,0-.41-.08-.42s0,0,0,0m3,0,.22.1c.07,0,.13.06.13,0a.71.71,0,0,0-.36-.17s0,0,0,0m17.86.17c.06.11.11.2.13.2a.52.52,0,0,0-.08-.2.84.84,0,0,0-.13-.21.59.59,0,0,0,.08.21m-68,0c-.08.08-.08,10.66,0,10.75a6.76,6.76,0,0,0,1.68,0,4.06,4.06,0,0,0-.79,0c-.62,0-.82,0-.85,0s-.06-10.57,0-10.65.23-.07.86,0a5,5,0,0,0,.81,0,7.59,7.59,0,0,0-1.71,0m3.13,0c-.07,0-.07,0,0,0a.42.42,0,0,0,.15,0c.07-.05.07-.05,0-.05a.3.3,0,0,0-.15.05m2.43,0a.42.42,0,0,0,.15,0c.07,0,.07,0,0,0a.3.3,0,0,0-.15-.05c-.07,0-.07,0,0,.05m8.17,0c.15.06.28.06.18,0a.35.35,0,0,0-.18-.05h-.1l.1.05m1.6,0a1,1,0,0,0-.06.44v.37l-.16-.14-.16-.15.12.16c.2.26.25.22.25-.21s0-.49.93-.48a3.78,3.78,0,0,0,.76,0,7.29,7.29,0,0,0-1.68,0m5.2,0c-.1.06,0,.06.18,0l.1-.05H25a.41.41,0,0,0-.18.05m3.8,0a1.78,1.78,0,0,0-.06.45c0,.19,0,.31,0,.28a.08.08,0,0,0-.07-.07s0,0,0,.08.15.08.15-.27c0-.55-.06-.51.89-.51h.83v4c0,2.18,0,3.9,0,3.82s0-1.87,0-4l0-3.84h-.84c-.8,0-.85,0-.9.08m7.46,0,.18,0s0,0,0,0a.41.41,0,0,0-.17-.05s0,0,0,.05m1.6,0a1,1,0,0,0-.06.44v.37l-.16-.14-.17-.15.15.16c.21.23.23.21.23-.2a.83.83,0,0,1,.07-.43,4.77,4.77,0,0,1,1.6,0c0,.05.06,1.16.07,3.86v0c0-3.4,0-3.81-.06-3.89a4.8,4.8,0,0,0-1.69,0m3,0a5.21,5.21,0,0,0,.83,0l.84,0v.56l0,.56V34.35H41.5a4.88,4.88,0,0,0-.85,0m15.57.11a3.73,3.73,0,0,0-.46.37l-.23.22-.12-.1c-.1-.09-.1-.09,0,0l.12.14.26-.26a3,3,0,0,1,.51-.4c.14-.08.23-.14.2-.14a1.11,1.11,0,0,0-.29.14m10.39-.13s.35.19.35.16a1.08,1.08,0,0,0-.34-.18s0,0,0,0m-14.5.16s-.09.09-.07.1.08,0,.14-.07.11-.1.08-.1a.38.38,0,0,0-.15.07m2.76-.06a1.44,1.44,0,0,0,.24.22c.13.1.19.14.13.07s-.37-.33-.37-.29m4.43.14a1.23,1.23,0,0,1,.23.22s0,0,0,0a1.28,1.28,0,0,0-.42-.38s0,.07.15.15m-38,3.75c0,2.14,0,3.86,0,3.84s0-1.76,0-3.88V34.45l0,3.88m19.3-.06c0,2.1,0,3,0,1.91V36.36c0-1,0-.19,0,1.91M6.84,34.61c-.19.1-.17.14,0,0s.22-.12.16-.12a.77.77,0,0,0-.19.08m8.35,0c-.2.1-.17.14,0,0s.23-.12.16-.12l-.18.08m3.36-.06a1.44,1.44,0,0,0,.35.16,1,1,0,0,0-.34-.18s0,0,0,0m9,0a2.46,2.46,0,0,0,.53.24.81.81,0,0,0-.25-.16c-.21-.09-.33-.13-.28-.08m9.06,0a1.44,1.44,0,0,0,.35.16.91.91,0,0,0-.34-.18s0,0,0,0m6.55.05c-.06,0-.09.09-.08.1s.08,0,.15-.07.1-.1.08-.1a.33.33,0,0,0-.15.07m1.47.19a5.6,5.6,0,0,0,0,.6c0,.25,0,.19,0-.25,0-.61,0-.8,0-.35m-34.08-.14a1,1,0,0,0,.2.15c.11.07.2.12.2.09s-.08-.08-.17-.15-.23-.13-.23-.09M24,34.73l-.12.11.16-.08c.09,0,.17-.09.17-.11s-.08,0-.21.08m38.24.15a3.61,3.61,0,0,0-.86.91c-.13.22-.08.19.08,0a3.58,3.58,0,0,1,.82-.84c.36-.29.35-.28.32-.28a2.35,2.35,0,0,0-.36.25m-55.84,0a4.09,4.09,0,0,1-.33.25c-.05,0-.08.09-.07.1s.12,0,.23-.14.25-.23.32-.28.12-.11.1-.11a1.64,1.64,0,0,0-.25.18M19,34.75l.13.11.14.09-.09-.11c-.09-.1-.18-.15-.18-.09m18.06,0a.51.51,0,0,0,.14.11l.13.09-.09-.11c-.09-.1-.18-.15-.18-.09m5.83.14a2.45,2.45,0,0,0-.42.58s.07-.06.16-.19.23-.3.31-.39.15-.16.13-.16a1.18,1.18,0,0,0-.18.16M67.62,35c.16.14.38.36.48.47s.14.15.08.06a5.11,5.11,0,0,0-.74-.73c-.06,0,0,0,.18.2m-44.13.13a4.16,4.16,0,0,0-.47.46c-.11.15-.08.13.13-.08a6.75,6.75,0,0,1,.5-.47c.13-.1.22-.19.2-.19a3.71,3.71,0,0,0-.36.28m36.27,0c.08.13.15.22.16.21a1.63,1.63,0,0,0-.27-.43s0,.1.11.22m-48.61,0,.38.37c.11.11.17.16.13.1a3.91,3.91,0,0,0-.58-.57c-.06,0,0,0,.07.1m3.15.18c-.35.35-.28.3.34-.27,0,0,.06-.07,0-.07a3.63,3.63,0,0,0-.38.34m18.12-.05c-.25.24-.26.26-.05.07s.41-.36.38-.36a2,2,0,0,0-.33.29M77,35.08a.58.58,0,0,0,0,.18c0,.06.05.07.05,0a.41.41,0,0,0-.05-.18c0-.06,0-.07,0,0m-4.28.36a1.38,1.38,0,0,0,.08.2s0,0,0,0a1.38,1.38,0,0,0-.08-.2c0-.06,0,0,0,0M32,35.7c-.12.18-.17.28-.12.22.22-.25.28-.33.24-.33s-.08,0-.12.11m28.08,0a.3.3,0,0,0,0,.15c0,.07,0,.07,0,0a.42.42,0,0,0,0-.15c0-.07,0-.07,0,0m-51.82,0a1.82,1.82,0,0,0,.33,0c.09,0,0,0-.17,0s-.25,0-.16,0m5.6.06c-.05.06-.08.12-.06.13s.06,0,.11-.1.08-.17,0,0m-6.2,0c-.1,0-.1,0,0,0a.51.51,0,0,0,.2,0c.13,0,0,0-.18,0m1.34,0a.49.49,0,0,0,.18.05s0,0,0-.05l-.18,0s0,0,0,0m7.62,0c-.1,0-.11,0,0,0a1,1,0,0,0,.23,0c.1,0,.11,0,0,0a1,1,0,0,0-.23,0m1,0,.28,0c.12,0,.11,0,0,0l-.28,0c-.11,0-.11,0,0,0m8,0c-.08,0,0,0,.13,0l.27-.05s-.27,0-.4,0m1,0c.26.05.46.05.25,0a1.54,1.54,0,0,0-.3,0c-.13,0-.12,0,.05,0m8,0-.13,0h.13a1.09,1.09,0,0,0,.25,0l.13,0h-.13a1.09,1.09,0,0,0-.25,0m1,0a1.36,1.36,0,0,0,.27,0c.12,0,.11,0,0,0l-.28,0c-.11,0-.11,0,0,0m8.92.1,0,.18-.35,0-.36,0h.34c.37,0,.46,0,.43-.28s0-.13,0,0M18.27,36a3.49,3.49,0,0,1,.61.42l.29.25-.29-.28a1.91,1.91,0,0,0-.79-.51c-.07,0,0,0,.18.12m6.87-.05a.78.78,0,0,0-.25.15s.05,0,.15,0a.78.78,0,0,1,.25-.11.14.14,0,0,0,.11,0c0-.07,0-.06-.26,0M68.45,36a.47.47,0,0,0,.1.16s0-.07,0-.16a.5.5,0,0,0-.1-.15s0,.07,0,.15m-52.57.09a1.76,1.76,0,0,0-.54.5q-.09.14.12-.09a2.88,2.88,0,0,1,.44-.37c.18-.12.25-.18.2-.18l-.22.14m18,0c-.24.17-.72.72-.67.77s.09-.07.17-.19a1.94,1.94,0,0,1,.57-.57c.19-.13.25-.18.19-.18l-.26.17m-2.21,0a.63.63,0,0,0-.12.29.91.91,0,0,0,.13-.2c.11-.22.11-.27,0-.09m4.87,0s.07.08.14.13a2.73,2.73,0,0,1,.63.64l.09.13,0-.12c-.12-.24-.81-.91-.81-.78m27.89,0c-.07,0,.12,0,.42,0s.48,0,.42,0a2.19,2.19,0,0,0-.42,0,2.05,2.05,0,0,0-.42,0m-41.88.16a.48.48,0,0,0-.06.18s.06-.06.1-.16.07-.23,0,0m37.6.1a2.07,2.07,0,0,0,.05.3c0,.05,0-.43,0-.5s0,0,0,.2M73,36.17a.34.34,0,0,0,0,.2c0,.13,0,0,0-.17s0-.11,0,0m-66.35.22a2.41,2.41,0,0,0-.52.82c0,.07,0,0,.13-.19a2.85,2.85,0,0,1,.41-.59,2.43,2.43,0,0,0,.23-.28,1.89,1.89,0,0,0-.25.24m3.3-.07a2.21,2.21,0,0,1,.19.23s0,0,0,0a.72.72,0,0,0-.19-.22l-.22-.2.18.2m17.92,0a3.85,3.85,0,0,1,.39.44c.09.12.16.2.16.18a2.48,2.48,0,0,0-.69-.79s0,0,.14.17m24.3-.13a.85.85,0,0,0-.41.38c-.12.23-.08.23.07,0a1,1,0,0,1,.57-.42q.09,0,0,0a.53.53,0,0,0-.23.08m.72,0a.78.78,0,0,1,.19.1.18.18,0,0,0,.09,0c.1,0-.15-.15-.3-.18s-.14,0,0,0m3.68,0c-.06,0-.07,0,0,0a.58.58,0,0,0,.18,0c.07,0,.07-.05,0-.05a.49.49,0,0,0-.18.05m.66,0a1.25,1.25,0,0,1,.3.19l.15.13-.15-.16a.72.72,0,0,0-.3-.19l-.15,0,.15.05m6.8,0a1.57,1.57,0,0,0-.33.26l-.15.17.18-.16a1.83,1.83,0,0,1,.38-.26c.11-.06.18-.11.15-.11a.73.73,0,0,0-.23.1m-20.77.09a1,1,0,0,0-.2.16s.3-.16.38-.23,0,0-.18.07m13,.07c-.15.16-.27.38-.17.32a.12.12,0,0,0,.05-.09.71.71,0,0,1,.16-.23.74.74,0,0,0,.14-.16.64.64,0,0,0-.18.16m9.45-.14.27.2.25.19L66,36.45a1,1,0,0,0-.27-.2s0,0,0,0m-52.29.26a.56.56,0,0,0-.07.23s.06,0,.1-.18.08-.31,0,0m10.94.08a1.76,1.76,0,0,0-.33.68s.05,0,.08-.15a2.6,2.6,0,0,1,.26-.46c.23-.33.23-.38,0-.07m28.91-.13s.05.11.08.17,0,.1,0,.05a.24.24,0,0,0-.08-.18c-.05-.06-.07-.08-.05,0m-21.81.11c-.08.2-.13.4-.09.37a2.21,2.21,0,0,0,.16-.5s0,0-.07.13m-9.06,0c-.1.27-.11.41,0,.16a.75.75,0,0,0,.08-.27s0,0-.07.11m20.43.1a1.77,1.77,0,0,0-.19.29q-.08.15,0,0a2.93,2.93,0,0,1,.21-.27c.08-.09.14-.18.13-.19s-.08.05-.15.14m26,0a.45.45,0,0,0,0,.18c0,.06,0,.07,0,0a.58.58,0,0,0,0-.18c0-.07,0-.07,0,0M56,36.93a.37.37,0,0,0,0,.16s0,0,.06-.11a.3.3,0,0,0,0-.16s0,0,0,.11m1.8,2.45c0,2.55,0,2.84.1,2.84s0,0,0-.07-.06-1.25-.07-2.72l0-2.65v2.6M19.31,37c0,.06.1.22.15.36s.09.22.09.17a2.19,2.19,0,0,0-.27-.65s0,0,0,.12m32.3,0a.58.58,0,0,0,0,.19c0,.07,0,.05.05-.06s0-.26,0-.13m11.78,0c0,.09-.13.33-.09.28s.17-.33.14-.33,0,0,0,0m-51,.26a1.65,1.65,0,0,0,.05.25s0-.28,0-.38,0,0,0,.13m.84.08a1.68,1.68,0,0,0,0,.45c0,.12,0,.11,0-.06a1.36,1.36,0,0,1,.06-.36.64.64,0,0,0,0-.25s0,0-.08.22M60.82,37a.51.51,0,0,0,0,.17s0,0,.05-.06,0-.24,0-.11m16.57.15c0,.14,0,.19,0,.12a.57.57,0,0,0,0-.26c0-.06,0,0,0,.14m-46.12,0c0,.22,0,.26.05.05a.62.62,0,0,0,0-.18s0,0-.06.13M37.42,37a.87.87,0,0,0,.1.25c0,.12.08.15.06.08s-.17-.41-.16-.33m-15.21.23c0,.11,0,.22,0,.23s0-.07.05-.19a.75.75,0,0,0,0-.23s0,.07-.06.19m44.22-.08,0,.13h-1.6c-.88,0-1.6,0-1.6,0s.73,0,1.62,0H66.5v-.12a.22.22,0,0,0,0-.16s0,0,0,.1m2.46,0a1.51,1.51,0,0,0,0,.26c0,.13,0,.13,0,0a1.09,1.09,0,0,0,0-.25c0-.1,0-.11,0,0m-13,2.52a14.29,14.29,0,0,1-.08,2.53c-.05,0-.05,0,0,0s.11-.06.09-2.6v0m17.33-2a3.87,3.87,0,0,0,0,.51,2.8,2.8,0,0,0,0-.73c0-.18,0-.12,0,.22M53.46,39.7c0,1.35,0,2.47,0,2.48s0-1.79,0-4.06c0-.49,0,.22,0,1.58m-1.92,0c0,1.31,0,2.43,0,2.48s0,.08,0,0a18.91,18.91,0,0,0,0-2.48v0M6,37.43a.55.55,0,0,0,0,.17c0,.06,0,0,0,0a.33.33,0,0,0,0-.18s0,0,0,0m17.9.11a.52.52,0,0,0,0,.21s0-.06.06-.16a.51.51,0,0,0,0-.21s0,.06-.06.16m-13.32,0a.51.51,0,0,0,0,.2l0,.1v-.1a.65.65,0,0,0,0-.2l0-.1v.1m18,0a.87.87,0,0,0,.05.22c0,.07,0,0,0-.1s-.07-.3-.07-.12m13.84.1a.62.62,0,0,0,0,.23s0-.07.06-.19a1,1,0,0,0,0-.23s0,.07-.06.19m18.31,0a6.71,6.71,0,0,0,0,1.35,3.63,3.63,0,0,0,0-.7c0-.89,0-.88,0-.65m-29.55.37a5.77,5.77,0,0,0,0,.84c0,.33,0,.26,0-.47,0-1,0-1-.06-.37m-18.73-.25c0,.11,0,.15,0,.09a.48.48,0,0,0,0-.21s0,0,0,.12m2.45-.06a7.14,7.14,0,0,0,0,1.31,2.67,2.67,0,0,0,0-.67v-.76s0,.05,0,.12m18.06,0a6.5,6.5,0,0,0,0,1.25,2.35,2.35,0,0,0,0-.65c0-.83,0-.82,0-.6m4.71.27a3.79,3.79,0,0,0,.05.43,2.53,2.53,0,0,0,0-.68c0-.09,0,0,0,.25m-15.5.33c0,.38,0,.53,0,.34s0-.49,0-.68,0,0,0,.34m46.87,0c0,.39,0,.7,0,.71l-2.91,0-2.88,0h2.82c1.87,0,2.86,0,2.92,0A2.39,2.39,0,0,0,69,37.79c0-.11,0,.1,0,.49m8.42-.07v.52h-4l2,0a9.09,9.09,0,0,0,2-.06,3.67,3.67,0,0,0,0-.54l0-.48v.52M6,38.3c0,.27,0,.38,0,.24A4.34,4.34,0,0,0,6,38c0-.13,0,0,0,.27m7.14,0c0,.27,0,.37,0,.24a3.84,3.84,0,0,0,0-.48c0-.13,0,0,0,.24m-.61,0c0,.21,0,.3,0,.19a2.41,2.41,0,0,0,0-.38c0-.1,0,0,0,.19m11.38-.05c0,.18,0,.26,0,.16a1.71,1.71,0,0,0,0-.32c0-.09,0,0,0,.16m-4.25.08c0,.19,0,.26,0,.16a2,2,0,0,0,0-.35c0-.09,0,0,0,.19m22.69,1.82c0,1.15,0,2.1,0,2.1s0-.95,0-2.1,0-2.1,0-2.1,0,.94,0,2.1M10.71,38.3c0,.14,0,.19,0,.11a1,1,0,0,0,0-.25c0-.07,0,0,0,.14m26.93.41a1.83,1.83,0,0,0,0,.31s0-.11.06-.27a.81.81,0,0,0,0-.31.75.75,0,0,0-.06.27m35.61-.14c0,.11,0,.18.08.19s.06,0,0,0a.42.42,0,0,1-.09-.19c0-.14,0-.14,0,0m-49.34.16A1.09,1.09,0,0,0,24,39c.06.17.06,0,0-.23s0-.14,0,0m4.68.08a.57.57,0,0,0,0,.2s0-.06.06-.16,0-.19,0-.21,0,.06-.05.17m-16.16,0c0,.11,0,.15,0,.09a.44.44,0,0,0,0-.2c0-.05,0,0,0,.11m7.13,0c0,.09,0,.13,0,.09a.54.54,0,0,0,0-.18c0-.05,0,0,0,.09M10.63,39a.32.32,0,0,0,0,.15s0,0,.06-.11a.31.31,0,0,0,0-.16s0,0,0,.12m2.51,0a2.41,2.41,0,0,0,.17.83s0,0,0-.07-.13-.63-.15-.81,0-.1,0,0M6,39a.54.54,0,0,0,0,.21c0,.13,0,0,0-.18s0-.11,0,0m13.51.14a1.16,1.16,0,0,1,0,.18c0,.08,0,.08,0,0a.3.3,0,0,0,0-.18q0-.12,0,0m2.68,0a1.09,1.09,0,0,0,0,.25c.06.17.06,0,0-.22s0-.14,0,0m-9.81.09a1.45,1.45,0,0,1,0,.25c0,.09,0,.09,0,0a.47.47,0,0,0,0-.25l0-.16v.16m11.66,0c0,.12.17.36.17.3a1.75,1.75,0,0,0-.11-.23c-.06-.11-.08-.14-.06-.07m13.46.11a.65.65,0,0,0-.07.23s.06-.07.1-.19a.65.65,0,0,0,.07-.23s-.06.08-.1.19m23.29-.06a.65.65,0,0,0,0,.21c.07.09.07,0,0-.21l0-.12v.12m2.47-.07a1.65,1.65,0,0,0,.37.56s0,0,0-.06a2.82,2.82,0,0,1-.21-.33c-.08-.12-.14-.2-.14-.17m-32,.15a1.11,1.11,0,0,0,0,.23c0,.1,0,.1,0,0a1.11,1.11,0,0,0,0-.23c0-.1,0-.1,0,0m-2.92.18c0,.08-.07.15,0,.15a.5.5,0,0,0,.1-.15c0-.09.07-.16.05-.16a.47.47,0,0,0-.1.16m38.76.05a2.91,2.91,0,0,1-.41.3c-.14.08-.23.15-.2.15a2.54,2.54,0,0,0,.7-.46c.08-.08.13-.14.11-.14a.58.58,0,0,0-.2.15m.33-.08c.09.14.91,1.09.93,1.09a12.14,12.14,0,0,0-.81-1c-.11-.11-.16-.15-.12-.1m-57,.16c0,.07-.07.14-.06.15s.06,0,.11-.13.07-.2-.05,0m36.2-.12a.69.69,0,0,0,.18.06c.11,0,.13,0,.07,0s-.3-.08-.25,0m-34.3.1a1.22,1.22,0,0,1,0,.17c0,.09,0,.09,0,0a.29.29,0,0,0,0-.18c0-.08,0-.08,0,0m12,.08a1.73,1.73,0,0,0,.29.35l.2.19-.2-.23c-.11-.12-.24-.28-.29-.35s-.08-.12,0,0m-9.06,0c.15.26.25.38.29.38s0-.11-.15-.24c-.22-.29-.27-.34-.14-.14m4,0a2.9,2.9,0,0,1-.34.42l-.28.3.28-.26c.25-.24.5-.57.43-.57a.4.4,0,0,0-.09.11m18.06,0a2.9,2.9,0,0,1-.34.42l-.28.3.28-.26c.25-.24.5-.57.43-.57a.4.4,0,0,0-.09.11m-9.39.3c-.18.17-.29.28-.23.25a3.37,3.37,0,0,0,.57-.56,3.39,3.39,0,0,0-.34.31M45.17,40l-.2.22.22-.2c.2-.19.24-.23.2-.23l-.22.21m18.67,0a1.37,1.37,0,0,0,.57.26s0,0-.15-.08a1.74,1.74,0,0,1-.35-.19,1.28,1.28,0,0,0-.23-.12s0,.06.16.13m-57.31.09c.07.1.15.18.16.16s-.05-.1-.14-.19l-.16-.17.14.2m26.94,0a2.14,2.14,0,0,0,.38.36s0,0-.16-.19-.35-.34-.22-.17m32.63.12c-.13.05-.2.09-.16.09a1,1,0,0,0,.28-.09c.26-.13.17-.13-.12,0m-50.48.11c.17.16.26.21.14.07s-.14-.14-.17-.14,0,0,0,.07m29.25.12a.58.58,0,0,0-.06.2s.06-.07.1-.18.06-.27,0,0M6.8,40.31a1.73,1.73,0,0,0,.58.34s-.06-.06-.2-.13a3.24,3.24,0,0,1-.35-.22c-.09-.08-.1-.08,0,0m57.84,0a3.4,3.4,0,0,0,1,0c.07,0-.17,0-.52,0s-.59,0-.52,0m-42,.07a3.79,3.79,0,0,0,.59.78c.13.12.13.12,0,0a4.35,4.35,0,0,1-.36-.47c-.12-.17-.21-.28-.21-.26m-9.06.05a.47.47,0,0,0,.11.18c.07.08.08.09,0,0s-.16-.25-.16-.2m18.07,0a.41.41,0,0,0,.1.18c.07.08.09.09.05,0s-.16-.25-.15-.2m-22,.1-.33.15c-.12,0-.19.08-.14.08a1.54,1.54,0,0,0,.58-.26c0-.06,0-.05-.11,0m8.8,0c-.11.05-.17.1-.14.1a1.06,1.06,0,0,0,.37-.18s0,0-.23.08m6.93,0a1.1,1.1,0,0,0,.33.09q.15,0,0,0l-.29-.09c-.27-.1-.31-.08-.07,0m1.9,0-.28.09c-.13,0-.14,0,0,0a1,1,0,0,0,.33-.09c.21-.1.19-.14,0,0m6.78,0a.75.75,0,0,0,.33.17s-.06-.06-.15-.11L34,40.47m2.33.14-.38.12-.25.07.22,0a1.21,1.21,0,0,0,.56-.2s0,0-.15,0m-24.55.19c-.07.11-.13.2-.11.2s.29-.35.26-.38-.08.07-.15.18m36,.13c0,.19,0,.27,0,.16a2,2,0,0,0,0-.35c0-.09,0,0,0,.19m20.76-.18c.15.17.15.19-.07.42s-.18.2,0,.08.31-.33.14-.49-.14-.13,0,0m-51.94,0c.17.06.3.06.17,0a.65.65,0,0,0-.2,0c-.08,0-.07,0,0,0m1.21,0c-.1,0-.1,0,0,0l.22,0c.1,0,.11,0,0,0a1,1,0,0,0-.23,0m17,0a1.93,1.93,0,0,0,.61.07h.36l-.43,0-.61-.07c-.1,0-.07,0,.07,0m26.73,0a1.94,1.94,0,0,0,.22.25l.17.15-.18-.2-.22-.26s0,0,0,.06M31.9,40.9a4.13,4.13,0,0,0,1.62,1.19c.07,0-.09-.07-.36-.21a3,3,0,0,1-.92-.68c-.25-.25-.4-.38-.34-.3m12.86,0c0,.11,0,.15,0,.09a.74.74,0,0,0,0-.21c0-.05,0,0,0,.12M8.23,40.84h.38c.11,0,0,0-.19,0s-.29,0-.19,0m8.78,0h.41c.1,0,0,0-.22,0s-.31,0-.19,0M14,41.05l.2.23a5.23,5.23,0,0,0,.75.56c.23.12.16,0-.09-.1a4.82,4.82,0,0,1-.62-.5C14,41,13.88,41,14,41.05m-2.53.16a4.87,4.87,0,0,1-1.09.76c-.18.08-.27.13-.2.12.39-.11,1.71-1,1.46-1a.9.9,0,0,0-.17.16m17,.13-.12.14.14-.12.13-.12,0,.55,0,.55v-.57c0-.6,0-.64-.2-.43m33.59,0a4,4,0,0,0,.8.53,1.7,1.7,0,0,0-.34-.24,4,4,0,0,1-.47-.36.36.36,0,0,0-.14-.1s0,.07.15.17M6,41.31a0,0,0,0,0,0,0s.07,0,.1.06.05.07.06,0A.24.24,0,0,0,6,41.26a0,0,0,0,0,0,.05m13.49,0a0,0,0,0,0,0,0s.05.15.05.4a1.3,1.3,0,0,0,0,.42,1.26,1.26,0,0,0,0-.45c0-.43-.05-.56-.13-.42m3.87,0a.35.35,0,0,0,.14.14l.14.1-.13-.14c-.13-.14-.15-.16-.15-.1m14.16.08c-.06.1-.06.11,0,.05s.08,0,.09.35,0,.42.09.44.07,0,0-.05a1,1,0,0,1-.07-.48c0-.43,0-.52-.15-.31m10.06.14a.46.46,0,0,0-.06.2.81.81,0,0,0,.16-.35s-.05,0-.1.15m20.31,0-.35.25c-.08.05-.07.06,0,0a6.92,6.92,0,0,0,.61-.39c.13-.1-.09,0-.29.13m-48.68,0-.3.26c-.11.07-.11.08,0,0s.6-.45.54-.45a.72.72,0,0,0-.22.16M6.25,41.48a.25.25,0,0,0,.09.11c.1.09.31.2.24.14-.27-.23-.33-.28-.33-.25m21.66.21c-.18.12-.31.22-.28.22a2.86,2.86,0,0,0,.58-.38c.08-.1.06-.09-.3.16m-4.23-.12A3.74,3.74,0,0,0,25,42.1a1,1,0,0,0-.3-.11,4,4,0,0,1-.68-.27c-.2-.11-.35-.18-.34-.15m13.53,0a2.39,2.39,0,0,1-.26.21c-.12.08-.11.08,0,0a1.15,1.15,0,0,0,.27-.21c.14-.14.1-.14-.06,0m7.77.07a1,1,0,0,0,.43.44c.16.09.17.09.05,0a2.37,2.37,0,0,1-.48-.47c-.09-.12-.09-.12,0,0m-38.3.13a2.31,2.31,0,0,0,.56.29A1.5,1.5,0,0,0,7,41.93c-.16-.08-.28-.13-.27-.11M47.27,42l-.17.19.19-.17c.18-.17.21-.21.17-.21l-.19.19M15.2,42a1.52,1.52,0,0,0,.25.09c.07,0,0,0-.07-.06s-.37-.14-.18,0m12,0c-.14,0-.24.08-.23.09a1.66,1.66,0,0,0,.55-.15s0,0-.32.06m9.32,0c-.13.07-.14.09,0,.07s.37-.18.28-.17a1.1,1.1,0,0,0-.23.1M63,42a1.25,1.25,0,0,0,.25.09c.07,0,0,0-.07-.06s-.37-.14-.18,0M67,42c-.11,0-.14.08-.07.06s.4-.16.33-.16A.89.89,0,0,0,67,42m-59.64.15c.15.06.27.06.17,0a.34.34,0,0,0-.17-.05H7.28l.11.05m2.37,0c-.06,0-.07,0,0,0l.18,0c.06,0,.07-.05,0-.05a.49.49,0,0,0-.18.05m5.92,0,.18,0c.05,0,0,0,0,0a.41.41,0,0,0-.17-.05c-.05,0,0,0,0,.05m2.36,0c-.07,0-.07,0,0,0a.44.44,0,0,0,.15,0c.06-.05.06-.05,0-.05a.3.3,0,0,0-.15.05m7.25,0a2.09,2.09,0,0,0,.63,0l-.42-.05c-.29,0-.35,0-.21,0m1.09,0-.23,0h.23a2,2,0,0,0,.38,0l.15,0h-.15l-.38,0m7.36,0c.15.06.28.06.18,0a.35.35,0,0,0-.18-.05h-.1l.1.05m2.38,0c-.06,0-.07,0,0,0l.17,0c.07,0,.08-.05,0-.05a.49.49,0,0,0-.18.05m27.25,0,.17.06c.11,0,.13,0,.08,0s-.3-.08-.25,0m3.16,0c-.07,0-.08,0,0,0l.18,0c.06,0,.07-.05,0-.05a.41.41,0,0,0-.17.05m-58.76.1a1,1,0,0,0,.25,0c.11,0,.11,0,0,0s-.39-.06-.22,0m1.49,0c-.14,0-.14,0,0,0a1.17,1.17,0,0,0,.26,0c.17-.06,0-.06-.23,0m6.85,0a1,1,0,0,0,.23,0c.08,0,.08,0,0,0l-.23,0c-.08,0-.08,0,0,0m1.5,0c-.14,0-.14,0,0,0a.85.85,0,0,0,.23,0c.12-.06,0-.06-.2,0m16.54,0a.87.87,0,0,0,.25,0h.15l-.15,0-.25,0h-.1l.1.05m1.49,0-.13,0h.13a1.09,1.09,0,0,0,.25,0l.13,0h-.13a1.09,1.09,0,0,0-.25,0m28.26,0c.21,0,.39,0,.22,0a1.09,1.09,0,0,0-.25,0c-.11,0-.11,0,0,0m2.17,0c-.14,0-.14,0,0,0a.72.72,0,0,0,.22,0c.13-.06,0-.06-.2,0m-20,.08a.76.76,0,0,0,.3,0c.08,0,0,0-.16,0s-.23,0-.14,0m18.77,0h.53c.15,0,0,0-.26,0s-.42,0-.27,0m-34.64.22a1.13,1.13,0,0,1,0,.18c0,.08,0,.08,0,0a.29.29,0,0,0,0-.18c0-.08,0-.08,0,0m-2,.45c-.09.14-.19.25-.22.25a.06.06,0,0,0-.05.06s0,0,.08,0a2.15,2.15,0,0,0,.37-.53.8.8,0,0,0-.18.23m-3.81.28a2,2,0,0,0,.55.26s-.09-.07-.25-.15-.3-.13-.3-.11m3.31.17c-.08.06-.13.1-.1.1s.33-.2.28-.2l-.18.1M23,43.63c-.06.09-.09.16-.08.16a.69.69,0,0,0,.13-.16.44.44,0,0,0,.09-.15s-.08.07-.14.15m2.13,0a.34.34,0,0,0,.17,0c.13,0,.09,0-.1-.07s-.13,0-.07,0m2.12,0a1.57,1.57,0,0,1-.4.08h-.18l.16,0a1.67,1.67,0,0,0,.73-.17s-.06,0-.31.06m-1.74.07c.09.05.47.08.42,0l-.27-.05c-.16,0-.22,0-.15,0m4.17.21a2.94,2.94,0,0,1-.45.51c-.15.14-.21.21-.13.16.28-.2.83-.84.77-.91a.86.86,0,0,0-.19.24m-3.53-.12h.28c.08,0,0,0-.14,0s-.21,0-.14,0m-3.32,0c-.09.09,0,.29.3.47.06,0,0,0-.09-.12s-.19-.23-.17-.29,0-.11,0-.06m.5.61a9.35,9.35,0,0,0,1.16.57,3.34,3.34,0,0,0-.62-.34c-.35-.17-.59-.28-.54-.23m4.9.55a7.18,7.18,0,0,1-.79.22c-.26,0-.41.1-.33.1a4.54,4.54,0,0,0,1.46-.43s0,0-.34.11m-3.46.1a2.66,2.66,0,0,0,.79.19c.25,0,.25,0-.05,0l-.6-.15c-.36-.1-.45-.1-.14,0m1.48.26h.28c.08,0,0,0-.14,0s-.21,0-.14,0" transform="translate(0 0)"/><path id="path4-2" data-name="path4" class="cls-10" d="M64.12,34.12a4.08,4.08,0,0,0,.79,0c.53,0,.86,0,.73,0a8.55,8.55,0,0,0-1.52,0m-10.81,0a3.84,3.84,0,0,0,.48,0c.13,0,0,0-.24,0s-.37,0-.24,0m4.15,0a5.23,5.23,0,0,0,.56,0c.14,0,0,0-.3,0s-.42,0-.26,0m-4.64.06-.11.05h.11a.34.34,0,0,0,.17-.05c.1-.06,0-.06-.17,0m1.34,0a.34.34,0,0,0,.17.05h.11l-.11-.05c-.15-.06-.27-.06-.17,0m2.61,0a.52.52,0,0,0-.22.1,1,1,0,0,0,.32-.08c.16-.05.26-.1.22-.1l-.32.08m1.61,0a.53.53,0,0,0,.2.05h.1l-.1-.05a.65.65,0,0,0-.2,0h-.1l.1,0m5.08.05c-.55.18-1.75.95-1.64,1s.11-.06.22-.16a3.72,3.72,0,0,1,1.43-.83c.3-.09.44-.15.35-.15a2.21,2.21,0,0,0-.36.09M66,34.22l.33.11a4.31,4.31,0,0,1,1,.49c.14.1.16.11.09,0a4.08,4.08,0,0,0-1.1-.57c-.31-.1-.53-.13-.33-.05m-57.61,0a4.68,4.68,0,0,0,.53,0c.15,0,0,0-.26,0s-.42,0-.27,0m41.36,0c.29,0,.79,0,1.11,0s.07,0-.54,0-.87,0-.57,0m-41.93,0-.34.1a1,1,0,0,0-.28.11.5.5,0,0,0,.19,0l.46-.12c.15,0,.22-.07.15-.07l-.18,0m1.62,0a4.47,4.47,0,0,1,.83.27,3.64,3.64,0,0,1,1.65,1.57c.2.41.28.51.15.19a3.57,3.57,0,0,0-2.6-2l-.23,0,.2,0m6.7,0a3.82,3.82,0,0,0-2.65,2.09c0,.06,0,0,.11-.15a3.74,3.74,0,0,1,2.77-1.94c.14,0,.2,0,.13,0a1.86,1.86,0,0,0-.36,0m1.29,0a1.32,1.32,0,0,0,.48,0,1.34,1.34,0,0,0-.32,0c-.2,0-.26,0-.16,0m7.77,0c-.14,0-.15,0,0,0l.33,0c.17,0,.17,0,.05,0a1.93,1.93,0,0,0-.33,0m1.47,0a4.66,4.66,0,0,1,.5.12.5.5,0,0,0,.19,0,1.94,1.94,0,0,0-.74-.21l-.28,0,.33.07m7.66,0a2.77,2.77,0,0,0-.66.17s.1,0,.24,0l.52-.12c.14,0,.2,0,.13,0l-.23,0m1.16,0a1.24,1.24,0,0,0,.33,0H36l-.2,0c-.27,0-.53,0-.31,0m8.39,0a2.29,2.29,0,0,0-1.31,1c-.12.18-.22.28-.24.25s0,0,0,0,.08.15.14,0A2.33,2.33,0,0,1,44,34.35c.14,0,.21-.06.16-.06a1.48,1.48,0,0,0-.27,0m.71.27v.32l0-.28a.54.54,0,0,0,0-.32s0,.1,0,.28m4.55,3.61c0,3.57,0,4,.07,4a7.5,7.5,0,0,0,2.27-.09c0-.15.06-5.09,0-5.06s0,1.17-.05,2.56l0,2.54H49.22l0-3.94,0-4v4m2.33-3.48c0,.51,0,.55.23.3.07-.08.21-.24.31-.33s.18-.18,0-.07a1.59,1.59,0,0,0-.29.29c-.2.25-.23.22-.25-.24v0m1.07-.41a.81.81,0,0,0-.22.12l-.13.11.14-.08a.46.46,0,0,1,.21-.08.12.12,0,0,0,.1-.06s0,0,0,0l-.12,0m6.38.09a2.34,2.34,0,0,1,.35.23l.18.12c.11,0-.14-.15-.36-.29a1.11,1.11,0,0,0-.3-.16c-.07,0,0,0,.13.1m-54.63.05c0,.13,0,10.57,0,10.64s.23.06.84,0H6V43.19c0-1.06,0-1.93.06-1.93a.2.2,0,0,1,.11.06c.06,0,.06,0,0,0C6,41,6,41.13,5.93,43.14v1.94H4.35V34.45H5.92v.44c0,.44.09.57.2.38a3.23,3.23,0,0,1,.81-.61c.12,0,.21-.11.2-.12a3,3,0,0,0-1,.71s0,0,0,0A1,1,0,0,1,6,34.84V34.4H5.15c-.71,0-.82,0-.84.06m13.73,0a.28.28,0,0,0,.14.06,4,4,0,0,1,1,.52l.26.19L19.27,35a3.91,3.91,0,0,0-1.16-.61c-.11,0-.13,0-.07,0m1.62,0a1,1,0,0,0-.06.43c0,.3,0,.37-.08.37s-.06,0,0,0,.17,0,.18-.39l0-.43h1.54s.05,1.28,0,3.83v3.83l-.8,0h-.8v-.48c0-.56,0-.59-.3-.3a3.61,3.61,0,0,1-.42.33.84.84,0,0,0-.22.18,1.93,1.93,0,0,0,.64-.46c.24-.25.25-.24.26.28l0,.47H21.3V38.32a33.94,33.94,0,0,0,0-3.9,6.1,6.1,0,0,0-1.6,0m5.15,0c-.1,0-.1,0,0,0a.58.58,0,0,0,.18,0c.08-.06,0-.06-.16,0m3.83,0a1.85,1.85,0,0,0,0,.43c0,.4,0,.41-.24.17a2.71,2.71,0,0,0-.9-.52s.12.09.29.17a3.17,3.17,0,0,1,.59.39c.32.29.32.3.33-.23v-.42h.83a4.47,4.47,0,0,0,.82,0,5.67,5.67,0,0,0-1.69.05m7.46,0a.28.28,0,0,0,.14.06,3.5,3.5,0,0,1,.44.17,1.8,1.8,0,0,0,.38.15,4,4,0,0,0-.89-.39c-.11,0-.13,0-.07,0m1.63,0a.83.83,0,0,0-.07.43c0,.39,0,.43-.18.26a1.38,1.38,0,0,0-.25-.21c-.08-.06,0,0,.13.15.36.34.35.34.35-.16v-.43h1.62v3.78c0,2.08,0,3.81,0,3.84s-.22.07-.79.06l-.76,0v-.47c0-.32,0-.46-.08-.46a1.92,1.92,0,0,0-.53.48.94.94,0,0,0,.26-.21c.3-.29.28-.3.28.2s0,.54.86.54a2.34,2.34,0,0,0,.8-.06c.09-.09.09-7.64,0-7.72s-.29-.06-.8-.06-.75,0-.79.06m2.94,0s0,1.79,0,3.91v3.84l.78,0a5.53,5.53,0,0,0,.82,0,3.28,3.28,0,0,0-.75,0h-.79l0-3.86V34.42l.81,0a5.05,5.05,0,0,0,.81,0,6.54,6.54,0,0,0-1.65,0m14.2.07a2.72,2.72,0,0,1,.53.55.18.18,0,0,0,.33-.1s0,0-.09.06l-.08.12-.31-.33a3,3,0,0,0-.44-.38c-.07,0-.05,0,.06.08m1.41,0a2.06,2.06,0,0,0-.5.41s.12-.06.27-.18a4.21,4.21,0,0,1,.36-.28c.06,0,.09-.06.07-.06l-.2.11m-32,.12c-.09,0-.16.08-.16.1a1.46,1.46,0,0,0,.39-.16c.05,0-.06,0-.23.06m9,0c-.08,0-.14.08-.14.1s.06,0,.14-.05l.22-.1c.06,0,.06,0,0,0a.66.66,0,0,0-.22.08M24,34.79a4.08,4.08,0,0,0-1.49,1.74s.08-.1.17-.27A3.56,3.56,0,0,1,23.78,35c.38-.28.44-.34.2-.2m8.76.2a3.9,3.9,0,0,0-.91,1c-.09.15-.09.15,0,0a4.27,4.27,0,0,1,.93-1,2.59,2.59,0,0,0,.37-.31,2.35,2.35,0,0,0-.39.26m35.11.26a4,4,0,0,1,1,1.86c.06.25.09.3.07.15a3.89,3.89,0,0,0-1.12-2.13c-.19-.18-.18-.16.07.12m-8,0c0,.1.09.17.1.16a.82.82,0,0,0-.16-.34s0,.08.06.18m-15.29.43-.05.33-.3,0-.31,0h.66l0-.23a1.5,1.5,0,0,0,0-.35c0-.07,0,0-.06.2m17.15-.23-.17.23c-.18.23-.1.18.12-.07s.16-.23.14-.23a.17.17,0,0,0-.09.07m-53.82.23a1.1,1.1,0,0,0-.28.08s0,0,.15,0l.56-.08c.35,0,.35,0,.09,0a4.22,4.22,0,0,0-.52,0m.83,0,.25,0c.14,0,.2,0,.15,0s-.45-.07-.4,0m7.78,0a2.25,2.25,0,0,0-.75.39s.1,0,.23-.1a2.25,2.25,0,0,1,1.42-.3c.3,0,.49,0,.42,0a4.89,4.89,0,0,0-1.32,0m9.15,0a1.85,1.85,0,0,0,.6,0,1.75,1.75,0,0,0,.59,0,3.45,3.45,0,0,0-.59,0,3.52,3.52,0,0,0-.6,0m9.06,0a1.79,1.79,0,0,0,.6,0c.37,0,.63,0,.56,0a5.62,5.62,0,0,0-1.16,0m-27.48.18A2.74,2.74,0,0,0,6,37.36l0,.13.06-.13.19-.4a2.59,2.59,0,0,1,1-1c.15-.07.24-.13.2-.13a.93.93,0,0,0-.27.11m2-.08.22.1c.07,0,.14.06.14,0a.71.71,0,0,0-.37-.17s0,0,0,0m9,.09a2.39,2.39,0,0,1,.94.75c.17.23.28.3.13.07a2.71,2.71,0,0,0-1.29-1s.05.06.22.13m9,0,.4.2c.12.07.15.07.08,0a2.3,2.3,0,0,0-.64-.33s0,.05.16.11m7.05,0-.17.09s.08,0,.17,0l.24-.09c.06,0,.06,0,0,0a.83.83,0,0,0-.24.07m2,0a2.38,2.38,0,0,1,1.46,2.31l0,.53v-.43A2.56,2.56,0,0,0,37,36.38a2.44,2.44,0,0,0-1-.59s.05.06.2.12M60.06,36c0,.25.07.29.07.1a.48.48,0,0,0-.06-.23c0-.05,0,0,0,.13m1.21.05c-.05.08-.08.15-.06.16s.06,0,.1-.13.07-.21,0,0m-51.46.14a3.23,3.23,0,0,1,.37.37c.12.14.14.15.07,0a2.27,2.27,0,0,0-.54-.53c-.05,0,0,0,.1.11m14.93,0c-.21.15-.62.65-.57.69s.08-.06.15-.17a2.51,2.51,0,0,1,.54-.56c.19-.15.11-.12-.12,0m39.54,0a1.39,1.39,0,0,0-.32.15s.05,0,.19-.05a1.8,1.8,0,0,1,2.16.61c.09.13.09.13,0,0a1.77,1.77,0,0,0-2-.68m-20.86.1c-.44.23-1,.88-1,1.18,0,0,.06-.07.14-.24a1.77,1.77,0,0,1,1.1-1c.15-.05.17-.07.08-.07a.92.92,0,0,0-.32.09m8.83-.06s.12,0,.34,0,.38,0,.37,0a1.88,1.88,0,0,0-.71,0m4.21.06a1.55,1.55,0,0,0-.28.24c-.09.11-.07.09.09,0a.92.92,0,0,1,.82-.23c.14,0,.24,0,.22,0s-.69,0-.85,0m-41,.17a2,2,0,0,0-.37.53s.06,0,.13-.16.21-.28.29-.37.15-.16.13-.16l-.18.16M28,36.4a1.24,1.24,0,0,0,.22.2.9.9,0,0,0-.17-.2,1.14,1.14,0,0,0-.23-.2,1.24,1.24,0,0,0,.18.2m5.52,0a2,2,0,0,0-.24.32c-.08.15-.07.14.22-.22s.28-.39,0-.1m18.4,0a1.13,1.13,0,0,0-.32.56s.06-.05.12-.2a1.17,1.17,0,0,1,.29-.39c.09-.07.14-.13.12-.13a.53.53,0,0,0-.21.16m1.28,0,.16.15a.44.44,0,0,0-.09-.15c-.06-.08-.13-.15-.16-.15s0,.07.09.15m4.33,0a1.36,1.36,0,0,1,.21.32c0,.1.08.15.08.11a1,1,0,0,0-.32-.51c-.09,0-.09,0,0,.08m2.66,2.75c0,1.57,0,2.9,0,3l0,.12H59c-.61,0-1.11,0-1.12,0s0-1.2,0-2.66l0-2.66v2.6c0,1.71,0,2.62,0,2.69a6.09,6.09,0,0,0,2.33,0c0-.11.06-5.21,0-5.64,0-.14,0,1,0,2.6m.89-2.65a3.63,3.63,0,0,0-.22.75,2.79,2.79,0,0,0,.18-.46c.16-.49.18-.61,0-.29m2.54.12c-.24.27-.42.65-.37.78a13,13,0,0,0,3.3,0c0-.07,0-.08,0,0a13.18,13.18,0,0,1-3.26,0,1.71,1.71,0,0,1,.41-.75c.12-.13.2-.23.18-.23a2.5,2.5,0,0,0-.25.25m-41.23.29a1.25,1.25,0,0,0-.08.31c0,.05,0,0,.1-.22.11-.36.09-.44,0-.09M56,36.73a1.67,1.67,0,0,0-.08.3c0,.09,0,0,.07-.12a.94.94,0,0,0,.08-.3s0,0-.07.12m-45.54.2a3.49,3.49,0,0,1,.19,2.2,1.23,1.23,0,0,0-.06.29.85.85,0,0,0,.11-.27,3.4,3.4,0,0,0-.24-2.3c-.1-.12-.1-.12,0,.08m2.87-.06a1.13,1.13,0,0,0,0,.18c0,.05,0,0,.05,0a.35.35,0,0,0,0-.17s0,0-.06,0M33.09,37c-.11.26-.09.3,0,.07a.49.49,0,0,0,.08-.23s-.06.06-.1.16m20.4,2.45c0,1.44,0,2.65,0,2.68a13.09,13.09,0,0,0,2.28,0c.07,0,.08-.29.07-2.44l0-2.41,0,2.4,0,2.4H54.68l-1.13,0V39.6c0-1.41,0-2.61,0-2.66s0,1.1,0,2.53M12.27,37a.39.39,0,0,0,.05.2c.06.1.06,0,0-.2l0-.13V37m2.71.11a3.29,3.29,0,0,0-.1.37l0,.2.06-.18c0-.1.08-.26.12-.36s.05-.26,0,0m-1.77.19a1.2,1.2,0,0,0,0,.28c0,.12,0,.1.05-.08s0-.4,0-.2m18.06,0a1,1,0,0,0,0,.32c0,.17,0,.16.05-.1s0-.43,0-.22m-9,.13a10.68,10.68,0,0,0,0,1.7,4.11,4.11,0,0,0,0-.87c0-.56,0-1,0-1a1.38,1.38,0,0,0,0,.19m38.55.07a7.59,7.59,0,0,0,0,1.43c0,.14,0-.18,0-.72,0-1.09,0-1.07,0-.71m-27.86.07a4.36,4.36,0,0,0,0,.76l0,.45v-.5a3.51,3.51,0,0,1,.06-.7.75.75,0,0,0,0-.25s0,.07-.09.24m-20.52.66c0,.77,0,.81,0,.44a6.17,6.17,0,0,0,0-.86c0-.41,0-.38,0,.42m11.49-.76a1.56,1.56,0,0,0,0,.27c0,.17,0,.16.05-.07s0-.35,0-.2m-4.29.2a.94.94,0,0,0,.05.27s0-.38,0-.45,0,0,0,.18m22.76-.12a1,1,0,0,0,0,.3c0,.14,0,.12.05-.1s0-.4,0-.2M5.92,37.8c-.08.59.12,1.91.26,1.77a1.31,1.31,0,0,0-.1-.29,2.44,2.44,0,0,1-.11-1c0-.84,0-.86,0-.46m22.71.45a2.09,2.09,0,0,0,0,.64,4,4,0,0,0,0-.64,4,4,0,0,0,0-.65,2.19,2.19,0,0,0,0,.65M69,38.17a6.56,6.56,0,0,0,0,.7,5.69,5.69,0,0,0,0-1.13c0-.16,0,0,0,.43m-54.15.1c0,.32,0,.45,0,.29a5.61,5.61,0,0,0,0-.58c0-.16,0,0,0,.29m-1.67,0c0,.29,0,.41,0,.27a4.68,4.68,0,0,0,0-.53c0-.15,0,0,0,.26m18.06,0c0,.24,0,.33,0,.22a3.08,3.08,0,0,0,0-.43c0-.12,0,0,0,.21m-7.39-.1c0,.15,0,.22,0,.14a1.31,1.31,0,0,0,0-.28c0-.08,0,0,0,.14m-4.15.08c0,.16,0,.23,0,.13a1.5,1.5,0,0,0,0-.3c0-.08,0,0,0,.17m4.18.41a.81.81,0,0,0,0,.27c0,.05,0,0,0-.18s-.07-.35-.07-.09m-4.24,0a1.18,1.18,0,0,1,0,.28c0,.11,0,.11,0,0a.57.57,0,0,0,0-.28c0-.16,0-.17,0,0M32.94,39c0,.31.58,1.34.58,1.12a.83.83,0,0,0-.13-.21A3.14,3.14,0,0,1,33,39l-.07-.23,0,.2m-18.08-.07c0,.13.08.35.08.23a.78.78,0,0,0,0-.21c0-.06,0-.07,0,0m-1.67.15a1.28,1.28,0,0,0,0,.3c.06.18.06,0,0-.27l0-.21v.18m18.06,0a1.28,1.28,0,0,0,0,.3c.06.18.06,0,0-.27l0-.21v.18M66.09,39c-3,0-3,0-2.87.22,0,.05,0,0,0,0V39h2.82c1.74,0,2.85,0,2.9-.05s0,0,0,0l-2.92,0m-37.53.09a1.43,1.43,0,0,1,0,.16q0,.11,0,0a.16.16,0,0,0,0-.15c0-.05,0-.07,0,0m9.06,0a2.59,2.59,0,0,1-1,1.41c-.1,0-.17.1-.15.12.19.19,1.31-1.21,1.23-1.54,0-.08,0-.08,0,0m-25.33.27a.43.43,0,0,0,0,.19s0,0,.06-.14,0-.17,0-.18,0,0-.06.13m7.11.14a1.9,1.9,0,0,1-.48.66c-.2.2-.33.34-.28.32.29-.15,1-1.06.9-1.23s-.07.09-.14.25m41.44-.24c0,.13.09.35.09.23a.65.65,0,0,0,0-.2c0-.06,0-.07,0,0M15,39.3a2.35,2.35,0,0,0,.31.59s0-.13-.12-.29c-.17-.32-.19-.35-.19-.3m48.31,0a.39.39,0,0,0,.11.17l.1.12-.09-.15c-.11-.2-.12-.2-.12-.14m-41,.1a3.62,3.62,0,0,0,1.57,2.22c.23.12.17,0-.12-.14a3.26,3.26,0,0,1-1.36-1.89c-.05-.17-.09-.25-.09-.19m6.07.14a2.51,2.51,0,0,1-1,.91c-.2.1-.3.17-.23.15.5-.14,1.53-1.09,1.36-1.26,0,0-.07.08-.14.2m-4.3-.15c0,.3.85,1.08,1.31,1.21.07,0,0,0-.18-.12a2.17,2.17,0,0,1-.94-.85c-.14-.24-.19-.31-.19-.24m43.12.17a2.68,2.68,0,0,1-.81.51c-.19.08-.32.15-.28.15a3.17,3.17,0,0,0,1-.55c.15-.13.24-.18.26-.14s0,.05.05,0,0,0,0-.08-.11,0-.22.08m-56.77.12a2.37,2.37,0,0,1-.71.77c-.27.18-.28.22,0,.07s.92-.95.84-1-.07.08-.13.19m35.64-.13h.35c.11,0,0,0-.16,0s-.28,0-.19,0m-32.76.07a.59.59,0,0,0,0,.17c0,.07,0,.08,0,0a.74.74,0,0,0,0-.18c0-.06,0-.07,0,0m18.05,0a.3.3,0,0,0,.05.15c0,.07.05.07.05,0a.3.3,0,0,0-.05-.15c0-.07-.05-.07-.05,0m14.27,0a1.71,1.71,0,0,0-.64.58c-.12.24-.08.23.07,0a1.31,1.31,0,0,1,.62-.55c.12,0,.2-.1.17-.1a.74.74,0,0,0-.22.08m1.14,0c.27.11.68.45.68.57s0,0,0,0c.21,0-.47-.57-.74-.63l-.15,0,.16,0m-40.48.14a2,2,0,0,0,.5.57c.14.1.13.09,0-.09a2.18,2.18,0,0,1-.34-.41,1,1,0,0,0-.17-.21s0,.06.06.14m54.69,0A.57.57,0,0,0,61,40s0,0,0-.12-.12-.28-.08-.08m2.51-.12c0,.06.27.33.41.42s.23.1,0-.05a3.21,3.21,0,0,1-.32-.27c-.06-.07-.11-.11-.11-.1m4.07.1c.06.07.3.36.55.64.51.6.5.55.17.86-.15.13-.22.21-.17.17a2.21,2.21,0,0,0,.49-.47,12.24,12.24,0,0,0-1.06-1.26s0,0,0,.06m-52.15.33c.11.16.27.31.27.26a1.08,1.08,0,0,0-.19-.22c-.16-.18-.17-.18-.08,0m45.7,0c0,.22,1,1.55,1.09,1.44a4.69,4.69,0,0,0-.35-.39,3.77,3.77,0,0,1-.55-.73,1.71,1.71,0,0,0-.19-.32m3.06.15a1.48,1.48,0,0,0,.53.14s-.08-.06-.25-.1-.29-.06-.28,0m-50.67,0c0,.07.16.35.19.32a.52.52,0,0,0-.08-.19c-.06-.1-.11-.15-.11-.13m18.06,0c0,.06.16.34.18.32a.66.66,0,0,0-.16-.35s0,0,0,0m-19.62.24c-.1.2-.1.2,0,.09s.17-.31.13-.31a1.32,1.32,0,0,0-.12.22m53.86-.18a2.57,2.57,0,0,1-.53.07l-.49,0,.5,0c.45,0,1-.11.65-.12,0,0-.12,0-.13,0m-50,.13a1.59,1.59,0,0,0,.62.34s0,0-.16-.1a4.32,4.32,0,0,1-.38-.21c-.12-.09-.14-.09-.08,0m18,0a1.2,1.2,0,0,0,.42.27s-.08-.08-.2-.15a.79.79,0,0,0-.22-.12m-26.71.17c.12.1.2.14.2.08a.45.45,0,0,0-.17-.1l-.16-.08.13.1m37.77,0a2.3,2.3,0,0,0,0,.74s0-.12,0-.37c0-.49,0-.49,0-.37m2.82.35c0,.22,0,.3,0,.19a2.8,2.8,0,0,0,0-.41c0-.1,0,0,0,.22m-33.88-.19a3.41,3.41,0,0,0,.42.48l.33.31-.33-.35c-.18-.19-.37-.41-.42-.48s-.09-.12,0,0m-6.41,0a.3.3,0,0,0,.15,0c.07,0,.07,0,0,0a.3.3,0,0,0-.15-.05c-.07,0-.07,0,0,.05m10.73,0c-.07,0-.07,0,0,0a.3.3,0,0,0,.15,0c.06,0,.06-.05,0-.05a.3.3,0,0,0-.15.05m7.57,0a5.71,5.71,0,0,0,1.17,0c.06,0-.19,0-.57,0a1.91,1.91,0,0,0-.6,0m-14,.18a3,3,0,0,1-.35.37l-.35.32c-.12.11-.1.11.09,0a3.35,3.35,0,0,0,.75-.76c.08-.15,0-.1-.14.1M7.69,40.8a.93.93,0,0,0,.25,0h.15l-.15,0-.25,0h-.1l.1,0m1.19,0-.13,0h.13a.85.85,0,0,0,.23,0l.1,0h-.1a1,1,0,0,0-.23,0m7.64,0a.39.39,0,0,0,.2.05h.13l-.13,0c-.2-.06-.3-.06-.2,0m1.19,0-.16,0h.16a.36.36,0,0,0,.22,0c.1-.06,0-.06-.22,0m16.89,0a.78.78,0,0,0,.21,0c.08,0,.07,0,0,0s-.31,0-.18,0m1.17,0-.15,0h.15a.36.36,0,0,0,.22,0c.1-.06,0-.06-.22,0m-3.55.4a2,2,0,0,0,.32.29A4.11,4.11,0,0,0,32,40.9a2.29,2.29,0,0,0,.27.3m-3.92.16c-.22.21-.23.23-.06.1a1.15,1.15,0,0,0,.24-.21c.09-.14.13,0,.13.44,0,.63,0,.6.06,0s0-.61-.37-.28m-21.91.21a2.89,2.89,0,0,0,.38.26c.16.09.16.09,0,0l-.35-.26c-.28-.21-.34-.21-.07,0m8.19,0a1.06,1.06,0,0,0,.37.24,1.24,1.24,0,0,0-.22-.17c-.11-.07-.18-.11-.15-.07m47.67,0a2.42,2.42,0,0,0,.64.37s0-.06-.13-.1l-.33-.19c-.1-.06-.18-.1-.18-.08m-14.86.22a1.59,1.59,0,0,1-.35.31c-.25.17-.26.21,0,.08s.59-.53.49-.53a.69.69,0,0,0-.12.14m-36.8,0c-.19.1-.18.15,0,.05l.15-.1s0,0-.16,0m13.62,0a.71.71,0,0,0,.22.1s0,0-.12-.1a.91.91,0,0,0-.23-.09s0,0,.13.09m3.42,0c-.08,0-.13.08-.12.1a.82.82,0,0,0,.34-.16s-.06,0-.22.06m9.26,0a.55.55,0,0,0-.14.1s.08,0,.21-.08.12-.12-.07,0m30.51,0c-.08,0-.14.08-.12.1a.37.37,0,0,0,.19-.08c.19-.12.14-.14-.07,0m-37.15.32a1.67,1.67,0,0,0,0,.38,2.45,2.45,0,0,0,.07-.72,1.19,1.19,0,0,0-.06.34m14.93-.21c0,.06.1.09.11.08s-.11-.18-.17-.18,0,0,.06.1M7.11,42a.63.63,0,0,0,.25.1s0,0-.13-.1-.35-.12-.12,0m11.25,0c-.11.06-.17.1-.14.1a1.09,1.09,0,0,0,.42-.17s-.06,0-.28.07m6.58.06.2,0c.08,0,.08,0,0,0s-.31-.06-.18,0m1.92,0-.1,0h.1a.48.48,0,0,0,.18,0c.1-.07,0-.07-.18,0m9.44,0c-.07,0-.07,0,0,0a.42.42,0,0,0,.15,0c.07,0,.07,0,0,0a.3.3,0,0,0-.15,0m30.45,0c-.06,0-.06,0,0,0a.47.47,0,0,0,.16,0c.06,0,.06,0,0,0a.33.33,0,0,0-.16,0m-59.23.07a3.92,3.92,0,0,0,1.74.13c.08,0-.08,0-.36,0a4.37,4.37,0,0,1-1.31-.13c-.06,0-.09,0-.07,0m2,0c-.14,0-.14,0,0,0a.72.72,0,0,0,.22,0c.13-.06,0-.06-.2,0m6.27,0c.1.05.37.08.33,0l-.22-.05c-.15,0-.18,0-.11,0m1.83,0a3.62,3.62,0,0,1-.92,0c-.3,0-.49,0-.42,0a4.25,4.25,0,0,0,1.75-.12s0,0-.41.05m8.07,0a3.1,3.1,0,0,0,.61,0c.21,0,.13,0-.34,0s-.56,0-.27,0m8.19,0a.53.53,0,0,0,.2,0c.16,0,.12,0-.1-.07s-.15,0-.1,0m2,0c-.14,0-.14,0,0,0a.79.79,0,0,0,.23,0c.13-.06,0-.06-.2,0m27.7,0a.44.44,0,0,0,.22.06c.2,0,.15,0-.1-.07s-.18,0-.12,0m2.53,0a6,6,0,0,1-1.24.06,5.31,5.31,0,0,0-.78,0,7.77,7.77,0,0,0,2.47-.13s-.1,0-.45.06m-31.75.07a5.64,5.64,0,0,0,1.23,0c.06,0-.22,0-.63,0a2.2,2.2,0,0,0-.6,0m11.38,0a2.66,2.66,0,0,0,.92,0s-.17,0-.46,0-.5,0-.46,0m-17.22.07a1.31,1.31,0,0,1,0,.15c0,.08,0,.08,0,0a.16.16,0,0,0,0-.15s0-.07,0,0m1.59.37a.43.43,0,0,0,0,.19s0,0,.06-.14a.69.69,0,0,0,0-.19s0,.06-.06.14m-6.92.63a6.15,6.15,0,0,0-.39.63,1.43,1.43,0,0,0,.43.42c.06,0,0,0-.14-.16-.3-.26-.31-.2.13-.86s.41-.61.54-.46a5.15,5.15,0,0,0,.85.58c.27.14.26.09,0-.06a3.77,3.77,0,0,1-.81-.56c-.15-.17-.19-.14-.6.47M28.29,43c-.05.07-.07.13-.05.13s.18-.21.15-.24-.06,0-.1.11m1.76.09a3.9,3.9,0,0,1-.24.56c0,.05,0,.08,0,.08a3,3,0,0,0,.3-.62c0-.16,0-.18-.05,0m-2,.2a2.32,2.32,0,0,1-.25.21c-.12.08-.12.08,0,0a1.2,1.2,0,0,0,.27-.21c.14-.14.11-.14-.06,0M25,43.63a.3.3,0,0,0,.15,0c.07,0,.07,0,0,0a.44.44,0,0,0-.15-.05c-.07,0-.07,0,0,.05m.32.1a.54.54,0,0,0,.21.05h.1l-.1-.05a.78.78,0,0,0-.21,0h-.1l.1,0m1.88,0c-.07,0-.08.05,0,.05a.49.49,0,0,0,.18-.05c.06,0,.07,0,0,0l-.17,0m-1.32.11a2.78,2.78,0,0,0,.91,0q.19,0-.45,0c-.43,0-.59,0-.46,0m3.46.44a3,3,0,0,1-.63.5c-.16.09-.28.17-.25.17a3.19,3.19,0,0,0,1.14-.86c.15-.21.12-.19-.26.19m-5.91.19a.47.47,0,0,0,.16.1l.17.08-.13-.1c-.12-.1-.2-.13-.2-.08m1.06.53a.3.3,0,0,0,.15,0c.07,0,.07,0,0,0a.3.3,0,0,0-.15,0c-.07,0-.07,0,0,0m.33.1.2,0c.08,0,.08,0,0,0s-.31-.05-.18,0m3,0a5.48,5.48,0,0,1-2.28.13,2.41,2.41,0,0,0-.41-.06s0,0,.48.13a5.84,5.84,0,0,0,2.4-.2c.15-.06,0-.06-.19,0" transform="translate(0 0)"/></g></svg>