<svg xmlns="http://www.w3.org/2000/svg" xmlns:xlink="http://www.w3.org/1999/xlink" viewBox="0 0 80 84.19019"><defs><style>.cls-1{fill:none;}.cls-2{fill:#f2f2f2;}.cls-3,.cls-8{fill:#009b41;}.cls-4{fill:#ffdf38;}.cls-5{fill:#002573;}.cls-6{clip-path:url(#clip-path);}.cls-7{fill:#fff;}.cls-8{fill-rule:evenodd;}.cls-9{clip-path:url(#clip-path-2);}.cls-10{fill:#ff632b;}</style><clipPath id="clip-path"><circle class="cls-1" cx="39.99998" cy="76.69019" r="3.75"/></clipPath><clipPath id="clip-path-2"><path class="cls-1" d="M41.16319,76.18371l.14241-.32753.29477.12817-.14242.32752Zm.243-.15583-.02441.05615.14738.06408.02441-.05614Z"/></clipPath></defs><g id="Layer_2" data-name="Layer 2"><g id="Layer_1-2" data-name="Layer 1"><rect class="cls-2" width="80" height="80" rx="39.99996"/><rect class="cls-3" x="29.28569" y="69.19019" width="21.42857" height="15"/><path class="cls-4" d="M31.10712,76.69019,40,82.36876l8.89285-5.67857L40,71.01161Z"/><circle class="cls-5" cx="39.99998" cy="76.69019" r="3.75"/><g class="cls-6"><path class="cls-7" d="M28.75,84.19019a9.10714,9.10714,0,1,1,18.21428,0h-.53571a8.57143,8.57143,0,1,0-17.14286,0Z"/></g><path id="O" class="cls-8" d="M36.80164,75.594a.17956.17956,0,1,0-.18128-.15766.17036.17036,0,0,0,.18128.15766m-.00808-.06584a.11393.11393,0,1,0-.10736-.0999.10447.10447,0,0,0,.10736.0999"/><g id="R"><path id="P" class="cls-8" d="M37.09265,75.56178l.06617-.00463-.00925-.13233.14251-.01a.11225.11225,0,0,0-.01566-.224l-.20359.01424Zm.05229-.20312.13742-.00961a.04592.04592,0,0,0-.00641-.09161l-.13742.0096Z"/><path class="cls-3" d="M37.39549,75.5406c-.00356-.05089-.01139-.16286-.08774-.15753l-.0967.00677c.112-.00783.1198.10414.12336.155"/></g><path id="D" class="cls-8" d="M37.54528,75.5336l.16834-.00294A.15307.15307,0,0,0,37.864,75.375l-.00089-.051a.15306.15306,0,0,0-.15571-.15036l-.16834.00294Zm.06516-.06748.09692-.00169a.09694.09694,0,0,0,.09523-.09862l-.00053-.0306a.097.097,0,0,0-.09862-.09524l-.09692.0017Z"/><path id="E" class="cls-3" d="M37.99876,75.52914l.32123.01122.00231-.06629-.26-.00908.0032-.09178.204.00712.00214-.06119-.204-.00712.00249-.07138.24475.00854.00232-.06628-.30594-.01069Z"/><path id="M" class="cls-3" d="M38.45185,75.54842l.061.00534.02134-.244L38.584,75.56l.05591.00489.0925-.23774-.02134.244.061.00533.03113-.35578-.08895-.00778-.0925.23774-.04981-.25019-.08895-.00778Z"/><path id="e-2" data-name="e" class="cls-3" d="M39.19181,75.63189l.264.04536.01037-.06034-.20365-.035.01382-.08045.16594.02851.01037-.06034-.16594-.02851.00951-.05531.19736.03391.01037-.06034-.2577-.04428Z"/><path id="P-2" data-name="P" class="cls-8" d="M39.87,75.7651l.06422.0166.03321-.12843.13831.03577a.11224.11224,0,1,0,.0562-.21734l-.19758-.05109Zm.114-.176.13336.03449a.04592.04592,0,1,0,.023-.08891l-.13337-.03449Z"/><g id="R-2" data-name="R"><path id="P-3" data-name="P" class="cls-8" d="M40.30817,75.882l.06326.01994.03989-.12651.13624.043a.11225.11225,0,0,0,.06751-.2141l-.19464-.06137Zm.12309-.16983.13138.04143a.04592.04592,0,0,0,.02762-.08759l-.13138-.04142Z"/><path class="cls-3" d="M40.59769,75.97327c.01534-.04866.0491-.15571-.02389-.17872l-.09246-.02915c.107.03375.0733.1408.058.18946"/></g><path id="O-2" data-name="O" class="cls-8" d="M40.89016,76.07794a.17957.17957,0,1,0-.088-.22355.17037.17037,0,0,0,.088.22355m.02323-.06213a.11393.11393,0,1,0-.0491-.13819.10449.10449,0,0,0,.0491.13819"/><g id="G"><g class="cls-9"><path id="O-3" data-name="O" class="cls-8" d="M41.31057,76.24779a.17956.17956,0,1,0-.07618-.22785.17035.17035,0,0,0,.07618.22785M41.337,76.187a.11393.11393,0,1,0-.0418-.14057.10447.10447,0,0,0,.0418.14057"/></g><rect class="cls-3" x="41.43148" y="76.07695" width="0.05102" height="0.1352" transform="translate(-44.90307 83.80053) rotate(-66.5)"/><rect class="cls-3" x="41.38088" y="76.19431" width="0.17857" height="0.05102" transform="translate(-44.96418 83.85787) rotate(-66.5)"/></g><g id="R-3" data-name="R"><path id="P-4" data-name="P" class="cls-8" d="M41.57768,76.3677l.05936.0296.05919-.11872.12785.06375a.11225.11225,0,0,0,.10016-.20091l-.18264-.09106Zm.14814-.14847.12329.06146a.04592.04592,0,1,0,.041-.08219L41.7668,76.137Z"/><path class="cls-3" d="M41.84936,76.50316c.02276-.04566.07285-.14611.00436-.18026l-.08676-.04326c.10045.05009.05037.15054.02761.1962"/></g><path id="E-3" data-name="E" class="cls-3" d="M41.982,76.57314l.27976.15828.03266-.05772-.22647-.12814.04522-.07993.17762.1005.03015-.05329-.17762-.10049.03517-.06217.21315.12059.03266-.05773-.26643-.15074Z"/><path id="S" class="cls-3" d="M42.50305,76.748c-.01919.03012.00026.06369.0433.0911s.07233.02642.08471.00709c.03906-.06132-.18677-.15075-.11717-.25764.06-.09183.1627-.02037.20143.00431a.11662.11662,0,0,1,.05255.162l-.06562-.0418c.02056-.03227-.002-.0633-.03645-.08523-.03335-.02124-.06044-.03094-.08032.00026-.03328.04987.18805.144.12021.25049-.05.07853-.13708.04425-.19517.00724-.04949-.03152-.12343-.10585-.07524-.181Z"/><path id="S-2" data-name="S" class="cls-3" d="M42.88618,77.00132c-.02074.02908-.00307.06361.03847.09324s.07085.03017.08422.01151c.04222-.05919-.17862-.16032-.10352-.26342.06474-.08856.16354-.01182.20093.01485a.11661.11661,0,0,1,.044.16455l-.06334-.04518c.02222-.03115.00129-.06331-.03194-.087-.03219-.023-.05874-.03406-.08022-.00395-.03585.04807.18026.15365.10693.25645-.05407.0758-.13921.037-.19528-.003-.04777-.03407-.11771-.11216-.06566-.1847Z"/><path id="O-4" data-name="O" class="cls-8" d="M43.24854,77.41224a.17956.17956,0,1,0-.01461-.2398.17036.17036,0,0,0,.01461.2398m.04129-.05191a.11394.11394,0,1,0-.004-.1466.10448.10448,0,0,0,.004.1466"/><g id="αCMi"><g id="star1"><g id="star"><g id="c"><path id="t" class="cls-7" d="M36.93875,75.856l-.04966.15285.07642.02483"/><path id="t-2" data-name="t" class="cls-7" d="M36.93875,75.856l.04966.15285-.07642.02483"/></g><g id="c-2" data-name="c"><path id="t-3" data-name="t" class="cls-7" d="M37.0916,75.96705h-.16072v.08036"/><path id="t-4" data-name="t" class="cls-7" d="M37.0916,75.96705l-.13.09447-.04723-.065"/></g><g id="c-3" data-name="c"><path id="t-5" data-name="t" class="cls-7" d="M36.7859,75.96705l.13.09447.04724-.065"/><path id="t-6" data-name="t" class="cls-7" d="M36.7859,75.96705h.16072v.08036"/></g><g id="c-4" data-name="c"><path id="t-7" data-name="t" class="cls-7" d="M37.03322,76.14674l-.04967-.15285-.07642.02483"/><path id="t-8" data-name="t" class="cls-7" d="M37.03322,76.14674l-.13-.09447.04723-.065"/></g><g id="c-5" data-name="c"><path id="t-9" data-name="t" class="cls-7" d="M36.84429,76.14674l.13-.09447-.04724-.065"/><path id="t-10" data-name="t" class="cls-7" d="M36.84429,76.14674l.04966-.15285.07642.02483"/></g></g></g></g><g id="αCMa"><g id="star1-2" data-name="star1"><g id="star-2" data-name="star"><g id="c-6" data-name="c"><path id="t-11" data-name="t" class="cls-7" d="M37.27038,77.43253l-.04966.15285.07642.02483"/><path id="t-12" data-name="t" class="cls-7" d="M37.27038,77.43253l.04967.15285-.07643.02483"/></g><g id="c-7" data-name="c"><path id="t-13" data-name="t" class="cls-7" d="M37.42323,77.54358h-.16071v.08036"/><path id="t-14" data-name="t" class="cls-7" d="M37.42323,77.54358l-.13.09447-.04723-.065"/></g><g id="c-8" data-name="c"><path id="t-15" data-name="t" class="cls-7" d="M37.11754,77.54358l.13.09447.04723-.065"/><path id="t-16" data-name="t" class="cls-7" d="M37.11754,77.54358h.16071v.08036"/></g><g id="c-9" data-name="c"><path id="t-17" data-name="t" class="cls-7" d="M37.36485,77.72327l-.04966-.15285-.07643.02483"/><path id="t-18" data-name="t" class="cls-7" d="M37.36485,77.72327l-.13-.09447.04723-.065"/></g><g id="c-10" data-name="c"><path id="t-19" data-name="t" class="cls-7" d="M37.17592,77.72327l.13-.09447-.04723-.065"/><path id="t-20" data-name="t" class="cls-7" d="M37.17592,77.72327l.04966-.15285.07643.02483"/></g></g></g></g><g id="βCMa"><g id="star2"><g id="star-3" data-name="star"><g id="c-11" data-name="c"><path id="t-21" data-name="t" class="cls-7" d="M36.8112,77.796l-.04139.12738.06369.02069"/><path id="t-22" data-name="t" class="cls-7" d="M36.8112,77.796l.04139.12738-.06369.02069"/></g><g id="c-12" data-name="c"><path id="t-23" data-name="t" class="cls-7" d="M36.93857,77.8886h-.13393v.067"/><path id="t-24" data-name="t" class="cls-7" d="M36.93857,77.8886l-.10835.07872-.03936-.05418"/></g><g id="c-13" data-name="c"><path id="t-25" data-name="t" class="cls-7" d="M36.68383,77.8886l.10835.07872.03936-.05418"/><path id="t-26" data-name="t" class="cls-7" d="M36.68383,77.8886h.13392v.067"/></g><g id="c-14" data-name="c"><path id="t-27" data-name="t" class="cls-7" d="M36.88992,78.03833l-.04139-.12737-.06368.02069"/><path id="t-28" data-name="t" class="cls-7" d="M36.88992,78.03833l-.10835-.07872.03936-.05417"/></g><g id="c-15" data-name="c"><path id="t-29" data-name="t" class="cls-7" d="M36.73248,78.03833l.10835-.07872-.03936-.05417"/><path id="t-30" data-name="t" class="cls-7" d="M36.73248,78.03833l.04138-.12737.06369.02069"/></g></g></g></g><g id="γCMa"><g id="star4"><g id="star-4" data-name="star"><g id="c-16" data-name="c"><path id="t-31" data-name="t" class="cls-7" d="M37.63773,77.28712l-.02365.07279.03639.01182"/><path id="t-32" data-name="t" class="cls-7" d="M37.63773,77.28712l.02365.07279-.03639.01182"/></g><g id="c-17" data-name="c"><path id="t-33" data-name="t" class="cls-7" d="M37.71052,77.34H37.634v.03826"/><path id="t-34" data-name="t" class="cls-7" d="M37.71052,77.34l-.06192.045-.02249-.031"/></g><g id="c-18" data-name="c"><path id="t-35" data-name="t" class="cls-7" d="M37.565,77.34l.06191.045.02249-.031"/><path id="t-36" data-name="t" class="cls-7" d="M37.565,77.34h.07653v.03826"/></g><g id="c-19" data-name="c"><path id="t-37" data-name="t" class="cls-7" d="M37.68271,77.42557l-.02365-.07279-.03639.01183"/><path id="t-38" data-name="t" class="cls-7" d="M37.68271,77.42557l-.06191-.045.02249-.031"/></g><g id="c-20" data-name="c"><path id="t-39" data-name="t" class="cls-7" d="M37.59275,77.42557l.06191-.045-.02249-.031"/><path id="t-40" data-name="t" class="cls-7" d="M37.59275,77.42557l.02365-.07279.03639.01183"/></g></g></g></g><g id="δCMa"><g id="star2-2" data-name="star2"><g id="star-5" data-name="star"><g id="c-21" data-name="c"><path id="t-41" data-name="t" class="cls-7" d="M38.051,77.83177l-.04139.12737.06369.02069"/><path id="t-42" data-name="t" class="cls-7" d="M38.051,77.83177l.04138.12737-.06368.02069"/></g><g id="c-22" data-name="c"><path id="t-43" data-name="t" class="cls-7" d="M38.17837,77.92431h-.13393v.067"/><path id="t-44" data-name="t" class="cls-7" d="M38.17837,77.92431,38.07,78.003l-.03936-.05417"/></g><g id="c-23" data-name="c"><path id="t-45" data-name="t" class="cls-7" d="M37.92362,77.92431l.10835.07872.03936-.05417"/><path id="t-46" data-name="t" class="cls-7" d="M37.92362,77.92431h.13393v.067"/></g><g id="c-24" data-name="c"><path id="t-47" data-name="t" class="cls-7" d="M38.12972,78.07405l-.04139-.12738-.06369.0207"/><path id="t-48" data-name="t" class="cls-7" d="M38.12972,78.07405l-.10835-.07873.03936-.05417"/></g><g id="c-25" data-name="c"><path id="t-49" data-name="t" class="cls-7" d="M37.97227,78.07405l.10836-.07873-.03937-.05417"/><path id="t-50" data-name="t" class="cls-7" d="M37.97227,78.07405l.04139-.12738.06369.0207"/></g></g></g></g><g id="εCMa"><g id="star3"><g id="star-6" data-name="star"><g id="c-26" data-name="c"><path id="t-51" data-name="t" class="cls-7" d="M37.93875,78.231l-.03311.1019.051.01656"/><path id="t-52" data-name="t" class="cls-7" d="M37.93875,78.231l.03311.1019-.051.01656"/></g><g id="c-27" data-name="c"><path id="t-53" data-name="t" class="cls-7" d="M38.04065,78.305h-.10714v.05357"/><path id="t-54" data-name="t" class="cls-7" d="M38.04065,78.305l-.08668.063-.03149-.04334"/></g><g id="c-28" data-name="c"><path id="t-55" data-name="t" class="cls-7" d="M37.83685,78.305l.08668.063.03149-.04334"/><path id="t-56" data-name="t" class="cls-7" d="M37.83685,78.305H37.944v.05357"/></g><g id="c-29" data-name="c"><path id="t-57" data-name="t" class="cls-7" d="M38.00173,78.42483l-.03311-.1019-.051.01655"/><path id="t-58" data-name="t" class="cls-7" d="M38.00173,78.42483l-.08668-.063.03149-.04334"/></g><g id="c-30" data-name="c"><path id="t-59" data-name="t" class="cls-7" d="M37.87577,78.42483l.08668-.063-.03148-.04334"/><path id="t-60" data-name="t" class="cls-7" d="M37.87577,78.42483l.03311-.1019.05095.01655"/></g></g></g></g><g id="αVir"><g id="star1-3" data-name="star1"><g id="star-7" data-name="star"><g id="c-31" data-name="c"><path id="t-61" data-name="t" class="cls-7" d="M41.16324,75.36621l-.04966.15284.07642.02484"/><path id="t-62" data-name="t" class="cls-7" d="M41.16324,75.36621l.04966.15284-.07642.02484"/></g><g id="c-32" data-name="c"><path id="t-63" data-name="t" class="cls-7" d="M41.31609,75.47726h-.16072v.08035"/><path id="t-64" data-name="t" class="cls-7" d="M41.31609,75.47726l-.13.09446-.04723-.065"/></g><g id="c-33" data-name="c"><path id="t-65" data-name="t" class="cls-7" d="M41.01039,75.47726l.13.09446.04724-.065"/><path id="t-66" data-name="t" class="cls-7" d="M41.01039,75.47726h.16072v.08035"/></g><g id="c-34" data-name="c"><path id="t-67" data-name="t" class="cls-7" d="M41.25771,75.65694l-.04967-.15285-.07642.02483"/><path id="t-68" data-name="t" class="cls-7" d="M41.25771,75.65694l-.13-.09446.04723-.065"/></g><g id="c-35" data-name="c"><path id="t-69" data-name="t" class="cls-7" d="M41.06878,75.65694l.13-.09446-.04724-.065"/><path id="t-70" data-name="t" class="cls-7" d="M41.06878,75.65694l.04966-.15285.07642.02483"/></g></g></g></g><g id="αSco"><g id="star1-4" data-name="star1"><g id="star-8" data-name="star"><g id="c-36" data-name="c"><path id="t-71" data-name="t" class="cls-7" d="M42.62753,77.8458l-.04967.15285.07643.02483"/><path id="t-72" data-name="t" class="cls-7" d="M42.62753,77.8458l.04966.15285-.07642.02483"/></g><g id="c-37" data-name="c"><path id="t-73" data-name="t" class="cls-7" d="M42.78037,77.95685h-.16071v.08036"/><path id="t-74" data-name="t" class="cls-7" d="M42.78037,77.95685l-.13.09446-.04723-.065"/></g><g id="c-38" data-name="c"><path id="t-75" data-name="t" class="cls-7" d="M42.47468,77.95685l.13.09446.04723-.065"/><path id="t-76" data-name="t" class="cls-7" d="M42.47468,77.95685h.16071v.08036"/></g><g id="c-39" data-name="c"><path id="t-77" data-name="t" class="cls-7" d="M42.722,78.13653l-.04966-.15285-.07643.02484"/><path id="t-78" data-name="t" class="cls-7" d="M42.722,78.13653l-.13-.09446.04723-.065"/></g><g id="c-40" data-name="c"><path id="t-79" data-name="t" class="cls-7" d="M42.53306,78.13653l.13-.09446-.04723-.065"/><path id="t-80" data-name="t" class="cls-7" d="M42.53306,78.13653l.04966-.15285.07643.02484"/></g></g></g></g><g id="βSco"><g id="star3-2" data-name="star3"><g id="star-9" data-name="star"><g id="c-41" data-name="c"><path id="t-81" data-name="t" class="cls-7" d="M43.14793,77.93508l-.0331.1019.051.01656"/><path id="t-82" data-name="t" class="cls-7" d="M43.14793,77.93508l.03311.1019-.051.01656"/></g><g id="c-42" data-name="c"><path id="t-83" data-name="t" class="cls-7" d="M43.24983,78.00912h-.10714v.05357"/><path id="t-84" data-name="t" class="cls-7" d="M43.24983,78.00912l-.08668.063-.03149-.04334"/></g><g id="c-43" data-name="c"><path id="t-85" data-name="t" class="cls-7" d="M43.046,78.00912l.08668.063.03148-.04334"/><path id="t-86" data-name="t" class="cls-7" d="M43.046,78.00912h.10714v.05357"/></g><g id="c-44" data-name="c"><path id="t-87" data-name="t" class="cls-7" d="M43.21091,78.12891l-.03311-.1019-.051.01655"/><path id="t-88" data-name="t" class="cls-7" d="M43.21091,78.12891l-.08668-.063.03149-.04334"/></g><g id="c-45" data-name="c"><path id="t-89" data-name="t" class="cls-7" d="M43.085,78.12891l.08668-.063-.03149-.04334"/><path id="t-90" data-name="t" class="cls-7" d="M43.085,78.12891l.03311-.1019.051.01655"/></g></g></g></g><g id="εSco"><g id="star2-3" data-name="star2"><g id="star-10" data-name="star"><g id="c-46" data-name="c"><path id="t-91" data-name="t" class="cls-7" d="M42.78059,78.20422l-.04139.12737.06369.02069"/><path id="t-92" data-name="t" class="cls-7" d="M42.78059,78.20422l.04138.12737-.06368.02069"/></g><g id="c-47" data-name="c"><path id="t-93" data-name="t" class="cls-7" d="M42.908,78.29676H42.774v.067"/><path id="t-94" data-name="t" class="cls-7" d="M42.908,78.29676l-.10835.07872-.03936-.05418"/></g><g id="c-48" data-name="c"><path id="t-95" data-name="t" class="cls-7" d="M42.65321,78.29676l.10835.07872.03937-.05418"/><path id="t-96" data-name="t" class="cls-7" d="M42.65321,78.29676h.13393v.067"/></g><g id="c-49" data-name="c"><path id="t-97" data-name="t" class="cls-7" d="M42.85931,78.4465l-.04139-.12738-.06368.02069"/><path id="t-98" data-name="t" class="cls-7" d="M42.85931,78.4465l-.10835-.07873.03936-.05417"/></g><g id="c-50" data-name="c"><path id="t-99" data-name="t" class="cls-7" d="M42.70187,78.4465l.10835-.07873-.03936-.05417"/><path id="t-100" data-name="t" class="cls-7" d="M42.70187,78.4465l.04138-.12738.06369.02069"/></g></g></g></g><g id="θSco"><g id="star2-4" data-name="star2"><g id="star-11" data-name="star"><g id="c-51" data-name="c"><path id="t-101" data-name="t" class="cls-7" d="M41.87753,78.98993l-.04139.12737.06369.0207"/><path id="t-102" data-name="t" class="cls-7" d="M41.87753,78.98993l.04138.12737-.06368.0207"/></g><g id="c-52" data-name="c"><path id="t-103" data-name="t" class="cls-7" d="M42.0049,79.08247H41.871v.067"/><path id="t-104" data-name="t" class="cls-7" d="M42.0049,79.08247l-.10835.07872-.03936-.05417"/></g><g id="c-53" data-name="c"><path id="t-105" data-name="t" class="cls-7" d="M41.75015,79.08247l.10835.07872.03936-.05417"/><path id="t-106" data-name="t" class="cls-7" d="M41.75015,79.08247h.13393v.067"/></g><g id="c-54" data-name="c"><path id="t-107" data-name="t" class="cls-7" d="M41.95625,79.23221l-.04139-.12737-.06369.02069"/><path id="t-108" data-name="t" class="cls-7" d="M41.95625,79.23221l-.10835-.07872.03936-.05418"/></g><g id="c-55" data-name="c"><path id="t-109" data-name="t" class="cls-7" d="M41.79881,79.23221l.10835-.07872-.03936-.05418"/><path id="t-110" data-name="t" class="cls-7" d="M41.79881,79.23221l.04138-.12737.06369.02069"/></g></g></g></g><g id="ιSco"><g id="star3-3" data-name="star3"><g id="star-12" data-name="star"><g id="c-56" data-name="c"><path id="t-111" data-name="t" class="cls-7" d="M41.87242,79.39427l-.0331.1019.05094.01655"/><path id="t-112" data-name="t" class="cls-7" d="M41.87242,79.39427l.03311.1019-.051.01655"/></g><g id="c-57" data-name="c"><path id="t-113" data-name="t" class="cls-7" d="M41.97432,79.4683h-.10714v.05357"/><path id="t-114" data-name="t" class="cls-7" d="M41.97432,79.4683l-.08668.063-.03149-.04334"/></g><g id="c-58" data-name="c"><path id="t-115" data-name="t" class="cls-7" d="M41.77053,79.4683l.08668.063.03148-.04334"/><path id="t-116" data-name="t" class="cls-7" d="M41.77053,79.4683h.10714v.05357"/></g><g id="c-59" data-name="c"><path id="t-117" data-name="t" class="cls-7" d="M41.9354,79.58809l-.03311-.1019-.051.01656"/><path id="t-118" data-name="t" class="cls-7" d="M41.9354,79.58809l-.08668-.063.03149-.04334"/></g><g id="c-60" data-name="c"><path id="t-119" data-name="t" class="cls-7" d="M41.80945,79.58809l.08668-.063-.03149-.04334"/><path id="t-120" data-name="t" class="cls-7" d="M41.80945,79.58809l.03311-.1019.051.01656"/></g></g></g></g><g id="κSco"><g id="star3-4" data-name="star3"><g id="star-13" data-name="star"><g id="c-61" data-name="c"><path id="t-121" data-name="t" class="cls-7" d="M42.25,78.7208l-.03311.1019.051.01655"/><path id="t-122" data-name="t" class="cls-7" d="M42.25,78.7208l.0331.1019-.051.01655"/></g><g id="c-62" data-name="c"><path id="t-123" data-name="t" class="cls-7" d="M42.35187,78.79483h-.10714v.05357"/><path id="t-124" data-name="t" class="cls-7" d="M42.35187,78.79483l-.08668.063-.03148-.04334"/></g><g id="c-63" data-name="c"><path id="t-125" data-name="t" class="cls-7" d="M42.14808,78.79483l.08668.063.03149-.04334"/><path id="t-126" data-name="t" class="cls-7" d="M42.14808,78.79483h.10714v.05357"/></g><g id="c-64" data-name="c"><path id="t-127" data-name="t" class="cls-7" d="M42.313,78.91462l-.03311-.1019-.051.01656"/><path id="t-128" data-name="t" class="cls-7" d="M42.313,78.91462l-.08668-.063.03149-.04334"/></g><g id="c-65" data-name="c"><path id="t-129" data-name="t" class="cls-7" d="M42.187,78.91462l.08668-.063-.03149-.04334"/><path id="t-130" data-name="t" class="cls-7" d="M42.187,78.91462l.03311-.1019.051.01656"/></g></g></g></g><g id="λSco"><g id="star2-5" data-name="star2"><g id="star-14" data-name="star"><g id="c-66" data-name="c"><path id="t-131" data-name="t" class="cls-7" d="M42.551,78.50524l-.04139.12737.06369.02069"/><path id="t-132" data-name="t" class="cls-7" d="M42.551,78.50524l.04138.12737-.06368.02069"/></g><g id="c-67" data-name="c"><path id="t-133" data-name="t" class="cls-7" d="M42.67837,78.59778h-.13393v.067"/><path id="t-134" data-name="t" class="cls-7" d="M42.67837,78.59778,42.57,78.6765l-.03936-.05418"/></g><g id="c-68" data-name="c"><path id="t-135" data-name="t" class="cls-7" d="M42.42362,78.59778l.10835.07872.03936-.05418"/><path id="t-136" data-name="t" class="cls-7" d="M42.42362,78.59778h.13393v.067"/></g><g id="c-69" data-name="c"><path id="t-137" data-name="t" class="cls-7" d="M42.62972,78.74752l-.04139-.12738-.06369.0207"/><path id="t-138" data-name="t" class="cls-7" d="M42.62972,78.74752l-.10835-.07873.03936-.05417"/></g><g id="c-70" data-name="c"><path id="t-139" data-name="t" class="cls-7" d="M42.47227,78.74752l.10836-.07873-.03937-.05417"/><path id="t-140" data-name="t" class="cls-7" d="M42.47227,78.74752l.04139-.12738.06369.0207"/></g></g></g></g><g id="μSco"><g id="star3-5" data-name="star3"><g id="star-15" data-name="star"><g id="c-71" data-name="c"><path id="t-141" data-name="t" class="cls-7" d="M41.86222,78.64937l-.03311.1019.051.01655"/><path id="t-142" data-name="t" class="cls-7" d="M41.86222,78.64937l.03311.1019-.051.01655"/></g><g id="c-72" data-name="c"><path id="t-143" data-name="t" class="cls-7" d="M41.96412,78.7234H41.857V78.777"/><path id="t-144" data-name="t" class="cls-7" d="M41.96412,78.7234l-.08668.063L41.846,78.743"/></g><g id="c-73" data-name="c"><path id="t-145" data-name="t" class="cls-7" d="M41.76032,78.7234l.08668.063.03149-.04334"/><path id="t-146" data-name="t" class="cls-7" d="M41.76032,78.7234h.10714V78.777"/></g><g id="c-74" data-name="c"><path id="t-147" data-name="t" class="cls-7" d="M41.9252,78.84319l-.03311-.1019-.051.01656"/><path id="t-148" data-name="t" class="cls-7" d="M41.9252,78.84319l-.08668-.063.03149-.04334"/></g><g id="c-75" data-name="c"><path id="t-149" data-name="t" class="cls-7" d="M41.79924,78.84319l.08668-.063-.03148-.04334"/><path id="t-150" data-name="t" class="cls-7" d="M41.79924,78.84319l.03311-.1019.051.01656"/></g></g></g></g><g id="αHya"><g id="star2-6" data-name="star2"><g id="star-16" data-name="star"><g id="c-76" data-name="c"><path id="t-151" data-name="t" class="cls-7" d="M38.5714,76.70932l-.04138.12737.06368.02069"/><path id="t-152" data-name="t" class="cls-7" d="M38.5714,76.70932l.04139.12737-.06369.02069"/></g><g id="c-77" data-name="c"><path id="t-153" data-name="t" class="cls-7" d="M38.69878,76.80186h-.13393v.067"/><path id="t-154" data-name="t" class="cls-7" d="M38.69878,76.80186l-.10835.07872-.03936-.05417"/></g><g id="c-78" data-name="c"><path id="t-155" data-name="t" class="cls-7" d="M38.444,76.80186l.10835.07872.03936-.05417"/><path id="t-156" data-name="t" class="cls-7" d="M38.444,76.80186H38.578v.067"/></g><g id="c-79" data-name="c"><path id="t-157" data-name="t" class="cls-7" d="M38.65013,76.9516l-.04139-.12738-.06369.0207"/><path id="t-158" data-name="t" class="cls-7" d="M38.65013,76.9516l-.10836-.07872.03937-.05418"/></g><g id="c-80" data-name="c"><path id="t-159" data-name="t" class="cls-7" d="M38.49268,76.9516l.10835-.07872-.03936-.05418"/><path id="t-160" data-name="t" class="cls-7" d="M38.49268,76.9516l.04139-.12738.06369.0207"/></g></g></g></g><g id="γHya"><g id="star3-6" data-name="star3"><g id="star-17" data-name="star"><g id="c-81" data-name="c"><path id="t-161" data-name="t" class="cls-7" d="M41.02038,76.39427l-.03311.1019.051.01655"/><path id="t-162" data-name="t" class="cls-7" d="M41.02038,76.39427l.03311.1019-.05095.01655"/></g><g id="c-82" data-name="c"><path id="t-163" data-name="t" class="cls-7" d="M41.12228,76.4683h-.10714v.05357"/><path id="t-164" data-name="t" class="cls-7" d="M41.12228,76.4683l-.08668.063-.03149-.04334"/></g><g id="c-83" data-name="c"><path id="t-165" data-name="t" class="cls-7" d="M40.91848,76.4683l.08669.063.03148-.04334"/><path id="t-166" data-name="t" class="cls-7" d="M40.91848,76.4683h.10715v.05357"/></g><g id="c-84" data-name="c"><path id="t-167" data-name="t" class="cls-7" d="M41.08336,76.58809l-.03311-.1019-.051.01656"/><path id="t-168" data-name="t" class="cls-7" d="M41.08336,76.58809l-.08668-.063.03149-.04334"/></g><g id="c-85" data-name="c"><path id="t-169" data-name="t" class="cls-7" d="M40.95741,76.58809l.08668-.063-.03149-.04334"/><path id="t-170" data-name="t" class="cls-7" d="M40.95741,76.58809l.03311-.1019.051.01656"/></g></g></g></g><g id="αCru"><g id="star1-5" data-name="star1"><g id="star-18" data-name="star"><g id="c-86" data-name="c"><path id="t-171" data-name="t" class="cls-7" d="M40,78.21314l-.04967.15285.07643.02483"/><path id="t-172" data-name="t" class="cls-7" d="M40,78.21314l.04966.15285-.07643.02483"/></g><g id="c-87" data-name="c"><path id="t-173" data-name="t" class="cls-7" d="M40.15282,78.3242h-.16071v.08035"/><path id="t-174" data-name="t" class="cls-7" d="M40.15282,78.3242l-.13.09446-.04723-.065"/></g><g id="c-88" data-name="c"><path id="t-175" data-name="t" class="cls-7" d="M39.84713,78.3242l.13.09446.04723-.065"/><path id="t-176" data-name="t" class="cls-7" d="M39.84713,78.3242h.16071v.08035"/></g><g id="c-89" data-name="c"><path id="t-177" data-name="t" class="cls-7" d="M40.09444,78.50388l-.04966-.15285-.07643.02483"/><path id="t-178" data-name="t" class="cls-7" d="M40.09444,78.50388l-.13-.09447.04723-.065"/></g><g id="c-90" data-name="c"><path id="t-179" data-name="t" class="cls-7" d="M39.90551,78.50388l.13-.09447-.04723-.065"/><path id="t-180" data-name="t" class="cls-7" d="M39.90551,78.50388l.04966-.15285.07643.02483"/></g></g></g></g><g id="βCru"><g id="star2-7" data-name="star2"><g id="star-19" data-name="star"><g id="c-91" data-name="c"><path id="t-181" data-name="t" class="cls-7" d="M40.43365,77.495l-.04139.12738.06369.02069"/><path id="t-182" data-name="t" class="cls-7" d="M40.43365,77.495l.04139.12738-.06369.02069"/></g><g id="c-92" data-name="c"><path id="t-183" data-name="t" class="cls-7" d="M40.561,77.58757h-.13393v.067"/><path id="t-184" data-name="t" class="cls-7" d="M40.561,77.58757l-.10835.07873-.03936-.05418"/></g><g id="c-93" data-name="c"><path id="t-185" data-name="t" class="cls-7" d="M40.30628,77.58757l.10835.07873.03936-.05418"/><path id="t-186" data-name="t" class="cls-7" d="M40.30628,77.58757h.13392v.067"/></g><g id="c-94" data-name="c"><path id="t-187" data-name="t" class="cls-7" d="M40.51237,77.73731l-.04139-.12737-.06368.02069"/><path id="t-188" data-name="t" class="cls-7" d="M40.51237,77.73731l-.10835-.07872.03936-.05417"/></g><g id="c-95" data-name="c"><path id="t-189" data-name="t" class="cls-7" d="M40.35493,77.73731l.10835-.07872-.03936-.05417"/><path id="t-190" data-name="t" class="cls-7" d="M40.35493,77.73731l.04138-.12737.06369.02069"/></g></g></g></g><g id="γCru"><g id="star2-8" data-name="star2"><g id="star-20" data-name="star"><g id="c-96" data-name="c"><path id="t-191" data-name="t" class="cls-7" d="M40,77.1583l-.04139.12737.06369.02069"/><path id="t-192" data-name="t" class="cls-7" d="M40,77.1583l.04138.12737-.06369.02069"/></g><g id="c-97" data-name="c"><path id="t-193" data-name="t" class="cls-7" d="M40.12735,77.25084h-.13393v.067"/><path id="t-194" data-name="t" class="cls-7" d="M40.12735,77.25084l-.10835.07872-.03936-.05417"/></g><g id="c-98" data-name="c"><path id="t-195" data-name="t" class="cls-7" d="M39.8726,77.25084l.10835.07872.03936-.05417"/><path id="t-196" data-name="t" class="cls-7" d="M39.8726,77.25084h.13393v.067"/></g><g id="c-99" data-name="c"><path id="t-197" data-name="t" class="cls-7" d="M40.0787,77.40058l-.04139-.12738-.06369.0207"/><path id="t-198" data-name="t" class="cls-7" d="M40.0787,77.40058l-.10835-.07872.03936-.05418"/></g><g id="c-100" data-name="c"><path id="t-199" data-name="t" class="cls-7" d="M39.92125,77.40058l.10835-.07872-.03936-.05418"/><path id="t-200" data-name="t" class="cls-7" d="M39.92125,77.40058l.04139-.12738.06369.0207"/></g></g></g></g><g id="δCru"><g id="star3-7" data-name="star3"><g id="star-21" data-name="star"><g id="c-101" data-name="c"><path id="t-201" data-name="t" class="cls-7" d="M39.62242,77.52182l-.0331.1019.05094.01655"/><path id="t-202" data-name="t" class="cls-7" d="M39.62242,77.52182l.03311.1019-.051.01655"/></g><g id="c-102" data-name="c"><path id="t-203" data-name="t" class="cls-7" d="M39.72432,77.59585h-.10714v.05357"/><path id="t-204" data-name="t" class="cls-7" d="M39.72432,77.59585l-.08668.063-.03149-.04334"/></g><g id="c-103" data-name="c"><path id="t-205" data-name="t" class="cls-7" d="M39.52053,77.59585l.08668.063.03148-.04334"/><path id="t-206" data-name="t" class="cls-7" d="M39.52053,77.59585h.10714v.05357"/></g><g id="c-104" data-name="c"><path id="t-207" data-name="t" class="cls-7" d="M39.6854,77.71564l-.03311-.1019-.051.01656"/><path id="t-208" data-name="t" class="cls-7" d="M39.6854,77.71564l-.08668-.063.03149-.04334"/></g><g id="c-105" data-name="c"><path id="t-209" data-name="t" class="cls-7" d="M39.55945,77.71564l.08668-.063-.03149-.04334"/><path id="t-210" data-name="t" class="cls-7" d="M39.55945,77.71564l.03311-.1019.051.01656"/></g></g></g></g><g id="εCru"><g id="star4-2" data-name="star4"><g id="star-22" data-name="star"><g id="c-106" data-name="c"><path id="t-211" data-name="t" class="cls-7" d="M39.8112,77.81263l-.02365.07279.03639.01182"/><path id="t-212" data-name="t" class="cls-7" d="M39.8112,77.81263l.02365.07279-.03639.01182"/></g><g id="c-107" data-name="c"><path id="t-213" data-name="t" class="cls-7" d="M39.884,77.86552h-.07653v.03826"/><path id="t-214" data-name="t" class="cls-7" d="M39.884,77.86552l-.06191.045-.02249-.031"/></g><g id="c-108" data-name="c"><path id="t-215" data-name="t" class="cls-7" d="M39.73841,77.86552l.06192.045.02249-.031"/><path id="t-216" data-name="t" class="cls-7" d="M39.73841,77.86552H39.815v.03826"/></g><g id="c-109" data-name="c"><path id="t-217" data-name="t" class="cls-7" d="M39.85618,77.95108l-.02365-.07279-.03639.01183"/><path id="t-218" data-name="t" class="cls-7" d="M39.85618,77.95108l-.06191-.045.02249-.031"/></g><g id="c-110" data-name="c"><path id="t-219" data-name="t" class="cls-7" d="M39.76622,77.95108l.06191-.045-.02249-.031"/><path id="t-220" data-name="t" class="cls-7" d="M39.76622,77.95108l.02365-.07279.03639.01183"/></g></g></g></g><g id="αTrA"><g id="star2-9" data-name="star2"><g id="star-23" data-name="star"><g id="c-111" data-name="c"><path id="t-221" data-name="t" class="cls-7" d="M41.12242,79.08177l-.04138.12737.06369.02069"/><path id="t-222" data-name="t" class="cls-7" d="M41.12242,79.08177l.04139.12737-.06369.02069"/></g><g id="c-112" data-name="c"><path id="t-223" data-name="t" class="cls-7" d="M41.2498,79.17431h-.13393v.067"/><path id="t-224" data-name="t" class="cls-7" d="M41.2498,79.17431l-.10835.07872-.03936-.05417"/></g><g id="c-113" data-name="c"><path id="t-225" data-name="t" class="cls-7" d="M40.99505,79.17431l.10835.07872.03936-.05417"/><path id="t-226" data-name="t" class="cls-7" d="M40.99505,79.17431H41.129v.067"/></g><g id="c-114" data-name="c"><path id="t-227" data-name="t" class="cls-7" d="M41.20115,79.32405l-.04139-.12738-.06369.0207"/><path id="t-228" data-name="t" class="cls-7" d="M41.20115,79.32405l-.10835-.07873.03936-.05417"/></g><g id="c-115" data-name="c"><path id="t-229" data-name="t" class="cls-7" d="M41.0437,79.32405l.10835-.07873-.03936-.05417"/><path id="t-230" data-name="t" class="cls-7" d="M41.0437,79.32405l.04139-.12738.06369.0207"/></g></g></g></g><g id="βTrA"><g id="star3-8" data-name="star3"><g id="star-24" data-name="star"><g id="c-116" data-name="c"><path id="t-231" data-name="t" class="cls-7" d="M41.44385,78.77692l-.03311.1019.051.01655"/><path id="t-232" data-name="t" class="cls-7" d="M41.44385,78.77692l.03311.1019-.051.01655"/></g><g id="c-117" data-name="c"><path id="t-233" data-name="t" class="cls-7" d="M41.54575,78.851h-.10714v.05358"/><path id="t-234" data-name="t" class="cls-7" d="M41.54575,78.851l-.08668.063-.03149-.04334"/></g><g id="c-118" data-name="c"><path id="t-235" data-name="t" class="cls-7" d="M41.342,78.851l.08668.063.03149-.04334"/><path id="t-236" data-name="t" class="cls-7" d="M41.342,78.851h.10715v.05358"/></g><g id="c-119" data-name="c"><path id="t-237" data-name="t" class="cls-7" d="M41.50683,78.97074l-.03311-.1019-.051.01656"/><path id="t-238" data-name="t" class="cls-7" d="M41.50683,78.97074l-.08668-.063.03149-.04334"/></g><g id="c-120" data-name="c"><path id="t-239" data-name="t" class="cls-7" d="M41.38088,78.97074l.08668-.063-.03149-.04334"/><path id="t-240" data-name="t" class="cls-7" d="M41.38088,78.97074l.0331-.1019.051.01656"/></g></g></g></g><g id="γTrA"><g id="star3-9" data-name="star3"><g id="star-25" data-name="star"><g id="c-121" data-name="c"><path id="t-241" data-name="t" class="cls-7" d="M40.82651,78.68508l-.03311.1019.051.01656"/><path id="t-242" data-name="t" class="cls-7" d="M40.82651,78.68508l.0331.1019-.05094.01656"/></g><g id="c-122" data-name="c"><path id="t-243" data-name="t" class="cls-7" d="M40.9284,78.75912h-.10714v.05357"/><path id="t-244" data-name="t" class="cls-7" d="M40.9284,78.75912l-.08668.063-.03148-.04334"/></g><g id="c-123" data-name="c"><path id="t-245" data-name="t" class="cls-7" d="M40.72461,78.75912l.08668.063.03149-.04334"/><path id="t-246" data-name="t" class="cls-7" d="M40.72461,78.75912h.10714v.05357"/></g><g id="c-124" data-name="c"><path id="t-247" data-name="t" class="cls-7" d="M40.88948,78.87891l-.03311-.1019-.051.01655"/><path id="t-248" data-name="t" class="cls-7" d="M40.88948,78.87891l-.08668-.063.03149-.04334"/></g><g id="c-125" data-name="c"><path id="t-249" data-name="t" class="cls-7" d="M40.76353,78.87891l.08668-.063-.03149-.04334"/><path id="t-250" data-name="t" class="cls-7" d="M40.76353,78.87891l.03311-.1019.051.01655"/></g></g></g></g><g id="αCar"><g id="star1-6" data-name="star1"><g id="star-26" data-name="star"><g id="c-126" data-name="c"><path id="t-251" data-name="t" class="cls-7" d="M38.49487,78.51927l-.04966.15285.07642.02483"/><path id="t-252" data-name="t" class="cls-7" d="M38.49487,78.51927l.04967.15285-.07643.02483"/></g><g id="c-127" data-name="c"><path id="t-253" data-name="t" class="cls-7" d="M38.64772,78.63032H38.487v.08036"/><path id="t-254" data-name="t" class="cls-7" d="M38.64772,78.63032l-.13.09446-.04723-.065"/></g><g id="c-128" data-name="c"><path id="t-255" data-name="t" class="cls-7" d="M38.342,78.63032l.13.09446.04723-.065"/><path id="t-256" data-name="t" class="cls-7" d="M38.342,78.63032h.16072v.08036"/></g><g id="c-129" data-name="c"><path id="t-257" data-name="t" class="cls-7" d="M38.58934,78.81l-.04966-.15285-.07643.02484"/><path id="t-258" data-name="t" class="cls-7" d="M38.58934,78.81l-.13-.09446.04723-.065"/></g><g id="c-130" data-name="c"><path id="t-259" data-name="t" class="cls-7" d="M38.40041,78.81l.13-.09446-.04723-.065"/><path id="t-260" data-name="t" class="cls-7" d="M38.40041,78.81l.04966-.15285.07643.02484"/></g></g></g></g><g id="σOct"><g id="star5"><g id="star-27" data-name="star"><g id="c-131" data-name="c"><path id="t-261" data-name="t" class="cls-7" d="M40,79.57029l-.01656.051.02548.00827"/><path id="t-262" data-name="t" class="cls-7" d="M40,79.57029l.01655.051-.02547.00827"/></g><g id="c-132" data-name="c"><path id="t-263" data-name="t" class="cls-7" d="M40.05092,79.6073h-.05357v.02679"/><path id="t-264" data-name="t" class="cls-7" d="M40.05092,79.6073l-.04334.03149-.01574-.02167"/></g><g id="c-133" data-name="c"><path id="t-265" data-name="t" class="cls-7" d="M39.949,79.6073l.04334.03149.01574-.02167"/><path id="t-266" data-name="t" class="cls-7" d="M39.949,79.6073h.05357v.02679"/></g><g id="c-134" data-name="c"><path id="t-267" data-name="t" class="cls-7" d="M40.03146,79.6672l-.01655-.051-.02548.00828"/><path id="t-268" data-name="t" class="cls-7" d="M40.03146,79.6672l-.04334-.03149.01575-.02167"/></g><g id="c-135" data-name="c"><path id="t-269" data-name="t" class="cls-7" d="M39.96849,79.6672l.04334-.03149-.01575-.02167"/><path id="t-270" data-name="t" class="cls-7" d="M39.96849,79.6672l.01655-.051.02548.00828"/></g></g></g></g><path id="losango" class="cls-10" d="M66.45783,28.88554l-33.57831,9,3.54217,13.22892,33.57831-9Z"/><path id="letra_r_2" data-name="letra r 2" d="M65.37349,37.8494A2.06964,2.06964,0,0,0,63.241,39.04217H63.0241V37.88554H61.253v6.57831l1.84338-.506V41.8253a2.07474,2.07474,0,0,1,2.31325-2.241h.54217V37.8494Z"/><path id="letra_e" data-name="letra e" d="M56.3735,37.70482a3.66552,3.66552,0,0,0-3.759,3.9759,3.62536,3.62536,0,0,0,3.759,3.90362,3.39238,3.39238,0,0,0,3.61445-2.494H58.21687a1.68369,1.68369,0,0,1-1.66265.90362,1.98651,1.98651,0,0,1-2.13253-1.84338v-.07229h5.6747v-.506A3.61261,3.61261,0,0,0,56.3735,37.70482Zm0,1.48193A1.70378,1.70378,0,0,1,58.21687,40.741v.18073h-3.759a1.89554,1.89554,0,0,1,1.91567-1.73494Z"/><rect id="letra_l" data-name="letra l" x="49.68675" y="35.13855" width="1.84337" height="10.22892"/><path id="letra_a_2" data-name="letra a 2" d="M46.57831,39.006h-.21686a2.54333,2.54333,0,0,0-2.494-1.33735c-2.09639,0-3.39759,1.73494-3.39759,3.90362,0,2.20482,1.33735,3.9759,3.36144,3.9759a2.55342,2.55342,0,0,0,2.53013-1.33735h.21686v1.15663h1.80723V37.88554H46.57831Zm-2.241,4.95181a2.08707,2.08707,0,0,1-2.06024-2.31325,2.08707,2.08707,0,0,1,2.06024-2.31325,2.14694,2.14694,0,0,1,2.06024,2.31325,2.04848,2.04848,0,0,1-2.06024,2.31325Z"/><path id="letra_v" data-name="letra v" d="M36.71084,44.1747h-.253l-1.59036-6.28916H32.87952l2.0241,7.51807h3.28915l2.0241-7.51807H38.3012Z"/><path id="letra_a" data-name="letra a" d="M30.20482,39.006H29.988a2.5433,2.5433,0,0,0-2.494-1.33735c-2.09639,0-3.39759,1.73494-3.39759,3.90362,0,2.20482,1.33735,3.9759,3.36144,3.9759A2.5534,2.5534,0,0,0,29.988,44.21084h.21687v1.15663h1.80723V37.88554H30.20482ZM28,43.95783a2.08707,2.08707,0,0,1-2.06024-2.31325A2.08707,2.08707,0,0,1,28,39.33133a2.14694,2.14694,0,0,1,2.06024,2.31325A2.08707,2.08707,0,0,1,28,43.95783Z"/><path id="letra_r" data-name="letra r" d="M21.0241,39.006h-.21687V37.8494H19.03614v7.51807h1.80723V41.78916a2.07475,2.07475,0,0,1,2.31326-2.241h.57831V37.81325h-.57831A2.10765,2.10765,0,0,0,21.0241,39.006Z"/><path id="letra_p" data-name="letra p" d="M14.55422,37.70482a2.55339,2.55339,0,0,0-2.53012,1.33735h-.21687V37.88554H10V48.72892h1.80723V44.247h.21687a2.5433,2.5433,0,0,0,2.494,1.33735c2.09639,0,3.39759-1.73494,3.39759-3.90362C17.91566,39.4759,16.61446,37.70482,14.55422,37.70482Zm-.54217,6.253a2.14694,2.14694,0,0,1-2.06024-2.31325,2.07408,2.07408,0,1,1,4.12048,0,2.08708,2.08708,0,0,1-2.06024,2.31325Z"/></g></g></svg>