<svg id="Layer_1" data-name="Layer 1" xmlns="http://www.w3.org/2000/svg" viewBox="0 0 80 83.9"><defs><style>.cls-1{fill:#f2f2f2;}.cls-2{fill:#fbfafb;}.cls-2,.cls-3,.cls-4,.cls-5,.cls-6,.cls-7{fill-rule:evenodd;}.cls-3{fill:#3c3c6c;}.cls-4{fill:#b22434;}.cls-5{fill:#9595ac;}.cls-6{fill:#926a7c;}.cls-7{fill:#1c1c1c;}</style></defs><rect class="cls-1" width="80" height="80" rx="40"/><g id="svgg"><path id="path0" class="cls-2" d="M27.08,69a.08.08,0,0,0,0,0l0,.12,0,.1h-.31l0,0,.11.08c.1.07.1.08.06.2a.31.31,0,0,1,0,.12.1.1,0,0,0,0,0s0,0,.11,0,.15-.12.27,0,.15.09.09-.09-.05-.11.1-.23l.12-.09h-.33l0-.09C27.1,69,27.1,69,27.08,69m1.91,0a.47.47,0,0,0,0,.09l0,.08v0h-.33l.09.06.13.1,0,0,0,.1c-.07.21-.07.21.16,0l0,0,.13.09c.08,0,.14.09.14.08a1.34,1.34,0,0,0-.05-.14c-.05-.17-.06-.16.11-.26l.06,0,0,0h-.32l-.05-.14C29,69,29,69,29,69.07m1.9.07-.05.14h-.33l.12.08c.15.1.15.1.1.25s-.07.18.08.07.14-.09.26,0,.14.09.09-.06-.07-.15.08-.25l.12-.09h-.15c-.16,0-.19,0-.19-.07a.1.1,0,0,0,0,0,.41.41,0,0,1,0-.09c0-.11,0-.11-.08,0m1.92,0,0,.14h-.33l.12.09c.09.06.13.1.13.12a.58.58,0,0,1,0,.16s0,.11,0,.11a.38.38,0,0,0,.11-.08c.09-.1.18-.08.33,0s.07,0,0,0a1.34,1.34,0,0,1-.05-.17.15.15,0,0,1,.1-.13l0,0,.06-.06,0,0H33l0-.13a.81.81,0,0,1,0-.14c0-.06,0,0-.07.12m1.94,0a.65.65,0,0,0,0,.1c0,.08,0,.1-.2.1h-.16l.12.08c.15.1.14.1.09.26s0,.16,0,.11l.11-.08c.1-.06.09-.07.24,0s.12.08.1,0A1.44,1.44,0,0,1,35,69.5a.58.58,0,0,1,.13-.11l.13-.09h-.33l0-.13c-.06-.17-.06-.18-.1-.07M36.69,69a.19.19,0,0,1,0,.07l0,.08a.25.25,0,0,1,0,.07v0h-.32l0,0,.07.06.09.06c.07,0,.07,0,0,.19s0,.16.08.07.15-.09.2,0,.22.14.14,0a.24.24,0,0,1,0-.09c0-.06,0-.06.15-.18l.09-.06H37c-.16,0-.16,0-.17,0a.08.08,0,0,0,0-.06.07.07,0,0,1,0,0,.05.05,0,0,0,0,0l0,0s0-.07,0,0m-2.87.81a.08.08,0,0,1,0,0,.82.82,0,0,1,0,.11c0,.13,0,.13-.2.13h-.14a0,0,0,0,0,0,0l0,0,.11.08s.07.06.07.08a1.44,1.44,0,0,1-.08.25.08.08,0,0,0,0,0,.67.67,0,0,0,.2-.13s.06,0,.12,0l.06,0h0s0,0,0,0a.22.22,0,0,0,.09.07s0-.06,0-.13,0-.17,0-.23.08,0,.08-.06l.05,0c.06,0,0,0-.11,0s-.16,0-.22-.18,0-.15,0-.1m3.91.54V71H55.1V69.81H37.73v.57m-9.7-.5a.54.54,0,0,0,0,.1l0,0a.05.05,0,0,0,0,0s0,.05-.18.05-.17,0-.12,0,.24.19.2.27a.49.49,0,0,0-.06.19s0,0,.06,0a.63.63,0,0,1,.12-.1l.07,0,.1.07.12.09s0,0,0,0a.62.62,0,0,0-.05-.18s0-.14,0-.14l0,0,.09-.07c.1-.06.09-.08-.08-.08h-.15l0-.15-.05-.14,0,.06m1.91,0c0,.06,0,.11,0,.12s0,.08-.2.08h-.14l0,0,.09.07.09.07,0,0,0,.14c-.05.17-.05.17.08.07s.13-.1.27,0,.18.1.12,0a.08.08,0,0,1,0,0s0,0,0,0a.35.35,0,0,1,0-.06s0,0,0,0,0-.07.07-.12l.13-.1,0,0h-.14c-.18,0-.18,0-.23-.15s-.05-.16-.09,0m1.95-.08s0,0,0,0a.79.79,0,0,1-.09.23.42.42,0,0,1-.16,0c-.15,0-.16,0-.09,0l.06,0,.07.06c.06,0,.06,0,0,.2a1.32,1.32,0,0,0,0,.13.91.91,0,0,0,.21-.14s.06,0,.15.05.17.12.09-.11,0-.09.09-.18.16-.11-.06-.1S32,70.11,32,70s-.06-.18-.08-.17M35.7,70c-.05.16,0,.16-.21.16h-.14s0,0,0,0l0,0a.44.44,0,0,0,.1.08c.08.06.09.13,0,.18a.43.43,0,0,0,0,0s0,0,0,0a.43.43,0,0,0,0,0v0l0,0,.07,0c.1-.09.16-.1.2,0a.62.62,0,0,0,.18.11,1.32,1.32,0,0,0,0-.13c-.06-.15-.06-.15.07-.24s.14-.1,0-.1-.19,0-.19-.06,0,0,0,0a.08.08,0,0,1,0,0,.13.13,0,0,0,0-.06.11.11,0,0,1,0,0c0-.05,0,0-.07.09m-8.62.71a.11.11,0,0,0,0,0s0,0,0,0a.51.51,0,0,0,0,.1l0,.06h-.31l0,0a.41.41,0,0,0,.12.08c.09.07.09.09,0,.25s0,.14,0,.08.19-.14.26-.08.19.13.13,0,0-.14,0-.18l.06,0,.08-.05.05,0h-.32l0-.12,0-.15s0,0,0,0m1.92,0a.07.07,0,0,1,0,0,.25.25,0,0,0,0,.1c0,.12,0,.12-.2.13H28.6l.12.09c.13.1.13.11.09.22s-.07.2.08.09.13-.1.18,0a1.38,1.38,0,0,0,.21.14,1.15,1.15,0,0,0-.05-.15c-.05-.16-.05-.15.09-.26l.12-.08h-.32l-.05-.14c-.05-.15-.07-.18-.07-.12m5.76,0a.3.3,0,0,1,0,.09.1.1,0,0,0,0,0c0,.08,0,.1-.2.11h-.15l.12.09c.14.11.13.09.08.25s0,.16.06.08.14-.12.29,0,.14.12.09,0-.06-.18,0-.21l.06,0,.07,0c.08,0,.07-.06-.1-.06h-.15l0-.15c-.06-.18-.05-.17-.08-.08m-1.93,0s0,.11,0,.15l0,.06h-.3a1.16,1.16,0,0,0,.2.16s0,.11,0,.2,0,.14.07.06.16-.12.19-.09l.08.06.06,0c.05.06.09,0,.06,0s-.07-.21,0-.29.17-.12,0-.12-.17,0-.22-.19,0-.12-.08,0m-1.91,0a1.28,1.28,0,0,1,0,.13l0,.11h-.32l.08.06c.15.11.18.14.16.17a1.22,1.22,0,0,0-.07.25l.07,0,.07,0,0,0a.13.13,0,0,1,.13,0,1.15,1.15,0,0,0,.19.14s0,0,0-.06l-.05-.16c0-.07,0-.08.11-.17l.12-.09h-.15c-.18,0-.17,0-.22-.16s-.06-.15-.07-.1m5.74.1c0,.16,0,.15-.21.15s-.17,0,0,.11.13.08.08.24,0,.17,0,.12.21-.15.33-.06.16.1.11,0-.07-.23.06-.32.14-.1,0-.1-.16,0-.21-.15a.24.24,0,0,0-.06-.12.55.55,0,0,0-.05.12M30,71.56l-.06.16,0,0h-.31l.08.06.13.1,0,0,0,.12c0,.06,0,.13-.05.15s0,0,.09,0l.13-.09.05,0,.11.08c.1.08.19.12.14.07a.08.08,0,0,1,0,0,.07.07,0,0,0,0,0,.33.33,0,0,1-.05-.15s0-.06.09-.1.18-.12,0-.12h-.15l0-.09c0-.05,0-.1,0-.11s0,0,0,0a.08.08,0,0,1,0,0s0,0,0,.07m3.88-.1s0,.07-.05.15l0,.15H33.6c-.16,0-.18,0-.1.07a1.34,1.34,0,0,1,.14.11l0,0,0,.13c0,.06,0,.13,0,.15s0,0,.19-.12l.07,0,.09.06.12.09s0,0,0-.16L34,72l.11-.09c.16-.11.16-.11,0-.11s-.15,0-.22-.19l0-.12m1.91,0a.08.08,0,0,1,0,0,.1.1,0,0,0,0,0,.43.43,0,0,1,0,0s0,0,0,.06l0,.06h-.32l.13.09c.14.11.14.1.08.26s0,.15.09.05l.07-.06.05,0,.08,0,.13.09c.06,0,.06,0,0-.07s-.06-.19,0-.24l.06,0,.07,0c.08,0,.06-.06-.11-.06s-.14,0-.15,0a.11.11,0,0,0,0,0,.13.13,0,0,1,0-.06.05.05,0,0,0,0,0s0,0,0,0a.11.11,0,0,0,0-.06s0,0,0,0M28,71.6c-.06.17-.05.17-.21.17s-.18,0,0,.1.12.09.07.24,0,.18,0,.13l.08-.06.06-.05s.07,0,.19,0,.14.1.09,0-.05-.16.05-.23.18-.12,0-.13-.16,0-.21-.17,0-.13-.09,0m3.88-.09s0,0,0,0a.07.07,0,0,0,0,0s0,0,0,0a.07.07,0,0,0,0,0c0,.06,0,.07-.18.07a.42.42,0,0,0-.15,0,1.24,1.24,0,0,0,.18.14c.05,0,.06,0,0,.18s0,.17,0,.11l.12-.09.05,0,.09.06.13.09s0,0,0-.13,0-.14.09-.24.13-.1,0-.1-.16,0-.21-.14-.07-.19-.07-.12m5.81,1.23v.57H55.1V72.17H37.72v.57m-10.6-.44a.7.7,0,0,0-.05.13c-.06.17-.05.16-.22.17H26.7l.12.09c.13.09.13.09.08.26s0,.16,0,.11.19-.17.33-.06.16.08.1,0,0-.07,0-.11l0-.08,0,0,.12-.08c.09-.07.09-.08-.07-.08s-.15,0-.16,0-.08-.21-.09-.25,0,0,0,0m1.88.1c-.07.2-.05.19-.22.19h-.15l.05,0,.13.09.07,0,0,.1a1.28,1.28,0,0,0,0,.13l0,0s0,0,0,0c.21-.17.2-.17.38,0s.1.07.05-.1l-.05-.14,0,0,.13-.09.08-.06h-.31l0-.1a.53.53,0,0,1,0-.13c0-.09,0-.07-.08,0m5.78,0c-.06.2-.05.19-.23.19h-.14l.05,0,.12.09c.07,0,.07,0,0,.2s-.05.17.09.07.14-.11.34.06c0,0,0,0,0-.1s0-.23.16-.33c0,0,0,0-.12,0s-.16,0-.21-.17,0-.16-.09,0M31,72.31l0,.13c-.05.16,0,.15-.21.16h-.15l.12.09c.12.08.15.11.12.14s0,0,0,.08a1,1,0,0,0,0,.11c0,.06,0,.06.11,0s.13-.1.19,0,.19.13.19.11,0-.08,0-.15l0-.12.05-.05.12-.08c.09-.06.08-.07-.07-.07s-.18,0-.24-.21c0-.07,0-.09-.05-.07m1.92,0a1,1,0,0,0,0,.13c0,.12,0,.12-.2.12s-.17,0-.12,0c.2.1.22.15.17.31l0,.13a.59.59,0,0,0,.19-.12c.06,0,.06,0,.19,0s.14.09.1,0-.07-.17.07-.27l.12-.09h-.15c-.17,0-.17,0-.22-.18s0-.13-.07-.08m3.82.08c0,.18,0,.17-.2.17s-.18,0,0,.1.13.09.08.23-.05.17,0,.11l.11-.08s.08,0,.11,0a.38.38,0,0,0,.09.08l.08.06h0s0,0,0-.07a1,1,0,0,1-.06-.22.19.19,0,0,1,.08-.07l.12-.09,0,0H37c-.18,0-.16,0-.23-.21s-.05-.09-.09,0m-2.86.73a1.08,1.08,0,0,1-.06.19l0,0H33.6c-.18,0-.18,0,0,.11a.33.33,0,0,1,.12.1,1.44,1.44,0,0,1-.08.25.08.08,0,0,0,0,0l.07,0a.92.92,0,0,1,.19-.13,1,1,0,0,1,.2.13l.07,0a.08.08,0,0,0,0,0A1.44,1.44,0,0,1,34,73.6a.15.15,0,0,1,.07-.07c.2-.14.2-.14,0-.14s-.15,0-.2-.15l0-.11,0,0,0,.07m-5.8.09-.05.14h-.16c-.18,0-.18,0,0,.13s.1,0,0,.25a.45.45,0,0,0,0,.11,1.55,1.55,0,0,0,.2-.14s.25.08.28.14,0,0,0,0,0-.06,0-.19a1.1,1.1,0,0,0,0-.11l.09-.07.12-.09,0,0h-.32l0-.14c-.06-.17-.05-.17-.11,0M30,73.16a.62.62,0,0,1,0,.1l0,.08,0,0h-.15c-.18,0-.18,0,0,.11l.11.09,0,.12,0,.14c0,.05,0,0,.18-.09s.08,0,.21,0,.12.08.12.06a1.56,1.56,0,0,0-.08-.21s0-.08.09-.15l.11-.08a0,0,0,0,0,0,0s0,0-.15,0H30.1v-.07c-.06-.21-.08-.24-.11-.16m5.78,0a1.21,1.21,0,0,1-.08.25.35.35,0,0,1-.16,0c-.17,0-.17,0-.05.09s.15.1.1.24,0,.2,0,.16a1.11,1.11,0,0,1,.24-.16.42.42,0,0,1,.14.09c.06,0,.11.07.11.06a1.17,1.17,0,0,0-.06-.2s0-.1.13-.19.1-.09-.08-.1h-.14l0-.08a.62.62,0,0,0,0-.1.08.08,0,0,1,0,0,.08.08,0,0,0,0,0s0,0,0,0m-3.85,0,0,.14,0,.11h-.15c-.19,0-.19,0,0,.11s.14.14.1.18a1.17,1.17,0,0,0-.06.2s.05,0,.11-.06a.42.42,0,0,1,.14-.09,1.11,1.11,0,0,1,.24.16s0,0,0-.15,0-.14.08-.23.14-.11,0-.11-.16,0-.21-.16-.05-.14-.07-.1m-2.86.81-.05.14c0,.14,0,.13-.2.13s-.16,0,0,.1a.4.4,0,0,1,.11.09s0,.17-.07.25,0,.06.11,0l.12-.09s.05,0,.2.11.09.07,0-.09a1.15,1.15,0,0,1-.05-.15l.12-.09c.14-.1.14-.11,0-.11s-.15,0-.19-.13a.3.3,0,0,0,0-.09.43.43,0,0,1,0,0v0l0,0m1.89.09c-.06.2,0,.18-.21.18s-.18,0,0,.11.13.09.09.18a.92.92,0,0,0-.05.2.44.44,0,0,0,.12-.08l.12-.09.13.09.13.08a.88.88,0,0,0,0-.19c0-.1,0-.1.08-.19s.15-.1,0-.11h-.15L31,74.06a1.34,1.34,0,0,1-.05-.14s0,0,0,.11m-3.83,0a.61.61,0,0,0-.06.16v0h-.15c-.16,0-.17,0-.12.05.22.15.21.13.15.3s-.06.16.09.06.12-.1.26,0,.14.1.08-.07a.8.8,0,0,1,0-.15l.12-.09c.13-.09.13-.1,0-.1s-.16,0-.2-.13-.07-.17-.09-.08m5.78-.06,0,.13c0,.15,0,.14-.19.14s-.18,0,0,.1.14.11.12.14a1.22,1.22,0,0,0-.07.25.7.7,0,0,0,.12-.08c.14-.1.11-.1.26,0s.14.11.09-.05-.06-.16,0-.23.18-.13,0-.13-.16,0-.19-.1-.07-.21-.09-.17m1.9.11c-.06.17,0,.16-.22.16s-.17,0,0,.1.13.09.08.26-.06.16.09.05l.12-.09a1.6,1.6,0,0,1,.23.16s0,0,0-.11-.07-.17.06-.26.15-.11,0-.11-.15,0-.2-.16-.06-.15-.1,0m2-.09,0,.12c0,.14,0,.13-.19.13s-.18,0,0,.1.14.09.08.26l0,.13.13-.08c.14-.1.13-.1.26,0s.14.11.09-.05-.06-.17.08-.26.13-.1,0-.1-.16,0-.2-.14-.06-.16-.08-.11m1,1.13v.58H55.1V74.52H37.73v.57M30,74.78a.3.3,0,0,1,0,.09.17.17,0,0,0,0,0,.41.41,0,0,1,0,.07l0,.05h-.31l.1.08.13.08s0,0,0,.18-.05.15.09.06.12-.1.23,0l.13.08,0,0,0-.1,0-.12c0-.06,0-.09.11-.18l.13-.09h-.15c-.18,0-.17,0-.23-.18L30,74.72l0,.06m3.86,0a.14.14,0,0,0,0,.06.17.17,0,0,1,0,.05l0,.09c0,.08,0,.08-.2.08h-.14l.11.08c.15.12.16.16.06.36s0,0,.13,0,.13-.09.16-.07a.66.66,0,0,0,.2.14s0-.06,0-.14-.05-.14.11-.25l.1-.07h-.15c-.16,0-.17,0-.2-.12a.54.54,0,0,1,0-.12.11.11,0,0,1,0,0s0,0,0,0m1.89.09c-.06.19,0,.19-.24.19h-.13l0,0,.09.06.1.08s0,0,0,.2,0,.12.05.06.16-.13.32,0,.12.1.08,0-.06-.18,0-.25.17-.11,0-.11-.17,0-.22-.16-.06-.17-.1,0m-7.67-.07a.68.68,0,0,0,0,.13c0,.13,0,.13-.22.13s-.15,0-.11,0l0,0,0,0c.16.1.15.08.1.28s-.05.14.08,0,.13-.1.26,0l.12.07a.37.37,0,0,0,0-.16l0-.07v-.06l.13-.09L28.5,75h-.15c-.18,0-.17,0-.22-.16s-.05-.15-.07-.1m3.83,0a.45.45,0,0,1,0,.08.07.07,0,0,0,0,0c0,.06,0,.08-.2.08s-.15,0-.11,0l.05,0,.08.06c.1.06.1,0,0,.22s-.05.16.09.06.12-.1.26,0,.14.08.11,0-.09-.23.07-.34l.11-.08H32.2c-.18,0-.16,0-.22-.16s-.06-.16-.09,0M29,75.6l-.05.15,0,.1h-.16c-.17,0-.17,0-.13,0l0,0s0,0,.08.06.12.08.08.21-.05.12-.05.13,0,0,.13-.06.15-.08.17,0a.62.62,0,0,0,.17.13l0,0,0-.13c-.06-.17-.05-.18.1-.28l.12-.09h-.34v0l0-.11a.66.66,0,0,0,0-.11v0l0,0m1.91,0c-.06.23-.05.22-.24.22h-.16l.13.1c.14.11.15.12.1.22a.45.45,0,0,0,0,.16s.06,0,.11-.07.15-.09.18-.06.21.15.21.13,0-.06,0-.12-.06-.16.09-.27l.14-.09h-.17c-.15,0-.18,0-.18,0l0,0a1,1,0,0,0,0-.11c0-.11-.05-.11-.07,0m1.94,0a.58.58,0,0,1,0,.13c0,.14,0,.14-.22.14h-.16l0,0,.12.09c.1.07.12.1.1.14a1.33,1.33,0,0,0-.08.24l.12-.08c.14-.1.14-.1.26,0s.14.1.13.06l0-.12s0-.11,0-.12,0,0,.12-.13l.14-.09H33l0-.11c-.06-.18-.06-.18-.08-.15m1.93,0a.61.61,0,0,1,0,.15l0,.12h-.33l.13.09c.15.11.14.09.07.3s0,.12.09,0,.13-.1.27,0l.12.08a.57.57,0,0,0-.05-.19c0-.08,0-.12.12-.21l.13-.09h-.35l0-.14c0-.09,0-.14-.06-.13m1.89.11c0,.17,0,.16-.22.17H36.3l.09.06.14.1,0,0,0,.13c0,.14,0,.17,0,.14.24-.17.22-.17.36-.06s.14.1.08-.07-.06-.15.11-.26l.11-.08h-.33l-.05-.13c0-.17,0-.17-.1,0m-9.6-.08a.58.58,0,0,1,0,.13l0,.11h-.35l.06,0a.69.69,0,0,1,.21.18s0,.07,0,.14,0,.16.08.06.14-.1.27,0,.13.09.07-.09l0-.12.06,0,.13-.1.08-.06H27.4c-.16,0-.2,0-.2,0a.66.66,0,0,0-.09-.25s0,0,0,0m-1,1.83V78h29V76.86h-29v.57m0,2.36v.57h29V79.21h-29v.58m0,2.35v.57h29V81.57h-29v.57" transform="translate(0 0)"/><path id="path1" class="cls-3" d="M26.1,72.72v4.11H37.7v-.58c0-.32,0-.58,0-.58a7.63,7.63,0,0,1,0-1.17s0,0,0,0,0-.24,0-.58,0-.56,0-.57,0-1.13,0-1.15v-.57c0-.35,0-.57,0-.59s0,0,0,0a11.23,11.23,0,0,1,0-1.17V68.62H26.1v4.1m1-3.69s0,.08,0,.1a.07.07,0,0,1,0,.05c0,.08,0,.09.2.1a.37.37,0,0,1,.17,0,0,0,0,0,1,0,0h0s0,0-.07.06l-.11.08,0,0,0,.1c.06.19.06.2.05.21s-.06,0-.14-.07-.15-.11-.17-.09-.23.18-.25.16,0,0,0-.12.07-.19-.05-.27-.2-.14,0-.15.16,0,.16,0a.08.08,0,0,1,0,0,.07.07,0,0,0,0-.05.08.08,0,0,1,0,0s0,0,0,0,.06-.11.09,0m1.92,0a.56.56,0,0,0,0,.07s0,0,0,0a.33.33,0,0,1,.05.15s0,0,.17,0,.21,0,.09.09l-.13.1,0,0,0,.12c.08.23.07.24-.1.11s-.17-.1-.21,0l-.1.07c-.12.1-.13.08-.07-.11l.05-.15,0,0-.13-.09c-.12-.07-.11-.09.08-.09h.17l0-.12c.07-.21.08-.23.12-.16M31,69s0,.09,0,.1a.14.14,0,0,1,0,.06c0,.06,0,.08.19.08s.2,0,.14,0l-.05,0-.1.07c-.09.07-.09,0,0,.23s0,.2-.16,0-.08-.07-.22,0l-.14.1s0,0,0-.06,0,0,0,0a.07.07,0,0,1,0,0s0,0,0,0a.2.2,0,0,1,0,0c.05,0,0-.11-.07-.17s-.19-.14,0-.14h.16l.05-.17c.06-.18.08-.19.11-.07m1.92,0a1.66,1.66,0,0,1,.05.16l0,.12h.16c.17,0,.21,0,.15,0l-.07,0-.09.06c-.06,0-.08.11-.05.13a.08.08,0,0,1,0,.05s0,0,0,0,0,.13,0,.15,0,0-.16-.09-.13-.09-.26,0-.12.09-.14.06a1.5,1.5,0,0,1,.08-.27s0,0,0-.07l-.09-.07-.08,0c-.07,0,0-.06.13-.06h.16l0-.09a.94.94,0,0,0,0-.1s0,0,0,0,0-.11.08,0m1.91,0a.81.81,0,0,1,0,.15c0,.16,0,.16.21.16s.21,0,.14,0l-.09.07-.09.06c-.05,0-.06.05,0,.09a.57.57,0,0,1,.08.25s0,0-.19-.09-.09-.07-.11-.06l-.12.09c-.13.09-.14.1-.14.06a.9.9,0,0,1,.06-.22c0-.06,0-.1,0-.13-.23-.15-.23-.17,0-.17s.15,0,.15,0,0,0,0,0a.06.06,0,0,0,0,0,.14.14,0,0,1,0-.06.3.3,0,0,0,0-.09c0-.07,0-.08.06,0m2,.16.05.14H37c.17,0,.19,0,.1.07s-.06,0-.06.05l-.06,0c-.07,0-.07.11,0,.24s0,0,0,0a.08.08,0,0,0,0,0c.06,0,0,0-.11,0s-.19-.14-.27-.07l-.08.06-.06.06s-.07,0-.06,0a2.9,2.9,0,0,0,.09-.28s0,0-.06-.06l-.06,0-.07-.05c-.08,0-.06-.07.1-.07s.19,0,.19-.09,0,0,0,0,0,0,0,0,0,0,0-.06,0,0,0,0,0-.06.11.11m-8.68.77.05.14s0,0,.17,0,.22,0,.09.1l-.06,0-.06,0c-.05,0-.06.09,0,.1a.06.06,0,0,1,0,0,.11.11,0,0,0,0,.06c.1.19,0,.2-.19,0-.06,0-.05,0-.19.06s-.18.13-.1-.12l0-.11a.36.36,0,0,0-.12-.09c-.19-.15-.19-.15,0-.15s.17,0,.17,0a1.17,1.17,0,0,1,.08-.25s0,0,.08.09M30,69.81a.81.81,0,0,1,.05.15l0,.12h.17c.22,0,.22,0,0,.16-.06,0-.1.08-.09.09s0,0,0,0a.08.08,0,0,0,0,.06s0,0,0,0a.08.08,0,0,0,0,.05s0,.11,0,.11a.44.44,0,0,1-.12-.08c-.16-.12-.15-.12-.35,0a.19.19,0,0,1-.08.05s0-.07,0-.08a.05.05,0,0,0,0,0,.45.45,0,0,1,0-.11c0-.09,0-.11,0-.16l-.16-.11c-.06-.05,0-.06.16-.06s.15,0,.15,0,0,0,0,0a0,0,0,0,0,0,0c0-.1.09-.28.11-.21m1.95.06A1.77,1.77,0,0,0,32,70s0,0,.17,0,.23,0,0,.16-.11.07-.06.19l0,.14c0,.06,0,.08,0,0-.28-.19-.22-.18-.37-.07s-.19.1-.09-.15c0-.07,0-.09,0-.11l0,0-.09-.08c-.12-.09-.11-.1.08-.1s.17,0,.17,0a.49.49,0,0,1,.06-.17.43.43,0,0,0,0-.05c0-.09.06-.08.09,0m1.91,0a1.24,1.24,0,0,1,0,.15l0,.11h.16c.21,0,.23,0,.1.1l-.12.09-.06,0,0,.13c.08.22.08.22-.1.1s-.13-.1-.29,0l-.11.07s0-.09,0-.1,0,0,0,0a.08.08,0,0,1,0-.05s0,0,0,0a.08.08,0,0,1,0-.06s0,0-.06-.08l-.09-.07-.06,0c-.07-.05,0-.06.14-.06h.16l0-.16c.05-.16.06-.17.1-.1m1.92,0a.24.24,0,0,0,0,.07s0,0,0,.06v0a.08.08,0,0,1,0,.05s0,0,.18,0,.16,0,.17,0,0,0,0,0l0,0-.07,0L36,70.3l0,0,0,.13a1.24,1.24,0,0,0,0,.15s0,0-.09,0l-.09-.07-.06,0s-.1,0-.1,0l-.22.15s0-.05,0-.18,0-.13,0-.14a1.06,1.06,0,0,0-.2-.17l0,0s0,0,.18,0h.15l0-.14c.06-.18.09-.22.11-.13m-8.66.82a.08.08,0,0,0,0,0s0,0,0,0a.14.14,0,0,0,0,.06l0,.07,0,0h.15c.21,0,.22,0,.05.14s-.15.12-.12.16a.34.34,0,0,1,0,.08.51.51,0,0,0,0,.1c.06.11-.07.08-.2,0s-.16,0-.23.06-.11.08-.12.07,0-.1,0-.12a.08.08,0,0,0,0,0s0,0,0,0,0-.14-.09-.21l-.05,0s0,0,0,0l-.05,0c-.05,0,0-.06.16-.06H27l0-.05,0-.12c0-.13.09-.18.09-.09m1.92,0a.19.19,0,0,1,0,.07s0,0,0,0,0,0,0,0a.45.45,0,0,0,0,.08l0,.06h.16c.16,0,.22,0,.15.07l-.06,0-.1.07c-.08,0-.08,0,0,.19s.05.2,0,.2l-.22-.16s-.07,0-.11,0l-.16.12a0,0,0,0,0,0,0s0,0,0,0,0-.13,0-.17a.43.43,0,0,0,0,0,.11.11,0,0,1,0-.06s0-.07-.16-.17-.12-.1.08-.11h.16l0-.08,0-.1a.58.58,0,0,1,.05-.14.14.14,0,0,1,0,0m5.82.14,0,.13h.16c.22,0,.22,0,0,.15l0,0-.06,0s0,0,0,.05a1.5,1.5,0,0,1,.08.27s-.1,0-.23-.12-.06,0-.1,0a1.21,1.21,0,0,1-.23.16.45.45,0,0,1,0-.19c0-.11.05-.16,0-.16l0,0L34.41,71c-.12-.07-.09-.09.1-.1s.19,0,.19-.11,0,0,0,0a.06.06,0,0,0,0,0c0-.17.07-.15.13,0M31,70.64a.19.19,0,0,0,0,.07.46.46,0,0,1,0,.09c0,.11,0,.11.2.11s.21,0,.12.08a1.13,1.13,0,0,0-.16.13l0,0,.05.15c.06.21,0,.21-.12.08s-.13-.1-.2,0-.19.14-.21.13a.24.24,0,0,1,0-.14.08.08,0,0,0,0,0s0,0,0,0,0-.1,0-.12l-.1-.07c-.16-.11-.15-.14.05-.14s.17,0,.22-.19.08-.15.09-.08m1.94,0a1.42,1.42,0,0,1,.05.16l0,.06h.16c.21,0,.21,0,.06.13l-.12.08s0,.09,0,.11,0,0,0,0a.43.43,0,0,0,0,0s0,0,0,0a.43.43,0,0,0,0,0s0,0,0,0-.11,0-.13-.06,0,0,0,0l-.07,0s-.07,0-.08,0l-.14.1c-.1.07-.12.08-.13,0a1.5,1.5,0,0,1,.08-.27,0,0,0,0,0,0,0L32.43,71c-.07,0,0-.06.16-.06h.16v0a.08.08,0,0,1,0-.06s0,0,0,0a.11.11,0,0,1,0,0,.21.21,0,0,1,0-.07c0-.06,0-.05.07,0m3.87,0c0,.18,0,.17.2.17s.23,0,.12.09l-.06,0-.06,0c-.06,0-.08.1,0,.13a.12.12,0,0,1,0,0s0,0,0,0a.43.43,0,0,1,0,0,.11.11,0,0,0,0,.05s0,.06,0,0l-.12-.08-.11-.09s0,0-.08,0c-.22.18-.25.18-.19,0s.06-.17,0-.22L36.37,71,36.31,71c-.09,0-.06-.07.12-.08s.17,0,.2-.11a.46.46,0,0,1,0-.09.19.19,0,0,0,0-.07c0-.07,0,0,.1.1m-8.63.84.05.16h.14c.19,0,.21,0,.15.07l-.12.1a.1.1,0,0,0-.07.14c0,.08.07.25.05.25a.79.79,0,0,1-.16-.1c-.1-.09-.16-.08-.31.06s-.08,0-.1,0l0-.13a1.66,1.66,0,0,1,.05-.16s0-.06-.17-.17-.1-.1.13-.11.14,0,.14,0a.17.17,0,0,0,0,0,.08.08,0,0,0,0,0s0,0,0,0a.08.08,0,0,0,0,0s0-.07,0-.07a.51.51,0,0,1,.07.15m1.92,0,.05.14h.15c.24,0,.24,0-.08.25l0,0a.15.15,0,0,1,0,.06s0,0,0,0a.08.08,0,0,1,0,0s0,0,0,0,0,.1,0,.1l-.14-.09a.15.15,0,0,0-.23,0l-.17.12s0-.06,0-.19l0-.13,0,0-.07,0-.07-.06c-.13-.09-.12-.09.09-.1h.16l.05-.15c.07-.18.07-.18.14,0M32,71.46a.93.93,0,0,1,.05.14c0,.15,0,.14.21.14s.2,0,0,.13-.16.16-.11.2,0,0,0,0a.07.07,0,0,0,0,0s0,.14,0,.14a.56.56,0,0,1-.14-.09c-.14-.1-.14-.1-.17-.07a1.64,1.64,0,0,1-.24.16s0,0,0,0,0,0,0,0a.58.58,0,0,1,0-.13l0-.1,0,0-.13-.1c-.14-.1-.14-.1.08-.11s.17,0,.21-.13a.34.34,0,0,1,0-.08.07.07,0,0,0,0,0s0-.06.06,0m1.93,0a.07.07,0,0,0,0,0s0,0,0,.1,0,.12.2.12.23,0,0,.18c0,0-.07,0-.07.06s.06.21.07.23,0,.09,0,.09a.38.38,0,0,1-.13-.09h0l0,0s-.09-.06-.12,0l0,0h0a.51.51,0,0,1-.16.11s0-.12,0-.2,0-.12,0-.16-.05,0-.06,0,0,0-.08-.06-.1-.09.13-.09h.14l0-.12c0-.18.11-.26.11-.15m1.92,0,0,.08s0,0,0,0,0,0,0,0a.43.43,0,0,1,0,0s0,0,.12,0,.27,0,.2.06l-.06,0,0,0L36,72s0,0,0,.18,0,.21-.17,0c0,0-.09,0-.11,0l0,0s0,0,0,0l0,0-.08.06a.09.09,0,0,1-.06,0s0-.07,0-.08a.07.07,0,0,0,0,0s0,0,0,0a.07.07,0,0,0,0,0s0,0,0,0,0-.08-.07-.13-.22-.17,0-.17h.15l0-.11s0-.11,0-.12,0,0,0-.05,0,0,0,0m-8.61.93,0,.15h.17c.22,0,.22,0,0,.15l-.11.08a.54.54,0,0,0,.05.16s0,0,0,0a.17.17,0,0,0,0,0c.06.1-.09,0-.22-.08s-.1,0-.2.07-.13.08-.14.07a.43.43,0,0,1,0-.17c0-.13,0-.15,0-.17l0,0-.1-.07c-.14-.1-.13-.11.06-.11s.18,0,.21-.09a.3.3,0,0,1,0-.09.14.14,0,0,0,0-.06s0-.08.05-.07a.46.46,0,0,1,.06.16m1.9-.08,0,.12,0,.11h.17c.22,0,.22,0,0,.15l-.11.09a1.43,1.43,0,0,0,.06.21c.05.14,0,.14-.17,0l-.05,0s0,0,0,0-.13,0-.15.06l0,0h0s-.1.08-.11.07a.1.1,0,0,1,0-.09.05.05,0,0,0,0,0,.13.13,0,0,1,0-.06c.07-.13.06-.14-.15-.28s-.09-.09.1-.09h.17l0-.09,0-.1a.11.11,0,0,1,0-.05.11.11,0,0,0,0-.06s.07,0,.07.07m3.87.08,0,.15h.17c.2,0,.2,0,.06.12s-.16.1-.1.26,0,.22,0,.16L33,73,32.93,73s0,0-.08,0l-.14.11c-.08.06-.12.06-.1,0s0-.07,0-.09a.49.49,0,0,1,0-.11c0-.07,0-.06-.14-.19s-.13-.11.06-.11.17,0,.22-.14.07-.22.14,0m1.92,0c.06.19,0,.17.23.17s.2,0,0,.17-.11.08-.08.1a.08.08,0,0,1,0,0,.1.1,0,0,0,0,0l0,0a.29.29,0,0,0,0,.09c0,.06,0,.08-.06,0s-.22-.15-.24-.13,0,0-.06,0a.21.21,0,0,0-.07.05c-.14.12-.16.1-.1-.08s.07-.16-.11-.29-.13-.11.07-.11.17,0,.17,0a.08.08,0,0,1,0-.05.85.85,0,0,0,.05-.13c0-.15,0-.14.11,0m-3.86,0a1.27,1.27,0,0,0,.06.18l0,0h.16c.13,0,.16,0,.16,0a.67.67,0,0,1-.2.17l0,0s.07.23.08.26-.06.06-.21-.08a.14.14,0,0,0-.19,0,0,0,0,0,1,0,0h0s0,0-.07,0-.07,0,0-.15.06-.16-.07-.25-.18-.14,0-.14.18,0,.23-.17.08-.17.12,0m5.79,0c0,.18,0,.17.23.17h.16s0,.05-.08.08l-.06,0a.15.15,0,0,1-.06,0s-.07.13,0,.15,0,0,0,0A.14.14,0,0,0,37,73c.08.17.06.17-.18,0-.07,0-.1,0-.15,0a.63.63,0,0,1-.21.14s0-.07,0-.07,0,0,0,0a.45.45,0,0,1,0-.11c0-.1,0-.12,0-.15-.27-.19-.27-.2-.06-.2h.17v0l0-.07a.11.11,0,0,0,0,0s0,0,0,0a.08.08,0,0,0,0,0c0-.11,0-.06.1.08m-8.68.75a.33.33,0,0,1,0,.1.43.43,0,0,0,0,.05l0,.06s0,0,.17,0,.21,0,.06.11-.16.11-.11.25.05.23,0,.17-.27-.18-.27-.13a0,0,0,0,1,0,0h0c-.19.16-.23.14-.15-.07s.06-.13-.07-.22-.19-.14,0-.14.17,0,.18,0,0,0,0-.06,0,0,0-.08.07-.17.11,0M30,73.07a.62.62,0,0,1,.06.15c.05.16,0,.15.22.15s.15,0,.15,0a1.16,1.16,0,0,1-.23.19s0,.06,0,.13a.14.14,0,0,1,0,.06s0,0,0,0,0,.09,0,.1-.06,0-.09,0-.18-.14-.32,0l-.14.08s0-.06,0-.08a0,0,0,0,0,0,0,.39.39,0,0,1,0-.13s0-.1-.08-.17-.19-.15,0-.15.16,0,.23-.2.05-.13.07-.1m2,.14,0,.16h.17c.2,0,.2,0,0,.13s-.16.14-.11.17a.08.08,0,0,1,0,0s0,0,0,.06,0,.11,0,.13-.1,0-.15-.07-.16-.11-.22,0l-.19.12s0-.11,0-.14a.59.59,0,0,0,.05-.19l-.06,0-.11-.09c-.11-.08-.11-.09.07-.09s.2,0,.2-.07a.06.06,0,0,1,0,0,.53.53,0,0,0,.05-.15s0-.06.05-.06l.06.16m1.88-.13s0,0,0,0a.85.85,0,0,1,0,.13l0,.12h.16c.21,0,.21,0,0,.17-.06,0-.08.06-.07.08a.43.43,0,0,0,0,.1l0,.1s0,.1,0,.1a.59.59,0,0,1-.16-.1c-.09-.08-.11-.08-.19,0a.84.84,0,0,1-.2.13s0-.09,0-.1,0,0,0,0a.11.11,0,0,1,0,0,.25.25,0,0,0,0-.15,1,1,0,0,1-.24-.19s0,0,.16,0h.16l0-.07,0-.1s0,0,0-.08.06-.09.06,0m1.93,0a.24.24,0,0,0,0,.07s0,0,0,.06a.05.05,0,0,0,0,0,.1.1,0,0,1,0,0c0,.06,0,.07.2.07s.18,0,.08.09l-.1.07,0,0c-.05,0-.05.12,0,.21s0,.17-.1.08-.14-.12-.28,0-.19.12-.15,0,.1-.24-.06-.36-.15-.11.06-.12h.16l0-.14a1.07,1.07,0,0,0,0-.16s0,0,.06,0m-6.7.87,0,.08,0,.1,0,0h.16c.21,0,.21,0,0,.16s-.12.12-.08.14a.07.07,0,0,1,0,0s0,0,0,0a.07.07,0,0,1,0,.05s0,0,0,0,0,.07,0,.08,0,0-.05,0l-.23-.15-.13.08c-.17.13-.19.1-.1-.12s0-.11-.07-.19-.2-.15,0-.16h.15L29,74c.05-.17.07-.2.09-.15l0,.07m1.92,0a.82.82,0,0,0,0,.14l0,.11h.17c.22,0,.22,0,0,.14l-.12.09s0,.06,0,.13.06.24,0,.17-.21-.16-.27-.11-.27.17-.22.07,0-.07,0-.1a.34.34,0,0,1,0-.1s0-.06-.12-.15-.13-.1-.13-.12a.41.41,0,0,1,.17,0h.17l0-.1c.06-.21.1-.26.13-.15m5.81.12,0,.13H37c.21,0,.22,0,.05.14s-.14.1-.12.14,0,.05,0,.09,0,.08,0,.08,0,.13,0,.09l-.06,0-.09-.06c-.09-.07-.07-.07-.22,0s-.17.12-.1-.09,0-.16,0-.19l-.08-.06-.08-.06c-.08-.06-.05-.08.12-.08h.17l0,0a.58.58,0,0,1,0-.13c0-.19.07-.18.14,0m-9.63,0,0,.15h.17l.16,0v0l-.11.09c-.15.1-.14.09-.1.22s.06.19,0,.2h0a2.09,2.09,0,0,0-.22-.16l-.15.09c-.13.09-.18.1-.14,0s.08-.24.08-.26l-.12-.09c-.18-.14-.18-.15,0-.15s.19,0,.19-.08a.08.08,0,0,1,0,0s0,0,0,0,0,0,0-.05a.14.14,0,0,0,0-.06c0-.05.05,0,.1.13m5.71-.14s0,0,.07.19,0,.1.21.1.21,0,.11.09l-.09.06-.09.07s0,0,0,.1a.58.58,0,0,1,0,.13l0,.08s0,0-.07,0l-.22-.14a.44.44,0,0,0-.12.08c-.16.11-.17.12-.16,0a.34.34,0,0,1,0-.08v0a.08.08,0,0,1,0,0,.13.13,0,0,0,0-.13c-.16-.11-.21-.16-.21-.19h.33v0a1.51,1.51,0,0,0,.06-.15c0-.11,0-.12.06-.1m2,.08a.88.88,0,0,1,0,.15l0,.06h.17c.2,0,.2,0,.05.12s-.18.18-.11.18a0,0,0,0,1,0,0,.45.45,0,0,0,0,.11c0,.12,0,.14-.11,0s-.18-.11-.25,0-.19.12-.19.08l.08-.27s0,0-.12-.12-.16-.13.05-.13.16,0,.17,0a1.43,1.43,0,0,1,.05-.17.08.08,0,0,0,0,0s0-.07,0-.07,0,0,0,.09m-6.73.87.05.16h.16c.21,0,.21,0,0,.13s-.15.15-.1.18a.07.07,0,0,1,0,.05.1.1,0,0,0,0,0,.39.39,0,0,1,.05.14s-.05,0-.12,0-.16-.13-.32,0-.16.1-.14,0l.08-.23s0-.07-.15-.15S27.6,75,27.8,75s.16,0,.21-.15.07-.22.14,0m1.91,0a.85.85,0,0,1,0,.15s0,0,.18.05.21,0,0,.14-.14.11-.11.13,0,0,0,0a.08.08,0,0,0,0,.05s0,0,0,0a.07.07,0,0,0,0,0s0,.1,0,.1l-.21-.14c-.06,0-.13,0-.27.11s-.11,0-.06-.07a.71.71,0,0,0,.06-.23,1.53,1.53,0,0,0-.2-.15c-.09-.06-.05-.08.19-.07s.1,0,.17-.21.06-.14.11,0m3.82-.08s0,0,0,0A1.38,1.38,0,0,1,34,75s0,0,.17,0,.23,0,.13.08l-.1.08-.08.06,0,0a.38.38,0,0,0,.05.15.1.1,0,0,1,0,0s0,0,0,0,0,.09,0,.09L34,75.47l-.13-.08a1.19,1.19,0,0,0-.23.16h0s0-.08,0-.11a.07.07,0,0,0,0,0,.08.08,0,0,1,0-.05l0-.06c0-.06,0-.06-.13-.16s-.14-.12,0-.12.2,0,.2-.05l0,0a.1.1,0,0,0,0,0,.08.08,0,0,1,0,0s0,0,0,0,.05-.1.06-.09,0,0,0,0m1.94,0s0,0,0,0a.43.43,0,0,1,0,0s0,0,0,0a0,0,0,0,1,0,0s0,.06.19.06.19,0,.16,0l-.13.11c-.08,0-.13.1-.12.11l0,.09a.47.47,0,0,1,0,.09c0,.06,0,.12,0,.12h0a1.19,1.19,0,0,0-.23-.16l-.07,0-.1.07s-.06,0-.06,0h0s0,0,0-.07,0,0,0,0,0,0,0,0a.07.07,0,0,0,0-.05.08.08,0,0,1,0-.06s0-.07-.11-.15-.18-.13.07-.14h.14l0-.14c0-.07,0-.14,0-.16s.07,0,.07.08M32,74.84c.05.17.05.16.25.17s.12,0,.12,0a.7.7,0,0,1-.2.16s0,.11,0,.14a.22.22,0,0,1,0,.08.93.93,0,0,1,0,.1,0,0,0,0,1,0,0s-.07,0-.07,0a1.49,1.49,0,0,0-.2-.15s-.07,0-.18.09l-.11.07s0,0,0-.07a.1.1,0,0,0,0,0,.43.43,0,0,1,0,0,.35.35,0,0,0,0-.17l-.13-.1c-.15-.11-.14-.13.07-.13s.18,0,.18-.07a.43.43,0,0,1,0-.05s0,0,0-.09.06-.12.11,0m-2.92.72a.31.31,0,0,1,0,.08s0,0,0,0a.07.07,0,0,1,0,0,.08.08,0,0,0,0,0s0,0,0,0,0,0,.17,0,.22,0,.07.12l-.11.08-.05,0,.05.13c.07.22.07.22-.11.09L29,76.2l-.13.09-.15.09s0-.08,0-.1,0,0,0,0,0,0,0-.06.05-.13,0-.14a1.21,1.21,0,0,1-.24-.19.35.35,0,0,1,.16,0h.17l0-.1a1.28,1.28,0,0,0,0-.13s0,0,0,0,0,0,0,0,0,0,.05,0m1.92,0a1.66,1.66,0,0,1,.05.16l0,.12h.17a.41.41,0,0,1,.17,0,1.56,1.56,0,0,1-.26.21l0,.1c.08.24.07.26-.05.17a.61.61,0,0,0-.13-.09l-.05,0-.13.1c-.14.1-.2.11-.15,0a.11.11,0,0,0,0-.06s0,0,0,0,0,0,0,0a.43.43,0,0,1,0-.05c.05,0,0-.08-.11-.17s-.15-.12.05-.12h.16l.05-.16c.06-.16.07-.18.1-.12m1.95.07s0,.06,0,.07a.22.22,0,0,1,0,.08l0,.06h.17c.17,0,.2,0,.14.06l-.06,0-.09.07c-.07,0-.09.09-.06.15a1.28,1.28,0,0,1,.07.21s0,0-.12,0l-.12-.09,0,0-.11.08c-.12.09-.19.12-.19.09s0-.17.06-.2,0-.12-.12-.23-.06,0-.06,0h0s0,0,0,0,.06,0,.17,0h.17l0-.14c.06-.2.09-.22.12-.07m1.94,0,0,.16h.17c.18,0,.21,0,.13.07a.28.28,0,0,0-.09.06l-.09.07a.06.06,0,0,0,0,.09.22.22,0,0,1,0,.08s0,.08,0,.1,0,.1-.16,0l-.12-.08,0,0c-.27.21-.28.21-.2,0l0-.15,0,0-.13-.09c-.14-.1-.13-.11.08-.11s.17,0,.17,0a.82.82,0,0,1,0-.14l0-.13c0-.05,0,0,.09.13m1.93,0,0,.14h.35s-.09.1-.1.1l-.05,0L37,76s0,0,0,0,0,0,0,.09,0,.08,0,.08,0,.13,0,.13a1.45,1.45,0,0,1-.23-.15s0,0-.16,0-.2.14-.13-.07l0-.14L36.47,76a.64.64,0,0,0-.13-.1c-.1-.07-.09-.08.11-.08s.2,0,.2-.1,0,0,0,0a.05.05,0,0,0,0,0,.13.13,0,0,1,0-.06.11.11,0,0,0,0,0c0-.05,0,0,.1.15m-9.62,0,0,.15h.15c.23,0,.23,0,0,.15l-.1.09a1.86,1.86,0,0,0,.08.26c0,.08,0,.07-.13,0a.71.71,0,0,1-.13-.1h-.05a1.34,1.34,0,0,1-.23.16s0-.09,0-.13a.84.84,0,0,0,.05-.17L26.8,76c-.19-.14-.19-.15,0-.15s.19,0,.19-.07,0,0,0,0a.07.07,0,0,0,0,0s0,0,0,0a.08.08,0,0,0,0,0c0-.11.06-.06.11.1" transform="translate(0 0)"/><path id="path2" class="cls-4" d="M37.7,69.2v.57H55.1V68.62H37.7v.58M37.76,71c-.06,0-.06,0-.06.6v.54H55.1v-.57c0-.31,0-.57,0-.57H37.76m0,2.36a10.25,10.25,0,0,0,0,1.11s1,0,8.69,0H55.1V73.33H46.41c-7.91,0-8.69,0-8.7,0m0,2.36s0,.27,0,.57v.55H55.1V75.68H46.41c-7.91,0-8.69,0-8.7,0M26.1,78.61v.57h29V78h-29v.57m0,2.35v.58h29V80.37h-29V81m0,2.35v.58h29V82.73h-29v.58" transform="translate(0 0)"/><path id="path3" class="cls-5" d="M27.06,69a1.22,1.22,0,0,0-.06.21s.06-.13.06-.16,0-.06.06,0a1.21,1.21,0,0,0,.05.14l0,.07h0l0-.14c-.05-.16-.07-.19-.1-.12M29,69c0,.06,0,.08,0,0s0,0,.09.13l0,.12h.32l0,0,0,0s-.17.12-.16.14h0a.58.58,0,0,1,.13-.11c.16-.12.15-.12,0-.12h-.15l0-.07,0-.09,0-.09C29,69,29,69,29,69m1.92,0c0,.06,0,.11,0,.11l0-.06c0-.07,0-.07.06,0a.41.41,0,0,0,0,.09.1.1,0,0,1,0,0s0,.08.06.07,0,0,0,0A.55.55,0,0,1,31,69c0-.06-.05-.08-.07,0m1.93,0a.14.14,0,0,0,0,.06s0,0,0,0,0,0,0,0a0,0,0,0,0,0,0s0,0,0,0m1.9.09a.93.93,0,0,1-.05.14s0,0,0,0a.05.05,0,0,0,0,0c0-.07.07-.2.09-.17s0,0,0,0,0-.08,0-.08,0,0,0,.12M36.68,69v0a.37.37,0,0,1,0,.09.16.16,0,0,0,0,0,.38.38,0,0,0,0-.15s0,0,0,0,0,0,0,0,0,0,0,0a.19.19,0,0,0,0-.07s-.05,0-.06,0m-3.79,0s0,0,0,0v0s0,0,0,0,0,0,0,0m1.94.06a.07.07,0,0,0,0,0s0,0,0,0a.17.17,0,0,0,0,0s0,0,0,0M29,69.1a.43.43,0,0,0,0,.05s0,0,0,0,0,0,0,0h0m3.84,0a.11.11,0,0,0,0,.06.19.19,0,0,0,0,.07s0,0-.15,0h.16l0-.09a.43.43,0,0,0,0-.1s0,0,0,0m.12,0c0,.09,0,.13.07.13s0,0,0,0a.13.13,0,0,1,0-.09s0-.06,0-.06v0m3.85,0s0,0,0,0,0,0,0,0,0,0,0,0m-5.92,0,0,.07h0l0-.06,0-.07s0,0,0,0m4,0a.15.15,0,0,0,0,.06l0,.05h0l0,0s0-.07,0,0m-5.94,0v0h-.13c.13,0,.18,0,.15-.1s0,0,0,0m7.69,0s0,0,0,0,0,0,0,0,.07-.06.05-.08,0,0,0,0m.19,0s0,0,.17,0h0c-.14,0-.16,0-.17,0s0,0,0,0m-9.82,0s0,0-.15,0-.2,0-.16,0l.23.16a.32.32,0,0,0-.1-.08c-.15-.1-.15-.11,0-.11s.19,0,.16,0,0,0,0,0m7.54,0c-.21,0-.21,0-.06.11a.76.76,0,0,1,.13.13l0,0v0s0-.06-.13-.13l-.12-.08h.33s0,0,0,0h-.16m-3.35,0h.12s0,0-.06,0-.1,0-.06,0m2,0h.12l-.06,0s0,0,0,0l.06,0c.08-.06.07-.08-.07-.08h0m3.11,0s0,0,0,.06l.07,0s0,0-.06,0l-.05,0h0m-8.88.09c-.15.12-.15.1-.1.23s.05.19-.09.09-.12-.1-.27,0-.11.07-.11,0a.1.1,0,0,1,0,0,.52.52,0,0,0,.05-.12.35.35,0,0,0,0-.1,1.15,1.15,0,0,0-.09.28s0,0,.13-.06l.14-.09.14.09c.15.11.16.1.09-.11s0-.13.07-.21a.55.55,0,0,0,.1-.08h0s0,0-.13.07m1.18-.08.12.1c.13.09.13.09.08.25s-.06.19.1.07.12-.1.27,0,.19.1.13,0,0,0,0,0,0,0-.12,0L29,69.61l0,0c-.23.17-.23.17-.16,0s.05-.12-.09-.22l-.12-.08h0m1.92,0a.94.94,0,0,0,.12.1c.14.09.14.09.08.27a.81.81,0,0,0-.05.14s.06,0,.15-.08a.56.56,0,0,1,.14-.09.56.56,0,0,1,.14.09l.13.08s0,0,0,0l-.11-.07c-.12-.09-.14-.09-.26,0s-.15.11-.08-.07,0-.13,0-.15l-.26-.18m.74.09c-.13.09-.14.11-.11.16s0,0,0,0,0,0,.07-.1.19-.14.17-.14a.62.62,0,0,0-.14.1m1.17-.09.13.09c.14.1.14.11.11.21a.14.14,0,0,0,0,.07s0,0,0,0a.19.19,0,0,1,0-.07c0-.08,0-.1-.11-.2s-.15-.1-.15-.08m2.73,0-.08.07a.78.78,0,0,0,.17-.12c.05,0,0,0-.09,0m2,0-.13.09c-.1.07-.11.12-.06.21s0,.18,0,.15,0,0,0,0,.07.06.08,0a.64.64,0,0,0,0-.15c0-.08,0-.15,0-.16a2.7,2.7,0,0,1,.22-.18s0,0,0,0l0,0m-4,.13a.1.1,0,0,0-.05.07c0,.08,0,.09,0,.09a.21.21,0,0,0,0-.06s0-.06,0-.1,0,0,0,0a.12.12,0,0,0-.06,0m3.38,0,.05,0,0,.11c-.08.24-.08.24.08.12s.15-.1.23,0l.05,0-.05,0c-.07-.06-.1,0-.22,0s-.13.09-.08-.07,0-.14,0-.19l-.06,0,.06,0m-1.47,0s0,0,0,.18,0,.11,0,.12,0,0,0,0a1.32,1.32,0,0,0,0-.13L35,69.5l0,0s0,0,0,0m-.43.13v0s0,0,0,0,0,0,0,0,0,0,0,0m-3.43,0a.08.08,0,0,0,0,0s0,0,0,0a.06.06,0,0,0,0,0s0,0,0,0m3.56.07-.11.08c-.05,0-.06,0,0,0s0-.06,0-.06a.86.86,0,0,0-.05.15s0,0,.14-.07.14-.11.28,0,.12.08.13.07,0,0,0,0a.41.41,0,0,1-.11-.06c-.15-.12-.14-.11-.24,0m-5.47,0a.08.08,0,0,0,0,0s0,0,0,0a.43.43,0,0,1,0,0s0,0,0,0m3.56,0-.06,0a.38.38,0,0,1-.11.08s0,0,0,0,0,0,0,0,0,.1,0,.1a.91.91,0,0,0,.17-.12c.08-.06.1-.06.19,0s.08,0,.08,0a.46.46,0,0,0-.18-.11.11.11,0,0,0-.07,0m.29,0a.25.25,0,0,0,0,.07c0,.06,0,.08,0,.06s0,0,0,0,.08.06.09,0,0,0,0-.1,0-.08,0-.07m-1.91,0a.08.08,0,0,0,0,0s0,0,0,0a.06.06,0,0,0,0,0s0,0,0,0M28,69.81a1.48,1.48,0,0,0-.09.28s0,0,0,0a.08.08,0,0,1,0,0l0,0a.34.34,0,0,1,0-.12c0-.06,0-.11,0,0m1.9.07a1,1,0,0,0,0,.11.24.24,0,0,0,0-.08c0-.08,0-.08,0-.06s0,0,0,0,0-.08-.07,0m1.95-.07s0,0,0,0,0,0,0,0,0,0,0,0a.08.08,0,0,0,0,.05s0,0,0,0,0-.08-.05-.07m1.91,0a.1.1,0,0,0,0,0s0,0,0,0a.25.25,0,0,1,0,.11.85.85,0,0,0,.05.13.17.17,0,0,0,0-.11l0-.08c0-.09,0-.1-.06,0m3.92,0a2.25,2.25,0,0,0,0,.58V71h0V69.81h0m-2,.06a.18.18,0,0,0,0,.06s0,0,0,0,0-.06.05,0a.11.11,0,0,0,0,0,.13.13,0,0,1,0,.06.08.08,0,0,0,0,0s0,0,0,0,0,.06.19.06.15,0,0,.1-.13.12-.1.17,0,0,0,0,0-.06.1-.14.18-.13,0-.13-.18,0-.24-.16-.07-.16-.1-.07m-7.64,0s0,.08,0,0,0,0,0,0h0m3.76.13,0,.11h-.16c-.2,0-.2,0,0,.12l.12.1a.9.9,0,0,1-.07.22s0,.1,0,.1a1.3,1.3,0,0,0,.23-.18s0,0,.16.08.17.13.12,0-.07-.21.14-.34.07-.07,0-.07,0,0,0,0,0,0-.08.11-.13.09-.09.18.06.24-.09.11-.11-.08-.15-.05a.91.91,0,0,1-.21.14,1.32,1.32,0,0,1,0-.13c.05-.15.05-.16,0-.2l-.07-.06-.06,0c-.07,0-.06,0,.09,0a.42.42,0,0,0,.16,0,.68.68,0,0,0,.08-.24s0,0,0,.12M30,69.9a.08.08,0,0,0,0,0s0,0,0,0a.43.43,0,0,1,0,0s0,0,0,0m-1.91,0a.29.29,0,0,0,0,.09l0,.08h0l0-.07c0-.07,0-.11,0-.08M32,70A.11.11,0,0,0,32,70s0,0,0-.05l0,0v0m3.72,0v0s0,0,0,0a0,0,0,0,0,0,0l0,0M30,70a.08.08,0,0,0,0,.05s0,0,0,0a.43.43,0,0,1,0-.05s0,0,0,0m3.69.05v0h-.35l.07.06.14.1c.06,0,.07,0,0,.21s-.05.19.1.07.12-.11.3,0,.13.09.1,0a.41.41,0,0,1,0-.07s0,0,0,0a.41.41,0,0,0,0,.07s0,.07,0,.07a.22.22,0,0,1-.09-.07s0,0,0,0h0l-.06,0c-.06,0-.08,0-.12,0a.67.67,0,0,1-.2.13.08.08,0,0,1,0,0,1.44,1.44,0,0,0,.08-.25s0,0-.07-.08l-.11-.08,0,0a0,0,0,0,1,0,0l.15,0c.15,0,.21,0,.18-.1s0,0,0,0m-3.85,0,0,0H29.7c-.19,0-.19,0,0,.12s.12.1.12.13,0,0,0,0,0,0-.11-.13l-.09-.07,0,0h.15c.15,0,.2,0,.19-.09s0,0,0,0m2.1,0s0,.06.15,0h0c-.08,0-.11,0-.13,0s0,0,0,0m3.67,0s0,0-.18,0-.17,0-.15,0a0,0,0,0,0,0,0h0s0,0,.06.06.12.09.11.16,0,0,0,0,0-.12,0-.18a.44.44,0,0,1-.1-.08l0,0s0,0,0,0h.14c.15,0,.19,0,.17-.07s0,0,0,0m-5.58,0s0,0,.19,0h.14l0,0-.13.1c-.08,0-.1.1-.07.12s0,0,0,0a.35.35,0,0,0,0,.06s0,0,0,0a.43.43,0,0,0,0,0s0,0,0,0,0,0,0,0l-.05,0,0,0c.08.07.09.05,0-.09s-.08-.18.08-.29.16-.12,0-.12a.44.44,0,0,1-.18,0s0,0,0,0m3.86,0h.16c.14,0,.17,0,.11,0l-.05,0s0,0-.08.06-.07.06-.07.09,0,0,0,0,0,0,0-.06l.12-.09c.11-.09.11-.09-.09-.09a.54.54,0,0,0-.17,0m-6.32,0,.12.1c.13.09.13.09.12.14s0,.06,0,0-.07-.21-.2-.26,0,0,.13,0h0a.35.35,0,0,0-.16,0m.84,0s0,0-.07.07l-.09.07,0,0h0a1.05,1.05,0,0,0,.25-.18s0,0,0,0,0,0,0,0m-.21.25s0,0,0,0,0,0,0,0,0,0,0,0m5.78,0s0,0,0,0,0,0,0,0a.11.11,0,0,0,0,0s0,0,0,0m-4.26,0s0,0,0,0,0,0,0,0a.1.1,0,0,0,0,0s0,0,0,0m-2,.09c0,.13,0,.15.05.09l.12-.09.08-.06.12.09c.17.13.19.12.13,0s0-.05,0,0,0,.06-.06,0l-.11-.09-.08,0-.07,0a.63.63,0,0,0-.12.1c-.07,0-.08,0,0,0a.81.81,0,0,0,0-.09s0,0,0,.07m2.05,0c-.08.06-.12.08-.13.07s0,0,0,0,0,0,.2-.09.09-.06.14,0l.09,0a.72.72,0,0,0-.15-.11l-.13.08m5.86-.06-.08.06c-.11.08-.13.09-.13,0s0,0,0,0,0,.07.17,0a.25.25,0,0,1,.11-.07l.13.09.13.09s0-.08,0-.1,0,0,0,0,0,0,0,0l-.17-.12a.07.07,0,0,0-.11,0m-.19,0s0,0,0,.05,0,0,0,0a.08.08,0,0,0,0,0h0m-5.79.05s0,0,0,0,0,0,0,0a.1.1,0,0,0,0,0s0,0,0,0m-2.66.13c0,.07-.05.14,0,.13a.08.08,0,0,0,0,0s.05-.1.05-.06a.85.85,0,0,0,0,.15l0,.12h.32l-.05,0-.08.05-.06,0c-.06,0-.06,0,0,.18s0,.19-.13,0-.07-.06-.26.08-.09,0,0-.08,0-.12,0-.13a1.65,1.65,0,0,0-.08.26s0,0,.13-.06.14-.11.28,0,.16.1.1-.06-.06-.18.08-.28.15-.11-.05-.12h-.15l-.05-.14c0-.07-.05-.15-.06-.16s0,0,0,0m1.93,0,0,.07s0,0,0,0,0,0,0,0,0,0,.07.12l.05.14h.32l-.12.08-.12.1s.06,0,.13-.08.16-.12,0-.12h-.16l0-.11c-.06-.21-.08-.24-.09-.19m5.77,0,0,.12c-.06.21,0,.19-.21.19s-.19,0-.1.08l.12.09.06.05-.05.15c-.06.19-.06.2.05.11l.18-.12s.07,0,.14.08.16.11.1-.07-.06-.15.08-.25l.12-.1a.93.93,0,0,0-.33,0H35c.17,0,.18,0,.1.06l-.07,0-.06,0c-.06,0-.06.05,0,.21s.06.15-.09,0-.12-.1-.29,0-.11.08-.06-.08.06-.14-.08-.25L34.37,71h.15c.17,0,.2,0,.2-.11a.1.1,0,0,1,0,0s0,0,0-.09l0-.08v.05l0,0s0-.11,0-.08m-1.93,0a.14.14,0,0,0,0,.06s0,0,0,0,0,0,0,0a0,0,0,0,0,0,0s0,0,0,0m-1.93,0s0,0,0,0,0,0,.06.11,0,.16.22.17h.15l-.12.09c-.13.09-.14.1-.11.17a.21.21,0,0,0,0,.06s0,0,0,0l0-.07c0-.08,0-.08.11-.18s.15-.11,0-.11-.17,0-.24-.22c0-.06-.07-.1-.07,0m5.77,0,0,.12c0,.15,0,.15-.22.15s-.19,0,0,.12.13.09.12.14,0,0,0,0,0-.08-.1-.16-.14-.11,0-.11.16,0,.21-.15.07-.15.08-.07,0,0,0,0,0,0,0-.06,0-.07-.07,0m-3.8,0s.06.2.08.23,0,0,.17,0h.16L33.2,71c-.11.08-.16.13-.16.15s0,0,0,0a.54.54,0,0,1,.13-.11c.14-.1.13-.1-.06-.11s-.15,0-.21-.18,0-.1,0-.07m-2,0a.1.1,0,0,0,0,0s0,0,0,0,0-.06,0,0m3.94,0a.07.07,0,0,0,0,.05s0,0,0,0a.17.17,0,0,0,0-.05s0,0,0,0m-5.88,0s0,0,0,0,0,0,0,0a.1.1,0,0,0,0,0s0,0,0,0m3.85,0,0,.09,0,.07H32.6c-.15,0-.21,0-.16,0l.13.09.1.08,0,.09,0,.09s0,0,0,0a.45.45,0,0,1,0-.08c0-.07,0-.11,0-.12a1.16,1.16,0,0,1-.2-.16h.3l0-.06c0-.1,0-.14,0-.14a0,0,0,0,0,0,0m-5.8.09,0,.07h-.16c-.18,0-.18,0-.12.06a1.12,1.12,0,0,0,.21.14l-.08-.07a.41.41,0,0,1-.12-.08l0,0H27l0,0,0-.08s0,0,0,0m7.86,0a.06.06,0,0,0,0,0s0,0,0,0a.08.08,0,0,0,0,0s0,0,0,0m-5.95,0v.05h-.16c-.19,0-.19,0,0,.12s.14.1.08.25-.06.19.11.07.12-.1.28,0,.17.09.11,0,0,0,0,0v0l-.08-.06-.13-.09c-.05,0-.05,0-.18,0s-.15.1-.08-.09,0-.12-.09-.22L28.6,71h.31l0,0a.18.18,0,0,0,0-.06s0,0,0,0m1.92,0s0,0-.16,0-.19,0-.11.07l.12.09a.12.12,0,0,1,.06.07s0,0,0,0,0,0-.16-.16L30.52,71h.16c.15,0,.2,0,.17-.06s0,0,0,0m6,0s0,0,.18,0,.17,0,0,.1-.14.08-.06.31c0,0,0,0,0,0s0-.05,0-.11,0-.12.09-.21.15-.11,0-.12-.15,0-.17,0,0,0,0,0m-7.6.31s0,.07,0,0a.43.43,0,0,0,0,0s0,0,0,0m1.5.12a.23.23,0,0,0,0,.14s.17-.1.16-.12l-.07,0c-.08.06-.09,0-.05-.06a1,1,0,0,0,0-.11.39.39,0,0,0,0,.1m5.79-.06s0,0,0,0,0,0,0,0,0-.06,0,0m-3.67,0-.11.08c-.1.07-.11.07-.09,0s0,0,0,0,0,.12.11,0,.15-.1.24,0,.08.05.08,0,0,0,0,0l-.08,0c-.05,0-.05,0-.1,0m-3.59,0a.08.08,0,0,0,0,0s0,0,0,0a.43.43,0,0,1,0,0s0,0,0,0m1.65,0,0,0s0,0,0,0,.08,0,.2.06.15.09.12,0l0,0s0,0,0,0,0,.05,0,.05a1.15,1.15,0,0,1-.19-.14s-.09,0-.12,0m2.21,0a.24.24,0,0,0,0,.08s0,0,0,0l0,0,0,0c.07.06.08,0,0-.08s0-.06,0,0m3.55,0-.1.08c-.08,0-.08,0-.07,0s0,0,0,0,0,.11,0,.11l.12-.08.14-.09a.42.42,0,0,1,.14.09c.14.1.17.11.13,0s0,0,0,0,0,0-.13-.05-.14-.09-.2,0M30,71.45a.19.19,0,0,0,0,.07.26.26,0,0,0,0,.09l0,.08s0,0,0,0a.54.54,0,0,0,.06-.13c0-.07,0-.1,0-.08a.08.08,0,0,0,0,0s0,0,0-.08,0,0,0,0m-1.94,0s0,0,0,0,0,0,0,0,0,0,0,0a0,0,0,0,0,0,0s0,0-.05,0m3.84,0c-.05.14-.05.15,0,.13s0,0,0,0a.07.07,0,0,1,0,0s0,0,0,0,0,0,.05,0,0,0,0,0a.24.24,0,0,0-.05-.14s0,0,0,.07m1.92,0,0,.09s0,0,0,0,0-.1.06,0,0,.09,0,.08a.49.49,0,0,0-.07-.19s0,0,0,.07m1.94,0s0,0,0,0,0,0,0,0,0,0,0,0h0m-7.65,0a.43.43,0,0,0,0,0s0,0,0,0l0,0s0,0,0,0m7.71,0s0,0,0,0a.05.05,0,0,1,0,0,.13.13,0,0,0,0,.06.11.11,0,0,1,0,0s0,0,.15,0,.18,0,.12,0l-.09.07L36,72s0,0,.17-.11.1-.09-.09-.09h-.16l0-.07c0-.11-.06-.17-.06-.13m-7.79,0,0,.09,0,.06H27.8c-.2,0-.2,0,0,.15s.09,0,0,0-.11-.09.06-.09a.32.32,0,0,0,.15,0,.54.54,0,0,0,.06-.18s0,0,0,0m2,0a.08.08,0,0,0,0,0s0,0,0,0a.43.43,0,0,1,0,0s0,0,0,0m5.67,0a.11.11,0,0,1,0,0s0,0,0,0a0,0,0,0,0,0,0s0,0,0,0m-7.57.07c0,.11,0,.12.2.12s.18,0,0,.12-.11.12-.05.2,0,0,0-.09,0,0,.11-.11.18-.14,0-.14H28.2l0,0c0-.1-.05-.11,0,0m3.84,0a.17.17,0,0,0,0,.05s0,0,0,0a.07.07,0,0,0,0-.05s0,0,0,0m1.78,0v0s0,0,0,0,0,0,0,0,0,0,0,0m-3.69,0a.39.39,0,0,0,0,.06l0,0h.15c.19,0,.19,0,0,.12s-.11.09-.08.17l0,.07a0,0,0,0,0,0,0s0,0,0-.08,0-.11.05-.16.21-.16,0-.16h-.16l0,0,0,0m3.85,0c0,.08,0,.09.19.09s.18,0,0,.11S34,72,34,72s0,0,0,0,0-.07.13-.13.15-.12,0-.12H34l0,0s0,0,0,0m-2.1,0s0,0-.18,0-.19,0-.09.08.08,0,.08.06l.06,0s0,0,0,.08,0,0,0,0,0-.11,0-.11a1.24,1.24,0,0,1-.18-.14.42.42,0,0,1,.15,0c.15,0,.18,0,.17-.07s0,0,0,0m3.86,0s0,0,0,0,0,0-.17,0a.41.41,0,0,0-.17,0,1.09,1.09,0,0,0,.2.16s.06.06,0,.16l0,.08s0,0,.07-.17,0,0-.12-.13l-.13-.09h.16c.15,0,.16,0,.17,0s0-.06,0,0m-3.67,0s0,0,.19,0,.16,0,0,.1-.14.09-.09.24,0,.17,0,.13L32,72.15l-.09-.06-.05,0-.12.09c-.08.06-.09.05-.05-.06l0-.09s0,0,0,.07-.05.16,0,.16a1.4,1.4,0,0,0,.23-.16s0,0,.23.11.09,0,0-.12,0-.15.05-.22.2-.15,0-.15-.17,0-.18,0,0,0,0,0m-2.12,0s-.05,0-.17,0-.2,0,0,.12.14.1.11.17,0,0,0,.06a.32.32,0,0,0,0-.06c0-.07,0-.08-.15-.2l-.08-.06h.15c.14,0,.19,0,.17,0s0,0,0,0m3.85,0s-.05,0-.17,0-.2,0,0,.12l.14.12s0,0,0,0,0,0-.06-.06l-.06-.06-.06,0c-.08,0-.06-.06.09-.06s.19,0,.16,0,0,0,0,0m-5.89.38c-.07.19-.06.2.1.09l.12-.1.07.05.13.1c.07,0,.11,0,.08,0s0,0,0,0,0,0-.13-.06-.15-.09-.19,0l-.06.05-.08.06c-.05.05-.06,0,0-.13a.43.43,0,0,0,0-.14.37.37,0,0,0,0,.14M36,72a.07.07,0,0,0,0,0s0,0,0,0A.11.11,0,0,0,36,72s0,0,0,0m-2.32,0a1.28,1.28,0,0,1,0,.13c0,.14,0,.15.12,0l.13-.09.08.06c.2.15.19.15.19.12a.79.79,0,0,0-.07-.23.2.2,0,0,0,0,.08c0,.1,0,.14,0,.11l-.12-.09-.09-.06-.07,0c-.2.15-.2.15-.19.12a1.37,1.37,0,0,0,.07-.24s0,0,0,0M30,72.12l-.13.09c-.09.06-.1.06-.09,0s0,0,0,0,0,.07.13,0l.13-.1.06.05.13.09s.07.05.08,0,0,0,0,0a.56.56,0,0,1-.14-.09L30,72.09l0,0m5.75,0s0,0,0,0l0,0s.05,0,.19.07l.12.08s0-.08,0-.09,0,0,0,0v0l-.06,0c-.2-.16-.2-.16-.27-.11m.28,0s0,.08,0,0a.08.08,0,0,0,0,0h0m-7.69,0a.43.43,0,0,0,0,.05s0,0,0,0a.17.17,0,0,0,0-.05s0,0,0,0m1.46,0s0,0,0,0a0,0,0,0,0,0,0,.11.11,0,0,0,0,0s0,0,0,0m8,0s0,.27,0,.58a3,3,0,0,0,0,.56,5.3,5.3,0,0,0,0-.57v-.56h0m-7.47,0s0,0,0,0,0,0,0,0,0,0,0,0m5.35,0-.05,0v0s0,0,0,0,0,.07.08,0l.07-.06-.07,0m-8.49.07a1.51,1.51,0,0,0-.06.15c0,.14,0,.13-.22.13H26.7s0,0,0,.06l.06,0,.13.09-.11-.09-.12-.09h.15c.17,0,.16,0,.22-.17s.07-.17.07-.12a1.17,1.17,0,0,0,.08.25s0,0,.16,0,.16,0,.07.08l-.12.08,0,0,0,.08s0,.09,0,.11,0,.1-.1,0-.16-.1-.33.06-.07,0,0-.07a.26.26,0,0,0,0-.07s0,0,0,0a.34.34,0,0,0,0,.08c0,.13,0,.13.13,0l.12-.1.05,0,.08,0a.77.77,0,0,0,.15.11s0,0,0-.16-.05-.16.06-.24.15-.12.14-.13a.36.36,0,0,0-.15,0h-.16a.39.39,0,0,1-.07-.15c-.06-.17-.05-.17-.08-.12m1.92,0c0,.06,0,.07,0,0l0,0,0,0,.05.15,0,.12h.31l-.08.06-.13.09,0,0,.05.14c0,.17,0,.17-.05.1s-.17-.14-.38,0c0,0-.07,0,0,0l0,0a1.28,1.28,0,0,1,0-.13l0-.1-.07,0-.13-.09-.05,0h.15a.42.42,0,0,0,.15,0h-.15c-.2,0-.21,0-.05.12s.13.1.07.27,0,.17.11.06.12-.11.27,0,.16.1.1-.08-.07-.14.1-.26.12-.11-.06-.11-.17,0-.2-.13-.08-.21-.1-.13m3.85,0s0,.08,0,0,0,0,.06.11.05.15.22.16h.15l-.12.09a.44.44,0,0,0-.12.11s0,0,0,0l.13-.11c.15-.11.15-.12,0-.12s-.16,0-.22-.16-.05-.17-.08-.11m1.93,0,0,.14c0,.14,0,.14-.21.14s-.19,0,0,.12l.13.1a1.07,1.07,0,0,1-.05.16c-.06.18-.06.18.07.09l.13-.09s0,0,.15,0,.11.08.11.07L35,73c-.15-.11-.14-.11-.19-.07-.24.17-.22.18-.16,0s0-.12,0-.13l-.13-.09-.09-.07h.14c.18,0,.17,0,.23-.21l0-.11,0,0s0,0,0,0,0-.09-.06,0m-3.86,0s0,0,0,0,0,0,0,.07c.06.22.06.21.24.21s.16,0,0,.1-.13.1-.1.15,0,0,0,0,0-.06.15-.16.12-.11-.09-.1-.14,0-.19-.16-.09-.19-.09-.12m5.74.12c0,.17,0,.16-.21.16s-.15,0-.16,0,0,0,0,0,.06,0,.15,0,.15,0,.2-.17.05-.11.06-.11,0,0,0,0-.05,0-.09.12m-5.76,0s0,0,0,0,0,0,0,0v0s0,0,0,0m5.85,0a.06.06,0,0,0,0,0s0,0,0,0a.08.08,0,0,0,0,0s0,0,0,0m-3.94.06s0,0,0,0l0,0v-.05l0,0m2,0a.07.07,0,0,0,0,0s0,0,0,0l0,0s0,0,0,0m-4,.07a0,0,0,0,0,0,0,0,0,0,0,0,0,0,.1.1,0,0,0,0,0s0,0,0,0m5.91,0a.2.2,0,0,0,0,.08l0,.06h.3l0,0,0,0,0,0c.08,0,0-.07-.13-.06s-.15,0-.19-.09,0,0,0,0m-4,.06c0,.06,0,.06-.18.06s-.19,0-.15,0,0,0,0,0,0,0,.15,0,.21,0,.18-.11,0,0,0,0m2.09,0c0,.08,0,.08.19.08s.14,0,.14,0,0,0,0,0,0,0-.12,0-.2,0-.2,0a.08.08,0,0,0,0-.05s0,0,0,0m-4,0a.23.23,0,0,1-.14,0c-.22,0-.22,0-.06.13s.14.09.08.26,0,.19.07.1.17-.13.21-.1a1.08,1.08,0,0,0,.22.15s0,0,0,0,0-.1,0,0v0l-.07,0L31,73c-.06,0-.06,0-.19,0s-.15.08-.11,0a1,1,0,0,1,0-.11s0-.07,0-.08,0-.06-.12-.14l-.12-.09h.15c.11,0,.15,0,.17,0s0,0,0,0m1.66.09s.05,0,.1.08.1.06,0,.21,0,.2,0,.17l.14-.1.11-.07L33,73c.16.12.16.11.11,0l0-.12s0,.06,0,.11,0,.13-.09,0-.13-.1-.19,0a.59.59,0,0,1-.19.12l0-.13c0-.16,0-.16,0-.23s-.13-.09-.12-.07m2.59.06c-.12.08-.12.08-.06.26s0,.12,0,.12,0,0,0,0,0,0,0-.15-.07-.16,0-.24.11-.07.1-.08l-.11.07m1.26-.07a.23.23,0,0,0,.1.08c.09.07.09.07.09.12s0,0,0,0a.06.06,0,0,0,0-.06,1.46,1.46,0,0,0-.2-.15m.64.08a.28.28,0,0,0-.08.08A1,1,0,0,0,37,73s0,.07,0,.07h0L36.88,73a.38.38,0,0,1-.09-.08s-.07,0-.11,0l-.12.09-.07,0V73c0-.07,0,0,0,0s0,.07.14,0,.12-.11.25,0,.19.14.12-.06-.06-.16,0-.22.09-.06.08-.07l-.09,0m-10.08.12a.06.06,0,0,0,0,0s0,0,0,0,0-.06,0,0m4.25.07a.08.08,0,0,0,0,0s0,0,0,0a.06.06,0,0,0,0,0s0,0,0,0m5.35,0a.1.1,0,0,0,0,0s0,0,0,0,0,0,0,0,0,0,0,0m-2.67.14s0,.08-.05.16l0,.16h-.17c-.2,0-.2,0,0,.14a.58.58,0,0,1,.11.1s0,0,0,0,0-.06-.12-.11-.14-.11,0-.11.16,0,.2-.15l0-.11,0,0,0,.07c0,.09,0,.14.06.19l0,0h.15c.19,0,.19,0,0,.14a.15.15,0,0,0-.07.07,1.44,1.44,0,0,0,.08.25.08.08,0,0,1,0,0l-.07,0a1.11,1.11,0,0,0-.18-.12l0,0,.13.09c.11.08.12.07.06-.1s-.06-.15,0-.23.21-.14,0-.15H34l0-.1a.39.39,0,0,0,0-.13s0,0,0,0,0,0,0,0m-5.8.06a.23.23,0,0,0,0,.07s0,0,0,0,0-.05,0-.05a0,0,0,0,0,0,0s0,0-.05,0m1.95,0a.67.67,0,0,0-.06.15l0,.15h-.16c-.21,0-.21,0,0,.16,0,0,.08.07.08.09v0s0-.05-.1-.12-.16-.11,0-.11h.15l0,0,0-.08a.62.62,0,0,0,0-.1s0-.06,0,0l0,0s0-.09,0-.07m1.93,0a.71.71,0,0,0-.07.15l0,.14h-.16c-.12,0-.17,0-.16,0a1,1,0,0,0,.25.19l-.11-.09c-.15-.1-.15-.1,0-.11h.15l.05-.13c.05-.16.06-.16.09,0s0,.09,0,.08-.06-.22-.08-.21m3.83,0s0,0,0,0a.08.08,0,0,1,0,0,.08.08,0,0,0,0,0,.62.62,0,0,1,0,.1l0,.08H36c.18,0,.19,0,.08.1s-.15.11-.13.11a1.59,1.59,0,0,0,.24-.2s0,0-.16,0-.17,0-.17,0a1.14,1.14,0,0,0-.09-.26s0,0,0,0m-7.66,0s0,.07,0,.14l0,.11h.32l0,0,0,0,.05,0c.08-.06.06-.07-.12-.07H28.2l-.05-.13c0-.12,0-.15,0-.11m7.64,0a.13.13,0,0,0,0,0s0,0,0,0,0,0,0,0a0,0,0,0,0,0,0m-5.7,0a.08.08,0,0,0,0,0s0,0,0,0a.43.43,0,0,1,0,0s0,0,0,0m-2,0a.45.45,0,0,0,0,.08l0,.07h-.16c-.21,0-.22,0,0,.13s.12.08.09.18,0,.1,0,.1,0,0,0,0l0-.1s0-.06-.08-.12-.18-.12,0-.13H28l0-.08c0-.07,0-.12,0-.08m7.69,0a.1.1,0,0,0,0,0s0,0,0,0,0,0,0,0,0,0,0,0m-5.64,0,0,.07v.06h.16c.12,0,.15,0,.15,0s0,0,0,0,0,0-.16,0h-.16v-.06s0-.08,0,0m1.94.07s0,.06.18.06.17,0,0,.11-.13.08-.08.23,0,.19,0,.15a1.11,1.11,0,0,0-.24-.16.42.42,0,0,0-.14.09c-.12.09-.13.09-.09,0s0-.07,0-.08a0,0,0,0,0,0,0,.19.19,0,0,0,0,.07s0,.11,0,.11a.44.44,0,0,0,.11-.08s0,0,0,0l.06,0c.07-.06.11,0,.23.07s.13.07.1,0-.08-.22,0-.25l.07,0,.08-.06c.11-.07.09-.09-.09-.09s-.16,0-.18,0,0,0,0,0m3.67,0s0,0-.17,0-.21,0-.09.09l.13.1.05,0-.05.15c-.06.17,0,.2.07.1s.16-.13.29,0l.13.09s0-.09,0-.1,0,0,0,0v.05l-.12-.09a.42.42,0,0,0-.14-.09,1.11,1.11,0,0,0-.24.16s0,0,0-.16,0-.13-.1-.24-.12-.09.05-.09.19,0,.17-.07,0,0,0,0m6.39,0c2.39,0,6.3,0,8.69,0H42.07m-11.8.19c-.09.07-.12.12-.08.15s0,0,0,0,0,0,.09-.11l.1-.08s0,0-.12.07m-1.94,0c-.06,0-.08.07-.07.09s.06.19.06.17,0-.05,0-.1l0-.09,0,0,.08-.06,0,0s0,0-.09,0m3.4.09s0,.07,0,0a.07.07,0,0,0,0,0s0,0,0,0m4.23,0s0,0,0,0,0,0,0,0,0,0,0,0m-2.34.13c0,.13,0,.14,0,.14a1.13,1.13,0,0,0,.24-.17.8.8,0,0,0-.18.12l-.07,0a.08.08,0,0,1,0,0,.49.49,0,0,0,.06-.2l0,.11m-3.85,0s0,.08,0,.09l0-.07,0-.09s0,0,0,.07m.44,0a.29.29,0,0,0,0,.09c.05.11,0,.11-.09,0s-.17-.1-.21,0l0,0,0,0c.05,0,.07,0,.17,0l.1.07a0,0,0,0,1,0,0h0s0,0,0-.12,0-.12,0-.08m5.78,0s0,0,0,.05l0,0v0a.11.11,0,0,0,0-.05s0,0,0,0m-8,0-.07.05-.11.07,0,0v-.05s0,0,0,0,0,.09,0,.09l.11-.08s0,0,0,0l.07,0c.06,0,.08,0,.13,0l.19.14s0,0,0-.08,0,0,0,0,0,.06,0,0-.26-.18-.27-.14m1.79.09c-.06,0-.07.06-.08,0s0,0,0,0,0,0,.13,0,.05-.06,0,0m1.13.1s0,.06,0,.07l0,0c0-.07,0-.06.07.1l.05.15h.15c.18,0,.18,0,0,.11a.6.6,0,0,0-.11.1h0l.13-.1c.15-.11.15-.11,0-.11s-.17,0-.23-.2-.06-.14-.08-.07M27.1,74c0,.1,0,.14,0,.13s0,0,0-.09.05-.08.06,0,0,0,0,0,0-.14-.05-.14,0,0,0,.06m1.93,0A.24.24,0,0,0,29,74v0l0,0,0-.07,0,0v0a.43.43,0,0,0,0,0,.11.11,0,0,1,0,.06l0,0a.6.6,0,0,0-.06-.19s0,0,0,0m3.85,0s0,0,0,0,0,.06.08.18,0,.1.19.1.14,0,.14,0h0a0,0,0,0,0,0,0h0c.07-.05,0-.06-.11-.06s-.19,0-.19,0a.76.76,0,0,0-.1-.27,0,0,0,0,0,0,0m1.93,0s0,.08-.05.14,0,.14-.21.14-.19,0-.06.09.17.11.11.27a.63.63,0,0,0,0,.12.36.36,0,0,0,0-.12c.05-.16.05-.16-.08-.25s-.14-.1,0-.1.16,0,.22-.16a.55.55,0,0,1,.05-.12s0,0,0,0,0,0,0,0m1.93,0a.17.17,0,0,1,0,0s0,0,0,.08l0,.11,0,0h-.17c-.19,0-.19,0,0,.12l.13.09a1,1,0,0,1,0,.11.63.63,0,0,0,0,.12.69.69,0,0,0,.07-.23.48.48,0,0,0-.12-.1c-.13-.09-.12-.1,0-.1s.15,0,.19-.13l0-.12,0,0,0,0s0,0,0,0,0-.08,0-.08,0,0,0,0m-1.88,0a2,2,0,0,0,.07.23s0,0,.16,0,.18,0,0,.11-.11.09-.11.11,0,0,0,0a.58.58,0,0,1,.13-.11c.17-.12.17-.12,0-.12s-.18,0-.22-.13,0-.14,0-.12m-2,0a0,0,0,0,0,0,0s0,0,0,0,0-.06,0,0m3.94,0a.43.43,0,0,0,0,0s0,0,0,0a.17.17,0,0,0,0,0s0,0,0,0m-5.88,0a0,0,0,0,0,0,0l0,0v0s0,0,0,0m-3.72,0a.06.06,0,0,0,0,0s0,0,0,0a.08.08,0,0,0,0,0s0,0,0,0m5.62,0,0,.07h-.16c-.19,0-.19,0,0,.11s.14.09.09.25,0,.21.09.09l.09-.07,0,0,.1.07.11.08,0,0-.11-.09c-.16-.11-.13-.11-.27,0a.7.7,0,0,1-.12.08,1.22,1.22,0,0,1,.07-.25s0,0-.12-.14-.12-.1,0-.1.15,0,.18-.09,0-.07,0,0m4,0c0,.08,0,.08.18.08s.17,0,0,.1-.14.09-.08.26.05.16-.09.05-.12-.1-.26,0-.14.1-.13.06,0,0,0,0,0,.06.06,0l.13-.1c.09-.06.08-.06.23.06s.14.08.09-.09-.07-.15.07-.25.16-.12,0-.12-.19,0-.19,0a.08.08,0,0,0,0,0s0,0,0,0m-9.81,0v0h-.16c-.16,0-.19,0-.12.06h0a0,0,0,0,0,0,0h0s.06,0,.14,0,.19,0,.18-.08,0,0,0,0m2.11,0c0,.07,0,.08.18.08s.17,0,0,.11-.13.08-.09.19,0,.06,0,0,0-.13.09-.22.17-.12,0-.12h-.16l0,0s0,0,0,0m1.74,0v0h-.16c-.15,0-.16,0-.15,0s0,0,0,0a.35.35,0,0,1,.16,0h.15l0,0a.18.18,0,0,0,0-.06s0,0,0,0m-3.65,0s0,0,.18,0,.15,0,0,.1l-.12.09a.8.8,0,0,0,0,.15c.06.17.06.17-.08.07s-.14-.1-.16-.07,0,0,0,0,.06,0,.1,0l.18.13s0,0,0-.18-.06-.13.08-.23.16-.12,0-.12-.16,0-.18,0,0,0,0,0m1.71,0a.37.37,0,0,1-.17,0c-.19,0-.18,0,.11.21l-.05.14c-.07.21,0,.22.11.08l0,0c-.09.06-.11.06-.09,0s.09-.24.07-.25a.4.4,0,0,0-.11-.09c-.13-.09-.13-.1,0-.1s.18,0,.17,0,0,0,0,0m-2.15.11a.32.32,0,0,0,.08.06c.06,0,.07.06.07.1s0,0,0,0,0-.07-.05-.12-.12-.08-.11-.06m3.85,0,.08.06c.08.06.08.06,0,.18s-.07.23.09.11.13-.1.28,0,.13.09.13.07a.76.76,0,0,0-.05-.16s0,0,0,.07,0,.09-.11,0L31,74.53l-.12.09c-.13.1-.13.1-.11,0a.58.58,0,0,0,0-.1s0,0,0,0,0-.1-.07-.16-.08-.06-.08,0m2.53,0c-.09.06-.1.09-.07.13s0,0,0,0,0,0,0-.07l.13-.1a.29.29,0,0,0-.1.06m-2,.13s0,0,0,0,0,0,0,0,0,0,0,0m3.86,0a.63.63,0,0,0,0,.12c0,.08,0,.15,0,.1a1.6,1.6,0,0,0-.23-.16l-.12.09a.42.42,0,0,1-.13.08s0,0,0,0,0,0,.15-.09.11-.09.27,0,.13.09.13.06a1.72,1.72,0,0,0-.09-.25m-8.11,0a.07.07,0,0,0,0,0s0,0,0,0,0,0,0,0m6.19,0a.17.17,0,0,0,0,0s0,0,0,0a.07.07,0,0,0,0,0s0,0,0,0m4.6,0a11.17,11.17,0,0,0,0,1.16,5.29,5.29,0,0,0,0-.58v-.57h0m-8.7.06s0,0,0,0h.06s0,0,0,0-.05,0-.08,0m-2,.06c-.11.09-.12.09-.1,0s0-.06,0-.05a.34.34,0,0,0,0,.13,1.37,1.37,0,0,0,.21-.15s0,0-.09,0m2.13,0a1.37,1.37,0,0,0,.21.15s0-.11,0-.13,0,0,0,.05,0,.07-.1,0-.11-.07-.09,0m4,0s0,0,0,0v0s0,0,0,0,0,0,0,0m-5.09.12a.21.21,0,0,0,0,.06s0,0,0,0,0,0,.07.1,0,.16.22.16h.15l-.12.09-.13.09v.06a.24.24,0,0,0,0,.07s0,0,0-.08,0-.06.15-.15.12-.1-.07-.1h-.16l-.05-.16c-.05-.17-.05-.17-.08-.13m1.88.13-.06.17h-.15c-.19,0-.2,0,0,.12l.12.1a.65.65,0,0,1,0,.1c0,.06,0,.1,0,.11a1.44,1.44,0,0,0,.07-.22s0,0,0,0l-.13-.08-.1-.08h.31l0-.05a.41.41,0,0,0,0-.07.17.17,0,0,1,0,0A.68.68,0,0,0,30,74.7a.46.46,0,0,0-.06.16m3.89-.12c0,.06,0,.14,0,.12s0,0,0,0a.11.11,0,0,1,0-.06s0,0,0,0,0,0,0,0,0,0,0,0,0-.07-.05,0m1.92,0s0,.06,0,.06,0,0,0,0,0,0,.08.11.05.14.07.14h.32a.32.32,0,0,0-.15,0c-.18,0-.18,0-.23-.15s-.07-.19-.09-.11m-3.86,0s0,.09,0,.1,0,0,0,0,0,0,0-.08.05-.1.07,0,0,0,0,0a.24.24,0,0,0-.05-.13s0,0,0,.07m-1.88,0s0,.07,0,0,0,0,0,0,0,0,0,0m-2,.09C28,75,28,75,27.79,75s-.17,0-.1.06,0,0,0,0l0,0s0,0,.11,0A.37.37,0,0,0,28,75a.58.58,0,0,0,.06-.19s0,0,0,0m2,0,0,0s0,0,0,0a.43.43,0,0,0,0,0s0,0,0,0m3.85,0A.48.48,0,0,0,34,75a.42.42,0,0,0,.16,0h.15l-.11.07-.1.08a.92.92,0,0,0,.2-.14c.05,0,0,0-.13,0H34l0-.1c0-.06,0-.09,0-.08m1.82,0a.1.1,0,0,0,0,0s0,0,0,0,0,0,0,0,0,0,0,0m-2,.08,0,.07h-.31s.08.09.21.17,0,0-.09-.08L33.43,75h.3a.18.18,0,0,0,.05-.13s0,0,0,0m-3.68,0c0,.07,0,.08.2.08h.15l-.13.09c-.12.08-.16.15-.11.18s0,0,0,0,0,0,.12-.13.15-.12,0-.12-.19,0-.19,0,0,0,0,0,0,0,0,0m1.75,0c0,.05,0,.06-.19.06s-.18,0-.06.09.16.12.15.17,0,0,0,0,0-.07-.07-.13l-.08-.06-.05,0s0,0,.11,0a.41.41,0,0,0,.17,0s0-.09,0-.09,0,0,0,0m3.84,0,0,0h-.16a.35.35,0,0,0-.16,0h.16c.17,0,.23,0,.2-.1l0,0M32,75s0,.06.19.06h.15l-.11.08c-.16.11-.17.13-.07.34s0,.07-.11,0-.13-.1-.18-.07,0,0,0,0,0,0,.11,0,.2.15.14,0,0-.16.09-.26.15-.11,0-.11-.15,0-.17,0,0,0,0,0m3.36.09a.92.92,0,0,0,.19.13s0,0-.08-.07l-.09-.06v0s0,0,0,0m.78,0-.11.08-.08.07s0,0,.1-.06l.12-.1h0m-8.37.07.07.06,0,0,0,.13c-.07.22-.07.22.1.1s.12-.1.26,0,.15.1.15.06,0-.08,0,0,0,0-.13,0-.12-.1-.26,0-.13.1-.08,0,.05-.18,0-.23-.11-.07-.06,0m6.25.09s0,0,0,0,0,0,0,0,0-.07,0,0m1.55,0a1,1,0,0,1,0,.11s0,.08,0,.08l0,0,0-.1a.08.08,0,0,0,0-.07s0,0,0,0m-1.93,0c0,.09-.06.19-.06.2s0,0,0,0l0-.12c0-.1,0-.15,0-.07m2.31,0s0,.07,0,0,0,0,0,0,0,0,0,0m-1.91.07c.07.19.07.19,0,.11s-.08,0-.07,0a1,1,0,0,0,.2.13,1,1,0,0,0-.07-.23s0,0,0,0m-3.84,0a.43.43,0,0,0,0,.05c.06.12,0,.13-.09,0a.42.42,0,0,0-.13-.08l-.12.08c-.12.08-.13.08-.13,0s0,0,0,0,0,.08.05,0c.23-.18.21-.17.36-.06s.16.1.11,0,0-.1,0-.08m1.49,0s0,0,0,0,0,0,0,0,0-.06,0,0m2.14,0,0,0s0,0,0,0-.06,0-.07,0m1.87,0-.11.07c-.06,0-.09,0-.07,0s0,0,0,0,0,.11,0,.11h0a2,2,0,0,1,.23-.17s0,0,0,0l-.06,0m.28,0a.45.45,0,0,0,0,.08c0,.09,0,.09-.08,0s-.17-.11,0,0,.14.08.1,0,0-.1,0-.07m-2.29.08c-.07.06-.11.07-.11.06s0,0,0,0,0,0,0,0a1.31,1.31,0,0,0,.24-.17s0,0-.12.07m-1.93,0c-.09.07-.11.07-.09,0a.1.1,0,0,0,0,0s0,.08,0,.1.05,0,.19-.1h0s0,0-.07,0m-2.75.1a.11.11,0,0,0,0,0s0,0,0,0l0,0,0,0c0,.07.05.13.06.18s0,0,0,0a.92.92,0,0,0-.08-.27s0,0,0,0m1.92,0,0,0a.51.51,0,0,1,0,.1l0,.1a.11.11,0,0,0,0,0s0,0,.18,0h.17l-.14.09c-.13.1-.15.14-.11.2s0,0,0,0,0-.06.12-.15.16-.13,0-.13h-.17l0-.11c-.06-.17-.1-.25-.1-.18m1.93,0a.08.08,0,0,0,0,0s0,0,0,0,0,0,0,0,0,0,0,0a0,0,0,0,0-.05,0m1.88.13,0,.15h-.17c-.2,0-.2,0-.06.11a.73.73,0,0,1,.14.11h0a.6.6,0,0,0-.13-.11l-.13-.09h.33l0-.13c.05-.16.06-.17.07-.1s0,0,0,0,0-.11,0-.11l-.06.15m2-.13,0,.15,0,.13h-.17c-.19,0-.19,0-.07.1l.13.09,0,0,0,.11a.31.31,0,0,0,0,.12s0,0,0-.1l0-.13,0,0-.14-.1-.09-.06h.17c.19,0,.17,0,.22-.17s0-.12.06-.1,0,0,0,0-.05-.07-.05,0m-9.67.14,0,.14h-.16c-.2,0-.21,0-.12.08l.07,0s0,0-.06,0l-.06,0H27l0-.11a.58.58,0,0,0,0-.13s0,0,.05,0,0,0,0,0,0-.12-.05-.12a.49.49,0,0,0-.06.15m5.87-.07a.49.49,0,0,0,0,.12l0,.1h.34l-.14.09c-.1.08-.13.11-.12.13a.74.74,0,0,1,.07.26s0,0,0,0,0,0,0-.13-.06-.17.07-.27.16-.12,0-.13H33l0-.1c0-.12,0-.14,0-.11m-.09,0v0a.11.11,0,0,0,0,0v0l0,0m3.94,0a.06.06,0,0,0,0,0s0,0,0,0a.08.08,0,0,0,0,0s0,0,0,0m-7.79,0a0,0,0,0,0,0,0,0,0,0,0,0,0,0,.08.08,0,0,0,0,0s0,0,0,0m5.89,0a.47.47,0,0,0,0,.09l0,0h.34l-.13.09c-.13.09-.17.15-.12.2a.31.31,0,0,1,0,.07s0,0,0,0a.17.17,0,0,0,0-.07c0-.11,0-.12.11-.22s.15-.12,0-.12h-.17l0-.08c0-.09,0-.11,0,0m-7.7,0a.33.33,0,0,0,0,.15h.33l-.08.06-.13.1-.06,0,0,.12c.06.18.06.19-.07.09s-.14-.1-.27,0-.13.09-.1,0,0-.09,0-.08,0,0,0,0a.08.08,0,0,1,0,0,.39.39,0,0,1,0,.06c0,.06,0,0,.14,0s.16-.09.3,0,.12.08.12.06a1.28,1.28,0,0,0,0-.13c-.07-.2-.07-.18.07-.28s.16-.12,0-.12h-.16l0-.08,0-.06m3.72,0s0,0,0,0,0,0,0,0a.1.1,0,0,0,0,0s0,0,0,0m5.91,0v0s0,0,0,0a.08.08,0,0,0,0,0s0,0,0,0m-7.85,0s0,0,0,0a0,0,0,0,0,0,0,.06.06,0,0,0,0,0s0,0,0,0m3.85,0,0,0h-.16c-.21,0-.21,0,0,.13s.14.08.09.24-.07.21.09.09.13-.11.25,0,.13.08,0,0-.12-.09-.26,0l-.12.08a1.33,1.33,0,0,1,.08-.24s0-.07-.1-.14l-.12-.09,0,0h.16c.17,0,.19,0,.2-.08s0,0,0,0m-1.94,0s0,0-.17,0-.2,0,0,.12.13.1.1.19,0,0,0,0,0-.11-.1-.21l-.13-.1h.16c.16,0,.21,0,.19-.06s0,0,0,0m6,0s0,0,.16,0h.17l-.11.08c-.17.11-.16.1-.11.26s0,.16,0,.15h0a0,0,0,0,0,0,0s0,0,0-.18-.07-.12.11-.25.13-.11-.07-.11a.5.5,0,0,1-.17,0h0m-8.24,0s0,0,0,.05.05,0,.05,0l0,0s0,0,.13,0H28.6m.7,0h.18l-.12.09c-.14.09-.14.1-.14.15s0,0,0,0,.06-.08.2-.17.07-.08-.13-.07h0m-.57.11.08.07.05,0-.05.14c-.06.18,0,.19.09.09s.13-.11.27,0,.16.11.14.06a.56.56,0,0,1,0-.07l0,0s0,0,0,0l0,.06s0,0-.18-.09-.09,0-.19,0-.17.12-.13.06.09-.26,0-.34-.06,0,0,0m-1.86,0c.05,0,.05.06.05.11v0l0,0a.13.13,0,0,0-.09-.14s0,0,0,0m7.74.12a.11.11,0,0,0,0,0s0,0,0,0,0,0,0,0,0,0,0,0m-5.38,0s0,.07,0,0a.43.43,0,0,0,0-.05s0,0,0,0m1.94,0a.08.08,0,0,0,0,0s0,0,0,0a.06.06,0,0,0,0,0s0,0,0,0m-.46.08c0,.13,0,.13.11,0s.14-.1.27,0,.19.1.13,0,0,0,0,0v0l-.09-.07L31,76.2s-.07,0-.18.06-.13.09-.1,0,0-.06,0-.07a.24.24,0,0,0,0,.08m3.86,0v0s0,0,0,0,0,0,0,0l0,0m.1,0c-.13.1-.12.1-.11,0s0,0,0,0,0,.08,0,.08l0,0a1.14,1.14,0,0,1,.23-.15l.13.09q.19.15.12,0s0,0,0,0,0,0-.12,0-.13-.09-.27,0m2,0-.11.08s-.06,0-.08,0h0s0,0,.15,0l.13-.09a.59.59,0,0,1,.19.13h0s-.17-.15-.2-.15a.11.11,0,0,0-.07,0M29,76.85c1.61,0,4.25,0,5.87,0H29m9,0a.06.06,0,0,0,.06,0H38m4.44,0c2.33,0,6.13,0,8.45,0H42.43M33.35,78H47.86c4,0,.72,0-7.26,0s-11.24,0-7.25,0m0,1.19h0m0,1.16h0m0,1.19h0" transform="translate(0 0)"/><path id="path4" class="cls-6" d="M30.91,69s0,0,0,0,0,0,0,0,0,0,0,0-.06,0-.06,0m5.78,0s0,0,0,0,0,0,0,0,0,0,0,0,0-.06-.06,0M31,69.05a.08.08,0,0,0,0,0s0,0,0,0a.06.06,0,0,0,0,0s0,0,0,0m-2.4.24a0,0,0,0,0,0,0l0,0s0,0,0,0,0,0,0,0,0,0,0,0,0,0,0,0m5.81,0a.92.92,0,0,0,.19.13s0,0-.1-.08l-.09,0m-1.21.07-.05,0,.06,0,0,0-.06,0m-.61,0,.08.06,0,0s-.11-.1-.13-.1l0,0m2.49,0,0,0,.06,0,0,0-.06,0m1.92,0,0,0,0,0c.07,0,.07,0,.05,0l-.06,0m-5.8,0s-.05,0,0,.05l.06-.05c.06-.06,0-.06,0,0m-4.3,0a0,0,0,0,1,0,0s0,0,0,0,0,0,0,0,0,0,0,0m2.35,0s0,0,0,.06,0,0,0,0,0,0,0,0,0,0,0,0l0,0m3.43,0a.06.06,0,0,0,0,0s0,0,0,0,0-.06,0,0m1.91,0s0,.1,0,.09,0-.1,0-.1h0m.14.11c-.09.07-.11.09,0,0l.08-.06s0,0-.06,0m2,0s.15.11.16.1l-.08-.06s-.08,0-.08,0m-1.87,0s0,0,.06,0l0,0s-.1-.09-.1-.08m-3.81,0s.1.08.1.07l-.06-.05,0,0m1.53,0a.14.14,0,0,0,0,.09s0,0,0-.06,0-.07,0,0m-3.86,0s0,.08.05,0,0,0,0,0,0,0,0,0,0-.07,0,0m-1.37,0s0,0,0,0h0s.06,0,0,0,0,0,0,0m3.85,0a0,0,0,0,1,0,0h0s0,0,0-.06,0,0,0,0m-2,0,.06,0s0,0-.05,0l-.05,0,0,0m7.21,0s0,.06,0,0h0s0,0,0,0,0,0,0,0m-9.63,0s0,0,.06,0h0s0,0-.05,0,0,0,0,0m5.08,0s0,0,0,0h0s.05,0,.06,0h0s0,0-.05,0m3.85,0s0,0,0,0a0,0,0,0,0,0,0,0,0,0,0,1,0,0,0,0,0,0,1,0,0,0,0,0,0,0,0,0s0-.06,0-.06l0,0m2,0h0m0,.57c0,.3,0,.42,0,.27v-.54c0-.15,0,0,0,.27M32,70c0,.09,0,.09.21.09H32v0c0-.07,0-.08,0,0m1.74,0s0,0-.18,0h.17l0,0s0,0,0,0a.06.06,0,0,0,0,0m.19,0c0,.08,0,.09.19.09h0c-.16,0-.17,0-.18,0l0,0m-4,0s0,0-.16,0h0c.14,0,.16,0,.17,0s0,0,0,0,0,0,0,0m.21,0s.05,0,.2,0h0c-.13,0-.16,0-.17,0s0,0,0,0m-1.9,0h.16a.36.36,0,0,0-.16,0m3.45,0c-.16,0-.2,0-.15.06s0,0,0,0,0-.05.14-.05h.17a0,0,0,0,0,0,0l-.18,0m-4,0s0,0,0,0h0a.44.44,0,0,1,.18,0h-.18m7.79,0h.16s0,0-.08,0-.13,0-.08,0m.55,0h.16s0,0-.08,0-.12,0-.08,0m-6.42,0,.06.05s0,0,0,0-.08-.07,0,0m2,0s.11.09.11.08l-.06,0s0,0,0,0m-3.8,0s.1.09.1.08l-.06,0,0,0m2.51.08,0,0,0,0,.05,0s0,0-.05,0m3.85,0h0l.06-.05,0,0m-2.44,0,0,0h0l0,0s0,0,0,0m3.88,0,0,.07s0,0,0,0a.15.15,0,0,0,0-.06l0,0,0,0m.46,0s0,0,0,0,0,0,0,0a.09.09,0,0,1,0,0s0,0,0,0a.05.05,0,0,0,0,0m-4.08.16.08.05.05,0-.05,0-.08,0s0,0,0,0m1.89,0,0,0,0,0s0,0,.1,0l0,0c0-.06-.11-.08-.15,0m1.94,0s0,0,0,0,0,0,0,0,0,0-.05,0m-7.61,0s.1.08.1.07l-.06,0,0,0m2,0s0,0,.05,0,.05,0,.05,0-.1-.09-.1-.08m3.54.07-.06.05.06,0c.06,0,.08-.07.06-.07l-.06.06m-1.93,0c-.06,0-.06,0-.07,0s0,0,0,0,0,0,0,0,.14-.09.12-.09l-.05,0m3.76,0c0,.06,0,.08.06,0s0,0,0,0-.06,0-.05,0,0,0,0,0m-8.39,0,0,0s0,0,0,0,0,0,0,0,0,0,0,0,0,0-.05,0m1.26,0s0,0,0,0,0,0,0,0,.06,0,.05,0,0,0,0,0m7.64,0,.06,0s0,0,0-.05,0,0,0,0,0,0-.05,0l0,0,0,0m-8.21,0s0,0,.06,0h0a0,0,0,0,1,0,0s0,0,0,0m2,0h0s0,0,0,0,0,0,0,0,0,0,0,0m1.17,0,0,0s0,0,0,0-.06,0-.06,0m5.78,0s0,0,0,0,0,0,0,0,0,0,0,0,0,0,0,0l0,0m.11.22c0,.06,0,.08.19.08s.15,0,.16,0,0,0,0,0,0,0-.19,0-.13,0-.15,0,0,0,0,0m-9.62,0s0,.07.19.07.16,0,.15,0,0,0,0,0,0,0-.16,0-.15,0-.17,0,0,0,0,0m3.65,0s0,0-.16,0h-.16s.06,0,.15,0,.16,0,.18,0,0,0,0,0a0,0,0,0,0,0,0m-1.94,0s-.05,0-.16,0-.21,0-.14.08,0,0,0,0,0,0,.14,0,.19,0,.16,0,0,0,0,0m2.16,0s0,0,.17,0,.15,0,.16,0h0s0,0-.15,0l-.18,0s0,0,0,0m1.7,0s-.06,0-.17,0-.16,0-.17,0,0,0,0,0,0,0,.16,0,.19,0,.17,0,0,0,0,0m2.14,0s0,0,.16,0,.15,0,.17,0,0,0,0,0,0,0-.17,0a.41.41,0,0,1-.17,0s0,0,0,0m1.7,0h-.32s.31,0,.33,0a0,0,0,0,0,0,0l0,0m-9.77,0c-.15,0-.22,0-.17,0s0,0,0,0,0,0,.15,0l.17,0s0,0,0,0h-.16m2.35,0a1.13,1.13,0,0,0,.28,0h-.28m3.95,0c.12,0,.16,0,.18,0s0,0,0,0,0,0-.17,0h0m1.23,0s0,0,0,0,0,0,0,0,0,0,.17,0h-.18m2.62.16s-.06.06-.06.08,0,0,0,0l.06-.07.06,0s0,0-.07,0m-10.1,0a0,0,0,0,1,0,.05s0,0,0,0a0,0,0,0,0,0-.07s0,0,0,0m7.69.1a.43.43,0,0,0,0,0s0,0,0,0,0-.08,0,0m-3.71.11c-.05,0-.05,0,0,0l.06,0s0,0-.06,0m5.89,0s.1.08.1.07a.2.2,0,0,0-.05,0s0,0,0,0m-1.88,0s.1.08.1.07l-.05,0s0,0,0,0m1.72,0s0,0,0,0l.06,0s0,0-.06,0m-1.93,0,0,0,.06,0c.07,0,.07,0,.05,0l-.06,0m-5.52,0s.1.08.1.07l-.06,0,0,0m3.46,0a.14.14,0,0,0,0,.09s0,0,0-.06,0-.07,0,0m-5.35,0s.11.09.13.07,0,0,0,0,0,0-.07,0l-.06,0m1.49,0s0,0,0,0h0a.08.08,0,0,1,0,0s0,0,0,0m7.7,0a0,0,0,0,0,0,0s0,0,0,0a0,0,0,0,1,0,0s0,0,0,0a0,0,0,0,0,0,0m.5,0a.07.07,0,0,0,0,0,0,0,0,0,0,0,0s0,0,0,0,0,0,0,0l0,0h0m-5,0s0,0,0,0,0,0,0,0,0,0,0,0,0,0,0,0,0-.07-.07,0m-.09.27a.42.42,0,0,1-.16,0h0c.11,0,.15,0,.16,0s0,0,0,0m-4,0H28s0,0,0,0a.65.65,0,0,1-.16,0m2.3,0h.17c.16,0,.18,0,.14,0s0,0,0,0,0-.06-.16-.06h-.16m1.93,0h0m-3.78,0h.16s0,0-.08,0-.12,0-.08,0m1.4,0h.16s0,0-.08,0-.13,0-.08,0m2.55,0h.07s0,0,0,0-.05,0,0,0m.13,0s0,0,0,0,0,0,0,0,0-.06,0-.06,0,0,0,0m1.16,0h.17s0,0-.09,0-.13,0-.08,0m.57,0h.13s0,0-.06,0-.1,0-.07,0m1.36,0h.16s0,0-.08,0-.13,0-.08,0m.51,0h.13s0,0-.07,0-.1,0-.06,0m-8.31,0s0,0,0,0l0,0,0,0s0,0,0,0v0m6.62,0s0,0,0,0,.08-.06.06-.07l0,0m-4,.12-.05,0a.41.41,0,0,0,.12-.09l-.07,0m-2,0a.17.17,0,0,0,0,0s0,0,0,0l0,0s0,0,0,0l0,0m5.34,0a.07.07,0,0,1,0,.06s0,0,0,0,0,0,0-.07,0,0,0,0m-3.86.13s0,.06,0,.07l0-.06a.21.21,0,0,0,0-.06l0,0M28,72.14l0,0,0,0s0,0,.05,0,0,0,0,0,0,0-.05,0m1.92,0,0,0,0,0s0,0,.05,0,0,0,0,0,0,0-.06,0m3.84,0s0,0,0,0,0,0,0,0,0,0,0,0,0,0,0,0,0,0-.07,0m3.9,0a.08.08,0,0,0,0,0h0s.56,0,8.71,0H37.7m-3.58.11s0,0,0,0a.43.43,0,0,0,0,0s0,0,0,0m1.37,0a0,0,0,0,0,0,0s0,0,0,0,0-.06,0,0m-1.85,0-.06,0s0,0,0,0,.05,0,.08,0,0,0,0,0m-6.54,0s0,0,0,0l0,0s0,0,0,0,0,0,0,0,0,0,0,0m2.66,0s0,0,0,0l.05,0s0,0,0,0m1.88,0s0,0,0,0,0,0,.05,0,0,0,0,0,0,0,0,0,0,0,0,0m.55,0s0,0,0,0,0,0,0,0,.06,0,.06,0,0,0,0,0m2.61,0h0s0,0,0,0m1.25,0s0,0,0,0,0,0,0,0,.06,0,.05,0,0,0,0,0m1.64.54c0,.25,0,.36,0,.23v-.45c0-.13,0,0,0,.22m-4.94-.24s0,0,0,0,.07,0,.06,0l0,0m-3.28,0s0,0,0,0,0,0,0,0,0,0,0,0m4.9,0,.06.06,0,0,0,0s0,0,0-.06,0,0,0,0,0,0,0,0m-5.06.14c-.06,0-.06,0,0,0l.06,0s0,0-.05,0m1.94,0s0,0,0,0l0,0s0,0,0,0m5.7,0s0,0,0,0,0,0,0,0a.08.08,0,0,1,0,0s0,0,0,0m-3.86,0a0,0,0,0,0,0,0s0,0,0,0a.05.05,0,0,1,0,0s0,0,0,0,0,0,0,0M30.93,73H31s-.05,0-.07,0m3.82,0,0,0,.06,0c.06,0,.06,0,0,0l-.06,0m2,0s0,0,0,0,0,0,.07,0,0,0,0,0,0,0-.09,0m-9.5,0a.07.07,0,0,0,0,0h0a.05.05,0,0,0,0,0h0m9.66,0,.11.07-.06,0,0,0m-9.47.06s0,0,0,0,0,0,0,0,0,0,0,0,0,0,0,0m3.75,0s.11.07.12,0a.06.06,0,0,0,0,0s0,0,0,0,0,0-.08,0,0,0,0,0m1.47,0s0,0,0,0,0,0,0,0v0a0,0,0,0,0,0,0m2,0c-.06,0-.06,0,0,0s.06,0,.06,0,0,0,0,0m-4.62,0a0,0,0,0,0,0,0,0,0,0,0,1,0,0s0,0,0,0,0,0-.05,0v0m1.93,0s0,0,0,0,0,0,0,0,0,0,0,0m3.84,0a0,0,0,0,0,0,0s0,0,0,0,0,0,0,0,0,0,0,0-.05,0-.06,0m.7,0s0,0,0,0a0,0,0,0,0,0,0,.1.1,0,0,0,0,0s0,0,0,0m.57,0s0,0,0,0,0,0,0,0h0a0,0,0,0,0,0-.06s0,0,0,0m-7.75,0a.05.05,0,0,0,.05,0s0,0,0,0,0,0-.05,0,0,0,0,0m4.47.24a.1.1,0,0,0,0,0s0-.08,0-.08,0,0,0,0m.21,0s0,0,0,0,0,0,0,0,0-.07,0,0m-4.39.07s0,0,.05.06,0,0,0,0,0,0,0-.05h0l0,0m1.92,0s0,0,0,.06l0,0,0,0,0-.06h0m4.71,0,0,0,0,0s.05,0,0-.05l0,0m-5.84.06-.06,0,.06,0s.07-.06,0-.06l0,0m5.07,0,.06,0,0,0s-.1-.08-.1-.07m-5.68.07a.2.2,0,0,1,.06.09v0s0-.07-.1-.12l0,0m2,0a.05.05,0,0,1,0,.05s0,0,0,0,0-.08-.07-.08,0,0,0,0m-1.91.12s0,.1,0,.09,0-.1,0-.1h0m-2,0s0,0,0,0,0,0,0,0,0,0,0,0m2.07.07,0,0,.06,0,.05,0-.06,0m2.31.07s0,0,0,0,0,0,0,0a0,0,0,0,0,0-.06s0,0,0,0m-4.41,0s0,.05.05,0,0,0,0,0,0,0-.05,0h0m3.19,0s0,0,0,0,0,0,0,0a.11.11,0,0,0,0,0s0,0,0,0m.66,0s0,0,.06,0,0,0,0,0,0,0-.05,0,0,0,0,0m5.1,0s0,0,0,0,0,0,0,0l0,0M30.94,74a.07.07,0,0,0,0,0s0,0,0,0,0-.07,0,0m-1.78.18c0,.06,0,.07.19.07s.15,0,.15,0h0s0,0-.15,0-.16,0-.18,0v0m-2.14,0s0,0-.17,0-.18,0-.16,0,0,0,0,0,0,0,.15,0,.15,0,.17,0a.08.08,0,0,0,0,0l0,0m6,0s0,0,.19,0h.14s0,0,0,0,0,0-.16,0-.16,0-.17,0h0m-5.76,0h.33l0,0s0,0,0,0,0,0,0,0a.93.93,0,0,0-.33,0m3.45,0c-.17,0-.18,0-.16,0a.94.94,0,0,0,.18.14l-.12-.1c-.08-.05-.06-.06.11-.06a.35.35,0,0,0,.16,0H30.7m-2.08,0s0,0,0,.08,0,0,0,0l-.05,0h0m2.65,0c.14,0,.16,0,.15,0s0,0,0,0,0,0-.16,0h0m1.19,0s0,0,.12,0,.23,0,.05,0h-.17m1.93,0s0,0,0,0,0,0,0,0,.06,0,.16,0h-.17m.73,0c.12,0,.16,0,.16,0h0s0,0-.16,0h0m1.27,0a.54.54,0,0,0,.18,0h-.18m.65,0c.17,0,.17,0,.13.06s0,0,0,0,0-.07-.13-.06h0m-10.32.06.06,0s0,0,0,0-.11-.08-.11-.07m6.5.07c0,.05,0,.05,0,0l.05,0s0,0-.05,0m1.93,0,0,0,0,0s.05,0,.05,0,0,0-.06,0m1.92,0,0,.05.06,0c.05,0,.06-.06.05-.06l-.06,0m-.62,0,0,0s0,0,0,0l0,0s0,0,0,0m-9.11.07s0,0,0,0h0a.21.21,0,0,1,0-.06l0,0,0,0m1.5,0a.14.14,0,0,1,0,.06s0,0,0,0,0,0,0-.08,0,0,0,0m3.84,0,0,0h0s0,0,0,0,0,0,0,0m5,.12a0,0,0,0,0,0,0h0s.45,0,8.71,0c4.78,0,8.55,0,8.37,0-1.62,0-17.05,0-17.07,0m-10.63.08,0,0,.05,0s.05,0,.08,0l0,0s-.07-.06-.09-.06l-.05,0m2,0s0,0,.05,0,0,0,0,0-.08-.07-.08-.06m-.09.06,0,0,0,0c.06,0,.07-.05.06-.05l-.06,0m8.72.51c0,.31,0,.43,0,.28v-.55c0-.15,0,0,0,.27m-1.06-.48-.05,0,.05,0,.06-.05-.06,0m-7.3.06s0,0,0,0,0,0,0,0,0,0,.05,0a0,0,0,0,0,0-.07s0,0,0,0m1.38,0s0,.06,0,.07,0,0,0,0v0h0m2.47,0s0,0,0,0,0,0,0,0,0,0,0,0,0,0,0,0m2.57,0s0,0,0,0a0,0,0,0,0,0,0s0,0,0,0,0,0,0,0,0-.08-.07-.06m-3.85,0s0,0,0,0,0,0,0,0,0,0,0,0,0,0,0,0v0H31.9m-3.74.21,0,.06v0h.16c.19,0,.2,0,.06.1l-.09.07a.53.53,0,0,0,.2-.16s0,0-.15,0h-.16l0-.05s0,0,0,0M31.8,75h-.15c-.11,0-.15,0-.17,0s0,0,0,0l.17,0c.11,0,.15,0,.16,0s0,0,0,0M28,75s-.06,0-.15,0-.23,0-.12.08,0,0,0,0,0-.06.11-.06S28,75,28,75s0,0,0,0h0M32,75s.05,0,.18,0h0L32,75s0,0,0,0m-2.4,0s0,0,.1,0h.15a1,1,0,0,0-.25,0m.48,0h.17c.14,0,.15,0,.14,0s0,0,0,0,0,0-.17,0a.57.57,0,0,0-.15,0m3.43,0-.15,0a1.23,1.23,0,0,0,.33,0s0,0,0,0h-.17M34,75h.17a.37.37,0,0,1,.17,0s0,0,0,0a0,0,0,0,0,0,0A1.26,1.26,0,0,0,34,75m1.54,0h.16s0,0,0,0H35.5m.4,0h.17c.1,0,.15,0,.15,0s0,0,0,0a0,0,0,0,0,0,0,1.12,1.12,0,0,0-.31,0m-.58,0,0,0,0,0,0,0s0,0,0,0m-5,.09-.08.07a.74.74,0,0,0,.16-.12s0,0-.08,0m5.73,0c-.09.07-.11.09-.08.11s0,0,0,0,0,0,.08-.08.09-.08.08-.08l-.09.07m-4.45,0s0,0,.07.07.06,0,.06,0l-.13-.1m2.49.06s0,0,0,0l.06,0c.07,0,0,0,0,0m-.45.07s0,0,0,0a0,0,0,0,0,0,0s0,0,0,0m-5.59.13s0,0,0,0,0,0,.07,0l0,0,0,0s-.07,0-.08,0m5.75,0s0,0,0,0,.06,0,.14,0,.08,0,.08,0a.61.61,0,0,0-.18-.11l0,0m1.93,0s0,0,0,0,.06,0,.12,0l0,0,0,0c-.06,0-.09-.06-.12,0m-7.78,0c-.09.07-.1.09,0,0s.1-.07.08-.07l-.07,0m2.11,0a.2.2,0,0,0,.05,0s.05,0,.05,0-.1-.09-.1-.08m-2.25,0a.2.2,0,0,0,0,0,.21.21,0,0,0,0,.06h0s0,0,0-.06a.1.1,0,0,0,0,0h0m4,0-.05,0,.05,0s0,0,0,0l0,0m3.84,0c-.06,0-.08.07,0,0s.1-.07.09-.07l-.07,0m-4,0s0,0,0,0,.05,0,.08,0,0,0,0,0-.07,0-.06,0,0,0,0,0m.56,0s0,0,0,0h0s.06,0,.07,0a0,0,0,0,0,0,0s0,0,0,0m-5.12,0v0s0,0,0,0,0,0,.05,0h0a0,0,0,0,0-.07,0m15,.14h8.7c2.39,0,.43,0-4.35,0s-6.74,0-4.35,0m-13.48.17,0,0a.77.77,0,0,0,.13.09s0,0-.07-.06-.07,0-.06-.06v0s0,0,0,0M26.8,76a.37.37,0,0,1,.11.1s0,0,0,0a.65.65,0,0,0-.22-.17l.1.07m4.46,0-.05,0,.06,0c.05,0,.07,0,.05,0l-.06,0m5.14,0,.08.07s.07.06.07,0-.15-.14-.15-.12m-1.34,0s-.05,0,0,0l.07,0s.06,0,0,0l-.08,0M37,76l-.06,0L37,76c.05,0,0,0,0,0m-4.35,0s0,0,0,.08,0,0,0,0,0-.06,0-.09l0,0,0,0m1.91,0,0,0s0,0,0,0l0,0,0,0m-1.45,0s0,0,0,.06,0,0,0,0a.14.14,0,0,1,0-.06s0,0,0,0l0,0m-1.94.09a.19.19,0,0,0,0,.07s0,0,0,0a.19.19,0,0,0,0-.07s0,0,0,0m1.48,0s0,0,0,0,0,0,0,0,0,0,0,0m2.09.07s0,0,0,0,.08-.06.06-.06l0,0m-5.79,0-.05,0,.05,0s.05,0,.05,0,0,0-.05,0m3.79,0c-.09.07-.1.09,0,0s.1-.07.09-.07l-.07,0m.27,0a.36.36,0,0,0,.15.1s0,0,0,0l-.09-.05-.06,0m1.92,0s0,0,.06,0l0,0s-.1-.09-.1-.08m1.62,0,0,.05.06,0s.06,0,0,0l-.06,0m-1.47,0a0,0,0,0,1,0,.05s0,0,0,0a.05.05,0,0,0,0-.08s0,0,0,0m-4.41,0s0,.08,0,.06,0,0,0,0,0,0,0,0,0,0,0,0m.49,0c.06,0,.09.05.09,0s0,0,0,0,0,0-.06,0l-.05,0,0,0m-3.77,0s0,0,0,0h0s0,0,0,0a0,0,0,0,0,0-.06s0,0,0,0m7.13,0a0,0,0,0,0,0,0s0,0,0,0,0,0,0,0,0,0,0,0m-8.42.49h29s-6.51,0-14.49,0-14.5,0-14.5,0M33.35,78h0m0,1.16c4,0,10.52,0,14.51,0H33.35m0,2.36H47.86c4,0,.72,0-7.26,0s-11.24,0-7.25,0m0,1.18H47.86c4,0,.72,0-7.26,0s-11.24,0-7.25,0m0,1.17h0" transform="translate(0 0)"/></g><path id="path1-2" data-name="path1" class="cls-7" d="M24.43,21.72a1.47,1.47,0,0,1,.64.58,66.33,66.33,0,0,1,.08,7.11,1.29,1.29,0,0,1-2.46-.06,58.45,58.45,0,0,1,0-6.75,1.29,1.29,0,0,1,1.75-.88m2.95,2.52a7.49,7.49,0,0,1,3.77,5.65c.1.81.27.74-1.81.73l-1.74,0-.05-.33a3.51,3.51,0,0,0-.87-1.94l-.3-.33,0-.54c0-.3.08-1.21.12-2s.09-1.49.09-1.5.39.08.76.31m-6.16.15c0,.22.06,1.09.12,1.94l.09,1.53-.3.28a3.72,3.72,0,0,0-.76,4.24c.5.84,1.37,1.26,4.1,2,1.07.27,1.29.33,1.65.45A8.64,8.64,0,0,1,32,39.88c1.39,3.44-.41,7.54-4.09,9.32-4.59,2.22-10.25.15-11.86-4.35-.06-.15-.12-.3-.14-.33a.87.87,0,0,1-.08-.28.89.89,0,0,0-.09-.28,7.21,7.21,0,0,1-.22-1.09,5.88,5.88,0,0,1-.05-.8v-.49H19l0,.43a4.76,4.76,0,0,0,3.43,4.29,4.39,4.39,0,0,0,1.39.2,6.06,6.06,0,0,0,3-.84l.26-.18A3.75,3.75,0,0,0,26.63,39l-.29-.17a15.93,15.93,0,0,0-3.24-1,3.76,3.76,0,0,1-.39-.1l-.59-.17c-4.18-1.2-6.14-3.8-5.69-7.55a7.08,7.08,0,0,1,4.18-5.73l.31-.15c.22-.13.27-.07.3.35m24,10.5c0,5.86,0,10.66,0,10.66l1.47-.71,1.47-.73s1.55,3,1.52,3.07-1.28.67-2.81,1.42L44,50A2.29,2.29,0,0,1,42.86,50a1.78,1.78,0,0,1-1-1.21c-.11-.4-.11-24.48,0-24.52s.81,0,1.72,0H45.2V34.89m-7.64-7.12a2.44,2.44,0,1,1-2.92,3.77,2.84,2.84,0,0,1-.44-.76,4.2,4.2,0,0,1,0-1.58,2.61,2.61,0,0,1,.9-1.19,2.52,2.52,0,0,1,2.46-.24M60.2,32.71a8.91,8.91,0,0,1,2.13.77l.34.18a9.92,9.92,0,0,1,.95.64,2.36,2.36,0,0,0,.35.24,8,8,0,0,0,0-1l0-1h3.41v8.55c0,4.7,0,8.63,0,8.73l0,.19-1.68,0H64L64,49V47.94l-.24.19a8.83,8.83,0,0,1-8,1.51,1.45,1.45,0,0,1-.36-.14.29.29,0,0,0-.14,0,3.41,3.41,0,0,1-.49-.19l-.44-.2-.46-.26a9,9,0,0,1-3.7-4.35,7.67,7.67,0,0,1-.48-1.65,13.53,13.53,0,0,1,0-3,8.62,8.62,0,0,1,.78-2.38A13.46,13.46,0,0,1,51.37,36a9,9,0,0,1,3.16-2.59,8.92,8.92,0,0,1,2.15-.72l.59-.12a14.38,14.38,0,0,1,2.93.15m-22,10.12v7.08H34.83V42.85c0-3.88,0-7.08,0-7.1s.78,0,1.69,0h1.65l0,7.09M57.67,36a5.3,5.3,0,0,0-.54,10.41,7.67,7.67,0,0,0,2.34,0,6.15,6.15,0,0,0,1.85-.79,3.92,3.92,0,0,1,.37-.29C65.3,42.56,63.62,36.69,59,36a3.19,3.19,0,0,0-1.34,0" transform="translate(0 0)"/></svg>