<?xml version="1.0" encoding="utf-8"?>
<!-- Generator: Adobe Illustrator 19.2.1, SVG Export Plug-In . SVG Version: 6.00 Build 0)  -->
<svg version="1.1" id="layer" xmlns="http://www.w3.org/2000/svg" xmlns:xlink="http://www.w3.org/1999/xlink" x="0px" y="0px"
	 viewBox="0 0 652 652" style="enable-background:new 0 0 652 652;" xml:space="preserve">
<style type="text/css">
	.st0{fill:#0E182C;}
	.st1{filter:url(#Adobe_OpacityMaskFilter);}
	.st2{fill:#FFFFFF;}
	.st3{mask:url(#mask-2_2_);fill:url(#Fill-16_1_);}
</style>
<path id="Fill-1" class="st0" d="M251.9,311.3h30.7c1.6,0,2.4-0.8,3.9-1.6c3.2-2.4,4.7-6.3,3.2-9.5c-0.8-3.9-3.9-6.3-7.9-6.3h-29.2
	c-0.8,0-0.8,0-0.8,0.8V311.3 M251.9,344.4h30c1.6,0,3.2,0,4.7-0.8c6.3-1.6,9.5-9.5,4.7-15c-2.4-3.2-6.3-4.7-10.2-4.7h-29.2
	c-0.8,0-1.6,0-1.6,1.6v17.3C251.9,343.6,251.9,344.4,251.9,344.4 M298.4,315.2c1.6,0.8,2.4,1.6,3.9,1.6c7.1,3.9,10.2,10.2,10.2,18.1
	c-0.2,11.4-8.5,21-19.7,22.9c-3.2,0.8-6.3,0.8-9.5,0.8h-48.9v-78.8H281c4.7,0,10.2,0.8,15,3.2c4.7,2.4,8.7,6.3,10.2,11.8
	c2.4,6.3,0.8,11.8-3.9,16.6C302.3,312.8,299.9,313.6,298.4,315.2"/>
<path id="Fill-3" class="st0" d="M420.6,311.3h30.7c6.3-1.6,9.5-7.9,6.3-12.6c-1.6-2.4-3.9-3.9-7.1-3.9h-28.4c-0.8,0-0.8,0-0.8,0.8
	v15.8H420.6z M421.4,344.4h30c2.4,0,4.7,0,6.3-1.6c6.3-3.2,7.1-11,2.4-15.8c-2.4-2.4-5.5-3.2-8.7-3.2h-30.7v20.5H421.4z
	 M403.2,358.6v-78.8h47.3c5.5,0,10.2,0.8,15,3.2c6.3,3.2,10.2,7.9,11,15c0.8,5.5-0.8,9.5-4.7,13.4c-1.6,1.6-3.2,2.4-4.7,3.9
	c0.8,0,1.6,0.8,2.4,0.8c4.7,2.4,7.9,5.5,10.2,10.2c3.7,10.1,0.2,21.4-8.7,27.6c-3.9,3.2-8.7,3.9-13.4,4.7h-52.8
	C404.8,358.6,403.2,358.6,403.2,358.6z"/>
<path id="Fill-5" class="st0" d="M518.3,331.7h-3.9c-1.6,0-2.4,0.8-3.9,0.8c-4.7,1.6-6.3,6.3-4.7,10.2c1.6,3.2,4.7,4.7,7.9,4.7
	c6.3,0.8,12.6-1.6,17.3-5.5c0.8,0,0.8-0.8,0.8-1.6v-3.2c0-1.6-0.8-1.6-1.6-2.4C527,333.3,523.1,331.7,518.3,331.7 M493.1,304.2
	c3.2-0.8,6.3-2.4,9.5-3.2c7.1-2.4,15-3.2,22.9-2.4c4.7,0,9.5,1.6,13.4,3.2c6.3,3.2,9.5,7.9,9.5,14.2v28.4c0,4.7,0,8.7,1.6,13.4v0.8
	h-15c-0.8,0-0.8,0-1.6-0.8c-0.8-1.6-0.8-3.9-1.6-5.5c-1.6,0.8-2.4,2.4-3.2,3.2c-4.7,3.9-10.2,5.5-16.6,4.7c-5.5,0-10.2-1.6-14.2-3.9
	c-9.5-5.5-11-18.9-4.7-26.8c3.2-3.9,7.1-5.5,11-7.1c7.1-2.4,14.2-2.4,21.3,0c2.4,0.8,3.9,1.6,5.5,2.4c0,0,0.8,0,0.8,0.8v-6.3
	c0-5.5-3.9-7.9-7.9-8.7c-5.5-0.8-11.8,0-17.3,1.6c-3.2,0.8-5.5,2.4-8.7,3.2C497.1,312,495.5,308.1,493.1,304.2"/>
<path id="Fill-7" class="st0" d="M620,300.2l-4.7,9.5c-7.9,15.8-15,32.3-22.9,48.1c-3.9,8.7-7.9,17.3-12.6,26l-0.8,0.8h-16.6
	c0-0.8,0.8-0.8,0.8-1.6l14.2-28.4V353c-6.3-14.2-12.6-27.6-18.9-41.8c-1.6-3.2-3.2-6.3-4.7-10.2v-0.8h16.6c0.8,0,0.8,0,1.6,0.8
	c3.9,8.7,7.1,17.3,11,26.8c0.8,2.4,1.6,4.7,3.2,7.1l0.8,0.8l0.8-0.8c4.7-11,9.5-22.1,14.2-32.3c1.6-2.4,1.6-2.4,3.9-2.4L620,300.2"
	/>
<path id="Fill-9" class="st0" d="M352,311.3v-12.6h10.2v-16.6H378v16.6h13.4c0.8,0,0.8,0,0.8,0.8v11h-13.4c-0.8,0-1.6,0-1.6,1.6
	v29.2c0,3.2,1.6,5.5,5.5,5.5c2.4,0,4.7,0,7.1-0.8c1.6,0,1.6,0,1.6,0.8c0,3.2,0.8,6.3,0.8,9.5c0,0.8,0,1.6-0.8,1.6
	c-1.6,0.8-3.2,0.8-4.7,1.6c-3.9,0.8-7.9,0.8-11.8,0c-7.9-1.6-12.6-7.1-12.6-15.8V312c0-1.6,0-1.6-1.6-1.6
	C357.5,311.3,354.3,311.3,352,311.3"/>
<path id="Fill-11" class="st0" d="M340.9,358.6h-14.2c-0.8,0-1.6,0-1.6-1.6v-56.8c0-0.8,0-0.8,0.8-0.8h14.2c0.8,0,0.8,0,0.8,0.8
	L340.9,358.6"/>
<path id="Fill-13" class="st0" d="M332.3,273.4c3.9,0,7.1,1.6,8.7,4.7c2.4,3.9,1.6,7.9-2.4,10.2c-3.9,3.2-9.5,3.2-13.4,0
	c-2.4-2.4-3.2-4.7-2.4-7.9c0.8-3.2,2.4-5.5,5.5-6.3C330.7,273.4,331.5,273.4,332.3,273.4"/>
<defs>
	<filter id="Adobe_OpacityMaskFilter" filterUnits="userSpaceOnUse" x="20.1" y="238.7" width="165.6" height="165.6">
		<feColorMatrix  type="matrix" values="1 0 0 0 0  0 1 0 0 0  0 0 1 0 0  0 0 0 1 0"/>
	</filter>
</defs>
<mask maskUnits="userSpaceOnUse" x="20.1" y="238.7" width="165.6" height="165.6" id="mask-2_2_">
	<g class="st1">
		<path id="path-1_2_" class="st2" d="M102.8,238.7c-45.7,0-82.8,37.1-82.8,82.8s37.1,82.8,82.8,82.8c45.7,0,82.8-37.1,82.8-82.8
			C186.4,275.8,149.4,238.7,102.8,238.7z"/>
	</g>
</mask>
<linearGradient id="Fill-16_1_" gradientUnits="userSpaceOnUse" x1="-568.4885" y1="385.4954" x2="-562.8905" y2="391.0932" gradientTransform="matrix(21.0959 0 0 21.0959 12037.4346 -7869.3462)">
	<stop  offset="0" style="stop-color:#2FB5EB"/>
	<stop  offset="1" style="stop-color:#1D57BA"/>
</linearGradient>
<path id="Fill-16" class="st3" d="M102.8,238.7c-45.7,0-82.8,37.1-82.8,82.8s37.1,82.8,82.8,82.8c45.7,0,82.8-37.1,82.8-82.8
	C186.4,275.8,149.4,238.7,102.8,238.7z"/>
<path id="Fill-19" class="st2" d="M98.1,347.5h-6.3v-6.3v-12.6v-0.8H121c3.9,0,7.1,1.6,9.5,3.9c1.6,2.4,2.4,5.5,0.8,8.7
	c-0.8,3.2-3.2,4.7-5.5,5.5c-1.6,0.8-3.2,0.8-4.7,0.8C113.1,347.5,105.2,347.5,98.1,347.5 M124.1,311.3c-0.8,0.8-2.4,0.8-3.9,1.6H91
	v-15.8h29.2c3.2,0,6.3,2.4,7.1,5.5C128.1,305.7,126.5,309.7,124.1,311.3 M140.7,319.1c-0.8-0.8-1.6-1.6-2.4-1.6c0,0,0.8,0,0.8-0.8
	c0.8-0.8,2.4-1.6,3.2-3.2c4.7-5.5,6.3-11.8,3.9-18.1c-1.6-5.5-5.5-9.5-11-12.6c-3.9-2.4-9.5-3.2-15-3.2H72.1V327H50v18.9h31.5
	l-10.2,6.3v11h48.9c3.2,0,6.3,0,10.2-0.8c11-1.6,20.5-12.6,20.5-24.4C150.9,329.4,147.8,323.1,140.7,319.1"/>
</svg>
