<svg id="svg" version="1.1" xmlns="http://www.w3.org/2000/svg" xmlns:xlink="http://www.w3.org/1999/xlink" width="400" height="280" viewBox="0, 0, 400,280"><g id="svgg"><path id="path0" d="M195.367 37.006 C 192.908 38.564,189.888 40.495,188.655 41.298 C 187.423 42.100,183.074 44.877,178.992 47.469 C 174.909 50.061,170.273 53.014,168.689 54.032 C 167.105 55.050,165.215 56.263,164.487 56.727 C 155.507 62.465,141.871 71.183,140.843 71.844 C 140.120 72.309,138.670 73.222,137.621 73.874 C 136.573 74.525,134.298 75.975,132.567 77.095 C 130.837 78.215,128.316 79.838,126.965 80.702 C 116.037 87.689,109.971 91.561,108.543 92.462 C 107.619 93.046,105.602 94.334,104.062 95.325 C 100.841 97.397,95.485 100.822,88.655 105.179 C 86.036 106.850,82.602 109.047,81.022 110.061 C 79.443 111.075,76.567 112.913,74.631 114.146 C 72.695 115.378,70.520 116.767,69.799 117.232 C 69.078 117.697,66.029 119.641,63.025 121.552 C 60.021 123.463,56.555 125.675,55.322 126.469 C 54.090 127.263,50.245 129.717,46.779 131.922 C 32.874 140.769,33.862 139.957,35.644 141.079 C 36.299 141.491,37.843 142.479,39.076 143.274 C 42.164 145.267,59.291 156.219,61.203 157.423 C 62.575 158.287,72.531 164.641,83.586 171.709 C 85.635 173.018,89.287 175.350,91.703 176.891 C 94.119 178.431,97.194 180.395,98.538 181.254 C 99.881 182.113,105.581 185.756,111.204 189.349 C 116.828 192.942,122.248 196.410,123.249 197.057 C 124.251 197.704,127.402 199.720,130.252 201.538 C 133.102 203.356,136.064 205.249,136.835 205.746 C 137.605 206.242,139.874 207.690,141.877 208.964 C 143.880 210.238,146.148 211.690,146.919 212.190 C 147.689 212.691,151.155 214.896,154.622 217.090 C 158.088 219.284,161.744 221.611,162.745 222.262 C 163.746 222.912,168.473 225.939,173.249 228.988 C 178.025 232.037,182.815 235.099,183.894 235.793 C 184.972 236.487,186.296 237.336,186.835 237.681 C 187.374 238.026,188.887 238.995,190.196 239.834 C 195.777 243.409,199.379 245.653,199.800 245.814 C 200.082 245.922,201.190 245.377,202.770 244.352 C 204.156 243.453,206.841 241.727,208.737 240.516 C 210.633 239.306,215.663 236.091,219.914 233.373 C 224.165 230.655,229.620 227.171,232.036 225.630 C 234.452 224.090,237.843 221.916,239.573 220.800 C 241.302 219.684,244.264 217.794,246.155 216.599 C 249.854 214.261,250.141 214.079,257.635 209.289 C 269.523 201.692,276.625 197.149,287.703 190.056 C 294.200 185.896,300.132 182.115,300.886 181.653 C 301.640 181.190,305.184 178.932,308.762 176.634 C 312.339 174.336,315.896 172.052,316.667 171.559 C 319.073 170.019,322.727 167.682,325.350 166.004 C 326.737 165.117,330.014 163.017,332.633 161.337 C 335.252 159.656,338.025 157.896,338.796 157.426 C 339.566 156.955,342.528 155.063,345.378 153.221 C 348.228 151.380,351.190 149.488,351.961 149.017 C 356.160 146.451,365.387 140.395,365.468 140.151 C 365.589 139.787,363.099 138.153,341.176 124.214 C 338.943 122.794,334.153 119.733,330.532 117.414 C 326.912 115.094,322.437 112.237,320.588 111.066 C 318.739 109.894,312.852 106.137,307.504 102.717 C 302.157 99.297,291.569 92.536,283.975 87.694 C 276.381 82.851,268.718 77.950,266.947 76.803 C 262.514 73.932,262.374 73.842,257.003 70.445 C 254.384 68.789,251.422 66.905,250.420 66.259 C 248.908 65.282,244.467 62.443,235.513 56.726 C 234.785 56.262,232.895 55.049,231.311 54.031 C 229.727 53.012,224.713 49.810,220.168 46.915 C 215.623 44.020,210.896 41.001,209.664 40.207 C 204.008 36.562,200.181 34.176,199.989 34.175 C 199.906 34.174,197.826 35.448,195.367 37.006 M211.485 70.694 C 219.883 72.328,226.215 74.478,232.773 77.924 C 246.945 85.370,258.521 97.988,264.721 112.745 C 268.706 122.231,269.862 128.292,269.877 139.776 C 269.889 149.001,269.958 148.365,268.026 156.863 C 265.922 166.120,261.766 174.957,255.930 182.578 C 253.894 185.236,253.181 186.054,250.427 188.889 C 243.678 195.836,235.840 201.264,227.731 204.607 C 226.730 205.019,225.532 205.524,225.070 205.728 C 223.913 206.239,218.976 207.813,217.554 208.124 C 210.617 209.644,209.253 209.827,203.221 210.047 C 194.945 210.349,190.908 209.978,182.542 208.148 C 181.139 207.841,175.631 206.072,174.650 205.613 C 174.342 205.469,173.144 204.959,171.989 204.481 C 149.509 195.175,133.477 173.455,130.224 147.899 C 129.744 144.127,130.071 131.911,130.750 128.291 C 131.509 124.240,133.916 115.910,134.877 114.006 C 135.413 112.945,135.938 111.672,136.023 111.230 C 136.373 109.396,140.620 102.241,144.102 97.619 C 155.424 82.591,173.813 72.071,192.017 70.207 C 195.080 69.893,209.183 70.246,211.485 70.694 " stroke="none" fill="#fadc05" fill-rule="evenodd"></path><path id="path1" d="M0.000 140.056 L 0.000 280.112 200.000 280.112 L 400.000 280.112 400.000 140.056 L 400.000 0.000 200.000 0.000 L 0.000 0.000 0.000 140.056 M201.523 34.431 C 201.841 34.726,203.007 35.514,204.114 36.182 C 205.222 36.849,207.869 38.522,209.997 39.899 C 218.248 45.239,219.295 45.910,221.172 47.050 C 223.100 48.222,223.744 48.632,229.115 52.101 C 230.666 53.102,232.923 54.552,234.131 55.322 C 235.340 56.092,236.694 56.967,237.142 57.266 C 238.407 58.112,242.050 60.452,246.499 63.277 C 248.732 64.695,251.821 66.663,253.361 67.650 C 260.639 72.311,262.671 73.597,264.122 74.459 C 265.693 75.393,266.800 76.111,271.167 79.030 C 272.466 79.899,274.170 80.971,274.954 81.411 C 275.738 81.852,277.061 82.665,277.895 83.218 C 282.340 86.162,285.139 87.955,285.289 87.955 C 285.382 87.955,285.610 88.086,285.796 88.246 C 286.415 88.778,291.139 91.790,294.787 93.978 C 295.300 94.286,296.022 94.755,296.390 95.020 C 297.950 96.144,306.078 101.401,306.256 101.401 C 306.301 101.401,308.123 102.567,310.305 103.992 C 312.487 105.417,315.105 107.087,316.122 107.703 C 317.140 108.319,319.322 109.706,320.970 110.784 C 323.764 112.613,325.643 113.817,330.752 117.055 C 334.085 119.167,337.807 121.553,340.196 123.110 C 341.429 123.913,343.508 125.224,344.818 126.024 C 348.259 128.125,350.750 129.740,351.661 130.462 C 352.099 130.809,352.547 131.092,352.658 131.092 C 352.770 131.092,354.258 132.006,355.966 133.123 C 357.674 134.240,360.654 136.162,362.587 137.395 C 366.819 140.093,366.822 140.104,363.655 142.037 C 359.858 144.356,354.156 148.148,353.776 148.606 C 353.587 148.834,353.279 149.020,353.091 149.020 C 352.903 149.020,352.004 149.509,351.094 150.107 C 349.480 151.169,346.895 152.813,343.613 154.866 C 342.719 155.425,340.231 157.036,338.084 158.445 C 335.936 159.855,333.138 161.614,331.865 162.354 C 330.593 163.094,328.818 164.210,327.920 164.833 C 325.621 166.430,323.364 167.891,321.569 168.946 C 320.721 169.444,319.965 169.933,319.888 170.033 C 319.811 170.133,318.866 170.748,317.787 171.400 C 314.599 173.327,313.159 174.237,310.680 175.888 C 309.390 176.748,308.125 177.577,307.869 177.731 C 306.552 178.523,302.735 180.933,301.228 181.925 C 300.286 182.546,298.910 183.431,298.171 183.894 C 297.431 184.356,296.356 185.049,295.782 185.434 C 295.209 185.819,294.126 186.506,293.378 186.959 C 291.620 188.024,285.883 191.730,284.519 192.682 C 283.495 193.396,281.677 194.532,279.444 195.854 C 277.803 196.826,277.596 196.956,275.485 198.349 C 274.409 199.059,272.584 200.241,271.429 200.977 C 270.273 201.713,268.025 203.149,266.433 204.169 C 264.840 205.188,262.824 206.472,261.951 207.022 C 261.078 207.572,258.915 208.968,257.143 210.124 C 253.631 212.415,249.870 214.820,249.092 215.272 C 248.821 215.430,247.465 216.312,246.078 217.232 C 244.692 218.153,243.431 218.954,243.277 219.012 C 243.123 219.070,242.346 219.543,241.549 220.063 C 240.753 220.583,240.015 221.008,239.909 221.008 C 239.803 221.008,239.257 221.366,238.696 221.802 C 238.134 222.239,237.486 222.684,237.255 222.792 C 237.024 222.900,235.700 223.745,234.314 224.670 C 232.927 225.595,231.249 226.693,230.585 227.111 C 229.921 227.529,228.436 228.470,227.285 229.202 C 226.134 229.933,225.102 230.537,224.991 230.544 C 224.881 230.550,224.354 230.928,223.820 231.384 C 223.287 231.840,222.760 232.213,222.649 232.213 C 222.539 232.213,221.667 232.749,220.711 233.403 C 218.851 234.678,218.863 234.670,216.529 236.099 C 215.680 236.619,214.267 237.533,213.389 238.130 C 212.511 238.727,211.719 239.216,211.629 239.216 C 211.449 239.216,207.825 241.513,206.723 242.325 C 206.338 242.609,205.329 243.245,204.482 243.737 C 203.634 244.230,202.482 244.990,201.920 245.426 C 200.145 246.805,199.941 246.731,193.277 242.299 C 191.043 240.813,188.081 238.917,186.695 238.086 C 185.308 237.255,183.831 236.298,183.413 235.960 C 182.994 235.622,181.940 234.924,181.071 234.410 C 180.201 233.895,179.084 233.221,178.588 232.913 C 178.092 232.605,177.278 232.101,176.778 231.793 C 176.279 231.485,174.140 230.098,172.025 228.711 C 169.910 227.325,167.371 225.686,166.383 225.070 C 165.395 224.454,163.799 223.445,162.836 222.829 C 161.872 222.213,159.689 220.826,157.983 219.748 C 156.278 218.669,153.484 216.868,151.776 215.745 C 150.067 214.622,148.275 213.503,147.794 213.258 C 147.313 213.014,145.091 211.616,142.857 210.153 C 140.623 208.690,138.075 207.036,137.194 206.477 C 136.313 205.919,135.008 205.084,134.293 204.622 C 133.578 204.160,131.652 202.938,130.012 201.908 C 127.147 200.107,120.722 195.979,115.126 192.345 C 112.588 190.696,107.763 187.645,106.069 186.616 C 104.105 185.425,101.190 183.569,100.556 183.106 C 100.173 182.828,99.167 182.173,98.319 181.651 C 97.472 181.129,96.401 180.439,95.938 180.116 C 95.476 179.794,94.531 179.176,93.838 178.744 C 93.144 178.312,91.281 177.119,89.696 176.094 C 88.112 175.069,86.769 174.230,86.712 174.230 C 86.655 174.230,85.367 173.394,83.850 172.372 C 82.334 171.351,80.714 170.303,80.252 170.044 C 79.790 169.785,78.908 169.266,78.291 168.891 C 77.675 168.516,76.841 168.019,76.438 167.788 C 76.035 167.556,74.018 166.248,71.956 164.880 C 69.894 163.512,67.766 162.109,67.227 161.763 C 64.672 160.121,60.202 157.265,58.748 156.345 C 55.925 154.559,53.176 152.795,49.860 150.640 C 48.088 149.489,46.008 148.191,45.238 147.756 C 44.468 147.322,43.585 146.757,43.277 146.501 C 42.528 145.879,38.130 143.138,37.876 143.134 C 37.765 143.133,36.923 142.567,36.004 141.877 C 35.085 141.187,34.212 140.582,34.063 140.533 C 33.371 140.302,34.424 139.319,37.457 137.368 C 39.272 136.200,41.663 134.658,42.772 133.939 C 43.881 133.221,45.319 132.318,45.969 131.933 C 46.618 131.548,48.089 130.602,49.239 129.832 C 51.601 128.248,51.715 128.176,53.641 127.034 C 54.412 126.577,56.014 125.570,57.202 124.797 C 59.815 123.095,64.004 120.417,66.106 119.107 C 66.954 118.578,67.962 117.912,68.347 117.627 C 68.732 117.342,70.245 116.386,71.709 115.504 C 73.172 114.622,75.000 113.439,75.770 112.875 C 76.541 112.312,77.612 111.624,78.151 111.347 C 78.690 111.070,80.392 110.022,81.933 109.019 C 83.473 108.015,85.301 106.840,85.994 106.409 C 86.688 105.977,87.633 105.359,88.095 105.035 C 90.155 103.590,94.259 100.937,95.128 100.487 C 95.652 100.216,96.892 99.439,97.882 98.761 C 98.873 98.083,99.943 97.446,100.262 97.345 C 100.580 97.244,100.840 97.040,100.840 96.891 C 100.840 96.742,101.067 96.530,101.345 96.420 C 101.979 96.167,106.624 93.283,111.202 90.299 C 113.129 89.044,115.399 87.576,116.246 87.039 C 117.094 86.502,118.732 85.449,119.888 84.700 C 121.043 83.950,122.211 83.210,122.482 83.055 C 123.360 82.554,126.829 80.308,130.275 78.011 C 132.124 76.779,133.978 75.580,134.396 75.348 C 135.658 74.646,137.278 73.649,139.636 72.125 C 140.868 71.329,142.696 70.159,143.697 69.527 C 144.699 68.894,145.648 68.265,145.807 68.128 C 145.966 67.991,146.974 67.362,148.048 66.730 C 149.122 66.097,150.530 65.194,151.179 64.723 C 151.827 64.251,152.480 63.866,152.629 63.866 C 152.779 63.866,153.073 63.694,153.283 63.484 C 153.492 63.274,154.699 62.454,155.965 61.661 C 157.230 60.868,159.092 59.653,160.103 58.961 C 161.113 58.269,161.999 57.703,162.072 57.703 C 162.144 57.703,163.064 57.136,164.116 56.443 C 165.169 55.749,166.098 55.182,166.181 55.182 C 166.265 55.182,167.534 54.373,169.002 53.385 C 170.469 52.397,172.530 51.067,173.580 50.430 C 175.991 48.967,175.747 49.123,180.835 45.798 C 185.753 42.585,191.415 38.926,192.105 38.515 C 192.364 38.361,193.687 37.511,195.046 36.625 C 196.404 35.739,197.582 35.014,197.663 35.014 C 197.744 35.014,198.131 34.762,198.523 34.454 C 199.424 33.745,200.774 33.735,201.523 34.431 M155.462 112.017 C 154.040 112.206,154.176 111.721,154.287 116.209 L 154.342 118.413 156.092 118.338 C 157.055 118.297,157.928 118.251,158.032 118.235 C 160.310 117.895,160.703 113.302,158.549 112.188 C 157.699 111.748,157.543 111.739,155.462 112.017 M162.939 113.823 C 162.852 114.925,162.804 116.394,162.833 117.087 L 162.885 118.347 165.384 118.429 C 168.180 118.520,168.690 118.417,168.457 117.809 C 168.338 117.498,167.743 117.369,166.151 117.308 L 164.006 117.227 164.006 116.387 C 164.006 115.572,164.048 115.545,165.406 115.497 C 166.176 115.469,166.964 115.438,167.157 115.427 C 168.381 115.355,167.358 114.565,166.036 114.562 C 162.790 114.552,162.922 113.066,166.180 112.943 C 168.356 112.861,169.502 112.097,167.577 112.010 C 167.153 111.991,165.972 111.941,164.952 111.898 L 163.097 111.820 162.939 113.823 M145.635 112.440 C 145.228 112.843,145.831 118.628,146.289 118.715 C 146.689 118.791,146.779 118.605,146.779 117.700 C 146.779 115.798,149.237 115.541,149.967 117.367 C 150.539 118.796,151.423 118.956,151.132 117.577 C 150.881 116.390,150.879 115.447,151.126 114.496 C 151.541 112.897,150.738 112.325,148.079 112.325 C 146.799 112.325,145.699 112.377,145.635 112.440 M171.707 113.375 C 171.706 113.953,171.582 115.182,171.430 116.106 C 171.279 117.031,171.227 118.014,171.316 118.293 C 171.600 119.187,172.125 118.623,172.269 117.268 C 172.457 115.500,172.880 115.511,173.357 117.297 C 173.717 118.641,174.790 119.512,174.790 118.460 C 174.790 118.290,174.998 117.714,175.251 117.179 C 175.797 116.029,176.180 116.364,176.186 117.997 C 176.194 119.864,176.958 119.320,177.170 117.297 C 177.585 113.361,177.528 112.745,176.751 112.745 C 176.151 112.745,175.953 112.997,175.369 114.502 C 174.557 116.593,174.196 116.596,173.779 114.511 C 173.270 111.973,171.711 111.117,171.707 113.375 M158.169 113.299 C 159.504 114.234,159.178 116.531,157.635 117.069 C 155.796 117.710,155.182 117.223,155.182 115.126 C 155.182 113.000,156.548 112.164,158.169 113.299 M138.179 113.586 C 136.646 114.660,136.685 117.369,138.254 118.746 C 140.248 120.497,142.843 118.961,142.856 116.023 C 142.864 114.020,139.822 112.435,138.179 113.586 M149.702 113.538 C 150.116 113.841,150.153 114.019,149.898 114.495 C 149.237 115.730,146.365 115.499,146.549 114.227 C 146.685 113.289,148.746 112.839,149.702 113.538 M141.156 115.024 C 141.918 115.992,141.891 116.958,141.080 117.769 C 139.826 119.023,138.325 118.194,138.273 116.219 C 138.224 114.319,140.017 113.576,141.156 115.024 M185.888 115.316 C 184.847 120.464,184.833 120.425,187.778 120.647 C 190.873 120.882,190.269 119.873,187.115 119.541 C 185.384 119.360,186.238 118.058,188.025 118.153 C 188.911 118.200,189.636 118.131,189.636 117.999 C 189.636 117.536,188.957 117.087,188.249 117.083 C 187.309 117.077,186.716 116.680,186.906 116.185 C 187.023 115.881,187.464 115.816,188.767 115.910 C 191.813 116.130,190.676 115.252,187.212 114.708 C 186.102 114.534,186.040 114.562,185.888 115.316 M199.291 116.877 C 198.476 119.059,197.848 122.460,198.232 122.608 C 198.705 122.789,199.149 122.251,199.155 121.490 C 199.162 120.762,199.873 120.603,201.472 120.972 C 205.070 121.802,205.785 118.153,202.241 117.043 C 200.379 116.460,199.466 116.409,199.291 116.877 M202.177 118.227 C 204.211 118.936,203.368 120.480,201.283 119.864 C 200.157 119.532,200.000 119.390,200.000 118.706 C 200.000 117.826,200.630 117.688,202.177 118.227 M207.612 118.978 C 207.143 119.896,206.121 124.138,206.273 124.535 C 206.535 125.217,206.947 124.968,207.293 123.919 C 207.619 122.931,207.652 122.912,208.759 123.089 C 210.307 123.336,210.364 123.396,210.364 124.776 C 210.364 125.566,210.503 126.044,210.761 126.143 C 211.252 126.331,211.485 125.767,211.485 124.390 C 211.485 123.692,211.674 123.165,212.045 122.829 C 213.355 121.644,212.590 119.837,210.562 119.326 C 209.914 119.162,209.094 118.907,208.740 118.758 C 207.903 118.406,207.905 118.405,207.612 118.978 M210.644 120.552 C 211.769 121.072,211.570 121.970,210.306 122.075 C 208.538 122.222,207.502 121.182,208.460 120.223 C 208.802 119.881,209.381 119.968,210.644 120.552 M166.036 120.366 C 166.383 120.433,166.950 120.433,167.297 120.366 C 167.644 120.299,167.360 120.244,166.667 120.244 C 165.973 120.244,165.690 120.299,166.036 120.366 M216.667 122.732 C 213.917 124.384,214.942 128.852,218.071 128.852 C 220.321 128.852,221.742 124.860,220.056 123.275 C 219.270 122.537,217.471 122.249,216.667 122.732 M219.331 124.440 C 220.048 125.616,220.033 125.835,219.163 126.869 C 217.884 128.389,216.246 127.669,216.246 125.588 C 216.246 123.717,218.401 122.915,219.331 124.440 M223.839 126.760 C 222.110 128.729,223.125 131.933,225.477 131.933 C 225.993 131.933,226.414 132.104,226.509 132.353 C 226.784 133.068,227.176 132.822,227.739 131.583 C 228.470 129.972,228.441 129.832,227.311 129.485 C 226.288 129.171,225.938 129.353,226.209 130.058 C 226.450 130.688,225.838 130.908,224.913 130.525 C 224.211 130.235,224.090 130.031,224.090 129.146 C 224.090 127.138,226.252 126.152,227.503 127.591 C 228.174 128.362,228.852 128.514,228.852 127.893 C 228.852 125.792,225.378 125.007,223.839 126.760 M140.208 126.591 C 140.119 126.735,140.194 126.943,140.375 127.055 C 140.572 127.177,140.628 127.136,140.515 126.954 C 140.407 126.779,140.596 126.599,140.962 126.529 C 141.592 126.408,141.592 126.407,140.983 126.369 C 140.645 126.348,140.297 126.448,140.208 126.591 M232.276 128.381 C 231.788 129.020,230.199 133.860,230.381 134.155 C 230.700 134.672,231.012 134.484,231.393 133.543 C 232.196 131.556,234.265 132.176,234.399 134.444 C 234.509 136.302,235.378 136.416,235.524 134.592 C 235.573 133.977,235.841 133.221,236.119 132.913 C 237.285 131.621,237.468 130.450,236.614 129.741 C 235.815 129.078,232.531 128.048,232.276 128.381 M234.902 130.144 C 235.902 130.619,236.138 131.349,235.469 131.904 C 235.043 132.257,232.493 131.350,232.493 130.845 C 232.493 129.647,233.337 129.402,234.902 130.144 M239.803 132.983 C 239.634 133.407,239.228 134.195,238.900 134.734 C 237.518 137.010,237.265 137.630,237.567 137.994 C 238.196 138.752,242.074 140.671,242.373 140.373 C 242.792 139.953,242.341 139.506,240.499 138.515 C 239.307 137.874,238.937 137.524,238.937 137.036 C 238.935 136.058,239.668 135.987,241.191 136.816 C 242.436 137.493,243.138 137.570,243.137 137.028 C 243.136 136.922,242.538 136.462,241.806 136.006 C 240.225 135.022,239.990 134.731,240.386 134.253 C 240.805 133.749,240.968 133.785,242.603 134.749 C 243.401 135.220,244.226 135.539,244.436 135.458 C 244.887 135.285,244.954 134.454,244.517 134.454 C 244.351 134.454,243.367 133.950,242.330 133.333 C 240.087 132.001,240.190 132.015,239.803 132.983 M247.517 137.835 C 246.501 138.634,247.197 141.097,248.590 141.632 C 249.396 141.941,249.277 143.417,248.447 143.417 C 247.969 143.417,246.499 141.941,246.499 141.462 C 246.499 141.184,246.299 140.880,246.056 140.786 C 245.402 140.535,245.378 140.554,245.378 141.321 C 245.378 143.238,248.807 145.044,250.146 143.832 C 250.980 143.077,250.828 142.416,249.424 140.693 C 248.292 139.303,248.196 139.079,248.567 138.708 C 249.091 138.184,250.420 138.915,250.420 139.726 C 250.420 140.311,250.939 140.896,251.457 140.896 C 252.644 140.896,251.469 138.636,249.853 137.811 C 248.500 137.121,248.424 137.122,247.517 137.835 M254.800 142.597 C 253.787 143.394,253.871 144.078,255.182 145.725 C 256.406 147.262,256.416 147.288,256.025 147.899 C 255.700 148.407,254.427 147.830,254.019 146.989 C 253.889 146.719,253.673 146.278,253.541 146.008 C 253.066 145.038,252.278 145.211,252.484 146.242 C 252.938 148.515,255.968 150.030,257.123 148.562 C 257.933 147.532,257.861 147.142,256.583 145.626 C 255.297 144.101,255.153 143.417,256.119 143.417 C 256.848 143.417,257.703 144.205,257.703 144.876 C 257.703 145.432,258.430 146.042,258.811 145.806 C 259.732 145.237,258.860 143.807,256.863 142.607 C 255.661 141.886,255.704 141.886,254.800 142.597 M262.045 148.240 C 258.597 150.230,260.346 155.469,263.955 153.961 C 266.616 152.849,266.794 148.910,264.215 148.194 C 262.916 147.833,262.743 147.837,262.045 148.240 M263.954 149.342 C 265.692 150.257,264.923 152.941,262.922 152.941 C 260.899 152.941,260.675 150.399,262.605 149.343 C 263.306 148.959,263.228 148.960,263.954 149.342 " stroke="none" fill="#049b3b" fill-rule="evenodd"></path><path id="path2" d="M193.475 70.461 C 169.466 72.830,148.654 86.935,137.792 108.197 L 136.109 111.493 137.592 111.339 C 138.408 111.254,140.714 110.988,142.717 110.746 C 152.798 109.530,175.482 110.065,185.294 111.750 C 186.218 111.909,188.487 112.298,190.336 112.616 C 203.267 114.836,218.961 119.752,230.952 125.339 C 243.944 131.392,255.118 138.310,266.642 147.434 C 267.938 148.460,269.079 149.300,269.177 149.300 C 269.333 149.300,269.944 142.247,269.990 139.916 C 270.544 112.144,252.060 85.453,224.790 74.646 C 222.824 73.866,222.455 73.751,217.787 72.450 C 210.401 70.393,201.525 69.666,193.475 70.461 M222.327 116.457 C 222.568 117.109,222.969 117.357,223.788 117.363 L 224.467 117.367 223.822 118.054 C 223.409 118.493,223.231 118.947,223.327 119.314 C 223.522 120.060,223.138 120.278,222.420 119.830 C 221.964 119.545,221.737 119.543,221.292 119.821 C 220.487 120.323,220.365 120.257,220.572 119.431 C 220.710 118.884,220.597 118.524,220.134 118.031 C 219.679 117.546,219.618 117.358,219.909 117.335 C 220.129 117.317,220.497 117.285,220.728 117.265 C 220.959 117.244,221.273 116.943,221.425 116.597 C 221.757 115.841,222.081 115.790,222.327 116.457 M150.840 120.469 C 144.984 120.813,135.453 121.910,132.877 122.537 C 130.814 123.040,129.450 142.690,130.912 150.840 C 134.883 172.977,146.452 189.676,165.686 201.035 C 165.994 201.217,167.444 201.946,168.908 202.656 C 170.371 203.366,171.797 204.073,172.077 204.228 C 177.193 207.059,191.615 210.082,200.000 210.082 C 227.277 210.082,254.356 192.369,264.053 168.183 C 267.022 160.778,266.911 161.412,265.476 160.058 C 256.290 151.388,239.385 140.419,225.910 134.384 C 223.043 133.100,218.134 131.060,216.667 130.542 C 209.236 127.921,208.110 127.551,203.922 126.355 C 202.766 126.025,201.443 125.642,200.980 125.504 C 188.031 121.643,166.937 119.524,150.840 120.469 M144.572 126.331 C 145.641 126.331,145.791 126.739,144.931 127.303 C 144.205 127.779,144.173 128.135,144.729 129.584 C 144.901 130.032,144.801 130.017,143.855 129.459 C 142.887 128.888,142.741 128.869,142.310 129.260 C 141.498 129.995,141.131 129.798,141.331 128.735 C 141.485 127.914,141.408 127.712,140.785 127.304 C 139.874 126.707,140.086 126.331,141.333 126.331 C 142.074 126.331,142.297 126.214,142.297 125.826 C 142.297 124.776,142.963 124.565,143.396 125.479 C 143.702 126.124,143.986 126.331,144.572 126.331 M219.683 135.294 C 219.947 135.602,220.353 135.854,220.585 135.854 C 221.135 135.854,221.132 136.307,220.581 136.519 C 220.292 136.629,220.208 136.895,220.320 137.342 C 220.476 137.964,220.411 138.002,219.186 138.002 C 218.059 138.002,217.904 137.933,218.022 137.483 C 218.096 137.198,217.980 136.787,217.762 136.570 C 217.224 136.032,217.257 135.943,218.067 135.739 C 218.452 135.643,218.768 135.377,218.768 135.149 C 218.768 134.575,219.114 134.630,219.683 135.294 M173.835 141.317 C 173.971 141.862,174.190 142.017,174.820 142.017 C 175.764 142.017,175.858 142.300,175.077 142.788 C 174.649 143.055,174.561 143.325,174.692 143.976 C 174.878 144.908,174.765 144.982,173.946 144.470 C 173.503 144.194,173.276 144.194,172.833 144.470 C 172.013 144.982,171.901 144.908,172.087 143.976 C 172.217 143.325,172.130 143.055,171.702 142.788 C 170.921 142.300,171.015 142.017,171.958 142.017 C 172.589 142.017,172.807 141.862,172.944 141.317 C 173.041 140.931,173.241 140.616,173.389 140.616 C 173.538 140.616,173.738 140.931,173.835 141.317 M200.560 150.000 C 200.747 150.492,201.037 150.700,201.534 150.700 C 202.392 150.700,202.422 150.884,201.662 151.499 C 201.174 151.894,201.129 152.088,201.375 152.735 C 201.700 153.588,201.454 153.714,200.556 153.154 C 200.114 152.877,199.886 152.877,199.444 153.154 C 198.546 153.714,198.300 153.588,198.625 152.735 C 198.871 152.088,198.826 151.894,198.338 151.499 C 197.578 150.884,197.608 150.700,198.466 150.700 C 198.963 150.700,199.253 150.492,199.440 150.000 C 199.586 149.615,199.838 149.300,200.000 149.300 C 200.162 149.300,200.414 149.615,200.560 150.000 M156.858 152.518 C 156.850 153.050,156.349 153.600,155.794 153.685 C 155.013 153.804,154.679 152.466,155.365 151.964 C 155.887 151.582,156.867 151.946,156.858 152.518 M149.599 154.972 C 149.915 155.690,150.206 155.912,150.976 156.022 L 151.953 156.162 151.116 156.770 C 150.343 157.333,150.304 157.441,150.600 158.225 C 151.009 159.307,150.850 159.444,149.851 158.870 C 149.095 158.437,148.991 158.439,148.185 158.915 L 147.326 159.423 147.504 158.310 C 147.665 157.305,147.605 157.147,146.889 156.680 L 146.095 156.162 147.198 156.022 C 148.155 155.901,148.335 155.762,148.561 154.972 C 148.704 154.471,148.906 154.062,149.010 154.062 C 149.114 154.062,149.379 154.471,149.599 154.972 M209.650 156.863 C 210.512 156.863,210.593 157.313,209.778 157.571 C 209.282 157.729,209.219 157.905,209.370 158.711 C 209.560 159.721,209.265 159.945,208.678 159.237 C 208.361 158.855,208.256 158.855,207.673 159.237 C 206.725 159.859,206.524 159.769,206.669 158.786 C 206.759 158.166,206.662 157.832,206.340 157.651 C 205.618 157.247,205.805 156.863,206.723 156.863 C 207.345 156.863,207.563 156.732,207.563 156.359 C 207.563 155.334,208.205 155.124,208.584 156.024 C 208.845 156.644,209.123 156.863,209.650 156.863 M193.358 156.303 C 193.446 156.638,193.741 156.863,194.091 156.863 C 194.704 156.863,194.880 157.265,194.398 157.563 C 194.244 157.658,194.118 158.107,194.118 158.560 C 194.118 159.487,194.054 159.523,193.281 159.041 C 192.847 158.770,192.659 158.770,192.388 159.041 C 191.827 159.602,191.600 159.435,191.771 158.584 C 191.888 157.996,191.807 157.736,191.466 157.605 C 190.884 157.382,191.170 156.863,191.874 156.863 C 192.163 156.863,192.479 156.611,192.577 156.303 C 192.675 155.994,192.858 155.742,192.983 155.742 C 193.109 155.742,193.278 155.994,193.358 156.303 M140.896 161.485 C 141.081 161.970,141.374 162.185,141.853 162.185 C 142.782 162.185,143.011 162.643,142.278 163.035 C 141.785 163.299,141.714 163.517,141.863 164.310 C 142.052 165.319,141.759 165.548,141.176 164.846 C 140.985 164.615,140.670 164.426,140.476 164.426 C 140.283 164.426,139.968 164.615,139.776 164.846 C 139.204 165.536,138.961 165.327,139.129 164.291 C 139.250 163.548,139.178 163.273,138.831 163.140 C 138.581 163.044,138.375 162.782,138.375 162.559 C 138.375 162.335,138.503 162.230,138.658 162.326 C 139.134 162.621,140.056 162.176,140.056 161.652 C 140.056 161.199,140.283 160.784,140.530 160.784 C 140.585 160.784,140.750 161.099,140.896 161.485 M197.145 161.585 C 197.831 162.020,197.266 163.212,196.375 163.212 C 195.716 163.212,195.588 163.094,195.586 162.488 C 195.584 161.481,196.313 161.058,197.145 161.585 M164.227 162.185 C 164.313 162.514,164.609 162.745,164.943 162.745 C 165.710 162.745,165.919 163.159,165.379 163.608 C 165.083 163.853,164.990 164.234,165.095 164.760 C 165.272 165.646,165.207 165.689,164.422 165.199 C 163.979 164.922,163.752 164.922,163.309 165.199 C 162.501 165.703,162.382 165.635,162.594 164.791 C 162.743 164.198,162.644 163.931,162.134 163.542 L 161.485 163.046 162.387 162.862 C 162.915 162.755,163.358 162.460,163.456 162.152 C 163.674 161.464,164.042 161.480,164.227 162.185 M249.580 162.541 C 249.908 163.248,250.199 163.465,250.910 163.533 C 252.015 163.640,252.027 163.715,251.060 164.546 C 250.382 165.130,250.336 165.278,250.630 165.923 C 251.039 166.822,250.600 167.196,249.890 166.554 C 249.270 165.993,248.631 165.983,248.179 166.527 C 247.605 167.219,247.303 167.005,247.485 166.033 C 247.626 165.280,247.525 164.996,246.912 164.422 L 246.167 163.725 247.234 163.585 C 248.150 163.465,248.338 163.317,248.561 162.535 C 248.884 161.401,249.050 161.402,249.580 162.541 M259.282 164.006 C 259.371 164.237,259.745 164.426,260.114 164.426 C 260.879 164.426,260.977 164.757,260.364 165.266 C 260.133 165.458,259.944 165.915,259.944 166.281 C 259.944 166.960,259.557 167.173,259.243 166.666 C 259.127 166.478,258.896 166.478,258.545 166.666 C 257.803 167.063,257.656 167.019,257.755 166.430 C 257.804 166.145,257.675 165.709,257.469 165.461 C 257.057 164.965,257.245 164.426,257.830 164.426 C 258.035 164.426,258.276 164.237,258.365 164.006 C 258.453 163.775,258.660 163.585,258.824 163.585 C 258.987 163.585,259.194 163.775,259.282 164.006 M252.381 169.328 C 252.588 169.873,252.845 170.028,253.543 170.028 L 254.439 170.028 253.795 170.714 C 253.350 171.188,253.193 171.621,253.287 172.115 C 253.433 172.878,253.014 173.070,252.445 172.501 C 252.193 172.249,251.947 172.249,251.395 172.501 C 250.392 172.957,250.353 172.934,250.556 172.008 C 250.699 171.355,250.618 171.124,250.158 170.878 C 249.325 170.432,249.447 170.028,250.415 170.028 C 251.072 170.028,251.287 169.879,251.426 169.328 C 251.522 168.943,251.717 168.627,251.858 168.627 C 251.999 168.627,252.235 168.943,252.381 169.328 M200.560 169.888 C 200.851 170.768,200.989 170.869,201.912 170.878 L 202.941 170.888 202.178 171.514 C 201.517 172.055,201.437 172.279,201.584 173.184 C 201.763 174.287,201.453 174.548,200.840 173.810 C 200.649 173.578,200.270 173.389,200.000 173.389 C 199.730 173.389,199.351 173.578,199.160 173.810 C 198.547 174.548,198.237 174.287,198.416 173.184 C 198.563 172.279,198.483 172.055,197.822 171.514 L 197.059 170.888 198.088 170.878 C 199.011 170.869,199.149 170.768,199.440 169.888 C 199.618 169.349,199.870 168.908,200.000 168.908 C 200.130 168.908,200.382 169.349,200.560 169.888 M162.084 169.608 C 162.172 169.839,162.546 170.028,162.915 170.028 C 163.680 170.028,163.778 170.359,163.165 170.868 C 162.934 171.060,162.745 171.517,162.745 171.883 C 162.745 172.562,162.358 172.775,162.044 172.268 C 161.928 172.080,161.697 172.080,161.346 172.268 C 160.585 172.676,160.421 172.618,160.583 171.999 C 160.662 171.697,160.550 171.303,160.335 171.124 C 159.773 170.658,159.853 170.028,160.474 170.028 C 160.766 170.028,161.077 169.839,161.166 169.608 C 161.254 169.377,161.461 169.188,161.625 169.188 C 161.788 169.188,161.995 169.377,162.084 169.608 M172.549 175.104 C 172.549 175.519,172.757 175.630,173.529 175.630 C 174.648 175.630,174.869 176.242,173.956 176.811 C 173.505 177.093,173.434 177.353,173.572 178.214 C 173.750 179.328,173.443 179.591,172.829 178.852 C 172.392 178.325,171.729 178.328,171.025 178.860 C 170.195 179.488,170.048 179.363,170.347 178.279 C 170.587 177.409,170.545 177.225,170.000 176.784 C 169.260 176.185,169.495 175.630,170.489 175.630 C 171.016 175.630,171.277 175.419,171.510 174.803 C 171.852 173.895,172.549 174.097,172.549 175.104 M248.298 174.855 C 248.472 175.204,248.894 175.530,249.237 175.580 C 249.965 175.684,250.054 176.056,249.409 176.304 C 249.061 176.437,249.000 176.699,249.142 177.454 C 249.343 178.525,249.165 178.642,248.280 178.022 C 247.773 177.667,247.626 177.666,247.167 178.013 C 246.362 178.623,246.156 178.514,246.360 177.585 C 246.509 176.905,246.417 176.631,245.892 176.194 L 245.238 175.649 246.001 175.640 C 246.566 175.633,246.881 175.405,247.212 174.764 C 247.689 173.843,247.800 173.852,248.298 174.855 M235.213 177.311 C 235.294 177.619,235.589 177.871,235.870 177.871 C 236.553 177.871,236.806 178.329,236.243 178.545 C 235.934 178.663,235.846 178.920,235.960 179.373 C 236.162 180.177,235.897 180.496,235.382 180.068 C 235.096 179.831,234.820 179.830,234.305 180.065 C 233.653 180.362,233.613 180.332,233.613 179.537 C 233.613 179.047,233.438 178.627,233.195 178.533 C 232.633 178.318,232.944 177.871,233.656 177.871 C 233.991 177.871,234.287 177.640,234.373 177.311 C 234.453 177.003,234.642 176.751,234.793 176.751 C 234.943 176.751,235.132 177.003,235.213 177.311 M215.767 177.871 C 215.855 178.206,216.150 178.431,216.500 178.431 C 217.101 178.431,217.310 179.100,216.807 179.412 C 216.653 179.507,216.527 179.864,216.527 180.205 C 216.527 180.742,216.376 180.825,215.406 180.825 C 214.436 180.825,214.286 180.742,214.286 180.205 C 214.286 179.864,214.160 179.507,214.006 179.412 C 213.524 179.114,213.698 178.708,214.426 178.431 C 214.811 178.285,215.126 177.973,215.126 177.738 C 215.126 177.117,215.596 177.215,215.767 177.871 M243.336 179.171 C 243.965 179.329,243.977 179.368,243.536 179.855 C 243.280 180.139,243.139 180.553,243.224 180.775 C 243.448 181.359,243.146 181.537,242.510 181.197 C 242.118 180.987,241.868 180.990,241.651 181.207 C 241.131 181.726,240.827 181.546,241.008 180.827 C 241.127 180.351,241.039 180.063,240.719 179.884 C 240.195 179.591,240.442 178.942,240.995 179.155 C 241.200 179.233,241.515 178.954,241.721 178.512 L 242.084 177.731 242.376 178.367 C 242.537 178.717,242.969 179.079,243.336 179.171 M228.307 180.112 C 228.957 180.112,229.032 180.621,228.416 180.857 C 228.154 180.957,228.015 181.284,228.066 181.676 C 228.150 182.315,227.956 182.422,227.222 182.140 C 227.019 182.062,226.710 182.141,226.536 182.316 C 226.011 182.841,225.699 182.675,225.877 181.965 C 225.983 181.542,225.892 181.169,225.628 180.950 C 225.049 180.470,225.106 180.112,225.760 180.112 C 226.063 180.112,226.452 179.848,226.625 179.524 L 226.940 178.937 227.351 179.524 C 227.578 179.848,228.008 180.112,228.307 180.112 M235.529 183.906 C 235.707 184.298,236.011 184.598,236.204 184.573 C 237.211 184.442,237.347 184.600,236.766 185.224 C 236.352 185.669,236.224 186.081,236.330 186.625 C 236.496 187.478,236.258 187.577,235.471 186.981 C 235.017 186.637,234.857 186.644,234.255 187.039 C 233.565 187.491,233.561 187.489,233.651 186.631 C 233.719 185.984,233.569 185.628,233.048 185.207 L 232.355 184.645 233.379 184.453 C 234.049 184.327,234.450 184.077,234.542 183.727 C 234.736 182.986,235.144 183.060,235.529 183.906 M221.404 185.574 C 221.528 186.069,221.770 186.275,222.228 186.275 C 223.155 186.275,223.335 186.582,222.679 187.042 C 222.216 187.365,222.146 187.623,222.299 188.436 L 222.486 189.433 221.610 188.915 C 220.925 188.511,220.660 188.472,220.395 188.737 C 219.852 189.279,219.608 189.134,219.608 188.270 C 219.608 187.826,219.419 187.307,219.188 187.115 C 218.566 186.599,218.676 186.275,219.475 186.275 C 219.971 186.275,220.261 186.066,220.448 185.574 C 220.595 185.189,220.830 184.874,220.971 184.874 C 221.112 184.874,221.307 185.189,221.404 185.574 M235.574 191.317 C 235.739 191.625,236.141 191.877,236.468 191.877 C 237.037 191.877,237.041 191.900,236.573 192.417 C 236.280 192.740,236.152 193.173,236.254 193.494 C 236.406 193.973,236.285 194.029,235.145 194.005 C 234.066 193.982,233.885 193.900,233.994 193.482 C 234.066 193.210,233.946 192.809,233.729 192.592 C 233.191 192.054,233.224 191.965,234.034 191.762 C 234.419 191.665,234.734 191.399,234.734 191.171 C 234.734 190.575,235.223 190.660,235.574 191.317 M200.500 194.354 C 200.988 194.664,200.621 195.518,200.000 195.518 C 199.379 195.518,199.012 194.664,199.500 194.354 C 199.698 194.229,199.923 194.126,200.000 194.126 C 200.077 194.126,200.302 194.229,200.500 194.354 " stroke="none" fill="#042573" fill-rule="evenodd"></path><path id="path3" d="M148.880 110.357 C 138.337 111.180,135.910 111.582,135.520 112.571 C 135.361 112.975,135.072 113.620,134.877 114.006 C 134.333 115.079,132.143 122.152,132.304 122.313 C 132.382 122.391,133.244 122.320,134.220 122.156 C 148.616 119.727,168.074 119.504,182.073 121.605 C 187.506 122.421,189.077 122.676,190.476 122.968 C 198.876 124.721,203.105 125.837,210.644 128.290 C 217.901 130.651,226.739 134.406,234.034 138.228 C 244.878 143.910,254.464 150.410,264.146 158.649 C 266.529 160.678,267.103 161.051,267.172 160.618 C 267.218 160.324,267.615 158.571,268.053 156.723 C 268.491 154.874,268.990 152.605,269.161 151.681 L 269.473 150.000 268.560 149.218 C 266.945 147.835,260.693 142.974,259.117 141.877 C 254.628 138.749,253.063 137.704,249.977 135.773 C 242.861 131.318,233.248 126.294,226.751 123.632 C 225.826 123.254,224.818 122.829,224.510 122.689 C 221.918 121.509,215.054 119.055,209.325 117.260 C 200.476 114.487,188.814 112.179,177.171 110.897 C 171.344 110.255,154.341 109.930,148.880 110.357 M158.814 112.180 C 160.415 113.008,160.654 116.322,159.211 117.678 C 158.612 118.241,158.153 118.361,156.281 118.446 L 154.062 118.547 154.062 115.156 L 154.062 111.765 156.036 111.765 C 157.233 111.765,158.327 111.928,158.814 112.180 M168.355 112.050 C 169.328 112.651,168.360 113.165,166.255 113.165 C 163.311 113.165,162.994 114.204,165.896 114.342 C 168.623 114.472,168.510 115.508,165.756 115.629 C 163.978 115.707,163.866 115.751,163.866 116.374 C 163.866 117.003,163.985 117.047,166.261 117.236 C 168.494 117.422,168.652 117.476,168.572 118.032 C 168.526 118.359,168.393 118.596,168.277 118.557 C 168.162 118.519,166.870 118.487,165.406 118.487 L 162.745 118.487 162.745 115.115 L 162.745 111.742 165.373 111.787 C 166.819 111.811,168.161 111.929,168.355 112.050 M150.764 112.535 C 151.487 113.359,151.611 114.227,151.140 115.170 C 150.850 115.753,150.793 116.161,150.973 116.378 C 151.122 116.558,151.280 117.137,151.323 117.666 C 151.434 119.039,150.482 119.025,150.037 117.647 C 149.731 116.700,149.673 116.667,148.319 116.667 L 146.919 116.667 146.977 117.691 C 147.035 118.699,146.413 119.383,145.926 118.847 C 145.289 118.145,145.349 112.368,145.995 112.244 C 147.802 111.899,150.341 112.053,150.764 112.535 M173.303 112.395 C 173.427 112.588,173.655 113.428,173.810 114.264 C 174.181 116.277,174.534 116.300,175.231 114.356 C 175.760 112.879,175.885 112.738,176.731 112.655 L 177.655 112.565 177.455 115.736 C 177.247 119.023,177.091 119.518,176.349 119.234 C 176.030 119.111,175.906 118.661,175.896 117.586 L 175.881 116.106 175.265 117.586 C 174.426 119.603,173.681 119.541,173.210 117.416 C 172.791 115.523,172.549 115.275,172.549 116.737 C 172.549 118.242,172.324 118.768,171.679 118.768 C 171.036 118.768,170.974 117.442,171.463 114.157 C 171.782 112.012,172.568 111.259,173.303 112.395 M142.087 114.046 C 143.417 115.632,142.960 118.528,141.257 119.304 C 137.692 120.928,135.129 115.624,138.375 113.341 C 139.458 112.579,141.122 112.896,142.087 114.046 M155.462 115.126 L 155.462 117.087 156.520 117.087 C 158.065 117.087,158.824 116.450,158.824 115.154 C 158.824 113.773,158.153 113.165,156.631 113.165 L 155.462 113.165 155.462 115.126 M146.978 113.619 C 146.369 114.229,146.793 115.126,147.689 115.122 C 149.269 115.116,149.898 114.835,149.805 114.179 C 149.718 113.573,147.470 113.128,146.978 113.619 M138.998 114.722 C 137.715 115.620,138.433 118.207,139.965 118.207 C 141.348 118.207,141.980 115.929,140.896 114.846 C 140.222 114.172,139.821 114.145,138.998 114.722 M190.697 115.253 C 191.313 115.870,190.370 116.251,188.661 116.076 C 186.302 115.834,185.910 116.612,188.235 116.920 C 189.487 117.086,189.636 117.180,189.636 117.797 C 189.636 118.565,189.681 118.553,188.016 118.231 C 186.995 118.034,186.775 118.076,186.542 118.512 C 186.199 119.152,186.713 119.458,188.585 119.729 C 189.649 119.884,189.916 120.031,189.916 120.465 C 189.916 121.112,189.551 121.136,186.846 120.672 L 184.885 120.336 185.047 119.202 C 185.136 118.578,185.321 117.626,185.460 117.087 C 185.598 116.548,185.712 115.770,185.713 115.359 C 185.714 114.949,185.857 114.565,186.031 114.507 C 186.380 114.391,190.492 115.048,190.697 115.253 M201.749 116.792 C 203.655 117.187,204.421 117.759,204.652 118.959 C 204.996 120.739,203.336 121.627,200.779 121.033 C 199.617 120.763,199.274 120.989,199.116 122.129 C 199.008 122.912,197.759 123.345,197.759 122.599 C 197.759 120.993,199.355 116.154,199.825 116.335 C 200.006 116.404,200.872 116.610,201.749 116.792 M221.487 116.807 C 221.388 117.185,221.105 117.367,220.614 117.367 C 219.732 117.367,219.703 117.548,220.485 118.181 C 220.991 118.591,221.033 118.759,220.756 119.276 C 220.381 119.977,220.703 120.084,221.565 119.545 C 221.999 119.274,222.187 119.274,222.458 119.545 C 223.009 120.096,223.324 119.942,223.140 119.211 C 223.008 118.686,223.143 118.404,223.740 117.959 L 224.510 117.385 223.492 117.376 C 222.714 117.369,222.440 117.235,222.328 116.807 C 222.247 116.499,222.058 116.246,221.908 116.246 C 221.757 116.246,221.568 116.499,221.487 116.807 M200.101 118.347 C 199.812 119.102,200.212 119.525,201.394 119.714 C 203.525 120.055,203.913 118.763,201.837 118.241 C 200.270 117.846,200.294 117.845,200.101 118.347 M210.256 119.078 C 212.998 119.925,213.763 121.486,212.170 122.983 C 211.659 123.463,211.501 123.836,211.615 124.292 C 211.890 125.385,211.496 126.372,210.825 126.276 C 210.317 126.203,210.245 126.029,210.317 125.049 C 210.413 123.731,210.111 123.383,208.631 123.106 C 207.622 122.918,207.595 122.936,207.413 123.902 C 207.220 124.931,206.776 125.309,206.189 124.946 C 205.628 124.599,207.329 118.487,207.986 118.487 C 208.183 118.487,209.204 118.753,210.256 119.078 M208.403 120.401 C 208.403 120.556,208.337 120.855,208.256 121.067 C 208.099 121.477,209.515 122.129,210.564 122.129 C 211.272 122.129,211.640 121.317,211.145 120.846 C 210.669 120.394,208.403 120.026,208.403 120.401 M220.140 123.138 C 222.712 126.407,218.651 130.959,215.809 127.993 C 213.760 125.854,215.173 122.409,218.099 122.409 C 219.347 122.409,219.653 122.518,220.140 123.138 M217.199 124.024 C 216.140 124.731,216.022 126.132,216.945 127.054 C 217.693 127.803,218.459 127.663,219.249 126.635 C 220.370 125.174,218.687 123.030,217.199 124.024 M142.496 125.625 C 142.102 126.451,141.877 126.612,141.111 126.621 L 140.196 126.631 141.019 127.304 C 141.773 127.920,141.813 128.040,141.499 128.730 C 141.050 129.716,141.199 129.814,142.238 129.218 C 143.060 128.745,143.117 128.747,143.678 129.254 C 144.420 129.926,144.638 129.711,144.249 128.689 C 143.975 127.967,144.021 127.832,144.727 127.319 L 145.510 126.751 144.534 126.611 C 143.730 126.495,143.505 126.309,143.262 125.555 L 142.966 124.640 142.496 125.625 M228.033 126.309 C 228.905 127.181,229.161 128.571,228.450 128.571 C 228.230 128.571,227.780 128.193,227.451 127.731 C 226.037 125.745,223.218 127.819,224.380 129.990 C 224.856 130.881,226.394 130.744,226.165 129.832 C 225.946 128.957,227.181 128.977,228.530 129.871 C 228.872 130.097,227.155 133.030,226.767 132.881 C 226.527 132.789,226.331 132.542,226.331 132.332 C 226.331 132.116,226.156 132.017,225.930 132.104 C 225.287 132.351,223.541 131.367,223.097 130.508 C 221.450 127.323,225.554 123.831,228.033 126.309 M235.014 128.823 C 237.431 129.745,238.090 131.516,236.485 132.778 C 235.894 133.242,235.703 133.646,235.668 134.511 C 235.617 135.759,235.264 136.290,234.645 136.053 C 234.340 135.936,234.274 135.576,234.382 134.616 C 234.523 133.362,234.505 133.326,233.519 132.914 C 232.119 132.329,231.994 132.364,231.531 133.473 C 231.128 134.437,230.467 134.749,230.097 134.149 C 229.994 133.982,230.126 133.320,230.392 132.679 C 230.992 131.233,231.554 129.799,231.933 128.750 C 232.261 127.842,232.454 127.846,235.014 128.823 M232.773 129.949 C 232.773 130.091,232.702 130.392,232.615 130.619 C 232.428 131.106,234.728 132.103,235.424 131.836 C 236.222 131.529,235.870 130.792,234.664 130.245 C 233.350 129.648,232.773 129.558,232.773 129.949 M242.927 133.488 C 246.065 135.317,245.915 136.623,242.759 134.947 C 240.096 133.533,239.133 134.306,241.736 135.768 C 242.583 136.244,243.137 136.748,243.137 137.045 C 243.137 137.739,242.453 137.654,240.860 136.765 C 239.676 136.103,239.443 136.054,239.213 136.415 C 238.715 137.193,238.929 137.483,240.744 138.498 C 242.792 139.644,243.043 139.915,242.573 140.481 C 242.108 141.041,237.255 138.451,237.255 137.642 C 237.255 137.062,240.133 132.212,240.473 132.218 C 240.629 132.221,241.733 132.792,242.927 133.488 M218.768 135.434 C 218.768 135.668,218.519 135.854,218.207 135.854 C 217.545 135.854,217.504 136.032,218.042 136.570 C 218.274 136.802,218.370 137.227,218.274 137.600 C 218.125 138.177,218.155 138.199,218.602 137.832 C 219.008 137.498,219.193 137.491,219.670 137.789 C 220.194 138.116,220.233 138.094,220.093 137.557 C 220.006 137.227,220.113 136.790,220.333 136.570 C 220.871 136.032,220.830 135.854,220.168 135.854 C 219.857 135.854,219.608 135.668,219.608 135.434 C 219.608 135.203,219.419 135.014,219.188 135.014 C 218.957 135.014,218.768 135.203,218.768 135.434 M250.140 137.842 C 251.792 138.829,252.679 140.506,251.827 141.033 C 251.411 141.289,250.420 140.659,250.420 140.138 C 250.420 139.501,249.597 138.655,248.976 138.655 C 248.141 138.655,248.375 139.481,249.580 140.789 C 251.954 143.364,250.053 145.728,247.104 143.866 C 245.557 142.889,244.617 141.190,245.266 140.542 C 245.582 140.226,246.779 140.985,246.779 141.502 C 246.779 142.185,247.757 143.137,248.459 143.137 C 249.340 143.137,249.130 142.339,247.899 141.004 C 245.605 138.515,247.289 136.140,250.140 137.842 M173.107 141.246 C 172.861 141.763,172.523 142.017,172.084 142.017 C 171.340 142.017,171.202 142.508,171.873 142.765 C 172.209 142.894,172.274 143.163,172.141 143.870 L 171.966 144.805 172.796 144.328 C 173.586 143.875,173.655 143.878,174.210 144.380 C 174.792 144.907,174.794 144.906,174.610 143.988 C 174.470 143.289,174.537 143.004,174.888 142.808 C 175.575 142.423,175.449 142.066,174.591 141.965 C 174.053 141.903,173.780 141.672,173.653 141.176 L 173.475 140.476 173.107 141.246 M257.136 142.573 C 258.427 143.232,259.104 144.106,259.104 145.114 C 259.104 146.509,257.912 146.336,257.617 144.898 C 257.362 143.652,255.742 142.977,255.742 144.117 C 255.742 144.329,256.131 144.921,256.606 145.431 C 258.049 146.980,258.273 147.889,257.423 148.739 C 256.358 149.805,254.611 149.375,253.011 147.655 C 252.309 146.900,252.122 145.098,252.745 145.098 C 253.261 145.098,253.782 145.683,253.782 146.264 C 253.782 147.272,255.688 148.386,256.146 147.645 C 256.233 147.505,255.799 146.752,255.183 145.972 C 253.033 143.253,254.265 141.109,257.136 142.573 M264.258 148.010 C 267.486 149.358,266.291 154.342,262.741 154.342 C 259.425 154.342,258.892 149.598,262.045 148.147 C 263.397 147.525,263.136 147.541,264.258 148.010 M199.720 149.804 C 199.720 150.470,199.185 150.978,198.473 150.989 C 197.916 150.998,197.915 151.010,198.427 151.398 C 198.830 151.703,198.913 152.005,198.778 152.681 L 198.601 153.565 199.330 153.087 C 199.858 152.741,200.145 152.694,200.366 152.915 C 200.891 153.440,201.330 153.261,201.199 152.574 C 201.127 152.196,201.260 151.774,201.518 151.559 C 201.997 151.162,202.137 150.558,201.686 150.837 C 201.237 151.114,200.280 150.443,200.280 149.850 C 200.280 149.547,200.154 149.300,200.000 149.300 C 199.846 149.300,199.720 149.527,199.720 149.804 M261.925 150.038 C 260.420 151.952,262.443 154.053,264.097 152.293 C 264.763 151.584,264.908 150.174,264.370 149.636 C 263.776 149.042,262.550 149.244,261.925 150.038 M155.505 152.170 C 154.986 152.689,155.114 153.472,155.711 153.427 C 156.542 153.364,156.978 152.463,156.343 152.122 C 155.990 151.934,155.727 151.949,155.505 152.170 M148.599 155.182 C 148.435 155.929,148.301 156.022,147.390 156.022 L 146.364 156.022 147.114 156.717 C 147.756 157.313,147.828 157.533,147.621 158.258 C 147.347 159.211,147.502 159.295,148.390 158.673 C 148.944 158.284,149.089 158.285,149.853 158.680 C 150.735 159.136,150.814 159.059,150.432 158.123 C 150.262 157.705,150.386 157.368,150.925 156.793 L 151.645 156.022 150.738 156.022 C 149.982 156.022,149.782 155.883,149.538 155.182 C 149.377 154.720,149.141 154.342,149.014 154.342 C 148.888 154.342,148.701 154.720,148.599 155.182 M207.913 155.784 C 207.721 155.977,207.563 156.298,207.563 156.499 C 207.563 156.721,207.208 156.866,206.653 156.872 L 205.742 156.881 206.403 157.432 C 206.901 157.847,207.021 158.155,206.888 158.683 C 206.690 159.472,206.784 159.525,207.539 159.053 C 207.962 158.789,208.211 158.816,208.778 159.188 L 209.487 159.652 209.333 158.705 C 209.205 157.913,209.288 157.696,209.842 157.388 C 210.502 157.019,210.500 157.017,209.536 156.870 C 208.819 156.761,208.528 156.555,208.415 156.078 C 208.294 155.562,208.193 155.504,207.913 155.784 M192.577 156.583 C 192.474 156.907,192.153 157.143,191.814 157.143 C 191.263 157.143,191.256 157.172,191.700 157.663 C 191.959 157.948,192.102 158.361,192.018 158.579 C 191.903 158.880,192.129 158.976,192.949 158.976 C 193.820 158.976,194.008 158.885,193.910 158.511 C 193.843 158.256,193.926 157.962,194.093 157.858 C 194.547 157.578,194.461 157.143,193.951 157.143 C 193.706 157.143,193.439 156.891,193.358 156.583 C 193.278 156.275,193.109 156.022,192.983 156.022 C 192.858 156.022,192.675 156.275,192.577 156.583 M140.253 161.241 C 140.145 161.349,140.056 161.669,140.056 161.951 C 140.056 162.342,139.838 162.467,139.146 162.474 L 138.235 162.484 138.875 163.017 C 139.370 163.430,139.473 163.720,139.327 164.299 C 139.150 165.005,139.175 165.027,139.773 164.707 C 140.253 164.451,140.577 164.445,141.104 164.686 C 141.766 164.987,141.793 164.967,141.620 164.277 C 141.480 163.723,141.589 163.424,142.077 163.017 L 142.717 162.484 141.956 162.474 C 141.431 162.468,141.079 162.244,140.822 161.755 C 140.617 161.364,140.361 161.133,140.253 161.241 M163.481 162.284 C 163.337 162.856,163.120 163.027,162.530 163.034 C 161.808 163.043,161.795 163.066,162.290 163.441 C 162.648 163.712,162.772 164.067,162.679 164.552 C 162.525 165.361,162.562 165.384,163.354 164.960 C 163.767 164.739,164.010 164.739,164.232 164.960 C 164.747 165.475,165.006 165.303,164.822 164.568 C 164.697 164.072,164.776 163.821,165.096 163.698 C 165.724 163.457,165.659 163.025,164.995 163.025 C 164.683 163.025,164.275 162.703,164.055 162.284 L 163.667 161.542 163.481 162.284 M195.859 161.972 C 195.473 162.436,195.752 162.887,196.549 163.089 C 197.070 163.220,197.152 163.134,197.104 162.507 C 197.041 161.690,196.342 161.390,195.859 161.972 M248.599 162.745 C 248.438 163.479,248.294 163.585,247.457 163.585 C 246.329 163.585,246.234 163.908,247.181 164.528 C 247.784 164.924,247.833 165.081,247.601 165.889 C 247.457 166.392,247.339 166.844,247.339 166.894 C 247.339 166.944,247.717 166.716,248.179 166.387 L 249.020 165.788 249.860 166.387 C 250.749 167.019,250.871 166.873,250.428 165.706 C 250.195 165.093,250.256 164.923,250.848 164.535 C 251.802 163.910,251.715 163.585,250.595 163.585 C 249.769 163.585,249.629 163.480,249.482 162.745 C 249.389 162.283,249.195 161.905,249.049 161.905 C 248.903 161.905,248.701 162.283,248.599 162.745 M258.575 164.086 C 258.393 164.427,258.059 164.706,257.833 164.706 C 257.354 164.706,257.287 165.149,257.726 165.420 C 257.892 165.523,257.952 165.912,257.859 166.284 C 257.703 166.905,257.736 166.931,258.256 166.606 C 258.716 166.319,258.936 166.322,259.420 166.625 C 259.983 166.976,260.007 166.955,259.834 166.266 C 259.703 165.744,259.773 165.487,260.077 165.370 C 260.694 165.133,260.602 164.706,259.935 164.706 C 259.603 164.706,259.270 164.447,259.136 164.086 L 258.907 163.466 258.575 164.086 M251.459 169.468 C 251.360 169.846,251.077 170.028,250.586 170.028 C 249.713 170.028,249.666 170.298,250.428 170.950 C 250.893 171.348,250.940 171.541,250.685 172.017 C 250.273 172.788,250.569 173.035,251.211 172.454 C 251.858 171.868,252.064 171.871,252.752 172.479 C 253.294 172.958,253.303 172.948,253.131 172.057 C 252.991 171.333,253.069 171.074,253.508 170.799 C 254.289 170.311,254.196 170.028,253.254 170.028 C 252.682 170.028,252.404 169.865,252.300 169.468 C 252.219 169.160,252.030 168.908,251.880 168.908 C 251.729 168.908,251.540 169.160,251.459 169.468 M161.474 169.559 C 161.361 169.841,160.939 170.196,160.536 170.349 C 159.863 170.605,159.846 170.651,160.318 170.915 C 160.687 171.122,160.783 171.394,160.661 171.883 C 160.504 172.507,160.536 172.534,161.057 172.208 C 161.518 171.921,161.737 171.924,162.222 172.227 C 162.784 172.578,162.808 172.557,162.635 171.868 C 162.504 171.347,162.574 171.089,162.878 170.972 C 163.495 170.736,163.403 170.308,162.736 170.308 C 162.404 170.308,162.065 170.045,161.924 169.678 C 161.701 169.100,161.664 169.090,161.474 169.559 M199.580 170.028 C 199.416 170.773,199.279 170.869,198.367 170.877 L 197.339 170.886 198.146 171.596 C 198.868 172.230,198.918 172.381,198.626 173.024 C 198.198 173.961,198.414 174.135,199.291 173.561 C 199.951 173.128,200.049 173.128,200.709 173.561 C 201.586 174.135,201.802 173.961,201.374 173.024 C 201.082 172.381,201.132 172.230,201.854 171.596 L 202.661 170.886 201.633 170.877 C 200.721 170.869,200.584 170.773,200.420 170.028 C 200.319 169.566,200.130 169.188,200.000 169.188 C 199.870 169.188,199.681 169.566,199.580 170.028 M171.514 175.070 C 171.274 175.705,171.020 175.910,170.473 175.910 C 169.609 175.910,169.553 176.207,170.291 176.875 C 170.726 177.269,170.780 177.507,170.563 178.078 C 170.206 179.015,170.384 179.138,171.264 178.562 C 171.945 178.115,172.032 178.115,172.713 178.562 C 173.592 179.137,173.832 178.978,173.374 178.123 C 173.075 177.564,173.123 177.410,173.772 176.852 C 174.704 176.050,174.697 175.910,173.725 175.910 C 172.825 175.910,172.269 175.461,172.269 174.734 C 172.269 173.957,171.867 174.136,171.514 175.070 M247.368 174.860 C 247.148 175.435,246.883 175.630,246.322 175.630 C 245.578 175.630,245.576 175.635,246.103 176.218 C 246.399 176.545,246.596 177.104,246.547 177.478 C 246.447 178.241,246.562 178.291,247.327 177.814 C 247.774 177.534,247.973 177.570,248.479 178.024 L 249.090 178.571 248.891 177.655 C 248.727 176.897,248.805 176.645,249.346 176.194 L 250.000 175.649 249.239 175.640 C 248.699 175.633,248.359 175.406,248.071 174.860 L 247.664 174.090 247.368 174.860 M234.373 177.591 C 234.280 177.946,233.986 178.154,233.570 178.160 C 232.969 178.168,232.957 178.194,233.427 178.467 C 233.793 178.680,233.892 178.959,233.772 179.439 C 233.589 180.167,233.861 180.313,234.398 179.776 C 234.659 179.514,234.809 179.514,235.070 179.776 C 235.555 180.261,235.944 180.189,235.738 179.651 C 235.638 179.392,235.767 178.963,236.031 178.671 C 236.475 178.181,236.468 178.151,235.917 178.151 C 235.578 178.151,235.257 177.916,235.154 177.591 C 235.056 177.283,234.873 177.031,234.748 177.031 C 234.622 177.031,234.453 177.283,234.373 177.591 M215.126 178.037 C 215.126 178.283,214.874 178.550,214.566 178.630 C 213.955 178.790,213.838 179.135,214.297 179.419 C 214.457 179.518,214.521 179.812,214.438 180.072 C 214.315 180.462,214.485 180.545,215.413 180.545 C 216.195 180.545,216.497 180.439,216.404 180.197 C 216.330 180.005,216.454 179.664,216.679 179.440 C 217.234 178.884,217.192 178.711,216.500 178.711 C 216.150 178.711,215.855 178.486,215.767 178.151 C 215.593 177.484,215.126 177.401,215.126 178.037 M241.771 178.647 C 241.587 178.992,241.171 179.272,240.843 179.272 C 240.274 179.272,240.270 179.295,240.738 179.812 C 241.060 180.168,241.162 180.558,241.035 180.956 C 240.862 181.502,240.901 181.530,241.441 181.241 C 241.769 181.065,242.295 181.003,242.610 181.103 C 243.066 181.248,243.163 181.175,243.089 180.741 C 243.039 180.442,243.170 179.990,243.382 179.735 C 243.717 179.331,243.696 179.272,243.214 179.272 C 242.911 179.272,242.537 178.991,242.384 178.647 L 242.105 178.023 241.771 178.647 M226.672 179.669 C 226.491 180.067,226.126 180.392,225.860 180.392 C 225.485 180.392,225.453 180.467,225.714 180.728 C 225.899 180.913,226.050 181.323,226.050 181.639 C 226.050 182.108,226.229 182.213,227.031 182.213 C 227.853 182.213,228.011 182.114,228.011 181.599 C 228.011 181.262,228.159 180.894,228.339 180.783 C 228.556 180.649,228.459 180.503,228.053 180.353 C 227.714 180.228,227.340 179.860,227.220 179.536 C 227.008 178.962,226.992 178.966,226.672 179.669 M234.586 183.824 C 234.428 184.454,234.237 184.594,233.534 184.594 L 232.675 184.594 233.275 185.232 C 233.675 185.658,233.820 186.076,233.711 186.492 C 233.534 187.168,233.865 187.311,234.390 186.786 C 234.641 186.535,234.894 186.537,235.463 186.797 C 236.362 187.207,236.560 187.070,236.158 186.318 C 235.906 185.847,235.978 185.658,236.593 185.174 L 237.330 184.594 236.452 184.594 C 235.969 184.594,235.574 184.492,235.574 184.367 C 235.574 183.521,234.773 183.080,234.586 183.824 M220.448 185.854 C 220.253 186.367,219.975 186.555,219.412 186.555 L 218.643 186.555 219.282 187.002 C 219.805 187.368,219.886 187.607,219.730 188.317 L 219.539 189.185 220.237 188.728 C 220.867 188.315,220.994 188.312,221.550 188.702 C 222.319 189.240,222.558 189.036,222.118 188.216 C 221.827 187.671,221.870 187.520,222.446 187.077 L 223.109 186.567 222.344 186.561 C 221.764 186.556,221.537 186.385,221.404 185.854 C 221.307 185.469,221.112 185.154,220.971 185.154 C 220.830 185.154,220.595 185.469,220.448 185.854 M234.857 191.246 C 234.748 191.610,234.446 191.877,234.141 191.877 C 233.577 191.877,233.431 192.291,233.894 192.577 C 234.048 192.672,234.174 193.059,234.174 193.436 C 234.174 194.043,234.236 194.083,234.711 193.787 C 235.139 193.519,235.348 193.533,235.740 193.854 C 236.187 194.221,236.217 194.200,236.068 193.623 C 235.972 193.250,236.067 192.824,236.299 192.592 C 236.829 192.063,236.797 191.877,236.177 191.877 C 235.893 191.877,235.521 191.593,235.352 191.246 L 235.045 190.616 234.857 191.246 M199.565 194.422 C 199.469 194.576,199.549 194.892,199.741 195.124 C 200.074 195.525,200.541 195.246,200.556 194.638 C 200.564 194.314,199.742 194.135,199.565 194.422 " stroke="none" fill="#e9f5f2" fill-rule="evenodd"></path><path id="path4" d="M198.523 34.454 C 198.131 34.762,197.744 35.014,197.663 35.014 C 197.582 35.014,196.404 35.739,195.046 36.625 C 193.687 37.511,192.364 38.361,192.105 38.515 C 191.415 38.926,185.753 42.585,180.835 45.798 C 175.747 49.123,175.991 48.967,173.580 50.430 C 172.530 51.067,170.469 52.397,169.002 53.385 C 167.534 54.373,166.265 55.182,166.181 55.182 C 166.098 55.182,165.169 55.749,164.116 56.443 C 163.064 57.136,162.144 57.703,162.072 57.703 C 161.999 57.703,161.113 58.269,160.103 58.961 C 159.092 59.653,157.230 60.868,155.965 61.661 C 154.699 62.454,153.492 63.274,153.283 63.484 C 153.073 63.694,152.779 63.866,152.629 63.866 C 152.480 63.866,151.827 64.251,151.179 64.723 C 150.530 65.194,149.122 66.097,148.048 66.730 C 146.974 67.362,145.966 67.991,145.807 68.128 C 145.648 68.265,144.699 68.894,143.697 69.527 C 142.696 70.159,140.868 71.329,139.636 72.125 C 137.278 73.649,135.658 74.646,134.396 75.348 C 133.978 75.580,132.124 76.779,130.275 78.011 C 126.829 80.308,123.360 82.554,122.482 83.055 C 122.211 83.210,121.043 83.950,119.888 84.700 C 118.732 85.449,117.094 86.502,116.246 87.039 C 115.399 87.576,113.129 89.044,111.202 90.299 C 106.624 93.283,101.979 96.167,101.345 96.420 C 101.067 96.530,100.840 96.742,100.840 96.891 C 100.840 97.040,100.580 97.244,100.262 97.345 C 99.943 97.446,98.873 98.083,97.882 98.761 C 96.892 99.439,95.652 100.216,95.128 100.487 C 94.259 100.937,90.155 103.590,88.095 105.035 C 87.633 105.359,86.688 105.977,85.994 106.409 C 85.301 106.840,83.473 108.015,81.933 109.019 C 80.392 110.022,78.690 111.070,78.151 111.347 C 77.612 111.624,76.541 112.312,75.770 112.875 C 75.000 113.439,73.172 114.622,71.709 115.504 C 70.245 116.386,68.732 117.342,68.347 117.627 C 67.962 117.912,66.954 118.578,66.106 119.107 C 64.004 120.417,59.815 123.095,57.202 124.797 C 56.014 125.570,54.412 126.577,53.641 127.034 C 51.715 128.176,51.601 128.248,49.239 129.832 C 48.089 130.602,46.618 131.548,45.969 131.933 C 45.319 132.318,43.881 133.221,42.772 133.939 C 41.663 134.658,39.272 136.200,37.457 137.368 C 34.424 139.319,33.371 140.302,34.063 140.533 C 34.212 140.582,35.085 141.187,36.004 141.877 C 36.923 142.567,37.765 143.133,37.876 143.134 C 38.130 143.138,42.528 145.879,43.277 146.501 C 43.585 146.757,44.468 147.322,45.238 147.756 C 46.008 148.191,48.088 149.489,49.860 150.640 C 53.176 152.795,55.925 154.559,58.748 156.345 C 60.202 157.265,64.672 160.121,67.227 161.763 C 67.766 162.109,69.894 163.512,71.956 164.880 C 74.018 166.248,76.035 167.556,76.438 167.788 C 76.841 168.019,77.675 168.516,78.291 168.891 C 78.908 169.266,79.790 169.785,80.252 170.044 C 80.714 170.303,82.334 171.351,83.850 172.372 C 85.367 173.394,86.655 174.230,86.712 174.230 C 86.769 174.230,88.112 175.069,89.696 176.094 C 91.281 177.119,93.144 178.312,93.838 178.744 C 94.531 179.176,95.476 179.794,95.938 180.116 C 96.401 180.439,97.472 181.129,98.319 181.651 C 99.167 182.173,100.173 182.828,100.556 183.106 C 101.190 183.569,104.105 185.425,106.069 186.616 C 107.763 187.645,112.588 190.696,115.126 192.345 C 120.722 195.979,127.147 200.107,130.012 201.908 C 131.652 202.938,133.578 204.160,134.293 204.622 C 135.008 205.084,136.313 205.919,137.194 206.477 C 138.075 207.036,140.623 208.690,142.857 210.153 C 145.091 211.616,147.313 213.014,147.794 213.258 C 148.275 213.503,150.067 214.622,151.776 215.745 C 153.484 216.868,156.278 218.669,157.983 219.748 C 159.689 220.826,161.872 222.213,162.836 222.829 C 163.799 223.445,165.395 224.454,166.383 225.070 C 167.371 225.686,169.910 227.325,172.025 228.711 C 174.140 230.098,176.279 231.485,176.778 231.793 C 177.278 232.101,178.092 232.605,178.588 232.913 C 179.084 233.221,180.201 233.895,181.071 234.410 C 181.940 234.924,182.994 235.622,183.413 235.960 C 183.831 236.298,185.308 237.255,186.695 238.086 C 188.081 238.917,191.043 240.813,193.277 242.299 C 199.941 246.731,200.145 246.805,201.920 245.426 C 202.482 244.990,203.634 244.230,204.482 243.737 C 205.329 243.245,206.338 242.609,206.723 242.325 C 207.825 241.513,211.449 239.216,211.629 239.216 C 211.719 239.216,212.511 238.727,213.389 238.130 C 214.267 237.533,215.680 236.619,216.529 236.099 C 218.863 234.670,218.851 234.678,220.711 233.403 C 221.667 232.749,222.539 232.213,222.649 232.213 C 222.760 232.213,223.287 231.840,223.820 231.384 C 224.354 230.928,224.881 230.550,224.991 230.544 C 225.102 230.537,226.134 229.933,227.285 229.202 C 228.436 228.470,229.921 227.529,230.585 227.111 C 231.249 226.693,232.927 225.595,234.314 224.670 C 235.700 223.745,237.024 222.900,237.255 222.792 C 237.486 222.684,238.134 222.239,238.696 221.802 C 239.257 221.366,239.803 221.008,239.909 221.008 C 240.015 221.008,240.753 220.583,241.549 220.063 C 242.346 219.543,243.123 219.070,243.277 219.012 C 243.431 218.954,244.692 218.153,246.078 217.232 C 247.465 216.312,248.821 215.430,249.092 215.272 C 249.870 214.820,253.631 212.415,257.143 210.124 C 258.915 208.968,261.078 207.572,261.951 207.022 C 262.824 206.472,264.840 205.188,266.433 204.169 C 268.025 203.149,270.273 201.713,271.429 200.977 C 272.584 200.241,274.409 199.059,275.485 198.349 C 277.596 196.956,277.803 196.826,279.444 195.854 C 281.677 194.532,283.495 193.396,284.519 192.682 C 285.883 191.730,291.620 188.024,293.378 186.959 C 294.126 186.506,295.209 185.819,295.782 185.434 C 296.356 185.049,297.431 184.356,298.171 183.894 C 298.910 183.431,300.286 182.546,301.228 181.925 C 302.735 180.933,306.552 178.523,307.869 177.731 C 308.125 177.577,309.390 176.748,310.680 175.888 C 313.159 174.237,314.599 173.327,317.787 171.400 C 318.866 170.748,319.811 170.133,319.888 170.033 C 319.965 169.933,320.721 169.444,321.569 168.946 C 323.364 167.891,325.621 166.430,327.920 164.833 C 328.818 164.210,330.593 163.094,331.865 162.354 C 333.138 161.614,335.936 159.855,338.084 158.445 C 340.231 157.036,342.719 155.425,343.613 154.866 C 346.895 152.813,349.480 151.169,351.094 150.107 C 352.004 149.509,352.903 149.020,353.091 149.020 C 353.279 149.020,353.587 148.834,353.776 148.606 C 354.156 148.148,359.858 144.356,363.655 142.037 C 366.822 140.104,366.819 140.093,362.587 137.395 C 360.654 136.162,357.674 134.240,355.966 133.123 C 354.258 132.006,352.770 131.092,352.658 131.092 C 352.547 131.092,352.099 130.809,351.661 130.462 C 350.750 129.740,348.259 128.125,344.818 126.024 C 343.508 125.224,341.429 123.913,340.196 123.110 C 337.807 121.553,334.085 119.167,330.752 117.055 C 325.643 113.817,323.764 112.613,320.970 110.784 C 319.322 109.706,317.140 108.319,316.122 107.703 C 315.105 107.087,312.487 105.417,310.305 103.992 C 308.123 102.567,306.301 101.401,306.256 101.401 C 306.078 101.401,297.950 96.144,296.390 95.020 C 296.022 94.755,295.300 94.286,294.787 93.978 C 291.139 91.790,286.415 88.778,285.796 88.246 C 285.610 88.086,285.382 87.955,285.289 87.955 C 285.139 87.955,282.340 86.162,277.895 83.218 C 277.061 82.665,275.738 81.852,274.954 81.411 C 274.170 80.971,272.466 79.899,271.167 79.030 C 266.800 76.111,265.693 75.393,264.122 74.459 C 262.671 73.597,260.639 72.311,253.361 67.650 C 251.821 66.663,248.732 64.695,246.499 63.277 C 242.050 60.452,238.407 58.112,237.142 57.266 C 236.694 56.967,235.340 56.092,234.131 55.322 C 232.923 54.552,230.666 53.102,229.115 52.101 C 223.744 48.632,223.100 48.222,221.172 47.050 C 219.295 45.910,218.248 45.239,209.997 39.899 C 207.869 38.522,205.222 36.849,204.114 36.182 C 203.007 35.514,201.841 34.726,201.523 34.431 C 200.774 33.735,199.424 33.745,198.523 34.454 M201.597 35.085 C 203.796 36.458,207.160 38.594,209.664 40.207 C 210.896 41.001,215.623 44.020,220.168 46.915 C 224.713 49.810,229.727 53.012,231.311 54.031 C 232.895 55.049,234.785 56.262,235.513 56.726 C 244.467 62.443,248.908 65.282,250.420 66.259 C 251.422 66.905,254.384 68.789,257.003 70.445 C 262.374 73.842,262.514 73.932,266.947 76.803 C 268.718 77.950,276.381 82.851,283.975 87.694 C 291.569 92.536,302.157 99.297,307.504 102.717 C 312.852 106.137,318.739 109.894,320.588 111.066 C 322.437 112.237,326.912 115.094,330.532 117.414 C 334.153 119.733,338.943 122.794,341.176 124.214 C 363.099 138.153,365.589 139.787,365.468 140.151 C 365.387 140.395,356.160 146.451,351.961 149.017 C 351.190 149.488,348.228 151.380,345.378 153.221 C 342.528 155.063,339.566 156.955,338.796 157.426 C 338.025 157.896,335.252 159.656,332.633 161.337 C 330.014 163.017,326.737 165.117,325.350 166.004 C 322.727 167.682,319.073 170.019,316.667 171.559 C 315.896 172.052,312.339 174.336,308.762 176.634 C 305.184 178.932,301.640 181.190,300.886 181.653 C 300.132 182.115,294.200 185.896,287.703 190.056 C 276.625 197.149,269.523 201.692,257.635 209.289 C 250.141 214.079,249.854 214.261,246.155 216.599 C 244.264 217.794,241.302 219.684,239.573 220.800 C 237.843 221.916,234.452 224.090,232.036 225.630 C 229.620 227.171,224.165 230.655,219.914 233.373 C 215.663 236.091,210.633 239.306,208.737 240.516 C 206.841 241.727,204.156 243.453,202.770 244.352 C 201.190 245.377,200.082 245.922,199.800 245.814 C 199.379 245.653,195.777 243.409,190.196 239.834 C 188.887 238.995,187.374 238.026,186.835 237.681 C 186.296 237.336,184.972 236.487,183.894 235.793 C 182.815 235.099,178.025 232.037,173.249 228.988 C 168.473 225.939,163.746 222.912,162.745 222.262 C 161.744 221.611,158.088 219.284,154.622 217.090 C 151.155 214.896,147.689 212.691,146.919 212.190 C 146.148 211.690,143.880 210.238,141.877 208.964 C 139.874 207.690,137.605 206.242,136.835 205.746 C 136.064 205.249,133.102 203.356,130.252 201.538 C 127.402 199.720,124.251 197.704,123.249 197.057 C 122.248 196.410,116.828 192.942,111.204 189.349 C 105.581 185.756,99.881 182.113,98.538 181.254 C 97.194 180.395,94.119 178.431,91.703 176.891 C 89.287 175.350,85.635 173.018,83.586 171.709 C 72.531 164.641,62.575 158.287,61.203 157.423 C 59.291 156.219,42.164 145.267,39.076 143.274 C 37.843 142.479,36.299 141.491,35.644 141.079 C 33.862 139.957,32.874 140.769,46.779 131.922 C 50.245 129.717,54.090 127.263,55.322 126.469 C 56.555 125.675,60.021 123.463,63.025 121.552 C 66.029 119.641,69.078 117.697,69.799 117.232 C 70.520 116.767,72.695 115.378,74.631 114.146 C 76.567 112.913,79.443 111.075,81.022 110.061 C 82.602 109.047,86.036 106.850,88.655 105.179 C 95.485 100.822,100.841 97.397,104.062 95.325 C 105.602 94.334,107.619 93.046,108.543 92.462 C 109.971 91.561,116.037 87.689,126.965 80.702 C 128.316 79.838,130.837 78.215,132.567 77.095 C 134.298 75.975,136.573 74.525,137.621 73.874 C 138.670 73.222,140.120 72.309,140.843 71.844 C 141.871 71.183,155.507 62.465,164.487 56.727 C 165.215 56.263,167.105 55.050,168.689 54.032 C 170.273 53.014,174.909 50.061,178.992 47.469 C 183.074 44.877,187.423 42.100,188.655 41.298 C 192.888 38.542,199.838 34.174,199.989 34.175 C 200.072 34.175,200.796 34.585,201.597 35.085 M192.157 70.213 C 190.346 70.389,185.866 71.207,184.594 71.594 C 183.901 71.804,183.648 71.922,184.034 71.856 C 188.086 71.155,192.214 70.557,194.398 70.355 C 196.952 70.118,196.980 70.109,195.098 70.113 C 194.020 70.116,192.696 70.161,192.157 70.213 M205.602 70.332 C 207.850 70.560,213.477 71.394,215.966 71.868 C 216.620 71.993,216.627 71.984,216.061 71.733 C 214.861 71.201,209.082 70.310,206.043 70.187 L 202.941 70.062 205.602 70.332 M178.992 73.003 C 174.251 74.561,168.097 77.154,168.406 77.463 C 168.469 77.526,170.043 76.897,171.904 76.066 C 174.970 74.696,178.063 73.582,181.933 72.455 C 182.808 72.200,183.071 72.045,182.633 72.041 C 182.248 72.038,180.609 72.471,178.992 73.003 M217.367 72.268 C 217.752 72.398,219.013 72.775,220.168 73.106 C 236.682 77.841,253.002 90.913,260.911 105.742 C 261.486 106.821,262.071 107.823,262.211 107.969 C 262.703 108.485,262.455 107.795,261.581 106.217 C 253.895 92.347,241.283 81.024,227.031 75.197 C 223.754 73.858,218.000 71.983,217.252 72.011 C 216.737 72.030,216.751 72.061,217.367 72.268 M164.270 79.633 C 152.496 86.719,143.232 96.605,137.337 108.378 C 135.869 111.310,135.768 111.792,136.641 111.732 C 137.068 111.703,137.066 111.687,136.624 111.572 C 135.732 111.338,140.342 103.033,144.214 97.899 C 149.659 90.679,159.429 82.224,166.381 78.714 C 167.933 77.931,168.392 77.584,167.857 77.596 C 167.742 77.599,166.127 78.515,164.270 79.633 M262.465 108.475 C 262.465 108.515,263.141 110.059,263.966 111.907 C 267.055 118.818,268.835 125.698,269.620 133.754 L 270.003 137.675 269.874 134.314 C 269.695 129.633,268.095 121.567,266.501 117.307 C 265.862 115.599,264.998 113.401,264.709 112.745 C 263.010 108.896,262.465 107.860,262.465 108.475 M143.207 110.837 C 143.477 110.908,143.918 110.908,144.188 110.837 C 144.457 110.767,144.237 110.709,143.697 110.709 C 143.158 110.709,142.938 110.767,143.207 110.837 M154.062 111.989 C 154.062 112.112,154.534 112.166,155.112 112.108 C 156.738 111.947,156.857 111.811,155.392 111.787 C 154.660 111.775,154.062 111.865,154.062 111.989 M162.825 113.025 C 162.827 113.796,162.882 114.077,162.946 113.652 C 163.010 113.226,163.009 112.596,162.942 112.251 C 162.876 111.907,162.823 112.255,162.825 113.025 M148.319 112.246 C 149.895 112.320,150.376 112.453,150.770 112.922 C 151.040 113.244,151.261 113.387,151.261 113.240 C 151.261 112.455,150.198 112.046,148.297 112.100 L 146.359 112.155 148.319 112.246 M168.347 112.407 C 168.347 112.780,167.960 112.876,166.176 112.943 C 164.145 113.020,164.003 113.066,163.968 113.660 C 163.937 114.188,163.952 114.199,164.058 113.730 C 164.171 113.226,164.408 113.165,166.275 113.165 C 168.271 113.165,169.153 112.757,168.522 112.126 C 168.426 112.030,168.347 112.156,168.347 112.407 M172.269 112.243 C 172.654 112.310,173.127 112.569,173.319 112.818 C 173.512 113.068,173.669 113.147,173.669 112.995 C 173.669 112.482,173.003 112.044,172.283 112.083 L 171.569 112.121 172.269 112.243 M139.822 113.127 C 140.386 113.249,141.206 113.575,141.643 113.851 L 142.437 114.353 141.848 113.738 C 141.466 113.340,140.824 113.084,140.027 113.013 C 138.837 112.907,138.830 112.911,139.822 113.127 M145.449 113.866 C 145.452 114.482,145.509 114.701,145.576 114.352 C 145.643 114.004,145.641 113.500,145.571 113.232 C 145.501 112.964,145.446 113.249,145.449 113.866 M156.236 113.083 C 156.584 113.150,157.088 113.148,157.356 113.078 C 157.624 113.008,157.339 112.953,156.723 112.956 C 156.106 112.959,155.887 113.016,156.236 113.083 M171.494 114.286 C 171.494 114.825,171.551 115.046,171.622 114.776 C 171.692 114.506,171.692 114.065,171.622 113.796 C 171.551 113.526,171.494 113.746,171.494 114.286 M155.266 115.126 C 155.266 115.973,155.319 116.320,155.383 115.896 C 155.447 115.473,155.447 114.779,155.383 114.356 C 155.319 113.932,155.266 114.279,155.266 115.126 M154.159 116.246 C 154.159 117.556,154.208 118.092,154.267 117.437 C 154.326 116.782,154.326 115.711,154.267 115.056 C 154.208 114.401,154.159 114.937,154.159 116.246 M160.015 114.986 C 160.018 115.602,160.075 115.821,160.142 115.473 C 160.209 115.124,160.207 114.620,160.136 114.352 C 160.066 114.085,160.012 114.370,160.015 114.986 M165.965 114.487 C 167.421 114.588,168.045 115.093,167.220 115.502 C 167.062 115.580,167.093 115.612,167.290 115.572 C 168.530 115.321,167.569 114.425,166.035 114.403 L 164.423 114.380 165.965 114.487 M189.566 115.135 C 190.679 115.486,190.741 115.889,189.706 116.046 L 188.936 116.163 189.715 116.205 C 191.217 116.285,191.129 115.214,189.615 114.990 L 188.655 114.848 189.566 115.135 M164.780 115.607 C 165.206 115.672,165.836 115.670,166.180 115.603 C 166.525 115.537,166.176 115.484,165.406 115.486 C 164.636 115.488,164.354 115.543,164.780 115.607 M171.213 116.246 C 171.213 116.786,171.271 117.006,171.342 116.737 C 171.412 116.467,171.412 116.026,171.342 115.756 C 171.271 115.487,171.213 115.707,171.213 116.246 M172.345 117.087 C 172.345 117.780,172.400 118.064,172.467 117.717 C 172.533 117.370,172.533 116.803,172.467 116.457 C 172.400 116.110,172.345 116.394,172.345 117.087 M148.113 116.445 C 148.461 116.512,148.965 116.509,149.233 116.439 C 149.501 116.369,149.216 116.314,148.599 116.317 C 147.983 116.320,147.764 116.378,148.113 116.445 M159.018 117.516 C 158.586 117.896,158.343 118.207,158.479 118.207 C 158.615 118.207,159.022 117.892,159.384 117.507 C 160.221 116.616,160.036 116.620,159.018 117.516 M176.023 117.995 C 176.058 119.503,177.151 119.831,177.197 118.347 C 177.222 117.554,177.217 117.551,177.109 118.277 C 176.932 119.474,176.241 119.230,176.109 117.925 L 175.995 116.803 176.023 117.995 M164.639 117.285 C 164.988 117.352,165.492 117.349,165.760 117.279 C 166.027 117.209,165.742 117.154,165.126 117.157 C 164.510 117.161,164.291 117.218,164.639 117.285 M204.093 118.207 C 204.700 119.459,204.886 119.655,204.627 118.768 C 204.514 118.382,204.241 117.878,204.019 117.647 C 203.728 117.342,203.748 117.496,204.093 118.207 M151.261 118.100 C 151.261 118.425,151.091 118.508,150.660 118.396 C 150.231 118.284,150.146 118.325,150.361 118.540 C 150.755 118.934,151.541 118.625,151.541 118.076 C 151.541 117.840,151.478 117.647,151.401 117.647 C 151.324 117.647,151.261 117.851,151.261 118.100 M173.478 118.347 C 173.517 118.728,173.759 118.922,174.233 118.953 C 174.817 118.992,174.831 118.978,174.317 118.866 C 173.980 118.793,173.640 118.520,173.563 118.260 C 173.461 117.920,173.437 117.944,173.478 118.347 M202.971 119.490 C 202.834 119.847,202.581 119.916,201.886 119.782 C 201.241 119.659,201.101 119.688,201.401 119.884 C 202.178 120.394,203.879 119.752,203.296 119.169 C 203.216 119.089,203.070 119.233,202.971 119.490 M152.455 120.369 C 152.881 120.433,153.511 120.432,153.855 120.365 C 154.200 120.299,153.852 120.246,153.081 120.248 C 152.311 120.250,152.029 120.305,152.455 120.369 M212.556 121.185 C 212.642 121.922,212.507 122.349,212.007 122.916 L 211.345 123.669 212.115 122.990 C 212.869 122.326,213.210 120.682,212.664 120.344 C 212.542 120.269,212.493 120.647,212.556 121.185 M144.471 120.926 C 144.819 120.993,145.324 120.991,145.592 120.921 C 145.859 120.851,145.574 120.796,144.958 120.799 C 144.342 120.802,144.123 120.859,144.471 120.926 M174.440 120.926 C 174.786 120.993,175.354 120.993,175.700 120.926 C 176.047 120.859,175.763 120.805,175.070 120.805 C 174.377 120.805,174.093 120.859,174.440 120.926 M188.449 120.926 C 188.797 120.993,189.301 120.991,189.569 120.921 C 189.837 120.851,189.552 120.796,188.936 120.799 C 188.319 120.802,188.100 120.859,188.449 120.926 M198.880 122.395 C 198.880 122.617,198.665 122.698,198.319 122.608 C 198.011 122.527,197.759 122.576,197.759 122.715 C 197.759 123.071,198.807 123.034,199.031 122.670 C 199.133 122.506,199.140 122.296,199.048 122.204 C 198.955 122.111,198.880 122.197,198.880 122.395 M131.568 124.440 C 130.227 130.145,130.111 131.446,130.127 140.616 C 130.138 146.900,130.239 149.641,130.480 150.140 C 130.792 150.787,130.808 150.755,130.685 149.720 C 129.685 141.298,130.894 123.698,132.544 122.651 C 132.833 122.468,132.819 122.417,132.479 122.413 C 132.170 122.410,131.908 122.993,131.568 124.440 M219.048 122.608 C 219.279 122.693,219.720 122.966,220.028 123.216 C 220.583 123.666,220.584 123.664,220.055 123.039 C 219.761 122.693,219.320 122.419,219.074 122.431 C 218.695 122.450,218.691 122.477,219.048 122.608 M215.442 123.626 C 215.270 123.833,215.066 124.432,214.989 124.957 L 214.848 125.910 215.152 124.930 C 215.320 124.391,215.587 123.792,215.746 123.599 C 215.905 123.407,215.972 123.249,215.895 123.249 C 215.818 123.249,215.614 123.419,215.442 123.626 M220.799 125.630 C 220.802 126.246,220.859 126.466,220.926 126.117 C 220.993 125.769,220.991 125.265,220.921 124.997 C 220.851 124.729,220.796 125.014,220.799 125.630 M225.420 125.688 C 225.767 125.755,226.334 125.755,226.681 125.688 C 227.027 125.621,226.744 125.566,226.050 125.566 C 225.357 125.566,225.074 125.621,225.420 125.688 M222.760 128.992 C 222.763 129.608,222.820 129.827,222.887 129.479 C 222.954 129.130,222.952 128.626,222.882 128.358 C 222.811 128.090,222.757 128.375,222.760 128.992 M236.605 132.289 L 236.096 133.193 236.708 132.592 C 237.045 132.262,237.275 131.855,237.218 131.688 C 237.161 131.522,236.886 131.792,236.605 132.289 M230.103 133.362 C 230.000 133.685,230.023 134.056,230.154 134.187 C 230.285 134.317,230.406 134.052,230.422 133.598 C 230.457 132.624,230.360 132.552,230.103 133.362 M244.595 135.307 C 244.378 135.653,244.360 135.854,244.544 135.854 C 244.704 135.854,244.910 135.660,245.001 135.422 C 245.253 134.765,244.981 134.688,244.595 135.307 M234.178 135.513 C 234.172 136.025,234.990 136.271,235.383 135.875 C 235.639 135.617,235.596 135.586,235.196 135.739 C 234.874 135.861,234.584 135.788,234.430 135.545 C 234.245 135.253,234.181 135.245,234.178 135.513 M217.989 137.238 C 217.976 137.710,218.005 138.095,218.053 138.095 C 218.271 138.095,218.399 137.004,218.216 136.709 C 218.103 136.526,218.003 136.761,217.989 137.238 M242.277 139.566 C 242.582 139.971,242.582 140.141,242.277 140.546 C 241.925 141.013,241.933 141.013,242.442 140.546 C 242.969 140.064,242.969 140.048,242.442 139.566 C 241.933 139.099,241.925 139.099,242.277 139.566 M251.754 139.925 C 251.843 140.389,251.749 140.780,251.509 140.947 C 251.188 141.172,251.193 141.200,251.541 141.106 C 252.035 140.973,252.267 139.830,251.879 139.442 C 251.707 139.270,251.662 139.444,251.754 139.925 M245.285 140.523 C 245.031 140.777,245.048 141.953,245.308 142.114 C 245.424 142.185,245.518 141.814,245.518 141.290 C 245.518 140.765,245.508 140.336,245.495 140.336 C 245.482 140.336,245.387 140.420,245.285 140.523 M257.143 142.655 C 257.143 142.708,257.553 143.052,258.053 143.418 C 258.617 143.831,258.812 143.898,258.566 143.596 C 258.193 143.136,257.143 142.442,257.143 142.655 M269.595 146.218 C 269.486 147.913,269.278 149.300,269.135 149.300 C 268.992 149.300,268.959 149.437,269.063 149.604 C 269.480 150.279,269.739 149.276,269.921 146.283 C 270.026 144.553,270.041 143.137,269.954 143.137 C 269.866 143.137,269.705 144.524,269.595 146.218 M250.120 143.862 C 249.870 144.163,249.415 144.274,248.709 144.207 C 248.135 144.152,247.726 144.204,247.799 144.323 C 248.075 144.770,249.778 144.533,250.280 143.978 C 250.559 143.669,250.720 143.417,250.638 143.417 C 250.556 143.417,250.323 143.617,250.120 143.862 M255.462 143.961 C 255.462 144.260,255.557 144.563,255.672 144.635 C 255.788 144.706,255.882 144.461,255.882 144.091 C 255.882 143.720,255.788 143.417,255.672 143.417 C 255.557 143.417,255.462 143.662,255.462 143.961 M257.223 148.358 C 256.662 149.218,256.653 149.282,257.134 149.024 C 257.614 148.767,258.174 147.701,257.939 147.492 C 257.886 147.445,257.564 147.834,257.223 148.358 M260.234 149.842 C 260.074 150.140,259.961 150.864,259.981 151.452 L 260.019 152.521 260.199 151.261 C 260.298 150.567,260.477 149.842,260.598 149.650 C 260.719 149.457,260.751 149.300,260.671 149.300 C 260.590 149.300,260.393 149.544,260.234 149.842 M199.351 150.246 C 199.265 150.472,198.903 150.712,198.547 150.780 C 197.945 150.895,197.942 150.907,198.495 150.942 C 199.080 150.980,199.940 150.267,199.654 149.981 C 199.574 149.901,199.438 150.021,199.351 150.246 M130.985 152.521 C 131.530 158.502,135.517 169.149,139.953 176.471 C 147.421 188.797,159.396 199.268,171.989 204.481 C 173.144 204.959,174.342 205.470,174.650 205.616 C 175.848 206.184,182.123 208.122,182.711 208.106 C 183.053 208.097,181.947 207.669,180.252 207.156 C 177.080 206.195,172.975 204.725,172.077 204.228 C 171.797 204.073,170.371 203.366,168.908 202.656 C 165.771 201.135,166.006 201.270,161.907 198.633 C 146.924 188.993,135.762 173.101,131.978 156.022 C 131.653 154.559,131.263 152.794,131.110 152.101 C 130.842 150.888,130.837 150.903,130.985 152.521 M266.464 161.695 C 266.418 162.366,266.472 162.495,266.670 162.185 C 266.990 161.683,267.033 160.784,266.737 160.785 C 266.621 160.785,266.499 161.195,266.464 161.695 M265.834 163.655 C 265.266 165.172,264.635 166.741,264.077 168.024 C 263.785 168.694,263.611 169.307,263.690 169.385 C 263.835 169.531,264.216 168.705,265.398 165.686 C 266.182 163.683,266.469 162.745,266.299 162.745 C 266.231 162.745,266.021 163.155,265.834 163.655 M263.202 169.969 C 262.913 170.437,262.476 171.709,262.605 171.709 C 262.815 171.709,263.636 169.986,263.494 169.843 C 263.421 169.770,263.290 169.827,263.202 169.969 M251.403 172.266 C 251.304 172.425,251.418 172.471,251.670 172.374 C 251.911 172.282,252.327 172.378,252.595 172.588 C 253.035 172.933,253.045 172.922,252.697 172.479 C 252.272 171.937,251.667 171.838,251.403 172.266 M261.484 173.458 C 253.305 188.673,237.205 202.066,221.660 206.585 C 220.806 206.833,220.176 207.104,220.260 207.188 C 220.416 207.344,223.563 206.387,225.070 205.726 C 225.532 205.523,226.730 205.019,227.731 204.607 C 235.840 201.264,243.678 195.836,250.427 188.889 C 253.181 186.054,253.894 185.236,255.930 182.578 C 258.514 179.203,262.701 172.412,262.390 172.100 C 262.327 172.038,261.919 172.648,261.484 173.458 M214.652 180.613 C 214.468 180.730,214.806 180.825,215.406 180.825 C 216.006 180.825,216.344 180.730,216.160 180.613 C 215.976 180.496,215.637 180.401,215.406 180.401 C 215.175 180.401,214.836 180.496,214.652 180.613 M217.087 207.852 C 214.343 208.619,210.911 209.226,206.863 209.662 L 203.221 210.054 206.355 209.915 C 209.626 209.770,218.529 208.179,219.608 207.546 C 220.304 207.138,219.135 207.280,217.087 207.852 M183.754 208.359 C 184.251 208.668,188.214 209.359,188.402 209.170 C 188.474 209.098,187.741 208.892,186.773 208.711 C 183.560 208.111,183.304 208.081,183.754 208.359 M188.873 209.415 C 188.968 209.509,190.974 209.757,193.332 209.966 C 198.206 210.399,198.461 210.413,198.284 210.235 C 198.165 210.116,190.108 209.244,189.130 209.244 C 188.895 209.244,188.779 209.321,188.873 209.415 " stroke="none" fill="#5d9a1d" fill-rule="evenodd"></path></g></svg>