<svg id="svg" version="1.1" xmlns="http://www.w3.org/2000/svg" xmlns:xlink="http://www.w3.org/1999/xlink" width="400" height="95.59748427672956" viewBox="0, 0, 400,95.59748427672956"><g id="svgg"><path id="path0" d="M89.848 47.321 C 89.719 47.402,89.514 47.431,89.392 47.384 C 89.269 47.337,89.126 47.438,89.073 47.608 C 89.019 47.778,88.909 48.043,88.827 48.197 C 88.745 48.351,88.675 52.049,88.670 56.414 C 88.661 64.723,88.670 64.828,89.363 64.836 C 89.531 64.838,89.526 64.875,89.342 64.991 C 89.153 65.111,89.198 65.168,89.550 65.257 C 89.798 65.319,90.000 65.420,90.000 65.482 C 90.000 65.688,90.530 65.704,97.917 65.725 C 104.620 65.744,106.420 65.699,106.240 65.518 C 106.205 65.483,106.417 65.333,106.713 65.185 C 107.008 65.037,107.251 64.842,107.253 64.750 C 107.254 64.658,107.307 64.503,107.370 64.404 C 107.553 64.116,107.507 48.191,107.322 48.077 C 107.234 48.022,107.192 47.926,107.230 47.863 C 107.310 47.731,107.009 47.452,106.660 47.335 C 106.209 47.184,90.087 47.170,89.848 47.321 " stroke="none" fill="#4c2484" fill-rule="evenodd"></path><path id="path1" d="M47.166 17.625 L 47.166 32.083 45.541 32.063 C 43.175 32.035,43.333 32.081,43.333 31.417 L 43.333 30.833 35.268 30.833 C 26.564 30.833,27.000 30.789,27.000 31.666 C 27.000 32.081,26.758 32.144,25.561 32.043 C 23.866 31.898,23.333 32.067,23.333 32.750 L 23.333 33.319 22.125 33.368 L 20.917 33.417 20.865 33.949 C 20.818 34.431,20.756 34.486,20.198 34.532 C 19.619 34.580,19.580 34.619,19.532 35.208 L 19.480 35.833 18.502 35.833 C 17.419 35.833,17.000 36.090,17.000 36.751 C 17.000 37.074,16.902 37.155,16.458 37.198 C 15.982 37.244,15.910 37.315,15.864 37.792 C 15.825 38.205,15.733 38.333,15.478 38.333 C 14.875 38.333,14.500 38.651,14.500 39.162 C 14.500 39.584,14.432 39.652,13.965 39.698 C 13.372 39.756,13.082 40.493,13.207 41.625 C 13.265 42.152,13.249 42.167,12.633 42.167 C 12.022 42.167,12.000 42.187,12.000 42.742 C 12.000 43.267,11.949 43.328,11.424 43.426 C 10.811 43.541,10.575 44.175,10.677 45.429 C 10.797 46.905,10.708 47.167,10.083 47.167 L 9.500 47.167 9.500 48.417 C 9.500 49.601,9.480 49.667,9.125 49.669 C 8.179 49.676,8.216 49.448,8.183 55.448 L 8.167 58.479 7.625 58.531 L 7.083 58.583 7.035 60.142 C 6.983 61.829,7.106 62.167,7.770 62.167 L 8.167 62.167 8.189 65.542 C 8.201 67.398,8.220 69.367,8.231 69.917 L 8.250 70.917 8.870 70.968 L 9.489 71.019 9.536 72.885 L 9.583 74.750 10.125 74.802 C 10.724 74.860,10.675 74.685,10.725 76.965 C 10.753 78.250,10.894 78.492,11.615 78.497 C 11.916 78.500,11.989 78.610,12.032 79.125 C 12.080 79.715,12.118 79.753,12.702 79.801 C 13.276 79.849,13.315 79.886,13.235 80.301 C 13.057 81.221,13.376 82.052,13.964 82.204 C 14.438 82.327,14.500 82.410,14.500 82.921 C 14.500 83.466,14.533 83.500,15.054 83.500 C 15.555 83.500,15.622 83.559,15.762 84.125 C 15.896 84.667,15.988 84.757,16.449 84.801 C 16.912 84.846,16.987 84.922,17.032 85.385 C 17.079 85.868,17.140 85.921,17.708 85.968 C 18.275 86.015,18.333 86.065,18.333 86.504 C 18.333 87.129,18.721 87.333,19.906 87.333 L 20.833 87.333 20.833 87.897 C 20.833 88.551,21.065 88.661,22.458 88.664 C 23.277 88.667,23.333 88.693,23.333 89.077 C 23.333 89.710,23.793 89.833,26.156 89.833 L 28.333 89.833 28.333 90.397 C 28.333 91.167,28.318 91.165,33.750 91.145 C 39.209 91.124,39.381 91.102,39.500 90.415 L 39.586 89.917 41.418 89.833 L 43.250 89.750 43.302 89.208 C 43.354 88.674,43.366 88.667,44.219 88.664 C 45.601 88.661,45.833 88.550,45.833 87.897 C 45.833 87.350,45.854 87.333,46.500 87.333 L 47.167 87.333 47.167 86.667 L 47.167 86.000 47.833 86.000 C 48.484 86.000,48.500 85.986,48.500 85.417 C 48.500 84.861,48.528 84.833,49.083 84.833 C 49.603 84.833,49.669 84.783,49.689 84.375 C 49.708 83.990,49.724 83.976,49.784 84.286 C 49.835 84.552,50.014 84.685,50.420 84.762 L 50.986 84.868 51.034 85.976 C 51.083 87.080,51.085 87.084,51.667 87.271 C 52.116 87.416,52.269 87.569,52.334 87.938 C 52.413 88.390,52.480 88.425,53.542 88.568 C 54.447 88.690,54.667 88.776,54.667 89.013 C 54.667 89.875,54.245 89.833,62.934 89.833 L 71.000 89.833 71.000 83.093 C 71.000 77.884,70.953 76.322,70.792 76.218 C 70.677 76.144,69.683 76.068,68.583 76.048 C 67.483 76.029,66.452 76.010,66.292 76.007 C 66.015 76.000,66.000 74.152,66.000 39.583 L 66.000 3.167 56.583 3.167 L 47.167 3.167 47.166 17.625 M129.041 36.958 L 129.083 70.750 129.625 70.909 L 130.167 71.069 130.195 73.409 C 130.210 74.697,130.229 76.350,130.236 77.083 L 130.250 78.417 130.875 78.468 L 131.500 78.520 131.500 80.326 C 131.500 82.225,131.545 82.333,132.325 82.333 C 132.572 82.333,132.643 82.532,132.737 83.483 L 132.850 84.633 133.425 84.741 C 133.879 84.826,134.000 84.928,134.000 85.224 C 134.000 85.729,134.302 86.000,134.867 86.000 C 135.273 86.000,135.333 86.064,135.333 86.494 C 135.333 87.115,135.714 87.333,136.793 87.333 C 137.596 87.333,137.610 87.342,137.762 87.958 L 137.917 88.583 139.115 88.632 L 140.313 88.681 140.365 89.215 L 140.417 89.750 149.793 89.793 L 159.170 89.836 159.127 82.376 L 159.083 74.917 154.718 74.872 L 150.353 74.828 150.302 74.206 C 150.252 73.603,150.230 73.584,149.625 73.602 L 149.000 73.621 149.000 72.311 L 149.000 71.000 148.417 71.000 L 147.833 71.000 147.833 37.083 L 147.833 3.167 138.416 3.167 L 128.999 3.167 129.041 36.958 M356.708 40.792 L 356.750 78.417 357.292 78.469 C 357.886 78.526,357.901 78.572,357.849 80.250 C 357.809 81.540,358.012 82.044,358.635 82.205 C 359.104 82.327,359.167 82.411,359.167 82.921 C 359.167 83.485,359.184 83.500,359.829 83.500 C 360.461 83.500,360.488 83.521,360.407 83.958 C 360.215 85.001,360.541 85.912,361.129 85.969 C 361.569 86.012,361.667 86.093,361.667 86.415 C 361.667 87.079,362.086 87.333,363.179 87.333 L 364.167 87.333 364.167 87.899 C 364.167 88.576,364.344 88.667,365.670 88.667 L 366.646 88.667 366.698 89.208 L 366.750 89.750 376.125 89.793 L 385.500 89.836 385.500 82.335 L 385.500 74.833 381.083 74.833 L 376.667 74.833 376.667 74.155 C 376.667 73.553,376.624 73.480,376.292 73.507 C 375.500 73.571,375.500 73.571,375.500 71.930 C 375.500 69.974,375.448 69.833,374.732 69.833 L 374.167 69.833 374.167 36.500 L 374.167 3.167 365.416 3.167 L 356.666 3.167 356.708 40.792 M187.417 29.622 C 187.008 29.724,186.839 29.967,186.836 30.458 C 186.833 30.830,186.814 30.833,184.343 30.833 L 181.853 30.833 181.802 31.447 L 181.750 32.060 180.032 32.078 C 178.205 32.097,178.008 32.182,178.003 32.958 C 178.000 33.307,177.927 33.333,176.950 33.333 C 175.820 33.333,175.500 33.506,175.500 34.117 C 175.500 34.425,175.409 34.500,175.033 34.500 C 174.441 34.500,174.167 34.774,174.167 35.367 C 174.167 35.789,174.111 35.833,173.583 35.833 C 173.032 35.833,173.000 35.864,173.000 36.394 L 173.000 36.954 171.792 37.102 C 170.585 37.250,170.583 37.251,170.531 37.792 C 170.493 38.189,170.397 38.333,170.170 38.333 C 169.588 38.333,169.342 38.533,169.238 39.090 C 169.148 39.567,169.057 39.655,168.608 39.699 L 168.083 39.750 168.034 40.958 L 167.985 42.167 167.326 42.167 C 166.689 42.167,166.667 42.186,166.667 42.726 C 166.667 43.214,166.598 43.305,166.125 43.440 C 165.608 43.589,165.578 43.642,165.468 44.631 C 165.331 45.869,165.263 46.000,164.758 46.000 C 164.239 46.000,164.167 46.254,164.167 48.086 L 164.167 49.646 163.632 49.698 C 162.867 49.772,162.782 50.364,162.904 54.792 L 163.005 58.500 162.330 58.500 L 161.655 58.500 161.703 60.292 L 161.750 62.083 162.377 62.135 L 163.005 62.187 162.903 65.885 C 162.782 70.302,162.867 70.894,163.632 70.969 L 164.167 71.021 164.167 72.644 C 164.167 74.363,164.282 74.667,164.938 74.667 C 165.267 74.667,165.321 74.777,165.415 75.625 C 165.473 76.152,165.535 76.696,165.553 76.833 C 165.573 76.983,165.799 77.104,166.117 77.135 C 166.597 77.181,166.653 77.245,166.699 77.802 C 166.747 78.381,166.786 78.420,167.375 78.468 C 167.983 78.519,168.000 78.538,168.000 79.177 C 168.000 79.816,168.015 79.833,168.583 79.833 C 169.180 79.833,169.255 79.948,169.172 80.731 C 169.096 81.438,169.345 82.167,169.661 82.167 C 170.214 82.167,170.500 82.360,170.500 82.734 C 170.500 83.327,170.829 83.500,171.950 83.500 L 173.000 83.500 173.000 84.167 C 173.000 84.817,173.014 84.833,173.583 84.833 C 174.047 84.833,174.167 84.899,174.167 85.153 C 174.167 85.903,174.320 86.000,175.497 86.000 L 176.624 86.000 176.731 86.667 L 176.837 87.333 178.075 87.333 L 179.313 87.333 179.365 87.958 L 179.417 88.583 180.615 88.632 L 181.813 88.681 181.865 89.215 L 181.917 89.750 184.958 89.795 L 188.000 89.841 188.000 90.242 C 188.000 91.142,188.135 91.167,193.083 91.167 C 198.032 91.167,198.167 91.142,198.167 90.242 L 198.167 89.841 201.208 89.795 L 204.250 89.750 204.302 89.215 L 204.353 88.680 205.635 88.632 L 206.917 88.583 206.968 87.965 L 207.019 87.348 208.218 87.299 L 209.417 87.250 209.468 86.632 L 209.519 86.014 210.718 85.965 L 211.917 85.917 211.969 85.375 C 212.017 84.879,212.070 84.833,212.594 84.833 C 213.151 84.833,213.167 84.815,213.167 84.167 L 213.167 83.500 214.217 83.500 C 215.338 83.500,215.667 83.327,215.667 82.734 C 215.667 82.363,215.953 82.167,216.493 82.167 C 216.822 82.167,217.000 81.576,217.000 80.479 C 217.000 79.852,217.017 79.833,217.583 79.833 C 218.153 79.833,218.167 79.817,218.167 79.167 L 218.167 78.500 218.833 78.500 L 219.500 78.500 219.500 77.260 L 219.500 76.020 220.125 75.968 L 220.750 75.917 220.799 74.708 L 220.848 73.500 221.424 73.500 L 222.000 73.500 222.000 71.593 L 222.000 69.687 222.625 69.635 L 223.250 69.583 223.294 60.417 C 223.341 50.371,223.385 50.833,222.385 50.833 C 222.006 50.833,222.000 50.804,222.000 49.000 L 222.000 47.167 221.424 47.167 L 220.848 47.167 220.799 45.958 L 220.750 44.750 220.132 44.699 L 219.514 44.647 219.465 43.449 L 219.417 42.250 218.792 42.198 C 218.182 42.148,218.167 42.130,218.167 41.479 C 218.167 40.827,218.155 40.813,217.625 40.864 L 217.084 40.917 216.970 39.767 C 216.852 38.578,216.698 38.340,216.042 38.336 C 215.765 38.334,215.666 38.235,215.664 37.958 C 215.660 37.332,215.463 37.206,214.292 37.081 L 213.167 36.961 213.167 36.397 C 213.167 35.864,213.135 35.833,212.583 35.833 C 212.048 35.833,212.000 35.793,212.000 35.339 C 212.000 34.705,211.618 34.500,210.438 34.500 C 209.525 34.500,209.521 34.497,209.469 33.958 C 209.421 33.464,209.362 33.412,208.792 33.365 C 208.276 33.322,208.166 33.249,208.164 32.948 C 208.159 32.186,207.964 32.105,206.104 32.094 L 204.349 32.083 204.299 31.500 L 204.250 30.917 201.208 30.871 L 198.167 30.826 198.167 30.363 C 198.167 29.502,198.143 29.499,192.758 29.519 C 190.004 29.530,187.600 29.576,187.417 29.622 M254.083 29.635 C 253.677 29.721,253.506 29.963,253.503 30.458 C 253.500 30.829,253.473 30.833,251.200 30.833 C 248.768 30.833,248.500 30.910,248.500 31.609 C 248.500 31.961,248.420 31.989,247.292 32.034 L 246.083 32.083 246.032 32.708 L 245.980 33.333 244.761 33.333 L 243.542 33.333 243.438 33.850 C 243.381 34.135,243.368 34.421,243.409 34.487 C 243.449 34.553,243.280 34.580,243.033 34.548 C 241.931 34.403,241.087 34.718,241.031 35.295 C 240.982 35.802,240.940 35.833,240.323 35.833 C 239.687 35.833,239.667 35.851,239.667 36.402 C 239.667 36.936,239.626 36.978,239.000 37.083 C 238.374 37.189,238.333 37.231,238.333 37.765 C 238.333 38.303,238.303 38.333,237.750 38.333 C 237.181 38.333,237.167 38.349,237.167 39.000 L 237.167 39.667 236.482 39.667 C 235.799 39.667,235.797 39.668,235.864 40.242 C 235.929 40.795,235.908 40.819,235.341 40.867 C 234.789 40.913,234.747 40.958,234.698 41.542 C 234.651 42.109,234.602 42.167,234.162 42.167 C 233.538 42.167,233.333 42.555,233.333 43.739 L 233.333 44.667 232.750 44.667 C 232.219 44.667,232.167 44.710,232.167 45.143 C 232.167 46.490,231.966 47.167,231.567 47.167 C 230.959 47.167,230.833 47.651,230.833 49.989 L 230.833 52.167 230.271 52.167 C 229.491 52.167,229.500 52.069,229.500 60.427 C 229.500 68.253,229.525 68.500,230.329 68.500 L 230.833 68.500 230.833 70.738 C 230.833 73.103,230.952 73.500,231.663 73.500 C 231.918 73.500,231.992 73.699,232.109 74.708 C 232.250 75.916,232.250 75.917,232.792 75.969 L 233.333 76.021 233.333 76.999 C 233.333 78.085,233.590 78.500,234.262 78.500 C 234.611 78.500,234.667 78.578,234.667 79.066 C 234.667 79.643,234.876 79.833,235.514 79.833 C 235.768 79.833,235.833 79.953,235.833 80.417 C 235.833 80.985,235.851 81.000,236.490 81.000 C 237.128 81.000,237.148 81.017,237.198 81.625 C 237.245 82.193,237.299 82.255,237.782 82.301 C 238.245 82.346,238.320 82.422,238.365 82.885 C 238.412 83.366,238.475 83.421,239.032 83.468 C 239.610 83.516,239.651 83.556,239.699 84.134 C 239.747 84.713,239.787 84.753,240.365 84.801 C 240.922 84.847,240.985 84.902,241.032 85.384 L 241.083 85.917 242.195 85.966 L 243.307 86.015 243.418 86.674 L 243.529 87.333 244.755 87.333 L 245.980 87.333 246.032 87.958 L 246.083 88.583 247.865 88.631 L 249.646 88.678 249.698 89.214 L 249.750 89.750 252.202 89.796 L 254.653 89.842 254.759 90.406 C 254.901 91.165,254.879 91.162,260.008 91.164 C 264.764 91.167,264.833 91.154,264.833 90.304 L 264.833 89.841 267.875 89.795 L 270.917 89.750 270.969 89.208 L 271.021 88.667 272.302 88.647 C 274.221 88.617,274.555 88.513,274.741 87.883 C 274.875 87.428,274.985 87.342,275.491 87.300 C 276.043 87.253,276.087 87.208,276.135 86.632 L 276.186 86.014 277.385 85.965 L 278.583 85.917 278.636 85.375 C 278.683 84.879,278.736 84.833,279.261 84.833 C 279.818 84.833,279.833 84.815,279.833 84.167 L 279.833 83.500 280.500 83.500 C 281.151 83.500,281.167 83.486,281.167 82.917 C 281.167 82.361,281.194 82.333,281.750 82.333 C 282.319 82.333,282.333 82.317,282.333 81.667 L 282.333 81.000 283.000 81.000 L 283.667 81.000 283.667 79.167 L 283.667 77.333 283.010 77.333 C 282.372 77.333,282.352 77.316,282.302 76.708 C 282.254 76.134,282.203 76.077,281.668 76.000 C 281.177 75.930,281.073 75.839,281.001 75.417 C 280.929 74.996,280.829 74.908,280.374 74.864 C 279.898 74.818,279.833 74.754,279.833 74.319 C 279.833 73.758,279.306 73.457,278.424 73.515 C 277.413 73.582,277.333 73.538,277.333 72.917 C 277.333 72.363,277.304 72.333,276.760 72.333 C 276.218 72.333,276.184 72.299,276.135 71.708 C 276.086 71.117,276.049 71.081,275.458 71.032 C 274.867 70.983,274.833 70.949,274.833 70.407 C 274.833 69.863,274.804 69.833,274.250 69.833 C 273.772 69.833,273.667 69.771,273.667 69.489 C 273.667 68.603,273.448 68.500,271.577 68.500 L 269.833 68.500 269.833 69.167 C 269.833 69.813,269.816 69.833,269.268 69.833 C 268.693 69.833,268.500 70.043,268.500 70.670 C 268.500 70.897,268.356 70.993,267.958 71.031 C 267.464 71.079,267.412 71.138,267.365 71.708 C 267.315 72.316,267.295 72.333,266.657 72.333 C 266.017 72.333,266.000 72.349,266.000 72.917 L 266.000 73.500 265.125 73.523 C 264.644 73.536,263.837 73.555,263.333 73.565 L 262.417 73.583 262.365 74.208 L 262.313 74.833 260.990 74.833 L 259.667 74.833 259.667 74.261 C 259.667 73.572,259.399 73.450,258.027 73.510 C 256.320 73.584,256.000 73.532,256.000 73.180 C 256.000 72.429,255.848 72.333,254.659 72.333 L 253.520 72.333 253.468 71.708 C 253.419 71.117,253.383 71.081,252.792 71.032 C 252.201 70.983,252.167 70.949,252.167 70.407 C 252.167 69.924,252.107 69.833,251.792 69.831 C 251.184 69.827,251.060 69.642,250.901 68.500 C 250.753 67.436,250.740 67.416,250.208 67.364 L 249.667 67.312 249.667 66.336 C 249.667 65.052,249.567 64.833,248.982 64.833 L 248.500 64.833 248.500 60.333 L 248.500 55.833 248.883 55.833 C 249.492 55.833,249.667 55.513,249.667 54.394 L 249.667 53.354 250.208 53.302 C 250.749 53.250,250.750 53.247,250.903 52.042 L 251.057 50.833 251.612 50.833 C 252.133 50.833,252.167 50.799,252.167 50.260 C 252.167 49.718,252.201 49.684,252.792 49.635 C 253.381 49.586,253.420 49.548,253.468 48.965 L 253.519 48.348 254.718 48.299 L 255.917 48.250 255.968 47.717 L 256.020 47.184 258.468 47.110 C 261.422 47.021,260.784 47.021,263.615 47.110 L 265.980 47.184 266.032 47.717 C 266.079 48.202,266.140 48.255,266.708 48.302 C 267.295 48.350,267.333 48.387,267.333 48.909 C 267.333 49.471,267.547 49.667,268.162 49.667 C 268.374 49.667,268.495 49.839,268.572 50.250 C 268.672 50.781,268.733 50.833,269.247 50.833 C 269.781 50.833,269.816 50.869,269.865 51.458 L 269.917 52.083 271.264 52.131 C 272.929 52.191,273.457 52.016,273.530 51.384 C 273.575 50.991,273.676 50.903,274.167 50.833 C 274.682 50.760,274.756 50.687,274.802 50.208 C 274.848 49.734,274.914 49.667,275.338 49.667 C 275.852 49.667,276.167 49.291,276.167 48.678 C 276.167 48.395,276.272 48.333,276.750 48.333 C 277.304 48.333,277.333 48.304,277.333 47.760 C 277.333 47.218,277.367 47.184,277.958 47.135 C 278.549 47.086,278.586 47.049,278.635 46.458 C 278.684 45.867,278.718 45.833,279.260 45.833 C 279.800 45.833,279.833 45.801,279.833 45.272 L 279.833 44.710 280.985 44.596 C 282.160 44.480,282.333 44.360,282.333 43.663 C 282.333 43.426,282.479 43.341,282.958 43.302 L 283.583 43.250 283.583 40.952 C 283.583 38.494,283.532 38.341,282.708 38.336 C 282.451 38.334,282.333 38.233,282.333 38.014 C 282.333 37.414,282.138 37.167,281.667 37.167 C 281.199 37.167,281.000 36.919,281.000 36.338 C 281.000 35.947,280.678 35.833,279.570 35.833 C 278.692 35.833,278.667 35.820,278.667 35.367 C 278.667 34.777,278.393 34.500,277.811 34.500 C 277.418 34.500,277.347 34.425,277.302 33.958 L 277.250 33.417 276.042 33.368 L 274.833 33.319 274.833 32.822 C 274.833 32.224,274.382 32.000,273.180 32.000 C 272.422 32.000,272.374 31.972,272.227 31.458 L 272.072 30.917 269.661 30.833 L 267.250 30.750 267.194 30.333 C 267.164 30.104,267.066 29.842,266.978 29.750 C 266.822 29.589,254.812 29.481,254.083 29.635 M309.125 29.615 C 308.919 29.669,308.833 29.858,308.833 30.262 L 308.833 30.833 305.283 30.833 C 301.476 30.833,301.333 30.864,301.333 31.679 L 301.333 32.125 299.875 32.046 C 298.047 31.947,297.500 32.127,297.500 32.829 L 297.500 33.333 296.250 33.333 L 295.000 33.333 295.000 33.958 L 295.001 34.583 293.792 34.583 L 292.583 34.583 292.532 35.208 C 292.482 35.811,292.458 35.833,291.849 35.833 L 291.218 35.833 291.200 37.375 C 291.178 39.376,291.220 39.500,291.921 39.500 L 292.485 39.500 292.534 40.708 C 292.583 41.913,292.585 41.917,293.125 42.076 C 293.633 42.226,293.667 42.283,293.669 42.993 C 293.673 44.207,293.801 44.479,294.428 44.596 L 294.986 44.701 295.034 45.803 C 295.082 46.885,295.093 46.908,295.616 47.058 C 296.050 47.182,296.158 47.306,296.199 47.730 L 296.250 48.250 298.654 48.296 C 301.205 48.346,301.326 48.312,301.331 47.542 C 301.333 47.181,301.389 47.167,302.844 47.167 C 304.615 47.167,305.000 47.017,305.000 46.331 L 305.000 45.840 308.708 45.795 L 312.417 45.750 312.469 45.208 L 312.521 44.667 313.844 44.667 L 315.167 44.667 315.167 45.250 L 315.167 45.833 317.667 45.833 L 320.167 45.833 320.167 46.396 C 320.167 47.025,320.492 47.167,321.938 47.167 C 322.660 47.167,322.667 47.172,322.667 47.750 C 322.667 48.306,322.694 48.333,323.250 48.333 C 323.756 48.333,323.833 48.387,323.833 48.736 C 323.833 49.460,324.004 49.667,324.601 49.667 L 325.167 49.667 325.154 51.125 C 325.146 51.927,325.103 52.490,325.056 52.375 C 324.996 52.226,324.452 52.167,323.153 52.167 L 321.333 52.167 321.333 51.606 C 321.333 50.835,321.288 50.831,312.018 50.846 C 302.944 50.860,302.823 50.870,302.607 51.625 L 302.452 52.167 300.843 52.167 C 299.139 52.167,298.833 52.284,298.833 52.935 C 298.833 53.236,298.710 53.325,298.167 53.417 C 297.543 53.522,297.500 53.566,297.500 54.091 L 297.500 54.652 296.292 54.701 L 295.083 54.750 295.032 55.375 C 294.983 55.962,294.946 56.000,294.424 56.000 C 293.860 56.000,293.667 56.213,293.667 56.836 C 293.667 57.063,293.523 57.159,293.125 57.198 C 292.632 57.245,292.579 57.306,292.532 57.865 C 292.486 58.419,292.429 58.485,291.958 58.532 C 291.352 58.592,291.073 59.284,291.217 60.366 C 291.298 60.972,291.289 60.983,290.691 61.033 L 290.083 61.083 290.036 62.847 L 289.989 64.610 289.370 64.764 L 288.750 64.917 288.750 70.417 L 288.750 75.917 289.370 75.968 L 289.989 76.019 290.036 77.885 L 290.083 79.750 290.625 79.802 C 291.216 79.859,291.227 79.883,291.172 81.047 C 291.129 81.983,291.360 82.333,292.020 82.333 C 292.457 82.333,292.500 82.385,292.500 82.917 C 292.500 83.470,292.529 83.500,293.073 83.500 C 293.615 83.500,293.649 83.534,293.698 84.125 C 293.747 84.716,293.784 84.753,294.375 84.802 C 294.966 84.851,295.000 84.885,295.000 85.427 C 295.000 85.965,295.034 86.000,295.554 86.000 C 296.055 86.000,296.122 86.059,296.262 86.625 L 296.417 87.250 297.527 87.299 L 298.637 87.348 298.783 87.966 L 298.928 88.583 300.121 88.632 L 301.313 88.681 301.365 89.215 L 301.417 89.750 303.875 89.796 C 306.290 89.841,306.333 89.849,306.336 90.213 C 306.342 91.053,306.437 91.079,309.827 91.143 C 313.688 91.216,313.833 91.189,313.833 90.417 L 313.833 89.841 316.958 89.795 L 320.083 89.750 320.136 89.208 L 320.188 88.667 321.302 88.657 C 323.290 88.640,323.742 88.498,323.802 87.873 C 323.851 87.365,323.893 87.333,324.511 87.333 C 325.165 87.333,325.167 87.332,325.167 86.667 L 325.167 86.000 326.417 86.000 L 327.667 86.000 327.667 85.417 C 327.667 84.889,327.711 84.833,328.133 84.833 C 328.390 84.833,328.690 84.743,328.800 84.633 C 328.956 84.478,329.000 84.605,329.000 85.207 C 329.000 85.980,329.000 85.980,329.625 86.032 C 330.218 86.081,330.250 86.113,330.250 86.667 C 330.250 87.219,330.283 87.253,330.866 87.301 C 331.444 87.349,331.484 87.390,331.532 87.968 C 331.578 88.519,331.637 88.589,332.093 88.633 C 332.504 88.673,332.633 88.786,332.759 89.216 L 332.917 89.750 340.917 89.750 L 348.917 89.750 348.961 85.020 C 349.008 80.018,348.982 79.833,348.240 79.833 C 347.914 79.833,347.845 79.736,347.802 79.208 C 347.749 78.570,347.759 78.576,346.792 78.518 C 346.604 78.506,346.500 78.364,346.500 78.117 C 346.500 77.507,346.180 77.333,345.057 77.333 L 344.015 77.333 343.966 76.125 L 343.917 74.917 343.375 74.864 L 342.833 74.812 342.824 59.864 C 342.813 43.356,342.828 43.666,342.040 43.440 C 341.506 43.287,341.500 43.273,341.500 42.259 C 341.500 41.166,341.323 40.833,340.740 40.833 C 340.422 40.833,340.369 40.714,340.273 39.792 C 340.163 38.725,339.905 38.333,339.312 38.333 C 339.106 38.333,339.006 38.176,338.969 37.792 C 338.923 37.313,338.849 37.240,338.333 37.167 C 337.815 37.093,337.741 37.019,337.667 36.500 C 337.594 35.990,337.518 35.910,337.063 35.866 C 336.639 35.825,336.515 35.717,336.392 35.283 C 336.247 34.775,336.189 34.743,335.129 34.600 C 334.045 34.453,334.016 34.437,333.967 33.933 L 333.917 33.417 332.708 33.368 C 331.504 33.319,331.500 33.317,331.500 32.846 C 331.500 32.138,331.152 31.949,330.000 32.032 C 329.107 32.097,329.000 32.071,329.000 31.791 C 329.000 30.864,328.892 30.833,325.661 30.833 L 322.667 30.833 322.667 30.429 C 322.667 29.493,322.705 29.498,315.780 29.519 C 312.280 29.530,309.285 29.573,309.125 29.615 M43.399 47.430 C 43.454 47.575,43.500 47.838,43.500 48.014 C 43.500 48.300,43.629 48.333,44.750 48.333 L 46.000 48.333 46.000 48.899 C 46.000 49.477,46.210 49.667,46.847 49.667 C 47.158 49.667,47.167 49.894,47.167 57.823 L 47.167 65.979 46.625 66.031 L 46.083 66.083 46.000 67.250 L 45.917 68.417 45.333 68.500 L 44.750 68.583 44.701 69.792 L 44.652 71.000 43.671 71.000 C 42.581 71.000,42.167 71.256,42.167 71.929 C 42.167 72.278,42.089 72.333,41.601 72.333 C 41.023 72.333,40.833 72.543,40.833 73.180 C 40.833 73.539,40.988 73.525,37.000 73.525 C 33.095 73.525,33.424 73.575,33.243 72.958 C 33.086 72.424,33.067 72.416,31.968 72.368 L 30.853 72.319 30.801 71.701 C 30.753 71.118,30.715 71.080,30.125 71.032 C 29.534 70.983,29.500 70.949,29.500 70.407 C 29.500 69.953,29.433 69.833,29.180 69.833 C 28.466 69.833,28.333 69.663,28.333 68.746 C 28.333 67.623,28.219 67.334,27.774 67.331 C 27.090 67.326,27.014 67.137,26.965 65.327 L 26.917 63.583 26.375 63.531 L 25.833 63.479 25.833 60.906 L 25.833 58.333 26.316 58.333 C 26.962 58.333,27.000 58.179,27.000 55.570 L 27.000 53.333 27.667 53.333 C 28.312 53.333,28.333 53.315,28.333 52.774 C 28.333 52.286,28.402 52.195,28.875 52.061 C 29.321 51.934,29.426 51.813,29.468 51.380 C 29.513 50.926,29.592 50.846,30.038 50.801 C 30.463 50.759,30.591 50.645,30.751 50.167 C 30.902 49.716,31.057 49.564,31.431 49.499 C 31.836 49.429,31.925 49.325,31.969 48.874 L 32.021 48.333 32.997 48.333 C 34.281 48.333,34.500 48.234,34.500 47.649 L 34.500 47.167 38.899 47.167 C 42.756 47.167,43.310 47.199,43.399 47.430 M196.964 47.708 C 197.102 48.245,197.115 48.251,198.218 48.299 C 199.312 48.348,199.333 48.357,199.333 48.808 C 199.333 49.393,199.610 49.667,200.200 49.667 C 200.576 49.667,200.667 49.741,200.667 50.050 C 200.667 50.538,200.962 50.833,201.450 50.833 C 201.726 50.833,201.833 50.929,201.833 51.178 C 201.833 51.797,202.147 52.167,202.673 52.167 C 203.163 52.167,203.167 52.174,203.169 53.125 C 203.172 54.247,203.263 54.434,203.877 54.588 C 204.329 54.702,204.334 54.718,204.350 56.143 C 204.373 58.117,204.469 58.404,205.132 58.469 L 205.667 58.521 205.667 59.761 C 205.667 60.934,205.647 61.000,205.292 61.003 C 204.556 61.008,204.501 61.168,204.389 63.627 L 204.282 65.983 203.766 66.033 L 203.250 66.083 203.201 67.292 L 203.152 68.500 202.578 68.500 C 202.037 68.500,201.998 68.539,201.897 69.167 C 201.803 69.758,201.739 69.833,201.330 69.833 C 200.862 69.833,200.667 70.083,200.667 70.680 C 200.667 70.933,200.548 71.000,200.101 71.000 C 199.505 71.000,199.333 71.207,199.333 71.923 C 199.333 72.294,199.267 72.321,198.218 72.367 C 197.115 72.416,197.102 72.422,196.964 72.958 C 196.843 73.424,196.748 73.502,196.287 73.514 C 195.803 73.527,191.386 73.522,188.958 73.506 L 188.000 73.500 188.000 72.927 C 188.000 72.385,187.966 72.351,187.375 72.302 C 186.806 72.255,186.745 72.202,186.698 71.714 C 186.653 71.250,186.570 71.164,186.073 71.070 C 185.633 70.988,185.499 70.880,185.497 70.606 C 185.494 70.073,185.303 69.870,184.749 69.807 C 184.334 69.760,184.240 69.666,184.193 69.251 C 184.130 68.692,183.927 68.506,183.375 68.503 C 183.060 68.500,183.000 68.409,183.000 67.934 C 183.000 67.357,182.790 67.167,182.153 67.167 C 181.859 67.167,181.833 67.028,181.824 65.458 C 181.809 62.912,181.699 62.468,181.041 62.297 L 180.500 62.157 180.500 60.256 L 180.500 58.354 181.041 58.302 C 181.718 58.237,181.787 57.971,181.814 55.292 L 181.833 53.333 182.417 53.333 C 182.972 53.333,183.000 53.306,183.000 52.750 C 183.000 52.243,183.053 52.167,183.405 52.167 C 183.923 52.167,184.333 51.756,184.333 51.238 C 184.333 50.927,184.422 50.833,184.717 50.833 C 185.205 50.833,185.500 50.538,185.500 50.050 C 185.500 49.741,185.591 49.667,185.967 49.667 C 186.557 49.667,186.833 49.393,186.833 48.808 C 186.833 48.357,186.855 48.348,187.948 48.299 C 189.052 48.251,189.065 48.245,189.203 47.708 L 189.343 47.167 193.083 47.167 L 196.824 47.167 196.964 47.708 M318.833 63.820 C 318.833 64.625,318.933 64.667,320.841 64.667 L 322.647 64.667 322.698 65.292 L 322.750 65.917 323.958 65.966 L 325.167 66.015 325.167 67.247 L 325.167 68.479 324.625 68.531 C 324.085 68.583,324.083 68.588,323.931 69.783 C 323.781 70.964,323.770 70.984,323.264 71.033 C 322.801 71.078,322.745 71.145,322.698 71.708 C 322.649 72.299,322.615 72.333,322.076 72.333 C 321.590 72.333,321.492 72.401,321.406 72.792 C 321.219 73.646,321.201 73.665,320.679 73.561 C 319.879 73.401,319.000 73.628,319.000 73.994 C 319.000 74.791,318.898 74.833,316.982 74.833 L 315.167 74.833 315.167 75.417 L 315.167 76.000 313.833 76.000 L 312.500 76.000 312.500 75.417 L 312.500 74.833 311.250 74.833 L 310.000 74.833 310.000 74.268 C 310.000 73.690,309.790 73.500,309.153 73.500 C 308.949 73.500,308.833 73.384,308.833 73.180 C 308.833 72.543,308.643 72.333,308.066 72.333 L 307.500 72.333 307.500 69.760 L 307.500 67.187 308.125 67.135 C 308.693 67.088,308.755 67.035,308.801 66.551 C 308.846 66.088,308.922 66.013,309.385 65.968 C 309.868 65.921,309.921 65.860,309.968 65.292 L 310.020 64.667 311.260 64.667 L 312.500 64.667 312.500 64.083 L 312.500 63.500 315.667 63.500 C 318.677 63.500,318.833 63.516,318.833 63.820 M88.667 65.494 C 88.667 65.747,89.314 66.028,89.717 65.950 C 90.017 65.892,90.000 65.875,89.620 65.856 C 89.365 65.844,89.113 65.721,89.060 65.583 C 88.954 65.306,88.667 65.241,88.667 65.494 M107.255 65.658 C 107.194 65.758,107.093 65.809,107.030 65.774 C 106.968 65.738,106.767 65.769,106.583 65.842 C 106.281 65.964,106.289 65.977,106.667 65.986 C 107.129 65.996,107.632 65.743,107.470 65.581 C 107.413 65.524,107.317 65.559,107.255 65.658 " stroke="none" fill="#1c1c1c" fill-rule="evenodd"></path><path id="path2" d="M88.906 47.461 C 88.705 47.600,88.668 48.352,88.869 48.228 C 88.941 48.183,89.000 47.997,89.000 47.814 C 89.000 47.604,89.071 47.524,89.192 47.599 C 89.312 47.673,89.340 47.645,89.266 47.526 C 89.127 47.301,89.135 47.303,88.906 47.461 M107.000 47.500 C 107.000 47.592,107.079 47.667,107.177 47.667 C 107.274 47.667,107.310 47.736,107.257 47.822 C 107.204 47.907,107.237 48.024,107.331 48.082 C 107.521 48.199,107.550 47.992,107.399 47.597 C 107.287 47.306,107.000 47.236,107.000 47.500 M107.313 64.417 C 107.301 64.462,107.282 64.594,107.271 64.708 C 107.259 64.823,107.008 65.037,106.713 65.185 C 106.417 65.333,106.230 65.513,106.296 65.587 C 106.362 65.660,106.335 65.674,106.236 65.617 C 106.136 65.561,105.836 65.580,105.569 65.659 C 105.142 65.787,105.190 65.806,105.958 65.819 C 106.440 65.827,106.833 65.758,106.833 65.667 C 106.833 65.575,106.933 65.500,107.056 65.500 C 107.178 65.500,107.284 65.406,107.292 65.292 C 107.300 65.177,107.346 64.915,107.394 64.708 C 107.442 64.502,107.448 64.333,107.407 64.333 C 107.367 64.333,107.324 64.371,107.313 64.417 M88.793 64.875 C 88.846 65.081,89.038 65.381,89.220 65.542 C 89.610 65.885,89.732 65.914,89.569 65.625 C 89.475 65.458,89.496 65.458,89.676 65.625 C 89.799 65.740,90.129 65.831,90.408 65.828 C 90.836 65.824,90.870 65.796,90.624 65.653 C 90.463 65.559,90.256 65.528,90.165 65.584 C 90.074 65.640,90.000 65.615,90.000 65.528 C 90.000 65.441,89.798 65.319,89.550 65.257 C 89.198 65.168,89.153 65.111,89.342 64.991 C 89.542 64.865,89.533 64.838,89.292 64.836 C 89.131 64.834,89.000 64.758,89.000 64.667 C 89.000 64.575,88.932 64.500,88.849 64.500 C 88.766 64.500,88.741 64.669,88.793 64.875 " stroke="none" fill="#50206c" fill-rule="evenodd"></path><path id="path3" d="M259.201 29.623 C 259.816 29.655,260.866 29.656,261.534 29.624 C 262.203 29.592,261.700 29.566,260.417 29.566 C 259.133 29.565,258.586 29.591,259.201 29.623 M162.892 57.167 C 162.892 57.946,162.920 58.265,162.955 57.875 C 162.990 57.485,162.990 56.848,162.955 56.458 C 162.920 56.069,162.892 56.387,162.892 57.167 M162.892 63.500 C 162.892 64.279,162.920 64.598,162.955 64.208 C 162.990 63.819,162.990 63.181,162.955 62.792 C 162.920 62.402,162.892 62.721,162.892 63.500 M288.709 68.417 C 288.711 68.783,288.745 68.914,288.785 68.706 C 288.824 68.499,288.823 68.199,288.781 68.040 C 288.739 67.880,288.707 68.050,288.709 68.417 M288.709 73.250 C 288.711 73.617,288.745 73.747,288.785 73.540 C 288.824 73.332,288.823 73.032,288.781 72.873 C 288.739 72.714,288.707 72.883,288.709 73.250 " stroke="none" fill="#382034" fill-rule="evenodd"></path><path id="path4" d="M90.208 65.948 C 90.369 65.990,90.631 65.990,90.792 65.948 C 90.952 65.906,90.821 65.872,90.500 65.872 C 90.179 65.872,90.048 65.906,90.208 65.948 M94.625 65.958 C 96.573 65.985,99.760 65.985,101.708 65.958 C 103.656 65.931,102.063 65.910,98.167 65.910 C 94.271 65.910,92.677 65.931,94.625 65.958 " stroke="none" fill="#1c2038" fill-rule="evenodd"></path></g></svg>