<svg id="svg" version="1.1" xmlns="http://www.w3.org/2000/svg" xmlns:xlink="http://www.w3.org/1999/xlink" width="400" height="266.8" viewBox="0, 0, 400,266.8"><g id="svgg"><path id="path0" d="M0.000 133.422 L 0.000 177.718 84.790 177.715 C 168.763 177.711,170.781 177.696,170.781 177.065 C 170.781 176.704,171.763 173.349,172.112 172.515 C 172.235 172.221,172.772 170.540,173.305 168.779 C 174.366 165.274,176.294 159.129,177.450 155.570 C 181.038 144.528,181.337 143.296,180.433 143.296 C 180.317 143.296,179.188 142.545,177.924 141.628 C 176.659 140.710,175.366 139.780,175.051 139.560 C 174.735 139.340,174.275 139.010,174.029 138.827 C 173.381 138.345,170.123 136.026,169.434 135.557 C 169.111 135.337,168.710 135.026,168.542 134.866 C 168.373 134.706,168.108 134.526,167.951 134.466 C 167.794 134.406,166.715 133.659,165.554 132.807 C 163.285 131.142,160.751 129.330,155.451 125.585 C 151.743 122.965,151.420 122.484,153.369 122.478 C 154.066 122.476,161.990 122.477,170.977 122.482 C 189.188 122.490,188.108 122.601,188.550 120.687 C 188.644 120.280,189.058 118.926,189.470 117.678 C 189.882 116.431,190.604 114.149,191.074 112.608 C 191.545 111.067,192.267 108.786,192.679 107.538 C 193.091 106.291,194.160 102.929,195.055 100.067 C 195.950 97.205,197.049 93.746,197.497 92.381 C 197.945 91.016,198.245 89.726,198.164 89.513 C 198.035 89.176,185.230 89.126,99.008 89.126 L 0.000 89.126 0.000 133.422 M201.001 89.321 C 200.524 89.379,200.133 89.480,200.133 89.546 C 200.133 89.788,203.366 99.415,203.579 99.809 C 203.702 100.034,203.888 100.612,203.994 101.094 C 204.100 101.576,204.354 102.293,204.560 102.686 C 204.765 103.080,204.934 103.542,204.935 103.714 C 204.936 103.885,205.356 105.266,205.869 106.782 C 206.382 108.299,207.752 112.348,208.913 115.780 C 210.075 119.212,211.186 122.124,211.383 122.252 C 211.580 122.380,219.306 122.479,228.552 122.473 C 237.799 122.467,245.574 122.466,245.831 122.472 C 247.109 122.499,245.448 124.025,239.626 128.172 C 239.260 128.434,238.346 129.092,237.596 129.634 C 236.845 130.177,235.224 131.337,233.993 132.213 C 232.762 133.088,231.619 133.929,231.454 134.080 C 231.288 134.232,230.888 134.536,230.565 134.757 C 229.801 135.277,222.309 140.769,221.614 141.318 C 221.321 141.550,220.510 142.118,219.813 142.580 C 218.245 143.620,218.243 143.516,219.901 148.313 C 220.646 150.470,221.379 152.655,221.529 153.169 C 221.679 153.682,222.232 155.364,222.756 156.905 C 223.281 158.446,224.834 163.009,226.207 167.045 C 227.580 171.081,228.877 174.983,229.088 175.716 C 229.299 176.449,229.679 177.199,229.931 177.383 C 230.296 177.651,247.568 177.718,315.194 177.718 L 400.000 177.718 400.000 133.421 L 400.000 89.123 300.934 89.169 C 246.448 89.194,201.478 89.262,201.001 89.321 M197.865 158.643 C 196.985 159.296,196.084 159.916,195.864 160.020 C 195.644 160.125,195.297 160.375,195.093 160.577 C 194.889 160.779,194.408 161.145,194.025 161.391 C 193.642 161.636,193.209 161.933,193.062 162.051 C 192.915 162.169,191.714 163.039,190.394 163.986 C 189.073 164.932,187.812 165.868,187.592 166.065 C 187.372 166.263,186.359 167.000,185.342 167.703 C 184.325 168.406,183.364 169.088,183.207 169.218 C 183.050 169.348,182.322 169.899,181.588 170.442 C 180.854 170.986,180.133 171.528,179.987 171.647 C 179.840 171.767,178.057 173.084,176.024 174.576 C 172.940 176.839,172.417 177.319,172.860 177.483 C 173.584 177.751,227.519 177.640,227.789 177.370 C 227.907 177.252,227.827 177.055,227.611 176.933 C 226.923 176.542,223.909 174.444,221.252 172.506 C 219.837 171.473,218.229 170.353,217.678 170.016 C 217.128 169.679,216.678 169.292,216.678 169.158 C 216.678 169.023,216.552 168.913,216.399 168.913 C 216.246 168.913,215.348 168.342,214.404 167.645 C 213.460 166.948,211.419 165.477,209.869 164.376 C 208.319 163.276,205.524 161.267,203.658 159.912 C 199.725 157.056,199.943 157.103,197.865 158.643 " stroke="none" fill="#fbd314" fill-rule="evenodd"></path><path id="path1" d="M0.000 44.429 L 0.000 88.858 99.425 88.925 C 158.258 88.965,198.911 88.894,198.999 88.752 C 199.081 88.620,199.309 88.733,199.507 89.003 C 199.705 89.274,199.867 89.352,199.867 89.177 C 199.867 88.932,222.696 88.859,299.933 88.859 L 400.000 88.859 400.000 44.430 L 400.000 0.000 200.000 0.000 L 0.000 0.000 0.000 44.429 " stroke="none" fill="#cc1324" fill-rule="evenodd"></path><path id="path2" d="M161.393 122.949 C 165.990 122.989,173.435 122.989,177.938 122.948 C 182.440 122.907,178.679 122.874,169.580 122.874 C 160.480 122.874,156.797 122.908,161.393 122.949 M219.413 122.948 C 223.926 122.990,231.311 122.990,235.824 122.948 C 240.337 122.907,236.644 122.874,227.618 122.874 C 218.592 122.874,214.900 122.907,219.413 122.948 M242.428 125.574 L 241.628 126.262 242.495 125.688 C 242.972 125.372,243.362 125.062,243.362 124.999 C 243.362 124.799,243.249 124.868,242.428 125.574 M163.042 130.584 C 163.042 130.657,163.402 130.974,163.843 131.288 C 164.283 131.601,164.643 131.798,164.643 131.724 C 164.643 131.651,164.283 131.334,163.843 131.021 C 163.402 130.707,163.042 130.511,163.042 130.584 M183.959 168.158 C 182.875 168.974,182.563 169.295,183.189 168.953 C 183.883 168.573,185.104 167.592,184.893 167.584 C 184.802 167.581,184.382 167.839,183.959 168.158 M173.983 175.450 C 173.485 175.817,173.192 176.113,173.330 176.108 C 173.598 176.098,175.287 174.787,175.035 174.785 C 174.954 174.784,174.480 175.083,173.983 175.450 M171.838 177.064 C 171.650 177.290,171.335 177.414,171.138 177.339 C 170.939 177.262,170.781 177.376,170.781 177.593 C 170.781 177.937,160.304 177.985,85.390 177.985 L 0.000 177.985 0.000 222.415 L 0.000 266.845 200.000 266.845 L 400.000 266.845 400.000 222.415 L 400.000 177.985 314.743 177.985 C 265.587 177.985,229.486 177.886,229.486 177.750 C 229.486 177.620,229.216 177.446,228.886 177.363 C 228.306 177.217,228.303 177.225,228.804 177.598 C 229.257 177.937,225.698 177.985,200.170 177.985 L 171.018 177.985 171.766 177.327 C 172.178 176.964,172.440 176.664,172.348 176.660 C 172.255 176.655,172.026 176.837,171.838 177.064 " stroke="none" fill="#046b3b" fill-rule="evenodd"></path><path id="path3" d="M198.962 88.881 C 198.895 89.089,198.578 90.160,198.257 91.261 C 197.936 92.362,197.341 94.283,196.935 95.530 C 195.700 99.317,194.095 104.355,193.449 106.471 C 193.112 107.572,192.392 109.853,191.848 111.541 C 190.575 115.494,189.375 119.283,188.796 121.186 C 188.197 123.152,189.697 123.007,169.899 123.009 C 160.624 123.010,152.933 123.012,152.807 123.013 C 152.581 123.015,156.879 126.189,159.676 128.085 C 165.606 132.106,181.454 143.731,181.454 144.060 C 181.454 144.298,180.985 145.934,180.411 147.696 C 179.837 149.459,178.803 152.702,178.113 154.903 C 177.424 157.105,176.529 159.927,176.124 161.174 C 175.719 162.422,174.997 164.703,174.520 166.244 C 174.043 167.785,173.056 170.887,172.327 173.137 C 170.783 177.903,170.911 178.227,173.412 175.899 C 173.621 175.705,174.104 175.346,174.487 175.100 C 174.870 174.855,177.225 173.150,179.720 171.312 C 182.215 169.474,184.519 167.792,184.840 167.574 C 185.726 166.972,192.674 161.906,196.107 159.359 C 199.946 156.509,199.506 156.541,202.802 158.884 C 204.343 159.980,206.444 161.463,207.472 162.178 C 210.826 164.515,221.249 171.964,225.869 175.326 C 228.388 177.159,229.234 177.680,229.215 177.385 C 229.213 177.348,227.709 172.875,225.873 167.445 C 224.037 162.015,222.188 156.491,221.763 155.170 C 221.338 153.849,220.320 150.835,219.501 148.472 C 218.682 146.109,218.012 143.986,218.012 143.755 C 218.012 143.518,219.851 142.005,222.215 140.296 C 227.518 136.463,232.411 132.893,238.025 128.763 C 240.447 126.982,243.180 125.001,244.099 124.362 C 245.019 123.723,245.718 123.147,245.653 123.083 C 245.589 123.018,237.872 122.978,228.505 122.993 C 219.138 123.008,211.317 122.918,211.126 122.793 C 210.834 122.602,206.535 110.473,205.340 106.471 C 204.881 104.933,203.612 101.162,203.320 100.467 C 203.197 100.173,202.290 97.472,201.305 94.463 C 199.494 88.932,199.183 88.193,198.962 88.881 " stroke="none" fill="#050404" fill-rule="evenodd"></path><path id="path4" d="M98.941 89.059 C 185.772 89.118,198.034 89.175,198.166 89.519 C 198.249 89.734,197.959 90.965,197.521 92.253 C 196.672 94.755,196.260 96.291,196.503 96.047 C 196.789 95.761,198.767 89.290,198.635 89.076 C 198.561 88.957,153.808 88.889,99.184 88.926 L -0.133 88.992 98.941 89.059 M199.867 89.276 C 199.867 89.899,200.714 92.370,200.873 92.211 C 200.949 92.135,200.801 91.523,200.544 90.850 C 200.287 90.178,200.160 89.545,200.261 89.443 C 200.362 89.342,241.952 89.230,292.684 89.193 C 343.416 89.156,388.346 89.094,392.528 89.055 C 396.711 89.016,355.073 88.956,300.000 88.922 C 209.374 88.865,199.867 88.899,199.867 89.276 M201.074 93.195 C 201.711 95.375,203.166 99.525,203.260 99.431 C 203.393 99.297,201.195 92.595,201.018 92.595 C 200.952 92.595,200.977 92.865,201.074 93.195 M196.016 97.017 C 195.918 97.408,195.889 97.780,195.952 97.842 C 196.015 97.905,196.147 97.637,196.245 97.246 C 196.343 96.855,196.372 96.483,196.309 96.420 C 196.246 96.357,196.115 96.626,196.016 97.017 M195.216 99.552 C 194.986 100.325,194.850 101.009,194.913 101.072 C 194.976 101.135,195.215 100.554,195.445 99.781 C 195.674 99.008,195.811 98.323,195.748 98.261 C 195.685 98.198,195.445 98.779,195.216 99.552 M203.356 99.947 C 203.367 100.086,203.546 100.620,203.754 101.134 L 204.131 102.068 203.972 101.134 C 203.830 100.301,203.303 99.285,203.356 99.947 M193.903 103.710 C 193.510 104.979,193.239 106.070,193.302 106.133 C 193.365 106.196,193.735 105.205,194.124 103.930 C 194.512 102.656,194.783 101.565,194.725 101.507 C 194.666 101.449,194.297 102.440,193.903 103.710 M204.287 102.869 C 204.578 104.109,205.003 104.650,204.816 103.544 C 204.730 103.035,204.533 102.495,204.379 102.343 C 204.183 102.151,204.155 102.310,204.287 102.869 M205.062 105.093 C 205.584 106.789,206.500 109.239,206.518 108.986 C 206.543 108.617,205.259 104.833,205.038 104.626 C 204.946 104.540,204.957 104.750,205.062 105.093 M192.391 108.397 C 192.055 109.466,191.458 111.361,191.063 112.608 C 190.207 115.315,189.942 116.344,190.101 116.344 C 190.166 116.344,190.340 115.954,190.487 115.477 C 190.635 115.000,191.317 112.830,192.001 110.655 C 192.686 108.480,193.191 106.645,193.124 106.577 C 193.056 106.510,192.726 107.329,192.391 108.397 M206.694 109.940 C 206.791 110.307,207.031 110.967,207.227 111.408 L 207.583 112.208 207.424 111.408 C 207.336 110.967,207.096 110.307,206.891 109.940 L 206.518 109.273 206.694 109.940 M207.625 112.608 C 207.627 112.829,207.799 113.369,208.006 113.809 L 208.384 114.610 208.225 113.809 C 208.027 112.807,207.619 111.991,207.625 112.608 M208.426 115.010 C 208.428 115.230,208.599 115.771,208.807 116.211 L 209.184 117.011 209.026 116.211 C 208.827 115.209,208.420 114.393,208.426 115.010 M189.193 118.479 C 188.860 119.516,188.640 120.417,188.706 120.483 C 188.771 120.548,189.098 119.754,189.432 118.718 C 189.765 117.682,189.984 116.780,189.919 116.714 C 189.853 116.648,189.526 117.442,189.193 118.479 M209.206 117.326 C 209.206 117.735,210.359 120.884,210.468 120.775 C 210.594 120.649,209.470 117.145,209.304 117.145 C 209.250 117.145,209.206 117.226,209.206 117.326 M188.392 121.103 C 188.392 122.510,188.642 122.490,170.977 122.482 C 161.990 122.477,154.066 122.476,153.369 122.478 C 151.420 122.484,151.743 122.965,155.451 125.585 C 157.293 126.887,159.838 128.702,161.106 129.620 C 163.311 131.215,164.053 131.658,163.363 130.968 C 163.057 130.662,159.211 127.907,154.580 124.677 C 153.375 123.836,152.385 123.060,152.379 122.951 C 152.373 122.841,160.435 122.721,170.294 122.684 L 188.220 122.615 188.431 121.828 C 188.547 121.395,188.585 120.985,188.517 120.916 C 188.448 120.848,188.392 120.932,188.392 121.103 M210.548 121.197 C 210.544 121.297,210.657 121.688,210.801 122.064 L 211.061 122.748 228.546 122.748 C 238.162 122.748,246.027 122.839,246.022 122.949 C 246.018 123.059,245.748 123.341,245.422 123.576 C 242.559 125.640,237.755 129.138,231.354 133.817 C 227.171 136.875,222.522 140.264,221.023 141.348 C 217.705 143.746,217.905 143.407,218.597 145.458 C 218.913 146.393,219.217 147.020,219.273 146.852 C 219.328 146.685,219.188 146.101,218.960 145.556 C 218.286 143.944,218.411 143.510,219.813 142.580 C 220.510 142.118,221.321 141.550,221.614 141.318 C 222.309 140.769,229.801 135.277,230.565 134.757 C 230.888 134.536,231.288 134.232,231.454 134.080 C 231.619 133.929,232.762 133.088,233.993 132.213 C 235.224 131.337,236.845 130.177,237.596 129.634 C 238.346 129.092,239.260 128.434,239.626 128.172 C 245.448 124.025,247.109 122.499,245.831 122.472 C 245.574 122.466,237.799 122.467,228.552 122.473 C 219.306 122.479,211.611 122.394,211.452 122.283 C 211.292 122.172,211.026 121.841,210.859 121.548 C 210.693 121.254,210.553 121.096,210.548 121.197 M163.843 131.356 C 163.843 131.584,167.881 134.543,168.013 134.411 C 168.081 134.343,167.321 133.713,166.323 133.011 C 165.326 132.309,164.360 131.620,164.176 131.479 C 163.993 131.338,163.843 131.282,163.843 131.356 M169.446 135.534 C 169.446 135.693,169.545 135.824,169.665 135.824 C 169.785 135.824,170.536 136.313,171.333 136.912 C 172.983 138.151,174.126 138.827,173.449 138.162 C 172.599 137.328,169.446 135.258,169.446 135.534 M173.983 138.743 C 173.983 138.898,174.078 139.026,174.195 139.026 C 174.312 139.026,174.642 139.210,174.929 139.435 C 175.216 139.660,176.531 140.617,177.852 141.561 C 180.904 143.742,180.921 143.757,180.921 144.332 C 180.921 144.598,180.335 146.604,179.619 148.792 C 178.266 152.924,177.830 154.481,178.101 154.210 C 178.293 154.018,181.140 145.016,181.246 144.266 C 181.320 143.747,181.035 143.515,175.216 139.343 C 174.537 138.857,173.983 138.587,173.983 138.743 M219.527 147.965 C 219.614 148.406,219.785 148.946,219.908 149.166 C 220.308 149.885,220.170 148.866,219.745 147.965 L 219.368 147.165 219.527 147.965 M220.279 150.233 C 220.987 152.620,221.598 154.284,221.679 154.043 C 221.778 153.746,220.534 149.990,220.248 149.723 C 220.156 149.637,220.170 149.867,220.279 150.233 M176.800 157.630 C 176.255 159.359,175.463 161.855,175.039 163.175 C 173.401 168.289,173.131 169.218,173.248 169.334 C 173.314 169.400,173.697 168.402,174.099 167.115 C 174.501 165.829,175.551 162.516,176.433 159.754 C 177.314 156.991,177.980 154.676,177.913 154.609 C 177.846 154.541,177.345 155.901,176.800 157.630 M221.928 155.170 C 222.015 155.610,222.187 156.151,222.309 156.371 C 222.709 157.089,222.571 156.071,222.147 155.170 L 221.770 154.370 221.928 155.170 M197.636 158.405 C 196.497 159.226,195.633 159.965,195.716 160.048 C 195.798 160.130,196.136 159.955,196.465 159.659 C 199.455 156.969,199.615 156.975,203.658 159.912 C 205.524 161.267,208.319 163.276,209.869 164.376 C 211.419 165.477,213.474 166.959,214.436 167.669 C 215.398 168.380,216.239 168.906,216.306 168.839 C 216.408 168.738,202.579 158.758,200.386 157.350 C 199.718 156.921,199.666 156.941,197.636 158.405 M222.729 157.572 C 222.816 158.012,222.987 158.552,223.110 158.773 C 223.510 159.491,223.372 158.472,222.948 157.572 L 222.570 156.771 222.729 157.572 M223.423 159.573 C 223.994 161.572,227.166 170.788,227.253 170.701 C 227.396 170.558,223.984 160.217,223.596 159.617 C 223.386 159.292,223.339 159.280,223.423 159.573 M194.261 160.945 C 193.748 161.383,193.569 161.616,193.863 161.463 C 194.653 161.048,195.441 160.396,195.309 160.263 C 195.245 160.200,194.774 160.506,194.261 160.945 M190.660 163.487 C 188.149 165.289,187.306 165.995,188.259 165.497 C 188.552 165.344,189.677 164.554,190.758 163.742 C 191.839 162.930,192.860 162.216,193.026 162.157 C 193.193 162.097,193.269 161.984,193.195 161.906 C 193.122 161.828,191.981 162.540,190.660 163.487 M186.258 166.677 C 184.892 167.745,184.293 168.317,184.928 167.948 C 186.112 167.259,187.592 166.144,187.592 165.942 C 187.592 165.628,187.615 165.615,186.258 166.677 M182.355 169.516 C 181.933 169.860,179.546 171.630,177.051 173.449 C 174.556 175.268,172.176 177.033,171.761 177.371 L 171.006 177.985 200.143 177.985 C 228.859 177.985,229.270 177.978,228.649 177.476 C 228.202 177.113,227.965 177.056,227.829 177.276 C 227.611 177.628,173.802 177.832,172.860 177.483 C 172.417 177.319,172.940 176.839,176.024 174.576 C 178.057 173.084,179.840 171.767,179.987 171.647 C 181.052 170.780,182.877 169.460,183.138 169.366 C 183.313 169.304,183.381 169.171,183.289 169.072 C 183.197 168.972,182.777 169.172,182.355 169.516 M216.678 169.158 C 216.678 169.293,217.128 169.679,217.678 170.016 C 218.229 170.353,219.841 171.473,221.260 172.506 C 226.078 176.010,227.618 177.056,227.618 176.825 C 227.618 176.696,226.325 175.742,222.682 173.182 C 221.508 172.357,219.676 171.059,218.612 170.298 C 217.548 169.537,216.678 169.024,216.678 169.158 M172.648 170.781 C 172.255 172.241,172.464 172.449,172.891 171.023 C 173.071 170.421,173.159 169.868,173.085 169.794 C 173.011 169.720,172.814 170.164,172.648 170.781 M227.627 172.115 C 227.627 172.335,227.743 172.695,227.885 172.915 C 228.115 173.271,228.144 173.271,228.144 172.915 C 228.144 172.695,228.028 172.335,227.885 172.115 C 227.655 171.759,227.627 171.759,227.627 172.115 M172.039 172.564 C 171.821 172.934,171.530 174.516,171.681 174.516 C 171.857 174.516,172.405 172.583,172.268 172.446 C 172.213 172.391,172.110 172.444,172.039 172.564 M228.328 174.116 C 228.426 174.556,228.670 175.277,228.871 175.717 L 229.236 176.518 229.063 175.584 C 228.967 175.070,228.723 174.350,228.520 173.983 L 228.150 173.316 228.328 174.116 M171.047 175.851 C 170.654 177.311,170.863 177.519,171.290 176.093 C 171.470 175.491,171.558 174.938,171.484 174.864 C 171.410 174.790,171.213 175.234,171.047 175.851 M229.219 176.845 C 229.219 178.063,223.437 177.990,314.838 177.919 L 400.133 177.854 315.055 177.719 C 231.225 177.587,229.971 177.577,229.598 177.067 C 229.390 176.782,229.219 176.682,229.219 176.845 M84.990 177.718 L -0.133 177.853 85.324 177.919 C 142.161 177.963,170.781 177.896,170.781 177.718 C 170.781 177.572,170.630 177.481,170.447 177.518 C 170.264 177.554,131.808 177.644,84.990 177.718 " stroke="none" fill="#a3b841" fill-rule="evenodd"></path></g></svg>