<svg id="svg" version="1.1" xmlns="http://www.w3.org/2000/svg" xmlns:xlink="http://www.w3.org/1999/xlink" width="400" height="267" viewBox="0, 0, 400,267"><g id="svgg"><path id="path0" d="M0.534 200.134 L 0.534 266.489 200.000 266.489 L 399.466 266.489 399.466 200.134 L 399.466 133.778 200.000 133.778 L 0.534 133.778 0.534 200.134 " stroke="none" fill="#fcfcfc" fill-rule="evenodd"></path><path id="path1" d="M0.000 66.555 L 0.000 133.111 200.000 133.111 L 400.000 133.111 400.000 66.555 L 400.000 0.000 200.000 0.000 L 0.000 0.000 0.000 66.555 " stroke="none" fill="#cc1424" fill-rule="evenodd"></path><path id="path2" d="M0.334 133.688 C -0.145 133.881,-0.158 266.224,0.320 266.702 C 0.825 267.207,399.282 267.165,399.701 266.661 C 399.922 266.395,399.983 248.779,399.934 199.972 L 399.866 133.645 200.267 133.599 C 90.487 133.574,0.517 133.614,0.334 133.688 M399.466 200.134 L 399.466 266.489 200.000 266.489 L 0.534 266.489 0.534 200.134 L 0.534 133.778 200.000 133.778 L 399.466 133.778 399.466 200.134 " stroke="none" fill="#c4c4c4" fill-rule="evenodd"></path><path id="path3" d="M0.134 133.244 C 0.024 133.422,66.714 133.511,200.000 133.511 C 333.286 133.511,399.976 133.422,399.866 133.244 C 399.637 132.874,0.363 132.874,0.134 133.244 " stroke="none" fill="#dc5464" fill-rule="evenodd"></path><path id="path4" d="" stroke="none" fill="#acacac" fill-rule="evenodd"></path></g></svg>