<svg id="svg" version="1.1" xmlns="http://www.w3.org/2000/svg" xmlns:xlink="http://www.w3.org/1999/xlink" width="400" height="266.8" viewBox="0, 0, 400,266.8"><g id="svgg"><path id="path0" d="M198.581 88.304 C 198.594 120.164,198.631 123.009,199.031 123.115 C 199.270 123.179,199.917 123.239,200.468 123.249 L 201.470 123.266 201.402 88.518 L 201.334 53.769 199.950 53.689 L 198.566 53.609 198.581 88.304 M202.535 54.786 C 202.535 55.156,202.647 55.499,202.783 55.548 C 203.080 55.654,204.618 59.989,204.902 61.517 C 205.012 62.110,205.207 62.766,205.337 62.975 C 205.466 63.185,205.664 63.841,205.777 64.433 C 205.889 65.026,206.280 66.891,206.646 68.579 C 209.115 79.971,209.365 93.765,207.311 105.294 C 206.476 109.982,206.386 110.410,205.748 112.742 C 205.426 113.916,205.069 115.297,204.954 115.811 C 204.839 116.324,204.615 117.045,204.457 117.412 C 204.299 117.779,203.917 118.919,203.609 119.947 C 203.301 120.974,202.873 122.048,202.659 122.333 C 202.093 123.083,202.179 123.753,202.869 123.960 C 204.180 124.353,206.146 127.464,206.595 129.859 C 207.586 135.144,206.592 139.379,203.702 142.174 C 202.278 143.552,202.011 144.376,202.818 144.900 C 203.161 145.122,205.335 151.930,205.758 154.103 C 205.872 154.690,206.274 156.412,206.652 157.929 C 207.029 159.446,207.339 161.067,207.340 161.531 C 207.341 161.995,207.454 162.795,207.593 163.309 C 209.687 171.088,208.724 191.469,205.745 202.402 C 205.425 203.576,205.058 204.957,204.930 205.470 C 204.542 207.024,203.049 211.190,202.784 211.461 C 202.335 211.918,202.486 212.751,202.982 212.561 C 204.325 212.045,208.641 208.815,210.274 207.104 C 212.888 204.363,216.840 199.408,219.021 196.137 C 220.442 194.006,221.703 192.191,221.822 192.105 C 222.033 191.953,222.236 191.612,223.580 189.149 C 223.928 188.513,224.654 187.332,225.194 186.524 C 225.734 185.717,226.873 183.616,227.723 181.855 C 228.574 180.093,229.396 178.417,229.549 178.129 C 229.703 177.841,230.114 177.069,230.462 176.413 C 231.349 174.746,231.486 173.549,230.955 172.115 C 228.785 166.258,226.142 157.109,225.211 152.235 C 225.043 151.354,224.725 149.793,224.505 148.766 C 224.285 147.738,224.008 145.757,223.890 144.363 C 223.771 142.969,223.529 140.327,223.350 138.492 C 222.998 134.868,223.112 128.869,223.607 125.017 C 224.592 117.345,224.796 116.130,225.760 112.208 C 225.940 111.474,226.184 110.394,226.303 109.807 C 226.422 109.219,226.720 108.079,226.967 107.272 C 227.213 106.464,227.708 104.666,228.067 103.276 C 228.426 101.885,228.820 100.625,228.942 100.474 C 229.064 100.323,229.288 99.780,229.440 99.266 C 229.592 98.753,230.094 97.259,230.556 95.947 C 231.501 93.258,231.480 92.597,230.374 90.193 C 228.767 86.705,227.743 84.653,227.112 83.656 C 226.740 83.069,226.159 82.048,225.819 81.388 C 224.266 78.366,221.036 73.155,219.203 70.714 C 218.707 70.053,217.726 68.713,217.022 67.736 C 212.762 61.815,206.272 55.291,204.003 54.648 C 203.709 54.565,203.259 54.410,203.002 54.305 C 202.630 54.151,202.535 54.249,202.535 54.786 M195.412 55.223 C 193.214 56.427,189.221 59.995,187.359 62.421 C 186.973 62.923,186.358 63.666,185.991 64.072 C 184.343 65.893,181.702 69.457,181.034 70.760 C 180.784 71.248,180.282 72.008,179.919 72.448 C 179.087 73.457,175.931 78.319,175.415 79.386 C 175.202 79.827,174.624 80.907,174.131 81.788 C 173.068 83.686,170.783 88.285,170.775 88.544 C 170.771 88.644,170.534 89.026,170.247 89.393 C 169.960 89.760,169.722 90.275,169.719 90.538 C 169.716 90.800,169.461 91.509,169.154 92.112 L 168.594 93.208 169.544 95.637 C 170.066 96.973,170.843 99.206,171.269 100.600 C 171.696 101.995,172.421 104.340,172.880 105.812 C 173.340 107.283,173.716 108.739,173.716 109.047 C 173.716 109.354,173.879 110.071,174.078 110.640 C 174.276 111.209,174.649 112.815,174.906 114.209 C 175.163 115.604,175.540 117.413,175.745 118.230 C 175.950 119.046,176.117 120.307,176.117 121.032 C 176.117 121.756,176.298 123.289,176.518 124.440 C 176.990 126.905,177.075 139.143,176.639 141.961 C 176.492 142.915,176.263 144.675,176.130 145.873 C 175.882 148.104,174.700 154.180,174.195 155.821 C 174.039 156.326,173.744 157.466,173.538 158.356 C 172.928 161.000,172.717 161.799,172.403 162.642 C 172.239 163.082,171.511 165.259,170.786 167.479 C 170.061 169.700,169.274 172.000,169.038 172.592 C 168.620 173.635,168.628 173.711,169.294 175.118 C 169.671 175.916,169.980 176.643,169.980 176.734 C 169.980 177.269,174.090 185.134,175.347 187.005 C 175.771 187.636,176.117 188.248,176.117 188.366 C 176.117 188.483,176.453 189.047,176.863 189.620 C 177.274 190.192,178.240 191.681,179.012 192.929 C 182.908 199.232,189.836 207.623,192.940 209.799 C 193.301 210.052,194.196 210.680,194.930 211.196 C 196.374 212.211,197.198 212.396,197.198 211.705 C 197.198 211.137,196.630 209.152,196.365 208.795 C 196.251 208.643,196.043 208.042,195.901 207.461 C 195.760 206.880,195.519 206.044,195.367 205.604 C 195.214 205.163,194.899 204.083,194.667 203.202 C 194.435 202.322,194.111 201.181,193.946 200.667 C 193.781 200.154,193.551 199.013,193.435 198.132 C 193.318 197.252,193.093 195.811,192.934 194.930 C 192.774 194.049,192.528 192.659,192.385 191.841 C 191.094 184.421,191.625 163.563,193.199 159.894 C 193.344 159.557,193.462 158.863,193.462 158.351 C 193.462 157.840,193.642 156.990,193.863 156.463 C 194.083 155.936,194.263 155.223,194.263 154.878 C 194.263 154.217,195.645 149.699,196.954 146.084 C 197.927 143.396,197.965 143.688,196.441 142.103 C 192.113 137.603,192.204 128.503,196.615 124.634 C 198.043 123.381,198.081 123.314,197.693 122.708 C 197.472 122.364,197.132 121.481,196.936 120.747 C 196.741 120.013,196.496 119.293,196.391 119.146 C 196.206 118.886,195.440 116.378,194.641 113.409 C 194.423 112.602,194.111 111.521,193.946 111.007 C 193.781 110.494,193.551 109.353,193.435 108.472 C 193.318 107.592,193.093 106.151,192.934 105.270 C 192.774 104.390,192.527 102.995,192.383 102.172 C 192.157 100.875,191.675 93.640,191.513 89.126 C 191.404 86.059,191.949 78.419,192.570 74.316 C 193.556 67.810,193.704 66.990,193.994 66.448 C 194.142 66.172,194.267 65.608,194.272 65.194 C 194.277 64.781,194.944 62.522,195.754 60.173 C 197.957 53.784,197.960 53.828,195.412 55.223 M232.262 93.767 C 232.170 94.007,232.234 94.370,232.403 94.574 C 232.572 94.778,232.818 95.287,232.949 95.705 C 233.080 96.122,233.561 97.485,234.017 98.732 C 234.474 99.980,235.075 101.841,235.353 102.869 C 235.631 103.896,236.053 105.337,236.291 106.071 C 236.667 107.229,237.242 109.601,238.264 114.209 C 240.215 123.012,240.951 137.264,239.800 143.963 C 239.573 145.284,239.198 147.565,238.965 149.033 C 238.733 150.500,238.374 152.422,238.168 153.302 C 236.997 158.312,236.640 159.773,236.439 160.374 C 236.316 160.740,235.829 162.302,235.355 163.843 C 234.882 165.384,234.158 167.665,233.748 168.913 C 232.506 172.686,232.419 173.124,232.870 173.297 C 233.088 173.381,270.781 173.449,316.633 173.449 L 400.000 173.449 400.000 133.556 L 400.000 93.662 317.045 93.662 C 271.419 93.662,233.716 93.588,233.260 93.496 C 232.633 93.371,232.389 93.437,232.262 93.767 M0.000 133.555 L 0.000 173.449 83.923 173.449 C 162.368 173.449,167.845 173.420,167.845 173.000 C 167.845 172.753,167.499 171.643,167.076 170.532 C 166.653 169.421,166.107 167.852,165.863 167.045 C 165.618 166.237,165.260 165.157,165.066 164.643 C 163.405 160.235,161.389 150.883,160.229 142.198 C 159.666 137.983,159.800 127.185,160.472 122.615 C 161.105 118.310,161.436 116.327,161.695 115.277 C 161.822 114.763,162.051 113.742,162.203 113.009 C 163.208 108.166,164.602 103.316,166.573 97.799 C 167.150 96.184,167.642 94.623,167.667 94.330 C 167.712 93.797,167.529 93.796,83.856 93.729 L 0.000 93.662 0.000 133.555 M198.985 143.869 C 198.583 144.094,198.548 146.883,198.559 178.395 C 198.571 216.909,198.363 213.209,200.514 213.209 L 201.464 213.209 201.532 178.719 C 201.570 159.750,201.561 144.087,201.512 143.913 C 201.409 143.543,199.624 143.512,198.985 143.869 " stroke="none" fill="#bb0404" fill-rule="evenodd"></path><path id="path1" d="M146.501 40.972 C 146.505 42.095,147.689 46.753,148.905 50.434 C 149.699 52.838,150.768 55.867,151.025 56.438 C 151.157 56.731,151.444 57.392,151.664 57.905 C 153.906 63.153,155.028 65.349,158.251 70.802 C 160.908 75.297,162.936 77.570,165.348 78.758 C 166.292 79.222,167.127 79.704,167.204 79.828 C 167.280 79.952,129.691 80.053,83.672 80.053 L 0.000 80.053 0.000 86.724 L 0.000 93.396 84.155 93.396 L 168.310 93.396 169.679 90.198 C 170.431 88.439,171.047 86.888,171.047 86.751 C 171.047 86.614,171.146 86.462,171.266 86.413 C 171.386 86.364,171.843 85.604,172.281 84.723 C 172.719 83.843,173.410 82.555,173.817 81.863 C 174.749 80.277,174.578 79.999,172.720 80.086 C 170.658 80.181,170.140 79.255,170.091 75.384 C 170.045 71.794,169.183 69.617,165.157 62.928 C 160.078 54.490,155.234 48.491,147.749 41.372 L 146.498 40.182 146.501 40.972 M250.377 43.433 C 238.967 54.630,229.624 69.656,230.083 76.071 C 230.209 77.820,230.167 78.000,229.324 79.321 C 228.834 80.091,228.430 80.570,228.426 80.387 C 228.418 79.987,225.751 79.911,225.751 80.311 C 225.751 80.453,226.531 82.036,227.485 83.830 C 228.439 85.623,229.219 87.224,229.219 87.388 C 229.219 87.551,229.327 87.799,229.458 87.939 C 229.589 88.078,230.153 89.273,230.710 90.594 C 231.268 91.915,231.851 93.084,232.006 93.191 C 232.161 93.299,270.023 93.389,316.144 93.392 L 400.000 93.396 400.000 86.724 L 400.000 80.052 316.478 80.119 C 265.577 80.160,232.987 80.091,233.037 79.941 C 233.082 79.805,233.893 79.287,234.839 78.788 C 237.807 77.223,239.791 74.876,243.088 69.027 C 244.930 65.758,248.430 58.704,248.434 58.253 C 248.435 58.135,248.624 57.678,248.855 57.238 C 249.557 55.898,252.352 47.283,253.097 44.163 C 253.482 42.548,253.846 41.081,253.905 40.902 C 254.232 39.914,253.231 40.632,250.377 43.433 M201.746 88.617 L 201.734 123.464 200.200 123.444 C 192.918 123.346,190.848 138.399,197.553 142.694 C 198.439 143.262,198.978 143.404,200.200 143.394 L 201.734 143.380 201.745 178.228 C 201.757 216.890,201.613 214.200,203.409 209.343 C 210.349 190.577,209.934 161.005,202.502 144.691 C 201.866 143.296,201.882 143.232,203.046 142.444 C 208.218 138.944,207.918 127.469,202.565 124.063 L 201.928 123.658 202.883 121.244 C 209.869 103.578,210.311 78.593,203.980 59.313 C 203.343 57.372,202.582 55.330,202.290 54.776 L 201.758 53.769 201.746 88.617 M197.244 56.376 C 191.575 71.530,190.188 90.427,193.489 107.538 C 194.368 112.091,196.496 119.499,197.604 121.855 C 197.821 122.317,197.999 122.835,197.999 123.005 C 197.999 123.175,198.119 123.239,198.266 123.149 C 198.604 122.940,198.637 54.532,198.299 54.324 C 198.171 54.244,197.696 55.168,197.244 56.376 M197.997 143.880 C 197.996 144.072,197.820 144.565,197.606 144.976 C 197.089 145.968,195.492 150.932,194.696 154.025 C 192.218 163.649,191.257 174.318,191.962 184.390 C 192.711 195.094,194.151 202.201,197.246 210.474 C 197.699 211.684,198.174 212.675,198.301 212.675 C 198.638 212.675,198.602 143.904,198.266 143.696 C 198.119 143.605,197.998 143.688,197.997 143.880 M0.000 180.118 L 0.000 186.791 83.650 186.791 L 167.301 186.791 166.602 188.059 C 165.921 189.295,165.069 190.769,161.239 197.332 C 160.211 199.093,159.013 201.194,158.575 202.001 C 158.137 202.809,157.102 204.584,156.275 205.947 C 155.447 207.309,154.770 208.477,154.770 208.541 C 154.770 208.605,154.239 209.555,153.590 210.653 L 152.410 212.649 153.571 213.329 C 155.431 214.420,155.446 214.412,156.994 211.559 C 157.526 210.578,158.624 208.683,159.434 207.347 C 160.244 206.011,160.907 204.856,160.907 204.780 C 160.907 204.705,161.906 202.938,163.126 200.854 C 164.347 198.770,166.348 195.324,167.573 193.195 C 168.798 191.067,170.150 188.726,170.579 187.992 L 171.358 186.658 172.937 186.748 C 174.040 186.811,174.516 186.742,174.516 186.518 C 174.516 186.064,173.395 184.123,173.133 184.123 C 173.013 184.123,172.915 183.929,172.915 183.692 C 172.915 183.214,171.564 180.572,171.247 180.431 C 171.137 180.382,171.047 180.231,171.047 180.095 C 171.047 179.736,168.649 174.176,168.327 173.787 C 168.111 173.526,150.363 173.456,84.027 173.451 L 0.000 173.445 0.000 180.118 M232.006 173.655 C 231.851 173.762,231.267 174.930,230.708 176.251 C 229.573 178.933,227.207 183.761,226.327 185.190 C 225.422 186.661,225.532 186.840,227.285 186.755 L 228.819 186.681 230.420 189.398 C 232.806 193.445,235.392 197.901,236.249 199.439 C 237.320 201.362,241.880 209.232,243.267 211.550 C 243.906 212.620,244.430 213.600,244.430 213.730 C 244.430 214.254,245.165 214.170,246.364 213.508 C 247.929 212.644,247.955 212.923,245.984 209.518 C 245.077 207.952,243.813 205.733,243.175 204.586 C 242.536 203.439,241.736 202.058,241.396 201.517 C 240.826 200.609,236.152 192.495,234.604 189.726 C 234.235 189.066,233.713 188.165,233.445 187.725 C 233.177 187.285,232.957 186.865,232.956 186.791 C 232.956 186.718,270.540 186.688,316.478 186.725 L 400.000 186.793 400.000 180.119 L 400.000 173.446 316.144 173.453 C 270.023 173.458,232.161 173.548,232.006 173.655 " stroke="none" fill="#f9f9f8" fill-rule="evenodd"></path><path id="path2" d="M146.271 40.894 C 146.310 41.750,146.312 41.751,146.425 40.992 L 146.540 40.224 147.786 41.393 L 149.033 42.562 147.843 41.294 C 146.436 39.795,146.218 39.740,146.271 40.894 M252.556 41.161 L 251.501 42.295 252.585 41.289 C 253.181 40.735,253.752 40.365,253.853 40.466 C 253.954 40.567,254.036 40.509,254.036 40.338 C 254.036 39.780,253.630 40.006,252.556 41.161 M153.302 46.965 C 153.875 47.552,154.405 48.032,154.478 48.032 C 154.551 48.032,154.142 47.552,153.569 46.965 C 152.996 46.378,152.467 45.897,152.393 45.897 C 152.320 45.897,152.729 46.378,153.302 46.965 M246.418 47.298 L 245.364 48.432 246.498 47.377 C 247.552 46.396,247.754 46.164,247.552 46.164 C 247.509 46.164,246.999 46.674,246.418 47.298 M147.603 46.698 C 147.603 46.918,147.706 47.338,147.832 47.632 C 147.976 47.968,148.061 48.017,148.061 47.765 C 148.061 47.545,147.958 47.125,147.832 46.831 C 147.687 46.495,147.603 46.446,147.603 46.698 M252.054 47.918 C 251.956 48.309,251.927 48.680,251.990 48.743 C 252.053 48.806,252.184 48.537,252.282 48.146 C 252.381 47.755,252.409 47.384,252.347 47.321 C 252.284 47.258,252.152 47.527,252.054 47.918 M155.304 49.233 C 155.801 49.746,156.269 50.167,156.342 50.167 C 156.416 50.167,156.068 49.746,155.570 49.233 C 155.073 48.719,154.605 48.299,154.532 48.299 C 154.458 48.299,154.806 48.719,155.304 49.233 M242.398 51.956 C 241.832 52.646,241.509 53.124,241.679 53.019 C 242.042 52.795,243.732 50.700,243.550 50.700 C 243.482 50.700,242.964 51.265,242.398 51.956 M149.319 52.302 C 149.417 52.668,149.609 53.149,149.745 53.369 C 149.917 53.647,149.938 53.566,149.814 53.102 C 149.716 52.735,149.524 52.255,149.388 52.035 C 149.216 51.757,149.195 51.838,149.319 52.302 M239.626 74.516 C 239.233 75.053,239.168 75.239,239.457 75.005 C 239.894 74.650,240.556 73.649,240.353 73.649 C 240.302 73.649,239.975 74.039,239.626 74.516 M162.230 76.651 C 162.885 77.348,163.455 77.919,163.498 77.919 C 163.698 77.919,163.486 77.679,162.308 76.573 L 161.041 75.384 162.230 76.651 M237.759 76.718 C 237.110 77.378,236.640 77.919,236.713 77.919 C 236.787 77.919,237.377 77.378,238.025 76.718 C 238.674 76.057,239.144 75.517,239.070 75.517 C 238.997 75.517,238.407 76.057,237.759 76.718 M170.579 187.992 C 170.150 188.726,168.798 191.067,167.573 193.195 C 166.348 195.324,164.347 198.770,163.126 200.854 C 161.906 202.938,160.907 204.705,160.907 204.780 C 160.907 204.856,160.244 206.011,159.434 207.347 C 158.624 208.683,157.526 210.578,156.994 211.559 C 155.446 214.412,155.431 214.420,153.571 213.329 L 152.410 212.649 153.590 210.653 C 154.239 209.555,154.770 208.605,154.770 208.541 C 154.770 208.477,155.447 207.309,156.275 205.947 C 157.102 204.584,158.137 202.809,158.575 202.001 C 159.013 201.194,160.211 199.093,161.239 197.332 C 165.069 190.769,165.921 189.295,166.602 188.059 L 167.301 186.791 83.650 186.791 L 0.000 186.791 0.000 226.818 L 0.000 266.845 200.000 266.845 L 400.000 266.845 400.000 226.819 L 400.000 186.793 316.478 186.725 C 270.540 186.688,232.956 186.718,232.956 186.791 C 232.957 186.865,233.177 187.285,233.445 187.725 C 233.713 188.165,234.235 189.066,234.604 189.726 C 236.152 192.495,240.826 200.609,241.396 201.517 C 241.736 202.058,242.536 203.439,243.175 204.586 C 243.813 205.733,245.077 207.952,245.984 209.518 C 247.955 212.923,247.929 212.644,246.364 213.508 C 245.165 214.170,244.430 214.254,244.430 213.730 C 244.430 213.600,243.906 212.620,243.267 211.550 C 241.880 209.232,237.320 201.362,236.249 199.439 C 235.340 197.808,232.628 193.140,230.420 189.408 L 228.819 186.701 227.223 186.679 C 225.711 186.659,225.605 186.700,225.209 187.458 C 224.439 188.932,224.043 189.570,221.108 194.063 C 219.502 196.521,218.088 198.532,217.966 198.532 C 217.845 198.532,217.745 198.694,217.745 198.891 C 217.745 199.089,217.055 200.080,216.211 201.094 C 215.367 202.107,214.033 203.737,213.247 204.715 C 210.053 208.688,204.629 212.920,202.634 212.995 C 202.153 213.013,201.697 213.188,201.622 213.385 C 201.374 214.031,198.905 213.850,198.414 213.149 C 198.186 212.823,197.999 212.705,197.999 212.888 C 197.999 214.274,192.879 210.896,189.246 207.111 C 185.919 203.646,179.435 195.279,178.381 193.092 C 178.231 192.782,177.634 191.808,177.053 190.927 C 176.472 190.047,175.694 188.726,175.323 187.992 L 174.650 186.658 173.004 186.658 L 171.358 186.658 170.579 187.992 " stroke="none" fill="#046404" fill-rule="evenodd"></path><path id="path3" d="M0.000 39.893 L 0.000 79.787 83.271 79.787 C 131.801 79.787,166.481 79.688,166.396 79.549 C 166.315 79.419,165.925 79.231,165.529 79.131 C 164.855 78.962,163.826 78.331,162.687 77.389 C 161.317 76.255,156.371 68.980,156.371 68.098 C 156.371 67.947,156.277 67.783,156.162 67.734 C 155.984 67.658,152.739 61.216,152.085 59.640 C 151.963 59.346,151.633 58.566,151.350 57.905 C 151.068 57.245,150.448 55.624,149.974 54.303 C 149.499 52.982,149.012 51.661,148.890 51.368 C 148.769 51.074,148.413 49.933,148.098 48.833 C 147.783 47.732,147.424 46.531,147.300 46.164 C 146.518 43.847,145.905 40.228,146.259 40.010 C 146.641 39.773,153.068 46.037,155.574 49.090 C 156.232 49.892,157.133 50.972,157.576 51.491 C 164.829 59.993,170.812 71.419,170.435 76.047 C 170.203 78.888,170.862 79.787,173.178 79.787 L 174.944 79.787 175.543 78.552 C 176.280 77.036,180.399 70.629,181.783 68.846 C 182.182 68.332,183.244 66.910,184.143 65.685 C 187.723 60.811,193.151 55.730,196.383 54.228 C 201.646 51.782,206.271 54.078,213.746 62.846 C 216.960 66.617,217.244 67.000,220.779 72.341 C 222.080 74.308,223.371 76.243,223.647 76.640 C 223.924 77.038,224.149 77.431,224.149 77.513 C 224.149 78.719,225.568 79.787,227.172 79.787 C 229.367 79.787,229.777 79.095,229.861 75.253 C 229.930 72.104,230.782 69.618,233.200 65.510 C 233.632 64.777,234.247 63.696,234.567 63.109 C 235.101 62.131,239.587 55.328,240.171 54.611 C 240.309 54.442,241.534 52.922,242.893 51.235 C 245.700 47.749,253.179 40.017,253.739 40.023 C 254.548 40.031,253.574 44.501,251.197 51.694 C 250.186 54.753,249.876 55.568,248.714 58.224 C 248.412 58.913,248.165 59.544,248.165 59.626 C 248.165 60.429,242.484 70.876,240.394 73.916 C 238.569 76.571,236.186 78.768,234.738 79.131 C 234.342 79.231,233.952 79.419,233.871 79.549 C 233.786 79.688,268.410 79.787,316.862 79.787 L 400.000 79.787 400.000 39.893 L 400.000 0.000 200.000 0.000 L 0.000 0.000 0.000 39.893 M168.112 94.432 C 168.112 94.625,167.940 95.161,167.730 95.623 C 167.375 96.403,166.864 97.961,164.913 104.203 C 163.593 108.425,163.370 109.246,163.183 110.575 C 163.082 111.291,162.898 112.132,162.776 112.443 C 162.207 113.884,161.345 118.950,160.590 125.284 C 159.737 132.439,160.424 144.318,162.117 151.701 C 162.319 152.582,162.682 154.203,162.923 155.304 C 163.165 156.404,163.467 157.665,163.596 158.105 C 163.724 158.546,164.089 159.867,164.406 161.041 C 164.724 162.215,165.276 164.016,165.634 165.043 C 165.992 166.071,166.385 167.272,166.507 167.712 C 166.629 168.152,167.085 169.504,167.520 170.715 C 168.424 173.234,168.486 173.220,169.516 170.247 C 178.791 143.482,178.961 124.565,170.160 98.496 C 169.087 95.318,168.112 93.383,168.112 94.432 M231.487 94.596 C 231.393 94.890,231.224 95.310,231.113 95.530 C 230.622 96.506,226.942 108.408,226.576 110.207 C 226.441 110.867,226.132 112.248,225.887 113.276 C 224.603 118.679,223.631 127.203,223.621 133.155 C 223.609 140.070,224.235 145.581,225.998 154.103 C 226.883 158.378,230.528 170.518,231.122 171.167 C 231.250 171.307,231.354 171.690,231.354 172.019 C 231.354 174.672,232.848 170.915,236.144 159.973 C 236.789 157.831,238.074 151.969,238.659 148.499 C 238.882 147.178,239.206 145.257,239.379 144.229 C 239.933 140.947,240.014 127.716,239.503 123.974 C 238.203 114.444,236.931 108.884,234.104 100.375 C 233.600 98.857,233.084 97.356,232.956 97.039 C 232.829 96.723,232.662 96.164,232.585 95.797 C 232.508 95.430,232.268 94.890,232.052 94.596 L 231.659 94.063 231.487 94.596 " stroke="none" fill="#040404" fill-rule="evenodd"></path><path id="path4" d="M252.154 41.294 L 251.234 42.295 252.235 41.375 C 253.166 40.519,253.358 40.294,253.154 40.294 C 253.110 40.294,252.660 40.744,252.154 41.294 M148.766 42.161 C 149.489 42.895,150.140 43.496,150.213 43.496 C 150.287 43.496,149.755 42.895,149.033 42.161 C 148.310 41.428,147.658 40.827,147.585 40.827 C 147.512 40.827,148.043 41.428,148.766 42.161 M151.557 44.897 C 152.211 45.594,152.781 46.164,152.824 46.164 C 153.024 46.164,152.813 45.925,151.634 44.819 L 150.367 43.629 151.557 44.897 M198.799 53.284 C 195.141 54.028,188.703 59.476,184.143 65.685 C 183.244 66.910,182.182 68.332,181.783 68.846 C 180.399 70.629,176.280 77.036,175.543 78.552 L 174.944 79.787 173.062 79.838 L 171.181 79.889 172.849 79.984 C 173.801 80.038,174.516 80.202,174.516 80.366 C 174.516 80.550,174.659 80.534,174.917 80.320 C 175.137 80.138,175.317 79.853,175.318 79.687 C 175.320 79.336,178.951 73.622,179.919 72.448 C 180.282 72.008,180.784 71.248,181.034 70.760 C 181.702 69.457,184.343 65.893,185.991 64.072 C 186.358 63.666,186.973 62.923,187.359 62.421 C 190.695 58.075,197.421 53.171,197.486 55.037 C 197.505 55.581,197.532 55.568,197.776 54.902 C 197.923 54.497,198.154 54.234,198.288 54.317 C 198.423 54.400,198.532 54.274,198.532 54.038 C 198.532 53.687,198.790 53.623,199.933 53.689 L 201.334 53.769 201.402 88.506 C 201.466 121.425,201.445 123.249,201.002 123.365 C 200.648 123.457,200.681 123.495,201.134 123.518 L 201.734 123.549 201.747 88.526 C 201.757 58.608,201.812 53.619,202.125 54.303 C 202.387 54.874,202.498 54.961,202.513 54.608 C 202.529 54.244,202.659 54.163,203.002 54.305 C 203.259 54.410,203.709 54.565,204.003 54.648 C 206.272 55.291,212.762 61.815,217.022 67.736 C 217.726 68.713,218.707 70.053,219.203 70.714 C 221.017 73.129,224.196 78.253,225.827 81.388 C 226.679 83.026,227.643 84.590,227.802 84.590 C 227.874 84.590,227.442 83.695,226.842 82.601 C 225.459 80.081,225.456 80.098,227.285 79.984 L 228.819 79.887 227.155 79.837 C 225.574 79.789,224.149 78.688,224.149 77.513 C 224.149 77.431,223.924 77.038,223.647 76.640 C 223.371 76.243,222.080 74.308,220.779 72.341 C 217.244 67.000,216.960 66.617,213.746 62.846 C 209.417 57.768,204.698 53.912,202.268 53.467 C 201.113 53.255,199.388 53.164,198.799 53.284 M202.810 55.771 C 202.810 55.991,202.926 56.351,203.069 56.571 C 203.299 56.927,203.327 56.927,203.327 56.571 C 203.327 56.351,203.211 55.991,203.069 55.771 C 202.839 55.415,202.810 55.415,202.810 55.771 M198.600 56.704 C 198.603 57.292,198.657 57.500,198.721 57.168 C 198.785 56.836,198.782 56.356,198.716 56.101 C 198.649 55.846,198.597 56.117,198.600 56.704 M196.694 57.134 C 196.530 57.606,196.442 58.039,196.499 58.096 C 196.556 58.153,196.737 57.814,196.902 57.342 C 197.066 56.870,197.154 56.438,197.097 56.381 C 197.040 56.324,196.858 56.663,196.694 57.134 M204.150 59.506 C 204.147 59.580,204.314 60.180,204.523 60.841 C 204.791 61.693,204.903 61.848,204.909 61.374 C 204.916 60.844,204.170 59.009,204.150 59.506 M195.216 61.527 C 195.118 61.918,195.089 62.289,195.152 62.352 C 195.215 62.415,195.346 62.147,195.445 61.755 C 195.543 61.364,195.572 60.993,195.509 60.930 C 195.446 60.867,195.314 61.136,195.216 61.527 M205.234 63.242 C 205.247 63.462,205.353 63.943,205.470 64.310 L 205.684 64.977 205.706 64.310 C 205.719 63.943,205.613 63.462,205.470 63.242 C 205.240 62.886,205.214 62.886,205.234 63.242 M194.429 63.920 C 194.338 64.158,194.275 64.674,194.290 65.065 C 194.311 65.638,194.364 65.574,194.561 64.736 C 194.811 63.669,194.727 63.144,194.429 63.920 M206.057 66.311 C 206.057 66.604,206.153 67.145,206.271 67.512 C 206.440 68.040,206.484 68.068,206.484 67.645 C 206.484 67.352,206.388 66.811,206.271 66.444 C 206.102 65.916,206.057 65.888,206.057 66.311 M193.584 67.900 C 193.482 68.580,193.458 69.197,193.531 69.271 C 193.605 69.344,193.748 68.847,193.850 68.167 C 193.953 67.486,193.976 66.869,193.903 66.796 C 193.829 66.722,193.686 67.219,193.584 67.900 M206.851 69.780 C 206.843 70.073,206.935 70.794,207.056 71.381 C 207.242 72.278,207.277 72.321,207.276 71.648 C 207.275 70.713,206.876 68.959,206.851 69.780 M193.102 70.360 C 193.024 70.628,192.900 71.568,192.825 72.448 C 192.695 73.993,192.703 73.979,193.046 72.048 C 193.384 70.152,193.412 69.297,193.102 70.360 M229.845 75.384 C 229.846 76.558,229.893 77.005,229.949 76.377 C 230.005 75.750,230.004 74.789,229.947 74.242 C 229.890 73.696,229.844 74.209,229.845 75.384 M207.678 75.250 C 207.678 75.911,207.730 76.181,207.793 75.851 C 207.857 75.520,207.857 74.980,207.793 74.650 C 207.730 74.320,207.678 74.590,207.678 75.250 M192.040 77.491 C 191.942 78.207,191.878 79.467,191.898 80.291 C 191.927 81.487,191.980 81.278,192.162 79.253 C 192.408 76.509,192.329 75.377,192.040 77.491 M198.605 77.652 C 198.605 78.312,198.657 78.582,198.721 78.252 C 198.784 77.922,198.784 77.382,198.721 77.051 C 198.657 76.721,198.605 76.991,198.605 77.652 M207.939 77.518 C 207.942 78.105,207.997 78.314,208.061 77.982 C 208.124 77.650,208.122 77.170,208.055 76.915 C 207.988 76.660,207.936 76.931,207.939 77.518 M166.377 79.519 C 166.487 79.696,138.590 79.808,83.204 79.853 L -0.133 79.921 83.488 79.987 C 157.793 80.046,167.073 80.009,166.778 79.653 C 166.405 79.203,166.124 79.110,166.377 79.519 M233.489 79.653 C 233.194 80.009,242.459 80.046,316.645 79.987 L 400.133 79.921 316.929 79.853 C 261.633 79.808,233.780 79.696,233.890 79.519 C 234.143 79.110,233.862 79.203,233.489 79.653 M208.201 80.587 C 208.201 81.101,208.256 81.311,208.323 81.054 C 208.390 80.797,208.390 80.377,208.323 80.120 C 208.256 79.863,208.201 80.073,208.201 80.587 M173.711 82.006 C 172.871 83.421,172.781 83.637,173.120 83.427 C 173.425 83.239,174.589 81.104,174.458 80.973 C 174.412 80.927,174.076 81.392,173.711 82.006 M208.467 88.619 C 208.433 91.789,208.351 95.331,208.284 96.491 L 208.162 98.599 208.422 96.743 C 208.565 95.721,208.648 92.179,208.605 88.871 L 208.528 82.855 208.467 88.619 M191.674 84.590 C 191.674 85.397,191.724 85.727,191.786 85.324 C 191.847 84.920,191.847 84.260,191.786 83.856 C 191.724 83.452,191.674 83.783,191.674 84.590 M171.519 86.268 C 170.336 88.577,169.684 90.033,169.943 89.789 C 170.294 89.456,172.175 85.628,172.049 85.502 C 171.999 85.452,171.760 85.797,171.519 86.268 M191.395 88.459 C 191.398 89.046,191.452 89.255,191.516 88.923 C 191.580 88.591,191.578 88.111,191.511 87.855 C 191.444 87.600,191.392 87.872,191.395 88.459 M168.946 91.904 L 168.328 93.396 84.097 93.462 L -0.133 93.528 83.789 93.662 C 167.508 93.796,167.712 93.797,167.667 94.330 C 167.642 94.623,167.150 96.184,166.573 97.799 C 164.602 103.316,163.208 108.166,162.203 113.009 C 162.051 113.742,161.822 114.763,161.695 115.277 C 161.436 116.327,161.105 118.310,160.472 122.615 C 159.800 127.185,159.666 137.983,160.229 142.198 C 161.389 150.883,163.405 160.235,165.066 164.643 C 165.260 165.157,165.618 166.237,165.863 167.045 C 166.107 167.852,166.653 169.421,167.076 170.532 C 167.499 171.643,167.845 172.753,167.845 173.000 C 167.845 173.247,167.947 173.449,168.071 173.449 C 168.196 173.449,168.419 173.719,168.568 174.049 C 168.824 174.618,168.838 174.607,168.840 173.849 C 168.841 173.207,170.923 166.664,172.406 162.642 C 172.717 161.796,172.932 160.985,173.538 158.356 C 173.744 157.466,174.039 156.326,174.195 155.821 C 174.700 154.180,175.882 148.104,176.130 145.873 C 176.263 144.675,176.492 142.915,176.639 141.961 C 177.075 139.143,176.990 126.905,176.518 124.440 C 176.298 123.289,176.117 121.756,176.117 121.032 C 176.117 120.307,175.950 119.046,175.745 118.230 C 175.540 117.413,175.163 115.604,174.906 114.209 C 174.649 112.815,174.276 111.209,174.078 110.640 C 173.879 110.071,173.716 109.354,173.716 109.047 C 173.716 108.739,173.340 107.283,172.880 105.812 C 172.421 104.340,171.696 101.995,171.269 100.600 C 170.843 99.206,170.066 96.973,169.544 95.637 L 168.594 93.208 169.169 92.081 C 169.486 91.461,169.704 90.832,169.654 90.684 C 169.605 90.535,169.286 91.084,168.946 91.904 M191.662 92.462 C 191.665 93.049,191.719 93.257,191.783 92.926 C 191.847 92.594,191.845 92.113,191.778 91.858 C 191.711 91.603,191.659 91.875,191.662 92.462 M231.246 92.611 C 231.352 93.287,231.152 94.250,230.556 95.947 C 230.094 97.259,229.592 98.753,229.440 99.266 C 229.288 99.780,229.064 100.323,228.942 100.474 C 228.820 100.625,228.426 101.885,228.067 103.276 C 227.708 104.666,227.213 106.464,226.967 107.272 C 226.720 108.079,226.422 109.219,226.303 109.807 C 226.184 110.394,225.940 111.474,225.760 112.208 C 224.796 116.130,224.592 117.345,223.607 125.017 C 223.112 128.869,222.998 134.868,223.350 138.492 C 223.529 140.327,223.771 142.969,223.890 144.363 C 224.008 145.757,224.285 147.738,224.505 148.766 C 224.725 149.793,225.043 151.354,225.211 152.235 C 226.142 157.110,228.790 166.275,230.955 172.115 C 231.213 172.812,231.344 173.707,231.265 174.249 C 231.139 175.122,231.151 175.140,231.435 174.516 C 231.853 173.601,232.157 173.429,233.089 173.580 L 233.889 173.710 233.181 173.432 C 232.369 173.114,232.372 173.093,233.748 168.913 C 234.158 167.665,234.882 165.384,235.355 163.843 C 235.829 162.302,236.316 160.740,236.439 160.374 C 236.640 159.773,236.997 158.312,238.168 153.302 C 238.374 152.422,238.733 150.500,238.965 149.033 C 239.198 147.565,239.573 145.284,239.800 143.963 C 240.951 137.264,240.215 123.012,238.264 114.209 C 237.242 109.601,236.667 107.229,236.291 106.071 C 236.053 105.337,235.631 103.896,235.353 102.869 C 235.075 101.841,234.474 99.980,234.017 98.732 C 233.561 97.485,233.080 96.122,232.949 95.705 C 232.818 95.287,232.572 94.778,232.403 94.574 C 232.234 94.370,232.164 94.024,232.247 93.806 C 232.331 93.588,232.251 93.316,232.069 93.203 C 231.888 93.089,231.595 92.695,231.419 92.328 C 231.117 91.701,231.107 91.719,231.246 92.611 M275.050 93.596 C 297.982 93.633,335.507 93.633,358.439 93.596 C 381.371 93.558,362.608 93.527,316.744 93.527 C 270.881 93.527,252.118 93.558,275.050 93.596 M170.160 98.496 C 178.961 124.565,178.791 143.482,169.516 170.247 C 168.486 173.220,168.424 173.234,167.520 170.715 C 167.085 169.504,166.629 168.152,166.507 167.712 C 166.385 167.272,165.992 166.071,165.634 165.043 C 165.276 164.016,164.724 162.215,164.406 161.041 C 164.089 159.867,163.724 158.546,163.596 158.105 C 163.467 157.665,163.165 156.404,162.923 155.304 C 162.682 154.203,162.319 152.582,162.117 151.701 C 160.424 144.318,159.737 132.439,160.590 125.284 C 161.345 118.950,162.207 113.884,162.776 112.443 C 162.898 112.132,163.082 111.291,163.183 110.575 C 163.370 109.246,163.593 108.425,164.913 104.203 C 166.864 97.961,167.375 96.403,167.730 95.623 C 167.940 95.161,168.112 94.625,168.112 94.432 C 168.112 93.383,169.087 95.318,170.160 98.496 M232.585 95.797 C 232.662 96.164,232.829 96.723,232.956 97.039 C 233.084 97.356,233.600 98.857,234.104 100.375 C 236.931 108.884,238.203 114.444,239.503 123.974 C 240.014 127.716,239.933 140.947,239.379 144.229 C 239.206 145.257,238.882 147.178,238.659 148.499 C 238.074 151.969,236.789 157.831,236.144 159.973 C 232.848 170.915,231.354 174.672,231.354 172.019 C 231.354 171.690,231.250 171.307,231.122 171.167 C 230.528 170.518,226.883 158.378,225.998 154.103 C 224.235 145.581,223.609 140.070,223.621 133.155 C 223.631 127.203,224.603 118.679,225.887 113.276 C 226.132 112.248,226.441 110.867,226.576 110.207 C 226.942 108.408,230.622 96.506,231.113 95.530 C 231.224 95.310,231.393 94.890,231.487 94.596 L 231.659 94.063 232.052 94.596 C 232.268 94.890,232.508 95.430,232.585 95.797 M191.944 97.265 C 191.945 98.145,191.995 98.473,192.055 97.994 C 192.114 97.514,192.113 96.794,192.052 96.393 C 191.991 95.992,191.942 96.384,191.944 97.265 M198.622 97.665 C 198.622 98.766,198.669 99.216,198.727 98.666 C 198.784 98.115,198.784 97.215,198.727 96.664 C 198.669 96.114,198.622 96.564,198.622 97.665 M207.755 100.884 C 207.652 101.930,207.623 102.842,207.691 102.910 C 207.759 102.978,207.900 102.179,208.005 101.134 C 208.110 100.089,208.139 99.178,208.069 99.108 C 208.000 99.038,207.858 99.837,207.755 100.884 M192.201 100.334 C 192.201 100.994,192.253 101.264,192.316 100.934 C 192.380 100.604,192.380 100.063,192.316 99.733 C 192.253 99.403,192.201 99.673,192.201 100.334 M192.693 104.092 C 192.711 104.593,192.823 105.364,192.942 105.804 C 193.085 106.330,193.109 106.056,193.011 105.003 C 192.847 103.239,192.644 102.656,192.693 104.092 M198.615 106.871 C 198.617 107.752,198.666 108.080,198.726 107.600 C 198.785 107.121,198.784 106.400,198.723 105.999 C 198.662 105.598,198.614 105.991,198.615 106.871 M193.491 108.606 C 193.464 109.304,193.968 111.391,194.126 111.232 C 194.176 111.182,194.059 110.420,193.867 109.540 C 193.674 108.659,193.505 108.239,193.491 108.606 M206.304 109.540 C 206.282 109.833,206.202 110.374,206.126 110.740 L 205.989 111.408 206.275 110.753 C 206.432 110.393,206.512 109.853,206.452 109.552 C 206.346 109.020,206.342 109.020,206.304 109.540 M195.226 115.544 C 195.317 116.057,195.499 116.658,195.631 116.878 C 195.915 117.352,195.642 115.969,195.289 115.143 C 195.135 114.783,195.115 114.914,195.226 115.544 M204.555 116.230 C 204.457 116.621,204.437 117.001,204.510 117.074 C 204.584 117.148,204.724 116.888,204.822 116.497 C 204.920 116.106,204.941 115.726,204.867 115.652 C 204.794 115.579,204.654 115.839,204.555 116.230 M195.979 118.079 C 196.083 118.519,196.283 118.997,196.424 119.140 C 196.564 119.283,196.538 118.983,196.365 118.473 C 195.961 117.278,195.734 117.046,195.979 118.079 M203.126 120.632 C 202.808 121.515,202.651 122.175,202.776 122.097 C 203.034 121.938,203.953 119.274,203.802 119.123 C 203.748 119.069,203.444 119.748,203.126 120.632 M197.216 121.681 C 197.216 121.901,197.391 122.314,197.607 122.599 C 198.105 123.258,198.100 122.825,197.598 121.948 C 197.377 121.561,197.217 121.449,197.216 121.681 M197.712 123.736 L 197.065 124.456 197.789 124.002 C 198.188 123.753,198.705 123.549,198.939 123.549 C 199.173 123.549,199.290 123.429,199.199 123.282 C 198.917 122.825,198.384 122.987,197.712 123.736 M202.032 123.323 C 202.015 123.565,202.407 124.003,202.903 124.295 C 203.995 124.939,205.419 126.938,206.079 128.753 C 206.541 130.025,206.556 130.039,206.397 129.041 C 206.142 127.443,203.958 124.286,202.886 123.965 C 202.565 123.869,202.249 123.586,202.183 123.336 C 202.076 122.929,202.060 122.928,202.032 123.323 M195.785 125.391 C 194.754 126.533,193.719 128.629,193.747 129.520 C 193.758 129.865,193.897 129.669,194.102 129.019 C 194.577 127.517,195.208 126.375,196.163 125.287 C 196.616 124.771,196.928 124.350,196.857 124.350 C 196.785 124.350,196.303 124.818,195.785 125.391 M206.894 133.689 C 206.894 134.790,206.941 135.240,206.999 134.690 C 207.056 134.139,207.056 133.239,206.999 132.688 C 206.941 132.138,206.894 132.588,206.894 133.689 M193.278 133.823 C 193.280 134.703,193.329 135.031,193.389 134.552 C 193.448 134.072,193.447 133.351,193.386 132.951 C 193.325 132.550,193.277 132.942,193.278 133.823 M206.329 137.016 C 206.141 137.721,206.039 138.349,206.102 138.413 C 206.287 138.598,206.853 136.673,206.758 136.182 C 206.710 135.936,206.517 136.312,206.329 137.016 M204.574 140.933 C 204.154 141.517,203.405 142.258,202.909 142.579 C 202.414 142.899,202.006 143.314,202.005 143.500 C 202.001 143.883,204.838 141.291,205.247 140.538 C 205.741 139.629,205.343 139.863,204.574 140.933 M195.063 140.594 C 195.063 140.696,195.671 141.376,196.413 142.105 C 197.765 143.431,197.821 143.605,197.361 145.030 C 197.267 145.324,197.417 145.101,197.695 144.536 C 197.973 143.970,198.279 143.635,198.375 143.790 C 198.571 144.107,199.333 143.903,199.333 143.534 C 199.333 143.403,199.038 143.296,198.678 143.296 C 198.245 143.296,197.520 142.805,196.543 141.851 C 195.729 141.057,195.063 140.491,195.063 140.594 M200.934 143.490 C 201.154 143.574,201.422 143.774,201.530 143.936 C 201.651 144.117,201.728 144.051,201.730 143.763 C 201.733 143.449,201.537 143.302,201.134 143.317 C 200.733 143.331,200.666 143.388,200.934 143.490 M201.533 178.853 L 201.468 213.209 200.516 213.209 C 199.993 213.209,199.322 213.079,199.026 212.920 C 198.355 212.561,198.077 212.793,198.527 213.336 C 198.949 213.844,201.423 213.903,201.611 213.409 C 201.681 213.225,201.707 197.645,201.669 178.786 L 201.599 144.496 201.533 178.853 M202.817 145.230 C 202.835 145.633,203.833 148.057,203.854 147.749 C 203.876 147.441,203.028 144.897,202.905 144.897 C 202.848 144.897,202.809 145.047,202.817 145.230 M196.428 147.324 C 196.265 147.794,196.139 148.311,196.150 148.472 C 196.160 148.634,196.340 148.296,196.551 147.722 C 196.761 147.148,196.887 146.631,196.830 146.574 C 196.773 146.517,196.592 146.855,196.428 147.324 M204.306 149.566 C 204.586 150.836,204.968 151.599,204.774 150.500 C 204.683 149.987,204.501 149.386,204.369 149.166 C 204.212 148.904,204.190 149.043,204.306 149.566 M195.216 151.187 C 195.118 151.578,195.089 151.949,195.152 152.012 C 195.215 152.075,195.346 151.806,195.445 151.415 C 195.543 151.024,195.572 150.653,195.509 150.590 C 195.446 150.527,195.314 150.795,195.216 151.187 M205.249 152.635 C 205.262 153.328,205.683 154.467,205.692 153.836 C 205.696 153.542,205.596 153.062,205.470 152.769 C 205.330 152.442,205.244 152.390,205.249 152.635 M194.429 153.579 C 194.338 153.818,194.275 154.333,194.290 154.725 C 194.311 155.298,194.364 155.233,194.561 154.396 C 194.811 153.328,194.727 152.804,194.429 153.579 M206.057 155.971 C 206.057 156.264,206.153 156.805,206.271 157.171 C 206.440 157.700,206.484 157.727,206.484 157.305 C 206.484 157.011,206.388 156.471,206.271 156.104 C 206.102 155.576,206.057 155.548,206.057 155.971 M193.646 156.911 C 193.549 157.275,193.480 157.872,193.493 158.239 C 193.509 158.718,193.585 158.610,193.762 157.856 C 194.033 156.701,193.929 155.854,193.646 156.911 M206.847 159.440 C 206.840 159.733,206.935 160.454,207.056 161.041 L 207.277 162.108 207.281 161.174 C 207.283 160.660,207.189 159.940,207.071 159.573 C 206.899 159.034,206.856 159.008,206.847 159.440 M192.795 161.708 C 192.691 162.606,192.662 163.398,192.732 163.468 C 192.801 163.537,192.941 162.857,193.043 161.956 C 193.145 161.055,193.174 160.263,193.107 160.196 C 193.040 160.129,192.899 160.809,192.795 161.708 M207.672 164.777 C 207.675 165.364,207.730 165.572,207.794 165.240 C 207.858 164.908,207.855 164.428,207.788 164.173 C 207.722 163.918,207.669 164.189,207.672 164.777 M192.041 166.749 C 191.942 167.242,191.878 168.501,191.898 169.546 L 191.935 171.448 192.162 168.913 C 192.401 166.249,192.344 165.233,192.041 166.749 M198.594 167.045 C 198.594 167.558,198.649 167.769,198.716 167.512 C 198.783 167.255,198.783 166.835,198.716 166.578 C 198.649 166.321,198.594 166.531,198.594 167.045 M207.939 167.178 C 207.942 167.765,207.997 167.974,208.061 167.642 C 208.124 167.310,208.122 166.830,208.055 166.575 C 207.988 166.319,207.936 166.591,207.939 167.178 M208.206 170.113 C 208.209 170.700,208.264 170.909,208.327 170.577 C 208.391 170.245,208.389 169.765,208.322 169.510 C 208.255 169.255,208.203 169.526,208.206 170.113 M208.406 178.301 C 208.406 181.459,208.351 184.991,208.285 186.151 C 208.166 188.227,208.168 188.235,208.409 186.658 C 208.676 184.907,208.804 172.958,208.558 172.712 C 208.474 172.628,208.406 175.143,208.406 178.301 M191.671 174.116 C 191.673 174.850,191.725 175.118,191.786 174.713 C 191.847 174.307,191.846 173.707,191.782 173.379 C 191.719 173.050,191.669 173.382,191.671 174.116 M169.445 176.113 C 169.740 176.864,170.222 177.948,170.515 178.522 C 170.808 179.096,171.047 179.750,171.047 179.976 C 171.047 180.202,171.137 180.389,171.247 180.391 C 171.358 180.393,171.740 180.991,172.098 181.720 C 172.455 182.449,172.793 183.000,172.848 182.945 C 172.903 182.890,172.297 181.541,171.501 179.948 C 170.706 178.355,169.909 176.603,169.731 176.054 C 169.553 175.506,169.295 174.988,169.157 174.903 C 169.019 174.818,169.149 175.362,169.445 176.113 M191.395 178.119 C 191.398 178.706,191.452 178.915,191.516 178.583 C 191.580 178.251,191.578 177.770,191.511 177.515 C 191.444 177.260,191.392 177.532,191.395 178.119 M229.689 177.785 C 229.473 178.115,229.205 178.676,229.092 179.031 C 228.980 179.386,228.302 180.817,227.586 182.211 C 226.870 183.605,226.334 184.795,226.396 184.857 C 226.527 184.988,226.817 184.467,228.215 181.588 C 228.785 180.414,229.370 179.235,229.515 178.968 C 230.268 177.589,230.399 176.699,229.689 177.785 M191.667 181.988 C 191.667 182.648,191.719 182.919,191.783 182.588 C 191.846 182.258,191.846 181.718,191.783 181.388 C 191.719 181.057,191.667 181.328,191.667 181.988 M172.927 183.456 C 172.927 183.602,173.162 184.023,173.449 184.390 C 173.736 184.757,173.971 184.937,173.971 184.790 C 173.971 184.643,173.736 184.223,173.449 183.856 C 173.162 183.489,172.927 183.309,172.927 183.456 M174.171 185.590 C 175.491 188.372,176.140 189.566,177.115 191.011 C 177.740 191.937,178.252 192.779,178.252 192.882 C 178.252 193.151,183.162 199.991,185.119 202.448 C 189.418 207.846,194.692 212.448,197.265 213.048 C 198.184 213.262,198.188 213.054,197.317 210.807 C 196.946 209.853,196.713 209.373,196.798 209.740 C 197.448 212.551,197.169 212.769,194.930 211.196 C 194.196 210.680,193.301 210.052,192.940 209.799 C 189.836 207.623,182.908 199.232,179.012 192.929 C 178.240 191.681,177.274 190.192,176.863 189.620 C 176.453 189.047,176.117 188.483,176.117 188.366 C 176.117 188.248,175.738 187.576,175.274 186.871 C 174.288 185.373,173.797 184.803,174.171 185.590 M225.144 186.591 C 224.636 187.362,223.934 188.513,223.584 189.149 C 222.187 191.694,222.032 191.954,221.822 192.105 C 221.703 192.191,220.442 194.006,219.021 196.137 C 214.640 202.709,208.851 209.057,205.232 211.260 C 202.877 212.693,202.745 212.747,202.504 212.367 C 202.285 212.021,202.235 212.135,202.280 212.875 C 202.382 214.530,209.785 209.022,213.247 204.715 C 214.033 203.737,215.367 202.107,216.211 201.094 C 217.055 200.080,217.745 199.089,217.745 198.891 C 217.745 198.694,217.845 198.532,217.966 198.532 C 218.201 198.532,224.149 189.694,224.149 189.346 C 224.149 189.234,224.373 188.823,224.647 188.433 C 225.152 187.714,226.331 185.190,226.162 185.190 C 226.111 185.190,225.653 185.821,225.144 186.591 M191.944 186.925 C 191.945 187.805,191.995 188.133,192.055 187.654 C 192.114 187.174,192.113 186.454,192.052 186.053 C 191.991 185.652,191.942 186.044,191.944 186.925 M198.620 187.191 C 198.621 188.219,198.669 188.606,198.727 188.053 C 198.785 187.499,198.784 186.659,198.725 186.185 C 198.666 185.711,198.619 186.164,198.620 187.191 M207.765 190.420 C 207.665 191.397,207.638 192.250,207.704 192.316 C 207.771 192.383,207.910 191.641,208.014 190.669 C 208.118 189.697,208.146 188.844,208.075 188.774 C 208.005 188.703,207.865 189.444,207.765 190.420 M192.201 189.993 C 192.201 190.654,192.253 190.924,192.316 190.594 C 192.380 190.264,192.380 189.723,192.316 189.393 C 192.253 189.063,192.201 189.333,192.201 189.993 M192.724 193.729 C 192.725 194.906,193.123 196.656,193.149 195.597 C 193.157 195.230,193.065 194.450,192.944 193.863 L 192.723 192.795 192.724 193.729 M206.866 196.664 C 206.866 197.178,206.921 197.388,206.988 197.131 C 207.056 196.875,207.056 196.454,206.988 196.197 C 206.921 195.941,206.866 196.151,206.866 196.664 M193.490 198.132 C 193.466 198.922,193.955 201.070,194.119 200.892 C 194.166 200.842,194.049 200.020,193.859 199.066 C 193.650 198.016,193.505 197.647,193.490 198.132 M206.152 199.748 C 206.052 200.283,206.030 200.782,206.103 200.855 C 206.176 200.928,206.319 200.550,206.419 200.015 C 206.520 199.479,206.542 198.981,206.468 198.908 C 206.395 198.834,206.253 199.212,206.152 199.748 M205.337 203.069 C 205.236 203.530,205.208 203.963,205.276 204.031 C 205.344 204.099,205.477 203.771,205.570 203.302 C 205.664 202.833,205.691 202.400,205.631 202.340 C 205.571 202.279,205.438 202.607,205.337 203.069 M195.067 204.692 C 195.070 205.047,195.190 205.517,195.334 205.737 C 195.519 206.019,195.546 205.861,195.425 205.203 C 195.214 204.053,195.062 203.836,195.067 204.692 M204.702 205.203 C 204.680 205.424,204.596 205.904,204.514 206.271 C 204.386 206.847,204.407 206.874,204.669 206.463 C 204.835 206.202,204.920 205.722,204.857 205.396 C 204.794 205.070,204.724 204.983,204.702 205.203 M196.000 207.597 C 196.077 208.106,196.262 208.643,196.410 208.791 C 196.591 208.972,196.596 208.800,196.426 208.266 C 195.970 206.834,195.857 206.657,196.000 207.597 M202.832 210.874 C 202.567 211.667,202.576 211.697,202.939 211.223 C 203.157 210.938,203.336 210.548,203.336 210.356 C 203.336 209.761,203.134 209.968,202.832 210.874 " stroke="none" fill="#601910" fill-rule="evenodd"></path></g></svg>