<svg id="svg" version="1.1" xmlns="http://www.w3.org/2000/svg" xmlns:xlink="http://www.w3.org/1999/xlink" width="400" height="173.4375" viewBox="0, 0, 400,173.4375"><g id="svgg"><path id="path0" d="M138.142 9.369 C 138.045 9.466,137.561 9.554,137.066 9.565 C 136.571 9.577,136.167 9.654,136.167 9.736 C 136.167 9.819,135.898 9.887,135.570 9.887 C 135.241 9.887,134.929 9.958,134.876 10.044 C 134.822 10.131,134.388 10.255,133.911 10.321 C 133.434 10.387,133.044 10.511,133.044 10.597 C 133.044 10.684,132.888 10.755,132.697 10.755 C 132.507 10.755,132.350 10.833,132.350 10.928 C 132.350 11.023,132.194 11.101,132.003 11.101 C 131.813 11.101,131.657 11.180,131.657 11.275 C 131.657 11.370,131.539 11.448,131.396 11.448 C 131.253 11.448,131.136 11.517,131.136 11.600 C 131.136 11.684,130.922 11.795,130.659 11.848 C 130.397 11.902,130.010 12.106,129.799 12.304 C 129.588 12.501,129.351 12.663,129.271 12.663 C 129.191 12.663,128.811 12.955,128.426 13.313 C 128.040 13.671,127.517 14.119,127.262 14.308 C 127.008 14.498,126.800 14.715,126.800 14.790 C 126.800 14.865,126.448 15.278,126.019 15.707 C 125.590 16.137,125.239 16.603,125.239 16.744 C 125.239 16.884,125.156 16.999,125.055 16.999 C 124.954 16.999,124.919 17.077,124.978 17.173 C 125.037 17.268,124.964 17.346,124.815 17.346 C 124.660 17.346,124.545 17.494,124.545 17.693 C 124.545 17.884,124.486 18.040,124.415 18.041 C 124.240 18.042,123.677 19.045,123.677 19.355 C 123.677 19.490,123.599 19.601,123.504 19.601 C 123.408 19.601,123.330 19.719,123.330 19.864 C 123.330 20.008,123.261 20.262,123.177 20.427 C 122.748 21.272,122.600 21.676,122.576 22.076 C 122.562 22.318,122.501 22.487,122.442 22.450 C 122.315 22.372,122.121 23.439,122.118 24.231 C 122.117 24.535,122.038 24.833,121.943 24.892 C 121.724 25.027,121.707 30.997,121.925 31.078 C 122.011 31.110,122.136 31.722,122.203 32.437 C 122.270 33.153,122.395 33.764,122.481 33.796 C 122.566 33.828,122.637 34.081,122.637 34.360 C 122.637 34.638,122.715 34.866,122.810 34.866 C 122.905 34.866,122.984 35.061,122.984 35.299 C 122.984 35.538,123.062 35.733,123.157 35.733 C 123.252 35.733,123.330 35.889,123.330 36.080 C 123.330 36.271,123.400 36.427,123.485 36.427 C 123.569 36.427,123.690 36.700,123.753 37.034 C 123.815 37.368,123.941 37.641,124.032 37.641 C 124.123 37.641,124.198 37.743,124.198 37.868 C 124.198 37.994,124.354 38.263,124.545 38.468 C 124.735 38.673,124.892 38.922,124.892 39.021 C 124.892 39.121,124.964 39.202,125.053 39.202 C 125.142 39.202,125.264 39.357,125.324 39.545 C 125.477 40.027,127.910 42.465,129.055 43.284 C 129.579 43.659,130.035 44.026,130.066 44.099 C 130.098 44.173,130.274 44.232,130.457 44.232 C 130.640 44.232,130.789 44.310,130.789 44.406 C 130.789 44.501,130.945 44.579,131.136 44.579 C 131.327 44.579,131.483 44.651,131.483 44.739 C 131.483 44.827,131.737 44.954,132.047 45.021 C 132.357 45.088,132.650 45.192,132.697 45.252 C 132.883 45.483,133.577 45.794,133.909 45.794 C 134.101 45.794,134.258 45.872,134.258 45.967 C 134.258 46.062,134.516 46.141,134.831 46.141 C 135.146 46.141,135.486 46.223,135.588 46.325 C 135.689 46.426,136.641 46.555,137.704 46.611 C 138.766 46.667,139.636 46.779,139.636 46.860 C 139.636 46.941,140.221 47.008,140.937 47.008 C 141.652 47.008,142.238 46.942,142.238 46.861 C 142.238 46.780,143.111 46.664,144.178 46.603 C 145.246 46.542,146.198 46.413,146.294 46.316 C 146.391 46.220,146.684 46.141,146.946 46.141 C 147.207 46.141,147.469 46.062,147.528 45.967 C 147.587 45.872,147.826 45.794,148.059 45.794 C 148.292 45.794,148.482 45.716,148.482 45.620 C 148.482 45.525,148.638 45.447,148.829 45.447 C 149.020 45.447,149.176 45.377,149.176 45.293 C 149.176 45.208,149.449 45.087,149.783 45.024 C 150.117 44.962,150.390 44.836,150.390 44.745 C 150.390 44.654,150.546 44.579,150.737 44.579 C 150.928 44.579,151.084 44.501,151.084 44.406 C 151.084 44.310,151.201 44.232,151.343 44.232 C 151.485 44.232,151.699 44.076,151.818 43.886 C 151.937 43.695,152.172 43.539,152.340 43.539 C 152.508 43.539,152.645 43.417,152.645 43.268 C 152.645 43.119,152.717 43.042,152.805 43.096 C 152.892 43.151,153.082 43.077,153.226 42.933 C 153.370 42.789,153.542 42.671,153.607 42.671 C 153.768 42.671,155.764 40.615,156.201 39.999 C 156.392 39.730,156.646 39.408,156.765 39.282 C 156.884 39.156,156.982 38.970,156.982 38.868 C 156.982 38.765,157.060 38.682,157.155 38.682 C 157.251 38.682,157.329 38.600,157.329 38.499 C 157.329 38.399,157.524 38.029,157.762 37.678 C 158.001 37.327,158.196 36.902,158.196 36.733 C 158.196 36.565,158.274 36.427,158.369 36.427 C 158.465 36.427,158.543 36.275,158.543 36.090 C 158.543 35.905,158.621 35.705,158.716 35.646 C 158.812 35.587,158.890 35.387,158.890 35.202 C 158.890 35.017,158.968 34.866,159.063 34.866 C 159.159 34.866,159.237 34.638,159.237 34.360 C 159.237 34.081,159.313 33.828,159.406 33.796 C 159.500 33.764,159.628 33.055,159.692 32.220 C 159.756 31.386,159.875 30.703,159.956 30.703 C 160.038 30.703,160.104 29.454,160.104 27.927 C 160.104 26.401,160.036 25.152,159.953 25.152 C 159.870 25.152,159.748 24.529,159.681 23.767 C 159.615 23.006,159.488 22.337,159.399 22.282 C 159.310 22.227,159.237 21.987,159.237 21.749 C 159.237 21.504,159.161 21.362,159.063 21.422 C 158.962 21.485,158.890 21.309,158.890 20.999 C 158.890 20.707,158.812 20.468,158.716 20.468 C 158.621 20.468,158.543 20.312,158.543 20.121 C 158.543 19.931,158.468 19.775,158.377 19.775 C 158.286 19.775,158.160 19.501,158.098 19.167 C 158.035 18.833,157.915 18.560,157.830 18.560 C 157.745 18.560,157.676 18.443,157.676 18.300 C 157.676 18.157,157.598 18.040,157.502 18.040 C 157.407 18.040,157.329 17.901,157.329 17.731 C 157.329 17.562,157.173 17.310,156.982 17.173 C 156.791 17.035,156.635 16.823,156.635 16.702 C 156.635 16.428,153.242 13.010,152.970 13.010 C 152.862 13.010,152.646 12.866,152.492 12.692 C 152.055 12.197,151.292 11.754,151.091 11.878 C 150.990 11.940,150.861 11.869,150.804 11.720 C 150.747 11.570,150.591 11.448,150.458 11.448 C 150.326 11.448,150.217 11.370,150.217 11.275 C 150.217 11.180,150.061 11.101,149.870 11.101 C 149.679 11.101,149.523 11.023,149.523 10.928 C 149.523 10.833,149.371 10.755,149.186 10.755 C 149.001 10.755,148.804 10.681,148.749 10.591 C 148.693 10.501,148.297 10.375,147.869 10.311 C 147.441 10.247,147.048 10.125,146.995 10.041 C 146.943 9.956,146.632 9.887,146.304 9.887 C 145.975 9.887,145.707 9.809,145.707 9.714 C 145.707 9.617,145.244 9.540,144.666 9.540 C 144.088 9.540,143.625 9.463,143.625 9.367 C 143.625 9.132,138.377 9.134,138.142 9.369 M9.193 87.077 L 9.193 162.359 25.319 162.359 C 41.085 162.359,41.449 162.352,41.624 162.024 C 41.876 161.554,41.876 12.601,41.624 12.131 C 41.449 11.803,41.085 11.795,25.319 11.795 L 9.193 11.795 9.193 87.077 M322.637 54.106 C 322.637 54.194,322.032 54.304,321.292 54.352 C 319.341 54.476,318.865 54.538,318.719 54.683 C 318.648 54.755,318.295 54.814,317.934 54.814 C 317.574 54.814,317.232 54.892,317.173 54.987 C 317.114 55.082,316.797 55.160,316.469 55.160 C 316.140 55.160,315.872 55.239,315.872 55.334 C 315.872 55.429,315.637 55.507,315.351 55.507 C 315.065 55.507,314.831 55.585,314.831 55.681 C 314.831 55.776,314.577 55.857,314.267 55.860 C 313.957 55.864,313.508 55.978,313.270 56.114 C 313.031 56.251,312.660 56.365,312.446 56.369 C 312.231 56.372,312.056 56.453,312.056 56.548 C 312.056 56.644,311.860 56.722,311.622 56.722 C 311.383 56.722,311.188 56.800,311.188 56.895 C 311.188 56.990,311.032 57.069,310.841 57.069 C 310.650 57.069,310.494 57.147,310.494 57.242 C 310.494 57.337,310.327 57.415,310.121 57.415 C 309.720 57.415,307.843 58.268,307.748 58.493 C 307.716 58.568,307.540 58.630,307.358 58.630 C 307.175 58.630,307.025 58.708,307.025 58.803 C 307.025 58.899,306.908 58.977,306.765 58.977 C 306.622 58.977,306.505 59.055,306.505 59.150 C 306.505 59.245,306.354 59.324,306.170 59.324 C 305.986 59.324,305.733 59.426,305.606 59.551 C 305.480 59.676,305.124 59.890,304.814 60.027 C 304.503 60.164,304.250 60.317,304.250 60.367 C 304.250 60.418,303.977 60.606,303.643 60.786 C 303.309 60.966,303.036 61.179,303.036 61.259 C 303.036 61.339,302.938 61.405,302.819 61.405 C 302.699 61.406,302.329 61.640,301.995 61.925 C 301.661 62.211,301.333 62.445,301.265 62.445 C 301.198 62.446,300.948 62.641,300.710 62.879 C 300.471 63.118,300.214 63.314,300.138 63.316 C 300.062 63.317,299.581 63.746,299.070 64.270 C 298.558 64.793,298.110 65.221,298.074 65.221 C 297.801 65.221,295.453 67.567,295.326 67.966 C 295.274 68.131,295.064 68.381,294.860 68.522 C 294.225 68.958,293.669 69.563,293.669 69.816 C 293.669 69.949,293.495 70.180,293.283 70.328 C 293.071 70.477,292.965 70.598,293.046 70.598 C 293.128 70.598,292.989 70.760,292.738 70.958 C 292.487 71.156,292.281 71.437,292.281 71.583 C 292.281 71.730,292.086 72.003,291.847 72.191 C 291.609 72.378,291.414 72.614,291.414 72.716 C 291.414 72.817,291.269 73.026,291.092 73.180 C 290.914 73.334,290.714 73.636,290.646 73.851 C 290.578 74.065,290.450 74.241,290.361 74.241 C 290.272 74.241,290.199 74.357,290.199 74.499 C 290.199 74.733,289.931 75.136,289.397 75.701 C 289.289 75.815,289.146 76.158,289.079 76.463 C 289.012 76.767,288.886 77.016,288.798 77.016 C 288.710 77.016,288.638 77.119,288.638 77.244 C 288.638 77.369,288.499 77.623,288.329 77.808 C 288.159 77.993,287.882 78.456,287.714 78.838 C 287.545 79.219,287.333 79.667,287.242 79.833 C 287.151 79.999,287.077 80.252,287.077 80.397 C 287.077 80.541,286.999 80.659,286.904 80.659 C 286.808 80.659,286.730 80.815,286.730 81.006 C 286.730 81.197,286.652 81.353,286.557 81.353 C 286.461 81.353,286.383 81.509,286.383 81.700 C 286.383 81.891,286.310 82.047,286.221 82.047 C 286.131 82.047,286.005 82.398,285.941 82.827 C 285.876 83.257,285.754 83.608,285.670 83.608 C 285.585 83.608,285.516 83.764,285.516 83.955 C 285.516 84.146,285.438 84.302,285.343 84.302 C 285.247 84.302,285.169 84.497,285.169 84.735 C 285.169 84.974,285.091 85.169,284.996 85.169 C 284.900 85.169,284.822 85.403,284.822 85.690 C 284.822 85.976,284.751 86.210,284.665 86.210 C 284.579 86.210,284.454 86.600,284.389 87.077 C 284.323 87.554,284.208 87.944,284.134 87.944 C 284.059 87.944,283.998 88.156,283.998 88.414 C 283.998 88.673,283.910 88.913,283.803 88.949 C 283.696 88.985,283.608 89.281,283.608 89.607 C 283.608 89.933,283.521 90.199,283.414 90.199 C 283.300 90.199,283.255 90.381,283.305 90.643 C 283.352 90.887,283.289 91.188,283.165 91.311 C 283.041 91.435,282.885 92.096,282.818 92.780 C 282.750 93.464,282.627 94.065,282.544 94.116 C 282.462 94.168,282.394 94.556,282.394 94.980 C 282.394 95.404,282.316 95.750,282.220 95.750 C 282.125 95.750,282.047 96.164,282.047 96.670 C 282.047 97.175,281.975 97.663,281.888 97.754 C 281.801 97.844,281.689 98.387,281.639 98.959 C 281.590 99.532,281.460 101.054,281.351 102.342 C 281.081 105.523,281.216 118.706,281.522 119.076 C 281.645 119.224,281.731 119.782,281.723 120.379 C 281.715 120.953,281.784 121.422,281.877 121.422 C 281.971 121.422,282.047 121.847,282.047 122.366 C 282.047 122.885,282.125 123.358,282.220 123.417 C 282.316 123.476,282.394 123.866,282.394 124.284 C 282.394 124.703,282.465 125.089,282.553 125.143 C 282.640 125.197,282.766 125.827,282.833 126.543 C 282.900 127.259,283.024 127.888,283.108 127.940 C 283.192 127.992,283.261 128.259,283.261 128.534 C 283.261 128.809,283.339 129.082,283.435 129.141 C 283.530 129.200,283.608 129.517,283.608 129.845 C 283.608 130.174,283.686 130.442,283.781 130.442 C 283.877 130.442,283.955 130.633,283.955 130.866 C 283.955 131.099,284.024 131.332,284.108 131.384 C 284.193 131.436,284.314 131.829,284.379 132.257 C 284.443 132.686,284.569 133.082,284.659 133.137 C 284.749 133.193,284.822 133.468,284.822 133.748 C 284.822 134.029,284.900 134.258,284.996 134.258 C 285.091 134.258,285.169 134.420,285.169 134.618 C 285.169 134.815,285.287 135.095,285.431 135.239 C 285.575 135.383,285.648 135.572,285.594 135.660 C 285.540 135.748,285.569 135.820,285.660 135.820 C 285.750 135.820,285.876 136.171,285.941 136.600 C 286.005 137.029,286.131 137.381,286.221 137.381 C 286.310 137.381,286.383 137.532,286.383 137.717 C 286.383 137.903,286.461 138.102,286.557 138.161 C 286.652 138.220,286.730 138.420,286.730 138.605 C 286.730 138.790,286.790 138.942,286.863 138.942 C 286.936 138.942,287.136 139.274,287.308 139.679 C 287.480 140.085,287.712 140.631,287.825 140.893 C 287.937 141.156,288.088 141.370,288.160 141.370 C 288.232 141.370,288.291 141.526,288.291 141.717 C 288.291 141.908,288.369 142.064,288.465 142.064 C 288.560 142.064,288.638 142.148,288.638 142.250 C 288.638 142.352,288.755 142.553,288.899 142.696 C 289.042 142.839,289.159 143.107,289.159 143.291 C 289.159 143.475,289.237 143.625,289.332 143.625 C 289.428 143.625,289.506 143.742,289.506 143.886 C 289.506 144.029,289.571 144.146,289.650 144.146 C 289.729 144.146,289.905 144.360,290.040 144.623 C 290.175 144.885,290.384 145.203,290.503 145.329 C 290.622 145.455,290.720 145.670,290.720 145.806 C 290.720 145.942,290.798 146.054,290.893 146.054 C 290.989 146.054,291.067 146.159,291.067 146.288 C 291.067 146.417,291.301 146.768,291.587 147.067 C 291.873 147.367,292.108 147.687,292.108 147.779 C 292.108 147.871,292.303 148.141,292.541 148.380 C 292.780 148.618,292.975 148.859,292.975 148.916 C 292.975 148.972,293.150 149.209,293.365 149.442 C 294.361 150.523,294.536 150.732,294.536 150.837 C 294.536 151.114,298.727 155.077,298.905 154.967 C 299.024 154.894,299.051 154.925,298.976 155.047 C 298.908 155.157,298.925 155.247,299.014 155.247 C 299.103 155.247,299.543 155.598,299.991 156.028 C 300.439 156.457,300.866 156.808,300.940 156.808 C 301.014 156.808,301.236 156.945,301.433 157.112 C 301.631 157.279,301.956 157.553,302.157 157.720 C 302.357 157.888,302.910 158.235,303.386 158.491 C 303.861 158.748,304.250 159.021,304.250 159.097 C 304.250 159.174,304.406 159.237,304.597 159.237 C 304.788 159.237,304.944 159.306,304.944 159.390 C 304.944 159.474,305.392 159.766,305.941 160.040 C 306.490 160.314,306.964 160.596,306.996 160.668 C 307.028 160.739,307.204 160.798,307.387 160.798 C 307.569 160.798,307.719 160.858,307.719 160.930 C 307.719 161.111,309.027 161.665,309.455 161.665 C 309.645 161.665,309.801 161.743,309.801 161.839 C 309.801 161.934,309.957 162.012,310.147 162.012 C 310.338 162.012,310.494 162.090,310.494 162.186 C 310.494 162.281,310.690 162.359,310.928 162.359 C 311.167 162.359,311.362 162.420,311.362 162.495 C 311.362 162.704,312.876 163.102,313.113 162.956 C 313.247 162.873,313.278 162.899,313.200 163.026 C 313.117 163.160,313.247 163.226,313.596 163.226 C 313.882 163.226,314.165 163.304,314.224 163.400 C 314.283 163.495,314.522 163.573,314.754 163.573 C 314.987 163.573,315.178 163.643,315.178 163.729 C 315.178 163.814,315.471 163.926,315.828 163.978 C 316.186 164.029,316.869 164.158,317.346 164.265 C 318.908 164.614,320.099 164.758,321.552 164.773 C 322.381 164.781,322.984 164.861,322.984 164.961 C 322.984 165.071,324.284 165.134,326.539 165.134 C 328.495 165.134,330.095 165.068,330.095 164.988 C 330.095 164.907,331.208 164.788,332.567 164.723 C 333.927 164.659,335.065 164.530,335.097 164.436 C 335.129 164.343,335.499 164.267,335.921 164.267 C 336.342 164.267,336.687 164.189,336.687 164.094 C 336.687 163.998,336.960 163.920,337.294 163.920 C 337.628 163.920,337.901 163.842,337.901 163.747 C 337.901 163.651,338.170 163.573,338.498 163.573 C 338.826 163.573,339.139 163.503,339.192 163.416 C 339.245 163.330,339.679 163.205,340.156 163.140 C 340.633 163.074,341.023 162.950,341.023 162.863 C 341.023 162.777,341.177 162.706,341.365 162.706 C 341.553 162.706,341.985 162.550,342.324 162.359 C 342.664 162.168,343.096 162.012,343.284 162.012 C 343.472 162.012,343.625 161.938,343.625 161.847 C 343.625 161.755,343.899 161.630,344.232 161.567 C 344.566 161.504,344.840 161.384,344.840 161.299 C 344.840 161.214,344.981 161.145,345.154 161.145 C 345.327 161.145,345.636 160.989,345.840 160.798 C 346.045 160.607,346.333 160.451,346.480 160.451 C 346.627 160.451,346.748 160.379,346.748 160.291 C 346.748 160.203,346.971 160.083,347.245 160.022 C 347.518 159.962,347.905 159.761,348.105 159.575 C 348.304 159.389,348.532 159.237,348.610 159.237 C 348.688 159.237,348.865 159.081,349.003 158.890 C 349.140 158.699,349.382 158.543,349.540 158.543 C 349.698 158.543,349.925 158.426,350.043 158.283 C 350.162 158.140,350.336 158.023,350.429 158.023 C 350.522 158.023,350.817 157.788,351.084 157.502 C 351.351 157.216,351.647 156.982,351.741 156.982 C 351.984 156.982,356.488 152.500,356.529 152.217 C 356.548 152.089,356.814 151.750,357.120 151.464 C 357.425 151.179,357.676 150.859,357.676 150.754 C 357.676 150.650,357.736 150.564,357.810 150.564 C 357.883 150.564,358.097 150.271,358.284 149.913 C 358.472 149.556,358.763 149.137,358.931 148.982 C 359.099 148.828,359.237 148.613,359.237 148.505 C 359.237 148.397,359.315 148.309,359.410 148.309 C 359.523 148.309,359.584 150.766,359.584 155.334 L 359.584 162.359 375.195 162.359 L 390.807 162.359 390.807 109.540 L 390.807 56.722 375.195 56.722 L 359.584 56.722 359.584 63.140 C 359.584 67.303,359.523 69.558,359.410 69.558 C 359.315 69.558,359.237 69.441,359.237 69.299 C 359.237 69.157,359.081 68.943,358.890 68.824 C 358.699 68.704,358.543 68.470,358.543 68.302 C 358.543 68.134,358.470 67.997,358.381 67.997 C 358.292 67.997,358.164 67.821,358.096 67.606 C 358.028 67.392,357.828 67.090,357.651 66.935 C 357.474 66.781,357.329 66.566,357.329 66.458 C 357.329 66.350,357.251 66.262,357.155 66.262 C 357.060 66.262,356.982 66.140,356.982 65.991 C 356.982 65.843,356.904 65.769,356.808 65.828 C 356.713 65.887,356.635 65.853,356.635 65.752 C 356.635 65.497,352.548 61.405,352.294 61.405 C 352.181 61.405,351.935 61.210,351.747 60.971 C 351.559 60.733,351.273 60.538,351.110 60.538 C 350.947 60.538,350.701 60.382,350.564 60.191 C 350.426 60.000,350.254 59.844,350.181 59.844 C 350.107 59.844,349.888 59.707,349.693 59.540 C 349.498 59.373,349.282 59.230,349.214 59.222 C 348.927 59.187,348.373 58.886,348.059 58.595 C 347.874 58.423,347.621 58.283,347.495 58.283 C 347.370 58.283,347.268 58.211,347.268 58.123 C 347.268 58.035,347.035 57.912,346.750 57.850 C 346.464 57.787,346.187 57.664,346.132 57.576 C 346.078 57.487,345.843 57.415,345.610 57.415 C 345.377 57.415,345.186 57.337,345.186 57.242 C 345.186 57.147,345.030 57.069,344.840 57.069 C 344.649 57.069,344.493 56.990,344.493 56.895 C 344.493 56.800,344.374 56.722,344.230 56.722 C 343.976 56.722,343.795 56.650,342.982 56.231 C 342.771 56.122,342.478 56.079,342.331 56.136 C 342.184 56.192,342.064 56.152,342.064 56.046 C 342.064 55.941,341.830 55.854,341.544 55.854 C 341.258 55.854,341.023 55.776,341.023 55.681 C 341.023 55.585,340.750 55.507,340.416 55.507 C 340.082 55.507,339.809 55.429,339.809 55.334 C 339.809 55.239,339.580 55.160,339.299 55.160 C 339.018 55.160,338.741 55.082,338.682 54.987 C 338.623 54.892,338.271 54.814,337.901 54.814 C 337.531 54.814,337.187 54.747,337.137 54.667 C 337.087 54.586,336.728 54.535,336.340 54.553 C 335.952 54.572,335.593 54.521,335.543 54.440 C 335.493 54.359,334.949 54.293,334.335 54.293 C 333.706 54.293,333.218 54.217,333.218 54.120 C 333.218 54.008,331.339 53.946,327.927 53.946 C 324.818 53.946,322.637 54.012,322.637 54.106 M101.474 56.895 C 101.474 56.999,100.781 57.069,99.740 57.069 C 98.786 57.069,98.005 57.140,98.005 57.228 C 98.005 57.315,97.439 57.428,96.748 57.479 C 96.056 57.529,95.139 57.615,94.709 57.670 C 94.280 57.725,93.519 57.815,93.018 57.870 C 92.517 57.925,92.108 58.040,92.108 58.126 C 92.108 58.212,91.756 58.283,91.327 58.283 C 90.898 58.283,90.546 58.361,90.546 58.456 C 90.546 58.552,90.234 58.630,89.853 58.630 C 89.471 58.630,89.159 58.708,89.159 58.803 C 89.159 58.899,88.957 58.977,88.710 58.977 C 88.133 58.977,85.968 59.543,85.892 59.714 C 85.860 59.785,85.644 59.844,85.413 59.844 C 85.181 59.844,84.855 59.913,84.690 59.997 C 83.984 60.356,82.921 60.716,82.365 60.784 C 82.301 60.792,82.191 60.856,82.119 60.928 C 82.048 61.000,81.807 61.058,81.584 61.058 C 81.362 61.058,81.180 61.136,81.180 61.232 C 81.180 61.327,81.023 61.405,80.833 61.405 C 80.642 61.405,80.486 61.483,80.486 61.578 C 80.486 61.674,80.291 61.752,80.052 61.752 C 79.814 61.752,79.618 61.830,79.618 61.925 C 79.618 62.021,79.475 62.099,79.300 62.099 C 79.125 62.099,78.924 62.157,78.852 62.229 C 78.781 62.301,78.670 62.370,78.607 62.382 C 78.146 62.475,77.710 62.685,77.710 62.813 C 77.710 62.897,77.515 62.966,77.277 62.966 C 77.038 62.966,76.843 63.044,76.843 63.140 C 76.843 63.235,76.687 63.313,76.496 63.313 C 76.305 63.313,76.149 63.391,76.149 63.487 C 76.149 63.582,76.032 63.660,75.889 63.660 C 75.746 63.660,75.629 63.738,75.629 63.833 C 75.629 63.929,75.570 63.998,75.499 63.988 C 75.202 63.945,74.599 64.231,74.687 64.374 C 74.739 64.458,74.582 64.527,74.338 64.527 C 74.094 64.527,73.894 64.587,73.894 64.660 C 73.894 64.733,73.601 64.929,73.244 65.097 C 72.465 65.461,71.424 66.076,70.980 66.435 C 70.528 66.800,70.050 67.104,69.644 67.284 C 69.454 67.368,69.063 67.644,68.777 67.895 C 68.174 68.426,68.080 68.497,67.414 68.925 C 67.142 69.100,66.682 69.470,66.391 69.747 C 66.101 70.025,65.809 70.252,65.742 70.252 C 65.526 70.252,64.874 70.893,64.874 71.106 C 64.874 71.220,64.810 71.273,64.732 71.225 C 64.654 71.177,64.481 71.289,64.347 71.475 C 64.213 71.661,64.004 71.813,63.882 71.813 C 63.760 71.813,63.660 71.895,63.660 71.996 C 63.660 72.097,63.601 72.147,63.530 72.108 C 63.358 72.012,62.266 73.136,62.400 73.270 C 62.457 73.327,62.420 73.374,62.317 73.374 C 62.214 73.374,61.460 74.037,60.639 74.848 C 59.819 75.659,59.179 76.323,59.216 76.323 C 59.302 76.323,58.560 77.188,57.719 78.070 C 57.361 78.444,57.069 78.813,57.069 78.888 C 57.069 78.964,56.795 79.315,56.461 79.669 C 56.127 80.023,55.854 80.394,55.854 80.494 C 55.854 80.593,55.679 80.855,55.464 81.075 C 54.845 81.709,54.293 82.453,54.293 82.653 C 54.293 82.755,54.137 82.950,53.946 83.088 C 53.755 83.225,53.599 83.477,53.599 83.646 C 53.599 83.816,53.534 83.955,53.453 83.955 C 53.373 83.955,53.160 84.228,52.980 84.562 C 52.800 84.896,52.593 85.169,52.519 85.169 C 52.445 85.169,52.385 85.325,52.385 85.516 C 52.385 85.707,52.307 85.863,52.212 85.863 C 52.116 85.863,52.038 85.980,52.038 86.123 C 52.038 86.266,51.968 86.383,51.882 86.383 C 51.796 86.383,51.581 86.734,51.405 87.163 C 51.228 87.592,51.026 87.943,50.954 87.944 C 50.882 87.944,50.824 88.101,50.824 88.291 C 50.824 88.482,50.746 88.638,50.650 88.638 C 50.555 88.638,50.477 88.794,50.477 88.985 C 50.477 89.176,50.399 89.332,50.304 89.332 C 50.208 89.332,50.130 89.449,50.130 89.592 C 50.130 89.735,50.061 89.853,49.976 89.853 C 49.891 89.853,49.771 90.126,49.708 90.460 C 49.645 90.794,49.519 91.067,49.428 91.067 C 49.337 91.067,49.263 91.216,49.263 91.399 C 49.263 91.582,49.204 91.758,49.133 91.790 C 48.907 91.890,48.242 93.302,48.123 93.931 C 48.061 94.264,47.937 94.536,47.848 94.536 C 47.759 94.536,47.699 94.634,47.715 94.753 C 47.778 95.244,47.691 95.591,47.528 95.490 C 47.433 95.431,47.355 95.544,47.355 95.740 C 47.355 95.936,47.277 96.097,47.181 96.097 C 47.086 96.097,47.008 96.331,47.008 96.618 C 47.008 96.904,46.937 97.138,46.851 97.138 C 46.764 97.138,46.640 97.528,46.574 98.005 C 46.509 98.482,46.384 98.873,46.298 98.873 C 46.211 98.873,46.141 99.107,46.141 99.393 C 46.141 99.679,46.062 99.913,45.967 99.913 C 45.872 99.913,45.794 100.186,45.794 100.520 C 45.794 100.854,45.716 101.127,45.620 101.127 C 45.525 101.127,45.447 101.385,45.447 101.700 C 45.447 102.015,45.364 102.355,45.264 102.455 C 45.163 102.556,45.034 103.625,44.977 104.832 L 44.874 107.025 50.436 107.025 C 53.499 107.025,56.025 106.956,56.057 106.872 C 56.088 106.787,57.283 106.664,58.711 106.597 C 60.139 106.531,61.442 106.404,61.605 106.317 C 61.769 106.229,62.254 106.158,62.684 106.158 C 63.114 106.158,63.514 106.080,63.573 105.984 C 63.632 105.889,64.023 105.811,64.441 105.811 C 64.859 105.811,65.249 105.733,65.308 105.637 C 65.367 105.542,65.723 105.464,66.099 105.464 C 66.475 105.464,66.782 105.395,66.782 105.311 C 66.782 105.226,67.289 105.103,67.908 105.037 C 68.527 104.971,69.078 104.844,69.132 104.757 C 69.187 104.669,69.500 104.597,69.828 104.597 C 70.156 104.597,70.425 104.519,70.425 104.423 C 70.425 104.328,70.655 104.250,70.935 104.250 C 71.216 104.250,71.494 104.172,71.552 104.076 C 71.611 103.981,71.846 103.903,72.073 103.903 C 72.300 103.903,72.534 103.825,72.593 103.729 C 72.652 103.634,72.891 103.556,73.124 103.556 C 73.357 103.556,73.547 103.487,73.547 103.402 C 73.547 103.318,73.899 103.196,74.328 103.131 C 74.757 103.067,75.108 102.941,75.108 102.851 C 75.108 102.762,75.343 102.689,75.629 102.689 C 75.991 102.689,76.149 102.604,76.149 102.410 C 76.149 102.233,76.245 102.168,76.409 102.231 C 76.552 102.286,76.670 102.255,76.670 102.163 C 76.670 102.070,76.904 101.995,77.190 101.995 C 77.476 101.995,77.710 101.920,77.710 101.829 C 77.710 101.738,77.984 101.612,78.319 101.549 C 78.654 101.487,78.971 101.366,79.023 101.281 C 79.076 101.197,79.270 101.127,79.455 101.127 C 79.640 101.127,79.792 101.049,79.792 100.954 C 79.792 100.859,79.948 100.781,80.139 100.781 C 80.330 100.781,80.486 100.722,80.486 100.649 C 80.486 100.577,80.739 100.411,81.049 100.279 C 82.382 99.715,82.847 99.473,83.164 99.182 C 83.349 99.012,83.594 98.873,83.709 98.873 C 83.824 98.873,83.963 98.755,84.018 98.611 C 84.073 98.467,84.179 98.368,84.254 98.392 C 84.469 98.460,85.516 97.978,85.516 97.811 C 85.516 97.727,85.633 97.658,85.776 97.658 C 85.919 97.658,86.036 97.580,86.036 97.485 C 86.036 97.389,86.127 97.311,86.237 97.311 C 86.347 97.311,86.693 97.116,87.006 96.878 C 87.319 96.639,87.640 96.444,87.721 96.444 C 87.802 96.444,87.980 96.288,88.118 96.097 C 88.255 95.906,88.468 95.750,88.590 95.750 C 88.712 95.750,88.812 95.680,88.812 95.594 C 88.812 95.508,89.044 95.356,89.328 95.257 C 89.612 95.158,90.099 94.799,90.411 94.460 C 90.723 94.120,91.057 93.842,91.154 93.842 C 91.351 93.842,92.212 93.085,92.307 92.829 C 92.340 92.739,92.641 92.513,92.975 92.329 C 93.309 92.144,93.678 91.804,93.796 91.573 C 93.914 91.342,94.012 91.219,94.013 91.300 C 94.014 91.380,95.128 90.319,96.487 88.942 C 98.893 86.505,99.632 85.697,100.347 84.723 C 100.538 84.463,100.907 84.008,101.168 83.712 C 101.429 83.416,101.644 83.112,101.645 83.036 C 101.647 82.960,101.837 82.709,102.068 82.478 C 102.299 82.247,102.539 81.899,102.600 81.705 C 102.662 81.512,102.780 81.353,102.862 81.353 C 102.945 81.353,103.068 81.177,103.135 80.963 C 103.203 80.748,103.384 80.454,103.537 80.310 C 103.810 80.054,104.033 79.706,104.584 78.675 C 104.734 78.394,104.993 78.008,105.160 77.818 C 105.327 77.627,105.464 77.369,105.464 77.244 C 105.464 77.119,105.523 77.016,105.595 77.016 C 105.738 77.016,106.256 75.959,106.202 75.776 C 106.184 75.713,106.284 75.567,106.424 75.451 C 106.564 75.334,106.678 75.132,106.678 75.000 C 106.678 74.869,106.765 74.761,106.870 74.761 C 106.976 74.761,107.017 74.644,106.962 74.501 C 106.902 74.343,106.962 74.241,107.117 74.241 C 107.257 74.241,107.375 74.105,107.378 73.938 C 107.381 73.771,107.498 73.482,107.638 73.297 C 107.778 73.112,107.892 72.819,107.892 72.647 C 107.892 72.474,107.979 72.333,108.084 72.333 C 108.190 72.333,108.230 72.213,108.174 72.066 C 108.116 71.914,108.183 71.757,108.329 71.701 C 108.471 71.647,108.586 71.415,108.586 71.187 C 108.586 70.959,108.645 70.772,108.717 70.772 C 108.903 70.772,109.280 69.869,109.398 69.137 C 109.454 68.796,109.567 68.517,109.650 68.517 C 109.733 68.517,109.801 68.365,109.801 68.180 C 109.801 67.995,109.879 67.795,109.974 67.736 C 110.069 67.677,110.147 67.478,110.147 67.292 C 110.147 67.107,110.235 66.956,110.341 66.956 C 110.448 66.956,110.495 66.803,110.446 66.615 C 110.397 66.428,110.464 66.186,110.595 66.077 C 110.727 65.968,110.885 65.496,110.947 65.029 C 111.009 64.562,111.127 64.180,111.211 64.180 C 111.294 64.180,111.362 63.907,111.362 63.573 C 111.362 63.239,111.440 62.966,111.535 62.966 C 111.631 62.966,111.709 62.693,111.709 62.359 C 111.709 62.025,111.787 61.752,111.882 61.752 C 111.977 61.752,112.056 61.455,112.056 61.093 C 112.056 60.730,112.142 60.348,112.247 60.242 C 112.354 60.135,112.411 59.664,112.377 59.167 C 112.343 58.680,112.374 58.283,112.446 58.283 C 112.517 58.283,112.576 57.931,112.576 57.502 L 112.576 56.722 107.025 56.722 C 103.440 56.722,101.474 56.783,101.474 56.895 M124.892 109.540 L 124.892 162.359 140.937 162.359 L 156.982 162.359 156.982 109.540 L 156.982 56.722 140.937 56.722 L 124.892 56.722 124.892 109.540 M168.951 57.329 C 168.951 57.663,169.020 57.936,169.104 57.936 C 169.189 57.936,169.311 58.287,169.375 58.716 C 169.440 59.146,169.565 59.497,169.655 59.497 C 169.745 59.497,169.818 59.731,169.818 60.017 C 169.818 60.304,169.896 60.538,169.991 60.538 C 170.087 60.538,170.165 60.733,170.165 60.971 C 170.165 61.210,170.243 61.405,170.338 61.405 C 170.434 61.405,170.512 61.600,170.512 61.839 C 170.512 62.077,170.590 62.272,170.685 62.272 C 170.781 62.272,170.858 62.448,170.858 62.663 C 170.857 63.127,171.410 64.763,171.596 64.845 C 171.667 64.877,171.726 65.092,171.726 65.322 C 171.726 65.553,171.804 65.742,171.899 65.742 C 171.995 65.742,172.073 65.976,172.073 66.262 C 172.073 66.548,172.141 66.782,172.224 66.782 C 172.307 66.782,172.426 67.098,172.488 67.484 C 172.549 67.870,172.676 68.338,172.770 68.524 C 172.864 68.711,173.018 69.019,173.114 69.208 C 173.209 69.398,173.287 69.671,173.287 69.816 C 173.287 69.960,173.365 70.078,173.461 70.078 C 173.556 70.078,173.634 70.312,173.634 70.598 C 173.634 70.885,173.703 71.119,173.788 71.119 C 173.872 71.119,173.996 71.482,174.062 71.925 C 174.129 72.368,174.246 72.856,174.322 73.009 C 174.398 73.162,174.557 73.521,174.675 73.807 C 174.792 74.094,174.958 74.463,175.042 74.629 C 175.126 74.795,175.195 75.048,175.195 75.193 C 175.195 75.337,175.263 75.455,175.346 75.455 C 175.429 75.455,175.549 75.842,175.611 76.316 C 175.674 76.789,175.801 77.223,175.894 77.280 C 175.987 77.337,176.062 77.574,176.062 77.807 C 176.062 78.040,176.141 78.231,176.236 78.231 C 176.331 78.231,176.409 78.421,176.409 78.654 C 176.409 78.887,176.487 79.126,176.583 79.185 C 176.678 79.244,176.756 79.482,176.756 79.715 C 176.756 79.948,176.830 80.139,176.919 80.139 C 177.009 80.139,177.135 80.490,177.199 80.919 C 177.263 81.349,177.385 81.700,177.470 81.700 C 177.554 81.700,177.624 81.890,177.624 82.123 C 177.624 82.356,177.702 82.595,177.797 82.654 C 177.892 82.713,177.971 82.952,177.971 83.185 C 177.971 83.417,178.049 83.608,178.144 83.608 C 178.239 83.608,178.317 83.803,178.317 84.042 C 178.317 84.280,178.395 84.475,178.491 84.475 C 178.586 84.475,178.664 84.666,178.664 84.899 C 178.664 85.132,178.744 85.371,178.841 85.431 C 178.938 85.491,178.975 85.607,178.925 85.690 C 178.874 85.772,178.911 85.888,179.008 85.948 C 179.105 86.008,179.185 86.286,179.185 86.567 C 179.185 86.848,179.263 87.077,179.358 87.077 C 179.454 87.077,179.532 87.272,179.532 87.511 C 179.532 87.749,179.610 87.944,179.705 87.944 C 179.801 87.944,179.879 88.102,179.879 88.294 C 179.879 88.486,179.951 88.779,180.039 88.944 C 180.128 89.110,180.343 89.733,180.516 90.328 C 180.690 90.924,180.891 91.411,180.963 91.412 C 181.034 91.413,181.093 91.609,181.093 91.847 C 181.093 92.086,181.171 92.281,181.266 92.281 C 181.362 92.281,181.440 92.515,181.440 92.801 C 181.440 93.088,181.518 93.322,181.613 93.322 C 181.709 93.322,181.786 93.458,181.786 93.625 C 181.785 93.950,182.248 95.465,182.501 95.965 C 182.585 96.130,182.654 96.384,182.654 96.528 C 182.654 96.673,182.732 96.791,182.827 96.791 C 182.923 96.791,183.001 96.986,183.001 97.225 C 183.001 97.463,183.079 97.658,183.174 97.658 C 183.270 97.658,183.348 97.853,183.348 98.092 C 183.348 98.330,183.435 98.526,183.541 98.526 C 183.655 98.526,183.701 98.707,183.651 98.963 C 183.605 99.204,183.635 99.443,183.718 99.494 C 183.801 99.545,183.868 99.777,183.868 100.010 C 183.868 100.243,183.946 100.434,184.042 100.434 C 184.137 100.434,184.215 100.593,184.215 100.788 C 184.215 100.983,184.371 101.310,184.562 101.514 C 184.764 101.731,184.909 102.127,184.909 102.461 C 184.909 102.777,184.980 103.036,185.066 103.036 C 185.153 103.036,185.185 103.183,185.138 103.363 C 185.091 103.543,185.137 103.743,185.241 103.807 C 185.344 103.871,185.429 104.114,185.429 104.347 C 185.429 104.580,185.507 104.770,185.603 104.770 C 185.698 104.770,185.776 105.004,185.776 105.291 C 185.776 105.577,185.854 105.811,185.950 105.811 C 186.045 105.811,186.123 106.006,186.123 106.245 C 186.123 106.483,186.201 106.678,186.297 106.678 C 186.392 106.678,186.470 106.834,186.470 107.025 C 186.470 107.216,186.537 107.372,186.620 107.372 C 186.702 107.372,186.748 107.567,186.722 107.806 C 186.696 108.044,186.745 108.239,186.832 108.239 C 186.919 108.239,186.990 108.474,186.990 108.760 C 186.990 109.046,187.069 109.280,187.164 109.280 C 187.259 109.280,187.337 109.475,187.337 109.714 C 187.337 109.952,187.415 110.147,187.511 110.147 C 187.606 110.147,187.684 110.343,187.684 110.581 C 187.684 110.820,187.762 111.015,187.858 111.015 C 187.953 111.015,188.031 111.249,188.031 111.535 C 188.031 111.821,188.113 112.056,188.212 112.056 C 188.312 112.056,188.380 112.153,188.363 112.272 C 188.310 112.645,188.587 113.617,188.747 113.617 C 188.830 113.617,188.899 113.812,188.899 114.050 C 188.899 114.289,188.977 114.484,189.072 114.484 C 189.167 114.484,189.245 114.718,189.245 115.004 C 189.245 115.291,189.324 115.525,189.419 115.525 C 189.514 115.525,189.592 115.720,189.592 115.958 C 189.592 116.197,189.670 116.392,189.766 116.392 C 189.861 116.392,189.926 116.451,189.910 116.522 C 189.852 116.782,190.156 117.960,190.306 118.052 C 190.390 118.104,190.460 118.338,190.460 118.571 C 190.460 118.803,190.538 118.994,190.633 118.994 C 190.729 118.994,190.807 119.189,190.807 119.428 C 190.807 119.666,190.885 119.861,190.980 119.861 C 191.075 119.861,191.154 120.056,191.154 120.295 C 191.154 120.533,191.225 120.729,191.312 120.729 C 191.399 120.729,191.449 120.865,191.424 121.032 C 191.398 121.199,191.454 121.531,191.547 121.769 C 191.957 122.817,192.070 123.088,192.215 123.371 C 192.299 123.537,192.368 123.791,192.368 123.935 C 192.368 124.080,192.446 124.198,192.541 124.198 C 192.637 124.198,192.715 124.419,192.715 124.689 C 192.715 124.960,192.769 125.235,192.835 125.301 C 192.956 125.422,193.008 125.600,193.182 126.496 C 193.233 126.758,193.344 126.973,193.428 126.973 C 193.513 126.973,193.582 127.130,193.582 127.322 C 193.582 127.514,193.651 127.807,193.735 127.973 C 193.896 128.290,194.157 128.907,194.374 129.488 C 194.446 129.679,194.490 129.927,194.472 130.039 C 194.454 130.151,194.520 130.292,194.618 130.353 C 194.716 130.413,194.796 130.649,194.796 130.876 C 194.796 131.103,194.874 131.337,194.970 131.396 C 195.065 131.455,195.143 131.694,195.143 131.927 C 195.143 132.160,195.221 132.350,195.317 132.350 C 195.412 132.350,195.490 132.546,195.490 132.784 C 195.490 133.023,195.568 133.218,195.663 133.218 C 195.759 133.218,195.837 133.369,195.837 133.554 C 195.837 133.740,195.912 133.937,196.003 133.994 C 196.094 134.050,196.128 134.203,196.078 134.333 C 196.028 134.464,196.070 134.622,196.172 134.685 C 196.274 134.748,196.357 135.021,196.357 135.291 C 196.357 135.561,196.468 135.825,196.604 135.877 C 196.755 135.935,196.815 136.111,196.757 136.329 C 196.704 136.533,196.747 136.687,196.857 136.687 C 196.964 136.687,197.051 136.921,197.051 137.207 C 197.051 137.493,197.129 137.728,197.225 137.728 C 197.320 137.728,197.398 137.854,197.398 138.008 C 197.398 138.395,197.976 140.056,198.135 140.127 C 198.207 140.159,198.265 140.369,198.265 140.594 C 198.265 140.819,198.343 141.051,198.439 141.110 C 198.534 141.169,198.612 141.408,198.612 141.641 C 198.612 141.874,198.690 142.064,198.786 142.064 C 198.881 142.064,198.959 142.221,198.959 142.413 C 198.959 142.606,199.030 142.898,199.116 143.064 C 199.203 143.230,199.362 143.697,199.470 144.102 C 199.579 144.508,199.735 144.840,199.817 144.840 C 199.900 144.840,199.927 144.996,199.877 145.186 C 199.826 145.380,199.871 145.533,199.980 145.533 C 200.086 145.533,200.173 145.729,200.173 145.967 C 200.173 146.206,200.252 146.401,200.347 146.401 C 200.442 146.401,200.520 146.591,200.520 146.824 C 200.520 147.057,200.588 147.289,200.671 147.341 C 200.754 147.392,200.872 147.751,200.935 148.139 C 200.997 148.527,201.124 148.997,201.217 149.184 C 201.311 149.370,201.466 149.678,201.561 149.868 C 201.657 150.057,201.735 150.330,201.735 150.475 C 201.735 150.619,201.813 150.737,201.908 150.737 C 202.003 150.737,202.082 150.971,202.082 151.258 C 202.082 151.544,202.152 151.778,202.239 151.778 C 202.325 151.778,202.449 152.162,202.513 152.632 C 202.583 153.140,202.735 153.527,202.888 153.585 C 203.029 153.639,203.091 153.770,203.026 153.875 C 202.920 154.047,203.031 154.386,203.489 155.288 C 203.574 155.454,203.643 155.708,203.643 155.852 C 203.643 155.996,203.713 156.114,203.800 156.114 C 203.886 156.114,204.011 156.505,204.076 156.982 C 204.142 157.459,204.266 157.892,204.353 157.946 C 204.439 157.999,204.510 158.234,204.510 158.466 C 204.510 158.699,204.588 158.890,204.683 158.890 C 204.779 158.890,204.857 159.047,204.857 159.239 C 204.857 159.431,204.926 159.724,205.010 159.890 C 205.331 160.521,205.544 161.079,205.686 161.665 L 205.833 162.272 224.383 162.316 L 242.934 162.361 243.159 162.000 C 243.283 161.801,243.430 161.256,243.485 160.789 C 243.541 160.322,243.653 159.981,243.736 160.032 C 243.818 160.083,243.886 159.968,243.886 159.778 C 243.886 159.587,243.971 159.378,244.075 159.313 C 244.180 159.249,244.230 159.014,244.188 158.791 C 244.145 158.569,244.183 158.402,244.271 158.421 C 244.440 158.458,245.093 156.599,245.097 156.071 C 245.099 155.904,245.178 155.768,245.273 155.768 C 245.369 155.768,245.447 155.572,245.447 155.334 C 245.447 155.095,245.525 154.900,245.620 154.900 C 245.716 154.900,245.794 154.666,245.794 154.380 C 245.794 154.094,245.872 153.859,245.967 153.859 C 246.062 153.859,246.141 153.664,246.141 153.426 C 246.141 153.187,246.212 152.992,246.299 152.992 C 246.386 152.992,246.512 152.660,246.579 152.255 C 246.645 151.850,246.778 151.421,246.873 151.303 C 246.969 151.185,247.000 150.968,246.943 150.820 C 246.884 150.665,246.950 150.508,247.097 150.452 C 247.239 150.398,247.355 150.166,247.355 149.938 C 247.355 149.710,247.433 149.523,247.528 149.523 C 247.624 149.523,247.702 149.332,247.702 149.100 C 247.702 148.867,247.772 148.632,247.859 148.579 C 247.945 148.526,248.070 148.092,248.135 147.615 C 248.201 147.138,248.325 146.748,248.412 146.748 C 248.498 146.748,248.569 146.552,248.569 146.314 C 248.569 146.075,248.633 145.880,248.711 145.880 C 248.789 145.880,248.961 145.485,249.092 145.002 C 249.224 144.519,249.390 144.088,249.461 144.044 C 249.532 144.000,249.642 143.615,249.706 143.188 C 249.770 142.761,249.892 142.411,249.976 142.411 C 250.061 142.411,250.130 142.177,250.130 141.891 C 250.130 141.605,250.208 141.370,250.304 141.370 C 250.399 141.370,250.477 141.132,250.477 140.840 C 250.477 140.530,250.549 140.354,250.650 140.416 C 250.748 140.477,250.824 140.335,250.824 140.090 C 250.824 139.851,250.893 139.614,250.977 139.561 C 251.062 139.509,251.184 139.114,251.248 138.684 C 251.313 138.253,251.439 137.901,251.528 137.901 C 251.618 137.901,251.691 137.706,251.691 137.467 C 251.691 137.229,251.769 137.034,251.865 137.034 C 251.960 137.034,252.038 136.843,252.038 136.610 C 252.038 136.378,252.116 136.139,252.212 136.080 C 252.307 136.021,252.385 135.787,252.385 135.559 C 252.385 135.332,252.461 135.099,252.554 135.042 C 252.646 134.985,252.773 134.551,252.836 134.078 C 252.899 133.605,253.018 133.218,253.101 133.218 C 253.184 133.218,253.252 133.023,253.252 132.784 C 253.252 132.546,253.330 132.350,253.426 132.350 C 253.521 132.350,253.599 132.232,253.599 132.088 C 253.599 131.943,253.675 131.690,253.767 131.524 C 254.023 131.065,254.467 129.606,254.467 129.222 C 254.467 129.035,254.545 128.881,254.640 128.881 C 254.735 128.881,254.814 128.686,254.814 128.448 C 254.814 128.209,254.892 128.014,254.987 128.014 C 255.082 128.014,255.160 127.780,255.160 127.493 C 255.160 127.207,255.239 126.973,255.334 126.973 C 255.429 126.973,255.507 126.778,255.507 126.539 C 255.507 126.301,255.577 126.106,255.661 126.106 C 255.746 126.106,255.867 125.756,255.931 125.329 C 255.995 124.902,256.121 124.507,256.211 124.452 C 256.301 124.396,256.375 124.160,256.375 123.927 C 256.375 123.694,256.453 123.504,256.548 123.504 C 256.644 123.504,256.722 123.309,256.722 123.070 C 256.722 122.832,256.800 122.637,256.895 122.637 C 256.990 122.637,257.069 122.446,257.069 122.213 C 257.069 121.980,257.139 121.746,257.226 121.693 C 257.312 121.639,257.437 121.205,257.502 120.728 C 257.568 120.251,257.692 119.861,257.779 119.861 C 257.865 119.861,257.936 119.666,257.936 119.428 C 257.936 119.189,258.014 118.994,258.109 118.994 C 258.205 118.994,258.283 118.837,258.283 118.645 C 258.283 118.453,258.361 118.140,258.456 117.951 C 258.552 117.761,258.706 117.454,258.800 117.267 C 258.893 117.080,259.021 116.612,259.082 116.226 C 259.144 115.840,259.262 115.525,259.346 115.525 C 259.429 115.525,259.497 115.291,259.497 115.004 C 259.497 114.718,259.575 114.484,259.670 114.484 C 259.766 114.484,259.844 114.289,259.844 114.050 C 259.844 113.812,259.922 113.617,260.017 113.617 C 260.113 113.617,260.191 113.426,260.191 113.193 C 260.191 112.960,260.260 112.727,260.344 112.675 C 260.429 112.623,260.551 112.228,260.615 111.797 C 260.680 111.367,260.806 111.015,260.895 111.015 C 260.985 111.015,261.058 110.820,261.058 110.581 C 261.058 110.343,261.136 110.147,261.232 110.147 C 261.327 110.147,261.405 109.957,261.405 109.724 C 261.405 109.491,261.483 109.252,261.578 109.193 C 261.674 109.134,261.752 108.896,261.752 108.663 C 261.752 108.430,261.823 108.239,261.909 108.239 C 261.996 108.239,262.120 107.849,262.186 107.372 C 262.251 106.895,262.376 106.505,262.462 106.505 C 262.549 106.505,262.619 106.271,262.619 105.984 C 262.619 105.698,262.697 105.464,262.793 105.464 C 262.888 105.464,262.966 105.321,262.966 105.146 C 262.966 104.971,263.018 104.776,263.081 104.713 C 263.280 104.514,263.833 102.807,263.833 102.392 C 263.833 102.173,263.912 101.995,264.007 101.995 C 264.102 101.995,264.180 101.800,264.180 101.561 C 264.180 101.323,264.258 101.127,264.354 101.127 C 264.449 101.127,264.527 100.893,264.527 100.607 C 264.527 100.321,264.605 100.087,264.701 100.087 C 264.796 100.087,264.874 99.892,264.874 99.653 C 264.874 99.415,264.943 99.219,265.028 99.219 C 265.113 99.219,265.234 98.870,265.298 98.443 C 265.362 98.016,265.488 97.621,265.578 97.565 C 265.668 97.510,265.742 97.274,265.742 97.041 C 265.742 96.808,265.820 96.618,265.915 96.618 C 266.010 96.618,266.088 96.422,266.088 96.184 C 266.088 95.945,266.167 95.750,266.262 95.750 C 266.357 95.750,266.435 95.560,266.435 95.327 C 266.435 95.094,266.506 94.860,266.593 94.806 C 266.679 94.753,266.803 94.319,266.869 93.842 C 266.935 93.365,267.059 92.975,267.146 92.975 C 267.232 92.975,267.303 92.780,267.303 92.541 C 267.303 92.303,267.381 92.108,267.476 92.108 C 267.572 92.108,267.650 91.950,267.650 91.758 C 267.650 91.566,267.728 91.254,267.823 91.064 C 267.918 90.875,268.073 90.567,268.167 90.381 C 268.260 90.194,268.387 89.726,268.449 89.340 C 268.511 88.954,268.629 88.638,268.713 88.638 C 268.796 88.638,268.864 88.404,268.864 88.118 C 268.864 87.832,268.942 87.598,269.037 87.598 C 269.133 87.598,269.211 87.402,269.211 87.164 C 269.211 86.925,269.289 86.730,269.384 86.730 C 269.480 86.730,269.558 86.540,269.558 86.307 C 269.558 86.074,269.625 85.842,269.708 85.790 C 269.791 85.739,269.912 85.366,269.977 84.961 C 270.041 84.557,270.188 84.165,270.303 84.090 C 270.465 83.985,270.464 83.924,270.299 83.817 C 270.142 83.715,270.176 83.614,270.429 83.432 C 270.618 83.296,270.772 83.011,270.772 82.799 C 270.772 82.588,270.850 82.366,270.945 82.307 C 271.041 82.248,271.119 82.009,271.119 81.776 C 271.119 81.544,271.190 81.353,271.276 81.353 C 271.362 81.353,271.487 80.963,271.552 80.486 C 271.618 80.009,271.742 79.575,271.829 79.522 C 271.915 79.468,271.986 79.234,271.986 79.001 C 271.986 78.768,272.064 78.578,272.160 78.578 C 272.255 78.578,272.333 78.382,272.333 78.144 C 272.333 77.905,272.411 77.710,272.507 77.710 C 272.602 77.710,272.680 77.520,272.680 77.287 C 272.680 77.054,272.754 76.818,272.843 76.762 C 272.933 76.707,273.059 76.312,273.123 75.885 C 273.187 75.458,273.318 75.108,273.414 75.108 C 273.509 75.108,273.546 74.948,273.494 74.751 C 273.437 74.532,273.496 74.357,273.647 74.299 C 273.783 74.247,273.894 74.022,273.894 73.799 C 273.894 73.576,273.972 73.346,274.068 73.287 C 274.163 73.228,274.241 72.989,274.241 72.756 C 274.241 72.524,274.312 72.333,274.398 72.333 C 274.485 72.333,274.609 71.943,274.675 71.466 C 274.740 70.989,274.865 70.555,274.951 70.502 C 275.038 70.448,275.108 70.253,275.108 70.068 C 275.108 69.883,275.186 69.731,275.282 69.731 C 275.377 69.731,275.455 69.536,275.455 69.297 C 275.455 69.059,275.533 68.864,275.629 68.864 C 275.724 68.864,275.802 68.673,275.802 68.440 C 275.802 68.208,275.873 67.973,275.959 67.920 C 276.046 67.866,276.170 67.432,276.236 66.956 C 276.302 66.479,276.426 66.088,276.512 66.088 C 276.599 66.088,276.670 65.893,276.670 65.655 C 276.670 65.416,276.748 65.221,276.843 65.221 C 276.938 65.221,277.016 64.987,277.016 64.701 C 277.016 64.415,277.095 64.180,277.190 64.180 C 277.285 64.180,277.363 63.985,277.363 63.747 C 277.363 63.508,277.451 63.313,277.557 63.313 C 277.670 63.313,277.716 63.133,277.669 62.885 C 277.624 62.649,277.654 62.498,277.735 62.548 C 277.817 62.598,277.884 62.440,277.884 62.196 C 277.884 61.952,277.962 61.752,278.057 61.752 C 278.153 61.752,278.231 61.518,278.231 61.232 C 278.231 60.945,278.309 60.711,278.404 60.711 C 278.500 60.711,278.578 60.516,278.578 60.278 C 278.578 60.039,278.656 59.844,278.751 59.844 C 278.846 59.844,278.925 59.664,278.925 59.445 C 278.925 59.225,278.997 58.972,279.086 58.881 C 279.175 58.791,279.299 58.268,279.363 57.719 L 279.477 56.722 263.416 56.722 L 247.355 56.722 247.355 57.329 C 247.355 57.663,247.277 57.936,247.181 57.936 C 247.086 57.936,247.008 58.170,247.008 58.456 C 247.008 58.742,246.935 58.977,246.847 58.977 C 246.758 58.977,246.632 59.407,246.566 59.933 C 246.501 60.459,246.378 60.932,246.294 60.984 C 246.209 61.036,246.141 61.308,246.141 61.589 C 246.141 61.869,246.062 62.099,245.967 62.099 C 245.872 62.099,245.794 62.294,245.794 62.533 C 245.794 62.771,245.716 62.966,245.620 62.966 C 245.525 62.966,245.447 63.239,245.447 63.573 C 245.447 63.907,245.378 64.180,245.293 64.180 C 245.209 64.180,245.086 64.610,245.021 65.134 C 244.955 65.659,244.829 66.088,244.740 66.088 C 244.652 66.088,244.579 66.357,244.579 66.685 C 244.579 67.014,244.501 67.330,244.406 67.389 C 244.310 67.448,244.232 67.687,244.232 67.920 C 244.232 68.153,244.154 68.343,244.059 68.343 C 243.964 68.343,243.886 68.534,243.886 68.767 C 243.886 69.000,243.815 69.234,243.729 69.287 C 243.643 69.340,243.518 69.852,243.452 70.425 C 243.385 70.997,243.261 71.466,243.175 71.466 C 243.089 71.466,243.018 71.656,243.018 71.889 C 243.018 72.122,242.940 72.361,242.845 72.420 C 242.749 72.479,242.671 72.757,242.671 73.037 C 242.671 73.318,242.593 73.547,242.498 73.547 C 242.402 73.547,242.324 73.781,242.324 74.068 C 242.324 74.354,242.250 74.588,242.160 74.588 C 242.069 74.588,241.942 75.056,241.877 75.629 C 241.812 76.201,241.691 76.670,241.608 76.670 C 241.525 76.670,241.457 76.904,241.457 77.190 C 241.457 77.476,241.379 77.710,241.284 77.710 C 241.188 77.710,241.110 77.901,241.110 78.134 C 241.110 78.367,241.032 78.605,240.937 78.664 C 240.841 78.723,240.763 78.997,240.763 79.271 C 240.763 79.546,240.694 79.814,240.610 79.866 C 240.525 79.918,240.401 80.333,240.333 80.787 C 240.266 81.241,240.153 81.691,240.084 81.787 C 240.014 81.882,239.947 82.154,239.934 82.391 C 239.922 82.628,239.830 82.849,239.730 82.883 C 239.631 82.916,239.549 83.171,239.549 83.449 C 239.549 83.727,239.471 83.955,239.376 83.955 C 239.280 83.955,239.202 84.176,239.202 84.446 C 239.202 84.717,239.144 84.996,239.072 85.068 C 238.932 85.207,238.541 86.632,238.390 87.554 C 238.339 87.864,238.227 88.118,238.142 88.118 C 238.057 88.118,237.988 88.348,237.988 88.628 C 237.988 88.909,237.904 89.190,237.803 89.253 C 237.701 89.316,237.656 89.467,237.703 89.590 C 237.750 89.713,237.688 89.958,237.565 90.136 C 237.442 90.314,237.295 90.694,237.239 90.980 C 236.964 92.374,236.692 93.322,236.566 93.322 C 236.489 93.322,236.427 93.595,236.427 93.929 C 236.427 94.263,236.349 94.536,236.253 94.536 C 236.158 94.536,236.080 94.770,236.080 95.056 C 236.080 95.343,236.012 95.577,235.929 95.577 C 235.766 95.577,235.475 96.856,235.525 97.355 C 235.542 97.522,235.478 97.658,235.384 97.658 C 235.290 97.658,235.212 97.892,235.212 98.179 C 235.212 98.465,235.143 98.699,235.059 98.699 C 234.974 98.699,234.857 98.933,234.799 99.219 C 234.740 99.506,234.644 99.974,234.586 100.260 C 234.527 100.546,234.419 100.781,234.344 100.781 C 234.270 100.781,234.164 101.073,234.109 101.431 C 234.053 101.789,233.968 102.238,233.919 102.428 C 233.870 102.619,233.781 103.029,233.721 103.339 C 233.661 103.649,233.543 103.903,233.458 103.903 C 233.374 103.903,233.304 104.132,233.304 104.413 C 233.304 104.694,233.226 104.971,233.131 105.030 C 233.036 105.089,232.958 105.367,232.958 105.648 C 232.958 105.928,232.888 106.158,232.804 106.158 C 232.654 106.158,232.433 106.983,232.421 107.585 C 232.418 107.751,232.342 107.931,232.253 107.986 C 232.163 108.041,232.090 108.355,232.090 108.683 C 232.090 109.012,232.012 109.280,231.917 109.280 C 231.821 109.280,231.743 109.471,231.743 109.704 C 231.743 109.936,231.665 110.175,231.570 110.234 C 231.474 110.293,231.396 110.533,231.396 110.767 C 231.396 111.001,231.327 111.328,231.242 111.494 C 231.000 111.965,230.529 113.693,230.529 114.109 C 230.529 114.315,230.451 114.484,230.356 114.484 C 230.260 114.484,230.182 114.718,230.182 115.004 C 230.182 115.291,230.104 115.525,230.009 115.525 C 229.913 115.525,229.835 115.798,229.835 116.132 C 229.835 116.466,229.766 116.739,229.681 116.739 C 229.597 116.739,229.480 116.993,229.422 117.303 C 229.364 117.613,229.290 117.944,229.257 118.040 C 229.225 118.135,229.137 118.584,229.063 119.037 C 228.989 119.490,228.859 119.861,228.775 119.861 C 228.690 119.861,228.621 120.095,228.621 120.382 C 228.621 120.668,228.543 120.902,228.448 120.902 C 228.352 120.902,228.274 121.175,228.274 121.509 C 228.274 121.843,228.206 122.116,228.123 122.116 C 227.973 122.116,227.691 123.309,227.703 123.894 C 227.706 124.061,227.641 124.198,227.558 124.198 C 227.475 124.198,227.407 124.432,227.407 124.718 C 227.407 125.004,227.329 125.239,227.233 125.239 C 227.138 125.239,227.060 125.512,227.060 125.846 C 227.060 126.180,226.982 126.453,226.886 126.453 C 226.791 126.453,226.713 126.643,226.713 126.876 C 226.713 127.109,226.627 127.353,226.522 127.418 C 226.415 127.483,226.374 127.749,226.428 128.019 C 226.492 128.341,226.445 128.533,226.286 128.594 C 226.149 128.647,226.068 128.875,226.096 129.131 C 226.123 129.375,226.078 129.575,225.995 129.575 C 225.913 129.575,225.846 129.848,225.846 130.182 C 225.846 130.516,225.768 130.789,225.672 130.789 C 225.577 130.789,225.499 130.945,225.499 131.136 C 225.499 131.327,225.421 131.483,225.325 131.483 C 225.230 131.483,225.152 131.249,225.152 130.963 C 225.152 130.676,225.074 130.442,224.978 130.442 C 224.883 130.442,224.805 130.169,224.805 129.835 C 224.805 129.501,224.732 129.228,224.644 129.228 C 224.555 129.228,224.429 128.798,224.363 128.272 C 224.298 127.746,224.175 127.273,224.091 127.221 C 224.006 127.169,223.938 126.897,223.938 126.616 C 223.938 126.335,223.859 126.106,223.764 126.106 C 223.669 126.106,223.591 125.833,223.591 125.499 C 223.591 125.165,223.513 124.892,223.417 124.892 C 223.322 124.892,223.244 124.657,223.244 124.371 C 223.244 124.085,223.175 123.851,223.090 123.851 C 223.006 123.851,222.883 123.423,222.818 122.900 C 222.753 122.376,222.626 121.903,222.538 121.849 C 222.449 121.794,222.376 121.565,222.376 121.340 C 222.376 121.115,222.294 120.903,222.192 120.870 C 222.091 120.836,222.001 120.553,221.992 120.242 C 221.984 119.930,221.910 119.635,221.829 119.585 C 221.749 119.535,221.683 119.303,221.683 119.070 C 221.683 118.838,221.612 118.647,221.526 118.647 C 221.440 118.647,221.315 118.179,221.249 117.606 C 221.182 117.033,221.058 116.521,220.972 116.468 C 220.886 116.415,220.815 116.181,220.815 115.948 C 220.815 115.715,220.737 115.525,220.642 115.525 C 220.546 115.525,220.468 115.258,220.468 114.932 C 220.468 114.606,220.381 114.310,220.273 114.274 C 220.166 114.239,220.078 113.998,220.078 113.740 C 220.078 113.481,220.015 113.270,219.939 113.270 C 219.862 113.270,219.746 112.839,219.680 112.313 C 219.614 111.787,219.492 111.314,219.407 111.262 C 219.323 111.210,219.254 110.938,219.254 110.658 C 219.254 110.377,219.176 110.147,219.081 110.147 C 218.985 110.147,218.907 109.957,218.907 109.724 C 218.907 109.491,218.829 109.252,218.734 109.193 C 218.638 109.134,218.560 108.857,218.560 108.576 C 218.560 108.295,218.491 108.066,218.407 108.066 C 218.322 108.066,218.200 107.638,218.134 107.115 C 218.069 106.591,217.943 106.118,217.854 106.064 C 217.766 106.009,217.693 105.734,217.693 105.454 C 217.693 105.173,217.615 104.944,217.520 104.944 C 217.424 104.944,217.346 104.709,217.346 104.423 C 217.346 104.137,217.268 103.903,217.173 103.903 C 217.077 103.903,216.999 103.712,216.999 103.479 C 216.999 103.247,216.931 103.014,216.849 102.963 C 216.766 102.912,216.644 102.460,216.577 101.960 C 216.511 101.459,216.370 100.945,216.264 100.817 C 216.157 100.689,216.049 100.414,216.023 100.206 C 215.910 99.310,215.735 98.699,215.592 98.699 C 215.507 98.699,215.438 98.465,215.438 98.179 C 215.438 97.892,215.369 97.658,215.285 97.658 C 215.200 97.658,215.078 97.230,215.012 96.707 C 214.947 96.184,214.821 95.711,214.732 95.656 C 214.643 95.601,214.571 95.327,214.571 95.046 C 214.571 94.766,214.493 94.536,214.397 94.536 C 214.302 94.536,214.224 94.306,214.224 94.026 C 214.224 93.745,214.146 93.467,214.050 93.408 C 213.955 93.350,213.877 93.149,213.877 92.962 C 213.877 92.776,213.802 92.488,213.710 92.322 C 213.561 92.051,213.324 91.132,213.064 89.809 C 213.012 89.547,212.901 89.332,212.816 89.332 C 212.732 89.332,212.663 89.098,212.663 88.812 C 212.663 88.526,212.585 88.291,212.489 88.291 C 212.394 88.291,212.316 88.062,212.316 87.781 C 212.316 87.501,212.238 87.223,212.142 87.164 C 212.047 87.105,211.969 86.862,211.969 86.623 C 211.969 86.385,211.898 86.233,211.811 86.287 C 211.725 86.340,211.696 86.222,211.748 86.025 C 211.800 85.828,211.762 85.496,211.665 85.288 C 211.568 85.079,211.393 84.558,211.278 84.128 C 211.162 83.699,210.997 83.212,210.911 83.047 C 210.825 82.881,210.755 82.588,210.755 82.396 C 210.755 82.204,210.682 82.047,210.594 82.047 C 210.505 82.047,210.379 81.616,210.313 81.091 C 210.247 80.565,210.125 80.092,210.040 80.040 C 209.956 79.987,209.887 79.715,209.887 79.435 C 209.887 79.154,209.809 78.925,209.714 78.925 C 209.618 78.925,209.540 78.729,209.540 78.491 C 209.540 78.252,209.462 78.057,209.367 78.057 C 209.271 78.057,209.193 77.784,209.193 77.450 C 209.193 77.116,209.124 76.843,209.040 76.843 C 208.956 76.843,208.833 76.414,208.767 75.889 C 208.702 75.364,208.576 74.935,208.487 74.935 C 208.399 74.935,208.326 74.701,208.326 74.415 C 208.326 74.128,208.248 73.894,208.153 73.894 C 208.057 73.894,207.979 73.621,207.979 73.287 C 207.979 72.953,207.901 72.680,207.806 72.680 C 207.710 72.680,207.632 72.485,207.632 72.246 C 207.632 72.008,207.569 71.813,207.492 71.813 C 207.415 71.813,207.256 71.325,207.140 70.729 C 206.775 68.855,206.729 68.690,206.572 68.690 C 206.487 68.690,206.418 68.463,206.418 68.184 C 206.418 67.906,206.337 67.651,206.237 67.618 C 206.137 67.585,206.045 67.364,206.033 67.127 C 206.020 66.890,205.953 66.618,205.883 66.522 C 205.814 66.427,205.701 65.977,205.634 65.523 C 205.566 65.068,205.442 64.654,205.357 64.602 C 205.273 64.550,205.204 64.321,205.204 64.094 C 205.204 63.866,205.126 63.632,205.030 63.573 C 204.935 63.514,204.857 63.237,204.857 62.956 C 204.857 62.675,204.779 62.446,204.683 62.446 C 204.588 62.446,204.510 62.212,204.510 61.925 C 204.510 61.639,204.445 61.405,204.366 61.405 C 204.235 61.405,203.953 60.320,203.701 58.846 C 203.648 58.536,203.535 58.283,203.450 58.283 C 203.365 58.283,203.296 58.121,203.296 57.923 C 203.296 57.726,203.178 57.446,203.034 57.302 C 202.890 57.158,202.817 56.969,202.871 56.881 C 202.930 56.784,196.261 56.722,185.960 56.722 L 168.951 56.722 168.951 57.329 M337.814 78.751 C 337.873 78.846,338.424 78.925,339.039 78.925 C 339.668 78.925,340.156 79.000,340.156 79.098 C 340.156 79.193,340.425 79.271,340.753 79.271 C 341.081 79.271,341.394 79.342,341.447 79.429 C 341.500 79.515,341.934 79.640,342.411 79.705 C 342.888 79.771,343.278 79.878,343.278 79.944 C 343.278 80.009,343.630 80.167,344.059 80.294 C 344.488 80.420,344.840 80.593,344.840 80.678 C 344.840 80.763,344.996 80.833,345.186 80.833 C 345.377 80.833,345.533 80.909,345.533 81.003 C 345.533 81.096,345.729 81.222,345.967 81.282 C 346.206 81.342,346.401 81.460,346.401 81.545 C 346.401 81.630,346.517 81.700,346.659 81.700 C 346.801 81.700,347.081 81.837,347.281 82.003 C 347.481 82.170,347.806 82.444,348.003 82.611 C 348.200 82.778,348.437 82.914,348.529 82.914 C 348.675 82.914,349.849 83.959,350.444 84.618 C 351.187 85.441,351.888 86.037,352.118 86.039 C 352.312 86.041,352.327 86.079,352.172 86.177 C 352.016 86.276,352.050 86.378,352.302 86.560 C 352.491 86.696,352.645 86.871,352.645 86.950 C 352.645 87.029,352.830 87.278,353.056 87.504 C 353.282 87.730,353.641 88.273,353.852 88.710 C 354.064 89.148,354.308 89.506,354.395 89.506 C 354.482 89.506,354.553 89.662,354.553 89.853 C 354.553 90.043,354.631 90.199,354.727 90.199 C 354.822 90.199,354.900 90.275,354.900 90.368 C 354.900 90.625,355.821 92.533,355.977 92.599 C 356.053 92.631,356.114 92.806,356.114 92.989 C 356.114 93.172,356.193 93.322,356.288 93.322 C 356.383 93.322,356.461 93.517,356.461 93.755 C 356.461 93.994,356.531 94.189,356.616 94.189 C 356.700 94.189,356.764 94.287,356.757 94.406 C 356.729 94.871,357.034 96.097,357.177 96.097 C 357.261 96.097,357.329 96.370,357.329 96.704 C 357.329 97.038,357.407 97.311,357.502 97.311 C 357.598 97.311,357.676 97.585,357.676 97.918 C 357.676 98.252,357.754 98.526,357.849 98.526 C 357.944 98.526,358.023 98.916,358.023 99.393 C 358.023 99.870,358.081 100.260,358.153 100.260 C 358.507 100.260,358.617 116.197,358.274 117.780 C 358.140 118.400,358.028 119.200,358.026 119.558 C 358.024 119.915,357.944 120.208,357.849 120.208 C 357.754 120.208,357.676 120.477,357.676 120.805 C 357.676 121.133,357.598 121.450,357.502 121.509 C 357.407 121.568,357.328 121.787,357.328 121.996 C 357.328 122.205,357.134 122.923,356.898 123.591 C 356.662 124.258,356.467 124.941,356.465 125.108 C 356.463 125.275,356.383 125.412,356.288 125.412 C 356.193 125.412,356.114 125.568,356.114 125.759 C 356.114 125.950,356.036 126.106,355.941 126.106 C 355.846 126.106,355.768 126.262,355.768 126.453 C 355.768 126.644,355.690 126.800,355.594 126.800 C 355.499 126.800,355.438 126.858,355.460 126.930 C 355.512 127.105,354.536 129.082,354.254 129.372 C 354.131 129.499,354.082 129.687,354.145 129.789 C 354.209 129.893,354.179 129.926,354.078 129.863 C 353.905 129.756,353.600 130.209,353.658 130.486 C 353.674 130.557,353.608 130.616,353.513 130.616 C 353.417 130.616,353.339 130.702,353.339 130.806 C 353.339 130.911,353.105 131.216,352.819 131.483 C 352.533 131.750,352.298 132.055,352.298 132.160 C 352.298 132.265,352.207 132.350,352.096 132.350 C 351.985 132.350,351.944 132.401,352.006 132.463 C 352.068 132.525,351.944 132.725,351.731 132.907 C 351.519 133.089,351.181 133.379,350.981 133.550 C 350.782 133.722,350.508 134.013,350.374 134.198 C 350.240 134.383,349.818 134.764,349.436 135.045 C 349.055 135.326,348.625 135.675,348.482 135.820 C 348.339 135.966,347.924 136.240,347.560 136.429 C 347.196 136.619,346.750 136.910,346.570 137.077 C 346.389 137.244,346.160 137.381,346.061 137.381 C 345.962 137.381,345.880 137.459,345.880 137.554 C 345.880 137.650,345.724 137.728,345.533 137.728 C 345.343 137.728,345.186 137.797,345.186 137.882 C 345.186 137.967,344.911 138.088,344.575 138.151 C 344.238 138.214,344.008 138.340,344.064 138.430 C 344.120 138.521,343.965 138.595,343.720 138.595 C 343.475 138.595,343.119 138.673,342.929 138.768 C 342.740 138.864,342.430 139.020,342.240 139.115 C 342.050 139.211,341.738 139.289,341.546 139.289 C 341.354 139.289,341.197 139.362,341.197 139.450 C 341.197 139.539,340.571 139.667,339.805 139.733 C 339.040 139.800,338.372 139.922,338.321 140.005 C 338.187 140.222,332.350 140.199,332.350 139.983 C 332.350 139.887,332.292 139.825,332.220 139.844 C 331.908 139.928,329.923 139.604,329.830 139.454 C 329.774 139.363,329.537 139.289,329.305 139.289 C 329.072 139.289,328.881 139.211,328.881 139.115 C 328.881 139.020,328.725 138.942,328.534 138.942 C 328.343 138.942,328.187 138.882,328.187 138.809 C 328.187 138.670,326.921 138.075,326.625 138.075 C 326.530 138.075,326.453 137.997,326.453 137.901 C 326.453 137.806,326.350 137.728,326.225 137.728 C 326.100 137.728,325.844 137.585,325.657 137.410 C 325.470 137.236,325.087 136.943,324.806 136.760 C 324.218 136.376,322.946 135.238,322.402 134.608 C 322.197 134.372,321.756 133.902,321.422 133.565 C 321.088 133.227,320.718 132.736,320.600 132.472 C 320.482 132.209,320.267 131.949,320.123 131.893 C 319.979 131.838,319.861 131.674,319.861 131.528 C 319.861 131.383,319.724 131.137,319.556 130.983 C 319.217 130.672,317.951 128.225,317.952 127.884 C 317.953 127.765,317.875 127.667,317.780 127.667 C 317.684 127.667,317.606 127.550,317.606 127.407 C 317.606 127.264,317.535 127.147,317.448 127.147 C 317.361 127.147,317.237 126.835,317.173 126.454 C 317.108 126.073,316.984 125.717,316.897 125.663 C 316.810 125.609,316.739 125.413,316.739 125.228 C 316.739 125.043,316.661 124.892,316.565 124.892 C 316.470 124.892,316.392 124.653,316.392 124.361 C 316.392 124.051,316.320 123.875,316.219 123.938 C 316.117 124.000,316.045 123.824,316.045 123.514 C 316.045 123.222,315.976 122.984,315.892 122.984 C 315.808 122.984,315.684 122.477,315.618 121.858 C 315.552 121.239,315.426 120.688,315.338 120.633 C 315.250 120.579,315.178 120.271,315.178 119.948 C 315.178 119.625,315.100 119.313,315.004 119.254 C 314.909 119.195,314.831 118.761,314.831 118.290 C 314.831 117.818,314.753 117.433,314.657 117.433 C 314.558 117.433,314.484 116.917,314.484 116.233 C 314.484 115.566,314.405 115.007,314.306 114.974 C 314.078 114.898,314.057 104.471,314.284 104.188 C 314.372 104.079,314.453 103.482,314.465 102.862 C 314.477 102.242,314.565 101.709,314.659 101.677 C 314.754 101.645,314.831 101.274,314.831 100.853 C 314.831 100.431,314.909 100.087,315.004 100.087 C 315.100 100.087,315.178 99.779,315.178 99.403 C 315.178 99.027,315.252 98.674,315.343 98.617 C 315.434 98.561,315.561 98.049,315.626 97.480 C 315.690 96.910,315.811 96.444,315.894 96.444 C 315.977 96.444,316.045 96.210,316.045 95.924 C 316.045 95.637,316.123 95.403,316.219 95.403 C 316.314 95.403,316.392 95.208,316.392 94.970 C 316.392 94.731,316.470 94.536,316.565 94.536 C 316.661 94.536,316.739 94.384,316.739 94.199 C 316.739 94.014,316.810 93.819,316.897 93.765 C 316.984 93.711,317.108 93.355,317.173 92.974 C 317.237 92.593,317.341 92.281,317.405 92.280 C 317.468 92.280,317.715 91.851,317.953 91.327 C 318.192 90.803,318.444 90.374,318.515 90.374 C 318.585 90.373,318.693 90.058,318.755 89.673 C 318.816 89.288,318.905 89.012,318.951 89.058 C 319.043 89.150,319.514 88.730,319.514 88.557 C 319.514 88.498,319.591 88.356,319.685 88.241 C 320.489 87.255,320.729 86.916,320.729 86.765 C 320.729 86.557,324.494 82.741,324.699 82.741 C 324.777 82.741,325.085 82.507,325.385 82.220 C 325.684 81.934,326.047 81.700,326.191 81.700 C 326.335 81.700,326.453 81.630,326.453 81.545 C 326.453 81.460,326.648 81.342,326.886 81.282 C 327.125 81.222,327.320 81.096,327.320 81.003 C 327.320 80.909,327.476 80.833,327.667 80.833 C 327.858 80.833,328.014 80.755,328.014 80.659 C 328.014 80.564,328.131 80.486,328.274 80.486 C 328.417 80.486,328.534 80.408,328.534 80.312 C 328.534 80.217,328.714 80.139,328.933 80.139 C 329.153 80.139,329.406 80.067,329.497 79.978 C 329.588 79.890,330.208 79.686,330.876 79.524 C 331.544 79.362,332.226 79.161,332.391 79.077 C 332.557 78.993,333.079 78.925,333.552 78.925 C 334.025 78.925,334.460 78.846,334.519 78.751 C 334.578 78.656,335.319 78.578,336.167 78.578 C 337.014 78.578,337.755 78.656,337.814 78.751 M44.980 113.125 C 45.040 114.572,45.169 115.837,45.267 115.935 C 45.366 116.034,45.447 116.395,45.447 116.739 C 45.447 117.082,45.537 117.453,45.647 117.563 C 45.757 117.674,45.840 118.001,45.832 118.292 C 45.824 118.583,45.890 118.820,45.979 118.820 C 46.068 118.820,46.141 119.050,46.141 119.331 C 46.141 119.611,46.209 119.883,46.294 119.935 C 46.378 119.988,46.500 120.459,46.566 120.984 C 46.632 121.508,46.758 121.982,46.846 122.037 C 46.935 122.092,47.008 122.327,47.008 122.560 C 47.008 122.793,47.086 122.984,47.181 122.984 C 47.277 122.984,47.355 123.179,47.355 123.417 C 47.355 123.656,47.433 123.851,47.528 123.851 C 47.624 123.851,47.702 124.085,47.702 124.371 C 47.702 124.657,47.774 124.892,47.861 124.892 C 47.949 124.892,48.073 125.145,48.136 125.455 C 48.287 126.195,48.620 126.973,48.785 126.973 C 48.857 126.973,48.916 127.125,48.916 127.310 C 48.916 127.495,48.994 127.695,49.089 127.754 C 49.185 127.813,49.263 128.012,49.263 128.198 C 49.263 128.383,49.341 128.534,49.436 128.534 C 49.532 128.534,49.610 128.651,49.610 128.793 C 49.610 129.155,50.183 130.442,50.344 130.442 C 50.417 130.442,50.477 130.598,50.477 130.789 C 50.477 130.980,50.555 131.136,50.650 131.136 C 50.746 131.136,50.824 131.253,50.824 131.396 C 50.824 131.539,50.892 131.657,50.976 131.657 C 51.059 131.657,51.171 131.871,51.224 132.134 C 51.277 132.396,51.482 132.783,51.679 132.994 C 51.877 133.204,52.038 133.497,52.038 133.644 C 52.038 133.791,52.116 133.912,52.212 133.912 C 52.307 133.912,52.385 134.029,52.385 134.172 C 52.385 134.315,52.462 134.432,52.555 134.432 C 52.649 134.432,52.778 134.647,52.843 134.909 C 52.908 135.171,53.105 135.512,53.280 135.666 C 53.456 135.821,53.599 136.035,53.599 136.144 C 53.599 136.252,53.672 136.340,53.760 136.340 C 53.849 136.340,54.059 136.652,54.227 137.034 C 54.396 137.415,54.596 137.728,54.673 137.728 C 54.750 137.728,54.814 137.806,54.814 137.903 C 54.814 137.999,55.048 138.323,55.334 138.622 C 55.620 138.922,55.854 139.230,55.854 139.307 C 55.854 139.384,56.049 139.642,56.288 139.880 C 56.526 140.119,56.722 140.360,56.722 140.416 C 56.722 140.635,57.559 141.343,57.685 141.230 C 57.758 141.164,57.771 141.193,57.713 141.294 C 57.656 141.396,57.780 141.680,57.989 141.925 C 58.198 142.171,58.604 142.670,58.890 143.034 C 59.176 143.398,59.597 143.856,59.826 144.051 C 60.223 144.390,60.743 144.910,61.169 145.395 C 61.278 145.519,61.737 145.932,62.189 146.314 C 62.641 146.696,63.392 147.377,63.857 147.828 C 64.323 148.279,64.918 148.760,65.179 148.897 C 65.441 149.035,65.770 149.309,65.910 149.508 C 66.050 149.707,66.251 149.870,66.357 149.870 C 66.462 149.870,66.732 150.065,66.956 150.304 C 67.180 150.542,67.488 150.737,67.642 150.737 C 67.795 150.737,68.032 150.893,68.170 151.084 C 68.308 151.275,68.520 151.431,68.642 151.431 C 68.764 151.431,68.864 151.503,68.864 151.592 C 68.864 151.680,69.176 151.891,69.558 152.059 C 69.939 152.227,70.252 152.428,70.252 152.505 C 70.252 152.582,70.369 152.645,70.512 152.645 C 70.655 152.645,70.772 152.723,70.772 152.819 C 70.772 152.914,70.892 152.992,71.039 152.992 C 71.186 152.992,71.479 153.154,71.690 153.351 C 71.900 153.548,72.288 153.753,72.550 153.806 C 72.812 153.859,73.027 153.971,73.027 154.055 C 73.027 154.138,73.144 154.206,73.287 154.206 C 73.430 154.206,73.549 154.265,73.550 154.337 C 73.553 154.461,74.929 155.156,76.106 155.627 C 76.416 155.751,76.670 155.911,76.670 155.983 C 76.670 156.055,76.826 156.114,77.016 156.114 C 77.207 156.114,77.363 156.193,77.363 156.288 C 77.363 156.383,77.513 156.461,77.696 156.461 C 77.879 156.461,78.056 156.544,78.090 156.646 C 78.124 156.748,78.481 156.875,78.885 156.929 C 79.288 156.983,79.618 157.086,79.618 157.158 C 79.618 157.300,80.196 157.522,80.739 157.590 C 80.925 157.613,81.107 157.720,81.143 157.827 C 81.179 157.935,81.397 158.023,81.628 158.023 C 81.858 158.023,82.047 158.095,82.047 158.184 C 82.047 158.272,82.476 158.398,83.001 158.464 C 83.526 158.529,83.955 158.661,83.955 158.757 C 83.955 158.852,84.116 158.888,84.312 158.837 C 84.531 158.780,84.707 158.839,84.765 158.990 C 84.821 159.136,85.099 159.237,85.448 159.237 C 85.772 159.237,86.036 159.315,86.036 159.410 C 86.036 159.506,86.237 159.584,86.481 159.584 C 86.726 159.584,87.058 159.654,87.219 159.740 C 87.379 159.826,87.979 159.946,88.552 160.007 C 89.124 160.067,89.618 160.192,89.650 160.284 C 89.682 160.376,90.009 160.451,90.377 160.451 C 90.745 160.451,91.095 160.529,91.154 160.624 C 91.212 160.720,91.646 160.798,92.118 160.798 C 92.589 160.798,92.975 160.876,92.975 160.971 C 92.975 161.067,93.398 161.145,93.914 161.145 C 94.431 161.145,94.880 161.219,94.912 161.309 C 94.944 161.400,96.082 161.529,97.441 161.595 C 98.801 161.662,99.913 161.783,99.913 161.865 C 99.913 161.946,101.045 162.012,102.428 162.012 C 103.990 162.012,104.944 162.078,104.944 162.186 C 104.944 162.503,113.183 162.412,113.449 162.092 C 113.617 161.889,113.623 161.775,113.471 161.623 C 113.349 161.502,113.270 160.821,113.270 159.896 C 113.270 158.994,113.199 158.369,113.096 158.369 C 113.001 158.369,112.923 157.984,112.923 157.512 C 112.923 157.041,112.853 156.612,112.767 156.559 C 112.681 156.506,112.556 155.916,112.489 155.247 C 112.422 154.579,112.297 153.988,112.211 153.935 C 112.126 153.882,112.056 153.570,112.056 153.242 C 112.056 152.914,111.977 152.645,111.882 152.645 C 111.787 152.645,111.709 152.450,111.709 152.212 C 111.709 151.973,111.631 151.778,111.535 151.778 C 111.440 151.778,111.362 151.505,111.362 151.171 C 111.362 150.837,111.284 150.564,111.188 150.564 C 111.093 150.564,111.015 150.364,111.015 150.120 C 111.015 149.828,110.946 149.718,110.814 149.800 C 110.687 149.878,110.661 149.847,110.744 149.713 C 110.891 149.476,110.492 147.962,110.283 147.962 C 110.208 147.962,110.147 147.767,110.147 147.528 C 110.147 147.290,110.069 147.095,109.974 147.095 C 109.879 147.095,109.801 146.938,109.801 146.748 C 109.801 146.557,109.722 146.401,109.627 146.401 C 109.532 146.401,109.454 146.245,109.454 146.055 C 109.454 145.627,108.900 144.319,108.719 144.319 C 108.646 144.319,108.586 144.163,108.586 143.972 C 108.586 143.781,108.508 143.625,108.413 143.625 C 108.317 143.625,108.237 143.489,108.234 143.322 C 108.231 143.155,108.114 142.867,107.974 142.682 C 107.834 142.496,107.719 142.204,107.719 142.031 C 107.719 141.858,107.641 141.717,107.546 141.717 C 107.450 141.717,107.372 141.600,107.372 141.457 C 107.372 141.314,107.294 141.197,107.199 141.197 C 107.103 141.197,107.025 141.041,107.025 140.850 C 107.025 140.659,106.947 140.503,106.852 140.503 C 106.756 140.503,106.678 140.347,106.678 140.156 C 106.678 139.965,106.609 139.809,106.524 139.809 C 106.439 139.809,106.320 139.614,106.260 139.376 C 106.200 139.137,106.075 138.942,105.981 138.942 C 105.887 138.942,105.811 138.786,105.811 138.595 C 105.811 138.404,105.733 138.248,105.637 138.248 C 105.542 138.248,105.464 138.148,105.464 138.026 C 105.464 137.904,105.308 137.692,105.117 137.554 C 104.926 137.417,104.770 137.163,104.770 136.990 C 104.770 136.817,104.653 136.631,104.510 136.576 C 104.367 136.521,104.250 136.346,104.250 136.186 C 104.250 136.027,104.094 135.784,103.903 135.646 C 103.712 135.509,103.556 135.296,103.556 135.174 C 103.556 135.052,103.496 134.952,103.422 134.952 C 103.348 134.952,103.136 134.670,102.950 134.326 C 102.589 133.655,102.122 133.063,101.084 131.960 C 100.726 131.580,100.434 131.198,100.434 131.112 C 100.434 130.932,94.592 125.038,94.171 124.793 C 93.846 124.604,92.643 123.624,91.897 122.940 C 91.416 122.499,91.197 122.395,90.983 122.507 C 90.938 122.530,90.777 122.374,90.627 122.160 C 90.476 121.945,90.258 121.769,90.141 121.769 C 90.025 121.769,89.817 121.613,89.679 121.422 C 89.542 121.232,89.339 121.075,89.228 121.075 C 89.118 121.075,88.931 120.958,88.812 120.815 C 88.693 120.672,88.467 120.555,88.308 120.555 C 88.150 120.555,87.909 120.399,87.771 120.208 C 87.634 120.017,87.421 119.861,87.299 119.861 C 87.177 119.861,87.077 119.783,87.077 119.688 C 87.077 119.592,86.921 119.514,86.730 119.514 C 86.539 119.514,86.383 119.438,86.383 119.344 C 86.383 119.251,86.188 119.125,85.950 119.065 C 85.711 119.005,85.516 118.887,85.516 118.802 C 85.516 118.717,85.360 118.647,85.169 118.647 C 84.978 118.647,84.822 118.584,84.822 118.506 C 84.822 118.428,84.549 118.258,84.215 118.127 C 83.881 117.996,83.608 117.834,83.608 117.767 C 83.608 117.700,83.335 117.594,83.001 117.531 C 82.667 117.468,82.394 117.343,82.394 117.251 C 82.394 117.160,82.238 117.086,82.047 117.086 C 81.856 117.086,81.700 117.008,81.700 116.912 C 81.700 116.817,81.544 116.739,81.353 116.739 C 81.162 116.739,81.006 116.669,81.006 116.584 C 81.006 116.499,80.538 116.289,79.965 116.118 C 79.393 115.946,78.925 115.743,78.925 115.665 C 78.925 115.588,78.690 115.525,78.404 115.525 C 78.118 115.525,77.883 115.466,77.882 115.395 C 77.881 115.219,77.023 114.831,76.635 114.831 C 76.463 114.831,76.323 114.760,76.323 114.674 C 76.323 114.587,75.932 114.463,75.455 114.397 C 74.978 114.332,74.588 114.207,74.588 114.121 C 74.588 114.034,74.354 113.964,74.068 113.964 C 73.781 113.964,73.547 113.886,73.547 113.790 C 73.547 113.695,73.318 113.617,73.037 113.617 C 72.757 113.617,72.479 113.539,72.420 113.443 C 72.361 113.348,72.088 113.270,71.813 113.270 C 71.538 113.270,71.268 113.198,71.214 113.110 C 71.160 113.022,70.609 112.896,69.990 112.829 C 69.370 112.763,68.864 112.640,68.864 112.556 C 68.864 112.471,68.513 112.402,68.083 112.402 C 67.654 112.402,67.303 112.324,67.303 112.229 C 67.303 112.134,66.951 112.056,66.522 112.056 C 66.093 112.056,65.742 111.977,65.742 111.882 C 65.742 111.787,65.319 111.709,64.802 111.709 C 64.285 111.709,63.836 111.634,63.805 111.543 C 63.773 111.452,62.712 111.323,61.448 111.257 C 60.184 111.191,59.150 111.070,59.150 110.989 C 59.150 110.908,58.257 110.841,57.165 110.841 C 56.030 110.841,55.135 110.767,55.074 110.668 C 55.006 110.559,53.097 110.494,49.919 110.494 L 44.872 110.494 44.980 113.125 " stroke="none" fill="#64a444" fill-rule="evenodd"></path><path id="path1" d="" stroke="none" fill="#68a444" fill-rule="evenodd"></path><path id="path2" d="" stroke="none" fill="#68a444" fill-rule="evenodd"></path><path id="path3" d="" stroke="none" fill="#68a444" fill-rule="evenodd"></path><path id="path4" d="" stroke="none" fill="#68a444" fill-rule="evenodd"></path></g></svg>