<svg id="svg" version="1.1" xmlns="http://www.w3.org/2000/svg" xmlns:xlink="http://www.w3.org/1999/xlink" width="400" height="619" viewBox="0, 0, 400,619"><g id="svgg"><path id="path0" d="M188.833 78.365 C 174.147 79.886,148.966 87.863,148.112 91.264 C 147.147 95.109,149.279 120.768,151.538 132.500 C 155.639 153.798,166.932 179.927,175.298 187.470 C 176.125 188.216,176.026 188.288,177.087 186.167 C 188.115 164.120,195.902 124.990,197.203 85.083 L 197.434 78.000 194.467 78.044 C 192.835 78.069,190.300 78.213,188.833 78.365 M203.000 81.284 C 203.000 116.636,211.312 160.629,222.611 185.088 C 224.226 188.583,224.177 188.574,226.446 185.750 C 241.586 166.908,250.601 137.291,252.048 101.640 C 252.531 89.733,252.841 90.837,248.424 88.741 C 234.932 82.337,217.518 78.000,205.298 78.000 L 203.000 78.000 203.000 81.284 M138.090 96.654 C 103.830 119.735,84.883 159.477,88.780 200.083 C 89.116 203.582,88.949 203.534,93.256 201.370 C 122.680 186.584,142.282 145.127,142.330 97.583 C 142.334 93.641,142.506 93.679,138.090 96.654 M258.128 99.987 C 260.148 149.762,277.599 186.069,306.749 201.147 C 311.977 203.851,311.549 204.559,311.875 192.667 C 312.930 154.196,294.792 118.810,262.860 97.042 C 257.508 93.393,257.851 93.180,258.128 99.987 M144.764 172.069 C 144.576 172.306,144.004 173.775,143.493 175.333 C 136.170 197.656,118.920 217.487,99.153 226.308 C 94.814 228.244,94.906 227.998,96.792 232.603 C 100.763 242.298,106.838 252.366,113.807 260.803 C 116.946 264.604,116.667 264.565,121.012 261.810 C 137.323 251.468,153.336 233.448,164.617 212.738 C 167.072 208.230,167.094 209.161,164.470 206.261 C 156.860 197.852,149.934 185.724,146.333 174.500 C 145.477 171.833,145.241 171.467,144.764 172.069 M199.725 172.241 C 199.555 172.567,199.241 173.883,199.027 175.167 C 192.274 215.601,171.720 260.691,149.663 283.460 C 147.648 285.539,146.000 287.388,146.000 287.567 C 146.000 287.967,154.613 292.133,159.167 293.936 C 184.962 304.146,214.904 304.148,240.833 293.943 C 245.177 292.233,254.000 287.970,254.000 287.580 C 254.000 287.413,252.513 285.677,250.695 283.722 C 227.225 258.471,208.037 215.951,200.849 173.262 C 200.605 171.811,200.159 171.406,199.725 172.241 M254.855 172.028 C 249.382 187.487,244.243 196.681,235.720 206.265 L 233.558 208.697 234.145 209.932 C 243.444 229.490,263.052 251.837,280.153 262.367 C 283.530 264.446,283.495 264.451,285.850 261.601 C 293.282 252.609,298.840 243.568,303.142 233.473 C 305.439 228.081,305.438 228.143,303.250 227.247 C 282.860 218.898,265.527 199.808,257.175 176.500 C 255.572 172.027,255.146 171.206,254.855 172.028 " stroke="none" fill="#fbd304" fill-rule="evenodd"></path><path id="path1" d="M0.000 259.167 L 0.000 518.000 200.000 518.000 L 400.000 518.000 400.000 259.167 L 400.000 0.333 200.000 0.333 L 0.000 0.333 0.000 259.167 M197.109 85.500 C 196.846 120.340,188.990 160.482,177.556 185.417 C 176.065 188.667,175.918 188.639,172.768 184.500 C 157.358 164.250,147.317 127.959,148.062 95.209 L 148.167 90.585 150.333 89.466 C 162.909 82.972,178.245 78.920,194.167 77.884 C 197.508 77.667,197.174 76.805,197.109 85.500 M211.667 78.374 C 224.380 79.526,240.495 84.228,250.500 89.705 L 252.167 90.617 252.273 94.725 C 253.144 128.299,241.527 168.853,226.009 186.417 C 223.887 188.818,224.307 189.253,220.705 180.915 C 212.399 161.683,206.190 132.274,203.834 101.000 C 203.251 93.265,202.792 79.022,203.100 78.220 C 203.321 77.644,203.683 77.651,211.667 78.374 M142.389 94.330 C 142.582 94.906,142.067 107.093,141.675 111.212 C 137.419 155.950,120.324 187.709,93.035 201.574 C 88.957 203.647,89.104 203.711,88.677 199.655 C 85.155 166.205,99.139 130.205,124.624 107.118 C 131.665 100.739,142.034 93.276,142.389 94.330 M262.295 96.564 C 296.415 119.286,315.937 160.315,311.652 200.296 C 311.275 203.822,311.707 203.720,307.100 201.370 C 280.093 187.602,263.299 156.505,258.835 112.000 C 258.218 105.848,257.780 94.000,258.170 94.000 C 258.321 94.000,260.177 95.154,262.295 96.564 M146.131 173.693 C 150.848 187.211,156.279 196.836,164.364 206.012 L 166.769 208.741 165.851 210.612 C 156.036 230.626,137.338 251.808,120.027 262.526 L 116.888 264.470 115.254 262.652 C 107.964 254.543,99.822 241.052,95.786 230.394 C 94.851 227.924,94.845 227.941,96.906 227.166 C 116.131 219.942,134.671 199.794,142.651 177.453 C 143.231 175.829,143.937 173.855,144.220 173.067 C 144.869 171.259,145.335 171.411,146.131 173.693 M200.656 172.417 C 200.825 172.829,201.432 175.642,202.005 178.667 C 209.791 219.799,228.888 260.820,250.912 283.724 C 254.963 287.937,254.819 287.363,252.194 288.830 C 228.120 302.293,195.316 305.354,167.000 296.778 C 160.328 294.758,146.000 288.494,146.000 287.597 C 146.000 287.412,147.514 285.674,149.365 283.735 C 171.620 260.426,190.144 220.484,198.325 178.167 C 199.698 171.065,199.898 170.571,200.656 172.417 M256.835 175.250 C 265.305 199.357,285.006 221.230,303.721 227.303 C 304.392 227.521,305.015 227.891,305.105 228.127 C 305.510 229.181,299.672 241.601,295.796 247.932 C 291.556 254.857,284.045 264.550,283.177 264.217 C 280.428 263.162,270.616 256.015,265.167 251.099 C 253.926 240.957,241.060 224.032,234.639 210.941 L 233.547 208.714 234.857 207.179 C 244.003 196.460,248.738 188.512,253.136 176.500 C 255.346 170.462,255.173 170.520,256.835 175.250 M339.259 334.519 C 339.962 335.011,340.000 335.266,340.000 339.519 L 340.000 344.000 335.524 344.000 C 329.745 344.000,330.000 344.245,330.000 338.698 C 330.000 336.359,330.100 334.344,330.222 334.222 C 330.717 333.728,338.494 333.983,339.259 334.519 M64.699 337.828 C 70.465 342.539,69.997 341.099,69.999 354.164 L 70.000 365.161 77.083 358.096 C 85.346 349.856,84.448 350.329,91.772 350.348 L 97.500 350.363 87.398 360.244 L 77.297 370.126 87.396 380.230 L 97.496 390.333 92.203 390.333 C 84.634 390.333,85.324 390.677,77.599 383.069 C 73.987 379.511,70.837 376.665,70.599 376.744 C 70.273 376.852,70.126 378.427,70.000 383.138 C 69.794 390.868,70.175 390.389,64.340 390.259 L 60.167 390.167 60.081 362.222 C 60.028 344.783,60.115 334.319,60.311 334.388 C 60.484 334.450,62.459 335.997,64.699 337.828 M124.333 354.287 L 124.333 359.241 122.417 359.420 C 117.994 359.835,114.991 361.749,113.265 365.254 L 112.167 367.484 112.059 378.039 C 111.926 391.063,112.421 390.000,106.487 390.000 L 102.333 390.000 102.333 370.167 L 102.333 350.333 106.643 350.333 C 111.845 350.333,112.000 350.423,112.000 353.423 L 112.000 355.465 112.991 354.117 C 115.041 351.330,118.951 349.491,123.083 349.370 L 124.333 349.333 124.333 354.287 M201.761 350.332 C 208.575 352.891,209.329 355.387,209.331 375.393 C 209.334 392.010,209.933 390.333,203.994 390.333 L 199.702 390.333 199.601 376.917 L 199.500 363.500 198.667 362.000 C 196.269 357.683,189.196 358.039,186.448 362.614 C 184.891 365.206,184.667 367.286,184.667 379.099 C 184.667 391.549,185.260 390.333,179.189 390.333 L 175.000 390.333 175.000 370.333 L 175.000 350.333 179.224 350.333 C 184.133 350.333,184.667 350.571,184.667 352.757 L 184.667 354.078 185.943 352.925 C 189.715 349.517,196.590 348.390,201.761 350.332 M235.918 349.668 C 238.774 350.039,241.384 351.190,243.001 352.791 L 244.167 353.945 244.333 352.223 L 244.500 350.500 248.796 350.406 C 255.020 350.271,254.333 347.710,254.333 371.069 C 254.333 393.262,254.290 393.750,252.005 397.286 C 244.183 409.388,218.919 405.834,217.407 392.419 L 217.247 391.000 222.457 391.000 C 227.103 391.000,227.667 391.060,227.667 391.557 C 227.667 393.557,231.774 395.667,235.667 395.667 C 241.702 395.667,244.311 393.119,244.326 387.209 L 244.333 384.252 243.583 384.793 C 238.841 388.212,232.384 389.076,226.966 387.018 C 210.490 380.757,213.176 351.936,230.445 349.686 C 233.281 349.316,233.210 349.316,235.918 349.668 M286.800 350.478 C 289.886 351.514,291.695 352.521,293.801 354.374 C 296.010 356.319,295.902 356.736,292.301 360.125 L 289.269 362.979 287.982 361.351 C 283.648 355.867,270.731 356.233,272.128 361.799 C 272.500 363.279,274.314 363.995,281.156 365.364 C 293.953 367.926,297.398 370.726,296.925 378.185 C 296.285 388.250,284.383 393.657,270.576 390.154 C 265.751 388.931,259.886 385.126,260.643 383.712 C 260.936 383.163,265.450 379.453,266.936 378.538 C 267.223 378.362,267.769 378.680,268.540 379.473 C 273.531 384.612,286.333 383.967,286.333 378.577 C 286.333 376.563,284.363 375.671,276.550 374.151 C 264.006 371.711,259.488 366.512,262.524 358.011 C 265.040 350.965,277.101 347.222,286.800 350.478 M324.926 354.257 C 324.997 357.896,324.918 359.042,324.593 359.132 C 324.358 359.197,323.154 359.406,321.917 359.595 C 313.998 360.809,312.607 363.542,312.406 378.285 C 312.231 391.083,312.746 390.000,306.833 390.000 L 302.667 390.000 302.667 370.167 L 302.667 350.333 306.855 350.333 C 312.203 350.333,312.333 350.402,312.333 353.214 L 312.333 355.405 313.872 353.694 C 316.371 350.915,320.080 349.275,323.500 349.437 L 324.833 349.500 324.926 354.257 M164.895 350.725 L 165.667 351.450 165.667 370.325 C 165.667 384.561,165.568 389.298,165.267 389.600 C 164.996 389.871,163.437 390.000,160.433 390.000 L 156.000 390.000 156.000 388.141 L 156.000 386.281 154.596 387.483 C 148.711 392.520,138.090 392.073,133.152 386.580 C 130.173 383.266,130.180 383.315,130.071 365.750 L 129.975 350.333 134.476 350.333 C 140.204 350.333,139.665 348.962,139.675 363.561 C 139.685 379.645,140.108 380.930,145.499 381.273 C 150.441 381.588,152.960 380.350,154.742 376.732 L 155.833 374.516 155.939 362.258 L 156.044 350.000 160.084 350.000 C 163.773 350.000,164.191 350.063,164.895 350.725 M339.600 350.733 C 340.177 351.311,340.177 389.023,339.600 389.600 C 339.329 389.871,337.770 390.000,334.767 390.000 L 330.333 390.000 330.333 370.167 L 330.333 350.333 334.767 350.333 C 337.770 350.333,339.329 350.462,339.600 350.733 M232.998 358.645 C 222.720 361.771,224.819 379.000,235.478 379.000 C 241.377 379.000,244.982 374.637,244.596 367.967 C 244.203 361.171,238.846 356.866,232.998 358.645 M184.519 418.237 C 184.390 418.573,182.390 418.667,175.323 418.667 L 166.292 418.667 167.396 417.127 C 169.383 414.355,169.442 414.333,175.045 414.333 L 180.000 414.333 180.000 412.688 C 180.000 410.220,180.379 409.585,182.550 408.420 L 184.500 407.373 184.592 412.590 C 184.643 415.459,184.610 418.000,184.519 418.237 M160.667 423.612 C 160.667 423.766,160.062 424.736,159.322 425.769 L 157.978 427.646 158.793 429.253 C 160.083 431.799,160.333 434.149,160.333 443.701 C 160.333 454.524,160.595 453.667,157.298 453.667 L 154.667 453.667 154.667 443.414 C 154.667 430.537,154.398 429.562,150.601 428.651 C 145.597 427.450,142.689 429.554,142.171 434.750 L 141.947 437.000 146.140 437.000 C 148.446 437.000,150.333 437.095,150.333 437.211 C 150.333 437.556,148.943 439.777,148.221 440.583 C 147.627 441.247,147.232 441.333,144.775 441.333 L 142.000 441.333 142.000 447.293 C 142.000 454.235,142.105 454.015,138.896 453.756 L 136.625 453.572 136.744 442.869 C 136.883 430.429,136.969 429.988,139.812 427.145 C 142.582 424.375,147.433 423.302,151.950 424.460 L 154.067 425.003 155.059 424.168 C 156.058 423.327,160.667 422.870,160.667 423.612 M76.732 424.830 C 78.892 425.594,81.114 427.654,82.231 429.929 L 83.167 431.833 83.272 441.972 C 83.404 454.615,83.627 453.667,80.522 453.667 L 78.056 453.667 77.945 443.083 C 77.801 429.440,77.402 428.490,71.833 428.508 C 65.936 428.527,65.552 429.384,65.334 443.000 L 65.167 453.500 62.563 453.598 L 59.959 453.695 60.063 442.764 C 60.180 430.451,60.266 429.985,62.933 427.223 C 65.857 424.195,71.949 423.138,76.732 424.830 M105.917 424.861 L 107.667 425.352 107.667 427.644 L 107.667 429.936 105.930 429.276 C 100.849 427.345,95.997 428.576,96.001 431.795 C 96.004 433.707,96.991 434.703,100.998 436.833 C 108.644 440.899,110.728 444.537,108.398 449.750 C 106.478 454.045,100.036 455.897,94.000 453.890 C 90.783 452.821,90.667 452.679,90.667 449.826 C 90.667 446.950,90.557 447.003,93.546 448.410 C 97.517 450.278,102.401 450.013,103.374 447.876 C 104.420 445.582,102.850 443.668,97.706 440.967 C 84.473 434.017,91.238 420.746,105.917 424.861 M182.583 424.861 L 184.333 425.352 184.333 427.644 L 184.333 429.936 182.673 429.305 C 177.492 427.337,172.665 428.458,172.668 431.629 C 172.670 433.709,173.579 434.660,177.643 436.833 C 183.966 440.214,185.669 442.157,185.663 445.982 C 185.652 453.569,178.187 456.854,169.083 453.277 L 167.333 452.589 167.333 449.961 C 167.333 446.937,167.217 446.999,170.213 448.412 C 174.346 450.360,179.317 449.968,180.128 447.630 C 180.891 445.426,179.271 443.524,174.568 441.102 C 169.269 438.374,167.261 435.935,167.234 432.194 C 167.189 426.029,174.423 422.573,182.583 424.861 M128.810 425.857 C 129.447 426.494,129.614 451.854,128.988 453.022 C 128.678 453.601,128.262 453.666,124.905 453.663 L 121.167 453.659 117.417 444.243 C 115.354 439.065,113.667 434.717,113.667 434.581 C 113.667 434.098,118.593 434.307,119.097 434.811 C 119.360 435.074,120.458 437.660,121.537 440.558 L 123.500 445.827 123.588 435.580 L 123.676 425.333 125.981 425.333 C 127.632 425.333,128.434 425.482,128.810 425.857 M107.464 457.861 C 107.576 458.151,107.667 459.927,107.667 461.809 C 107.667 465.686,107.677 465.668,104.750 467.134 L 103.000 468.011 103.000 462.672 L 103.000 457.333 105.131 457.333 C 106.767 457.333,107.309 457.456,107.464 457.861 M123.000 557.333 L 123.000 570.000 125.167 570.000 L 127.333 570.000 127.333 568.979 L 127.333 567.959 128.857 569.053 C 135.516 573.835,143.669 566.529,141.148 558.041 C 139.502 552.499,132.290 550.377,128.250 554.247 L 127.333 555.125 127.333 550.427 L 127.333 545.729 125.774 545.198 C 122.735 544.163,123.000 543.003,123.000 557.333 M215.772 545.648 C 214.051 546.429,213.431 547.559,213.134 550.457 C 212.913 552.614,212.885 552.667,211.954 552.667 C 211.020 552.667,211.000 552.705,211.000 554.500 C 211.000 556.315,211.010 556.333,212.000 556.333 L 213.000 556.333 213.000 566.123 L 213.000 575.912 214.939 576.456 C 216.005 576.755,216.980 577.000,217.105 577.000 C 217.231 577.000,217.333 572.275,217.333 566.500 L 217.333 556.000 219.833 556.000 L 222.333 556.000 222.333 554.167 L 222.333 552.333 219.790 552.333 L 217.246 552.333 217.446 551.083 C 217.792 548.924,219.358 548.263,221.857 549.222 C 222.237 549.368,222.333 549.002,222.333 547.413 L 222.333 545.421 221.083 545.214 C 218.913 544.855,217.212 544.994,215.772 545.648 M385.675 546.179 C 374.973 549.184,373.395 564.067,383.266 568.896 C 387.187 570.815,393.616 570.266,397.666 567.667 L 399.333 566.597 399.333 561.299 L 399.333 556.000 394.167 556.000 L 389.000 556.000 389.000 558.500 L 389.000 561.000 391.500 561.000 L 394.000 561.000 394.000 562.517 C 394.000 566.136,386.593 566.193,383.985 562.593 C 378.749 555.365,387.019 547.576,394.444 552.742 C 395.137 553.224,398.423 549.991,398.248 549.000 C 397.880 546.914,389.641 545.065,385.675 546.179 M6.388 557.475 C 3.607 563.786,1.238 569.193,1.124 569.490 C 0.943 569.964,1.221 570.019,3.375 569.932 L 5.833 569.833 7.000 566.921 L 8.167 564.009 13.333 564.008 L 18.500 564.007 19.717 566.920 L 20.934 569.833 23.301 569.931 C 26.201 570.051,26.301 570.884,22.325 561.801 C 20.487 557.602,18.199 552.331,17.241 550.088 L 15.500 546.009 13.472 546.004 L 11.444 546.000 6.388 557.475 M302.333 557.833 L 302.333 569.667 305.000 569.667 L 307.667 569.667 307.667 562.417 L 307.668 555.167 310.666 559.666 C 312.315 562.141,313.806 564.213,313.981 564.271 C 314.155 564.329,315.730 562.230,317.482 559.607 L 320.667 554.837 320.667 562.252 L 320.667 569.667 323.333 569.667 L 326.000 569.667 326.000 557.833 L 326.000 546.000 323.052 546.000 L 320.104 546.000 317.826 549.750 C 316.573 551.813,315.217 553.997,314.813 554.604 L 314.077 555.708 311.122 550.864 L 308.167 546.020 305.250 546.010 L 302.333 546.000 302.333 557.833 M356.333 557.833 L 356.333 569.667 359.000 569.667 L 361.667 569.667 361.667 565.333 L 361.667 561.000 366.667 561.000 L 371.667 561.000 371.667 558.500 L 371.667 556.000 366.667 556.000 L 361.667 556.000 361.667 553.500 L 361.667 551.000 368.000 551.000 L 374.333 551.000 374.333 548.500 L 374.333 546.000 365.333 546.000 L 356.333 546.000 356.333 557.833 M330.745 554.583 C 330.950 567.586,332.873 570.297,341.643 569.945 C 349.598 569.625,351.333 566.789,351.333 554.106 L 351.333 546.333 348.667 546.333 L 346.000 546.333 345.993 553.750 C 345.983 563.636,345.336 565.077,340.907 565.077 C 336.936 565.077,336.335 563.609,336.334 553.917 L 336.333 546.333 333.474 546.333 L 330.615 546.333 330.745 554.583 M16.474 559.251 C 16.710 559.994,16.683 560.000,13.356 560.000 C 11.510 560.000,10.000 559.932,10.000 559.848 C 10.000 559.765,10.616 558.302,11.368 556.598 C 12.121 554.894,12.882 553.125,13.059 552.667 C 13.365 551.877,15.345 555.696,16.474 559.251 M46.451 552.642 C 45.691 552.988,44.908 553.547,44.711 553.885 C 44.403 554.415,44.352 554.350,44.343 553.417 L 44.333 552.333 42.167 552.333 L 40.000 552.333 40.000 561.167 L 40.000 570.000 42.139 570.000 L 44.277 570.000 44.390 564.417 C 44.533 557.411,45.172 556.000,48.204 556.000 C 50.802 556.000,51.333 557.441,51.333 564.489 L 51.333 570.000 53.479 570.000 L 55.625 570.000 55.729 563.972 L 55.833 557.944 56.922 556.972 C 58.349 555.698,59.651 555.698,61.078 556.972 L 62.167 557.944 62.277 563.972 L 62.387 570.000 64.546 570.000 L 66.704 570.000 66.602 563.083 C 66.485 555.168,66.209 554.147,63.804 552.734 C 61.419 551.332,56.103 552.279,54.835 554.331 C 54.699 554.550,54.344 554.346,53.917 553.804 C 52.486 551.985,49.070 551.453,46.451 552.642 M77.167 552.308 C 73.104 553.421,71.010 556.158,70.738 560.709 C 70.385 566.608,73.238 569.958,78.878 570.265 C 82.076 570.439,84.208 569.861,86.094 568.306 C 87.631 567.039,87.630 567.017,85.992 565.700 L 84.650 564.622 83.643 565.469 C 80.434 568.169,76.156 567.000,75.180 563.155 L 74.759 561.500 81.399 561.410 L 88.039 561.319 87.812 559.743 C 87.042 554.399,82.110 550.954,77.167 552.308 M98.167 552.525 C 97.618 552.812,96.905 553.284,96.584 553.575 C 96.041 554.066,96.000 554.040,96.000 553.218 C 96.000 552.351,95.956 552.333,93.833 552.333 L 91.667 552.333 91.667 561.167 L 91.667 570.000 93.833 570.000 L 96.000 570.000 96.000 564.483 C 96.000 558.592,96.220 557.584,97.739 556.520 C 98.841 555.748,100.478 555.870,101.565 556.804 L 102.500 557.607 102.667 563.720 L 102.833 569.833 105.083 569.932 L 107.333 570.030 107.333 564.398 C 107.333 558.031,107.706 556.848,109.912 556.216 C 113.091 555.304,114.000 557.139,114.000 564.467 L 114.000 570.000 116.167 570.000 L 118.333 570.000 118.331 563.750 C 118.330 560.313,118.175 556.942,117.985 556.260 C 116.739 551.772,111.034 550.481,107.102 553.796 C 106.054 554.680,106.032 554.684,105.675 554.015 C 104.732 552.253,100.355 551.384,98.167 552.525 M151.167 552.292 C 143.023 554.409,142.312 567.778,150.226 569.976 C 155.338 571.395,163.296 568.448,160.573 566.143 C 158.708 564.566,158.808 564.591,157.787 565.442 C 154.272 568.371,149.000 566.426,149.000 562.200 L 149.000 561.333 155.479 561.333 L 161.958 561.333 161.789 560.083 C 161.031 554.498,156.230 550.976,151.167 552.292 M174.167 552.491 C 172.933 552.822,172.175 553.304,171.250 554.345 L 170.000 555.752 170.000 554.210 L 170.000 552.667 167.833 552.667 L 165.667 552.667 165.667 561.333 L 165.667 570.000 167.801 570.000 L 169.935 570.000 170.052 565.583 C 170.214 559.477,171.437 557.418,175.265 556.806 L 176.667 556.581 176.667 554.291 C 176.667 551.742,176.747 551.800,174.167 552.491 M195.072 552.734 C 187.637 555.243,187.540 567.297,194.935 569.816 C 202.692 572.459,209.546 566.502,207.683 558.737 C 206.506 553.829,200.415 550.930,195.072 552.734 M81.309 556.205 C 83.720 557.630,83.311 558.000,79.324 558.000 C 75.758 558.000,75.654 557.979,75.997 557.340 C 76.823 555.795,79.608 555.201,81.309 556.205 M155.340 556.170 C 157.891 557.489,157.331 558.000,153.333 558.000 C 149.758 558.000,149.654 557.979,149.997 557.340 C 150.816 555.809,153.504 555.221,155.340 556.170 M134.860 556.629 C 137.863 558.460,137.887 564.192,134.900 566.013 C 131.617 568.015,127.667 565.352,127.667 561.136 C 127.667 557.258,131.724 554.716,134.860 556.629 M201.288 556.915 C 205.123 559.773,203.585 566.118,198.955 566.539 C 193.454 567.040,191.404 559.172,196.357 556.565 C 197.772 555.821,200.035 555.981,201.288 556.915 M55.000 596.833 L 55.000 609.667 57.171 609.667 L 59.342 609.667 59.254 597.417 L 59.167 585.167 57.500 584.610 C 56.583 584.304,55.646 584.041,55.417 584.027 C 55.090 584.006,55.000 586.775,55.000 596.833 M86.000 596.833 L 86.000 609.667 88.167 609.667 L 90.333 609.667 90.333 608.438 L 90.333 607.209 91.250 608.087 C 96.691 613.298,105.172 608.150,104.589 599.992 C 104.072 592.777,95.872 588.965,91.333 593.830 L 90.500 594.723 90.333 589.973 L 90.167 585.223 88.500 584.637 C 87.583 584.315,86.646 584.040,86.417 584.026 C 86.090 584.006,86.000 586.775,86.000 596.833 M129.000 596.833 L 129.000 609.667 131.167 609.667 L 133.333 609.667 133.333 597.388 L 133.333 585.109 131.338 584.555 C 130.241 584.250,129.266 584.000,129.172 584.000 C 129.077 584.000,129.000 589.775,129.000 596.833 M282.667 596.833 L 282.667 609.667 284.833 609.667 L 287.000 609.667 287.000 597.377 L 287.000 585.088 285.061 584.544 C 283.995 584.245,283.020 584.000,282.895 584.000 C 282.769 584.000,282.667 589.775,282.667 596.833 M152.039 585.237 C 150.606 585.943,149.684 587.898,149.674 590.250 L 149.667 592.000 148.500 592.000 L 147.333 592.000 147.333 594.000 L 147.333 596.000 148.500 596.000 L 149.667 596.000 149.667 605.764 L 149.667 615.528 151.250 615.968 C 152.121 616.210,153.096 616.483,153.417 616.576 C 153.963 616.734,154.000 616.092,154.000 606.372 L 154.000 596.000 156.333 596.000 L 158.667 596.000 158.667 594.000 L 158.667 592.000 156.333 592.000 L 154.000 592.000 154.000 590.897 C 154.000 589.043,154.589 588.580,156.771 588.716 L 158.668 588.833 158.667 586.956 C 158.667 585.290,158.582 585.055,157.917 584.877 C 156.436 584.480,153.170 584.680,152.039 585.237 M161.333 587.500 L 161.333 589.667 163.667 589.667 L 166.000 589.667 166.000 587.500 L 166.000 585.333 163.667 585.333 L 161.333 585.333 161.333 587.500 M252.667 587.500 L 252.667 589.667 255.000 589.667 L 257.333 589.667 257.333 587.500 L 257.333 585.333 255.000 585.333 L 252.667 585.333 252.667 587.500 M179.245 591.653 C 178.554 591.787,177.392 592.377,176.661 592.964 L 175.333 594.031 175.333 593.016 L 175.333 592.000 173.333 592.000 L 171.333 592.000 171.333 600.667 L 171.333 609.333 173.305 609.333 L 175.276 609.333 175.401 603.917 C 175.559 597.037,176.276 595.600,179.551 595.600 C 182.277 595.600,182.996 597.474,182.998 604.583 L 183.000 609.667 185.167 609.667 L 187.333 609.667 187.333 603.481 C 187.333 596.318,187.059 594.837,185.430 593.208 C 184.411 592.189,181.852 591.188,180.734 591.372 C 180.605 591.393,179.935 591.520,179.245 591.653 M220.188 591.708 C 219.467 591.877,218.379 592.394,217.771 592.858 L 216.667 593.701 216.667 592.850 C 216.667 592.026,216.600 592.000,214.500 592.000 L 212.333 592.000 212.333 600.667 L 212.333 609.333 214.479 609.333 L 216.624 609.333 216.729 603.472 L 216.833 597.610 217.922 596.639 C 219.481 595.246,221.492 595.266,222.854 596.688 L 223.833 597.709 223.938 603.688 L 224.042 609.667 226.188 609.667 L 228.333 609.667 228.333 602.989 C 228.333 594.340,227.799 592.893,224.209 591.827 C 222.356 591.277,222.063 591.268,220.188 591.708 M37.833 591.978 C 30.479 593.769,29.352 604.248,36.119 607.922 C 38.083 608.988,42.291 608.727,44.139 607.424 L 45.667 606.347 45.667 607.291 C 45.667 611.028,40.629 612.986,36.930 610.687 L 35.231 609.631 33.950 610.882 L 32.669 612.133 33.540 613.042 C 36.824 616.470,44.315 616.305,47.754 612.729 C 49.770 610.634,50.000 609.365,50.000 600.322 L 50.000 592.333 47.833 592.333 L 45.667 592.333 45.667 593.349 L 45.667 594.365 44.417 593.377 C 42.522 591.879,40.235 591.394,37.833 591.978 M70.167 591.978 C 61.086 594.189,61.387 607.775,70.560 609.679 C 78.338 611.294,84.032 604.749,81.448 597.165 C 80.044 593.046,75.107 590.776,70.167 591.978 M239.109 591.997 C 231.003 593.704,229.677 605.261,237.149 609.077 C 240.254 610.662,244.964 610.103,247.543 607.842 L 248.833 606.712 247.467 605.328 L 246.100 603.943 244.562 605.027 C 240.034 608.219,234.681 603.665,236.945 598.546 C 238.402 595.252,243.887 594.574,245.741 597.459 C 245.896 597.701,246.480 597.337,247.389 596.431 C 248.772 595.051,248.785 595.017,248.178 594.346 C 246.510 592.503,242.113 591.364,239.109 591.997 M307.500 591.963 C 298.177 594.380,299.763 608.560,309.367 608.652 C 311.237 608.670,312.814 608.170,314.250 607.104 C 315.526 606.156,315.736 606.724,314.874 608.788 C 313.546 611.966,309.522 612.755,306.187 610.492 L 304.948 609.652 303.641 610.687 C 302.084 611.920,302.077 611.963,303.250 613.086 C 306.625 616.318,313.697 616.307,317.114 613.065 C 319.379 610.916,319.489 610.376,319.604 600.917 L 319.708 592.333 317.520 592.333 L 315.333 592.333 315.333 593.391 L 315.333 594.450 314.583 593.764 C 312.867 592.194,309.707 591.390,307.500 591.963 M332.164 592.288 C 331.429 592.622,330.341 593.449,329.747 594.126 L 328.667 595.357 328.667 593.678 L 328.667 592.000 326.500 592.000 L 324.333 592.000 324.333 600.833 L 324.333 609.667 326.461 609.667 L 328.589 609.667 328.721 605.250 C 328.904 599.077,330.653 596.333,334.404 596.333 C 335.332 596.333,335.333 596.331,335.333 594.000 C 335.333 591.316,334.863 591.062,332.164 592.288 M343.431 592.128 C 336.208 594.497,335.300 605.521,342.059 608.784 C 349.026 612.148,355.829 608.220,355.829 600.833 C 355.829 594.091,349.975 589.981,343.431 592.128 M388.546 592.134 C 387.838 592.398,386.825 593.029,386.296 593.536 L 385.333 594.458 385.333 593.229 L 385.333 592.000 383.167 592.000 L 381.000 592.000 381.000 603.794 L 381.000 615.588 382.583 615.976 C 383.454 616.189,384.429 616.442,384.750 616.538 C 385.286 616.698,385.333 616.331,385.333 611.988 L 385.333 607.264 386.464 608.257 C 389.382 610.819,394.534 610.304,397.282 607.174 C 403.279 600.344,396.738 589.084,388.546 592.134 M5.500 592.681 C 4.583 593.037,3.428 593.666,2.932 594.081 L 2.030 594.833 3.139 596.090 L 4.248 597.346 5.902 596.488 C 9.439 594.652,13.333 595.697,13.333 598.482 L 13.333 599.243 11.777 598.455 C 6.900 595.986,1.333 598.853,1.333 603.833 C 1.333 608.890,6.988 611.716,12.035 609.180 C 13.598 608.395,13.667 608.388,13.667 609.014 C 13.667 609.590,13.903 609.667,15.667 609.667 L 17.667 609.667 17.667 603.622 C 17.667 596.654,17.417 595.455,15.634 593.843 C 13.477 591.894,8.886 591.368,5.500 592.681 M112.234 592.481 C 111.538 592.729,110.368 593.329,109.635 593.815 L 108.301 594.697 109.345 596.015 C 110.582 597.576,110.273 597.524,112.199 596.500 C 115.568 594.708,119.625 595.745,119.656 598.405 L 119.667 599.311 118.503 598.624 C 113.398 595.612,106.666 599.543,107.543 605.024 C 108.177 608.992,113.922 611.341,118.079 609.333 C 119.729 608.536,119.667 608.542,119.667 609.167 C 119.667 609.560,120.130 609.667,121.833 609.667 L 124.000 609.667 123.998 603.750 C 123.996 595.822,123.401 594.090,120.180 592.627 C 118.543 591.883,114.137 591.802,112.234 592.481 M161.667 600.833 L 161.667 609.667 163.833 609.667 L 166.000 609.667 166.000 600.833 L 166.000 592.000 163.833 592.000 L 161.667 592.000 161.667 600.833 M195.167 592.681 C 194.250 593.037,193.091 593.666,192.591 594.081 L 191.681 594.833 192.891 596.133 C 193.891 597.209,194.193 597.366,194.634 597.043 C 197.896 594.657,203.000 595.333,203.000 598.152 C 203.000 599.160,203.059 599.149,201.635 598.417 C 198.541 596.826,193.651 597.920,191.822 600.611 C 188.053 606.159,195.468 612.534,201.784 609.176 C 203.270 608.386,203.333 608.379,203.333 609.009 C 203.333 609.591,203.565 609.667,205.333 609.667 L 207.333 609.667 207.333 603.219 C 207.333 597.115,207.292 596.694,206.559 595.307 C 204.935 592.235,199.529 590.989,195.167 592.681 M252.667 600.833 L 252.667 609.667 254.833 609.667 L 257.000 609.667 257.000 600.833 L 257.000 592.000 254.833 592.000 L 252.667 592.000 252.667 600.833 M265.472 592.687 C 264.541 593.045,263.423 593.717,262.988 594.179 L 262.198 595.020 263.400 596.222 L 264.602 597.425 265.716 596.631 C 268.508 594.644,273.031 595.588,273.545 598.265 L 273.756 599.364 272.461 598.598 C 269.442 596.814,264.147 597.784,262.387 600.444 C 258.575 606.205,265.693 612.592,272.117 609.176 C 273.603 608.386,273.667 608.379,273.667 609.009 C 273.667 609.591,273.898 609.667,275.667 609.667 L 277.667 609.667 277.667 603.153 C 277.667 595.960,277.396 594.786,275.424 593.412 C 273.160 591.835,268.558 591.499,265.472 592.687 M360.007 598.750 C 360.015 605.705,360.271 606.940,362.039 608.561 C 364.259 610.596,368.581 610.449,370.912 608.259 L 371.667 607.550 371.667 608.609 L 371.667 609.667 373.833 609.667 L 376.000 609.667 376.000 601.000 L 376.000 592.333 373.863 592.333 L 371.725 592.333 371.613 597.583 C 371.479 603.801,371.020 605.195,368.870 605.914 C 365.398 607.074,364.333 605.141,364.333 597.677 L 364.333 592.333 362.167 592.333 L 360.000 592.333 360.007 598.750 M97.992 596.276 C 101.124 598.610,100.897 603.811,97.581 605.675 C 94.288 607.526,90.611 604.937,90.611 600.768 C 90.611 596.655,94.954 594.012,97.992 596.276 M349.535 596.493 C 351.475 597.764,352.122 600.849,350.954 603.261 C 348.641 608.039,341.672 606.268,341.668 600.900 C 341.664 596.512,345.924 594.126,349.535 596.493 M392.194 595.869 C 394.641 597.030,395.652 600.660,394.273 603.331 C 391.961 607.809,386.752 606.998,385.626 601.984 C 384.672 597.737,388.541 594.135,392.194 595.869 M43.737 596.516 C 48.081 599.751,43.917 606.717,38.973 604.488 C 35.595 602.965,35.179 598.346,38.232 596.268 C 39.455 595.435,42.468 595.571,43.737 596.516 M76.211 597.123 C 79.338 600.250,77.541 605.588,73.253 605.910 C 70.970 606.081,69.450 605.268,68.425 603.329 C 65.591 597.969,71.971 592.883,76.211 597.123 M312.600 596.135 C 317.025 598.437,315.428 604.733,310.400 604.809 C 305.841 604.878,303.944 598.651,307.807 596.295 C 309.027 595.551,311.330 595.474,312.600 596.135 M12.275 601.903 C 14.216 603.346,13.484 605.591,10.830 606.334 C 7.471 607.275,4.677 605.140,6.008 602.651 C 6.915 600.956,10.436 600.536,12.275 601.903 M117.787 601.459 C 120.390 602.547,119.959 605.343,117.043 606.285 C 114.412 607.135,111.995 605.993,112.005 603.904 C 112.017 601.445,114.868 600.240,117.787 601.459 M201.701 601.763 C 202.669 602.416,202.833 602.718,202.833 603.847 C 202.833 606.836,196.744 607.668,195.664 604.826 C 194.550 601.895,198.741 599.769,201.701 601.763 M272.034 601.761 C 273.711 602.887,273.822 604.712,272.270 605.659 C 269.100 607.592,265.208 606.179,265.836 603.323 C 266.314 601.145,269.807 600.265,272.034 601.761 " stroke="none" fill="#6b5c5c" fill-rule="evenodd"></path><path id="path2" d="M330.333 338.822 C 330.333 344.274,330.044 344.000,335.811 344.000 L 340.000 344.000 340.000 339.811 C 340.000 334.044,340.274 334.333,334.822 334.333 L 330.333 334.333 330.333 338.822 M60.333 362.333 L 60.333 390.000 64.600 390.000 C 70.040 390.000,69.667 390.481,69.667 383.461 C 69.667 374.835,69.386 374.871,77.004 382.524 C 84.592 390.148,84.304 390.000,91.572 390.000 L 97.165 390.000 87.250 380.085 L 77.335 370.169 87.249 360.251 L 97.162 350.333 91.998 350.335 C 84.504 350.338,85.360 349.887,76.917 358.269 L 69.667 365.467 69.667 354.141 C 69.667 344.271,69.598 342.717,69.130 342.049 C 68.626 341.329,60.828 334.667,60.490 334.667 C 60.404 334.667,60.333 347.117,60.333 362.333 M119.310 350.122 C 116.586 350.857,112.333 354.070,112.333 355.393 C 112.333 355.544,112.183 355.667,112.000 355.667 C 111.810 355.667,111.667 354.671,111.667 353.345 C 111.667 350.393,111.562 350.333,106.355 350.333 L 102.333 350.333 102.333 370.167 L 102.333 390.000 106.296 390.000 C 109.700 390.000,110.371 389.910,111.046 389.363 L 111.833 388.727 112.000 377.947 C 112.235 362.753,113.560 360.439,122.750 359.177 L 124.333 358.959 124.333 354.313 L 124.333 349.667 122.583 349.689 C 121.621 349.702,120.148 349.897,119.310 350.122 M190.822 350.275 C 188.450 351.158,187.760 351.567,186.162 353.040 L 184.754 354.338 184.581 352.807 C 184.328 350.562,184.189 350.500,179.401 350.500 L 175.167 350.500 175.081 370.250 L 174.995 390.000 179.478 390.000 C 182.698 390.000,184.037 389.883,184.230 389.583 C 184.379 389.354,184.575 383.842,184.667 377.333 C 184.851 364.274,184.949 363.663,187.268 361.219 C 190.090 358.245,195.357 357.999,197.901 360.723 C 199.618 362.562,199.667 363.014,199.667 376.999 L 199.667 390.019 204.250 389.926 L 208.833 389.833 208.935 375.167 C 209.058 357.489,208.812 355.829,205.613 352.768 C 202.676 349.957,195.106 348.682,190.822 350.275 M228.704 350.194 C 211.693 354.768,211.945 383.459,229.031 387.487 C 234.258 388.719,240.008 387.527,243.659 384.455 L 244.747 383.540 244.605 387.020 C 244.393 392.255,243.052 394.284,239.023 395.468 C 234.412 396.823,229.364 395.346,227.874 392.205 L 227.302 391.000 222.318 391.000 C 216.725 391.000,217.024 390.820,217.863 393.689 C 221.902 407.503,247.636 408.484,253.079 395.032 L 253.833 393.167 253.833 372.000 L 253.833 350.833 249.250 350.741 L 244.667 350.648 244.667 352.529 L 244.667 354.411 243.417 353.283 C 239.747 349.972,234.008 348.767,228.704 350.194 M273.070 350.175 C 266.327 351.639,262.449 355.610,262.079 361.427 C 261.615 368.732,265.095 371.636,277.331 374.157 C 285.133 375.764,287.042 376.769,286.495 378.986 C 285.190 384.274,273.221 384.660,268.380 379.570 L 267.260 378.393 264.148 380.780 C 260.275 383.751,260.131 384.082,262.005 385.745 C 269.855 392.712,287.928 392.624,293.846 385.590 C 297.771 380.926,297.770 373.501,293.844 370.054 C 291.459 367.960,288.204 366.805,281.013 365.502 C 273.676 364.173,272.000 363.331,272.000 360.972 C 272.000 355.349,284.490 356.228,288.786 362.153 C 289.702 363.416,295.809 357.065,294.956 355.736 C 291.988 351.112,281.282 348.392,273.070 350.175 M318.982 350.429 C 316.475 351.283,314.378 352.813,313.269 354.596 L 312.500 355.833 312.401 353.581 C 312.265 350.457,311.957 350.283,306.792 350.406 L 302.833 350.500 302.747 370.250 L 302.661 390.000 306.627 390.000 C 310.033 390.000,310.704 389.910,311.380 389.363 L 312.167 388.727 312.333 377.947 C 312.490 367.833,312.544 367.071,313.212 365.626 C 314.664 362.486,317.817 360.045,321.083 359.530 C 321.771 359.422,322.858 359.252,323.500 359.152 L 324.667 358.970 324.667 354.318 L 324.667 349.667 322.917 349.675 C 321.954 349.680,320.184 350.019,318.982 350.429 M130.078 365.417 C 130.206 382.119,130.231 382.328,132.440 385.533 C 136.593 391.560,148.578 392.611,154.317 387.451 L 156.000 385.938 156.000 387.969 L 156.000 390.000 160.314 390.000 C 166.287 390.000,165.667 392.307,165.667 370.092 C 165.667 348.013,166.311 350.333,160.182 350.333 L 156.031 350.333 155.932 362.583 C 155.820 376.451,155.725 376.999,152.980 379.478 C 150.132 382.052,144.122 382.389,141.610 380.116 C 139.858 378.530,139.845 378.427,139.667 364.467 C 139.466 348.812,140.047 350.333,134.274 350.333 L 129.963 350.333 130.078 365.417 M330.667 370.167 L 330.667 390.000 334.810 390.000 C 340.626 390.000,340.000 392.392,340.000 370.162 L 340.000 351.371 339.259 350.852 C 338.690 350.454,337.606 350.333,334.592 350.333 L 330.667 350.333 330.667 370.167 M238.688 358.667 C 242.782 359.804,245.708 365.843,244.685 371.042 C 242.041 384.482,224.140 380.307,226.345 366.764 C 227.389 360.345,232.548 356.961,238.688 358.667 M182.319 408.751 L 180.500 409.836 180.333 412.168 L 180.167 414.500 174.935 414.592 L 169.704 414.683 168.185 416.419 C 167.350 417.374,166.667 418.270,166.667 418.411 C 166.667 419.075,183.962 418.694,184.322 418.022 C 184.723 417.272,184.798 407.667,184.402 407.667 C 184.256 407.667,183.319 408.155,182.319 408.751 M155.039 424.458 C 154.313 425.231,154.258 425.238,152.609 424.755 C 150.178 424.042,144.683 424.301,142.637 425.225 C 137.606 427.496,136.694 430.508,136.677 444.917 L 136.667 453.667 139.131 453.667 C 142.177 453.667,142.000 454.079,142.000 446.973 L 142.000 441.333 144.603 441.333 C 147.514 441.333,147.849 441.167,149.130 439.090 C 150.423 436.994,150.431 437.000,145.956 437.000 L 141.912 437.000 142.070 434.537 C 142.368 429.902,143.861 428.500,148.500 428.500 C 154.546 428.500,154.797 429.068,154.945 443.097 L 155.057 453.695 157.445 453.597 L 159.833 453.500 159.833 442.653 L 159.833 431.807 158.807 429.736 L 157.780 427.666 159.046 425.916 C 160.694 423.638,160.707 423.667,158.058 423.667 C 156.094 423.667,155.681 423.775,155.039 424.458 M66.777 424.933 C 60.997 426.989,60.017 429.761,60.007 444.083 L 60.000 453.667 62.267 453.667 C 65.522 453.667,65.333 454.332,65.333 442.837 C 65.333 429.679,65.764 428.637,71.305 428.385 C 77.454 428.106,77.804 428.873,77.930 442.917 L 78.026 453.667 80.355 453.667 C 83.531 453.667,83.433 454.054,83.248 442.167 C 83.054 429.759,82.249 427.436,77.385 425.231 C 75.168 424.226,69.233 424.059,66.777 424.933 M96.957 424.834 C 88.026 427.706,88.510 435.886,97.911 440.946 C 101.822 443.051,102.963 443.996,103.509 445.586 C 104.893 449.612,99.277 451.297,93.547 448.576 L 91.000 447.366 91.000 449.992 L 91.000 452.619 92.841 453.307 C 101.345 456.489,108.556 453.520,108.943 446.678 C 109.170 442.661,107.316 440.352,101.310 437.169 C 96.187 434.455,94.768 432.241,96.534 429.720 C 97.848 427.844,102.852 427.741,107.100 429.502 C 107.647 429.729,107.692 429.562,107.600 427.626 L 107.500 425.500 106.167 425.046 C 104.149 424.358,98.818 424.236,96.957 424.834 M173.623 424.834 C 164.634 427.725,165.143 435.938,174.624 440.974 C 179.624 443.630,181.298 445.908,180.013 448.310 C 178.975 450.248,174.031 450.388,170.237 448.587 L 167.667 447.366 167.667 449.992 L 167.667 452.619 169.475 453.295 C 177.850 456.429,184.871 453.612,185.570 446.839 C 185.950 443.155,183.746 440.202,178.623 437.532 C 173.449 434.836,171.997 433.289,172.498 431.007 C 173.101 428.264,178.448 427.313,182.873 429.162 C 183.538 429.440,184.145 429.667,184.223 429.667 C 184.301 429.667,184.320 428.729,184.266 427.583 L 184.167 425.500 182.833 425.046 C 180.816 424.358,175.484 424.236,173.623 424.834 M124.000 436.052 C 124.000 442.624,123.883 446.350,123.684 446.150 C 123.510 445.976,122.462 443.433,121.355 440.500 C 119.052 434.396,118.996 434.333,115.941 434.333 L 113.676 434.333 114.333 436.083 C 114.694 437.046,116.402 441.358,118.128 445.667 L 121.267 453.500 124.750 453.594 C 129.438 453.721,129.023 455.145,128.920 439.295 L 128.833 425.833 126.417 425.735 L 124.000 425.637 124.000 436.052 M103.222 457.556 C 102.960 457.817,102.917 467.667,103.178 467.667 C 103.582 467.667,106.633 465.986,107.130 465.489 C 107.898 464.721,107.908 458.623,107.143 457.857 C 106.616 457.330,103.674 457.104,103.222 457.556 " stroke="none" fill="#fafafa" fill-rule="evenodd"></path><path id="path3" d="M252.326 541.092 C 235.594 546.797,236.696 571.156,253.868 575.194 C 256.629 575.843,261.405 575.680,263.650 574.858 C 265.016 574.359,265.253 574.358,266.650 574.853 C 279.985 579.575,293.594 566.282,289.364 552.667 C 286.498 543.445,275.585 537.852,266.744 541.074 C 265.425 541.555,265.173 541.547,263.297 540.963 C 260.345 540.044,255.222 540.105,252.326 541.092 M269.158 542.733 C 278.669 545.121,283.599 555.948,279.209 564.807 C 273.390 576.551,256.941 576.583,251.148 564.862 C 245.194 552.815,256.073 539.449,269.158 542.733 M263.667 550.638 C 260.013 551.398,257.865 554.124,257.845 558.026 C 257.805 565.750,268.253 568.251,271.750 561.355 C 274.612 555.712,269.820 549.359,263.667 550.638 " stroke="none" fill="#d92b23" fill-rule="evenodd"></path><path id="path4" d="M197.091 87.667 C 197.091 88.492,197.156 88.829,197.235 88.417 C 197.315 88.004,197.315 87.329,197.235 86.917 C 197.156 86.504,197.091 86.842,197.091 87.667 M203.084 88.500 C 203.088 89.233,203.156 89.494,203.236 89.079 C 203.315 88.665,203.312 88.065,203.229 87.746 C 203.146 87.427,203.080 87.767,203.084 88.500 M252.107 101.000 C 252.107 102.192,252.167 102.679,252.241 102.083 C 252.315 101.487,252.315 100.513,252.241 99.917 C 252.167 99.321,252.107 99.808,252.107 101.000 M148.100 102.000 C 148.100 103.008,148.162 103.421,148.239 102.917 C 148.315 102.412,148.315 101.587,148.239 101.083 C 148.162 100.579,148.100 100.992,148.100 102.000 M312.123 190.000 C 312.123 191.925,312.178 192.713,312.246 191.750 C 312.313 190.787,312.313 189.213,312.246 188.250 C 312.178 187.287,312.123 188.075,312.123 190.000 M277.333 209.438 C 277.333 209.495,277.821 209.983,278.417 210.521 L 279.500 211.500 278.521 210.417 C 277.608 209.407,277.333 209.180,277.333 209.438 M139.159 247.083 L 136.500 249.833 139.250 247.174 C 140.762 245.712,142.000 244.475,142.000 244.424 C 142.000 244.181,141.628 244.529,139.159 247.083 M251.833 285.000 C 252.922 286.100,253.887 287.000,253.979 287.000 C 254.071 287.000,253.255 286.100,252.167 285.000 C 251.078 283.900,250.113 283.000,250.021 283.000 C 249.929 283.000,250.745 283.900,251.833 285.000 M330.145 334.435 C 330.054 334.674,330.026 336.737,330.084 339.018 L 330.189 343.167 330.261 338.760 L 330.333 334.353 334.583 334.249 L 338.833 334.145 334.573 334.072 C 331.323 334.017,330.273 334.103,330.145 334.435 M60.081 362.250 L 60.167 390.167 64.417 390.182 L 68.668 390.198 64.501 390.089 L 60.333 389.980 60.333 362.304 C 60.333 341.468,60.428 334.686,60.718 334.865 C 60.957 335.013,61.013 334.957,60.865 334.718 C 60.073 333.436,60.001 335.944,60.081 362.250 M67.333 340.104 C 67.333 340.162,67.821 340.649,68.417 341.188 L 69.500 342.167 68.521 341.083 C 67.608 340.074,67.333 339.847,67.333 340.104 M69.816 354.167 C 69.816 360.400,69.861 362.903,69.916 359.729 C 69.971 356.554,69.971 351.454,69.916 348.395 C 69.861 345.336,69.816 347.933,69.816 354.167 M122.250 349.569 C 122.662 349.648,123.337 349.648,123.750 349.569 C 124.162 349.489,123.825 349.424,123.000 349.424 C 122.175 349.424,121.837 349.489,122.250 349.569 M194.750 349.576 C 195.438 349.648,196.563 349.648,197.250 349.576 C 197.938 349.504,197.375 349.445,196.000 349.445 C 194.625 349.445,194.063 349.504,194.750 349.576 M232.750 349.563 C 233.071 349.647,233.596 349.647,233.917 349.563 C 234.237 349.479,233.975 349.411,233.333 349.411 C 232.692 349.411,232.429 349.479,232.750 349.563 M277.750 349.578 C 278.621 349.647,280.046 349.647,280.917 349.578 C 281.787 349.510,281.075 349.453,279.333 349.453 C 277.592 349.453,276.879 349.510,277.750 349.578 M323.331 349.570 L 324.667 349.705 324.667 354.328 C 324.667 358.173,324.581 358.978,324.160 359.108 C 323.806 359.218,323.831 359.249,324.243 359.212 C 324.778 359.163,324.833 358.705,324.833 354.329 L 324.833 349.500 323.414 349.467 L 321.995 349.435 323.331 349.570 M157.333 350.221 C 160.970 350.465,164.592 350.480,164.450 350.250 C 164.364 350.113,162.390 350.027,160.064 350.060 C 157.737 350.093,156.508 350.165,157.333 350.221 M91.996 355.583 L 86.833 360.833 92.083 355.671 C 94.971 352.831,97.333 350.469,97.333 350.421 C 97.333 350.183,96.792 350.706,91.996 355.583 M244.470 350.792 C 244.373 351.045,244.350 351.982,244.420 352.876 L 244.547 354.500 244.607 352.593 L 244.667 350.686 249.083 350.582 L 253.500 350.479 249.073 350.406 C 245.570 350.349,244.609 350.429,244.470 350.792 M330.490 370.167 C 330.490 381.167,330.532 385.618,330.583 380.059 C 330.635 374.500,330.634 365.500,330.583 360.059 C 330.532 354.618,330.490 359.167,330.490 370.167 M111.712 353.417 C 111.687 354.654,111.780 355.667,111.919 355.667 C 112.058 355.667,112.127 354.954,112.072 354.083 C 111.899 351.344,111.759 351.085,111.712 353.417 M254.157 371.333 C 254.157 382.425,254.199 386.962,254.250 381.417 C 254.301 375.871,254.301 366.796,254.250 361.250 C 254.199 355.704,254.157 360.242,254.157 371.333 M185.649 353.250 L 184.500 354.500 185.750 353.351 C 186.913 352.282,187.153 352.000,186.899 352.000 C 186.843 352.000,186.281 352.563,185.649 353.250 M221.315 354.250 L 220.167 355.500 221.417 354.351 C 222.580 353.282,222.820 353.000,222.565 353.000 C 222.510 353.000,221.947 353.563,221.315 354.250 M292.000 360.167 C 291.190 360.992,290.603 361.667,290.695 361.667 C 290.786 361.667,291.524 360.992,292.333 360.167 C 293.143 359.342,293.730 358.667,293.639 358.667 C 293.547 358.667,292.810 359.342,292.000 360.167 M229.146 360.750 L 228.167 361.833 229.250 360.854 C 230.260 359.942,230.487 359.667,230.229 359.667 C 230.172 359.667,229.684 360.154,229.146 360.750 M209.153 375.000 C 209.153 382.975,209.196 386.238,209.250 382.250 C 209.303 378.262,209.303 371.738,209.250 367.750 C 209.196 363.762,209.153 367.025,209.153 375.000 M261.751 362.500 C 261.754 363.233,261.823 363.494,261.902 363.079 C 261.982 362.665,261.979 362.065,261.896 361.746 C 261.812 361.427,261.747 361.767,261.751 362.500 M216.077 366.333 C 216.077 366.975,216.146 367.238,216.230 366.917 C 216.314 366.596,216.314 366.071,216.230 365.750 C 216.146 365.429,216.077 365.692,216.077 366.333 M244.762 368.833 C 244.765 369.750,244.829 370.085,244.906 369.579 C 244.982 369.072,244.980 368.322,244.901 367.912 C 244.822 367.502,244.760 367.917,244.762 368.833 M312.411 369.333 C 312.411 369.975,312.479 370.238,312.563 369.917 C 312.647 369.596,312.647 369.071,312.563 368.750 C 312.479 368.429,312.411 368.692,312.411 369.333 M69.804 383.167 C 69.805 386.467,69.855 387.772,69.915 386.066 C 69.976 384.361,69.976 381.661,69.915 380.066 C 69.854 378.472,69.804 379.867,69.804 383.167 M234.755 379.239 C 235.261 379.316,236.011 379.314,236.421 379.235 C 236.831 379.156,236.417 379.093,235.500 379.095 C 234.583 379.098,234.248 379.163,234.755 379.239 M145.583 381.574 C 146.179 381.648,147.154 381.648,147.750 381.574 C 148.346 381.501,147.858 381.440,146.667 381.440 C 145.475 381.440,144.987 381.501,145.583 381.574 M221.333 383.500 C 221.955 384.142,222.539 384.667,222.631 384.667 C 222.722 384.667,222.289 384.142,221.667 383.500 C 221.045 382.858,220.461 382.333,220.369 382.333 C 220.278 382.333,220.711 382.858,221.333 383.500 M277.589 383.242 C 278.188 383.316,279.088 383.314,279.589 383.238 C 280.090 383.162,279.600 383.101,278.500 383.103 C 277.400 383.105,276.990 383.167,277.589 383.242 M243.957 384.231 C 243.676 384.578,243.655 384.702,243.903 384.553 C 244.202 384.373,244.335 385.024,244.418 387.072 L 244.531 389.833 244.599 386.750 C 244.672 383.444,244.653 383.373,243.957 384.231 M154.812 387.083 L 153.833 388.167 154.917 387.188 C 155.926 386.275,156.153 386.000,155.896 386.000 C 155.838 386.000,155.351 386.488,154.812 387.083 M232.750 388.230 C 233.071 388.314,233.596 388.314,233.917 388.230 C 234.237 388.146,233.975 388.077,233.333 388.077 C 232.692 388.077,232.429 388.146,232.750 388.230 M89.100 390.248 C 90.713 390.310,93.263 390.309,94.766 390.248 C 96.270 390.186,94.950 390.136,91.833 390.136 C 88.717 390.137,87.487 390.187,89.100 390.248 M177.083 390.247 C 178.321 390.311,180.346 390.311,181.583 390.247 C 182.821 390.183,181.808 390.131,179.333 390.131 C 176.858 390.131,175.846 390.183,177.083 390.247 M201.750 390.247 C 202.987 390.311,205.012 390.311,206.250 390.247 C 207.487 390.183,206.475 390.131,204.000 390.131 C 201.525 390.131,200.512 390.183,201.750 390.247 M143.259 390.911 C 144.043 390.982,145.243 390.981,145.925 390.909 C 146.608 390.837,145.967 390.780,144.500 390.781 C 143.033 390.782,142.475 390.841,143.259 390.911 M278.587 391.236 C 279.002 391.315,279.602 391.312,279.921 391.229 C 280.239 391.146,279.900 391.080,279.167 391.084 C 278.433 391.088,278.173 391.156,278.587 391.236 M234.583 395.908 C 235.179 395.982,236.154 395.982,236.750 395.908 C 237.346 395.834,236.858 395.773,235.667 395.773 C 234.475 395.773,233.987 395.834,234.583 395.908 M250.146 399.417 L 249.167 400.500 250.250 399.521 C 250.846 398.983,251.333 398.495,251.333 398.438 C 251.333 398.180,251.058 398.407,250.146 399.417 M180.060 412.408 L 180.000 414.316 174.917 414.417 L 169.833 414.519 174.927 414.593 C 180.657 414.676,180.453 414.771,180.247 412.124 L 180.120 410.500 180.060 412.408 M156.500 423.532 C 158.039 423.783,160.667 423.815,160.667 423.583 C 160.667 423.446,159.579 423.354,158.250 423.379 C 156.921 423.404,156.133 423.473,156.500 423.532 M70.417 424.243 C 71.104 424.315,72.229 424.315,72.917 424.243 C 73.604 424.171,73.042 424.112,71.667 424.112 C 70.292 424.112,69.729 424.171,70.417 424.243 M100.254 424.236 C 100.669 424.315,101.269 424.312,101.587 424.229 C 101.906 424.146,101.567 424.080,100.833 424.084 C 100.100 424.088,99.839 424.156,100.254 424.236 M147.083 424.243 C 147.771 424.315,148.896 424.315,149.583 424.243 C 150.271 424.171,149.708 424.112,148.333 424.112 C 146.958 424.112,146.396 424.171,147.083 424.243 M176.921 424.236 C 177.335 424.315,177.935 424.312,178.254 424.229 C 178.573 424.146,178.233 424.080,177.500 424.084 C 176.767 424.088,176.506 424.156,176.921 424.236 M123.593 435.699 C 123.542 441.400,123.612 446.134,123.750 446.218 C 123.888 446.303,124.000 441.721,124.000 436.035 L 124.000 425.697 126.250 425.581 L 128.500 425.464 126.093 425.399 L 123.685 425.333 123.593 435.699 M129.152 439.500 C 129.152 446.833,129.196 449.786,129.250 446.061 C 129.303 442.336,129.303 436.336,129.250 432.728 C 129.196 429.119,129.152 432.167,129.152 439.500 M83.091 434.333 C 83.091 435.158,83.156 435.496,83.235 435.083 C 83.315 434.671,83.315 433.996,83.235 433.583 C 83.156 433.171,83.091 433.508,83.091 434.333 M142.077 434.000 C 142.077 434.642,142.146 434.904,142.230 434.583 C 142.314 434.262,142.314 433.738,142.230 433.417 C 142.146 433.096,142.077 433.358,142.077 434.000 M136.744 434.333 C 136.744 434.975,136.813 435.238,136.896 434.917 C 136.980 434.596,136.980 434.071,136.896 433.750 C 136.813 433.429,136.744 433.692,136.744 434.333 M160.147 443.500 C 160.147 448.817,160.193 450.945,160.249 448.230 C 160.305 445.514,160.305 441.164,160.249 438.563 C 160.193 435.962,160.147 438.183,160.147 443.500 M154.814 444.000 C 154.814 449.408,154.860 451.621,154.916 448.917 C 154.972 446.212,154.972 441.787,154.916 439.083 C 154.860 436.379,154.814 438.592,154.814 444.000 M183.000 440.500 C 183.622 441.142,184.206 441.667,184.297 441.667 C 184.389 441.667,183.955 441.142,183.333 440.500 C 182.711 439.858,182.128 439.333,182.036 439.333 C 181.944 439.333,182.378 439.858,183.000 440.500 M109.091 446.000 C 109.091 446.825,109.156 447.162,109.235 446.750 C 109.315 446.337,109.315 445.662,109.235 445.250 C 109.156 444.837,109.091 445.175,109.091 446.000 M90.781 449.833 C 90.782 451.300,90.841 451.859,90.911 451.075 C 90.982 450.291,90.981 449.091,90.909 448.408 C 90.837 447.725,90.780 448.367,90.781 449.833 M167.450 450.000 C 167.450 451.558,167.507 452.196,167.577 451.417 C 167.648 450.637,167.648 449.363,167.577 448.583 C 167.507 447.804,167.450 448.442,167.450 450.000 M98.254 449.902 C 98.669 449.982,99.269 449.979,99.587 449.896 C 99.906 449.812,99.567 449.747,98.833 449.751 C 98.100 449.754,97.839 449.823,98.254 449.902 M174.583 449.902 C 174.996 449.981,175.671 449.981,176.083 449.902 C 176.496 449.822,176.158 449.757,175.333 449.757 C 174.508 449.757,174.171 449.822,174.583 449.902 M182.982 452.250 L 181.833 453.500 183.083 452.351 C 184.247 451.282,184.487 451.000,184.232 451.000 C 184.176 451.000,183.614 451.563,182.982 452.250 " stroke="none" fill="#9f9486" fill-rule="evenodd"></path></g></svg>