<svg id="svg" version="1.1" xmlns="http://www.w3.org/2000/svg" xmlns:xlink="http://www.w3.org/1999/xlink" width="400" height="266.8" viewBox="0, 0, 400,266.8"><g id="svgg"><path id="path0" d="M0.000 133.422 L 0.000 266.845 99.933 266.845 L 199.867 266.845 199.867 133.422 L 199.867 0.000 99.933 0.000 L 0.000 0.000 0.000 133.422 M57.210 10.028 C 57.299 10.261,57.372 14.799,57.372 20.113 L 57.372 29.776 58.906 30.290 C 61.090 31.022,62.995 32.990,63.656 35.198 L 64.144 36.825 74.103 36.825 L 84.062 36.825 83.992 47.031 L 83.923 57.238 74.006 57.308 L 64.090 57.378 63.616 58.887 C 62.958 60.977,60.977 62.958,58.887 63.616 L 57.378 64.090 57.308 74.006 L 57.238 83.923 47.031 83.992 L 36.825 84.062 36.825 74.103 L 36.825 64.144 35.157 63.644 C 32.907 62.970,30.955 61.071,30.266 58.885 L 29.789 57.372 20.018 57.372 C 12.774 57.372,10.164 57.289,9.927 57.051 C 9.689 56.814,9.606 54.164,9.606 46.781 L 9.606 36.831 19.658 36.761 L 29.709 36.691 30.240 35.097 C 30.993 32.838,32.889 30.977,35.154 30.272 L 36.820 29.753 36.822 19.680 L 36.825 9.606 46.936 9.606 C 55.910 9.606,57.066 9.654,57.210 10.028 M38.959 22.015 C 38.959 28.113,38.860 32.051,38.703 32.148 C 38.561 32.236,38.454 32.963,38.463 33.764 L 38.481 35.221 39.187 34.745 C 39.575 34.484,40.254 34.111,40.694 33.915 C 41.134 33.720,41.703 33.454,41.958 33.324 C 42.213 33.195,42.603 33.089,42.825 33.089 C 43.047 33.089,43.229 32.999,43.229 32.889 C 43.229 32.779,43.739 32.676,44.363 32.661 C 44.987 32.645,45.737 32.613,46.031 32.588 C 48.516 32.379,51.884 33.163,54.300 34.513 L 55.472 35.168 55.450 33.795 C 55.438 33.040,55.300 32.260,55.145 32.062 C 54.958 31.825,54.858 28.389,54.849 21.922 L 54.837 12.141 46.898 12.091 L 38.959 12.041 38.959 22.015 M57.671 33.397 C 56.960 35.109,57.006 35.151,58.679 34.303 C 60.277 33.493,60.398 33.264,59.101 33.508 C 58.172 33.682,58.165 33.676,58.434 32.969 C 59.053 31.339,58.366 31.726,57.671 33.397 M34.868 32.466 C 34.764 32.570,35.284 33.233,36.025 33.939 C 37.299 35.155,37.625 35.391,37.625 35.096 C 37.625 34.771,35.034 32.299,34.868 32.466 M45.897 33.089 C 45.677 33.231,45.107 33.349,44.630 33.351 C 43.545 33.357,43.548 33.405,44.743 34.862 C 45.857 36.222,46.086 36.100,46.256 34.056 C 46.313 33.377,46.345 32.824,46.328 32.826 C 46.311 32.828,46.117 32.946,45.897 33.089 M47.569 33.806 C 47.285 34.623,47.530 35.820,47.868 35.272 C 48.173 34.779,48.566 34.901,48.566 35.490 C 48.566 36.686,49.766 35.591,49.955 34.223 C 50.065 33.426,50.015 33.356,49.342 33.356 C 48.939 33.356,48.434 33.288,48.219 33.206 C 47.960 33.107,47.741 33.309,47.569 33.806 M41.561 34.187 C 40.505 34.722,40.297 35.139,40.961 35.394 C 41.181 35.478,41.365 35.685,41.369 35.852 C 41.421 37.709,42.507 36.984,42.811 34.890 C 43.015 33.485,42.983 33.467,41.561 34.187 M33.356 34.120 C 33.356 34.306,33.476 34.683,33.623 34.958 C 33.957 35.582,33.501 35.943,32.953 35.488 C 32.744 35.315,32.419 35.226,32.230 35.290 C 31.950 35.386,34.364 36.825,34.805 36.825 C 34.983 36.825,33.922 34.357,33.605 34.036 C 33.448 33.877,33.356 33.908,33.356 34.120 M51.501 34.302 C 51.501 34.532,51.395 34.656,51.265 34.575 C 51.135 34.495,50.972 34.722,50.904 35.080 C 50.807 35.587,50.903 35.748,51.340 35.811 C 51.717 35.864,51.874 36.051,51.817 36.381 C 51.717 36.969,52.438 36.819,53.869 35.952 L 54.769 35.406 54.021 35.014 C 52.166 34.043,51.501 33.854,51.501 34.302 M59.773 36.157 C 59.005 36.940,58.743 37.358,59.019 37.358 C 59.390 37.358,61.374 35.446,61.374 35.089 C 61.374 34.716,60.835 35.076,59.773 36.157 M39.768 36.358 C 39.763 36.836,39.899 37.091,40.160 37.091 C 40.665 37.091,40.668 36.802,40.169 36.142 C 39.793 35.646,39.776 35.655,39.768 36.358 M37.091 37.390 C 35.775 38.693,34.423 40.549,34.423 41.054 C 34.423 41.927,37.276 41.872,37.617 40.992 C 37.738 40.681,38.316 39.954,38.903 39.375 L 39.968 38.323 39.348 37.835 C 39.006 37.566,38.689 37.030,38.643 36.642 C 38.561 35.953,38.529 35.968,37.091 37.390 M54.867 37.529 C 54.656 39.324,54.693 39.383,55.712 38.856 C 56.861 38.262,57.017 37.373,56.103 36.626 C 55.097 35.803,55.067 35.825,54.867 37.529 M44.430 36.751 C 44.136 36.823,43.776 36.973,43.629 37.083 C 43.482 37.194,43.003 37.371,42.564 37.476 C 42.126 37.581,41.705 37.754,41.630 37.859 C 41.556 37.965,41.097 38.329,40.612 38.668 C 40.126 39.007,39.795 39.351,39.876 39.432 C 39.957 39.512,40.260 39.364,40.550 39.102 C 40.878 38.806,41.297 38.683,41.661 38.778 C 41.983 38.863,42.662 38.758,43.170 38.545 C 43.679 38.333,44.321 38.159,44.598 38.159 C 44.875 38.159,45.308 37.919,45.559 37.625 C 46.277 36.787,47.628 36.911,48.193 37.867 C 48.476 38.346,48.798 38.586,49.036 38.495 C 49.247 38.414,49.509 38.491,49.617 38.666 C 49.787 38.942,50.198 39.048,51.670 39.196 C 52.605 39.290,51.644 41.628,50.670 41.628 C 50.577 41.628,50.696 42.044,50.934 42.553 C 51.401 43.549,51.879 43.717,52.547 43.119 C 53.306 42.441,56.571 43.854,56.571 44.861 C 56.571 45.477,55.612 45.530,54.852 44.955 C 54.567 44.739,54.117 44.563,53.852 44.563 C 53.405 44.563,53.337 44.654,53.262 45.344 C 53.247 45.480,53.742 45.958,54.360 46.406 C 55.475 47.214,56.592 48.833,56.035 48.833 C 55.839 48.833,55.836 48.990,56.023 49.340 C 56.226 49.719,56.200 49.883,55.920 49.990 C 55.692 50.078,55.601 50.350,55.689 50.684 C 55.768 50.987,55.712 51.234,55.563 51.234 C 55.200 51.234,54.951 51.941,55.140 52.435 C 55.487 53.338,57.105 50.862,57.105 49.428 C 57.105 49.149,57.192 48.834,57.299 48.728 C 57.581 48.445,57.618 45.382,57.341 45.211 C 57.211 45.131,57.105 44.847,57.105 44.580 C 57.105 43.863,55.823 41.094,55.491 41.094 C 55.334 41.094,55.273 40.985,55.356 40.851 C 55.703 40.289,52.378 37.755,50.501 37.150 C 48.748 36.586,45.872 36.396,44.430 36.751 M32.422 38.710 C 32.128 38.826,27.431 38.930,21.984 38.941 L 12.080 38.959 12.111 46.898 L 12.141 54.837 22.107 54.863 C 28.373 54.880,32.138 54.988,32.248 55.154 C 32.343 55.300,33.065 55.431,33.851 55.447 C 35.167 55.472,35.250 55.439,34.902 55.022 C 34.693 54.773,34.308 54.029,34.045 53.369 C 33.783 52.708,33.456 51.954,33.321 51.693 C 31.977 49.107,32.574 43.202,34.534 39.692 L 35.230 38.445 34.093 38.471 C 33.467 38.486,32.715 38.593,32.422 38.710 M59.651 40.227 C 61.889 44.871,61.975 48.581,59.953 53.235 C 59.634 53.969,59.283 54.610,59.173 54.659 C 59.063 54.708,58.973 54.899,58.973 55.083 C 58.973 55.490,61.422 55.591,61.667 55.195 C 61.768 55.031,65.599 54.914,71.809 54.884 L 81.788 54.837 81.859 46.898 L 81.929 38.959 71.801 38.959 C 65.337 38.959,61.613 38.863,61.508 38.692 C 61.417 38.546,60.767 38.426,60.063 38.426 L 58.783 38.426 59.651 40.227 M55.953 39.960 C 55.889 40.070,55.934 40.400,56.052 40.694 C 56.239 41.160,56.269 41.134,56.285 40.494 C 56.304 39.770,56.179 39.569,55.953 39.960 M57.727 40.731 C 56.968 41.223,56.678 41.577,56.764 41.907 C 57.009 42.843,58.706 42.712,58.706 41.757 C 58.706 41.571,58.877 41.352,59.085 41.272 C 59.458 41.129,59.378 40.027,58.995 40.027 C 58.895 40.027,58.324 40.344,57.727 40.731 M37.074 43.408 C 36.925 43.800,36.864 44.281,36.939 44.476 C 37.013 44.670,36.942 44.830,36.780 44.830 C 36.370 44.830,36.636 50.237,37.053 50.376 C 37.221 50.432,37.358 50.637,37.358 50.831 C 37.358 51.576,38.598 53.455,39.794 54.523 C 41.619 56.151,41.832 56.304,42.268 56.304 C 42.486 56.304,42.732 56.415,42.815 56.549 C 42.991 56.833,45.332 57.413,46.698 57.510 C 48.375 57.630,53.102 56.019,53.102 55.328 C 53.102 55.255,51.871 55.215,50.367 55.240 C 42.197 55.372,41.123 55.295,40.412 54.528 C 39.592 53.643,39.728 53.506,41.451 53.486 C 43.137 53.467,44.830 53.126,44.830 52.806 C 44.830 52.675,44.603 52.568,44.325 52.568 C 43.705 52.568,43.505 52.106,43.695 51.112 C 43.832 50.398,43.797 50.365,43.067 50.518 C 42.642 50.607,42.440 50.616,42.617 50.538 C 42.820 50.449,42.609 50.108,42.048 49.615 C 41.008 48.702,40.554 48.615,40.750 49.368 C 40.827 49.662,40.732 50.094,40.538 50.328 C 40.344 50.561,40.150 50.985,40.106 51.269 C 40.018 51.848,39.257 53.103,38.995 53.100 C 38.217 53.093,37.706 50.814,38.329 50.126 C 38.654 49.767,38.691 49.553,38.474 49.291 C 38.166 48.921,38.320 47.865,38.764 47.298 C 39.076 46.900,40.194 46.855,40.427 47.231 C 40.728 47.719,41.538 47.507,41.831 46.864 C 42.125 46.220,41.852 45.630,41.262 45.630 C 41.119 45.630,40.766 45.420,40.476 45.163 C 40.089 44.821,39.918 44.786,39.832 45.030 C 39.476 46.048,37.425 44.622,37.529 43.429 C 37.610 42.499,37.423 42.491,37.074 43.408 M42.757 43.442 C 42.040 44.064,42.220 44.916,43.159 45.344 C 44.186 45.812,44.428 45.349,43.834 44.054 C 43.331 42.957,43.322 42.952,42.757 43.442 M33.543 43.664 C 32.858 44.349,33.384 44.964,34.690 45.004 C 36.096 45.046,36.209 44.962,35.678 44.265 C 35.314 43.786,33.836 43.371,33.543 43.664 M58.105 43.867 C 57.005 44.702,57.753 45.372,59.549 45.160 C 60.973 44.991,61.136 44.136,59.814 43.769 C 58.620 43.438,58.675 43.435,58.105 43.867 M33.889 46.298 C 33.606 46.639,33.684 46.698,34.423 46.698 C 35.162 46.698,35.240 46.639,34.957 46.298 C 34.774 46.077,34.534 45.897,34.423 45.897 C 34.312 45.897,34.072 46.077,33.889 46.298 M35.661 47.365 C 35.480 47.836,33.619 47.921,33.176 47.479 C 32.978 47.281,32.982 47.488,33.188 48.146 C 33.425 48.904,33.623 49.100,34.155 49.103 C 34.522 49.105,35.074 49.174,35.380 49.256 C 35.880 49.390,35.941 49.283,35.982 48.185 C 36.030 46.927,35.928 46.668,35.661 47.365 M60.440 47.232 C 60.349 47.380,60.009 47.434,59.686 47.353 C 59.263 47.247,58.887 47.425,58.347 47.989 L 57.596 48.773 58.177 49.180 C 59.209 49.902,60.677 49.187,60.721 47.942 C 60.756 46.913,60.710 46.795,60.440 47.232 M51.101 47.466 C 50.660 47.560,50.324 47.756,50.353 47.901 C 50.441 48.342,51.246 48.370,51.721 47.950 C 51.967 47.732,52.408 47.495,52.702 47.423 C 53.543 47.219,52.075 47.257,51.101 47.466 M56.945 51.677 C 56.666 52.311,56.348 52.831,56.237 52.833 C 56.127 52.834,56.037 53.003,56.037 53.209 C 56.037 54.273,51.246 57.629,49.717 57.636 C 48.873 57.640,47.765 58.109,47.765 58.463 C 47.765 58.631,47.987 58.710,48.257 58.639 C 49.026 58.438,49.579 59.491,48.947 59.954 C 48.681 60.148,48.307 60.307,48.114 60.307 C 47.922 60.307,47.765 60.427,47.765 60.574 C 47.765 60.959,48.608 60.903,50.504 60.392 C 52.488 59.857,52.565 59.809,51.966 59.473 C 51.360 59.134,51.340 57.683,51.938 57.454 C 52.960 57.062,53.822 58.515,52.947 59.155 C 52.683 59.348,52.603 59.506,52.770 59.506 C 53.858 59.506,57.870 55.709,59.036 53.577 L 59.766 52.241 59.241 51.503 C 58.353 50.256,57.542 50.318,56.945 51.677 M34.823 50.886 C 34.530 50.959,34.195 51.108,34.079 51.218 C 33.832 51.449,35.182 54.703,35.525 54.703 C 35.653 54.703,35.757 54.818,35.757 54.958 C 35.757 55.854,41.519 60.304,42.163 59.906 C 42.289 59.828,42.467 59.887,42.559 60.036 C 42.651 60.185,43.013 60.307,43.362 60.307 C 43.712 60.307,44.074 60.430,44.167 60.581 C 44.412 60.976,46.164 60.805,46.164 60.386 C 46.164 60.196,45.871 60.040,45.513 60.040 C 45.154 60.040,44.794 59.931,44.711 59.797 C 44.424 59.332,44.891 58.706,45.526 58.706 C 47.048 58.706,45.911 57.995,43.629 57.520 C 42.661 57.318,41.094 56.529,41.094 56.244 C 41.094 56.130,40.934 56.037,40.738 56.037 C 39.925 56.037,37.097 52.546,36.702 51.056 C 36.661 50.901,35.266 50.775,34.823 50.886 M33.749 57.498 C 33.035 58.154,32.542 58.782,32.654 58.893 C 32.765 59.005,33.397 58.516,34.058 57.807 C 35.606 56.145,35.423 55.961,33.749 57.498 M58.973 57.095 C 58.973 57.566,60.140 59.773,60.389 59.773 C 60.522 59.773,60.550 59.563,60.450 59.306 C 60.351 59.049,60.207 58.531,60.131 58.155 C 59.998 57.494,58.973 56.556,58.973 57.095 M42.418 57.759 C 42.805 58.225,42.566 59.129,41.999 59.347 C 41.426 59.567,40.560 59.047,40.560 58.483 C 40.560 57.479,41.788 57.001,42.418 57.759 M60.307 57.809 C 60.307 58.091,61.211 58.689,61.641 58.691 C 61.905 58.693,61.813 58.516,61.374 58.172 C 60.691 57.637,60.307 57.507,60.307 57.809 M35.557 59.459 C 34.371 60.044,33.483 60.906,34.490 60.494 C 34.673 60.419,35.033 60.274,35.290 60.170 C 35.801 59.965,35.977 60.673,35.490 60.974 C 35.344 61.065,35.223 61.336,35.223 61.577 C 35.223 62.165,35.548 61.796,36.421 60.217 C 37.301 58.624,37.282 58.608,35.557 59.459 M38.485 60.092 C 38.469 60.790,38.569 61.432,38.708 61.517 C 38.858 61.610,38.959 65.746,38.959 71.801 L 38.959 81.929 46.898 81.859 L 54.837 81.788 54.887 71.961 C 54.919 65.826,55.039 62.013,55.207 61.811 C 55.355 61.632,55.462 60.886,55.446 60.153 L 55.415 58.820 53.658 59.682 C 49.941 61.505,41.628 61.907,41.628 60.263 C 41.628 60.140,41.468 60.040,41.273 60.040 C 41.077 60.040,40.377 59.766,39.716 59.432 L 38.514 58.823 38.485 60.092 M56.483 58.899 C 56.285 59.219,58.628 61.541,58.887 61.282 C 58.994 61.175,58.531 60.539,57.860 59.868 C 57.188 59.196,56.569 58.761,56.483 58.899 " stroke="none" fill="#fafafa" fill-rule="evenodd"></path><path id="path1" d="M200.400 133.422 L 200.400 266.845 300.200 266.845 L 400.000 266.845 400.000 133.422 L 400.000 0.000 300.200 0.000 L 200.400 0.000 200.400 133.422 M37.091 19.957 C 37.091 30.062,37.057 30.403,36.037 30.432 C 34.273 30.484,34.215 31.111,35.974 31.111 L 37.886 31.111 37.955 21.226 L 38.025 11.341 46.898 11.271 L 55.771 11.200 55.824 19.943 C 55.853 24.752,55.883 29.226,55.890 29.887 L 55.904 31.087 57.896 31.128 C 59.712 31.164,59.830 31.135,59.230 30.803 C 58.868 30.603,58.317 30.435,58.005 30.430 C 56.883 30.411,56.848 30.110,56.775 19.990 L 56.704 10.274 46.898 10.204 L 37.091 10.134 37.091 19.957 M62.882 35.255 C 62.981 36.036,62.929 36.555,62.740 36.672 C 62.576 36.773,62.442 37.089,62.442 37.374 C 62.442 37.877,62.721 37.892,72.416 37.892 C 80.073 37.892,82.452 37.969,82.660 38.225 C 82.979 38.618,83.072 54.937,82.758 55.444 C 82.605 55.693,80.166 55.789,72.756 55.838 C 62.085 55.910,62.230 55.887,62.801 57.399 C 63.017 57.972,63.009 58.393,62.772 59.022 C 62.595 59.489,62.499 59.919,62.557 59.977 C 62.718 60.139,63.467 58.394,63.560 57.638 L 63.642 56.971 73.716 56.901 L 83.789 56.831 83.789 46.961 L 83.789 37.091 74.071 37.091 C 63.907 37.091,63.509 37.061,63.509 36.293 C 63.509 36.032,63.333 35.414,63.117 34.921 L 62.725 34.023 62.882 35.255 M30.543 35.424 C 30.310 36.531,30.022 36.943,29.461 36.973 C 29.181 36.988,24.720 37.021,19.546 37.046 L 10.140 37.091 10.140 46.965 L 10.140 56.838 19.960 56.838 C 30.435 56.838,30.412 56.835,30.429 58.159 C 30.433 58.533,30.586 59.034,30.767 59.273 C 31.039 59.630,31.097 59.371,31.093 57.805 L 31.087 55.904 21.348 55.841 C 15.991 55.807,11.516 55.777,11.404 55.775 C 11.292 55.772,11.232 51.778,11.271 46.898 L 11.341 38.025 21.260 37.955 L 31.180 37.885 31.134 36.288 C 31.085 34.604,30.802 34.191,30.543 35.424 M58.980 62.739 C 58.617 62.884,57.875 62.927,57.332 62.835 C 55.779 62.573,55.771 62.629,55.771 73.203 C 55.771 81.585,55.722 82.683,55.348 82.827 C 54.494 83.155,38.551 83.007,38.212 82.668 C 37.975 82.431,37.892 79.802,37.892 72.493 L 37.892 62.639 36.891 62.804 C 36.341 62.895,35.650 62.973,35.357 62.976 C 34.598 62.986,35.412 63.499,36.196 63.505 C 37.074 63.511,37.091 63.711,37.091 74.071 L 37.091 83.789 46.965 83.789 L 56.838 83.789 56.842 73.983 C 56.846 63.340,56.805 63.666,58.192 63.411 C 58.717 63.314,59.378 63.061,59.660 62.847 C 60.248 62.402,59.944 62.354,58.980 62.739 " stroke="none" fill="#d3142c" fill-rule="evenodd"></path><path id="path2" d="M199.999 133.422 C 199.999 206.878,200.029 236.928,200.067 200.200 C 200.104 163.472,200.104 103.372,200.067 66.644 C 200.029 29.917,199.999 59.967,199.999 133.422 M46.831 9.868 L 56.971 10.007 57.105 20.010 C 57.229 29.330,57.270 30.016,57.710 30.056 C 58.041 30.086,58.061 30.061,57.777 29.973 C 57.424 29.864,57.372 28.592,57.372 20.149 C 57.372 14.815,57.299 10.261,57.210 10.028 C 57.065 9.652,55.941 9.613,46.869 9.668 L 36.691 9.730 46.831 9.868 M38.607 11.648 C 38.507 11.748,38.426 16.186,38.426 21.510 C 38.426 32.330,38.561 31.662,36.391 31.528 C 33.267 31.334,30.659 34.165,31.470 36.869 C 31.918 38.365,32.474 38.278,21.526 38.426 L 11.608 38.559 11.608 46.965 L 11.608 55.370 21.407 55.440 C 32.424 55.519,31.957 55.424,31.492 57.484 C 30.887 60.169,32.882 62.173,36.424 62.436 L 38.292 62.575 38.426 72.448 L 38.559 82.322 46.666 82.392 C 52.425 82.442,54.878 82.375,55.138 82.159 C 55.435 81.913,55.504 80.044,55.504 72.149 C 55.504 64.579,55.577 62.434,55.837 62.407 C 56.021 62.389,57.007 62.333,58.029 62.284 C 60.956 62.143,62.292 60.839,62.332 58.085 C 62.345 57.179,62.375 56.227,62.399 55.971 C 62.439 55.535,63.106 55.504,72.310 55.504 L 82.178 55.504 82.325 54.903 C 82.405 54.573,82.437 50.761,82.396 46.431 L 82.322 38.559 72.592 38.489 C 61.761 38.411,62.327 38.529,62.400 36.364 C 62.500 33.370,60.567 31.332,57.853 31.569 C 55.356 31.787,55.516 32.463,55.438 21.348 L 55.370 11.608 47.080 11.537 C 42.520 11.499,38.707 11.549,38.607 11.648 M54.849 21.922 C 54.858 28.389,54.958 31.825,55.145 32.062 C 55.300 32.260,55.438 33.040,55.450 33.795 L 55.472 35.168 54.300 34.513 C 51.884 33.163,48.516 32.379,46.031 32.588 C 45.737 32.613,44.987 32.645,44.363 32.661 C 43.739 32.676,43.229 32.779,43.229 32.889 C 43.229 32.999,43.047 33.089,42.825 33.089 C 42.603 33.089,42.213 33.195,41.958 33.324 C 41.703 33.454,41.134 33.720,40.694 33.915 C 40.254 34.111,39.575 34.484,39.187 34.745 L 38.481 35.221 38.463 33.764 C 38.454 32.963,38.561 32.236,38.703 32.148 C 38.860 32.051,38.959 28.113,38.959 22.015 L 38.959 12.041 46.898 12.091 L 54.837 12.141 54.849 21.922 M35.357 30.153 C 35.021 30.298,34.971 30.383,35.223 30.383 C 35.444 30.383,35.864 30.280,36.157 30.153 C 36.494 30.009,36.543 29.924,36.291 29.924 C 36.071 29.924,35.650 30.027,35.357 30.153 M32.499 31.821 C 31.852 32.445,31.690 32.643,32.139 32.262 C 32.588 31.880,33.252 31.370,33.615 31.128 C 33.978 30.885,34.140 30.687,33.974 30.687 C 33.809 30.687,33.145 31.197,32.499 31.821 M60.148 31.036 C 60.427 31.211,61.088 31.697,61.616 32.116 C 62.319 32.675,62.264 32.586,61.407 31.783 C 60.764 31.180,60.104 30.694,59.939 30.703 C 59.774 30.711,59.868 30.862,60.148 31.036 M58.706 32.137 C 58.706 32.201,58.583 32.575,58.434 32.969 C 58.165 33.676,58.172 33.682,59.101 33.508 C 60.398 33.264,60.277 33.493,58.679 34.303 C 57.006 35.151,56.960 35.109,57.671 33.397 C 58.136 32.280,58.706 31.586,58.706 32.137 M37.625 35.096 C 37.625 35.391,37.299 35.155,36.025 33.939 C 35.284 33.233,34.764 32.570,34.868 32.466 C 35.034 32.299,37.625 34.771,37.625 35.096 M46.256 34.056 C 46.086 36.100,45.857 36.222,44.743 34.862 C 43.548 33.405,43.545 33.357,44.630 33.351 C 45.107 33.349,45.677 33.231,45.897 33.089 C 46.117 32.946,46.311 32.828,46.328 32.826 C 46.345 32.824,46.313 33.377,46.256 34.056 M49.342 33.356 C 50.011 33.356,50.064 33.428,49.951 34.194 C 49.866 34.775,49.921 34.975,50.131 34.845 C 50.297 34.742,50.434 34.467,50.434 34.232 C 50.434 33.855,50.492 33.859,50.944 34.268 C 51.397 34.678,51.464 34.683,51.544 34.309 C 51.621 33.953,51.875 34.002,53.219 34.637 L 54.804 35.384 53.886 35.941 C 52.439 36.818,51.717 36.972,51.817 36.381 C 51.874 36.051,51.717 35.864,51.340 35.811 C 50.895 35.747,50.802 35.582,50.890 35.010 C 50.986 34.377,50.962 34.349,50.691 34.778 C 50.522 35.047,50.443 35.497,50.517 35.779 C 50.602 36.104,50.514 36.291,50.275 36.291 C 50.069 36.291,49.900 36.032,49.900 35.716 C 49.900 35.176,49.870 35.168,49.412 35.582 C 48.771 36.162,48.566 36.140,48.566 35.490 C 48.566 34.901,48.173 34.779,47.868 35.272 C 47.734 35.490,47.610 35.427,47.471 35.072 C 47.285 34.598,47.267 34.605,47.250 35.157 C 47.214 36.309,46.698 35.747,46.698 34.556 C 46.698 33.364,47.212 32.807,47.253 33.956 C 47.271 34.492,47.303 34.476,47.548 33.805 C 47.730 33.305,47.954 33.104,48.215 33.204 C 48.432 33.288,48.939 33.356,49.342 33.356 M42.811 34.890 C 42.504 37.002,41.417 37.706,41.369 35.824 C 41.361 35.488,41.139 35.418,40.160 35.442 C 39.720 35.453,39.708 35.432,40.093 35.320 C 40.350 35.245,40.560 35.074,40.560 34.939 C 40.560 34.714,42.274 33.719,42.778 33.651 C 42.897 33.636,42.912 34.193,42.811 34.890 M34.396 35.557 C 34.694 36.254,34.878 36.825,34.805 36.825 C 34.364 36.825,31.950 35.386,32.230 35.290 C 32.419 35.226,32.744 35.315,32.953 35.488 C 33.501 35.943,33.957 35.582,33.623 34.958 C 33.476 34.683,33.356 34.306,33.356 34.120 C 33.356 33.559,33.813 34.191,34.396 35.557 M44.498 35.030 C 44.911 35.618,44.999 35.923,44.779 35.997 C 44.601 36.056,44.410 35.966,44.354 35.797 C 44.298 35.628,43.992 35.488,43.674 35.486 C 43.247 35.483,43.191 35.422,43.457 35.253 C 43.710 35.093,43.730 34.968,43.524 34.841 C 43.116 34.589,43.150 33.875,43.562 34.038 C 43.746 34.111,44.167 34.557,44.498 35.030 M61.374 35.089 C 61.374 35.446,59.390 37.358,59.019 37.358 C 58.743 37.358,59.005 36.940,59.773 36.157 C 60.835 35.076,61.374 34.716,61.374 35.089 M40.560 36.876 C 40.560 36.994,40.380 37.091,40.160 37.091 C 39.899 37.091,39.763 36.836,39.768 36.358 C 39.776 35.655,39.793 35.646,40.169 36.142 C 40.384 36.427,40.560 36.757,40.560 36.876 M41.451 37.091 C 41.232 37.309,40.564 36.235,40.740 35.949 C 40.830 35.804,41.056 35.971,41.244 36.321 C 41.431 36.671,41.524 37.017,41.451 37.091 M39.348 37.835 L 39.968 38.323 38.903 39.375 C 38.316 39.954,37.738 40.681,37.617 40.992 C 37.276 41.872,34.423 41.927,34.423 41.054 C 34.423 39.834,38.514 35.558,38.643 36.642 C 38.689 37.030,39.006 37.566,39.348 37.835 M39.840 37.292 C 40.141 37.622,40.254 37.892,40.092 37.892 C 39.592 37.892,38.958 37.083,38.980 36.472 C 38.994 36.082,39.050 36.023,39.148 36.291 C 39.228 36.511,39.540 36.961,39.840 37.292 M54.703 36.391 C 54.703 37.184,54.357 38.426,54.136 38.426 C 54.008 38.426,53.903 38.111,53.903 37.727 C 53.903 37.161,53.802 37.055,53.369 37.169 C 53.075 37.245,52.835 37.202,52.835 37.071 C 52.835 36.941,53.135 36.759,53.502 36.667 C 53.869 36.575,54.169 36.393,54.169 36.262 C 54.169 36.131,54.290 36.024,54.436 36.024 C 54.583 36.024,54.703 36.189,54.703 36.391 M56.103 36.626 C 57.017 37.373,56.861 38.262,55.712 38.856 C 54.693 39.383,54.656 39.324,54.867 37.529 C 55.067 35.825,55.097 35.803,56.103 36.626 M50.501 37.150 C 52.378 37.755,55.703 40.289,55.356 40.851 C 55.273 40.985,55.334 41.094,55.491 41.094 C 55.823 41.094,57.105 43.863,57.105 44.580 C 57.105 44.847,57.211 45.131,57.341 45.211 C 57.618 45.382,57.581 48.445,57.299 48.728 C 57.192 48.834,57.105 49.149,57.105 49.428 C 57.105 50.862,55.487 53.338,55.140 52.435 C 54.951 51.941,55.200 51.234,55.563 51.234 C 55.712 51.234,55.768 50.987,55.689 50.684 C 55.601 50.350,55.692 50.078,55.920 49.990 C 56.200 49.883,56.226 49.719,56.023 49.340 C 55.836 48.990,55.839 48.833,56.035 48.833 C 56.592 48.833,55.475 47.214,54.360 46.406 C 53.742 45.958,53.247 45.480,53.262 45.344 C 53.337 44.654,53.405 44.563,53.852 44.563 C 54.117 44.563,54.567 44.739,54.852 44.955 C 55.612 45.530,56.571 45.477,56.571 44.861 C 56.571 43.854,53.306 42.441,52.547 43.119 C 51.879 43.717,51.401 43.549,50.934 42.553 C 50.696 42.044,50.577 41.628,50.670 41.628 C 51.644 41.628,52.605 39.290,51.670 39.196 C 50.198 39.048,49.787 38.942,49.617 38.666 C 49.509 38.491,49.247 38.414,49.036 38.495 C 48.798 38.586,48.476 38.346,48.193 37.867 C 47.628 36.911,46.277 36.787,45.559 37.625 C 45.308 37.919,44.875 38.159,44.598 38.159 C 44.321 38.159,43.679 38.333,43.170 38.545 C 42.662 38.758,41.983 38.863,41.661 38.778 C 41.297 38.683,40.878 38.806,40.550 39.102 C 40.260 39.364,39.957 39.512,39.876 39.432 C 39.795 39.351,40.126 39.007,40.612 38.668 C 41.097 38.329,41.556 37.965,41.630 37.859 C 41.705 37.754,42.126 37.581,42.564 37.476 C 43.003 37.371,43.482 37.194,43.629 37.083 C 44.568 36.375,48.202 36.410,50.501 37.150 M9.668 46.711 C 9.622 54.219,9.687 56.811,9.927 57.051 C 10.164 57.289,12.780 57.372,20.047 57.372 C 28.582 57.372,29.864 57.424,29.973 57.777 C 30.061 58.061,30.086 58.041,30.056 57.710 C 30.016 57.270,29.330 57.229,20.010 57.105 L 10.007 56.971 9.868 46.831 L 9.730 36.691 9.668 46.711 M57.290 39.093 C 57.197 39.668,57.247 40.027,57.421 40.027 C 57.598 40.027,57.580 40.176,57.372 40.427 C 56.689 41.249,56.295 39.520,56.930 38.492 C 57.299 37.896,57.445 38.139,57.290 39.093 M34.534 39.692 C 32.574 43.202,31.977 49.107,33.321 51.693 C 33.456 51.954,33.783 52.708,34.045 53.369 C 34.308 54.029,34.693 54.773,34.902 55.022 C 35.250 55.439,35.167 55.472,33.851 55.447 C 33.065 55.431,32.343 55.300,32.248 55.154 C 32.138 54.988,28.373 54.880,22.107 54.863 L 12.141 54.837 12.111 46.898 L 12.080 38.959 21.984 38.941 C 27.431 38.930,32.128 38.826,32.422 38.710 C 32.715 38.593,33.467 38.486,34.093 38.471 L 35.230 38.445 34.534 39.692 M61.508 38.692 C 61.613 38.863,65.337 38.959,71.801 38.959 L 81.929 38.959 81.859 46.898 L 81.788 54.837 71.809 54.884 C 65.599 54.914,61.768 55.031,61.667 55.195 C 61.422 55.591,58.973 55.490,58.973 55.083 C 58.973 54.899,59.063 54.708,59.173 54.659 C 59.283 54.610,59.634 53.969,59.953 53.235 C 61.975 48.581,61.889 44.871,59.651 40.227 L 58.783 38.426 60.063 38.426 C 60.767 38.426,61.417 38.546,61.508 38.692 M47.805 39.702 C 47.636 39.758,47.489 40.004,47.477 40.249 C 47.465 40.502,47.400 40.556,47.327 40.375 C 47.255 40.200,47.345 39.780,47.526 39.442 C 47.770 38.986,47.888 38.927,47.983 39.214 C 48.054 39.426,47.974 39.646,47.805 39.702 M56.142 39.648 C 56.231 39.880,56.296 40.331,56.285 40.649 C 56.267 41.207,56.259 41.209,56.052 40.694 C 55.934 40.400,55.889 40.070,55.953 39.960 C 56.017 39.850,55.942 39.760,55.786 39.760 C 55.631 39.760,55.504 39.640,55.504 39.493 C 55.504 39.071,55.964 39.183,56.142 39.648 M59.321 40.577 C 59.409 40.913,59.318 41.183,59.085 41.272 C 58.877 41.352,58.706 41.571,58.706 41.757 C 58.706 42.712,57.009 42.843,56.764 41.907 C 56.678 41.577,56.968 41.223,57.727 40.731 C 59.034 39.883,59.137 39.873,59.321 40.577 M47.231 41.145 C 47.231 41.499,46.365 41.299,46.238 40.915 C 46.171 40.716,46.333 40.655,46.683 40.746 C 46.984 40.825,47.231 41.004,47.231 41.145 M35.322 42.035 C 35.432 42.321,35.697 42.396,36.218 42.288 L 36.958 42.134 36.157 42.602 C 35.521 42.975,35.453 43.091,35.824 43.169 C 36.081 43.224,36.291 43.393,36.291 43.546 C 36.291 43.712,36.048 43.750,35.690 43.639 C 35.360 43.536,34.820 43.388,34.490 43.310 C 33.673 43.115,33.729 42.695,34.572 42.695 C 34.988 42.695,35.186 42.584,35.079 42.410 C 34.982 42.253,34.735 42.190,34.529 42.268 C 34.144 42.416,34.019 42.120,34.334 41.806 C 34.645 41.494,35.161 41.614,35.322 42.035 M47.982 43.051 C 48.349 43.150,48.322 43.208,47.832 43.365 C 47.426 43.496,47.231 43.769,47.231 44.210 C 47.231 44.568,47.130 44.799,47.007 44.723 C 46.749 44.563,46.665 42.164,46.903 41.778 C 46.991 41.636,47.168 41.838,47.297 42.225 C 47.426 42.612,47.735 42.984,47.982 43.051 M60.036 43.029 C 60.033 43.494,59.977 43.543,59.789 43.245 C 59.593 42.935,59.363 42.916,58.607 43.148 C 57.395 43.520,57.063 43.209,58.223 42.789 C 59.603 42.289,60.041 42.347,60.036 43.029 M37.529 43.429 C 37.425 44.622,39.476 46.048,39.832 45.030 C 39.918 44.786,40.089 44.821,40.476 45.163 C 40.766 45.420,41.119 45.630,41.262 45.630 C 41.852 45.630,42.125 46.220,41.831 46.864 C 41.538 47.507,40.728 47.719,40.427 47.231 C 40.194 46.855,39.076 46.900,38.764 47.298 C 38.320 47.865,38.166 48.921,38.474 49.291 C 38.691 49.553,38.654 49.767,38.329 50.126 C 37.706 50.814,38.217 53.093,38.995 53.100 C 39.257 53.103,40.018 51.848,40.106 51.269 C 40.150 50.985,40.344 50.561,40.538 50.328 C 40.732 50.094,40.827 49.662,40.750 49.368 C 40.554 48.615,41.008 48.702,42.048 49.615 C 42.609 50.108,42.820 50.449,42.617 50.538 C 42.440 50.616,42.642 50.607,43.067 50.518 C 43.797 50.365,43.832 50.398,43.695 51.112 C 43.505 52.106,43.705 52.568,44.325 52.568 C 44.603 52.568,44.830 52.675,44.830 52.806 C 44.830 53.126,43.137 53.467,41.451 53.486 C 39.728 53.506,39.592 53.643,40.412 54.528 C 41.123 55.295,42.197 55.372,50.367 55.240 C 51.871 55.215,53.102 55.255,53.102 55.328 C 53.102 56.019,48.375 57.630,46.698 57.510 C 45.332 57.413,42.991 56.833,42.815 56.549 C 42.732 56.415,42.486 56.304,42.268 56.304 C 41.832 56.304,41.619 56.151,39.794 54.523 C 38.598 53.455,37.358 51.576,37.358 50.831 C 37.358 50.637,37.221 50.432,37.053 50.376 C 36.636 50.237,36.370 44.830,36.780 44.830 C 36.942 44.830,37.013 44.670,36.939 44.476 C 36.804 44.125,37.230 42.695,37.469 42.695 C 37.537 42.695,37.564 43.025,37.529 43.429 M44.092 45.408 C 43.725 45.775,42.500 45.133,42.330 44.484 C 42.237 44.127,42.386 43.764,42.757 43.442 C 43.385 42.898,44.686 44.813,44.092 45.408 M35.678 44.265 C 36.209 44.962,36.096 45.046,34.690 45.004 C 33.384 44.964,32.858 44.349,33.543 43.664 C 33.836 43.371,35.314 43.786,35.678 44.265 M59.814 43.769 C 61.707 44.295,60.034 45.652,58.105 45.155 C 57.330 44.955,57.841 43.551,58.706 43.506 C 58.779 43.502,59.278 43.620,59.814 43.769 M35.229 45.503 C 35.414 45.727,35.489 45.987,35.395 46.082 C 35.301 46.176,35.223 46.113,35.223 45.942 C 35.223 45.771,34.863 45.630,34.423 45.630 C 33.983 45.630,33.622 45.771,33.622 45.942 C 33.622 46.113,33.545 46.176,33.451 46.082 C 33.186 45.817,33.897 45.097,34.423 45.097 C 34.681 45.097,35.043 45.280,35.229 45.503 M60.040 45.955 C 59.490 46.194,59.455 46.265,59.840 46.358 C 60.097 46.420,60.307 46.644,60.307 46.856 C 60.307 47.135,60.121 47.195,59.636 47.073 C 59.252 46.977,58.797 47.045,58.569 47.234 C 58.316 47.444,58.172 47.460,58.172 47.279 C 58.172 47.123,58.439 46.808,58.765 46.580 L 59.358 46.164 58.765 46.164 C 58.439 46.164,58.172 46.044,58.172 45.897 C 58.172 45.751,58.742 45.638,59.440 45.647 C 60.590 45.663,60.646 45.691,60.040 45.955 M35.075 46.414 C 35.668 47.070,35.410 47.498,34.423 47.498 C 34.000 47.498,33.575 47.371,33.479 47.215 C 33.308 46.939,34.054 45.897,34.423 45.897 C 34.524 45.897,34.818 46.130,35.075 46.414 M34.098 47.027 C 34.548 47.244,34.788 47.240,35.019 47.009 C 35.256 46.772,35.111 46.702,34.410 46.716 C 33.545 46.733,33.526 46.752,34.098 47.027 M35.982 48.185 C 35.941 49.283,35.880 49.390,35.380 49.256 C 35.074 49.174,34.522 49.105,34.155 49.103 C 33.623 49.100,33.425 48.904,33.188 48.146 C 32.982 47.488,32.978 47.281,33.176 47.479 C 33.619 47.921,35.480 47.836,35.661 47.365 C 35.928 46.668,36.030 46.927,35.982 48.185 M60.721 47.942 C 60.677 49.187,59.209 49.902,58.177 49.180 L 57.596 48.773 58.347 47.989 C 58.887 47.425,59.263 47.247,59.686 47.353 C 60.009 47.434,60.349 47.380,60.440 47.232 C 60.710 46.795,60.756 46.913,60.721 47.942 M52.702 47.423 C 52.408 47.495,51.967 47.732,51.721 47.950 C 51.246 48.370,50.441 48.342,50.353 47.901 C 50.296 47.618,51.476 47.295,52.568 47.294 C 53.097 47.294,53.125 47.320,52.702 47.423 M35.115 49.882 C 35.606 49.790,36.024 49.906,36.024 50.136 C 36.024 50.267,35.694 50.430,35.290 50.499 C 34.887 50.568,34.346 50.715,34.089 50.825 C 33.758 50.967,33.622 50.903,33.622 50.604 C 33.622 50.340,33.771 50.241,34.023 50.337 C 34.308 50.447,34.424 50.310,34.427 49.862 C 34.430 49.427,34.499 49.340,34.652 49.580 C 34.773 49.772,34.981 49.908,35.115 49.882 M60.307 49.767 C 60.307 49.989,60.070 50.167,59.773 50.167 C 59.116 50.167,59.078 50.584,59.704 50.934 C 59.960 51.077,60.072 51.291,59.953 51.410 C 59.834 51.529,59.535 51.371,59.288 51.058 C 59.041 50.746,58.569 50.410,58.239 50.311 C 57.421 50.066,57.463 49.531,58.284 49.737 C 58.638 49.826,59.209 49.787,59.551 49.650 C 59.893 49.512,60.203 49.392,60.240 49.383 C 60.277 49.374,60.307 49.546,60.307 49.767 M59.241 51.503 L 59.766 52.241 59.036 53.577 C 58.070 55.344,56.935 56.584,54.819 58.186 C 52.840 59.683,52.766 59.704,52.035 58.973 C 51.636 58.574,51.501 58.537,51.501 58.826 C 51.501 59.039,51.710 59.330,51.966 59.473 C 52.565 59.809,52.488 59.857,50.504 60.392 C 48.608 60.903,47.765 60.959,47.765 60.574 C 47.765 60.427,47.922 60.307,48.114 60.307 C 48.307 60.307,48.681 60.148,48.947 59.954 C 49.579 59.491,49.026 58.438,48.257 58.639 C 47.987 58.710,47.765 58.631,47.765 58.463 C 47.765 58.109,48.873 57.640,49.717 57.636 C 51.246 57.629,56.037 54.273,56.037 53.209 C 56.037 53.003,56.127 52.834,56.237 52.833 C 56.348 52.831,56.666 52.311,56.945 51.677 C 57.542 50.318,58.353 50.256,59.241 51.503 M36.702 51.056 C 37.097 52.546,39.925 56.037,40.738 56.037 C 40.934 56.037,41.094 56.130,41.094 56.244 C 41.094 56.529,42.661 57.318,43.629 57.520 C 45.911 57.995,47.048 58.706,45.526 58.706 C 44.891 58.706,44.424 59.332,44.711 59.797 C 44.794 59.931,45.154 60.040,45.513 60.040 C 45.871 60.040,46.164 60.196,46.164 60.386 C 46.164 60.805,44.412 60.976,44.167 60.581 C 44.074 60.430,43.712 60.307,43.362 60.307 C 43.013 60.307,42.651 60.185,42.559 60.036 C 42.467 59.887,42.289 59.828,42.163 59.906 C 41.519 60.304,35.757 55.854,35.757 54.958 C 35.757 54.818,35.653 54.703,35.525 54.703 C 35.182 54.703,33.832 51.449,34.079 51.218 C 34.502 50.820,36.605 50.690,36.702 51.056 M48.299 53.385 C 48.299 53.523,48.119 53.636,47.899 53.636 C 47.486 53.636,47.368 53.321,47.669 53.020 C 47.882 52.807,48.299 53.048,48.299 53.385 M34.058 57.807 C 33.397 58.516,32.765 59.005,32.654 58.893 C 32.542 58.782,33.035 58.154,33.749 57.498 C 35.423 55.961,35.606 56.145,34.058 57.807 M60.131 58.155 C 60.207 58.531,60.351 59.049,60.450 59.306 C 60.550 59.563,60.522 59.773,60.389 59.773 C 60.140 59.773,58.973 57.566,58.973 57.095 C 58.973 56.556,59.998 57.494,60.131 58.155 M73.938 57.100 C 66.148 57.208,63.938 57.313,63.885 57.578 C 63.847 57.766,63.877 57.796,63.952 57.645 C 64.040 57.466,67.472 57.372,73.922 57.372 C 80.191 57.372,83.817 57.275,83.923 57.105 C 84.013 56.958,84.050 56.866,84.005 56.900 C 83.960 56.934,79.430 57.024,73.938 57.100 M40.881 57.692 C 40.400 58.172,40.495 58.919,41.075 59.229 C 41.726 59.578,42.360 59.341,42.574 58.668 C 42.890 57.671,41.629 56.944,40.881 57.692 M51.679 57.549 C 51.318 57.911,51.515 58.226,51.901 57.905 C 52.518 57.394,53.193 58.037,52.804 58.765 C 52.578 59.186,52.594 59.275,52.876 59.182 C 53.365 59.019,53.484 58.232,53.091 57.759 C 52.757 57.356,51.987 57.242,51.679 57.549 M42.028 58.461 C 42.028 59.221,41.420 59.321,40.990 58.631 C 40.761 58.264,40.784 58.099,41.094 57.902 C 41.684 57.526,42.028 57.732,42.028 58.461 M61.374 58.172 C 61.813 58.516,61.905 58.693,61.641 58.691 C 61.211 58.689,60.307 58.091,60.307 57.809 C 60.307 57.507,60.691 57.637,61.374 58.172 M47.415 58.416 C 47.489 58.697,47.838 59.000,48.191 59.089 C 48.544 59.177,48.833 59.365,48.833 59.506 C 48.833 59.648,48.544 59.836,48.191 59.924 C 47.838 60.013,47.489 60.315,47.415 60.596 C 47.214 61.367,46.431 61.242,46.431 60.440 C 46.431 59.911,46.296 59.773,45.780 59.773 C 44.811 59.773,44.705 59.309,45.628 59.107 C 46.181 58.985,46.431 58.771,46.431 58.418 C 46.431 57.749,47.240 57.748,47.415 58.416 M36.421 60.217 C 35.548 61.796,35.223 62.165,35.223 61.577 C 35.223 61.336,35.344 61.065,35.490 60.974 C 35.977 60.673,35.801 59.965,35.290 60.170 C 35.033 60.274,34.673 60.419,34.490 60.494 C 33.483 60.906,34.371 60.044,35.557 59.459 C 37.282 58.608,37.301 58.624,36.421 60.217 M41.273 60.040 C 41.468 60.040,41.628 60.140,41.628 60.263 C 41.628 61.907,49.941 61.505,53.658 59.682 L 55.415 58.820 55.446 60.153 C 55.462 60.886,55.355 61.632,55.207 61.811 C 55.039 62.013,54.919 65.826,54.887 71.961 L 54.837 81.788 46.898 81.859 L 38.959 81.929 38.959 71.801 C 38.959 65.746,38.858 61.610,38.708 61.517 C 38.569 61.432,38.469 60.790,38.485 60.092 L 38.514 58.823 39.716 59.432 C 40.377 59.766,41.077 60.040,41.273 60.040 M58.887 61.282 C 58.628 61.541,56.285 59.219,56.483 58.899 C 56.569 58.761,57.188 59.196,57.860 59.868 C 58.531 60.539,58.994 61.175,58.887 61.282 M31.755 61.475 C 32.121 61.888,32.782 62.475,33.222 62.778 C 34.173 63.432,33.918 63.152,32.288 61.753 C 31.491 61.068,31.311 60.975,31.755 61.475 M57.232 64.109 C 57.020 64.685,56.961 84.012,57.171 83.882 C 57.282 83.813,57.372 79.332,57.372 73.922 C 57.372 66.304,57.447 64.057,57.705 63.953 C 57.966 63.847,57.965 63.813,57.697 63.797 C 57.509 63.785,57.300 63.926,57.232 64.109 " stroke="none" fill="#97827c" fill-rule="evenodd"></path><path id="path3" d="M200.266 133.422 C 200.266 206.878,200.296 236.928,200.334 200.200 C 200.371 163.472,200.371 103.372,200.334 66.644 C 200.296 29.917,200.266 59.967,200.266 133.422 M36.825 19.885 L 36.825 29.904 36.224 30.145 C 35.856 30.293,35.784 30.393,36.037 30.403 C 37.053 30.445,37.091 30.064,37.091 19.957 L 37.091 10.134 46.898 10.204 L 56.704 10.274 56.775 19.990 C 56.848 30.116,56.887 30.446,58.005 30.394 C 58.506 30.370,58.494 30.345,57.905 30.182 L 57.238 29.996 57.105 20.001 L 56.971 10.007 46.898 9.937 L 36.825 9.867 36.825 19.885 M38.070 11.385 C 37.972 11.483,37.892 15.961,37.892 21.337 L 37.892 31.111 35.977 31.111 C 34.207 31.111,34.121 31.086,34.843 30.778 C 35.272 30.594,35.437 30.439,35.209 30.432 C 34.075 30.399,30.769 33.290,31.064 34.057 C 31.139 34.255,31.063 34.388,30.894 34.353 C 30.724 34.318,30.550 34.530,30.508 34.823 C 30.465 35.117,30.498 35.207,30.581 35.023 C 30.900 34.318,31.089 34.752,31.134 36.288 L 31.180 37.885 21.260 37.955 L 11.341 38.025 11.271 46.898 C 11.232 51.778,11.292 55.772,11.404 55.775 C 11.516 55.777,15.991 55.807,21.348 55.841 L 31.087 55.904 31.093 57.805 C 31.097 59.371,31.039 59.630,30.767 59.273 C 30.586 59.034,30.433 58.965,30.429 59.119 C 30.424 59.274,30.554 59.534,30.718 59.697 C 30.882 59.861,31.152 60.264,31.318 60.592 C 31.763 61.467,33.899 63.149,34.823 63.351 C 35.409 63.478,35.517 63.453,35.223 63.254 C 34.889 63.028,34.910 62.982,35.357 62.976 C 35.650 62.973,36.341 62.895,36.891 62.804 L 37.892 62.639 37.892 72.493 C 37.892 79.802,37.975 82.431,38.212 82.668 C 38.551 83.007,54.494 83.155,55.348 82.827 C 55.722 82.683,55.771 81.578,55.775 73.154 C 55.779 62.567,55.731 62.843,57.563 62.840 C 58.265 62.838,59.139 62.742,59.506 62.626 C 60.145 62.423,60.152 62.431,59.655 62.828 C 58.861 63.463,59.394 63.320,60.558 62.585 C 61.920 61.725,64.103 58.706,63.362 58.706 C 63.289 58.706,63.108 59.023,62.961 59.410 C 62.814 59.797,62.639 60.059,62.572 59.993 C 62.506 59.926,62.595 59.489,62.772 59.022 C 63.009 58.393,63.017 57.972,62.801 57.399 C 62.230 55.887,62.085 55.910,72.756 55.838 C 80.145 55.789,82.605 55.692,82.758 55.446 C 83.116 54.866,82.971 38.476,82.604 38.172 C 82.093 37.748,62.142 37.665,62.494 38.089 C 62.701 38.338,65.172 38.436,72.545 38.489 L 82.322 38.559 82.396 46.431 C 82.437 50.761,82.405 54.573,82.325 54.903 L 82.178 55.504 72.310 55.504 C 63.106 55.504,62.439 55.535,62.399 55.971 C 62.375 56.227,62.345 57.179,62.332 58.085 C 62.292 60.839,60.956 62.143,58.029 62.284 C 57.007 62.333,56.021 62.389,55.837 62.407 C 55.577 62.434,55.504 64.579,55.504 72.149 C 55.504 80.044,55.435 81.913,55.138 82.159 C 54.878 82.375,52.425 82.442,46.666 82.392 L 38.559 82.322 38.426 72.448 L 38.292 62.575 36.424 62.436 C 32.882 62.173,30.887 60.169,31.492 57.484 C 31.957 55.424,32.424 55.519,21.407 55.440 L 11.608 55.370 11.608 46.965 L 11.608 38.559 21.526 38.426 C 32.474 38.278,31.918 38.365,31.470 36.869 C 30.646 34.119,33.311 31.285,36.475 31.547 C 38.499 31.715,38.411 32.166,38.489 21.324 L 38.559 11.608 46.965 11.608 L 55.370 11.608 55.438 21.348 C 55.516 32.463,55.356 31.787,57.853 31.569 C 60.300 31.355,62.426 33.336,62.437 35.840 C 62.440 36.520,62.540 36.795,62.740 36.672 C 62.929 36.555,62.981 36.035,62.883 35.255 C 62.729 34.024,62.729 34.023,63.116 34.823 C 63.447 35.507,63.482 35.526,63.352 34.957 C 62.998 33.401,59.998 30.389,58.842 30.430 C 58.694 30.435,58.868 30.603,59.230 30.803 C 59.830 31.135,59.712 31.164,57.896 31.128 L 55.904 31.087 55.890 29.887 C 55.883 29.226,55.853 24.753,55.824 19.947 L 55.771 11.207 47.009 11.207 C 42.190 11.207,38.168 11.288,38.070 11.385 M30.184 35.904 C 30.167 36.205,30.034 36.595,29.888 36.772 C 29.741 36.949,29.813 36.927,30.047 36.724 C 30.280 36.520,30.414 36.130,30.343 35.855 C 30.228 35.406,30.212 35.411,30.184 35.904 M63.528 36.196 C 63.499 37.074,63.707 37.091,74.071 37.091 L 83.789 37.091 83.789 46.961 L 83.789 56.831 73.716 56.901 L 63.642 56.971 63.580 57.638 C 63.526 58.225,63.545 58.241,63.741 57.772 C 63.956 57.255,64.280 57.234,73.943 57.105 L 83.923 56.971 83.923 46.965 L 83.923 36.958 73.943 36.825 C 64.274 36.695,63.956 36.675,63.755 36.157 C 63.553 35.641,63.546 35.642,63.528 36.196 M9.937 46.898 L 10.007 56.971 20.001 57.105 L 29.996 57.238 30.182 57.905 C 30.337 58.464,30.371 58.484,30.394 58.025 C 30.450 56.858,30.273 56.838,19.960 56.838 L 10.140 56.838 10.140 46.968 L 10.140 37.098 19.546 37.025 L 28.953 36.951 19.410 36.888 L 9.867 36.825 9.937 46.898 M36.157 63.755 C 36.675 63.956,36.695 64.274,36.825 73.943 L 36.958 83.923 46.965 83.923 L 56.971 83.923 57.105 73.943 C 57.234 64.274,57.255 63.956,57.772 63.755 C 58.288 63.553,58.287 63.546,57.734 63.528 C 56.856 63.499,56.838 63.707,56.838 74.071 L 56.838 83.789 46.965 83.789 L 37.091 83.789 37.091 74.071 C 37.091 63.707,37.074 63.499,36.196 63.528 C 35.642 63.546,35.641 63.553,36.157 63.755 " stroke="none" fill="#cb5464" fill-rule="evenodd"></path><path id="path4" d="M46.698 34.556 C 46.698 35.217,46.818 35.757,46.965 35.757 C 47.111 35.757,47.231 35.217,47.231 34.556 C 47.231 33.896,47.111 33.356,46.965 33.356 C 46.818 33.356,46.698 33.896,46.698 34.556 M43.229 34.282 C 43.229 34.489,43.362 34.740,43.524 34.841 C 43.730 34.968,43.710 35.093,43.457 35.253 C 43.191 35.422,43.247 35.483,43.674 35.486 C 43.992 35.488,44.298 35.628,44.354 35.797 C 44.410 35.966,44.601 36.056,44.779 35.997 C 44.999 35.923,44.911 35.618,44.498 35.030 C 43.822 34.065,43.229 33.716,43.229 34.282 M50.229 34.632 C 49.792 35.559,49.812 36.291,50.275 36.291 C 50.512 36.291,50.602 36.104,50.518 35.784 C 50.445 35.506,50.517 35.033,50.677 34.733 C 50.838 34.434,50.876 34.131,50.764 34.062 C 50.651 33.992,50.410 34.249,50.229 34.632 M40.740 35.949 C 40.564 36.235,41.232 37.309,41.451 37.091 C 41.524 37.017,41.431 36.671,41.244 36.321 C 41.056 35.971,40.830 35.804,40.740 35.949 M38.980 36.472 C 38.958 37.083,39.592 37.892,40.092 37.892 C 40.254 37.892,40.141 37.622,39.840 37.292 C 39.540 36.961,39.228 36.511,39.148 36.291 C 39.050 36.023,38.994 36.082,38.980 36.472 M54.169 36.262 C 54.169 36.393,53.869 36.575,53.502 36.667 C 53.135 36.759,52.835 36.941,52.835 37.071 C 52.835 37.202,53.075 37.245,53.369 37.169 C 53.802 37.055,53.903 37.161,53.903 37.727 C 53.903 38.696,54.334 38.604,54.536 37.592 C 54.770 36.422,54.745 36.024,54.436 36.024 C 54.290 36.024,54.169 36.131,54.169 36.262 M56.930 38.492 C 56.295 39.520,56.689 41.249,57.372 40.427 C 57.580 40.176,57.598 40.027,57.421 40.027 C 57.247 40.027,57.197 39.668,57.290 39.093 C 57.445 38.139,57.299 37.896,56.930 38.492 M47.526 39.442 C 47.345 39.780,47.255 40.200,47.327 40.375 C 47.400 40.556,47.465 40.502,47.477 40.249 C 47.489 40.004,47.636 39.758,47.805 39.702 C 47.974 39.646,48.054 39.426,47.983 39.214 C 47.888 38.927,47.770 38.986,47.526 39.442 M46.238 40.915 C 46.365 41.299,47.231 41.499,47.231 41.145 C 47.231 41.004,46.984 40.825,46.683 40.746 C 46.333 40.655,46.171 40.716,46.238 40.915 M34.334 41.806 C 34.019 42.120,34.144 42.416,34.529 42.268 C 34.735 42.190,34.982 42.253,35.079 42.410 C 35.186 42.584,34.988 42.695,34.572 42.695 C 33.729 42.695,33.673 43.115,34.490 43.310 C 34.820 43.388,35.360 43.536,35.690 43.639 C 36.048 43.750,36.291 43.712,36.291 43.546 C 36.291 43.393,36.081 43.224,35.824 43.169 C 35.453 43.091,35.521 42.975,36.157 42.602 L 36.958 42.134 36.218 42.288 C 35.697 42.396,35.432 42.321,35.322 42.035 C 35.161 41.614,34.645 41.494,34.334 41.806 M46.903 41.778 C 46.665 42.164,46.749 44.563,47.007 44.723 C 47.130 44.799,47.231 44.568,47.231 44.210 C 47.231 43.769,47.426 43.496,47.832 43.365 C 48.322 43.208,48.349 43.150,47.982 43.051 C 47.735 42.984,47.426 42.612,47.297 42.225 C 47.168 41.838,46.991 41.636,46.903 41.778 M58.223 42.789 C 57.063 43.209,57.395 43.520,58.607 43.148 C 59.363 42.916,59.593 42.935,59.789 43.245 C 59.977 43.543,60.033 43.494,60.036 43.029 C 60.041 42.347,59.603 42.289,58.223 42.789 M33.617 45.503 C 33.431 45.727,33.357 45.987,33.451 46.082 C 33.545 46.176,33.622 46.113,33.622 45.942 C 33.622 45.771,33.983 45.630,34.423 45.630 C 34.863 45.630,35.223 45.771,35.223 45.942 C 35.223 46.113,35.301 46.176,35.395 46.082 C 35.659 45.817,34.949 45.097,34.423 45.097 C 34.165 45.097,33.803 45.280,33.617 45.503 M58.172 45.897 C 58.172 46.044,58.439 46.164,58.765 46.164 L 59.358 46.164 58.765 46.580 C 58.439 46.808,58.172 47.123,58.172 47.279 C 58.172 47.460,58.316 47.444,58.569 47.234 C 58.797 47.045,59.252 46.977,59.636 47.073 C 60.121 47.195,60.307 47.135,60.307 46.856 C 60.307 46.644,60.097 46.420,59.840 46.358 C 59.455 46.265,59.490 46.194,60.040 45.955 C 60.646 45.691,60.590 45.663,59.440 45.647 C 58.742 45.638,58.172 45.751,58.172 45.897 M33.421 47.026 C 33.582 47.512,35.281 47.460,35.445 46.965 C 35.559 46.619,35.516 46.615,35.126 46.937 C 34.767 47.233,34.534 47.246,33.991 46.999 C 33.450 46.752,33.331 46.758,33.421 47.026 M34.444 49.862 C 34.429 50.307,34.306 50.446,34.023 50.337 C 33.771 50.241,33.622 50.340,33.622 50.604 C 33.622 50.903,33.758 50.967,34.089 50.825 C 34.346 50.715,34.887 50.568,35.290 50.499 C 36.195 50.344,36.261 49.900,35.379 49.900 C 35.024 49.900,34.674 49.750,34.600 49.566 C 34.526 49.383,34.456 49.516,34.444 49.862 M59.551 49.650 C 59.209 49.787,58.638 49.826,58.284 49.737 C 57.463 49.531,57.421 50.066,58.239 50.311 C 58.569 50.410,59.041 50.746,59.288 51.058 C 59.535 51.371,59.834 51.529,59.953 51.410 C 60.072 51.291,59.960 51.077,59.704 50.934 C 59.078 50.584,59.116 50.167,59.773 50.167 C 60.070 50.167,60.307 49.989,60.307 49.767 C 60.307 49.546,60.277 49.374,60.240 49.383 C 60.203 49.392,59.893 49.512,59.551 49.650 M47.669 53.020 C 47.368 53.321,47.486 53.636,47.899 53.636 C 48.119 53.636,48.299 53.523,48.299 53.385 C 48.299 53.048,47.882 52.807,47.669 53.020 M41.094 57.902 C 40.784 58.099,40.761 58.264,40.990 58.631 C 41.420 59.321,42.028 59.221,42.028 58.461 C 42.028 57.732,41.684 57.526,41.094 57.902 M51.805 57.994 C 51.586 58.258,51.612 58.481,51.906 58.861 C 52.296 59.366,52.307 59.366,52.697 58.861 C 53.082 58.364,52.847 57.638,52.302 57.638 C 52.191 57.638,51.967 57.798,51.805 57.994 M46.431 58.418 C 46.431 58.771,46.181 58.985,45.628 59.107 C 44.705 59.309,44.811 59.773,45.780 59.773 C 46.296 59.773,46.431 59.911,46.431 60.440 C 46.431 61.242,47.214 61.367,47.415 60.596 C 47.489 60.315,47.838 60.013,48.191 59.924 C 48.544 59.836,48.833 59.648,48.833 59.506 C 48.833 59.365,48.544 59.177,48.191 59.089 C 47.838 59.000,47.489 58.697,47.415 58.416 C 47.240 57.748,46.431 57.749,46.431 58.418 " stroke="none" fill="#3e3b3a" fill-rule="evenodd"></path></g></svg>