<svg id="svg" version="1.1" xmlns="http://www.w3.org/2000/svg" xmlns:xlink="http://www.w3.org/1999/xlink" width="400" height="266.8" viewBox="0, 0, 400,266.8"><g id="svgg"><path id="path0" d="M0.000 66.711 L 0.000 88.592 200.000 88.592 L 400.000 88.592 400.000 66.711 L 400.000 44.830 200.000 44.830 L 0.000 44.830 0.000 66.711 M0.000 200.267 L 0.000 222.282 200.000 222.282 L 400.000 222.282 400.000 200.267 L 400.000 178.252 200.000 178.252 L 0.000 178.252 0.000 200.267 " stroke="none" fill="#fcfbfb" fill-rule="evenodd"></path><path id="path1" d="M0.000 133.422 L 0.000 177.718 200.000 177.718 L 400.000 177.718 400.000 133.422 L 400.000 89.126 200.000 89.126 L 0.000 89.126 0.000 133.422 " stroke="none" fill="#241c53" fill-rule="evenodd"></path><path id="path2" d="M0.000 22.148 L 0.000 44.296 200.000 44.296 L 400.000 44.296 400.000 22.148 L 400.000 0.000 200.000 0.000 L 0.000 0.000 0.000 22.148 M0.000 244.696 L 0.000 266.845 200.000 266.845 L 400.000 266.845 400.000 244.696 L 400.000 222.548 200.000 222.548 L 0.000 222.548 0.000 244.696 " stroke="none" fill="#ec1c24" fill-rule="evenodd"></path><path id="path3" d="M99.845 44.763 C 154.833 44.800,244.893 44.800,299.978 44.763 C 355.063 44.726,310.073 44.696,200.000 44.696 C 89.927 44.696,44.857 44.726,99.845 44.763 M99.845 88.793 C 154.833 88.830,244.893 88.830,299.978 88.793 C 355.063 88.755,310.073 88.725,200.000 88.725 C 89.927 88.725,44.857 88.755,99.845 88.793 M99.845 178.185 C 154.833 178.223,244.893 178.223,299.978 178.185 C 355.063 178.148,310.073 178.118,200.000 178.118 C 89.927 178.118,44.857 178.148,99.845 178.185 M99.845 222.482 C 154.833 222.519,244.893 222.519,299.978 222.482 C 355.063 222.445,310.073 222.414,200.000 222.414 C 89.927 222.414,44.857 222.445,99.845 222.482 " stroke="none" fill="#fce4e4" fill-rule="evenodd"></path><path id="path4" d="M99.845 44.496 C 154.833 44.533,244.893 44.533,299.978 44.496 C 355.063 44.459,310.073 44.429,200.000 44.429 C 89.927 44.429,44.857 44.459,99.845 44.496 M99.845 89.059 C 154.833 89.096,244.893 89.096,299.978 89.059 C 355.063 89.022,310.073 88.992,200.000 88.992 C 89.927 88.992,44.857 89.022,99.845 89.059 M99.845 177.919 C 154.833 177.956,244.893 177.956,299.978 177.919 C 355.063 177.882,310.073 177.851,200.000 177.851 C 89.927 177.851,44.857 177.882,99.845 177.919 " stroke="none" fill="#5c5c7c" fill-rule="evenodd"></path></g></svg>