<svg id="svg" version="1.1" xmlns="http://www.w3.org/2000/svg" xmlns:xlink="http://www.w3.org/1999/xlink" width="400" height="266.8" viewBox="0, 0, 400,266.8"><g id="svgg"><path id="path0" d="M148.488 29.953 C 148.418 30.137,148.392 36.771,148.430 44.696 L 148.499 59.106 274.249 59.173 L 400.000 59.240 400.000 44.430 L 400.000 29.620 274.308 29.620 C 174.000 29.620,148.590 29.687,148.488 29.953 M36.814 37.071 C 37.118 37.641,37.625 37.826,37.625 37.368 C 37.625 37.226,37.376 36.977,37.071 36.814 C 36.564 36.543,36.543 36.564,36.814 37.071 M110.874 37.091 C 110.608 37.385,110.511 37.625,110.658 37.625 C 110.805 37.625,111.142 37.385,111.408 37.091 C 111.673 36.798,111.771 36.558,111.624 36.558 C 111.477 36.558,111.140 36.798,110.874 37.091 M24.550 53.952 C 24.550 54.183,24.730 54.520,24.950 54.703 C 25.459 55.126,25.454 54.729,24.941 54.052 C 24.628 53.637,24.550 53.617,24.550 53.952 M65.110 65.090 C 62.701 66.028,62.096 66.364,62.438 66.575 C 62.626 66.692,62.866 66.621,62.995 66.412 C 63.168 66.131,64.009 66.044,66.542 66.044 C 70.045 66.044,70.236 65.956,68.572 65.106 C 67.331 64.473,66.702 64.470,65.110 65.090 M79.322 65.425 C 77.618 66.292,77.236 66.691,78.615 66.165 C 80.180 65.568,84.364 65.857,85.582 66.645 C 85.907 66.856,86.328 66.976,86.516 66.912 C 87.101 66.713,82.404 64.575,81.388 64.578 C 81.167 64.578,80.238 64.959,79.322 65.425 M65.529 68.707 C 65.340 69.713,65.612 71.303,66.019 71.577 C 66.699 72.034,67.823 71.807,67.645 71.247 C 67.529 70.880,67.597 70.714,67.865 70.714 C 68.079 70.714,68.323 70.441,68.406 70.108 C 68.490 69.775,68.800 69.243,69.096 68.926 L 69.633 68.349 68.767 68.063 C 67.028 67.490,65.708 67.752,65.529 68.707 M79.720 68.133 C 78.993 68.711,79.621 70.714,80.529 70.714 C 80.768 70.714,80.833 70.893,80.720 71.247 C 80.584 71.679,80.669 71.778,81.169 71.762 C 82.327 71.727,82.584 71.435,82.684 70.047 C 82.736 69.313,82.913 68.629,83.076 68.527 C 83.590 68.206,83.039 67.959,81.587 67.859 C 80.665 67.795,80.027 67.889,79.720 68.133 M126.217 74.183 C 126.217 74.330,126.518 74.450,126.885 74.450 C 127.252 74.450,127.552 74.330,127.552 74.183 C 127.552 74.036,127.252 73.916,126.885 73.916 C 126.518 73.916,126.217 74.036,126.217 74.183 M70.077 77.620 C 69.723 78.013,69.816 78.052,71.112 78.052 C 72.693 78.052,72.735 77.968,71.386 77.504 C 70.608 77.236,70.407 77.254,70.077 77.620 M76.987 77.483 C 76.525 77.821,76.560 77.857,77.436 77.960 C 78.292 78.060,78.356 78.024,78.088 77.594 C 77.730 77.022,77.632 77.012,76.987 77.483 M73.382 78.452 C 73.382 78.599,73.742 78.719,74.183 78.719 C 74.623 78.719,74.983 78.599,74.983 78.452 C 74.983 78.306,74.623 78.185,74.183 78.185 C 73.742 78.185,73.382 78.306,73.382 78.452 M69.974 81.567 C 69.427 81.757,68.769 81.915,68.512 81.917 C 67.417 81.927,68.329 83.099,70.076 83.925 C 71.766 84.724,77.603 84.873,77.852 84.123 C 77.913 83.939,78.139 83.789,78.353 83.789 C 78.800 83.789,80.053 82.618,80.053 82.200 C 80.053 82.047,79.777 81.921,79.440 81.921 C 79.102 81.921,78.685 81.780,78.513 81.608 C 78.057 81.152,71.258 81.119,69.974 81.567 M78.831 82.350 C 79.476 82.598,79.337 83.256,78.639 83.256 C 78.302 83.256,77.886 83.395,77.715 83.566 C 76.872 84.409,69.113 83.769,69.113 82.857 C 69.113 82.252,77.443 81.818,78.831 82.350 M148.697 89.067 C 148.432 89.246,148.376 92.382,148.430 103.820 L 148.499 118.346 274.249 118.413 L 400.000 118.480 400.000 103.803 L 400.000 89.126 275.450 89.123 C 206.948 89.122,150.480 89.057,149.967 88.980 C 149.453 88.903,148.882 88.942,148.697 89.067 M36.975 110.989 C 36.698 111.294,36.522 111.594,36.582 111.654 C 36.789 111.862,37.681 111.041,37.579 110.737 C 37.518 110.553,37.280 110.652,36.975 110.989 M110.810 111.192 C 111.058 111.440,111.336 111.568,111.428 111.476 C 111.691 111.214,111.287 110.740,110.801 110.740 C 110.394 110.740,110.394 110.776,110.810 111.192 M73.916 126.735 C 73.916 127.020,74.035 127.327,74.181 127.417 C 74.335 127.512,74.422 127.294,74.390 126.899 C 74.324 126.108,73.916 125.966,73.916 126.735 M0.000 163.175 L 0.000 177.985 200.000 177.985 L 400.000 177.985 400.000 163.175 L 400.000 148.366 200.000 148.366 L 0.000 148.366 0.000 163.175 M0.000 222.415 L 0.000 237.225 200.000 237.225 L 400.000 237.225 400.000 222.415 L 400.000 207.605 200.000 207.605 L 0.000 207.605 0.000 222.415 " stroke="none" fill="#053ba1" fill-rule="evenodd"></path><path id="path1" d="M0.000 74.049 L 0.000 148.099 200.000 148.099 L 400.000 148.099 400.000 133.422 L 400.000 118.746 274.049 118.746 L 148.099 118.746 148.099 103.803 L 148.099 88.859 274.049 88.859 L 400.000 88.859 400.000 74.183 L 400.000 59.507 274.116 59.440 L 148.232 59.373 148.163 44.496 C 148.108 32.684,148.163 29.619,148.430 29.618 C 148.615 29.618,205.294 29.618,274.383 29.620 L 400.000 29.622 400.000 14.811 L 400.000 0.000 200.000 0.000 L 0.000 0.000 0.000 74.049 M74.541 20.614 C 74.623 21.091,74.866 22.442,75.081 23.616 C 75.296 24.790,75.663 26.831,75.898 28.152 C 76.133 29.473,76.503 31.514,76.722 32.688 C 76.940 33.863,77.301 35.844,77.522 37.091 C 77.744 38.339,78.107 40.320,78.328 41.494 C 78.550 42.668,78.804 44.139,78.893 44.763 C 79.112 46.296,79.281 46.222,81.065 43.816 C 83.227 40.900,84.538 38.142,85.531 34.423 C 87.008 28.886,88.410 26.835,91.863 25.158 C 95.289 23.495,95.854 23.668,93.954 25.800 C 91.447 28.612,90.509 32.143,91.544 34.866 C 91.892 35.780,91.920 42.592,91.580 43.502 C 91.445 43.866,91.246 44.763,91.139 45.497 C 91.032 46.231,90.849 46.951,90.733 47.098 C 90.617 47.245,90.434 47.785,90.327 48.299 C 90.220 48.813,90.042 49.353,89.933 49.500 C 89.623 49.914,89.358 51.236,89.588 51.219 C 89.701 51.211,90.874 50.436,92.195 49.498 C 93.516 48.560,95.737 47.014,97.131 46.062 C 98.526 45.111,100.507 43.746,101.534 43.029 C 110.324 36.895,112.348 35.551,112.478 35.763 C 112.609 35.974,107.509 43.791,106.738 44.563 C 106.664 44.636,106.194 45.297,105.693 46.031 C 105.191 46.765,104.242 48.145,103.584 49.099 C 102.925 50.053,101.490 52.155,100.394 53.769 C 99.297 55.384,98.235 56.894,98.033 57.126 C 97.380 57.873,97.629 57.978,99.600 57.785 C 103.262 57.425,106.668 56.215,111.007 53.731 C 114.397 51.791,114.802 51.648,117.169 51.548 C 119.549 51.447,120.821 51.726,123.216 52.874 C 124.530 53.503,124.472 53.902,123.066 53.905 C 119.356 53.912,117.023 55.012,114.958 57.726 C 112.821 60.535,112.255 61.199,110.876 62.520 C 109.147 64.174,106.439 65.984,103.324 67.565 C 100.677 68.908,100.681 68.877,103.135 69.240 C 103.722 69.326,104.743 69.508,105.404 69.644 C 106.064 69.779,107.685 70.084,109.006 70.322 C 113.444 71.120,115.398 71.477,117.545 71.879 C 118.719 72.099,120.220 72.357,120.881 72.453 C 121.541 72.548,122.502 72.727,123.015 72.850 C 123.529 72.973,124.790 73.219,125.817 73.396 C 126.845 73.574,127.925 73.848,128.219 74.006 C 128.816 74.326,128.811 74.327,124.350 75.135 C 123.102 75.361,121.121 75.725,119.947 75.944 C 118.773 76.163,116.851 76.513,115.677 76.721 C 114.503 76.930,112.522 77.290,111.274 77.522 C 109.141 77.918,105.912 78.498,103.803 78.864 C 102.110 79.157,102.107 79.209,103.714 80.591 C 105.600 82.214,110.337 84.597,113.276 85.401 C 119.832 87.196,121.242 88.180,123.241 92.349 C 124.665 95.321,124.468 95.765,122.522 93.967 C 121.132 92.682,120.866 92.509,118.967 91.659 C 117.912 91.186,115.860 91.214,111.180 91.764 C 108.285 92.104,103.102 91.565,101.268 90.733 C 100.974 90.600,100.314 90.409,99.800 90.309 C 99.286 90.209,98.806 90.037,98.732 89.927 C 98.659 89.817,98.200 89.640,97.711 89.534 L 96.824 89.342 98.512 91.836 C 99.440 93.207,100.262 94.390,100.337 94.463 C 100.413 94.536,100.953 95.317,101.538 96.197 C 102.123 97.078,102.663 97.859,102.739 97.932 C 102.814 98.005,103.354 98.784,103.940 99.662 C 104.525 100.540,105.484 101.935,106.071 102.761 C 106.658 103.587,107.318 104.534,107.538 104.864 C 107.759 105.195,108.329 105.984,108.806 106.619 C 109.283 107.254,109.673 107.890,109.673 108.034 C 109.673 108.177,109.763 108.334,109.873 108.383 C 109.983 108.432,110.554 109.193,111.141 110.073 C 111.728 110.954,112.298 111.714,112.408 111.763 C 112.709 111.897,112.649 112.608,112.337 112.608 C 112.120 112.608,110.299 111.392,108.458 110.017 C 108.303 109.901,107.979 109.686,107.737 109.540 C 107.495 109.393,106.541 108.745,105.617 108.100 C 101.298 105.088,99.556 103.882,98.199 102.963 C 97.392 102.416,95.710 101.245,94.463 100.360 C 93.215 99.475,91.795 98.504,91.305 98.204 L 90.416 97.657 90.543 99.462 C 90.694 101.612,91.226 104.369,91.557 104.723 C 91.688 104.863,91.795 105.163,91.796 105.390 C 91.797 105.827,94.298 110.841,94.730 111.274 C 94.868 111.412,95.399 112.489,96.244 114.343 C 97.030 116.066,96.915 119.467,95.992 121.815 C 94.670 125.175,94.540 125.163,94.185 121.646 C 93.810 117.934,93.185 116.948,89.386 114.070 C 85.397 111.050,82.755 107.749,80.419 102.869 L 79.398 100.734 79.051 102.735 C 78.860 103.836,78.526 105.697,78.307 106.871 C 78.089 108.045,77.739 109.967,77.530 111.141 C 77.320 112.315,76.960 114.296,76.729 115.544 C 76.315 117.777,75.901 120.081,75.135 124.417 C 74.255 129.399,74.037 129.591,73.397 125.951 C 73.104 124.290,72.864 122.973,71.936 117.945 C 71.535 115.771,71.183 113.823,70.296 108.873 C 70.073 107.625,69.779 106.064,69.644 105.404 C 69.508 104.743,69.320 103.754,69.226 103.204 C 69.131 102.655,68.939 102.277,68.799 102.364 C 68.144 102.769,65.624 106.556,64.734 108.472 C 64.189 109.646,63.639 110.802,63.511 111.041 C 63.383 111.280,63.195 111.940,63.092 112.509 C 62.990 113.077,62.815 113.662,62.704 113.809 C 62.593 113.956,62.414 114.612,62.305 115.267 C 62.197 115.921,62.023 116.642,61.917 116.868 C 60.200 120.543,59.222 121.625,56.297 123.082 C 53.257 124.597,52.470 124.476,54.076 122.740 C 56.948 119.636,57.476 117.790,56.709 113.542 C 56.029 109.781,56.438 103.885,57.590 100.838 C 58.583 98.212,58.963 96.865,58.709 96.865 C 58.585 96.865,58.443 96.955,58.394 97.065 C 58.346 97.175,57.945 97.513,57.505 97.816 C 56.233 98.692,52.281 101.424,50.967 102.335 C 34.474 113.772,34.452 113.785,36.633 110.758 C 37.252 109.899,38.659 107.854,39.760 106.213 C 40.861 104.573,41.881 103.086,42.028 102.909 C 42.386 102.477,43.358 101.103,44.792 99.001 C 45.444 98.046,46.523 96.484,47.190 95.530 C 47.858 94.576,48.927 93.035,49.566 92.106 L 50.728 90.415 48.913 90.543 C 46.756 90.694,43.998 91.225,43.642 91.557 C 43.503 91.688,43.196 91.795,42.961 91.795 C 42.495 91.795,38.145 93.958,36.424 95.045 C 35.837 95.416,35.057 95.812,34.690 95.924 C 34.323 96.037,33.854 96.265,33.648 96.430 C 33.115 96.859,27.879 96.831,27.445 96.398 C 27.262 96.214,26.949 96.064,26.750 96.064 C 26.249 96.064,24.085 95.057,23.883 94.731 C 23.792 94.583,23.875 94.462,24.067 94.461 C 29.135 94.429,31.180 93.395,34.270 89.304 C 37.206 85.415,41.547 82.059,46.410 79.917 L 47.590 79.397 45.610 79.064 C 42.830 78.596,40.182 78.117,28.286 75.930 C 27.185 75.728,25.143 75.362,23.749 75.116 C 19.871 74.434,19.746 74.404,19.746 74.171 C 19.746 73.939,21.986 73.430,26.151 72.714 C 27.545 72.475,29.241 72.159,29.919 72.012 C 30.597 71.865,31.798 71.643,32.587 71.518 C 34.356 71.239,38.104 70.572,39.893 70.218 C 40.627 70.072,42.294 69.742,43.597 69.484 L 45.967 69.015 44.801 67.960 C 42.289 65.686,39.054 64.028,34.823 62.845 C 29.653 61.399,28.454 60.812,26.849 58.937 C 25.245 57.063,23.571 53.102,24.383 53.102 C 24.590 53.102,24.823 53.268,24.901 53.471 C 25.728 55.626,30.175 57.319,33.741 56.837 C 39.013 56.125,43.450 56.397,47.498 57.680 C 51.982 59.102,51.626 59.022,51.181 58.505 C 50.960 58.249,49.882 56.718,48.785 55.103 C 47.122 52.654,43.804 47.844,39.491 41.628 C 39.033 40.967,37.948 39.420,37.080 38.190 C 35.012 35.259,35.134 34.925,37.625 36.696 C 39.738 38.198,41.679 39.549,45.097 41.897 C 46.931 43.157,49.273 44.776,50.300 45.494 C 51.328 46.212,53.459 47.683,55.037 48.763 L 57.905 50.727 57.905 49.943 C 57.905 47.703,56.105 41.079,55.155 39.824 C 51.638 35.178,50.634 29.869,52.504 25.817 C 53.585 23.476,53.788 23.544,54.001 26.323 C 54.299 30.202,54.913 31.185,58.973 34.295 C 60.367 35.363,61.873 36.639,62.320 37.131 C 63.604 38.545,65.644 41.292,65.644 41.607 C 65.644 41.765,65.762 41.895,65.906 41.895 C 66.049 41.895,66.243 42.195,66.335 42.562 C 66.427 42.929,66.600 43.229,66.719 43.229 C 66.838 43.229,67.015 43.589,67.111 44.029 C 67.208 44.470,67.385 44.830,67.504 44.830 C 67.623 44.830,67.801 45.150,67.899 45.542 C 67.998 45.934,68.247 46.495,68.453 46.789 C 68.905 47.435,68.890 47.477,69.505 43.896 C 69.758 42.428,70.131 40.327,70.334 39.226 C 70.537 38.125,70.893 36.144,71.124 34.823 C 71.355 33.502,71.708 31.581,71.908 30.554 C 72.108 29.526,72.469 27.545,72.711 26.151 C 73.782 19.966,74.207 18.679,74.541 20.614 M0.000 192.795 L 0.000 207.338 200.000 207.338 L 400.000 207.338 400.000 192.795 L 400.000 178.252 200.000 178.252 L 0.000 178.252 0.000 192.795 M0.000 252.168 L 0.000 266.845 200.000 266.845 L 400.000 266.845 400.000 252.168 L 400.000 237.492 200.000 237.492 L 0.000 237.492 0.000 252.168 " stroke="none" fill="#fbfbfb" fill-rule="evenodd"></path><path id="path2" d="M73.445 25.417 C 73.162 27.302,72.769 29.529,71.903 34.156 C 71.670 35.404,71.299 37.445,71.078 38.692 C 70.701 40.830,70.402 42.482,69.535 47.231 C 69.334 48.332,69.034 50.073,68.868 51.101 C 68.702 52.128,68.455 53.389,68.319 53.903 C 68.183 54.416,68.005 55.342,67.924 55.959 L 67.776 57.082 68.911 56.674 C 69.536 56.450,70.917 56.197,71.981 56.113 L 73.916 55.960 73.916 39.721 C 73.916 30.790,73.876 23.482,73.826 23.482 C 73.777 23.482,73.605 24.353,73.445 25.417 M74.480 40.188 L 74.450 55.960 76.324 56.117 C 77.355 56.203,78.612 56.424,79.119 56.607 C 80.567 57.131,80.555 57.413,79.371 50.768 C 79.155 49.557,78.802 47.576,78.587 46.365 C 78.371 45.154,78.004 43.142,77.772 41.895 C 77.540 40.647,77.208 38.726,77.034 37.625 C 76.860 36.524,76.641 35.504,76.548 35.357 C 76.455 35.210,76.290 34.194,76.182 33.099 C 76.074 32.005,75.887 30.924,75.766 30.698 C 75.645 30.472,75.420 29.446,75.265 28.419 C 74.573 23.822,74.510 24.763,74.480 40.188 M90.300 26.912 C 88.145 28.489,87.547 29.633,86.025 35.090 C 84.914 39.071,82.610 43.381,80.182 46.017 C 79.422 46.842,79.245 47.219,79.366 47.751 C 79.568 48.638,80.605 54.261,80.820 55.637 L 80.987 56.704 81.555 55.904 C 82.060 55.192,83.468 52.359,84.692 49.593 C 84.929 49.057,85.123 48.434,85.123 48.208 C 85.123 47.982,85.230 47.731,85.360 47.650 C 85.490 47.570,85.681 47.053,85.784 46.501 C 85.887 45.949,86.067 45.377,86.182 45.230 C 86.474 44.861,87.280 40.701,88.172 34.957 C 88.811 30.847,89.473 28.881,90.803 27.151 C 91.727 25.950,91.659 25.918,90.300 26.912 M91.610 27.018 C 90.223 28.546,89.312 31.056,88.729 34.957 C 87.692 41.898,87.433 43.124,86.226 46.831 C 85.379 49.430,84.293 52.047,83.020 54.560 C 82.576 55.435,82.264 56.203,82.327 56.265 C 82.465 56.403,85.505 54.392,86.539 53.478 C 86.721 53.317,87.137 53.043,87.464 52.868 C 89.639 51.704,92.253 38.670,90.983 35.327 C 90.322 33.588,90.582 29.880,91.491 28.085 C 92.413 26.265,92.430 26.114,91.610 27.018 M53.280 27.682 C 52.589 28.791,54.163 32.493,56.941 36.291 C 61.741 42.852,64.564 47.892,66.058 52.568 C 66.316 53.376,66.618 54.276,66.729 54.570 C 66.839 54.863,67.019 55.344,67.128 55.637 C 67.347 56.226,67.512 55.638,68.061 52.302 C 68.218 51.348,68.460 50.201,68.599 49.755 C 68.821 49.040,68.666 48.574,67.314 45.885 C 64.525 40.336,62.256 37.590,57.293 33.756 C 55.226 32.159,54.005 30.422,53.707 28.653 C 53.574 27.865,53.405 27.482,53.280 27.682 M52.035 30.365 C 52.035 32.581,52.630 34.213,54.729 37.759 C 55.798 39.564,56.787 41.751,57.264 43.362 C 57.481 44.096,57.781 45.057,57.930 45.497 C 58.079 45.937,58.272 47.402,58.358 48.752 L 58.516 51.206 60.354 52.488 C 64.703 55.521,65.797 56.297,66.128 56.586 C 69.042 59.126,62.448 44.724,57.953 38.728 C 54.592 34.246,53.230 31.868,52.893 29.895 C 52.559 27.938,52.035 28.225,52.035 30.365 M50.299 49.862 C 56.316 55.900,61.338 60.841,61.459 60.841 C 61.580 60.841,61.864 60.656,62.089 60.431 C 62.699 59.820,65.574 57.905,65.880 57.905 C 66.977 57.905,66.412 57.403,61.572 54.080 C 60.580 53.399,58.959 52.281,57.970 51.595 C 56.980 50.910,55.270 49.738,54.169 48.993 C 53.069 48.247,52.048 47.536,51.901 47.413 C 51.684 47.231,49.369 45.631,44.994 42.639 C 44.717 42.450,43.816 41.810,42.992 41.217 C 38.984 38.334,39.943 39.469,50.299 49.862 M107.774 39.448 C 107.424 39.716,106.177 40.600,105.003 41.411 C 103.829 42.222,102.112 43.413,101.188 44.058 C 100.263 44.703,99.309 45.350,99.067 45.497 C 98.826 45.644,98.502 45.859,98.347 45.976 C 97.668 46.489,94.051 49.005,88.333 52.941 C 84.944 55.275,82.118 57.269,82.054 57.372 C 81.990 57.476,82.910 58.208,84.097 59.000 C 85.285 59.792,86.392 60.539,86.557 60.659 C 86.780 60.820,106.070 41.935,108.518 39.159 C 108.845 38.789,108.416 38.955,107.774 39.448 M39.226 39.856 C 39.226 39.981,39.566 40.580,39.982 41.189 C 41.675 43.665,46.369 50.451,49.054 54.303 C 50.861 56.896,55.116 63.063,56.372 64.910 C 57.618 66.742,57.491 66.714,58.202 65.310 C 58.785 64.160,60.269 62.115,60.638 61.952 C 61.204 61.703,60.027 60.425,50.033 50.434 C 44.089 44.491,39.226 39.731,39.226 39.856 M98.135 50.620 L 87.301 61.473 88.454 62.958 C 89.089 63.775,89.848 64.900,90.142 65.459 L 90.676 66.475 91.322 65.592 C 91.677 65.107,92.619 63.769,93.415 62.619 C 94.212 61.469,95.350 59.848,95.945 59.017 C 96.540 58.185,97.927 56.184,99.027 54.570 C 102.246 49.846,107.094 42.861,108.347 41.140 C 110.085 38.752,108.687 40.051,98.135 50.620 M115.020 52.396 C 114.658 52.564,113.518 53.149,112.485 53.695 C 107.593 56.281,105.465 57.251,103.803 57.651 C 101.048 58.315,100.385 58.416,98.732 58.429 C 97.029 58.442,96.986 58.461,96.340 59.441 C 95.979 59.991,94.684 61.863,93.462 63.601 L 91.241 66.761 92.375 66.570 C 92.998 66.465,93.693 66.284,93.919 66.168 C 94.145 66.053,94.930 65.752,95.664 65.500 C 96.398 65.248,97.358 64.887,97.799 64.698 C 102.449 62.695,105.418 61.003,109.273 58.160 C 114.624 54.215,116.443 53.161,118.404 52.873 C 119.044 52.779,119.592 52.582,119.623 52.435 C 119.704 52.055,115.822 52.022,115.020 52.396 M118.492 53.393 C 116.710 53.743,114.963 54.728,111.154 57.532 C 105.838 61.444,102.220 63.550,97.932 65.229 C 97.272 65.487,96.547 65.791,96.322 65.904 C 96.097 66.017,95.501 66.200,94.997 66.311 C 94.493 66.422,93.896 66.608,93.671 66.726 C 93.446 66.843,93.022 67.026,92.728 67.133 C 92.123 67.353,92.742 67.523,96.464 68.158 C 97.638 68.358,98.779 68.595,98.999 68.686 C 99.454 68.872,104.769 66.271,107.114 64.714 C 109.449 63.164,111.366 61.296,113.570 58.421 C 116.107 55.110,118.069 53.636,119.936 53.636 C 120.341 53.636,120.574 53.521,120.480 53.369 C 120.294 53.067,120.147 53.069,118.492 53.393 M26.951 56.603 C 28.646 58.074,30.521 58.789,34.290 59.402 C 40.150 60.356,41.321 60.555,42.829 60.854 C 43.709 61.029,44.550 61.264,44.696 61.376 C 44.843 61.489,45.473 61.665,46.096 61.768 C 46.719 61.870,47.296 62.064,47.379 62.198 C 47.462 62.332,47.715 62.442,47.941 62.442 C 48.167 62.442,48.790 62.633,49.326 62.866 C 51.795 63.943,52.812 64.412,54.264 65.146 C 56.530 66.291,56.528 66.094,54.245 62.796 C 53.110 61.157,52.114 59.858,52.031 59.909 C 51.948 59.960,51.524 59.839,51.090 59.640 C 46.264 57.427,40.173 56.488,35.691 57.266 C 31.636 57.970,29.215 57.675,27.251 56.237 C 26.184 55.457,25.954 55.737,26.951 56.603 M70.981 56.739 C 58.945 59.057,52.757 72.748,59.036 83.164 C 61.904 87.921,66.380 90.864,71.807 91.560 C 74.220 91.869,78.414 91.566,79.470 91.005 C 79.718 90.874,80.700 90.415,81.654 89.985 C 95.851 83.589,94.696 62.836,79.843 57.444 C 78.070 56.801,72.825 56.383,70.981 56.739 M26.525 57.514 C 27.461 58.972,29.677 60.838,30.478 60.842 C 30.666 60.843,31.141 61.011,31.533 61.215 C 31.924 61.420,32.765 61.673,33.400 61.778 C 34.036 61.882,34.676 62.059,34.823 62.170 C 34.970 62.281,35.535 62.452,36.079 62.550 C 36.624 62.648,37.404 62.903,37.814 63.117 C 38.224 63.331,38.712 63.506,38.898 63.507 C 39.084 63.508,39.712 63.809,40.294 64.176 C 40.875 64.543,41.456 64.843,41.584 64.843 C 41.864 64.843,45.200 67.291,46.209 68.236 C 47.046 69.021,47.927 68.966,53.903 67.761 C 54.710 67.598,55.645 67.412,55.982 67.347 C 56.923 67.166,56.540 66.873,53.301 65.299 C 47.168 62.319,43.305 61.245,34.290 60.011 C 33.115 59.851,31.953 59.611,31.705 59.479 C 31.458 59.347,31.056 59.239,30.812 59.239 C 30.206 59.239,28.666 58.507,27.218 57.532 L 26.017 56.723 26.525 57.514 M84.058 64.878 C 85.821 65.566,87.258 66.531,87.258 67.027 C 87.258 67.690,86.432 67.650,85.046 66.920 C 83.119 65.905,79.518 66.041,77.816 67.193 C 76.417 68.141,75.551 68.179,76.037 67.271 C 76.358 66.672,79.669 64.416,80.454 64.263 C 81.155 64.125,82.886 64.421,84.058 64.878 M69.057 64.820 C 70.378 65.501,72.315 67.193,72.315 67.666 C 72.315 68.164,71.403 68.154,70.985 67.651 C 69.616 66.000,66.211 65.798,62.650 67.155 C 61.209 67.704,60.424 67.401,61.120 66.563 C 61.430 66.189,63.823 64.948,65.110 64.493 C 66.046 64.163,68.114 64.334,69.057 64.820 M70.106 68.038 C 70.970 68.565,71.542 69.822,71.064 70.142 C 70.923 70.236,70.738 70.505,70.652 70.738 C 70.136 72.144,66.316 72.503,64.531 71.314 C 62.987 70.286,62.903 70.238,62.339 70.061 C 61.743 69.873,62.656 68.938,64.310 68.041 C 65.646 67.317,68.921 67.315,70.106 68.038 M83.869 67.942 C 85.721 68.877,86.685 70.180,85.524 70.180 C 85.157 70.180,84.857 70.295,84.857 70.436 C 84.857 70.576,84.336 70.997,83.699 71.370 C 81.020 72.939,77.118 71.667,77.118 69.225 C 77.118 67.750,81.745 66.871,83.869 67.942 M55.237 68.066 C 51.857 68.700,49.277 69.161,47.231 69.498 C 45.984 69.704,44.783 69.941,44.563 70.025 C 44.343 70.108,43.442 70.290,42.562 70.428 C 40.633 70.731,37.241 71.326,34.156 71.903 C 32.909 72.137,30.927 72.502,29.753 72.715 C 23.040 73.935,22.277 73.846,39.788 73.882 L 55.961 73.916 56.143 71.729 C 56.243 70.526,56.423 69.416,56.543 69.261 C 56.663 69.106,56.827 68.709,56.908 68.379 C 57.068 67.724,57.067 67.723,55.237 68.066 M91.265 67.967 C 91.267 68.083,91.433 68.659,91.633 69.246 C 91.834 69.833,92.082 71.124,92.184 72.115 L 92.371 73.916 108.560 73.887 C 126.074 73.856,125.322 73.944,118.479 72.721 C 117.231 72.498,115.250 72.137,114.076 71.919 C 112.902 71.700,110.921 71.340,109.673 71.118 C 108.426 70.896,106.504 70.547,105.404 70.342 C 101.691 69.650,98.608 69.098,96.998 68.837 C 96.117 68.694,94.917 68.464,94.330 68.325 C 92.489 67.890,91.261 67.746,91.265 67.967 M83.206 69.770 C 83.088 70.784,83.347 71.007,83.756 70.243 C 83.927 69.924,83.896 69.620,83.662 69.300 C 83.352 68.875,83.305 68.923,83.206 69.770 M64.576 69.913 C 64.576 70.354,64.696 70.714,64.843 70.714 C 64.990 70.714,65.110 70.354,65.110 69.913 C 65.110 69.473,64.990 69.113,64.843 69.113 C 64.696 69.113,64.576 69.473,64.576 69.913 M69.153 69.799 C 68.883 70.392,68.900 70.438,69.315 70.225 C 69.571 70.093,69.960 69.929,70.179 69.861 C 70.493 69.763,70.457 69.671,70.017 69.435 C 69.532 69.176,69.414 69.226,69.153 69.799 M78.068 69.527 C 77.573 69.896,77.572 69.913,78.047 69.913 C 78.320 69.913,78.763 70.112,79.032 70.355 C 79.648 70.912,79.657 70.504,79.047 69.728 C 78.633 69.201,78.533 69.181,78.068 69.527 M25.349 74.646 C 25.862 74.709,26.403 74.856,26.550 74.973 C 26.697 75.090,27.658 75.272,28.686 75.378 C 29.713 75.484,30.674 75.649,30.821 75.744 C 30.967 75.839,31.988 76.061,33.089 76.236 C 35.318 76.592,38.477 77.146,41.895 77.782 C 43.142 78.013,45.123 78.374,46.298 78.582 C 47.472 78.791,49.393 79.137,50.567 79.352 C 57.187 80.565,57.131 80.568,56.598 79.095 C 56.410 78.575,56.177 77.347,56.080 76.366 L 55.904 74.583 40.160 74.558 C 31.501 74.544,24.836 74.584,25.349 74.646 M92.184 76.251 C 92.082 77.241,91.838 78.528,91.641 79.109 C 91.139 80.596,91.093 80.594,97.532 79.385 C 98.706 79.165,100.687 78.805,101.935 78.586 C 103.182 78.366,105.163 78.008,106.338 77.789 C 107.512 77.571,109.553 77.200,110.874 76.965 C 116.870 75.901,121.229 75.082,122.615 74.759 C 123.318 74.596,118.335 74.501,108.027 74.480 L 92.371 74.450 92.184 76.251 M71.781 75.501 C 71.781 75.639,71.661 75.827,71.514 75.917 C 70.826 76.343,71.233 77.188,72.048 77.025 C 72.625 76.909,72.849 76.966,72.849 77.230 C 72.849 78.038,74.818 78.177,75.301 77.402 C 75.541 77.018,75.815 76.924,76.371 77.035 C 77.186 77.198,77.445 76.484,76.802 75.842 C 76.629 75.668,76.563 75.449,76.657 75.355 C 76.993 75.020,77.575 75.483,78.034 76.450 C 78.329 77.073,78.816 77.564,79.364 77.793 C 81.303 78.603,81.293 79.544,79.353 78.883 C 77.744 78.334,76.838 78.340,75.235 78.910 C 74.019 79.341,73.894 79.341,72.989 78.910 C 71.807 78.346,70.286 78.324,69.020 78.853 C 67.123 79.646,66.827 78.831,68.686 77.931 C 69.445 77.564,69.918 77.137,70.021 76.725 C 70.286 75.670,71.781 74.630,71.781 75.501 M100.264 79.411 C 100.177 79.498,99.047 79.742,97.752 79.953 C 96.456 80.165,94.496 80.490,93.396 80.676 L 91.394 81.015 92.462 81.688 C 93.697 82.467,96.355 83.753,98.466 84.594 C 99.273 84.915,100.173 85.281,100.467 85.405 C 102.400 86.226,107.181 87.274,113.142 88.184 C 117.663 88.873,119.454 89.477,121.105 90.866 C 122.047 91.659,122.183 91.488,121.469 90.406 C 120.203 88.487,117.072 86.760,114.032 86.304 C 113.392 86.208,112.803 86.023,112.723 85.893 C 112.643 85.763,112.332 85.657,112.033 85.657 C 110.351 85.657,103.207 81.538,101.702 79.700 C 101.340 79.258,100.571 79.104,100.264 79.411 M45.816 80.986 C 44.230 81.784,42.392 82.802,41.733 83.247 C 41.073 83.692,40.481 84.056,40.416 84.056 C 39.849 84.056,36.263 87.734,34.081 90.552 C 32.102 93.109,31.206 93.773,28.569 94.635 C 27.046 95.134,26.934 95.212,27.711 95.236 C 29.853 95.302,32.981 93.862,36.485 91.197 C 37.779 90.212,41.035 87.976,43.763 86.197 C 45.760 84.895,50.521 82.810,53.877 81.767 L 56.387 80.987 54.678 80.651 C 53.738 80.467,52.188 80.194,51.234 80.045 C 50.280 79.896,49.320 79.721,49.099 79.655 C 48.879 79.589,47.402 80.188,45.816 80.986 M79.488 81.371 C 81.732 82.097,82.303 82.101,81.921 81.388 C 81.512 80.623,82.051 80.693,82.867 81.509 C 83.715 82.357,83.829 83.616,82.989 82.856 C 82.481 82.396,80.743 82.787,80.053 83.515 C 77.922 85.768,72.504 85.824,68.423 83.636 C 66.052 82.365,65.519 82.232,65.280 82.855 C 65.196 83.075,64.995 83.256,64.834 83.256 C 64.389 83.256,64.803 82.153,65.530 81.402 C 66.194 80.715,66.764 80.814,66.183 81.515 C 65.723 82.069,66.455 82.061,68.348 81.490 C 69.136 81.253,70.075 80.974,70.436 80.871 C 71.834 80.471,77.711 80.796,79.488 81.371 M54.436 82.104 C 53.776 82.315,53.027 82.600,52.772 82.738 C 52.517 82.876,52.175 82.989,52.012 82.989 C 50.391 82.989,42.645 87.363,37.358 91.265 C 34.167 93.620,31.919 94.942,30.479 95.311 C 29.933 95.450,29.126 95.655,28.686 95.765 C 27.948 95.950,27.996 95.980,29.312 96.161 C 31.914 96.517,34.385 95.682,38.692 92.990 C 39.206 92.669,39.927 92.314,40.294 92.201 C 40.660 92.088,41.081 91.911,41.227 91.808 C 42.092 91.198,46.771 89.927,48.150 89.927 C 50.825 89.927,51.318 89.704,52.493 87.964 C 53.102 87.062,54.331 85.274,55.225 83.989 C 57.024 81.404,56.979 81.294,54.436 82.104 M53.562 87.458 C 51.442 90.504,49.150 93.806,48.469 94.797 C 47.788 95.787,46.690 97.377,46.027 98.330 C 40.311 106.554,38.854 108.738,39.354 108.339 C 40.185 107.675,60.841 86.873,60.841 86.701 C 60.841 86.612,60.606 86.328,60.320 86.069 C 60.033 85.809,59.307 84.770,58.707 83.759 C 58.106 82.748,57.570 81.921,57.517 81.921 C 57.463 81.921,55.683 84.413,53.562 87.458 M89.979 83.055 C 89.662 83.679,88.922 84.790,88.335 85.524 L 87.267 86.858 98.125 97.721 C 104.097 103.696,109.035 108.533,109.098 108.469 C 109.162 108.405,108.747 107.691,108.176 106.882 C 106.022 103.829,102.694 99.025,100.683 96.064 C 99.537 94.376,98.479 92.854,98.332 92.680 C 98.185 92.507,97.668 91.787,97.183 91.079 C 96.698 90.372,95.337 88.412,94.159 86.724 C 92.981 85.037,91.775 83.266,91.479 82.789 C 90.787 81.673,90.671 81.693,89.979 83.055 M91.944 82.482 C 92.044 82.643,92.722 83.634,93.451 84.683 C 94.180 85.733,95.017 86.981,95.313 87.458 C 95.608 87.935,96.004 88.326,96.193 88.326 C 96.382 88.326,96.881 88.505,97.301 88.724 C 97.721 88.943,98.268 89.124,98.517 89.124 C 98.765 89.125,99.034 89.233,99.114 89.363 C 99.194 89.493,99.697 89.681,100.230 89.781 C 100.763 89.881,101.395 90.069,101.634 90.198 C 103.076 90.979,111.741 91.601,112.857 91.004 C 114.508 90.120,119.308 90.756,121.214 92.110 C 122.061 92.712,122.180 92.560,121.441 91.822 C 119.573 89.953,117.852 89.450,108.480 88.030 C 107.457 87.875,106.415 87.638,106.163 87.503 C 105.911 87.368,105.471 87.258,105.185 87.258 C 103.617 87.258,97.524 84.998,93.625 82.971 C 91.997 82.124,91.663 82.027,91.944 82.482 M70.447 82.954 C 70.447 83.446,74.947 83.730,76.818 83.356 C 78.643 82.991,77.469 82.722,74.049 82.722 C 72.068 82.722,70.447 82.826,70.447 82.954 M75.517 86.858 C 75.517 87.160,75.191 87.258,74.183 87.258 C 73.175 87.258,72.849 87.160,72.849 86.858 C 72.849 86.555,73.175 86.458,74.183 86.458 C 75.191 86.458,75.517 86.555,75.517 86.858 M50.628 98.124 C 40.416 108.321,38.583 110.286,41.015 108.431 C 41.572 108.006,43.229 106.841,44.696 105.842 C 46.164 104.844,48.386 103.306,49.633 102.426 C 50.881 101.546,53.222 99.931,54.837 98.837 C 56.451 97.742,59.153 95.880,60.841 94.698 C 62.528 93.516,64.416 92.230,65.035 91.838 C 66.466 90.935,66.454 90.750,64.910 89.879 C 64.213 89.486,63.397 88.946,63.098 88.678 C 61.340 87.109,62.664 86.106,50.628 98.124 M85.524 88.350 C 84.790 88.928,83.677 89.662,83.050 89.981 C 82.423 90.299,81.943 90.650,81.982 90.760 C 82.056 90.963,87.862 95.042,98.466 102.339 C 100.153 103.500,101.654 104.551,101.801 104.673 C 101.948 104.795,102.668 105.288,103.402 105.768 C 104.136 106.248,105.553 107.216,106.552 107.920 C 107.550 108.624,108.416 109.151,108.476 109.091 C 108.536 109.032,103.696 104.104,97.721 98.141 L 86.858 87.299 85.524 88.350 M67.870 91.995 C 67.944 92.398,68.198 93.809,68.436 95.130 C 68.674 96.451,68.994 98.096,69.146 98.786 C 69.298 99.475,69.525 100.676,69.650 101.454 C 69.776 102.232,70.058 103.889,70.278 105.137 C 70.645 107.225,70.909 108.662,71.943 114.209 C 72.401 116.665,73.059 120.347,73.516 123.015 C 73.816 124.760,73.863 122.924,73.888 108.707 L 73.916 92.398 71.448 92.082 C 70.090 91.908,68.865 91.652,68.726 91.513 C 68.193 90.982,67.733 91.241,67.870 91.995 M79.461 91.544 C 79.209 91.691,77.978 91.944,76.726 92.105 L 74.450 92.399 74.480 108.174 C 74.499 118.034,74.600 123.549,74.747 122.882 C 74.976 121.849,75.395 119.588,76.182 115.143 C 76.628 112.620,77.179 109.605,77.765 106.471 C 77.998 105.223,78.368 103.182,78.586 101.935 C 78.966 99.763,79.568 96.491,80.058 93.929 C 80.524 91.498,80.399 90.998,79.461 91.544 M81.656 91.979 C 81.669 94.952,85.914 103.441,90.850 110.361 C 94.557 115.559,95.051 116.434,95.381 118.387 C 95.478 118.957,95.655 119.584,95.776 119.779 C 96.093 120.292,96.411 117.873,96.194 116.593 C 96.098 116.020,96.009 115.460,95.996 115.347 C 95.972 115.125,94.979 113.210,93.040 109.648 C 91.040 105.976,90.139 102.951,89.775 98.698 L 89.624 96.929 88.108 95.900 C 87.274 95.334,86.531 94.809,86.458 94.733 C 86.309 94.581,82.512 91.996,81.988 91.691 C 81.772 91.565,81.655 91.667,81.656 91.979 M65.210 92.270 C 64.596 92.767,64.499 92.835,61.753 94.707 C 60.720 95.412,59.872 96.193,59.826 96.482 C 59.782 96.766,59.646 97.238,59.525 97.532 C 57.275 102.960,56.558 107.419,57.200 111.980 C 57.889 116.878,57.815 118.101,56.701 120.239 C 55.967 121.646,55.886 121.926,56.328 121.526 C 57.735 120.253,58.988 117.120,59.468 113.676 C 60.282 107.830,61.269 103.197,62.167 101.001 C 62.287 100.707,62.592 99.867,62.845 99.133 C 63.098 98.399,63.857 96.658,64.533 95.264 C 66.402 91.406,66.429 91.285,65.210 92.270 M66.397 92.770 C 65.671 93.972,65.090 95.152,64.316 96.998 C 64.009 97.732,63.641 98.541,63.500 98.796 C 63.358 99.050,63.241 99.411,63.241 99.596 C 63.240 99.782,63.071 100.255,62.865 100.649 C 62.660 101.043,62.414 101.763,62.318 102.250 C 62.222 102.737,62.041 103.376,61.916 103.669 C 61.555 104.516,60.615 109.490,60.027 113.676 C 59.540 117.135,58.078 121.034,57.002 121.744 C 56.793 121.882,56.803 121.941,57.037 121.944 C 57.517 121.950,59.482 120.110,60.166 119.014 C 60.782 118.027,61.264 116.693,62.191 113.409 C 63.540 108.627,65.215 105.420,67.863 102.542 C 69.038 101.266,69.039 101.233,68.184 96.731 C 67.933 95.410,67.638 93.818,67.528 93.193 C 67.255 91.638,67.113 91.585,66.397 92.770 M80.494 94.330 C 80.230 95.797,79.902 97.367,79.766 97.817 C 79.454 98.855,79.455 99.420,79.769 100.004 C 79.907 100.258,80.573 101.599,81.251 102.982 C 83.595 107.765,85.894 110.597,89.929 113.674 C 93.205 116.173,93.874 117.062,94.753 120.080 C 95.038 121.061,95.121 121.164,95.207 120.640 C 95.441 119.202,94.030 115.638,92.344 113.409 C 91.956 112.895,91.463 112.214,91.249 111.896 C 91.035 111.578,90.136 110.317,89.249 109.094 C 85.426 103.819,81.862 96.452,81.074 92.195 C 81.020 91.901,80.759 92.862,80.494 94.330 " stroke="none" fill="#f1cc21" fill-rule="evenodd"></path><path id="path3" d="M73.817 20.347 C 73.543 21.370,73.635 21.515,74.051 20.717 C 74.516 19.826,74.529 19.746,74.214 19.746 C 74.084 19.746,73.906 20.017,73.817 20.347 M74.619 22.415 C 74.712 23.075,74.884 23.796,75.002 24.016 C 75.119 24.236,75.147 23.876,75.064 23.215 C 74.981 22.555,74.809 21.835,74.682 21.614 C 74.543 21.373,74.518 21.692,74.619 22.415 M73.425 21.915 C 73.401 22.153,73.314 22.754,73.231 23.249 C 73.107 23.986,73.134 24.064,73.381 23.677 C 73.547 23.417,73.634 22.816,73.575 22.342 C 73.516 21.869,73.448 21.676,73.425 21.915 M53.210 24.324 C 53.102 24.500,53.136 24.560,53.290 24.465 C 53.459 24.361,53.629 25.118,53.743 26.490 C 53.844 27.696,54.023 28.779,54.141 28.897 C 54.259 29.015,54.261 28.536,54.145 27.832 C 54.029 27.127,53.927 25.981,53.919 25.284 C 53.903 24.067,53.612 23.673,53.210 24.324 M94.599 24.287 C 94.692 24.437,94.267 25.127,93.655 25.822 C 93.043 26.516,92.428 27.325,92.287 27.618 C 92.147 27.912,92.308 27.792,92.644 27.352 C 92.981 26.911,93.708 26.057,94.260 25.454 C 95.370 24.240,95.461 24.016,94.847 24.016 C 94.619 24.016,94.507 24.138,94.599 24.287 M92.371 24.860 C 91.734 25.152,91.265 25.444,91.329 25.507 C 91.393 25.571,92.094 25.329,92.887 24.968 C 93.681 24.608,94.149 24.317,93.929 24.321 C 93.709 24.325,93.008 24.567,92.371 24.860 M75.435 26.818 C 75.520 27.552,75.685 28.332,75.802 28.552 C 76.067 29.048,75.786 26.753,75.493 26.017 C 75.370 25.710,75.346 26.050,75.435 26.818 M90.156 26.166 C 89.559 26.686,89.557 26.700,90.112 26.431 C 90.434 26.275,90.771 26.028,90.861 25.882 C 91.124 25.458,90.836 25.574,90.156 26.166 M72.614 26.551 C 72.592 26.845,72.513 27.385,72.437 27.752 L 72.300 28.419 72.586 27.764 C 72.743 27.404,72.823 26.864,72.763 26.564 C 72.657 26.031,72.653 26.031,72.614 26.551 M51.649 28.167 C 51.549 28.702,51.520 29.194,51.585 29.259 C 51.650 29.324,51.786 28.940,51.886 28.404 C 51.987 27.869,52.016 27.377,51.951 27.312 C 51.885 27.247,51.750 27.631,51.649 28.167 M148.430 29.574 C 148.165 29.742,148.109 32.923,148.163 44.580 L 148.232 59.373 274.183 59.373 L 400.133 59.374 274.316 59.240 L 148.499 59.106 148.430 44.593 C 148.380 34.097,148.444 29.980,148.663 29.717 C 149.003 29.307,148.925 29.260,148.430 29.574 M71.684 31.457 C 71.581 32.100,71.553 32.683,71.622 32.751 C 71.801 32.931,72.125 31.051,71.986 30.635 C 71.923 30.444,71.786 30.814,71.684 31.457 M91.067 31.755 C 91.067 32.415,91.119 32.685,91.182 32.355 C 91.246 32.025,91.246 31.484,91.182 31.154 C 91.119 30.824,91.067 31.094,91.067 31.755 M76.336 31.643 C 76.347 32.071,76.461 32.662,76.591 32.955 C 76.749 33.312,76.775 33.090,76.669 32.288 C 76.482 30.874,76.310 30.540,76.336 31.643 M55.237 31.304 C 55.237 31.350,55.627 31.740,56.104 32.172 L 56.971 32.955 56.188 32.088 C 55.457 31.280,55.237 31.098,55.237 31.304 M51.524 32.422 C 51.516 32.715,51.626 33.135,51.768 33.356 C 52.111 33.886,52.111 33.219,51.768 32.422 L 51.539 31.888 51.524 32.422 M57.616 33.453 C 57.972 33.890,58.973 34.552,58.973 34.349 C 58.973 34.298,58.582 33.971,58.105 33.622 C 57.569 33.229,57.382 33.164,57.616 33.453 M77.036 35.624 C 77.121 36.358,77.286 37.138,77.404 37.358 C 77.668 37.854,77.387 35.559,77.094 34.823 C 76.972 34.516,76.947 34.856,77.036 35.624 M91.383 34.957 C 91.459 35.324,91.522 36.334,91.524 37.203 C 91.526 38.071,91.610 38.700,91.710 38.600 C 91.964 38.345,91.806 35.544,91.499 34.857 C 91.268 34.339,91.258 34.348,91.383 34.957 M59.506 34.750 C 59.506 34.808,60.197 35.442,61.041 36.160 C 61.885 36.877,62.335 37.187,62.041 36.848 C 61.484 36.205,59.506 34.568,59.506 34.750 M35.647 35.719 C 35.515 35.932,36.739 37.879,37.432 38.559 C 37.835 38.955,37.387 38.191,36.606 37.151 C 35.605 35.818,36.073 35.841,38.007 37.222 C 38.971 37.910,39.760 38.412,39.760 38.339 C 39.760 38.220,36.908 36.131,36.109 35.665 C 35.936 35.564,35.728 35.589,35.647 35.719 M111.783 35.946 C 111.434 36.391,111.443 36.397,111.925 36.024 C 112.402 35.654,112.426 35.664,112.242 36.157 C 112.082 36.586,112.110 36.625,112.379 36.358 C 112.612 36.126,112.630 35.939,112.437 35.746 C 112.244 35.553,112.044 35.614,111.783 35.946 M109.461 37.473 C 108.371 38.243,108.183 38.428,108.495 38.418 C 108.629 38.414,109.159 38.057,109.673 37.625 C 110.789 36.685,110.682 36.609,109.461 37.473 M84.456 37.625 C 84.356 37.941,84.334 38.259,84.408 38.332 C 84.481 38.406,84.623 38.208,84.723 37.892 C 84.823 37.576,84.845 37.258,84.772 37.185 C 84.698 37.111,84.556 37.309,84.456 37.625 M70.083 40.263 C 69.980 40.906,69.952 41.488,70.021 41.557 C 70.200 41.736,70.524 39.857,70.385 39.441 C 70.322 39.250,70.185 39.620,70.083 40.263 M105.473 40.255 C 104.043 41.290,103.352 41.895,104.069 41.484 C 104.772 41.082,107.005 39.447,107.005 39.335 C 107.005 39.156,106.928 39.202,105.473 40.255 M77.919 40.634 C 77.919 41.163,78.032 41.666,78.170 41.751 C 78.319 41.844,78.358 41.500,78.265 40.900 C 78.058 39.560,77.919 39.452,77.919 40.634 M38.667 40.513 C 38.829 40.816,39.094 41.146,39.254 41.245 C 39.463 41.374,39.463 41.269,39.251 40.874 C 39.089 40.571,38.825 40.242,38.664 40.143 C 38.455 40.013,38.456 40.118,38.667 40.513 M91.524 41.428 C 91.522 42.198,91.444 43.129,91.351 43.496 C 91.258 43.863,91.277 44.075,91.394 43.968 C 91.681 43.704,92.002 40.027,91.738 40.027 C 91.622 40.027,91.526 40.657,91.524 41.428 M55.657 40.827 C 55.755 41.194,55.946 41.674,56.082 41.895 C 56.254 42.173,56.275 42.091,56.151 41.628 C 56.053 41.261,55.862 40.781,55.725 40.560 C 55.554 40.282,55.533 40.364,55.657 40.827 M108.972 41.027 C 108.183 42.111,107.940 42.663,108.590 41.895 C 109.192 41.184,109.753 40.294,109.599 40.294 C 109.548 40.294,109.266 40.624,108.972 41.027 M45.897 42.536 C 45.897 42.609,46.438 43.041,47.098 43.496 C 47.759 43.950,48.299 44.262,48.299 44.188 C 48.299 44.115,47.759 43.683,47.098 43.229 C 46.438 42.774,45.897 42.463,45.897 42.536 M40.738 43.449 C 41.007 43.938,41.397 44.478,41.605 44.650 C 42.111 45.071,41.613 44.176,40.813 43.229 L 40.249 42.562 40.738 43.449 M78.635 44.296 C 78.722 44.957,78.837 45.547,78.890 45.608 C 79.090 45.840,78.938 44.139,78.712 43.629 C 78.554 43.273,78.529 43.494,78.635 44.296 M69.273 44.857 C 69.175 45.468,69.147 46.021,69.211 46.084 C 69.274 46.148,69.410 45.704,69.513 45.097 C 69.616 44.490,69.643 43.937,69.575 43.869 C 69.507 43.801,69.371 44.245,69.273 44.857 M57.280 45.764 C 57.369 46.351,57.486 46.881,57.540 46.942 C 57.743 47.172,57.591 45.742,57.359 45.230 C 57.191 44.858,57.167 45.020,57.280 45.764 M50.300 45.714 C 50.740 46.085,51.461 46.591,51.901 46.838 L 52.702 47.288 51.901 46.614 C 51.461 46.243,50.740 45.738,50.300 45.490 L 49.500 45.040 50.300 45.714 M90.843 45.831 C 90.755 46.234,90.625 46.744,90.556 46.965 C 90.474 47.221,90.518 47.269,90.676 47.098 C 90.942 46.811,91.327 45.097,91.126 45.097 C 91.059 45.097,90.932 45.427,90.843 45.831 M68.307 46.898 C 68.615 47.533,69.113 47.712,69.113 47.187 C 69.113 47.016,69.035 46.954,68.939 47.049 C 68.843 47.145,68.597 47.015,68.391 46.760 C 68.054 46.345,68.046 46.359,68.307 46.898 M95.316 47.255 C 93.820 48.355,93.881 48.541,95.397 47.498 C 96.441 46.780,96.807 46.431,96.517 46.431 C 96.472 46.431,95.932 46.802,95.316 47.255 M90.052 48.432 C 89.983 48.652,89.868 49.019,89.796 49.247 C 89.725 49.474,89.770 49.596,89.898 49.517 C 90.025 49.439,90.187 49.072,90.258 48.703 C 90.397 47.974,90.254 47.785,90.052 48.432 M45.630 50.567 C 46.085 51.227,46.517 51.768,46.590 51.768 C 46.663 51.768,46.352 51.227,45.897 50.567 C 45.443 49.907,45.011 49.366,44.938 49.366 C 44.864 49.366,45.176 49.907,45.630 50.567 M89.288 50.589 C 89.070 51.158,89.084 51.501,89.326 51.501 C 89.436 51.501,89.544 51.201,89.565 50.834 C 89.609 50.066,89.519 49.986,89.288 50.589 M114.877 51.768 C 114.540 51.912,114.491 51.997,114.743 51.997 C 114.963 51.997,115.384 51.894,115.677 51.768 C 116.014 51.623,116.063 51.539,115.811 51.539 C 115.590 51.539,115.170 51.642,114.877 51.768 M119.280 51.768 C 120.308 52.097,120.857 52.097,120.347 51.768 C 120.127 51.626,119.646 51.519,119.280 51.532 L 118.612 51.554 119.280 51.768 M100.724 52.902 C 100.313 53.526,100.146 53.895,100.355 53.723 C 100.756 53.392,101.777 51.768,101.585 51.768 C 101.523 51.768,101.135 52.278,100.724 52.902 M121.147 52.124 C 121.147 52.193,121.535 52.384,122.009 52.550 C 122.482 52.715,122.752 52.740,122.609 52.606 C 122.305 52.321,121.147 51.940,121.147 52.124 M24.016 53.369 C 24.016 53.516,24.138 53.636,24.287 53.636 C 24.435 53.636,25.221 54.176,26.031 54.837 C 26.842 55.497,27.591 56.034,27.696 56.029 C 27.800 56.024,27.525 55.758,27.085 55.438 C 26.644 55.117,25.882 54.461,25.390 53.979 C 24.485 53.091,24.016 52.883,24.016 53.369 M123.640 53.300 C 123.742 53.465,123.011 53.637,121.737 53.748 C 120.600 53.847,119.492 54.043,119.274 54.182 C 118.997 54.360,119.117 54.391,119.680 54.285 C 120.120 54.202,121.321 54.052,122.348 53.952 C 124.030 53.787,124.668 53.431,123.799 53.141 C 123.621 53.081,123.549 53.153,123.640 53.300 M98.754 55.771 C 98.136 56.651,97.687 57.372,97.756 57.372 C 97.870 57.372,99.405 55.314,99.896 54.503 C 100.469 53.558,99.735 54.372,98.754 55.771 M25.102 56.244 C 25.268 56.718,25.512 57.173,25.645 57.256 C 25.779 57.338,25.744 57.068,25.568 56.655 C 25.097 55.547,24.754 55.245,25.102 56.244 M36.074 56.531 C 35.735 56.626,37.152 56.704,39.223 56.704 C 41.294 56.704,42.713 56.626,42.375 56.531 C 42.037 56.435,40.620 56.357,39.226 56.357 C 37.832 56.357,36.413 56.435,36.074 56.531 M115.363 56.905 C 115.066 57.235,114.727 57.685,114.610 57.905 C 114.385 58.330,114.447 58.272,115.527 57.038 C 115.881 56.634,116.110 56.304,116.037 56.304 C 115.964 56.304,115.660 56.574,115.363 56.905 M45.764 57.372 C 46.057 57.498,46.478 57.601,46.698 57.601 C 46.950 57.601,46.901 57.516,46.564 57.372 C 46.271 57.245,45.851 57.142,45.630 57.142 C 45.378 57.142,45.427 57.227,45.764 57.372 M50.946 58.239 C 51.252 58.643,51.232 58.706,50.800 58.710 C 50.380 58.713,50.364 58.755,50.700 58.973 C 51.513 59.498,51.729 58.784,50.964 58.103 C 50.649 57.822,50.646 57.843,50.946 58.239 M27.218 59.337 C 27.732 59.895,28.392 60.477,28.686 60.632 C 28.979 60.786,29.159 60.857,29.086 60.789 C 27.379 59.201,26.370 58.417,27.218 59.337 M113.609 59.116 C 112.943 60.007,113.029 60.256,113.706 59.395 C 114.016 59.000,114.227 58.636,114.173 58.584 C 114.120 58.533,113.866 58.772,113.609 59.116 M112.041 61.042 C 111.293 61.882,110.918 62.442,111.103 62.442 C 111.172 62.442,111.610 61.961,112.075 61.374 C 113.041 60.155,113.019 59.945,112.041 61.042 M31.488 61.868 C 31.708 61.997,32.248 62.181,32.688 62.276 C 33.201 62.387,33.345 62.365,33.089 62.214 C 32.869 62.085,32.328 61.902,31.888 61.807 C 31.376 61.696,31.232 61.718,31.488 61.868 M34.423 62.669 C 34.643 62.798,35.183 62.981,35.624 63.076 C 36.136 63.187,36.280 63.165,36.024 63.015 C 35.804 62.886,35.264 62.703,34.823 62.607 C 34.311 62.497,34.167 62.519,34.423 62.669 M109.790 63.309 L 109.006 64.176 109.873 63.392 C 110.682 62.662,110.863 62.442,110.657 62.442 C 110.611 62.442,110.221 62.832,109.790 63.309 M45.128 68.245 L 46.001 68.979 44.681 69.287 C 43.832 69.486,43.609 69.604,44.056 69.621 C 44.438 69.635,45.122 69.517,45.576 69.359 L 46.402 69.071 45.514 68.291 C 45.026 67.862,44.543 67.512,44.441 67.512 C 44.339 67.512,44.648 67.842,45.128 68.245 M102.869 69.350 C 103.162 69.470,103.943 69.641,104.603 69.731 C 105.320 69.828,105.589 69.806,105.270 69.676 C 104.977 69.556,104.196 69.385,103.536 69.295 C 102.819 69.198,102.550 69.220,102.869 69.350 M39.893 70.180 L 39.093 70.384 39.893 70.397 C 40.334 70.404,40.934 70.306,41.227 70.180 L 41.761 69.951 41.227 69.964 C 40.934 69.971,40.334 70.068,39.893 70.180 M107.138 70.180 C 107.432 70.306,108.032 70.404,108.472 70.397 L 109.273 70.384 108.472 70.180 C 108.032 70.068,107.432 69.971,107.138 69.964 L 106.604 69.951 107.138 70.180 M111.541 70.981 C 111.908 71.098,112.508 71.192,112.875 71.189 C 113.474 71.185,113.461 71.164,112.742 70.981 C 111.613 70.693,110.644 70.693,111.541 70.981 M31.087 71.781 L 30.287 71.985 31.087 71.998 C 31.528 72.005,32.128 71.907,32.422 71.781 L 32.955 71.552 32.422 71.565 C 32.128 71.572,31.528 71.669,31.087 71.781 M115.811 71.781 C 116.177 71.899,116.838 71.993,117.278 71.990 L 118.079 71.985 117.278 71.781 C 116.838 71.669,116.177 71.575,115.811 71.573 L 115.143 71.568 115.811 71.781 M26.818 72.582 C 26.099 72.765,26.085 72.786,26.684 72.790 C 27.051 72.793,27.652 72.699,28.019 72.582 C 28.916 72.294,27.947 72.294,26.818 72.582 M120.213 72.568 C 120.721 72.799,122.693 72.958,122.459 72.749 C 122.398 72.695,121.748 72.577,121.014 72.488 C 120.116 72.378,119.854 72.405,120.213 72.568 M22.282 73.365 C 21.504 73.546,21.513 73.554,22.593 73.672 C 23.204 73.738,23.654 73.710,23.592 73.610 C 23.530 73.510,23.630 73.367,23.814 73.293 C 24.302 73.096,23.218 73.147,22.282 73.365 M124.616 73.382 C 124.983 73.500,125.584 73.596,125.951 73.596 L 126.618 73.596 125.951 73.382 C 125.584 73.265,124.983 73.169,124.616 73.169 L 123.949 73.169 124.616 73.382 M20.213 73.833 C 19.957 73.900,19.746 74.066,19.746 74.202 C 19.746 74.530,19.820 74.518,20.717 74.051 C 21.446 73.671,21.216 73.571,20.213 73.833 M127.352 73.833 C 127.608 73.900,127.819 74.066,127.819 74.202 C 127.819 74.338,128.029 74.446,128.286 74.441 C 128.708 74.433,128.703 74.395,128.235 74.041 C 127.950 73.825,127.529 73.663,127.301 73.680 C 126.977 73.704,126.989 73.738,127.352 73.833 M21.481 74.710 C 21.991 74.935,23.692 75.088,23.460 74.887 C 23.399 74.834,22.809 74.719,22.148 74.632 C 21.346 74.526,21.125 74.552,21.481 74.710 M125.222 74.700 C 124.601 74.802,124.005 74.972,123.898 75.080 C 123.668 75.309,125.840 75.001,126.618 74.694 C 127.251 74.444,126.781 74.446,125.222 74.700 M26.017 75.493 C 26.753 75.786,29.048 76.067,28.552 75.802 C 28.332 75.685,27.552 75.520,26.818 75.435 C 26.050 75.346,25.710 75.370,26.017 75.493 M120.788 75.530 C 120.076 75.649,119.425 75.816,119.341 75.900 C 119.116 76.126,121.747 75.749,122.215 75.489 C 122.678 75.232,122.543 75.235,120.788 75.530 M30.420 76.299 C 30.640 76.416,31.421 76.582,32.155 76.667 C 32.922 76.756,33.262 76.731,32.955 76.608 C 32.220 76.315,29.925 76.035,30.420 76.299 M116.251 76.331 C 114.441 76.634,114.308 76.926,116.082 76.700 C 117.450 76.527,118.964 76.031,117.945 76.090 C 117.725 76.103,116.963 76.211,116.251 76.331 M34.690 77.090 C 34.910 77.214,35.684 77.380,36.410 77.457 C 37.136 77.535,37.556 77.506,37.344 77.394 C 36.801 77.107,34.192 76.808,34.690 77.090 M112.342 77.118 C 111.418 77.312,111.417 77.315,112.208 77.346 C 112.648 77.363,113.189 77.260,113.409 77.118 C 113.853 76.831,113.706 76.831,112.342 77.118 M39.093 77.899 C 39.875 78.204,41.999 78.446,41.727 78.199 C 41.599 78.083,40.834 77.921,40.027 77.839 C 39.215 77.757,38.798 77.784,39.093 77.899 M106.471 78.188 C 106.198 78.366,106.494 78.395,107.405 78.279 C 108.139 78.186,108.789 78.067,108.850 78.014 C 109.115 77.786,106.832 77.952,106.471 78.188 M43.629 78.695 C 44.420 79.010,46.642 79.296,46.164 79.022 C 45.944 78.895,45.163 78.722,44.430 78.637 C 43.664 78.548,43.323 78.573,43.629 78.695 M102.373 78.924 C 102.303 79.037,102.717 79.084,103.291 79.030 C 103.866 78.975,104.336 78.883,104.336 78.825 C 104.336 78.626,102.500 78.719,102.373 78.924 M46.698 79.787 C 46.184 80.068,45.860 80.303,45.977 80.309 C 46.260 80.324,47.765 79.541,47.765 79.379 C 47.765 79.205,47.750 79.211,46.698 79.787 M38.959 84.347 C 38.516 84.709,38.471 84.800,38.826 84.617 C 39.696 84.167,40.179 83.797,39.893 83.799 C 39.746 83.800,39.326 84.047,38.959 84.347 M36.549 86.658 L 35.090 88.192 36.624 86.734 C 38.050 85.379,38.281 85.123,38.083 85.123 C 38.041 85.123,37.351 85.814,36.549 86.658 M117.792 86.959 C 117.872 87.088,118.209 87.262,118.542 87.346 C 119.125 87.493,119.128 87.485,118.628 87.111 C 118.054 86.683,117.566 86.594,117.792 86.959 M119.413 87.693 C 119.560 87.822,120.160 88.347,120.747 88.860 L 121.813 89.793 121.013 88.903 C 120.573 88.413,119.973 87.888,119.680 87.736 C 119.386 87.584,119.266 87.565,119.413 87.693 M34.653 88.793 C 33.885 89.719,33.560 90.193,33.691 90.193 C 33.765 90.193,34.146 89.773,34.538 89.260 C 35.265 88.306,35.353 87.946,34.653 88.793 M96.598 89.235 C 96.598 89.433,96.808 89.759,97.065 89.961 C 97.482 90.288,97.495 90.280,97.187 89.886 C 96.916 89.539,96.913 89.421,97.174 89.334 C 97.393 89.261,97.351 89.165,97.051 89.050 C 96.763 88.939,96.598 89.007,96.598 89.235 M148.099 103.803 L 148.099 118.746 274.116 118.680 L 400.133 118.613 274.316 118.479 L 148.499 118.346 148.430 103.820 C 148.376 92.376,148.432 89.249,148.697 89.081 C 148.938 88.927,148.902 88.866,148.566 88.863 C 148.126 88.859,148.099 89.747,148.099 103.803 M212.608 89.059 C 246.988 89.097,303.245 89.097,337.625 89.059 C 372.005 89.022,343.876 88.992,275.117 88.992 C 206.358 88.992,178.229 89.022,212.608 89.059 M98.732 89.920 C 98.732 90.036,99.029 90.188,99.392 90.257 C 99.754 90.327,99.996 90.295,99.929 90.187 C 99.752 89.900,98.732 89.673,98.732 89.920 M49.303 90.382 C 49.635 90.446,50.115 90.444,50.370 90.377 C 50.625 90.310,50.354 90.258,49.767 90.261 C 49.179 90.264,48.971 90.318,49.303 90.382 M45.684 90.724 C 44.417 91.024,44.313 91.266,45.531 91.080 C 46.630 90.911,47.742 90.458,46.965 90.496 C 46.744 90.506,46.168 90.609,45.684 90.724 M116.014 91.183 C 116.346 91.247,116.826 91.244,117.081 91.177 C 117.336 91.111,117.065 91.058,116.478 91.061 C 115.891 91.064,115.682 91.119,116.014 91.183 M43.095 91.451 C 42.278 91.648,42.027 92.013,42.812 91.863 C 43.192 91.790,43.569 91.625,43.649 91.496 C 43.729 91.367,43.757 91.275,43.712 91.292 C 43.666 91.309,43.389 91.381,43.095 91.451 M104.646 91.538 C 104.843 91.643,106.144 91.795,107.538 91.876 C 109.355 91.982,109.695 91.961,108.739 91.801 C 106.818 91.480,104.227 91.313,104.646 91.538 M111.808 91.528 L 110.340 91.708 111.674 91.747 C 112.408 91.769,113.189 91.670,113.409 91.528 C 113.629 91.385,113.689 91.287,113.542 91.308 C 113.396 91.330,112.615 91.429,111.808 91.528 M118.479 91.415 C 118.479 91.595,119.865 92.098,119.997 91.966 C 120.058 91.906,119.741 91.729,119.293 91.572 C 118.845 91.416,118.479 91.345,118.479 91.415 M122.596 94.013 C 123.320 94.697,123.965 95.203,124.031 95.138 C 124.096 95.072,123.754 94.683,123.271 94.274 C 121.658 92.906,121.265 92.754,122.596 94.013 M123.594 93.676 C 123.750 94.124,123.927 94.441,123.988 94.380 C 124.120 94.248,123.616 92.862,123.436 92.862 C 123.367 92.862,123.438 93.228,123.594 93.676 M26.684 94.196 L 25.217 94.376 26.551 94.401 C 27.285 94.414,28.125 94.322,28.419 94.196 C 29.021 93.938,28.794 93.938,26.684 94.196 M24.044 94.897 C 24.380 95.302,24.937 95.407,24.697 95.019 C 24.614 94.885,24.697 94.722,24.882 94.658 C 25.066 94.593,24.884 94.538,24.478 94.535 C 23.881 94.531,23.798 94.600,24.044 94.897 M25.230 95.500 C 25.370 95.631,25.784 95.816,26.151 95.912 L 26.818 96.086 26.151 95.684 C 25.407 95.236,24.823 95.120,25.230 95.500 M101.524 96.531 C 101.936 97.155,102.323 97.665,102.385 97.665 C 102.578 97.665,101.556 96.041,101.155 95.710 C 100.947 95.538,101.113 95.907,101.524 96.531 M27.395 96.334 C 27.658 96.580,30.093 97.002,29.865 96.762 C 29.779 96.672,29.138 96.492,28.440 96.361 C 27.743 96.231,27.272 96.218,27.395 96.334 M32.704 96.364 C 32.126 96.500,31.586 96.678,31.503 96.761 C 31.258 97.010,33.468 96.553,33.742 96.299 C 33.882 96.170,33.942 96.076,33.876 96.091 C 33.810 96.106,33.283 96.229,32.704 96.364 M90.301 97.770 C 90.219 97.984,90.204 98.439,90.269 98.780 C 90.359 99.248,90.396 99.186,90.424 98.526 C 90.460 97.658,90.464 97.655,91.127 98.090 C 91.494 98.330,91.795 98.467,91.795 98.394 C 91.795 97.962,90.444 97.398,90.301 97.770 M58.039 99.266 C 57.939 99.582,57.917 99.900,57.990 99.974 C 58.063 100.047,58.205 99.849,58.306 99.533 C 58.406 99.217,58.428 98.899,58.354 98.826 C 58.281 98.752,58.139 98.951,58.039 99.266 M51.871 101.447 C 50.786 102.263,50.475 102.584,51.101 102.242 C 51.795 101.862,53.016 100.881,52.804 100.873 C 52.714 100.870,52.294 101.128,51.871 101.447 M57.238 101.935 C 57.137 102.396,57.110 102.829,57.178 102.897 C 57.246 102.965,57.378 102.637,57.472 102.168 C 57.694 101.056,57.479 100.840,57.238 101.935 M90.642 102.068 C 90.728 102.655,90.898 103.316,91.019 103.536 C 91.144 103.765,91.170 103.481,91.080 102.869 C 90.993 102.282,90.823 101.621,90.702 101.401 C 90.577 101.171,90.551 101.456,90.642 102.068 M78.890 102.258 C 78.800 102.594,78.739 103.229,78.754 103.669 C 78.773 104.222,78.851 104.059,79.004 103.144 C 79.237 101.750,79.169 101.218,78.890 102.258 M96.777 101.956 C 97.108 102.357,98.732 103.378,98.732 103.186 C 98.732 103.124,98.222 102.736,97.598 102.325 C 96.975 101.914,96.605 101.748,96.777 101.956 M48.402 103.848 C 47.317 104.664,47.006 104.985,47.632 104.643 C 48.326 104.264,49.547 103.282,49.336 103.275 C 49.245 103.272,48.825 103.530,48.402 103.848 M40.027 105.804 C 39.572 106.464,39.261 107.005,39.334 107.005 C 39.407 107.005,39.839 106.464,40.294 105.804 C 40.748 105.143,41.060 104.603,40.986 104.603 C 40.913 104.603,40.481 105.143,40.027 105.804 M91.465 105.282 C 91.534 105.647,91.680 106.000,91.788 106.067 C 91.896 106.133,91.927 105.890,91.858 105.525 C 91.788 105.160,91.642 104.807,91.534 104.741 C 91.426 104.674,91.395 104.918,91.465 105.282 M44.933 106.250 C 43.848 107.066,43.537 107.387,44.163 107.045 C 44.857 106.665,46.078 105.684,45.867 105.676 C 45.776 105.673,45.356 105.931,44.933 106.250 M56.324 108.761 C 56.335 110.217,56.435 111.948,56.548 112.608 C 56.664 113.294,56.697 112.208,56.625 110.073 C 56.478 105.721,56.295 104.924,56.324 108.761 M78.090 106.794 C 78.000 107.130,77.937 107.705,77.951 108.072 C 77.967 108.465,78.072 108.253,78.209 107.555 C 78.454 106.305,78.368 105.755,78.090 106.794 M65.119 106.987 C 64.781 107.619,64.766 107.885,65.078 107.692 C 65.313 107.546,65.681 106.471,65.495 106.471 C 65.440 106.471,65.271 106.703,65.119 106.987 M104.069 106.994 C 104.436 107.302,104.977 107.678,105.270 107.831 C 105.634 108.020,105.592 107.930,105.137 107.549 C 104.770 107.241,104.229 106.865,103.936 106.712 C 103.572 106.523,103.614 106.613,104.069 106.994 M69.964 107.138 C 69.971 107.432,70.068 108.032,70.180 108.472 L 70.384 109.273 70.397 108.472 C 70.404 108.032,70.306 107.432,70.180 107.138 L 69.951 106.604 69.964 107.138 M83.783 108.598 C 84.094 109.034,84.484 109.474,84.651 109.577 C 84.817 109.680,84.617 109.324,84.206 108.785 C 83.314 107.615,82.978 107.467,83.783 108.598 M64.319 108.588 C 63.981 109.220,63.965 109.486,64.277 109.293 C 64.513 109.147,64.880 108.072,64.694 108.072 C 64.640 108.072,64.471 108.304,64.319 108.588 M93.573 109.658 C 93.981 110.384,94.359 110.934,94.412 110.880 C 94.527 110.765,93.136 108.339,92.955 108.339 C 92.887 108.339,93.165 108.933,93.573 109.658 M111.131 110.407 C 111.542 111.031,111.930 111.541,111.992 111.541 C 112.184 111.541,111.163 109.917,110.762 109.586 C 110.553 109.414,110.719 109.783,111.131 110.407 M63.554 110.460 C 63.398 110.908,63.327 111.274,63.396 111.274 C 63.576 111.274,64.080 109.888,63.948 109.756 C 63.887 109.695,63.710 110.012,63.554 110.460 M86.191 111.408 C 86.988 112.215,87.700 112.875,87.774 112.875 C 87.847 112.875,87.255 112.215,86.458 111.408 C 85.660 110.600,84.948 109.940,84.875 109.940 C 84.801 109.940,85.394 110.600,86.191 111.408 M77.248 111.474 C 77.160 112.025,77.033 112.775,76.966 113.142 C 76.880 113.613,76.913 113.692,77.078 113.409 C 77.334 112.973,77.714 110.474,77.525 110.474 C 77.461 110.474,77.337 110.924,77.248 111.474 M70.772 111.408 C 70.775 111.701,70.869 112.302,70.981 112.742 C 71.164 113.461,71.185 113.474,71.189 112.875 C 71.192 112.508,71.098 111.908,70.981 111.541 C 70.813 111.018,70.768 110.989,70.772 111.408 M111.141 111.894 C 112.059 112.692,112.608 112.799,112.608 112.180 C 112.608 111.902,112.463 111.807,112.194 111.910 C 111.966 111.997,111.456 111.873,111.060 111.633 C 110.387 111.226,110.392 111.243,111.141 111.894 M35.777 111.918 C 35.363 112.416,35.939 112.812,36.381 112.333 C 36.622 112.071,36.607 112.045,36.312 112.213 C 36.031 112.373,35.977 112.315,36.104 111.985 C 36.312 111.442,36.192 111.417,35.777 111.918 M62.857 112.408 C 62.580 113.320,62.513 113.930,62.703 113.813 C 62.819 113.741,62.967 113.321,63.032 112.879 C 63.150 112.070,63.046 111.788,62.857 112.408 M96.360 115.578 C 96.723 117.242,96.893 117.479,96.719 116.077 C 96.637 115.417,96.466 114.772,96.338 114.644 C 96.211 114.516,96.221 114.937,96.360 115.578 M76.474 115.610 C 76.150 117.216,76.075 118.053,76.286 117.678 C 76.555 117.205,76.916 115.010,76.726 115.010 C 76.654 115.010,76.540 115.280,76.474 115.610 M71.573 115.811 C 71.575 116.177,71.669 116.838,71.781 117.278 L 71.985 118.079 71.990 117.278 C 71.993 116.838,71.899 116.177,71.781 115.811 L 71.568 115.143 71.573 115.811 M92.200 116.411 C 92.773 117.108,93.285 117.678,93.337 117.678 C 93.528 117.678,92.369 116.196,91.772 115.677 C 91.435 115.384,91.627 115.714,92.200 116.411 M61.151 118.090 C 60.704 119.071,60.789 119.281,61.272 118.389 C 61.498 117.972,61.633 117.581,61.572 117.520 C 61.511 117.459,61.321 117.716,61.151 118.090 M96.480 119.213 C 96.382 119.763,96.243 120.454,96.170 120.747 C 96.068 121.162,96.094 121.192,96.288 120.881 C 96.569 120.430,96.981 118.212,96.784 118.212 C 96.714 118.212,96.577 118.662,96.480 119.213 M75.673 119.880 C 75.386 121.300,75.286 122.591,75.492 122.215 C 75.744 121.755,76.103 119.280,75.917 119.280 C 75.849 119.280,75.739 119.550,75.673 119.880 M94.125 121.333 C 94.199 122.331,94.337 123.234,94.430 123.337 C 94.524 123.441,94.539 122.700,94.464 121.691 C 94.389 120.681,94.251 119.779,94.158 119.686 C 94.065 119.593,94.050 120.334,94.125 121.333 M72.373 120.213 C 72.376 120.507,72.470 121.107,72.582 121.548 C 72.765 122.267,72.786 122.280,72.790 121.681 C 72.793 121.314,72.699 120.714,72.582 120.347 C 72.414 119.824,72.369 119.795,72.373 120.213 M54.286 122.548 L 53.502 123.416 54.370 122.632 C 55.178 121.901,55.359 121.681,55.153 121.681 C 55.107 121.681,54.717 122.071,54.286 122.548 M54.436 123.705 C 53.562 124.063,53.554 124.078,54.303 123.933 C 54.743 123.848,55.217 123.667,55.357 123.530 C 55.676 123.218,55.585 123.235,54.436 123.705 M74.871 124.616 C 74.477 126.655,74.431 127.144,74.669 126.751 C 74.922 126.334,75.320 123.816,75.133 123.816 C 75.074 123.816,74.956 124.176,74.871 124.616 M73.174 124.616 C 73.176 124.983,73.270 125.644,73.382 126.084 L 73.586 126.885 73.591 126.084 C 73.594 125.644,73.500 124.983,73.382 124.616 L 73.169 123.949 73.174 124.616 M73.680 127.301 C 73.663 127.529,73.825 127.950,74.041 128.235 C 74.395 128.703,74.433 128.708,74.441 128.286 C 74.446 128.029,74.338 127.819,74.202 127.819 C 74.066 127.819,73.900 127.608,73.833 127.352 C 73.738 126.989,73.704 126.977,73.680 127.301 M99.845 148.299 C 154.833 148.336,244.893 148.336,299.978 148.299 C 355.063 148.262,310.073 148.231,200.000 148.231 C 89.927 148.231,44.857 148.262,99.845 148.299 M99.845 178.185 C 154.833 178.223,244.893 178.223,299.978 178.185 C 355.063 178.148,310.073 178.118,200.000 178.118 C 89.927 178.118,44.857 178.148,99.845 178.185 M99.845 207.538 C 154.833 207.575,244.893 207.575,299.978 207.538 C 355.063 207.501,310.073 207.471,200.000 207.471 C 89.927 207.471,44.857 207.501,99.845 207.538 M99.845 237.425 C 154.833 237.462,244.893 237.462,299.978 237.425 C 355.063 237.388,310.073 237.358,200.000 237.358 C 89.927 237.358,44.857 237.388,99.845 237.425 " stroke="none" fill="#90a7dd" fill-rule="evenodd"></path><path id="path4" d="M74.075 20.506 C 73.953 20.703,73.873 28.761,73.899 38.412 L 73.945 55.958 71.996 56.112 C 70.924 56.197,69.536 56.450,68.911 56.674 L 67.776 57.082 67.924 55.959 C 68.005 55.342,68.183 54.416,68.319 53.903 C 68.455 53.389,68.702 52.128,68.868 51.101 C 69.034 50.073,69.334 48.332,69.535 47.231 C 70.402 42.482,70.701 40.830,71.078 38.692 C 71.299 37.445,71.670 35.404,71.903 34.156 C 72.137 32.909,72.502 30.927,72.714 29.753 C 72.927 28.579,73.217 27.018,73.359 26.284 C 73.501 25.550,73.621 24.590,73.625 24.149 C 73.638 22.837,73.199 23.917,72.865 26.020 C 72.448 28.644,71.888 31.876,71.526 33.756 C 71.356 34.636,71.037 36.378,70.816 37.625 C 70.595 38.873,70.251 40.734,70.051 41.761 C 69.851 42.789,69.539 44.500,69.357 45.564 C 68.933 48.051,68.855 48.021,67.265 44.763 C 66.531 43.259,65.160 40.995,64.218 39.733 C 62.635 37.612,61.623 36.652,57.039 32.925 C 55.510 31.683,55.090 31.115,54.200 29.086 C 54.039 28.719,53.807 27.458,53.685 26.284 L 53.462 24.149 52.852 25.484 C 50.832 29.899,51.110 32.403,54.227 37.892 C 56.396 41.710,57.594 45.203,57.819 48.366 C 58.030 51.326,58.609 51.484,51.701 46.689 C 34.121 34.486,35.184 35.120,37.246 38.070 C 38.696 40.144,40.084 42.157,42.827 46.164 C 43.882 47.705,45.541 50.107,46.514 51.501 C 51.831 59.119,52.074 59.529,51.034 59.107 C 50.777 59.003,50.207 58.800,49.767 58.657 C 49.326 58.513,48.726 58.291,48.432 58.164 C 45.837 57.039,43.625 56.723,38.959 56.811 C 28.027 57.018,29.009 57.173,25.884 54.745 C 25.223 54.231,24.833 53.976,25.017 54.177 C 25.489 54.695,25.432 55.103,24.944 54.698 C 24.433 54.274,24.582 54.713,25.692 56.894 C 27.037 59.535,29.131 61.078,32.688 62.049 C 35.316 62.766,37.705 63.526,38.599 63.930 C 39.062 64.139,39.510 64.310,39.595 64.310 C 39.970 64.310,43.499 66.629,44.896 67.794 L 46.429 69.072 45.563 69.338 C 45.086 69.484,44.096 69.681,43.362 69.776 C 42.628 69.872,41.608 70.051,41.094 70.175 C 40.580 70.300,38.959 70.602,37.492 70.846 C 36.024 71.091,33.983 71.454,32.955 71.652 C 28.366 72.537,26.730 72.833,25.484 73.001 C 23.852 73.222,22.965 73.637,24.149 73.625 C 24.590 73.621,25.550 73.501,26.284 73.359 C 27.018 73.217,28.579 72.927,29.753 72.714 C 30.927 72.502,32.909 72.137,34.156 71.903 C 37.184 71.337,40.602 70.736,42.562 70.426 C 43.442 70.287,44.523 70.065,44.963 69.933 C 45.404 69.801,46.424 69.616,47.231 69.522 C 48.039 69.429,49.119 69.245,49.633 69.115 C 50.147 68.984,51.708 68.683,53.102 68.446 C 54.496 68.208,55.958 67.954,56.350 67.880 C 57.077 67.743,57.175 68.444,56.543 69.261 C 56.423 69.416,56.243 70.533,56.142 71.743 L 55.958 73.945 38.412 73.899 C 28.761 73.873,20.703 73.954,20.506 74.077 C 20.149 74.300,20.881 74.468,26.151 75.370 C 28.444 75.763,31.456 76.303,35.357 77.021 C 36.531 77.237,38.452 77.573,39.626 77.769 C 40.801 77.964,41.761 78.152,41.761 78.185 C 41.761 78.219,42.722 78.403,43.896 78.594 C 45.070 78.785,46.451 79.053,46.965 79.189 L 47.899 79.438 45.897 80.402 C 40.560 82.974,37.517 85.358,34.420 89.393 C 31.317 93.436,29.815 94.345,25.956 94.515 C 24.014 94.600,24.120 94.881,26.418 95.735 C 30.515 97.258,32.480 97.043,36.825 94.594 C 41.720 91.835,44.261 90.878,47.842 90.444 C 49.047 90.298,50.183 90.126,50.367 90.061 C 51.259 89.747,50.248 91.511,46.447 96.900 C 46.071 97.433,45.584 98.133,45.364 98.455 C 45.143 98.777,44.423 99.800,43.763 100.729 C 42.136 103.015,38.888 107.734,38.559 108.289 C 38.412 108.537,38.231 108.799,38.155 108.873 C 38.080 108.946,37.549 109.696,36.977 110.540 C 35.915 112.104,35.800 112.735,36.733 111.881 C 37.017 111.621,37.094 111.512,36.904 111.640 C 36.362 112.005,36.491 111.417,37.068 110.895 C 37.506 110.499,37.591 110.490,37.668 110.836 C 37.737 111.141,38.177 110.954,39.493 110.061 C 41.770 108.516,41.743 108.535,43.820 107.069 C 44.806 106.373,46.401 105.264,47.365 104.603 C 48.328 103.943,49.889 102.862,50.832 102.201 C 55.841 98.696,59.024 96.560,59.112 96.648 C 59.166 96.702,58.917 97.584,58.558 98.607 C 56.717 103.855,56.379 107.262,56.942 114.903 C 57.222 118.702,56.844 119.917,54.610 122.387 C 53.211 123.935,53.139 124.093,53.925 123.887 C 54.315 123.785,54.383 123.681,54.150 123.537 C 53.959 123.419,54.202 123.339,54.728 123.349 C 57.818 123.404,61.045 119.680,62.300 114.610 C 62.555 113.582,62.863 112.502,62.986 112.208 C 63.108 111.915,63.291 111.374,63.392 111.007 C 63.991 108.825,66.842 104.119,68.602 102.408 C 69.146 101.880,69.444 102.515,69.759 104.870 C 69.848 105.530,70.033 106.611,70.172 107.272 C 70.310 107.932,70.618 109.553,70.856 110.874 C 71.093 112.195,71.452 114.176,71.652 115.277 C 71.852 116.378,72.211 118.359,72.450 119.680 C 72.688 121.001,73.055 122.907,73.266 123.915 C 73.477 124.924,73.663 126.065,73.680 126.450 C 73.700 126.902,73.754 126.986,73.833 126.684 C 73.900 126.428,74.113 126.217,74.307 126.217 C 74.500 126.217,74.722 125.827,74.799 125.350 C 75.098 123.520,75.786 119.587,76.176 117.478 C 76.401 116.268,76.755 114.346,76.962 113.209 C 77.170 112.071,77.531 110.120,77.765 108.873 C 77.998 107.625,78.366 105.584,78.582 104.336 C 78.799 103.089,79.072 101.652,79.190 101.143 L 79.404 100.219 79.875 101.277 C 82.500 107.175,85.312 110.842,89.762 114.172 C 93.382 116.882,94.360 118.531,94.490 122.148 C 94.561 124.109,94.788 124.231,95.474 122.679 C 97.183 118.816,97.017 115.979,94.848 112.014 C 93.051 108.727,91.629 105.707,91.159 104.174 C 90.700 102.678,90.045 97.725,90.275 97.494 C 90.386 97.383,99.384 103.423,100.738 104.517 C 100.888 104.638,101.726 105.217,102.602 105.804 C 103.478 106.391,105.578 107.838,107.268 109.019 C 111.125 111.716,111.271 111.805,110.740 111.146 C 110.370 110.685,110.385 110.659,110.943 110.803 C 111.607 110.974,111.360 110.592,103.726 99.666 C 102.906 98.492,101.540 96.511,100.691 95.264 C 99.842 94.016,98.574 92.184,97.873 91.193 C 96.392 89.100,96.288 88.685,97.385 89.253 C 97.818 89.477,98.310 89.660,98.479 89.660 C 98.647 89.660,99.164 89.826,99.626 90.029 C 103.117 91.560,110.021 92.029,115.598 91.113 C 117.755 90.759,120.712 91.947,123.030 94.097 C 123.808 94.819,124.134 94.908,123.916 94.338 C 123.833 94.122,123.687 93.957,123.590 93.969 C 123.100 94.034,122.922 93.895,123.239 93.695 C 123.593 93.471,123.279 92.596,122.096 90.505 C 121.030 88.622,118.533 87.032,115.143 86.077 C 109.684 84.540,106.771 83.213,104.069 81.029 C 101.801 79.196,101.828 78.938,104.336 78.538 C 107.156 78.087,110.512 77.493,113.009 77.002 C 114.183 76.770,116.224 76.392,117.545 76.160 C 118.866 75.928,120.907 75.562,122.081 75.345 C 123.256 75.129,124.666 74.887,125.217 74.806 C 125.795 74.722,126.217 74.511,126.217 74.308 C 126.217 74.114,126.428 73.900,126.684 73.833 C 126.948 73.764,126.802 73.697,126.351 73.679 C 125.911 73.661,125.129 73.529,124.613 73.386 C 124.097 73.242,122.957 73.013,122.078 72.876 C 121.199 72.738,119.460 72.439,118.212 72.210 C 116.965 71.982,114.923 71.610,113.676 71.383 C 112.428 71.157,111.227 70.916,111.007 70.849 C 110.787 70.781,109.827 70.604,108.873 70.455 C 107.293 70.208,104.092 69.631,102.068 69.229 C 100.418 68.901,100.479 68.793,103.041 67.512 C 108.285 64.890,111.171 62.517,114.343 58.216 C 116.675 55.054,120.199 53.254,123.482 53.547 C 124.737 53.659,121.943 52.381,119.825 51.874 C 117.044 51.209,115.387 51.503,112.340 53.205 C 106.353 56.549,103.798 57.463,98.939 58.002 C 96.938 58.224,96.746 58.601,103.667 48.699 C 104.385 47.672,105.347 46.291,105.804 45.630 C 106.262 44.970,107.303 43.469,108.117 42.295 C 113.028 35.211,113.051 35.159,110.398 37.107 C 109.410 37.832,108.530 38.426,108.442 38.426 C 108.354 38.426,107.845 38.769,107.310 39.189 C 106.775 39.609,105.017 40.850,103.402 41.947 C 101.788 43.044,99.266 44.781,97.799 45.806 C 93.970 48.482,89.970 51.192,89.403 51.496 C 88.928 51.750,89.209 50.644,90.282 48.032 C 90.508 47.480,90.978 45.521,91.306 43.763 C 91.477 42.840,91.505 40.561,91.380 37.625 C 91.016 29.091,91.076 28.774,93.599 25.890 C 94.783 24.537,94.954 23.971,94.016 24.517 C 93.728 24.685,93.672 24.804,93.878 24.808 C 94.070 24.813,94.150 24.942,94.055 25.096 C 93.934 25.291,93.778 25.290,93.541 25.093 C 92.104 23.900,87.324 28.398,86.463 31.755 C 86.331 32.268,86.088 33.229,85.922 33.889 C 85.756 34.550,85.524 35.274,85.406 35.499 C 85.288 35.724,85.103 36.324,84.994 36.833 C 84.428 39.490,79.865 46.574,79.046 46.068 C 78.896 45.975,78.688 45.028,78.583 43.964 C 78.478 42.899,78.315 41.908,78.222 41.761 C 78.128 41.614,77.909 40.594,77.734 39.493 C 77.439 37.638,77.187 36.218,76.150 30.554 C 75.661 27.885,75.100 24.748,74.647 22.148 C 74.422 20.860,74.219 20.275,74.075 20.506 M75.265 28.419 C 75.420 29.446,75.645 30.472,75.766 30.698 C 75.887 30.924,76.074 32.005,76.182 33.099 C 76.290 34.194,76.455 35.210,76.548 35.357 C 76.641 35.504,76.860 36.524,77.034 37.625 C 77.208 38.726,77.540 40.647,77.772 41.895 C 78.004 43.142,78.371 45.154,78.587 46.365 C 80.694 58.193,80.640 57.157,79.119 56.607 C 78.612 56.424,77.355 56.203,76.324 56.117 L 74.450 55.960 74.480 40.188 C 74.510 24.763,74.573 23.822,75.265 28.419 M90.803 27.151 C 89.473 28.881,88.811 30.847,88.172 34.957 C 87.280 40.701,86.474 44.861,86.182 45.230 C 86.067 45.377,85.887 45.949,85.784 46.501 C 85.681 47.053,85.490 47.570,85.360 47.650 C 85.230 47.731,85.123 47.982,85.123 48.208 C 85.123 48.434,84.929 49.057,84.692 49.593 C 83.468 52.359,82.060 55.192,81.555 55.904 L 80.987 56.704 80.820 55.637 C 80.605 54.261,79.568 48.638,79.366 47.751 C 79.245 47.219,79.422 46.842,80.182 46.017 C 82.610 43.381,84.914 39.071,86.025 35.090 C 87.547 29.633,88.145 28.489,90.300 26.912 C 91.659 25.918,91.727 25.950,90.803 27.151 M91.491 28.085 C 90.582 29.880,90.322 33.588,90.983 35.327 C 92.253 38.670,89.639 51.704,87.464 52.868 C 87.137 53.043,86.721 53.317,86.539 53.478 C 85.505 54.392,82.465 56.403,82.327 56.265 C 82.264 56.203,82.576 55.435,83.020 54.560 C 84.293 52.047,85.379 49.430,86.226 46.831 C 87.433 43.124,87.692 41.898,88.729 34.957 C 89.312 31.056,90.223 28.546,91.610 27.018 C 92.430 26.114,92.413 26.265,91.491 28.085 M54.746 31.188 C 55.197 31.867,56.343 33.022,57.293 33.756 C 62.256 37.590,64.525 40.336,67.314 45.885 C 68.666 48.574,68.821 49.040,68.599 49.755 C 68.460 50.201,68.218 51.348,68.061 52.302 C 67.512 55.638,67.347 56.226,67.128 55.637 C 67.019 55.344,66.839 54.863,66.729 54.570 C 66.618 54.276,66.316 53.376,66.058 52.568 C 64.564 47.892,61.741 42.852,56.941 36.291 C 54.163 32.493,52.589 28.791,53.280 27.682 C 53.405 27.482,53.574 27.865,53.707 28.653 C 53.828 29.369,54.295 30.510,54.746 31.188 M52.893 29.895 C 53.230 31.868,54.592 34.246,57.953 38.728 C 62.448 44.724,69.042 59.126,66.128 56.586 C 65.797 56.297,64.703 55.521,60.354 52.488 L 58.516 51.206 58.358 48.752 C 58.272 47.402,58.079 45.937,57.930 45.497 C 57.781 45.057,57.481 44.096,57.264 43.362 C 56.787 41.751,55.798 39.564,54.729 37.759 C 52.630 34.213,52.035 32.581,52.035 30.365 C 52.035 28.225,52.559 27.938,52.893 29.895 M37.625 37.368 C 37.625 37.826,37.118 37.641,36.814 37.071 C 36.543 36.564,36.564 36.543,37.071 36.814 C 37.376 36.977,37.625 37.226,37.625 37.368 M111.408 37.091 C 111.142 37.385,110.805 37.625,110.658 37.625 C 110.511 37.625,110.608 37.385,110.874 37.091 C 111.140 36.798,111.477 36.558,111.624 36.558 C 111.771 36.558,111.673 36.798,111.408 37.091 M42.992 41.217 C 43.816 41.810,44.717 42.450,44.994 42.639 C 49.369 45.631,51.684 47.231,51.901 47.413 C 52.048 47.536,53.069 48.247,54.169 48.993 C 55.270 49.738,56.980 50.910,57.970 51.595 C 58.959 52.281,60.580 53.399,61.572 54.080 C 66.412 57.403,66.977 57.905,65.880 57.905 C 65.574 57.905,62.699 59.820,62.089 60.431 C 61.864 60.656,61.580 60.841,61.459 60.841 C 61.338 60.841,56.316 55.900,50.299 49.862 C 39.943 39.469,38.984 38.334,42.992 41.217 M108.518 39.159 C 106.070 41.935,86.780 60.820,86.557 60.659 C 86.392 60.539,85.285 59.792,84.097 59.000 C 82.910 58.208,81.990 57.476,82.054 57.372 C 82.118 57.269,84.944 55.275,88.333 52.941 C 94.051 49.005,97.668 46.489,98.347 45.976 C 98.502 45.859,98.826 45.644,99.067 45.497 C 99.309 45.350,100.263 44.703,101.188 44.058 C 102.112 43.413,103.829 42.222,105.003 41.411 C 106.177 40.600,107.424 39.716,107.774 39.448 C 108.416 38.955,108.845 38.789,108.518 39.159 M60.841 61.551 C 60.841 61.723,60.750 61.903,60.638 61.952 C 60.269 62.115,58.785 64.160,58.202 65.310 C 57.491 66.714,57.618 66.742,56.372 64.910 C 55.116 63.063,50.861 56.896,49.054 54.303 C 46.369 50.451,41.675 43.665,39.982 41.189 C 39.566 40.580,39.226 39.981,39.226 39.856 C 39.226 39.731,44.089 44.491,50.033 50.434 C 55.977 56.376,60.841 61.379,60.841 61.551 M108.347 41.140 C 107.094 42.861,102.246 49.846,99.027 54.570 C 97.927 56.184,96.540 58.185,95.945 59.017 C 95.350 59.848,94.212 61.469,93.415 62.619 C 92.619 63.769,91.677 65.107,91.322 65.592 L 90.676 66.475 90.142 65.459 C 89.848 64.900,89.089 63.775,88.454 62.958 L 87.301 61.473 98.135 50.620 C 108.687 40.051,110.085 38.752,108.347 41.140 M119.623 52.435 C 119.592 52.582,119.044 52.779,118.404 52.873 C 116.443 53.161,114.624 54.215,109.273 58.160 C 105.418 61.003,102.449 62.695,97.799 64.698 C 97.358 64.887,96.398 65.248,95.664 65.500 C 94.930 65.752,94.145 66.053,93.919 66.168 C 93.693 66.284,92.998 66.465,92.375 66.570 L 91.241 66.761 93.462 63.601 C 94.684 61.863,95.979 59.991,96.340 59.441 C 96.986 58.461,97.029 58.442,98.732 58.429 C 100.385 58.416,101.048 58.315,103.803 57.651 C 105.465 57.251,107.593 56.281,112.485 53.695 C 113.518 53.149,114.658 52.564,115.020 52.396 C 115.822 52.022,119.704 52.055,119.623 52.435 M120.480 53.369 C 120.574 53.521,120.341 53.636,119.936 53.636 C 118.069 53.636,116.107 55.110,113.570 58.421 C 111.366 61.296,109.449 63.164,107.114 64.714 C 104.769 66.271,99.454 68.872,98.999 68.686 C 98.779 68.595,97.638 68.358,96.464 68.158 C 92.742 67.523,92.123 67.353,92.728 67.133 C 93.022 67.026,93.446 66.843,93.671 66.726 C 93.896 66.608,94.493 66.422,94.997 66.311 C 95.501 66.200,96.097 66.017,96.322 65.904 C 96.547 65.791,97.272 65.487,97.932 65.229 C 102.220 63.550,105.838 61.444,111.154 57.532 C 114.963 54.728,116.710 53.743,118.492 53.393 C 120.147 53.069,120.294 53.067,120.480 53.369 M27.251 56.237 C 29.215 57.675,31.636 57.970,35.691 57.266 C 40.173 56.488,46.264 57.427,51.090 59.640 C 51.524 59.839,51.948 59.960,52.031 59.909 C 52.114 59.858,53.110 61.157,54.245 62.796 C 56.528 66.094,56.530 66.291,54.264 65.146 C 52.812 64.412,51.795 63.943,49.326 62.866 C 48.790 62.633,48.167 62.442,47.941 62.442 C 47.715 62.442,47.462 62.332,47.379 62.198 C 47.296 62.064,46.719 61.870,46.096 61.768 C 45.473 61.665,44.843 61.489,44.696 61.376 C 44.550 61.264,43.709 61.029,42.829 60.854 C 41.321 60.555,40.150 60.356,34.290 59.402 C 30.521 58.789,28.646 58.074,26.951 56.603 C 25.954 55.737,26.184 55.457,27.251 56.237 M79.843 57.444 C 94.696 62.836,95.851 83.589,81.654 89.985 C 80.700 90.415,79.718 90.874,79.470 91.005 C 79.223 91.136,77.932 91.384,76.602 91.554 C 71.835 92.165,67.729 91.163,63.909 88.454 C 55.374 82.402,54.032 70.024,61.083 62.388 C 63.865 59.375,67.213 57.464,70.981 56.739 C 72.825 56.383,78.070 56.801,79.843 57.444 M29.393 58.790 C 29.929 59.037,30.567 59.239,30.812 59.239 C 31.056 59.239,31.458 59.347,31.705 59.479 C 31.953 59.611,33.115 59.851,34.290 60.011 C 43.305 61.245,47.168 62.319,53.301 65.299 C 56.540 66.873,56.923 67.166,55.982 67.347 C 55.645 67.412,54.710 67.598,53.903 67.761 C 47.927 68.966,47.046 69.021,46.209 68.236 C 45.200 67.291,41.864 64.843,41.584 64.843 C 41.456 64.843,40.875 64.543,40.294 64.176 C 39.712 63.809,39.084 63.508,38.898 63.507 C 38.712 63.506,38.224 63.331,37.814 63.117 C 37.404 62.903,36.624 62.648,36.079 62.550 C 35.535 62.452,34.970 62.281,34.823 62.170 C 34.676 62.059,34.036 61.882,33.400 61.778 C 32.765 61.673,31.924 61.420,31.533 61.215 C 31.141 61.011,30.666 60.843,30.478 60.842 C 29.677 60.838,27.461 58.972,26.525 57.514 L 26.017 56.723 27.218 57.532 C 27.879 57.977,28.857 58.543,29.393 58.790 M80.454 64.263 C 79.669 64.416,76.358 66.672,76.037 67.271 C 75.551 68.179,76.417 68.141,77.816 67.193 C 79.518 66.041,83.119 65.905,85.046 66.920 C 86.432 67.650,87.258 67.690,87.258 67.027 C 87.258 65.926,82.282 63.904,80.454 64.263 M65.110 64.493 C 63.823 64.948,61.430 66.189,61.120 66.563 C 60.424 67.401,61.209 67.704,62.650 67.155 C 66.211 65.798,69.616 66.000,70.985 67.651 C 71.403 68.154,72.315 68.164,72.315 67.666 C 72.315 67.193,70.378 65.501,69.057 64.820 C 68.114 64.334,66.046 64.163,65.110 64.493 M68.572 65.106 C 70.236 65.956,70.045 66.044,66.542 66.044 C 64.009 66.044,63.168 66.131,62.995 66.412 C 62.866 66.621,62.626 66.692,62.438 66.575 C 62.096 66.364,62.701 66.028,65.110 65.090 C 66.702 64.470,67.331 64.473,68.572 65.106 M83.222 65.122 C 85.334 65.925,86.906 66.779,86.516 66.912 C 86.328 66.976,85.907 66.856,85.582 66.645 C 84.364 65.857,80.180 65.568,78.615 66.165 C 77.236 66.691,77.618 66.292,79.322 65.425 C 81.291 64.424,81.371 64.418,83.222 65.122 M64.310 68.041 C 62.656 68.938,61.743 69.873,62.339 70.061 C 62.903 70.238,62.987 70.286,64.531 71.314 C 66.316 72.503,70.136 72.144,70.652 70.738 C 70.738 70.505,70.923 70.236,71.064 70.142 C 71.542 69.822,70.970 68.565,70.106 68.038 C 68.921 67.315,65.646 67.317,64.310 68.041 M77.985 68.201 C 76.997 68.980,76.949 69.225,77.552 70.433 C 78.403 72.140,81.563 72.621,83.699 71.370 C 84.336 70.997,84.857 70.576,84.857 70.436 C 84.857 70.295,85.157 70.180,85.524 70.180 C 86.382 70.180,86.366 69.910,85.457 69.060 C 83.575 67.299,79.696 66.853,77.985 68.201 M68.767 68.063 L 69.633 68.349 69.096 68.926 C 68.800 69.243,68.490 69.775,68.406 70.108 C 68.323 70.441,68.079 70.714,67.865 70.714 C 67.597 70.714,67.529 70.880,67.645 71.247 C 67.787 71.695,67.694 71.781,67.063 71.777 C 66.033 71.772,65.757 71.532,65.549 70.465 C 65.080 68.057,66.205 67.218,68.767 68.063 M83.181 68.149 C 83.287 68.255,83.240 68.425,83.076 68.527 C 82.913 68.629,82.736 69.313,82.684 70.047 C 82.584 71.435,82.327 71.727,81.169 71.762 C 80.669 71.778,80.584 71.679,80.720 71.247 C 80.833 70.893,80.768 70.714,80.529 70.714 C 80.149 70.714,79.253 69.395,79.253 68.834 C 79.253 67.939,82.419 67.387,83.181 68.149 M94.330 68.325 C 94.917 68.464,96.117 68.694,96.998 68.837 C 98.608 69.098,101.691 69.650,105.404 70.342 C 106.504 70.547,108.426 70.896,109.673 71.118 C 110.921 71.340,112.902 71.700,114.076 71.919 C 115.250 72.137,117.231 72.498,118.479 72.721 C 125.322 73.944,126.074 73.856,108.560 73.887 L 92.371 73.916 92.184 72.115 C 92.082 71.124,91.834 69.833,91.633 69.246 C 91.433 68.659,91.267 68.083,91.265 67.967 C 91.261 67.746,92.489 67.890,94.330 68.325 M83.756 70.243 C 83.347 71.007,83.088 70.784,83.206 69.770 C 83.305 68.923,83.352 68.875,83.662 69.300 C 83.896 69.620,83.927 69.924,83.756 70.243 M65.110 69.913 C 65.110 70.354,64.990 70.714,64.843 70.714 C 64.696 70.714,64.576 70.354,64.576 69.913 C 64.576 69.473,64.696 69.113,64.843 69.113 C 64.990 69.113,65.110 69.473,65.110 69.913 M70.179 69.861 C 69.960 69.929,69.571 70.093,69.315 70.225 C 68.900 70.438,68.883 70.392,69.153 69.799 C 69.414 69.226,69.532 69.176,70.017 69.435 C 70.457 69.671,70.493 69.763,70.179 69.861 M79.514 70.555 C 79.517 70.688,79.300 70.598,79.032 70.355 C 78.763 70.112,78.320 69.913,78.047 69.913 C 77.572 69.913,77.573 69.896,78.068 69.527 C 78.583 69.144,79.495 69.792,79.514 70.555 M56.080 76.366 C 56.177 77.347,56.410 78.575,56.598 79.095 C 57.131 80.568,57.187 80.565,50.567 79.352 C 49.393 79.137,47.472 78.791,46.298 78.582 C 45.123 78.374,43.142 78.013,41.895 77.782 C 38.477 77.146,35.318 76.592,33.089 76.236 C 31.988 76.061,30.967 75.839,30.821 75.744 C 30.674 75.649,29.713 75.484,28.686 75.378 C 27.658 75.272,26.697 75.090,26.550 74.973 C 26.403 74.856,25.862 74.709,25.349 74.646 C 24.836 74.584,31.501 74.544,40.160 74.558 L 55.904 74.583 56.080 76.366 M122.615 74.759 C 121.229 75.082,116.870 75.901,110.874 76.965 C 109.553 77.200,107.512 77.571,106.338 77.789 C 105.163 78.008,103.182 78.366,101.935 78.586 C 100.687 78.805,98.706 79.165,97.532 79.385 C 91.093 80.594,91.139 80.596,91.641 79.109 C 91.838 78.528,92.082 77.241,92.184 76.251 L 92.371 74.450 108.027 74.480 C 118.335 74.501,123.318 74.596,122.615 74.759 M70.600 75.669 C 70.369 75.900,70.109 76.375,70.021 76.725 C 69.918 77.137,69.445 77.564,68.686 77.931 C 66.827 78.831,67.123 79.646,69.020 78.853 C 70.286 78.324,71.807 78.346,72.989 78.910 C 73.894 79.341,74.019 79.341,75.235 78.910 C 76.838 78.340,77.744 78.334,79.353 78.883 C 81.293 79.544,81.303 78.603,79.364 77.793 C 78.816 77.564,78.329 77.073,78.034 76.450 C 77.575 75.483,76.993 75.020,76.657 75.355 C 76.563 75.449,76.629 75.668,76.802 75.842 C 77.445 76.484,77.186 77.198,76.371 77.035 C 75.815 76.924,75.541 77.018,75.301 77.402 C 74.818 78.177,72.849 78.038,72.849 77.230 C 72.849 76.966,72.625 76.909,72.048 77.025 C 71.233 77.188,70.826 76.343,71.514 75.917 C 71.661 75.827,71.781 75.639,71.781 75.501 C 71.781 75.106,71.061 75.208,70.600 75.669 M72.421 77.936 C 72.485 78.000,71.896 78.052,71.112 78.052 C 69.816 78.052,69.723 78.013,70.077 77.620 C 70.437 77.220,71.903 77.418,72.421 77.936 M78.088 77.594 C 78.356 78.024,78.292 78.060,77.436 77.960 C 76.560 77.857,76.525 77.821,76.987 77.483 C 77.632 77.012,77.730 77.022,78.088 77.594 M74.983 78.452 C 74.983 78.599,74.623 78.719,74.183 78.719 C 73.742 78.719,73.382 78.599,73.382 78.452 C 73.382 78.306,73.742 78.185,74.183 78.185 C 74.623 78.185,74.983 78.306,74.983 78.452 M101.702 79.700 C 103.207 81.538,110.351 85.657,112.033 85.657 C 112.332 85.657,112.643 85.763,112.723 85.893 C 112.803 86.023,113.392 86.208,114.032 86.304 C 117.072 86.760,120.203 88.487,121.469 90.406 C 122.183 91.488,122.047 91.659,121.105 90.866 C 119.454 89.477,117.663 88.873,113.142 88.184 C 107.181 87.274,102.400 86.226,100.467 85.405 C 100.173 85.281,99.273 84.915,98.466 84.594 C 96.355 83.753,93.697 82.467,92.462 81.688 L 91.394 81.015 93.396 80.676 C 94.496 80.490,96.456 80.165,97.752 79.953 C 99.047 79.742,100.177 79.498,100.264 79.411 C 100.571 79.104,101.340 79.258,101.702 79.700 M51.234 80.045 C 52.188 80.194,53.738 80.467,54.678 80.651 L 56.387 80.987 53.877 81.767 C 50.521 82.810,45.760 84.895,43.763 86.197 C 41.035 87.976,37.779 90.212,36.485 91.197 C 32.981 93.862,29.853 95.302,27.711 95.236 C 26.934 95.212,27.046 95.134,28.569 94.635 C 31.206 93.773,32.102 93.109,34.081 90.552 C 36.263 87.734,39.849 84.056,40.416 84.056 C 40.481 84.056,41.073 83.692,41.733 83.247 C 43.602 81.985,48.654 79.522,49.099 79.655 C 49.320 79.721,50.280 79.896,51.234 80.045 M70.436 80.871 C 70.075 80.974,69.136 81.253,68.348 81.490 C 66.455 82.061,65.723 82.069,66.183 81.515 C 66.764 80.814,66.194 80.715,65.530 81.402 C 64.803 82.153,64.389 83.256,64.834 83.256 C 64.995 83.256,65.196 83.075,65.280 82.855 C 65.519 82.232,66.052 82.365,68.423 83.636 C 72.504 85.824,77.922 85.768,80.053 83.515 C 80.743 82.787,82.481 82.396,82.989 82.856 C 83.829 83.616,83.715 82.357,82.867 81.509 C 82.051 80.693,81.512 80.623,81.921 81.388 C 82.303 82.101,81.732 82.097,79.488 81.371 C 77.711 80.796,71.834 80.471,70.436 80.871 M78.513 81.608 C 78.685 81.780,79.102 81.921,79.440 81.921 C 79.777 81.921,80.053 82.047,80.053 82.200 C 80.053 82.618,78.800 83.789,78.353 83.789 C 78.139 83.789,77.913 83.939,77.852 84.123 C 77.603 84.873,71.766 84.724,70.076 83.925 C 68.329 83.099,67.417 81.927,68.512 81.917 C 68.769 81.915,69.427 81.757,69.974 81.567 C 71.258 81.119,78.057 81.152,78.513 81.608 M55.225 83.989 C 54.331 85.274,53.102 87.062,52.493 87.964 C 51.318 89.704,50.825 89.927,48.150 89.927 C 46.771 89.927,42.092 91.198,41.227 91.808 C 41.081 91.911,40.660 92.088,40.294 92.201 C 39.927 92.314,39.206 92.669,38.692 92.990 C 34.385 95.682,31.914 96.517,29.312 96.161 C 27.996 95.980,27.948 95.950,28.686 95.765 C 29.126 95.655,29.933 95.450,30.479 95.311 C 31.919 94.942,34.167 93.620,37.358 91.265 C 42.645 87.363,50.391 82.989,52.012 82.989 C 52.175 82.989,52.517 82.876,52.772 82.738 C 53.477 82.356,55.561 81.726,56.243 81.688 C 56.789 81.658,56.686 81.889,55.225 83.989 M58.707 83.759 C 59.307 84.770,60.033 85.809,60.320 86.069 C 60.606 86.328,60.841 86.612,60.841 86.701 C 60.841 86.873,40.185 107.675,39.354 108.339 C 38.854 108.738,40.311 106.554,46.027 98.330 C 46.690 97.377,47.788 95.787,48.469 94.797 C 52.197 89.370,57.431 81.921,57.517 81.921 C 57.570 81.921,58.106 82.748,58.707 83.759 M91.479 82.789 C 91.775 83.266,92.981 85.037,94.159 86.724 C 95.337 88.412,96.698 90.372,97.183 91.079 C 97.668 91.787,98.185 92.507,98.332 92.680 C 98.479 92.854,99.537 94.376,100.683 96.064 C 102.694 99.025,106.022 103.829,108.176 106.882 C 108.747 107.691,109.162 108.405,109.098 108.469 C 109.035 108.533,104.097 103.696,98.125 97.721 L 87.267 86.858 88.335 85.524 C 88.922 84.790,89.662 83.679,89.979 83.055 C 90.671 81.693,90.787 81.673,91.479 82.789 M69.446 82.365 C 68.795 82.628,69.127 83.219,70.113 83.551 C 71.409 83.986,77.283 83.998,77.715 83.566 C 77.886 83.395,78.302 83.256,78.639 83.256 C 79.337 83.256,79.476 82.598,78.831 82.350 C 78.329 82.157,69.928 82.171,69.446 82.365 M93.625 82.971 C 97.524 84.998,103.617 87.258,105.185 87.258 C 105.471 87.258,105.911 87.368,106.163 87.503 C 106.415 87.638,107.457 87.875,108.480 88.030 C 117.852 89.450,119.573 89.953,121.441 91.822 C 122.180 92.560,122.061 92.712,121.214 92.110 C 119.308 90.756,114.508 90.120,112.857 91.004 C 111.741 91.601,103.076 90.979,101.634 90.198 C 101.395 90.069,100.763 89.881,100.230 89.781 C 99.697 89.681,99.194 89.493,99.114 89.363 C 99.034 89.233,98.765 89.125,98.517 89.124 C 98.268 89.124,97.721 88.943,97.301 88.724 C 96.881 88.505,96.382 88.326,96.193 88.326 C 96.004 88.326,95.608 87.935,95.313 87.458 C 95.017 86.981,94.180 85.733,93.451 84.683 C 91.777 82.273,91.726 82.188,91.942 82.188 C 92.040 82.188,92.797 82.540,93.625 82.971 M77.652 82.955 C 77.652 83.471,73.698 83.723,71.448 83.351 C 69.380 83.009,70.569 82.722,74.049 82.722 C 76.031 82.722,77.652 82.827,77.652 82.955 M72.849 86.858 C 72.849 87.160,73.175 87.258,74.183 87.258 C 75.191 87.258,75.517 87.160,75.517 86.858 C 75.517 86.555,75.191 86.458,74.183 86.458 C 73.175 86.458,72.849 86.555,72.849 86.858 M63.098 88.678 C 63.397 88.946,64.213 89.486,64.910 89.879 C 66.454 90.750,66.466 90.935,65.035 91.838 C 64.416 92.230,62.528 93.516,60.841 94.698 C 59.153 95.880,56.451 97.742,54.837 98.837 C 53.222 99.931,50.881 101.546,49.633 102.426 C 48.386 103.306,46.164 104.844,44.696 105.842 C 43.229 106.841,41.572 108.006,41.015 108.431 C 38.583 110.286,40.416 108.321,50.628 98.124 C 62.664 86.106,61.340 87.109,63.098 88.678 M108.476 109.091 C 108.416 109.151,107.550 108.624,106.552 107.920 C 105.553 107.216,104.136 106.248,103.402 105.768 C 102.668 105.288,101.948 104.795,101.801 104.673 C 101.654 104.551,100.153 103.500,98.466 102.339 C 87.862 95.042,82.056 90.963,81.982 90.760 C 81.943 90.650,82.423 90.299,83.050 89.981 C 83.677 89.662,84.790 88.928,85.524 88.350 L 86.858 87.299 97.721 98.141 C 103.696 104.104,108.536 109.032,108.476 109.091 M68.726 91.513 C 68.865 91.652,70.090 91.908,71.448 92.082 L 73.916 92.398 73.888 108.707 C 73.863 122.924,73.816 124.760,73.516 123.015 C 73.059 120.347,72.401 116.665,71.943 114.209 C 70.909 108.662,70.645 107.225,70.278 105.137 C 70.058 103.889,69.776 102.232,69.650 101.454 C 69.525 100.676,69.298 99.475,69.146 98.786 C 68.994 98.096,68.674 96.451,68.436 95.130 C 68.198 93.809,67.944 92.398,67.870 91.995 C 67.733 91.241,68.193 90.982,68.726 91.513 M80.304 91.995 C 80.296 92.398,80.185 93.269,80.058 93.929 C 79.568 96.491,78.966 99.763,78.586 101.935 C 78.368 103.182,77.998 105.223,77.765 106.471 C 77.179 109.605,76.628 112.620,76.182 115.143 C 75.395 119.588,74.976 121.849,74.747 122.882 C 74.600 123.549,74.499 118.034,74.480 108.174 L 74.450 92.399 76.726 92.105 C 77.978 91.944,79.209 91.691,79.461 91.544 C 80.176 91.128,80.321 91.205,80.304 91.995 M84.323 93.241 C 85.424 93.986,86.384 94.658,86.458 94.733 C 86.531 94.809,87.274 95.334,88.108 95.900 L 89.624 96.929 89.775 98.698 C 90.139 102.951,91.040 105.976,93.040 109.648 C 94.979 113.210,95.972 115.125,95.996 115.347 C 96.009 115.460,96.098 116.020,96.194 116.593 C 96.411 117.873,96.093 120.292,95.776 119.779 C 95.655 119.584,95.478 118.957,95.381 118.387 C 95.051 116.434,94.557 115.559,90.850 110.361 C 85.914 103.441,81.669 94.952,81.656 91.979 C 81.654 91.420,81.593 91.391,84.323 93.241 M65.961 92.262 C 65.851 92.518,65.209 93.869,64.533 95.264 C 63.857 96.658,63.098 98.399,62.845 99.133 C 62.592 99.867,62.287 100.707,62.167 101.001 C 61.269 103.197,60.282 107.830,59.468 113.676 C 58.988 117.120,57.735 120.253,56.328 121.526 C 55.886 121.926,55.967 121.646,56.701 120.239 C 57.815 118.101,57.889 116.878,57.200 111.980 C 56.558 107.419,57.275 102.960,59.525 97.532 C 59.646 97.238,59.782 96.766,59.826 96.482 C 59.872 96.193,60.720 95.412,61.753 94.707 C 64.499 92.835,64.596 92.767,65.210 92.270 C 65.942 91.679,66.211 91.676,65.961 92.262 M67.528 93.193 C 67.638 93.818,67.933 95.410,68.184 96.731 C 69.039 101.233,69.038 101.266,67.863 102.542 C 65.215 105.420,63.540 108.627,62.191 113.409 C 61.264 116.693,60.782 118.027,60.166 119.014 C 59.482 120.110,57.517 121.950,57.037 121.944 C 56.803 121.941,56.793 121.882,57.002 121.744 C 58.078 121.034,59.540 117.135,60.027 113.676 C 60.615 109.490,61.555 104.516,61.916 103.669 C 62.041 103.376,62.222 102.737,62.318 102.250 C 62.414 101.763,62.660 101.043,62.865 100.649 C 63.071 100.255,63.240 99.782,63.241 99.596 C 63.241 99.411,63.358 99.050,63.500 98.796 C 63.641 98.541,64.009 97.732,64.316 96.998 C 65.530 94.104,66.911 91.638,67.173 91.900 C 67.258 91.986,67.419 92.568,67.528 93.193 M81.688 94.277 C 83.681 100.269,85.652 104.130,89.249 109.094 C 90.136 110.317,91.035 111.578,91.249 111.896 C 91.463 112.214,91.956 112.895,92.344 113.409 C 94.030 115.638,95.441 119.202,95.207 120.640 C 95.121 121.164,95.038 121.061,94.753 120.080 C 93.874 117.062,93.205 116.173,89.929 113.674 C 85.894 110.597,83.595 107.765,81.251 102.982 C 80.573 101.599,79.907 100.258,79.769 100.004 C 79.455 99.420,79.454 98.855,79.766 97.817 C 79.902 97.367,80.230 95.797,80.494 94.330 C 80.759 92.862,81.020 91.901,81.074 92.195 C 81.129 92.488,81.405 93.425,81.688 94.277 M111.433 111.499 C 111.341 111.649,111.396 111.851,111.554 111.950 C 111.965 112.203,112.229 111.856,111.887 111.513 C 111.695 111.322,111.546 111.317,111.433 111.499 " stroke="none" fill="#87650c" fill-rule="evenodd"></path></g></svg>