<svg id="svg" version="1.1" xmlns="http://www.w3.org/2000/svg" xmlns:xlink="http://www.w3.org/1999/xlink" width="400" height="115.43624161073825" viewBox="0, 0, 400,115.43624161073825"><g id="svgg"><path id="path0" d="M60.476 4.792 C 59.277 7.244,57.901 10.075,57.417 11.083 C 56.932 12.092,55.658 14.717,54.583 16.917 C 52.356 21.479,50.465 25.364,48.539 29.333 C 47.806 30.846,46.438 33.658,45.500 35.583 C 41.808 43.160,40.742 45.351,39.499 47.917 C 38.788 49.383,37.439 52.158,36.501 54.083 C 35.564 56.008,34.309 58.596,33.713 59.833 C 33.117 61.071,32.224 62.903,31.729 63.904 C 31.174 65.028,30.867 65.843,30.927 66.033 C 30.981 66.202,33.560 71.458,36.658 77.712 C 39.756 83.966,44.772 94.090,47.804 100.208 C 50.835 106.327,53.358 111.333,53.409 111.333 C 53.461 111.333,53.793 110.715,54.148 109.958 C 54.502 109.202,55.167 107.796,55.625 106.833 C 56.084 105.871,56.796 104.371,57.208 103.500 C 57.621 102.629,58.333 101.129,58.792 100.167 C 59.250 99.204,59.944 97.742,60.333 96.917 C 60.722 96.092,61.490 94.479,62.040 93.333 C 62.590 92.188,63.285 90.725,63.584 90.083 C 63.884 89.442,64.594 87.942,65.162 86.750 C 65.731 85.558,66.972 82.933,67.920 80.917 C 68.869 78.900,70.062 76.404,70.572 75.369 C 71.083 74.335,71.500 73.461,71.500 73.429 C 71.500 73.396,72.015 72.293,72.644 70.976 C 73.274 69.660,74.072 67.983,74.418 67.250 C 74.765 66.517,75.458 65.054,75.959 64.000 C 77.263 61.258,79.765 55.980,80.502 54.417 C 80.847 53.683,81.652 51.996,82.291 50.667 C 82.929 49.337,83.661 47.800,83.917 47.250 C 84.173 46.700,84.867 45.237,85.460 44.000 C 86.052 42.762,87.119 40.512,87.831 39.000 C 88.542 37.487,89.555 35.350,90.080 34.250 C 90.606 33.150,91.301 31.688,91.624 31.000 C 91.946 30.313,92.763 28.598,93.439 27.190 C 94.114 25.782,94.667 24.609,94.667 24.583 C 94.667 24.556,95.274 23.271,96.017 21.726 C 97.731 18.161,98.556 16.426,100.168 13.000 C 100.880 11.487,102.030 9.067,102.725 7.621 C 103.420 6.175,104.415 4.075,104.937 2.954 C 105.458 1.833,105.948 0.835,106.024 0.735 C 106.318 0.351,105.363 0.333,84.300 0.333 L 62.655 0.333 60.476 4.792 " stroke="none" fill="#fc1454" fill-rule="evenodd"></path><path id="path1" d="M0.384 0.542 C 0.931 1.867,1.607 3.275,1.745 3.372 C 1.839 3.440,1.866 3.496,1.805 3.497 C 1.743 3.499,1.875 3.841,2.097 4.259 C 2.318 4.676,2.500 5.087,2.500 5.172 C 2.500 5.257,2.753 5.871,3.063 6.538 C 3.373 7.205,3.678 7.919,3.741 8.125 C 3.804 8.331,3.926 8.500,4.011 8.500 C 4.097 8.500,4.153 8.556,4.136 8.625 C 4.119 8.694,4.237 9.050,4.400 9.417 C 4.562 9.783,4.844 10.458,5.027 10.915 C 5.210 11.373,5.411 11.785,5.473 11.832 C 5.534 11.878,5.690 12.217,5.818 12.583 C 5.946 12.950,6.376 13.944,6.775 14.793 C 7.174 15.641,7.500 16.410,7.500 16.501 C 7.500 16.592,7.575 16.667,7.667 16.667 C 7.758 16.667,7.819 16.723,7.802 16.792 C 7.785 16.860,7.898 17.207,8.052 17.562 C 8.207 17.917,8.333 18.231,8.333 18.260 C 8.333 18.290,8.624 18.937,8.980 19.698 C 9.335 20.460,10.208 22.396,10.920 24.000 C 11.631 25.604,12.455 27.442,12.751 28.083 C 13.047 28.725,13.571 29.887,13.916 30.667 C 14.261 31.446,14.840 32.721,15.203 33.500 C 15.566 34.279,15.844 34.917,15.820 34.917 C 15.796 34.917,15.881 35.104,16.008 35.333 C 16.134 35.563,16.247 35.787,16.258 35.833 C 16.268 35.879,16.440 36.279,16.639 36.722 C 16.837 37.165,17.000 37.548,17.000 37.573 C 17.000 37.598,17.329 38.323,17.732 39.184 C 18.134 40.045,18.484 40.825,18.510 40.917 C 18.535 41.008,18.731 41.432,18.944 41.858 C 19.158 42.283,19.333 42.673,19.333 42.723 C 19.333 42.773,19.641 43.474,20.016 44.282 C 21.330 47.108,21.472 47.422,21.762 48.148 C 22.105 49.005,22.229 48.919,22.940 47.333 C 23.377 46.358,23.396 46.318,25.564 41.833 C 26.339 40.229,27.025 38.710,27.088 38.458 C 27.151 38.206,27.265 38.000,27.340 38.000 C 27.416 38.000,27.531 37.831,27.596 37.625 C 27.661 37.419,28.294 36.050,29.002 34.583 C 30.590 31.295,31.073 30.274,31.092 30.167 C 31.100 30.121,31.673 28.921,32.366 27.500 C 33.589 24.992,34.876 22.308,36.004 19.917 C 36.306 19.275,37.329 17.152,38.277 15.198 C 39.225 13.244,40.000 11.614,40.000 11.574 C 40.000 11.535,40.627 10.209,41.394 8.627 C 42.160 7.044,43.067 5.150,43.409 4.417 C 43.752 3.683,44.287 2.567,44.599 1.936 C 44.911 1.305,45.167 0.686,45.167 0.561 C 45.167 0.370,41.582 0.333,22.732 0.333 C 4.850 0.333,0.315 0.376,0.384 0.542 M123.901 1.292 C 123.649 1.819,122.819 3.529,122.055 5.093 C 121.291 6.657,120.667 8.026,120.667 8.135 C 120.667 8.244,120.597 8.333,120.511 8.333 C 120.426 8.333,120.302 8.502,120.237 8.708 C 120.127 9.053,119.132 11.122,115.126 19.333 C 112.031 25.678,110.359 29.132,109.598 30.750 C 109.168 31.667,108.743 32.529,108.654 32.667 C 108.566 32.804,108.374 33.179,108.228 33.500 C 108.082 33.821,107.229 35.583,106.334 37.417 C 103.199 43.834,99.980 50.466,97.718 55.167 C 97.211 56.221,96.716 57.233,96.619 57.417 C 96.071 58.447,93.768 63.191,93.746 63.333 C 93.739 63.379,93.455 63.960,93.115 64.625 L 92.496 65.833 94.170 69.197 C 95.090 71.048,95.925 72.660,96.025 72.781 C 96.126 72.901,96.168 73.000,96.119 73.000 C 96.070 73.000,97.418 75.794,99.115 79.208 C 100.812 82.623,102.737 86.504,103.392 87.833 C 104.047 89.162,104.658 90.305,104.750 90.372 C 104.842 90.440,104.855 90.496,104.780 90.497 C 104.704 90.499,104.798 90.698,104.988 90.939 C 105.178 91.181,105.333 91.470,105.333 91.581 C 105.333 91.693,106.523 94.176,107.977 97.100 C 109.431 100.024,111.398 103.992,112.348 105.917 C 113.298 107.842,114.139 109.463,114.218 109.519 C 114.297 109.575,114.347 109.673,114.329 109.737 C 114.286 109.892,115.056 111.333,115.183 111.333 C 115.280 111.333,115.758 110.231,115.789 109.935 C 115.798 109.854,115.891 109.734,115.997 109.669 C 116.102 109.603,116.209 109.445,116.234 109.317 C 116.259 109.188,116.642 108.333,117.086 107.417 C 117.529 106.500,118.447 104.587,119.126 103.167 C 119.806 101.746,120.500 100.310,120.669 99.975 C 120.839 99.640,120.933 99.321,120.878 99.267 C 120.823 99.212,120.865 99.167,120.972 99.167 C 121.079 99.167,121.167 99.091,121.167 98.998 C 121.167 98.906,121.663 97.800,122.269 96.540 C 123.578 93.819,125.164 90.481,126.999 86.583 C 127.387 85.758,128.137 84.183,128.666 83.083 C 129.195 81.983,129.871 80.558,130.168 79.917 C 130.465 79.275,131.197 77.737,131.793 76.500 C 132.390 75.262,133.176 73.612,133.541 72.833 C 133.906 72.054,134.433 70.929,134.713 70.333 C 134.994 69.737,135.232 69.212,135.244 69.167 C 135.256 69.121,135.468 68.692,135.716 68.214 C 135.964 67.736,136.167 67.236,136.167 67.103 C 136.167 66.970,136.231 66.836,136.310 66.806 C 136.389 66.775,136.923 65.737,137.498 64.500 C 138.072 63.262,139.102 61.087,139.786 59.667 C 140.470 58.246,141.205 56.708,141.419 56.250 C 141.922 55.172,143.318 52.221,144.375 50.000 C 144.834 49.038,145.601 47.425,146.081 46.417 C 146.560 45.408,147.011 44.396,147.082 44.167 C 147.153 43.938,147.264 43.712,147.329 43.667 C 147.393 43.621,147.847 42.721,148.338 41.667 C 148.829 40.612,149.732 38.700,150.344 37.417 C 150.957 36.133,151.846 34.258,152.320 33.250 C 152.794 32.242,153.289 31.221,153.420 30.982 C 153.551 30.742,153.610 30.499,153.551 30.440 C 153.492 30.381,153.532 30.333,153.639 30.333 C 153.746 30.333,153.833 30.245,153.833 30.138 C 153.833 30.030,154.388 28.811,155.066 27.429 C 155.743 26.047,156.579 24.317,156.923 23.583 C 157.266 22.850,157.996 21.313,158.544 20.167 C 159.514 18.137,160.510 16.032,161.541 13.833 C 161.820 13.237,162.675 11.450,163.441 9.861 C 164.207 8.271,164.833 6.930,164.833 6.879 C 164.833 6.779,166.414 3.466,167.162 2.000 C 167.419 1.496,167.680 0.915,167.742 0.708 L 167.856 0.333 146.107 0.333 L 124.358 0.333 123.901 1.292 M186.500 57.667 L 186.500 115.000 201.750 115.000 L 217.000 115.000 217.000 57.667 L 217.000 0.333 201.750 0.333 L 186.500 0.333 186.500 57.667 M328.000 13.417 L 328.000 26.500 356.227 26.500 L 384.455 26.500 384.871 25.875 C 385.100 25.531,385.473 24.912,385.699 24.500 C 385.926 24.087,386.536 23.019,387.055 22.126 C 387.575 21.233,388.000 20.453,388.000 20.392 C 388.000 20.331,388.191 20.031,388.425 19.724 C 388.659 19.417,388.790 19.166,388.717 19.164 C 388.643 19.163,388.667 19.106,388.769 19.039 C 388.872 18.972,389.118 18.617,389.317 18.250 C 389.517 17.883,390.236 16.646,390.917 15.500 C 392.357 13.074,393.064 11.803,393.075 11.619 C 393.080 11.547,393.160 11.434,393.255 11.369 C 393.349 11.304,393.830 10.537,394.323 9.667 C 394.817 8.796,395.546 7.541,395.944 6.878 C 396.341 6.215,396.667 5.605,396.667 5.523 C 396.667 5.441,396.778 5.281,396.915 5.168 C 397.051 5.055,397.122 4.896,397.072 4.814 C 397.021 4.733,397.041 4.667,397.115 4.667 C 397.190 4.667,397.437 4.310,397.665 3.875 C 397.893 3.440,398.139 3.008,398.212 2.917 C 398.432 2.639,399.667 0.525,399.667 0.426 C 399.667 0.375,383.542 0.333,363.833 0.333 L 328.000 0.333 328.000 13.417 M270.463 0.840 C 268.314 1.160,266.279 1.578,265.250 1.910 C 264.883 2.029,264.021 2.299,263.333 2.511 C 262.646 2.723,262.046 2.946,262.000 3.006 C 261.954 3.066,261.692 3.170,261.417 3.237 C 260.858 3.373,256.814 5.275,256.673 5.467 C 256.624 5.535,256.372 5.683,256.114 5.797 C 255.042 6.268,250.833 9.216,250.833 9.495 C 250.833 9.577,250.702 9.687,250.542 9.739 C 249.886 9.951,245.436 14.569,244.544 15.964 C 244.385 16.213,244.146 16.529,244.013 16.667 C 241.539 19.227,238.051 27.420,237.153 32.781 C 237.048 33.405,236.929 34.104,236.888 34.333 C 236.455 36.766,236.458 41.020,236.896 44.833 C 237.389 49.134,239.677 55.661,242.037 59.500 C 244.958 64.253,249.124 68.780,252.926 71.333 C 256.998 74.068,256.826 74.012,257.405 72.792 C 258.396 70.704,260.368 66.402,260.405 66.250 C 260.427 66.158,260.832 65.280,261.306 64.298 C 261.779 63.316,262.167 62.406,262.167 62.277 C 262.167 62.147,262.279 61.947,262.417 61.833 C 262.554 61.719,262.667 61.562,262.667 61.484 C 262.667 61.407,263.385 59.785,264.262 57.880 C 265.140 55.975,265.995 54.117,266.162 53.750 C 266.330 53.383,266.783 52.408,267.170 51.583 C 267.557 50.758,267.978 49.790,268.106 49.431 C 268.233 49.072,268.404 48.697,268.485 48.598 C 268.712 48.319,271.849 41.516,271.920 41.151 C 271.954 40.973,272.099 40.711,272.241 40.569 C 272.383 40.426,272.500 40.238,272.500 40.151 C 272.500 40.064,272.792 39.376,273.149 38.622 C 273.713 37.432,275.616 33.303,277.201 29.833 C 277.473 29.238,277.908 28.300,278.167 27.750 C 278.427 27.200,279.028 25.887,279.504 24.833 C 280.576 22.459,281.018 21.499,281.933 19.557 C 282.329 18.718,282.701 17.836,282.761 17.599 C 282.821 17.361,282.931 17.167,283.007 17.167 C 283.082 17.167,283.196 16.998,283.260 16.792 C 283.324 16.585,283.659 15.817,284.005 15.083 C 286.167 10.496,288.833 4.634,288.833 4.470 C 288.833 4.363,288.937 4.158,289.064 4.013 C 289.823 3.145,289.592 2.839,287.750 2.273 C 285.332 1.530,283.886 1.218,280.667 0.746 C 278.882 0.484,272.448 0.543,270.463 0.840 M288.510 42.227 C 288.203 42.943,288.034 43.311,286.683 46.218 C 286.307 47.026,286.000 47.721,286.000 47.763 C 286.000 47.805,285.692 48.495,285.315 49.295 C 284.938 50.095,284.495 51.050,284.329 51.417 C 284.164 51.783,283.647 52.894,283.181 53.885 C 282.715 54.876,282.333 55.718,282.333 55.756 C 282.333 55.794,281.808 56.922,281.167 58.262 C 280.525 59.602,280.000 60.724,280.000 60.756 C 280.000 60.788,279.693 61.474,279.317 62.282 C 278.607 63.810,278.485 64.076,276.920 67.500 C 276.396 68.646,275.793 69.958,275.580 70.417 C 274.339 73.083,273.833 74.194,273.833 74.258 C 273.833 74.297,273.308 75.424,272.667 76.762 C 272.025 78.099,271.500 79.222,271.500 79.257 C 271.500 79.318,271.288 79.780,269.600 83.389 C 269.178 84.290,268.833 85.057,268.833 85.095 C 268.833 85.132,268.413 86.044,267.898 87.123 C 267.384 88.201,266.946 89.158,266.924 89.250 C 266.902 89.342,266.724 89.754,266.529 90.167 C 266.334 90.579,266.172 91.010,266.170 91.125 C 266.168 91.240,266.110 91.334,266.042 91.334 C 265.973 91.334,265.776 91.691,265.605 92.126 C 265.434 92.561,265.086 93.329,264.832 93.833 C 264.578 94.337,264.367 94.787,264.364 94.833 C 264.361 94.879,264.042 95.592,263.655 96.417 C 262.499 98.886,261.728 100.539,261.363 101.333 C 261.174 101.746,260.459 103.297,259.776 104.780 C 259.092 106.264,258.576 107.520,258.628 107.572 C 258.680 107.624,258.635 107.667,258.528 107.667 C 258.421 107.667,258.347 107.723,258.364 107.792 C 258.380 107.860,258.090 108.554,257.719 109.333 C 256.784 111.295,256.276 112.499,256.352 112.573 C 256.413 112.633,258.438 113.251,260.250 113.764 C 265.321 115.199,273.259 115.290,278.817 113.978 C 279.915 113.718,283.885 112.487,284.083 112.344 C 284.175 112.278,284.625 112.088,285.083 111.921 C 286.092 111.553,288.955 110.137,289.899 109.539 C 290.276 109.301,290.996 108.846,291.500 108.528 C 294.241 106.801,297.262 104.162,299.750 101.321 C 301.227 99.634,303.500 96.437,303.500 96.045 C 303.500 95.929,303.572 95.833,303.660 95.833 C 304.294 95.833,307.488 87.893,308.330 84.223 C 309.323 79.896,309.451 70.610,308.549 68.333 C 308.494 68.196,308.428 67.978,308.402 67.849 C 307.962 65.662,306.803 61.787,306.393 61.131 C 306.320 61.013,306.246 60.825,306.229 60.714 C 306.106 59.909,302.943 54.167,302.621 54.167 C 302.524 54.167,302.490 54.122,302.545 54.066 C 302.600 54.011,302.375 53.580,302.044 53.108 C 299.579 49.589,296.505 46.556,292.391 43.583 C 291.632 43.035,289.101 41.500,288.956 41.500 C 288.882 41.500,288.681 41.827,288.510 42.227 M328.000 58.083 L 328.000 69.333 345.000 69.333 L 362.000 69.333 362.000 58.083 L 362.000 46.833 345.000 46.833 L 328.000 46.833 328.000 58.083 M328.000 101.917 L 328.000 115.000 363.833 115.000 C 383.542 115.000,399.667 114.950,399.667 114.890 C 399.667 114.829,399.454 114.435,399.194 114.015 C 398.934 113.594,398.397 112.688,398.000 112.000 C 397.604 111.313,397.163 110.563,397.019 110.333 C 396.876 110.104,396.616 109.654,396.442 109.333 C 396.267 109.013,396.041 108.695,395.937 108.628 C 395.834 108.560,395.811 108.504,395.886 108.503 C 395.961 108.501,395.881 108.294,395.709 108.042 C 395.536 107.790,394.953 106.796,394.413 105.833 C 393.873 104.871,393.390 104.046,393.339 104.000 C 393.289 103.954,393.031 103.504,392.766 103.000 C 392.501 102.496,392.195 101.971,392.086 101.833 C 391.976 101.696,391.406 100.739,390.818 99.706 C 389.221 96.900,389.045 96.605,388.804 96.337 C 388.683 96.202,388.599 96.072,388.619 96.049 C 388.660 96.001,388.389 95.499,387.345 93.694 C 386.939 92.991,386.326 91.929,385.982 91.333 C 385.639 90.737,385.159 89.931,384.916 89.542 L 384.474 88.833 356.237 88.833 L 328.000 88.833 328.000 101.917 " stroke="none" fill="#0c0c0c" fill-rule="evenodd"></path><path id="path2" d="" stroke="none" fill="#141414" fill-rule="evenodd"></path><path id="path3" d="" stroke="none" fill="#0c0c14" fill-rule="evenodd"></path><path id="path4" d="" stroke="none" fill="#1001430" fill-rule="evenodd"></path></g></svg>