<svg id="svg" version="1.1" xmlns="http://www.w3.org/2000/svg" xmlns:xlink="http://www.w3.org/1999/xlink" width="400" height="400" viewBox="0, 0, 400,400"><g id="svgg"><path id="path0" d="M66.245 126.500 C 66.612 127.215,67.671 129.150,68.600 130.800 C 69.528 132.450,71.059 135.234,72.000 136.988 C 72.942 138.741,74.017 140.721,74.390 141.388 C 74.762 142.054,77.372 146.830,80.190 152.000 C 83.008 157.170,85.759 162.210,86.304 163.200 C 86.850 164.190,87.929 166.170,88.703 167.600 C 89.477 169.030,91.051 171.910,92.200 174.000 C 93.350 176.090,94.880 178.880,95.600 180.200 C 97.927 184.464,101.444 190.928,103.001 193.800 C 103.836 195.340,105.363 198.130,106.395 200.000 C 107.427 201.870,109.045 204.840,109.991 206.600 C 110.938 208.360,111.841 209.980,111.999 210.200 C 112.157 210.420,113.211 212.337,114.343 214.461 L 116.400 218.321 116.400 246.764 L 116.400 275.207 137.700 275.104 L 159.000 275.000 159.103 246.520 L 159.205 218.040 160.459 215.720 C 161.149 214.444,163.734 209.710,166.204 205.200 C 173.375 192.106,184.797 171.214,186.213 168.600 C 188.241 164.856,196.772 149.227,198.002 147.000 C 198.610 145.900,199.691 143.920,200.404 142.600 C 202.133 139.398,206.347 131.643,208.149 128.345 C 208.947 126.884,209.600 125.579,209.600 125.445 C 209.600 125.310,199.012 125.200,186.071 125.200 L 162.542 125.200 161.199 128.100 C 160.460 129.695,158.792 133.250,157.492 136.000 C 156.192 138.750,154.353 142.710,153.405 144.800 C 152.457 146.890,150.313 151.453,148.641 154.940 C 146.968 158.427,145.600 161.353,145.600 161.442 C 145.600 161.530,144.807 163.267,143.838 165.302 C 142.869 167.336,141.171 170.935,140.064 173.300 C 137.676 178.404,137.717 178.390,136.015 174.700 C 134.810 172.090,130.868 163.650,127.092 155.600 C 126.319 153.950,124.427 149.900,122.888 146.600 C 121.349 143.300,119.208 138.710,118.129 136.400 C 117.050 134.090,115.455 130.627,114.584 128.704 L 113.000 125.207 89.290 125.204 L 65.579 125.200 66.245 126.500 M229.885 130.516 C 228.408 133.225,227.200 135.563,227.200 135.714 C 227.200 135.864,231.997 136.035,237.861 136.093 L 248.522 136.200 248.561 138.866 C 248.631 143.658,252.069 146.942,256.800 146.739 L 259.000 146.645 259.103 169.682 L 259.206 192.719 257.939 193.161 C 250.916 195.610,250.646 204.511,257.500 207.604 L 259.200 208.372 259.200 232.221 L 259.200 256.070 257.645 255.808 C 252.628 254.960,247.846 259.795,248.661 264.893 L 248.913 266.470 225.957 266.180 C 211.420 265.996,202.905 265.743,202.742 265.490 C 202.601 265.270,202.371 264.382,202.233 263.517 C 201.886 261.349,198.797 258.238,196.578 257.823 C 193.822 257.308,194.000 259.067,194.000 232.405 L 194.000 208.108 195.896 207.132 C 200.890 204.562,201.728 197.874,197.463 194.621 C 196.727 194.059,195.961 193.601,195.762 193.602 C 195.401 193.603,193.113 197.669,184.936 212.832 L 183.732 215.065 183.459 245.142 C 183.240 269.269,183.286 275.252,183.693 275.385 C 184.143 275.531,198.217 275.789,254.301 276.678 L 270.002 276.927 269.901 201.364 L 269.800 125.800 251.185 125.696 L 232.571 125.592 229.885 130.516 M275.600 136.200 L 275.600 141.600 278.350 141.600 L 281.100 141.600 281.076 144.133 C 281.043 147.612,283.057 150.656,286.100 151.728 C 286.955 152.029,286.960 152.318,286.182 156.265 C 285.179 161.349,283.620 170.601,282.789 176.400 C 282.363 179.370,281.834 183.060,281.613 184.600 C 281.392 186.140,281.019 189.020,280.785 191.000 C 280.206 195.890,280.051 196.400,279.141 196.400 C 272.311 196.400,270.776 209.302,277.407 210.966 C 278.690 211.288,278.728 211.603,278.186 217.400 C 277.011 229.962,275.614 258.280,275.605 269.700 L 275.600 276.800 280.757 276.800 C 285.948 276.800,286.994 276.485,286.180 275.168 C 285.892 274.701,286.674 245.044,287.208 236.200 C 287.824 226.001,288.760 213.106,289.213 208.600 C 290.216 198.606,291.265 188.930,291.426 188.200 C 291.523 187.760,291.776 185.870,291.990 184.000 C 292.203 182.130,292.941 177.090,293.631 172.800 C 294.320 168.510,295.024 164.100,295.196 163.000 C 295.453 161.345,297.131 153.090,298.407 147.200 C 298.909 144.885,301.094 135.955,301.734 133.606 C 302.550 130.609,303.433 130.800,288.776 130.800 L 275.600 130.800 275.600 136.200 M307.403 132.500 C 306.780 134.316,305.217 141.751,305.415 141.953 C 305.549 142.089,307.040 142.383,308.729 142.606 C 311.120 142.923,311.766 143.144,311.648 143.606 C 310.675 147.416,311.902 151.472,314.482 152.973 C 316.347 154.058,316.383 154.195,315.503 156.937 C 314.588 159.789,311.662 169.634,311.205 171.400 C 311.034 172.060,310.498 174.040,310.014 175.800 C 309.531 177.560,308.337 182.240,307.362 186.200 C 304.817 196.528,304.721 196.861,304.238 196.991 C 303.997 197.056,303.043 197.314,302.118 197.565 C 295.932 199.243,294.435 207.476,299.657 211.100 C 301.444 212.339,301.440 212.295,300.246 218.400 C 299.029 224.623,296.556 238.368,295.963 242.200 C 295.497 245.215,294.520 251.786,293.762 257.000 C 292.866 263.167,291.672 272.780,291.529 274.984 L 291.400 276.967 296.336 277.514 C 302.221 278.167,301.463 278.779,302.204 272.771 C 302.541 270.037,303.187 265.100,303.640 261.800 C 304.092 258.500,304.627 254.540,304.828 253.000 C 309.620 216.289,321.600 166.726,332.175 139.855 C 333.202 137.245,333.988 135.066,333.921 135.013 C 333.770 134.892,328.356 134.220,321.000 133.409 C 317.920 133.069,313.960 132.613,312.200 132.395 C 308.086 131.886,307.610 131.896,307.403 132.500 M222.697 156.514 C 217.082 159.913,217.730 168.303,223.786 170.616 C 232.644 173.999,238.642 161.826,230.666 156.654 C 228.475 155.234,224.915 155.171,222.697 156.514 M222.277 183.400 C 210.566 186.620,204.718 199.014,209.894 209.647 C 217.536 225.348,240.006 223.365,244.810 206.566 C 248.694 192.985,235.764 179.692,222.277 183.400 M230.867 192.356 C 234.380 193.889,236.426 196.875,236.713 200.888 C 237.570 212.862,221.458 216.103,217.171 204.819 C 214.108 196.759,222.809 188.841,230.867 192.356 M223.252 232.249 C 215.846 235.939,218.282 246.963,226.499 246.944 C 235.437 246.924,237.761 235.266,229.513 231.821 C 227.384 230.932,225.658 231.050,223.252 232.249 " stroke="none" fill="#dad2ca" fill-rule="evenodd"></path><path id="path1" d="M0.000 200.000 L 0.000 400.000 200.000 400.000 L 400.000 400.000 400.000 200.000 L 400.000 0.000 200.000 0.000 L 0.000 0.000 0.000 200.000 M331.400 26.949 C 337.597 28.606,338.747 28.997,342.350 30.664 C 344.412 31.619,346.337 32.400,346.627 32.400 C 346.917 32.400,347.390 32.723,347.677 33.118 C 348.131 33.741,351.784 36.400,352.186 36.400 C 352.405 36.400,354.384 38.060,355.562 39.233 C 356.133 39.801,357.095 40.389,357.700 40.540 C 358.379 40.710,358.800 41.085,358.800 41.519 C 358.800 42.245,360.105 43.600,360.805 43.600 C 361.022 43.600,361.200 43.947,361.200 44.371 C 361.200 44.795,361.810 45.650,362.557 46.271 C 363.839 47.338,367.615 52.468,367.587 53.104 C 367.579 53.267,368.290 54.840,369.166 56.600 C 371.391 61.069,372.400 63.472,372.400 64.302 C 372.400 64.692,372.760 65.684,373.200 66.504 C 373.749 67.528,374.004 68.783,374.014 70.499 C 374.022 71.908,374.278 73.437,374.600 74.000 C 375.446 75.479,375.492 326.360,374.647 327.714 C 374.343 328.201,373.977 329.673,373.834 330.985 C 373.690 332.296,373.387 333.484,373.160 333.625 C 372.933 333.765,372.611 334.852,372.444 336.040 C 372.277 337.228,371.659 339.139,371.070 340.287 C 370.482 341.434,370.000 342.717,370.000 343.138 C 370.000 343.558,369.742 344.117,369.426 344.379 C 369.110 344.641,368.738 345.374,368.598 346.007 C 368.459 346.640,367.800 347.843,367.132 348.679 C 366.465 349.516,365.263 351.185,364.461 352.389 C 362.710 355.020,355.272 362.529,352.781 364.181 C 351.802 364.831,350.244 365.961,349.319 366.692 C 348.395 367.424,346.881 368.289,345.954 368.616 C 345.027 368.943,344.074 369.359,343.835 369.540 C 343.596 369.721,342.320 370.288,341.000 370.800 C 339.680 371.312,338.420 371.862,338.200 372.022 C 337.623 372.443,333.367 373.466,330.800 373.802 C 329.590 373.960,328.347 374.294,328.039 374.545 C 327.068 375.332,76.736 375.390,74.429 374.604 C 73.455 374.272,71.584 374.000,70.273 374.000 C 68.802 374.000,67.257 373.714,66.244 373.256 C 64.612 372.517,63.761 372.194,59.677 370.767 C 58.510 370.360,56.746 369.480,55.757 368.813 C 54.769 368.146,53.603 367.600,53.167 367.600 C 52.732 367.600,52.271 367.330,52.145 367.000 C 52.018 366.670,51.686 366.400,51.406 366.400 C 51.127 366.400,50.674 366.130,50.400 365.800 C 50.126 365.470,49.670 365.200,49.385 365.200 C 49.101 365.200,48.232 364.615,47.453 363.900 C 44.028 360.753,43.163 360.000,42.974 360.000 C 42.544 360.000,40.453 357.597,40.206 356.820 C 40.063 356.369,39.780 356.000,39.577 356.000 C 39.374 356.000,38.531 354.979,37.704 353.730 C 36.175 351.422,34.917 349.819,33.300 348.113 C 32.805 347.591,32.400 346.899,32.400 346.576 C 32.400 346.253,32.226 345.677,32.012 345.295 C 30.869 343.247,28.759 338.285,28.540 337.130 C 28.401 336.398,28.153 335.620,27.989 335.400 C 27.824 335.180,27.559 334.010,27.400 332.800 C 27.241 331.590,26.906 330.347,26.655 330.039 C 25.823 329.012,25.797 73.244,26.629 70.200 C 27.373 67.478,29.063 62.200,29.574 61.000 C 29.762 60.560,30.219 59.345,30.591 58.300 C 30.962 57.255,31.429 56.400,31.629 56.400 C 31.829 56.400,32.511 55.254,33.146 53.854 C 33.781 52.454,34.506 51.182,34.756 51.027 C 35.007 50.872,35.454 50.173,35.751 49.473 C 37.001 46.517,46.141 37.374,49.381 35.836 C 50.143 35.474,50.876 35.001,51.009 34.785 C 51.143 34.568,52.411 33.849,53.826 33.188 C 55.242 32.526,56.400 31.823,56.400 31.625 C 56.400 31.428,57.255 30.962,58.300 30.591 C 59.345 30.219,60.560 29.759,61.000 29.569 C 61.440 29.378,63.600 28.670,65.800 27.995 C 68.000 27.320,70.250 26.613,70.800 26.424 C 73.142 25.621,328.356 26.135,331.400 26.949 " stroke="none" fill="#e2043c" fill-rule="evenodd"></path><path id="path2" d="M71.972 27.419 C 49.143 31.561,31.321 49.522,27.388 72.350 C 26.531 77.328,26.687 326.036,27.550 329.800 C 30.115 340.985,34.623 349.692,41.720 357.170 C 43.759 359.318,50.355 364.687,52.352 365.825 C 60.599 370.521,65.664 372.356,73.600 373.523 C 80.638 374.559,321.721 374.553,327.600 373.518 C 348.981 369.751,366.744 354.601,371.588 336.000 C 371.846 335.010,372.241 333.570,372.467 332.800 C 374.164 326.999,374.105 331.215,374.279 204.000 C 374.443 83.926,374.423 81.466,373.190 71.600 C 372.531 66.332,369.945 59.536,365.942 52.558 C 362.110 45.879,352.799 37.051,345.453 33.132 C 341.290 30.911,335.585 28.877,329.800 27.550 C 326.212 26.728,76.484 26.601,71.972 27.419 M114.860 128.300 C 115.760 130.225,116.993 132.880,117.600 134.200 C 119.010 137.269,121.693 143.008,123.396 146.600 C 124.127 148.140,125.371 150.795,126.162 152.500 C 126.953 154.205,128.209 156.905,128.953 158.500 C 129.697 160.095,130.672 162.210,131.118 163.200 C 131.565 164.190,133.116 167.495,134.565 170.544 C 136.014 173.592,137.200 176.247,137.200 176.444 C 137.200 177.348,138.003 176.640,138.725 175.100 C 139.163 174.165,140.193 171.960,141.014 170.200 C 141.836 168.440,143.563 164.774,144.854 162.052 C 146.144 159.331,147.200 157.056,147.200 156.996 C 147.200 156.936,148.386 154.392,149.835 151.344 C 151.284 148.295,152.837 144.990,153.286 144.000 C 155.432 139.268,159.768 130.032,161.361 126.800 L 162.247 125.000 185.824 124.896 C 213.092 124.776,210.858 124.527,209.170 127.502 C 208.453 128.766,207.236 130.970,206.466 132.400 C 205.696 133.830,203.926 137.046,202.533 139.546 C 201.140 142.046,200.000 144.151,200.000 144.223 C 200.000 144.295,197.691 148.549,194.868 153.677 C 189.021 164.300,187.595 166.910,185.187 171.400 C 184.242 173.160,182.712 175.950,181.786 177.600 C 180.859 179.250,179.382 181.950,178.502 183.600 C 177.623 185.250,176.548 187.230,176.115 188.000 C 175.681 188.770,174.691 190.570,173.914 192.000 C 171.425 196.580,169.951 199.273,166.800 205.000 C 165.105 208.080,162.791 212.331,161.659 214.447 L 159.600 218.294 159.600 246.947 C 159.600 272.148,159.528 275.600,159.000 275.604 C 158.670 275.606,148.905 275.609,137.300 275.611 L 116.200 275.615 116.097 247.051 L 115.995 218.488 114.263 215.344 C 113.311 213.615,111.753 210.760,110.801 209.000 C 108.890 205.467,103.112 194.866,100.880 190.800 C 100.095 189.370,99.034 187.421,98.521 186.469 C 98.008 185.516,97.073 183.806,96.443 182.669 C 95.812 181.531,94.535 179.160,93.604 177.400 C 92.673 175.640,91.774 174.020,91.606 173.800 C 91.438 173.580,90.529 171.960,89.585 170.200 C 86.775 164.959,83.373 158.697,82.515 157.188 C 82.073 156.411,80.940 154.341,79.996 152.588 C 79.051 150.834,77.496 147.983,76.539 146.251 C 75.583 144.520,74.800 143.031,74.800 142.943 C 74.800 142.856,74.381 142.113,73.869 141.292 C 73.357 140.471,71.892 137.820,70.612 135.400 C 67.020 128.605,65.932 126.632,65.551 126.220 C 64.260 124.823,64.640 124.800,89.211 124.800 L 113.222 124.800 114.860 128.300 M270.003 133.500 C 270.005 138.065,270.123 172.130,270.265 209.200 C 270.485 266.798,270.441 276.662,269.961 277.024 C 269.572 277.319,264.562 277.355,253.600 277.144 C 244.910 276.976,225.600 276.658,210.688 276.436 C 195.776 276.214,183.399 275.923,183.183 275.790 C 182.932 275.635,182.798 264.799,182.811 245.674 L 182.832 215.800 184.337 213.000 C 186.860 208.306,189.243 203.955,191.065 200.714 C 192.019 199.017,192.800 197.523,192.800 197.395 C 192.800 197.266,193.434 196.171,194.208 194.961 L 195.616 192.760 197.208 193.880 C 202.084 197.311,201.740 204.334,196.553 207.262 L 194.400 208.476 194.405 231.938 C 194.412 258.335,194.310 257.019,196.366 257.348 C 199.270 257.813,201.475 259.912,202.722 263.400 L 203.436 265.400 214.218 265.647 C 220.148 265.783,230.254 265.918,236.675 265.947 L 248.350 266.000 248.125 264.618 C 247.356 259.875,251.955 254.926,256.819 255.263 L 258.800 255.400 258.800 231.980 L 258.800 208.561 257.400 208.054 C 250.373 205.513,250.310 196.017,257.300 192.912 L 258.800 192.246 258.798 169.623 L 258.796 147.000 256.087 146.990 C 251.369 146.972,247.770 143.151,248.059 138.465 L 248.174 136.600 237.405 136.484 C 231.482 136.421,226.562 136.295,226.472 136.205 C 226.382 136.115,226.935 134.907,227.702 133.521 C 228.469 132.134,229.683 129.920,230.401 128.600 C 231.119 127.280,231.884 125.975,232.102 125.700 C 232.409 125.313,236.726 125.200,251.249 125.200 L 270.000 125.200 270.003 133.500 M302.592 130.788 C 302.724 131.001,302.359 133.026,301.781 135.288 C 299.333 144.865,296.802 156.187,295.988 161.200 C 295.791 162.410,295.349 165.020,295.005 167.000 C 292.039 184.067,289.759 204.656,288.009 230.200 C 287.600 236.163,286.973 251.766,286.465 268.600 L 286.200 277.400 280.800 277.400 L 275.400 277.400 275.268 272.200 C 275.082 264.866,275.902 242.676,276.857 229.200 C 277.301 222.930,277.755 216.450,277.866 214.800 L 278.067 211.800 276.430 210.886 C 270.337 207.484,271.563 197.841,278.319 196.022 L 279.883 195.601 280.143 192.500 C 280.286 190.795,280.573 188.410,280.780 187.200 C 280.987 185.990,281.365 183.380,281.619 181.400 C 282.531 174.285,283.404 168.694,284.585 162.400 C 284.935 160.530,285.394 158.010,285.604 156.800 C 285.814 155.590,286.091 154.116,286.219 153.524 C 286.417 152.616,286.260 152.348,285.214 151.807 C 282.227 150.263,280.110 146.580,280.507 143.621 L 280.719 142.035 278.060 141.917 L 275.400 141.800 275.287 136.621 C 275.226 133.773,275.265 131.208,275.375 130.921 C 275.623 130.275,302.195 130.145,302.592 130.788 M318.400 132.615 C 321.370 132.938,325.150 133.373,326.800 133.583 C 328.450 133.792,330.835 134.083,332.100 134.228 C 334.874 134.547,334.855 134.223,332.457 140.400 C 331.389 143.150,329.336 148.910,327.894 153.200 C 325.484 160.375,324.975 161.966,323.997 165.400 C 323.809 166.060,323.361 167.590,323.000 168.800 C 320.500 177.194,316.230 194.171,314.608 202.166 C 314.255 203.907,313.890 205.454,313.798 205.603 C 313.706 205.752,313.462 206.847,313.255 208.037 C 313.049 209.227,312.315 212.990,311.625 216.400 C 310.353 222.686,310.059 224.278,308.189 235.000 C 307.140 241.013,306.919 242.368,305.778 249.800 C 304.486 258.218,302.796 271.126,302.453 275.200 L 302.200 278.200 299.800 278.145 C 298.480 278.115,295.960 277.934,294.200 277.743 L 291.000 277.396 291.100 274.998 C 291.197 272.661,292.073 265.026,292.798 260.200 C 292.996 258.880,293.443 255.820,293.791 253.400 C 294.139 250.980,294.591 248.010,294.796 246.800 C 295.000 245.590,295.452 242.800,295.800 240.600 C 296.800 234.269,299.004 222.114,300.264 215.969 L 300.886 212.938 298.676 210.729 C 293.763 205.815,296.190 197.796,302.861 196.901 C 303.708 196.788,304.400 196.673,304.400 196.647 C 304.400 196.138,306.501 187.442,308.132 181.200 C 310.734 171.244,312.309 165.650,314.214 159.600 C 315.842 154.431,315.848 154.734,314.086 153.317 C 311.757 151.446,310.657 148.822,310.904 145.734 L 311.103 143.259 308.120 142.980 C 304.202 142.612,304.184 142.499,306.648 133.662 L 307.245 131.523 310.122 131.776 C 311.705 131.914,315.430 132.292,318.400 132.615 M229.352 155.496 C 236.236 157.963,236.835 167.484,230.316 170.837 C 228.463 171.790,225.021 171.841,223.161 170.943 C 213.712 166.381,219.490 151.961,229.352 155.496 M235.068 184.398 C 252.649 193.054,247.694 219.311,228.222 220.676 C 208.471 222.060,199.828 196.864,216.191 185.606 C 221.603 181.883,228.999 181.410,235.068 184.398 M224.000 192.261 C 213.050 195.868,215.931 211.913,227.382 211.093 C 237.832 210.344,239.928 196.639,230.213 192.580 C 228.890 192.027,225.274 191.841,224.000 192.261 M230.636 231.855 C 232.587 232.854,234.616 235.776,234.962 238.087 C 236.015 245.111,227.500 250.272,221.905 246.000 C 213.700 239.735,221.461 227.161,230.636 231.855 " stroke="none" fill="#3b3433" fill-rule="evenodd"></path><path id="path3" d="M70.800 26.424 C 70.250 26.613,68.000 27.320,65.800 27.995 C 63.600 28.670,61.440 29.378,61.000 29.569 C 60.560 29.759,59.345 30.219,58.300 30.591 C 57.255 30.962,56.400 31.428,56.400 31.625 C 56.400 31.823,55.242 32.526,53.826 33.188 C 52.411 33.849,51.143 34.568,51.009 34.785 C 50.876 35.001,50.143 35.474,49.381 35.836 C 48.295 36.351,43.804 39.987,41.895 41.895 C 39.860 43.930,36.171 48.480,35.751 49.473 C 35.454 50.173,35.007 50.872,34.756 51.027 C 34.506 51.182,33.781 52.454,33.146 53.854 C 32.511 55.254,31.829 56.400,31.629 56.400 C 31.429 56.400,30.962 57.255,30.591 58.300 C 30.219 59.345,29.762 60.560,29.574 61.000 C 29.063 62.200,27.373 67.478,26.629 70.200 C 25.797 73.244,25.823 329.012,26.655 330.039 C 26.906 330.347,27.241 331.590,27.400 332.800 C 27.559 334.010,27.824 335.180,27.989 335.400 C 28.153 335.620,28.401 336.398,28.540 337.130 C 28.759 338.285,30.869 343.247,32.012 345.295 C 32.226 345.677,32.400 346.253,32.400 346.576 C 32.400 346.899,32.805 347.591,33.300 348.113 C 34.917 349.819,36.175 351.422,37.704 353.730 C 38.531 354.979,39.374 356.000,39.577 356.000 C 39.780 356.000,40.063 356.369,40.206 356.820 C 40.453 357.597,42.544 360.000,42.974 360.000 C 43.163 360.000,44.028 360.753,47.453 363.900 C 48.232 364.615,49.101 365.200,49.385 365.200 C 49.670 365.200,50.126 365.470,50.400 365.800 C 50.674 366.130,51.127 366.400,51.406 366.400 C 51.686 366.400,52.018 366.670,52.145 367.000 C 52.271 367.330,52.732 367.600,53.167 367.600 C 53.603 367.600,54.769 368.146,55.757 368.813 C 56.746 369.480,58.510 370.360,59.677 370.767 C 63.761 372.194,64.612 372.517,66.244 373.256 C 67.257 373.714,68.802 374.000,70.273 374.000 C 71.584 374.000,73.455 374.272,74.429 374.604 C 76.736 375.390,327.068 375.332,328.039 374.545 C 328.347 374.294,329.590 373.960,330.800 373.802 C 333.367 373.466,337.623 372.443,338.200 372.022 C 338.420 371.862,339.680 371.312,341.000 370.800 C 342.320 370.288,343.596 369.721,343.835 369.540 C 344.074 369.359,345.027 368.943,345.954 368.616 C 346.881 368.289,348.395 367.424,349.319 366.692 C 350.244 365.961,351.802 364.831,352.781 364.181 C 355.272 362.529,362.710 355.020,364.461 352.389 C 365.263 351.185,366.465 349.516,367.132 348.679 C 367.800 347.843,368.459 346.640,368.598 346.007 C 368.738 345.374,369.110 344.641,369.426 344.379 C 369.742 344.117,370.000 343.558,370.000 343.138 C 370.000 342.717,370.482 341.434,371.070 340.287 C 371.659 339.139,372.277 337.228,372.444 336.040 C 372.611 334.852,372.933 333.765,373.160 333.625 C 373.387 333.484,373.690 332.296,373.834 330.985 C 373.977 329.673,374.343 328.201,374.647 327.714 C 375.492 326.360,375.446 75.479,374.600 74.000 C 374.278 73.437,374.022 71.908,374.014 70.499 C 374.004 68.783,373.749 67.528,373.200 66.504 C 372.760 65.684,372.400 64.692,372.400 64.302 C 372.400 63.472,371.391 61.069,369.166 56.600 C 368.290 54.840,367.579 53.267,367.587 53.104 C 367.615 52.468,363.839 47.338,362.557 46.271 C 361.810 45.650,361.200 44.795,361.200 44.371 C 361.200 43.947,361.022 43.600,360.805 43.600 C 360.105 43.600,358.800 42.245,358.800 41.519 C 358.800 41.085,358.379 40.710,357.700 40.540 C 357.095 40.389,356.133 39.801,355.562 39.233 C 354.384 38.060,352.405 36.400,352.186 36.400 C 351.784 36.400,348.131 33.741,347.677 33.118 C 347.390 32.723,346.917 32.400,346.627 32.400 C 346.337 32.400,344.412 31.619,342.350 30.664 C 338.747 28.997,337.597 28.606,331.400 26.949 C 328.356 26.135,73.142 25.621,70.800 26.424 M329.800 27.550 C 351.302 32.480,365.725 45.885,372.247 67.000 C 372.899 69.113,373.224 71.326,373.979 78.800 C 374.325 82.222,374.401 114.285,374.279 204.000 C 374.105 331.215,374.164 326.999,372.467 332.800 C 372.241 333.570,371.846 335.010,371.588 336.000 C 366.744 354.601,348.981 369.751,327.600 373.518 C 321.721 374.553,80.638 374.559,73.600 373.523 C 65.664 372.356,60.599 370.521,52.352 365.825 C 50.355 364.687,43.759 359.318,41.720 357.170 C 34.623 349.692,30.115 340.985,27.550 329.800 C 26.687 326.036,26.531 77.328,27.388 72.350 C 31.321 49.522,49.143 31.561,71.972 27.419 C 76.484 26.601,326.212 26.728,329.800 27.550 " stroke="none" fill="#d3134c" fill-rule="evenodd"></path><path id="path4" d="M65.200 125.177 C 65.200 125.615,66.797 128.400,67.048 128.400 C 67.140 128.400,66.849 127.680,66.400 126.800 L 65.584 125.200 89.292 125.204 L 113.000 125.207 114.584 128.704 C 115.455 130.627,117.050 134.090,118.129 136.400 C 119.208 138.710,121.349 143.300,122.888 146.600 C 124.427 149.900,126.319 153.950,127.092 155.600 C 130.868 163.650,134.810 172.090,136.015 174.700 C 137.717 178.390,137.676 178.404,140.064 173.300 C 141.171 170.935,142.869 167.336,143.838 165.302 C 144.807 163.267,145.600 161.530,145.600 161.442 C 145.600 161.353,146.968 158.427,148.641 154.940 C 150.313 151.453,152.457 146.890,153.405 144.800 C 154.353 142.710,156.232 138.682,157.581 135.850 C 158.930 133.017,159.954 130.621,159.858 130.524 C 159.761 130.428,159.098 131.575,158.385 133.074 C 156.666 136.688,154.293 141.769,153.284 144.000 C 152.836 144.990,151.284 148.295,149.835 151.344 C 148.386 154.392,147.200 156.936,147.200 156.996 C 147.200 157.056,146.144 159.331,144.854 162.052 C 143.563 164.774,141.836 168.440,141.014 170.200 C 140.193 171.960,139.163 174.165,138.725 175.100 C 138.003 176.640,137.200 177.348,137.200 176.444 C 137.200 176.247,136.014 173.592,134.565 170.544 C 133.116 167.495,131.565 164.190,131.118 163.200 C 130.672 162.210,129.697 160.095,128.953 158.500 C 128.209 156.905,126.953 154.205,126.162 152.500 C 125.371 150.795,124.127 148.140,123.396 146.600 C 121.693 143.008,119.010 137.269,117.600 134.200 C 116.993 132.880,115.760 130.225,114.860 128.300 L 113.222 124.800 89.211 124.800 C 74.441 124.800,65.200 124.945,65.200 125.177 M162.262 125.071 C 161.757 125.576,159.940 129.673,160.135 129.868 C 160.241 129.974,160.819 128.967,161.418 127.631 L 162.509 125.200 186.055 125.200 C 199.005 125.200,209.600 125.310,209.600 125.445 C 209.600 125.579,208.947 126.884,208.149 128.345 C 207.351 129.805,205.532 133.160,204.106 135.800 C 202.680 138.440,201.152 141.194,200.711 141.921 C 200.270 142.648,199.997 143.330,200.105 143.438 C 200.213 143.546,201.611 141.241,203.212 138.317 C 204.813 135.393,206.518 132.280,207.000 131.400 C 207.482 130.520,208.444 128.795,209.139 127.567 C 209.833 126.339,210.281 125.214,210.134 125.067 C 209.782 124.715,162.614 124.719,162.262 125.071 M232.102 125.700 C 231.884 125.975,231.119 127.280,230.401 128.600 C 229.683 129.920,228.469 132.134,227.702 133.521 C 226.935 134.907,226.382 136.115,226.472 136.205 C 226.562 136.295,231.479 136.421,237.400 136.484 L 248.164 136.600 248.074 138.600 C 248.025 139.700,248.123 140.808,248.292 141.062 C 248.461 141.317,248.582 140.327,248.561 138.862 L 248.522 136.200 237.861 136.093 C 231.997 136.035,227.200 135.864,227.200 135.714 C 227.200 135.563,228.409 133.223,229.887 130.513 L 232.575 125.585 251.287 125.692 C 261.579 125.752,270.000 125.665,270.000 125.500 C 270.000 124.941,232.547 125.139,232.102 125.700 M67.200 129.120 C 67.200 129.296,67.356 129.611,67.546 129.820 C 67.736 130.029,69.027 132.360,70.413 135.000 C 71.800 137.640,73.354 140.471,73.867 141.292 C 74.380 142.113,74.800 142.856,74.800 142.943 C 74.800 143.031,75.583 144.520,76.539 146.251 C 77.496 147.983,79.051 150.834,79.996 152.588 C 80.940 154.341,82.073 156.411,82.515 157.188 C 83.373 158.697,86.775 164.959,89.585 170.200 C 90.529 171.960,91.438 173.580,91.606 173.800 C 91.774 174.020,92.673 175.640,93.604 177.400 C 94.535 179.160,95.812 181.531,96.443 182.669 C 97.073 183.806,98.008 185.516,98.521 186.469 C 99.034 187.421,100.095 189.370,100.880 190.800 C 103.112 194.866,108.890 205.467,110.801 209.000 C 111.753 210.760,113.311 213.615,114.263 215.344 L 115.995 218.488 116.097 247.051 L 116.200 275.615 137.300 275.611 C 148.905 275.609,158.670 275.606,159.000 275.604 C 159.528 275.600,159.600 272.148,159.600 246.947 L 159.600 218.294 161.659 214.447 C 162.791 212.331,165.105 208.080,166.800 205.000 C 169.951 199.273,171.425 196.580,173.914 192.000 C 174.691 190.570,175.681 188.770,176.115 188.000 C 176.548 187.230,177.623 185.250,178.502 183.600 C 179.382 181.950,180.859 179.250,181.786 177.600 C 182.712 175.950,184.242 173.160,185.187 171.400 C 187.595 166.910,189.021 164.300,194.868 153.677 C 197.691 148.549,200.000 144.238,200.000 144.097 C 200.000 143.605,199.290 144.614,198.097 146.800 C 197.437 148.010,194.786 152.870,192.205 157.600 C 189.625 162.330,186.928 167.280,186.213 168.600 C 184.797 171.214,173.375 192.106,166.204 205.200 C 163.734 209.710,161.149 214.444,160.459 215.720 L 159.205 218.040 159.103 246.520 L 159.000 275.000 137.700 275.104 L 116.400 275.207 116.400 246.764 L 116.400 218.321 114.343 214.461 C 113.211 212.337,112.157 210.420,111.999 210.200 C 111.841 209.980,110.938 208.360,109.991 206.600 C 109.045 204.840,107.427 201.870,106.395 200.000 C 105.363 198.130,103.836 195.340,103.001 193.800 C 101.444 190.928,97.927 184.464,95.600 180.200 C 94.880 178.880,93.350 176.090,92.200 174.000 C 91.051 171.910,89.426 168.940,88.590 167.400 C 87.754 165.860,86.579 163.700,85.979 162.600 C 77.990 147.957,75.327 143.082,74.398 141.400 C 73.790 140.300,72.711 138.320,72.000 137.000 C 67.721 129.060,67.200 128.205,67.200 129.120 M275.375 130.921 C 275.265 131.208,275.226 133.773,275.287 136.621 L 275.400 141.800 278.060 141.917 L 280.719 142.035 280.507 143.621 C 280.110 146.580,282.227 150.263,285.214 151.807 C 286.260 152.348,286.417 152.616,286.219 153.524 C 286.091 154.116,285.814 155.590,285.604 156.800 C 285.394 158.010,284.937 160.530,284.588 162.400 C 283.594 167.730,283.205 170.137,283.202 170.967 C 283.197 172.641,283.565 171.163,284.389 166.200 C 284.864 163.340,285.600 159.262,286.026 157.137 C 286.974 152.405,286.979 152.038,286.100 151.728 C 283.057 150.656,281.043 147.612,281.076 144.133 L 281.100 141.600 278.350 141.600 L 275.600 141.600 275.600 136.200 L 275.600 130.800 288.776 130.800 C 303.433 130.800,302.551 130.609,301.733 133.606 C 300.921 136.585,299.216 143.713,299.207 144.167 C 299.188 145.153,299.747 143.790,300.210 141.722 C 300.496 140.445,301.203 137.549,301.781 135.288 C 302.359 133.026,302.724 131.001,302.592 130.788 C 302.195 130.145,275.623 130.275,275.375 130.921 M306.637 133.700 C 304.186 142.497,304.204 142.613,308.120 142.980 L 311.103 143.259 310.904 145.734 C 310.657 148.822,311.757 151.446,314.086 153.317 C 315.848 154.733,315.841 154.426,314.219 159.600 C 312.023 166.603,308.000 181.101,308.000 182.009 C 308.000 183.303,308.683 181.040,311.202 171.400 C 311.676 169.585,314.606 159.732,315.503 156.937 C 316.383 154.195,316.347 154.058,314.482 152.973 C 311.902 151.472,310.675 147.416,311.648 143.606 C 311.767 143.142,311.109 142.924,308.633 142.606 C 304.828 142.118,304.968 142.473,306.335 136.800 L 307.442 132.200 308.821 131.953 L 310.200 131.705 308.711 131.653 C 307.244 131.601,307.214 131.631,306.637 133.700 M312.600 132.426 C 313.920 132.604,317.610 133.036,320.800 133.386 C 328.169 134.195,333.765 134.888,333.921 135.013 C 333.988 135.066,333.202 137.245,332.175 139.855 C 327.187 152.529,321.900 169.747,317.392 188.000 C 313.836 202.394,309.394 223.871,310.111 223.200 C 310.311 223.013,312.418 212.849,313.255 208.037 C 313.462 206.847,313.706 205.752,313.798 205.603 C 313.890 205.454,314.255 203.907,314.608 202.166 C 316.230 194.171,320.500 177.194,323.000 168.800 C 323.361 167.590,323.809 166.060,323.997 165.400 C 324.975 161.966,325.484 160.375,327.894 153.200 C 329.336 148.910,331.389 143.150,332.457 140.400 C 334.855 134.223,334.874 134.547,332.100 134.228 C 330.835 134.083,328.450 133.793,326.800 133.584 C 318.747 132.565,313.250 132.002,311.800 132.050 C 310.447 132.094,310.570 132.152,312.600 132.426 M248.800 142.178 C 248.800 144.416,252.680 146.977,256.087 146.990 L 258.796 147.000 258.798 169.623 L 258.800 192.246 257.300 192.912 C 250.310 196.017,250.373 205.513,257.400 208.054 L 258.800 208.561 258.800 231.980 L 258.800 255.400 256.819 255.263 C 251.959 254.926,247.356 259.875,248.124 264.611 L 248.347 265.986 238.474 266.100 L 228.600 266.215 238.751 266.307 L 248.902 266.400 248.656 264.858 C 247.846 259.796,252.647 254.963,257.645 255.808 L 259.200 256.070 259.200 232.221 L 259.200 208.372 257.500 207.604 C 250.646 204.511,250.916 195.610,257.939 193.161 L 259.206 192.719 259.103 169.678 L 259.000 146.636 256.922 146.747 C 254.084 146.897,251.610 145.759,250.028 143.575 C 249.352 142.643,248.800 142.014,248.800 142.178 M298.814 145.000 C 298.760 145.440,298.743 145.526,296.624 155.703 C 295.811 159.610,295.214 163.210,295.298 163.703 C 295.391 164.253,295.568 163.827,295.754 162.600 C 296.104 160.298,297.736 152.256,298.653 148.317 C 298.997 146.841,299.185 145.401,299.071 145.117 C 298.956 144.833,298.841 144.780,298.814 145.000 M223.812 155.438 C 215.097 158.628,217.396 171.600,226.677 171.600 C 231.661 171.600,236.114 166.465,234.830 162.200 C 234.505 161.119,234.465 161.209,234.434 163.104 C 234.287 172.141,221.587 174.326,219.180 165.728 C 216.672 156.770,228.284 151.528,233.346 159.334 C 233.926 160.229,234.400 160.679,234.400 160.336 C 234.400 157.090,227.729 154.004,223.812 155.438 M294.800 164.855 C 294.800 164.959,294.255 168.544,293.589 172.822 C 292.922 177.100,292.201 182.130,291.986 184.000 C 291.770 185.870,291.506 187.850,291.399 188.400 C 290.985 190.525,289.603 204.041,289.652 205.481 C 289.681 206.317,289.935 204.930,290.216 202.400 C 291.437 191.425,292.434 183.459,293.197 178.600 C 294.871 167.935,295.250 165.117,295.041 164.907 C 294.908 164.775,294.800 164.751,294.800 164.855 M282.628 173.800 C 282.476 174.900,282.092 177.531,281.776 179.648 C 281.152 183.815,281.005 187.839,281.602 184.400 C 282.403 179.781,283.267 172.804,283.095 172.328 C 282.991 172.038,282.780 172.700,282.628 173.800 M225.500 182.689 C 226.215 182.778,227.385 182.778,228.100 182.689 C 228.815 182.601,228.230 182.528,226.800 182.528 C 225.370 182.528,224.785 182.601,225.500 182.689 M219.858 183.632 C 199.475 191.902,206.318 222.211,228.222 220.676 C 241.878 219.719,249.882 205.603,243.938 192.958 C 241.832 188.477,234.293 182.732,230.654 182.836 C 229.546 182.867,229.624 182.933,231.323 183.400 C 252.434 189.204,248.620 220.400,226.800 220.400 C 204.891 220.400,201.080 189.227,222.277 183.400 C 223.859 182.965,223.987 182.869,223.000 182.858 C 222.340 182.850,220.926 183.198,219.858 183.632 M270.170 191.400 C 270.171 196.240,270.229 198.165,270.299 195.678 C 270.369 193.191,270.369 189.231,270.298 186.878 C 270.228 184.525,270.170 186.560,270.170 191.400 M307.238 184.600 C 306.973 185.700,306.509 187.590,306.206 188.800 C 305.748 190.635,304.400 196.489,304.400 196.647 C 304.400 196.673,303.708 196.788,302.861 196.901 C 296.190 197.796,293.763 205.815,298.676 210.729 L 300.886 212.938 300.264 215.969 C 299.614 219.140,297.967 227.932,296.999 233.400 C 295.512 241.798,295.136 244.362,295.289 245.052 C 295.380 245.463,295.589 244.810,295.753 243.600 C 295.917 242.390,296.309 239.960,296.624 238.200 C 296.939 236.440,297.648 232.480,298.199 229.400 C 299.904 219.871,300.439 217.053,300.826 215.554 C 301.489 212.989,301.299 212.282,299.627 211.100 C 294.442 207.432,295.950 199.239,302.118 197.565 C 303.043 197.314,303.997 197.056,304.238 196.991 C 304.704 196.865,304.907 196.191,306.805 188.431 C 307.474 185.698,307.953 183.268,307.870 183.031 C 307.788 182.794,307.503 183.500,307.238 184.600 M280.665 187.887 C 280.252 190.474,279.878 195.410,280.110 195.200 C 280.410 194.929,281.339 186.806,281.098 186.565 C 280.993 186.459,280.798 187.054,280.665 187.887 M222.067 192.641 C 217.554 194.891,215.417 200.204,217.171 204.819 C 221.458 216.103,237.570 212.862,236.713 200.888 C 236.187 193.536,228.715 189.329,222.067 192.641 M230.213 192.580 C 239.928 196.639,237.832 210.344,227.382 211.093 C 215.931 211.913,213.050 195.868,224.000 192.261 C 225.274 191.841,228.890 192.027,230.213 192.580 M194.208 194.961 C 193.434 196.171,192.800 197.266,192.800 197.395 C 192.800 197.523,192.019 199.017,191.065 200.714 C 189.243 203.955,186.860 208.306,184.337 213.000 L 182.832 215.800 182.811 245.674 C 182.798 264.799,182.932 275.635,183.183 275.790 C 183.399 275.923,195.776 276.214,210.688 276.436 C 225.600 276.658,244.910 276.976,253.600 277.144 C 263.265 277.330,269.594 277.304,269.900 277.075 C 270.295 276.781,270.379 269.478,270.302 242.451 L 270.205 208.200 270.100 242.563 L 269.996 276.927 254.298 276.678 C 198.214 275.789,184.143 275.531,183.693 275.385 C 183.286 275.252,183.240 269.269,183.459 245.142 L 183.732 215.065 184.936 212.832 C 193.113 197.669,195.401 193.603,195.762 193.602 C 195.961 193.601,196.727 194.059,197.463 194.621 C 201.728 197.874,200.890 204.562,195.896 207.132 L 194.000 208.108 194.000 232.405 C 194.000 259.067,193.822 257.308,196.578 257.823 C 198.616 258.204,201.785 261.264,202.184 263.235 C 202.798 266.273,201.763 266.010,212.727 265.911 L 222.600 265.822 213.019 265.611 L 203.437 265.400 202.722 263.400 C 201.475 259.912,199.270 257.813,196.366 257.348 C 194.310 257.019,194.412 258.335,194.405 231.938 L 194.400 208.476 196.553 207.262 C 201.740 204.334,202.084 197.311,197.208 193.880 L 195.616 192.760 194.208 194.961 M277.850 196.188 C 271.380 198.494,270.503 207.577,276.430 210.886 L 278.067 211.800 277.866 214.800 C 277.755 216.450,277.301 222.930,276.857 229.200 C 275.902 242.676,275.082 264.866,275.268 272.200 L 275.400 277.400 280.795 277.400 C 285.890 277.400,286.195 277.356,286.287 276.600 C 286.342 276.160,286.284 276.025,286.160 276.300 C 285.996 276.663,284.513 276.800,280.767 276.800 L 275.600 276.800 275.605 269.700 C 275.614 258.280,277.011 229.962,278.186 217.400 C 278.728 211.603,278.690 211.288,277.407 210.966 C 270.745 209.294,272.318 196.400,279.184 196.400 C 279.633 196.400,280.000 196.220,280.000 196.000 C 280.000 195.490,279.744 195.512,277.850 196.188 M270.109 202.800 C 270.109 203.790,270.187 204.195,270.282 203.700 C 270.378 203.205,270.378 202.395,270.282 201.900 C 270.187 201.405,270.109 201.810,270.109 202.800 M289.225 207.800 C 289.204 208.240,288.831 213.010,288.396 218.400 C 287.961 223.790,287.629 229.460,287.659 231.000 C 287.706 233.453,287.754 233.255,288.041 229.400 C 288.221 226.980,288.672 221.209,289.043 216.575 C 289.414 211.942,289.615 207.892,289.490 207.575 C 289.333 207.177,289.251 207.247,289.225 207.800 M309.646 223.637 C 308.834 227.785,304.812 252.833,304.841 253.563 C 304.903 255.105,305.395 252.794,306.196 247.200 C 306.558 244.670,307.024 241.700,307.231 240.600 C 308.685 232.873,310.005 224.562,309.863 224.032 C 309.769 223.684,309.672 223.507,309.646 223.637 M223.600 231.445 C 215.247 235.164,217.527 247.415,226.569 247.393 C 230.805 247.383,233.170 245.652,234.640 241.488 C 236.818 235.315,229.618 228.765,223.600 231.445 M229.513 231.821 C 237.761 235.266,235.437 246.924,226.499 246.944 C 218.282 246.963,215.846 235.939,223.252 232.249 C 225.658 231.050,227.384 230.932,229.513 231.821 M287.062 238.495 C 286.769 243.569,286.378 264.858,286.613 263.000 C 286.859 261.043,287.671 234.338,287.490 234.156 C 287.398 234.065,287.206 236.017,287.062 238.495 M294.600 247.863 C 294.458 248.929,294.096 251.420,293.796 253.400 C 292.279 263.428,291.210 271.967,291.093 274.998 L 291.000 277.396 294.200 277.743 C 295.960 277.934,298.480 278.115,299.800 278.145 L 302.200 278.200 302.453 275.200 C 302.716 272.068,303.709 264.064,304.388 259.600 C 304.804 256.867,304.913 254.952,304.636 255.233 C 304.471 255.400,303.356 263.448,302.205 272.771 C 301.463 278.779,302.221 278.167,296.336 277.514 L 291.400 276.967 291.529 274.984 C 291.675 272.731,292.879 263.067,293.794 256.800 C 295.085 247.954,295.278 246.345,295.072 246.139 C 294.956 246.022,294.743 246.798,294.600 247.863 M286.150 271.000 C 286.151 273.420,286.216 274.358,286.296 273.085 C 286.376 271.812,286.375 269.832,286.294 268.685 C 286.214 267.538,286.149 268.580,286.150 271.000 " stroke="none" fill="#7b7570" fill-rule="evenodd"></path></g></svg>