<svg id="Layer_1" data-name="Layer 1" xmlns="http://www.w3.org/2000/svg" xmlns:xlink="http://www.w3.org/1999/xlink" viewBox="0 0 189.06 32.09"><defs><style>.cls-1{fill:#fff;}.cls-1,.cls-2{fill-rule:evenodd;}.cls-2{fill:#1b014c;}.cls-3{mask:url(#mask);}</style><mask id="mask" x="0" y="0" width="32.09" height="32.09" maskUnits="userSpaceOnUse"><g transform="translate(0 -0.38)"><g id="mask-2"><polygon id="path-1" class="cls-1" points="0 0.38 32.09 0.38 32.09 32.47 0 32.47 0 0.38"/></g></g></mask></defs><g id="Page-1"><g id="OB-OF-Quarterly-Report-Landing-Page"><g id="platformable-logo-blue-vector"><path id="Fill-1" class="cls-2" d="M54.53,14c0-1.26-.45-1.84-2.1-1.84h-3V17.4h3c1.73,0,2.1-.66,2.1-1.92Zm-2.1,6.83h-3v5.28H45.52V8.65h7.12c4.24,0,5.81,1.68,5.81,4.95v2.28c0,3.27-1.78,4.92-6,4.92Z" transform="translate(0 -0.38)"/><polygon id="Fill-3" class="cls-2" points="60.83 25.7 60.83 7.75 64.6 7.23 64.6 25.7 60.83 25.7"/><path id="Fill-5" class="cls-2" d="M74.18,21.5H72.37c-.81,0-1.12.21-1.12.92s.29,1,1,1A4.34,4.34,0,0,0,74.18,23Zm.68,4.58-.26-.81A7.88,7.88,0,0,1,71,26.35c-2.35,0-3.32-1.71-3.32-3.88,0-2.56,1.17-3.58,3.79-3.58h2.75v-1c0-1.31-.24-1.75-2.25-1.75a18.33,18.33,0,0,0-3.46.36L68,13.71a17.72,17.72,0,0,1,4.58-.63C77,13.08,78,14.41,78,17.94v8.14Z" transform="translate(0 -0.38)"/><path id="Fill-7" class="cls-2" d="M85.38,26.35c-2.43,0-3.85-.92-3.85-3.28v-6.7H79.81v-3h1.72V10.28l3.77-.53v3.59h2.91l-.21,3H85.3v6.18c0,.52.32.71.79.71A5,5,0,0,0,87.66,23l.44,2.85a8.85,8.85,0,0,1-2.72.48" transform="translate(0 -0.38)"/><path id="Fill-9" class="cls-2" d="M98.05,10.93a10.47,10.47,0,0,0-1.68-.18c-1.2,0-1.28.52-1.28,1.36V13.6h3l-.26,3.09H95.09v9.39H91.32V16.69H89.38V13.6h1.94V11.69c0-2.62,1.23-4.08,4.32-4.08A13.13,13.13,0,0,1,98.52,8Z" transform="translate(0 -0.38)"/><path id="Fill-11" class="cls-2" d="M107.21,21.29V18.13c0-1.21-.63-1.89-2-1.89s-2,.68-2,1.89v3.16c0,1.21.63,1.89,2,1.89s2-.68,2-1.89m-7.75-.1v-3c0-2.61,1.23-5.15,5.76-5.15S111,15.62,111,18.23v3c0,2.62-1.23,5.16-5.75,5.16s-5.76-2.54-5.76-5.16" transform="translate(0 -0.38)"/><path id="Fill-13" class="cls-2" d="M117.52,18.31v7.77h-3.77V13.34h3.14l.26,1.23a12.34,12.34,0,0,1,3.43-1.49l.31,3.56a18.57,18.57,0,0,0-3.37,1.67" transform="translate(0 -0.38)"/><path id="Fill-15" class="cls-2" d="M130.23,26.08V17.66a.8.8,0,0,0-.91-.92,7.31,7.31,0,0,0-2.75.92v8.42H122.8V13.34h2.8l.39,1a12.89,12.89,0,0,1,5.08-1.23,2.45,2.45,0,0,1,2.33,1.23,12.16,12.16,0,0,1,5.1-1.23c2.18,0,2.93,1.62,2.93,4.08v8.92h-3.76V17.66a.81.81,0,0,0-.92-.92,7.31,7.31,0,0,0-2.75.92v8.42Z" transform="translate(0 -0.38)"/><path id="Fill-17" class="cls-2" d="M150.88,21.5h-1.8c-.82,0-1.13.21-1.13.92s.29,1,1,1a4.27,4.27,0,0,0,1.91-.44Zm.68,4.58-.26-.81a7.85,7.85,0,0,1-3.64,1.08c-2.35,0-3.32-1.71-3.32-3.88,0-2.56,1.18-3.58,3.79-3.58h2.75v-1c0-1.31-.23-1.75-2.25-1.75a18.23,18.23,0,0,0-3.45.36l-.5-2.82a17.72,17.72,0,0,1,4.58-.63c4.42,0,5.39,1.33,5.39,4.86v8.14Z" transform="translate(0 -0.38)"/><path id="Fill-19" class="cls-2" d="M161.58,23c.55.05,1,.05,1.55.05,1.88,0,2.22-.86,2.22-2.06v-3.3A1.19,1.19,0,0,0,164,16.35a5.69,5.69,0,0,0-2.41.7ZM163,26.35a36.28,36.28,0,0,1-5.18-.42V8.13l3.76-.52v6.17a10.05,10.05,0,0,1,3.62-.7c2.82,0,3.92,1.75,3.92,4.6V21c0,3-.86,5.37-6.12,5.37Z" transform="translate(0 -0.38)"/><polygon id="Fill-21" class="cls-2" points="171.9 25.7 171.9 7.75 175.66 7.23 175.66 25.7 171.9 25.7"/><path id="Fill-23" class="cls-2" d="M185.5,17.66c0-.89-.26-1.63-1.57-1.63s-1.72.74-1.72,1.63v.55h3.29ZM182.21,21v.37c0,1.46.57,1.86,2.3,1.86a14.82,14.82,0,0,0,3.87-.55l.55,2.82a15.12,15.12,0,0,1-4.79.82c-4.13,0-5.7-2.05-5.7-5.19v-3c0-2.75,1.23-5.1,5.47-5.1s5.15,2.51,5.15,5.28V21Z" transform="translate(0 -0.38)"/><g id="Group-27"><g class="cls-3"><polygon id="Fill-25" class="cls-2" points="12.84 3.21 3.21 12.84 0 16.05 3.21 19.25 16.05 32.09 19.25 28.88 6.42 16.05 16.05 6.42 25.67 16.05 19.25 22.46 22.46 25.67 28.88 19.25 32.09 16.05 28.88 12.84 19.25 3.21 16.05 0 12.84 3.21"/></g></g><polygon id="Fill-28" class="cls-2" points="16.05 12.52 12.52 16.05 16.05 19.57 19.57 16.05 16.05 12.52"/></g></g></g></svg>